<svg xmlns="http://www.w3.org/2000/svg" xmlns:xlink="http://www.w3.org/1999/xlink" viewBox="0 0 1363.01 1315.54"><defs><style>.cls-1,.cls-12,.cls-16,.cls-17,.cls-22,.cls-24,.cls-25,.cls-5{fill:none;}.cls-2{isolation:isolate;}.cls-3{mask:url(#mask);}.cls-4{opacity:0.5;}.cls-5{stroke:#d5e5f6;stroke-width:4.49px;}.cls-12,.cls-16,.cls-17,.cls-24,.cls-25,.cls-5{stroke-miterlimit:10;}.cls-6{fill:url(#radial-gradient);}.cls-7{clip-path:url(#clip-path);}.cls-8{fill:#57c2ff;}.cls-9{clip-path:url(#clip-path-2);}.cls-10{fill:#40afff;}.cls-11{fill:#00c7ec;opacity:0.34;mix-blend-mode:multiply;}.cls-12{stroke:#fff;stroke-linecap:round;stroke-width:3px;stroke-dasharray:5 10;}.cls-13{fill:#fff;}.cls-14{fill:#e3b319;}.cls-15{fill:#fecf37;}.cls-16,.cls-24{stroke:#b89114;}.cls-16,.cls-17{stroke-width:8.96px;}.cls-17,.cls-25{stroke:#feffd1;}.cls-18{fill:#fed537;}.cls-19{fill:#fe9237;}.cls-20{fill:#fe7637;}.cls-21{fill:#febc37;}.cls-22{stroke:#fe7137;stroke-linejoin:round;stroke-width:0.97px;}.cls-23{fill:#feffd1;}.cls-24,.cls-25{stroke-width:9.05px;}</style><mask id="mask" x="-1412.14" y="-7.25" width="2549.39" height="1396.67" maskUnits="userSpaceOnUse"/><radialGradient id="radial-gradient" cx="681.51" cy="657.77" r="830.2" gradientUnits="userSpaceOnUse"><stop offset="0.26" stop-color="#b3eaf8"/><stop offset="0.73" stop-color="#fff" stop-opacity="0"/><stop offset="0.75" stop-color="#fff" stop-opacity="0"/></radialGradient><clipPath id="clip-path"><circle class="cls-1" cx="681.51" cy="671.3" r="354.08"/></clipPath><clipPath id="clip-path-2"><circle class="cls-1" cx="679.86" cy="666.71" r="357.33"/></clipPath></defs><title>Boid_03 World</title><g class="cls-2"><g id="Layer_4" data-name="Layer 4"><g class="cls-3"><g class="cls-4"><polygon class="cls-5" points="-34.96 264.61 54.83 309.5 -34.96 354.4 -124.74 309.5 -34.96 264.61"/><polygon class="cls-5" points="-34.96 174.83 54.83 219.72 -34.96 264.61 -124.74 219.72 -34.96 174.83"/><polygon class="cls-5" points="-34.96 85.05 54.83 129.94 -34.96 174.83 -124.74 129.94 -34.96 85.05"/><polygon class="cls-5" points="-34.96 -4.74 54.83 40.15 -34.96 85.05 -124.74 40.15 -34.96 -4.74"/><polygon class="cls-5" points="-34.96 1162.45 54.83 1207.34 -34.96 1252.23 -124.74 1207.34 -34.96 1162.45"/><polygon class="cls-5" points="-34.96 1072.67 54.83 1117.56 -34.96 1162.45 -124.74 1117.56 -34.96 1072.67"/><polygon class="cls-5" points="-34.96 982.88 54.83 1027.78 -34.96 1072.67 -124.74 1027.78 -34.96 982.88"/><polygon class="cls-5" points="-34.96 893.1 54.83 937.99 -34.96 982.88 -124.74 937.99 -34.96 893.1"/><polygon class="cls-5" points="-34.96 803.32 54.83 848.21 -34.96 893.1 -124.74 848.21 -34.96 803.32"/><polygon class="cls-5" points="-34.96 713.53 54.83 758.42 -34.96 803.32 -124.74 758.42 -34.96 713.53"/><polygon class="cls-5" points="-34.96 623.75 54.83 668.64 -34.96 713.53 -124.74 668.64 -34.96 623.75"/><polygon class="cls-5" points="-34.96 533.96 54.83 578.86 -34.96 623.75 -124.74 578.86 -34.96 533.96"/><polygon class="cls-5" points="-34.96 444.18 54.83 489.07 -34.96 533.96 -124.74 489.07 -34.96 444.18"/><polygon class="cls-5" points="-34.96 354.4 54.83 399.29 -34.96 444.18 -124.74 399.29 -34.96 354.4"/><polygon class="cls-5" points="-34.96 1252.23 54.83 1297.13 -34.96 1342.02 -124.74 1297.13 -34.96 1252.23"/><polygon class="cls-5" points="54.83 309.5 144.61 354.4 54.83 399.29 -34.96 354.4 54.83 309.5"/><polygon class="cls-5" points="54.83 219.72 144.61 264.61 54.83 309.5 -34.96 264.61 54.83 219.72"/><polygon class="cls-5" points="54.83 129.94 144.61 174.83 54.83 219.72 -34.96 174.83 54.83 129.94"/><polygon class="cls-5" points="54.83 40.15 144.61 85.05 54.83 129.94 -34.96 85.05 54.83 40.15"/><polygon class="cls-5" points="54.83 1207.34 144.61 1252.23 54.83 1297.13 -34.96 1252.23 54.83 1207.34"/><polygon class="cls-5" points="54.83 1117.56 144.61 1162.45 54.83 1207.34 -34.96 1162.45 54.83 1117.56"/><polygon class="cls-5" points="54.83 1027.78 144.61 1072.67 54.83 1117.56 -34.96 1072.67 54.83 1027.78"/><polygon class="cls-5" points="54.83 937.99 144.61 982.88 54.83 1027.78 -34.96 982.88 54.83 937.99"/><polygon class="cls-5" points="54.83 848.21 144.61 893.1 54.83 937.99 -34.96 893.1 54.83 848.21"/><polygon class="cls-5" points="54.83 758.42 144.61 803.32 54.83 848.21 -34.96 803.32 54.83 758.42"/><polygon class="cls-5" points="54.83 668.64 144.61 713.53 54.83 758.42 -34.96 713.53 54.83 668.64"/><polygon class="cls-5" points="54.83 578.86 144.61 623.75 54.83 668.64 -34.96 623.75 54.83 578.86"/><polygon class="cls-5" points="54.83 489.07 144.61 533.96 54.83 578.86 -34.96 533.96 54.83 489.07"/><polygon class="cls-5" points="54.83 399.29 144.61 444.18 54.83 489.07 -34.96 444.18 54.83 399.29"/><polygon class="cls-5" points="54.83 1297.13 144.61 1342.02 54.83 1386.91 -34.96 1342.02 54.83 1297.13"/><polygon class="cls-5" points="144.61 354.4 234.4 399.29 144.61 444.18 54.83 399.29 144.61 354.4"/><polygon class="cls-5" points="144.61 264.61 234.4 309.5 144.61 354.4 54.83 309.5 144.61 264.61"/><polygon class="cls-5" points="144.61 174.83 234.4 219.72 144.61 264.61 54.83 219.72 144.61 174.83"/><polygon class="cls-5" points="144.61 85.05 234.4 129.94 144.61 174.83 54.83 129.94 144.61 85.05"/><polygon class="cls-5" points="144.61 -4.74 234.4 40.15 144.61 85.05 54.83 40.15 144.61 -4.74"/><polygon class="cls-5" points="144.61 1252.23 234.4 1297.13 144.61 1342.02 54.83 1297.13 144.61 1252.23"/><polygon class="cls-5" points="144.61 1162.45 234.4 1207.34 144.61 1252.23 54.83 1207.34 144.61 1162.45"/><polygon class="cls-5" points="144.61 1072.67 234.4 1117.56 144.61 1162.45 54.83 1117.56 144.61 1072.67"/><polygon class="cls-5" points="144.61 982.88 234.4 1027.78 144.61 1072.67 54.83 1027.78 144.61 982.88"/><polygon class="cls-5" points="144.61 893.1 234.4 937.99 144.61 982.88 54.83 937.99 144.61 893.1"/><polygon class="cls-5" points="144.61 803.32 234.4 848.21 144.61 893.1 54.83 848.21 144.61 803.32"/><polygon class="cls-5" points="144.61 713.53 234.4 758.42 144.61 803.32 54.83 758.42 144.61 713.53"/><polygon class="cls-5" points="144.61 623.75 234.4 668.64 144.61 713.53 54.83 668.64 144.61 623.75"/><polygon class="cls-5" points="144.61 533.96 234.4 578.86 144.61 623.75 54.83 578.86 144.61 533.96"/><polygon class="cls-5" points="144.61 444.18 234.4 489.07 144.61 533.96 54.83 489.07 144.61 444.18"/><polygon class="cls-5" points="234.4 399.29 324.18 444.18 234.4 489.07 144.61 444.18 234.4 399.29"/><polygon class="cls-5" points="234.4 309.5 324.18 354.4 234.4 399.29 144.61 354.4 234.4 309.5"/><polygon class="cls-5" points="234.4 219.72 324.18 264.61 234.4 309.5 144.61 264.61 234.4 219.72"/><polygon class="cls-5" points="234.4 129.94 324.18 174.83 234.4 219.72 144.61 174.83 234.4 129.94"/><polygon class="cls-5" points="234.4 40.15 324.18 85.05 234.4 129.94 144.61 85.05 234.4 40.15"/><polygon class="cls-5" points="234.4 1297.13 324.18 1342.02 234.4 1386.91 144.61 1342.02 234.4 1297.13"/><polygon class="cls-5" points="234.4 1207.34 324.18 1252.23 234.4 1297.13 144.61 1252.23 234.4 1207.34"/><polygon class="cls-5" points="234.4 1117.56 324.18 1162.45 234.4 1207.34 144.61 1162.45 234.4 1117.56"/><polygon class="cls-5" points="234.4 1027.78 324.18 1072.67 234.4 1117.56 144.61 1072.67 234.4 1027.78"/><polygon class="cls-5" points="234.4 937.99 324.18 982.88 234.4 1027.78 144.61 982.88 234.4 937.99"/><polygon class="cls-5" points="234.4 848.21 324.18 893.1 234.4 937.99 144.61 893.1 234.4 848.21"/><polygon class="cls-5" points="234.4 758.42 324.18 803.32 234.4 848.21 144.61 803.32 234.4 758.42"/><polygon class="cls-5" points="234.4 668.64 324.18 713.53 234.4 758.42 144.61 713.53 234.4 668.64"/><polygon class="cls-5" points="234.4 578.86 324.18 623.75 234.4 668.64 144.61 623.75 234.4 578.86"/><polygon class="cls-5" points="234.4 489.07 324.18 533.96 234.4 578.86 144.61 533.96 234.4 489.07"/><polygon class="cls-5" points="324.18 444.18 413.96 489.07 324.18 533.96 234.4 489.07 324.18 444.18"/><polygon class="cls-5" points="324.18 354.4 413.96 399.29 324.18 444.18 234.4 399.29 324.18 354.4"/><polygon class="cls-5" points="324.18 264.61 413.96 309.5 324.18 354.4 234.4 309.5 324.18 264.61"/><polygon class="cls-5" points="324.18 174.83 413.96 219.72 324.18 264.61 234.4 219.72 324.18 174.83"/><polygon class="cls-5" points="324.18 85.05 413.96 129.94 324.18 174.83 234.4 129.94 324.18 85.05"/><polygon class="cls-5" points="324.18 -4.74 413.96 40.15 324.18 85.05 234.4 40.15 324.18 -4.74"/><polygon class="cls-5" points="324.18 1252.23 413.96 1297.13 324.18 1342.02 234.4 1297.13 324.18 1252.23"/><polygon class="cls-5" points="324.18 1162.45 413.96 1207.34 324.18 1252.23 234.4 1207.34 324.18 1162.45"/><polygon class="cls-5" points="324.18 1072.67 413.96 1117.56 324.18 1162.45 234.4 1117.56 324.18 1072.67"/><polygon class="cls-5" points="324.18 982.88 413.96 1027.78 324.18 1072.67 234.4 1027.78 324.18 982.88"/><polygon class="cls-5" points="324.18 893.1 413.96 937.99 324.18 982.88 234.4 937.99 324.18 893.1"/><polygon class="cls-5" points="324.18 803.32 413.96 848.21 324.18 893.1 234.4 848.21 324.18 803.32"/><polygon class="cls-5" points="324.18 713.53 413.96 758.42 324.18 803.32 234.4 758.42 324.18 713.53"/><polygon class="cls-5" points="324.18 623.75 413.96 668.64 324.18 713.53 234.4 668.64 324.18 623.75"/><polygon class="cls-5" points="324.18 533.96 413.96 578.86 324.18 623.75 234.4 578.86 324.18 533.96"/><polygon class="cls-5" points="413.96 489.07 503.75 533.96 413.96 578.86 324.18 533.96 413.96 489.07"/><polygon class="cls-5" points="413.96 399.29 503.75 444.18 413.96 489.07 324.18 444.18 413.96 399.29"/><polygon class="cls-5" points="413.96 309.5 503.75 354.4 413.96 399.29 324.18 354.4 413.96 309.5"/><polygon class="cls-5" points="413.96 219.72 503.75 264.61 413.96 309.5 324.18 264.61 413.96 219.72"/><polygon class="cls-5" points="413.96 129.94 503.75 174.83 413.96 219.72 324.18 174.83 413.96 129.94"/><polygon class="cls-5" points="413.96 40.15 503.75 85.05 413.96 129.94 324.18 85.05 413.96 40.15"/><polygon class="cls-5" points="413.96 1297.13 503.75 1342.02 413.96 1386.91 324.18 1342.02 413.96 1297.13"/><polygon class="cls-5" points="413.96 1207.34 503.75 1252.23 413.96 1297.13 324.18 1252.23 413.96 1207.34"/><polygon class="cls-5" points="413.96 1117.56 503.75 1162.45 413.96 1207.34 324.18 1162.45 413.96 1117.56"/><polygon class="cls-5" points="413.96 1027.78 503.75 1072.67 413.96 1117.56 324.18 1072.67 413.96 1027.78"/><polygon class="cls-5" points="413.96 937.99 503.75 982.88 413.96 1027.78 324.18 982.88 413.96 937.99"/><polygon class="cls-5" points="413.96 848.21 503.75 893.1 413.96 937.99 324.18 893.1 413.96 848.21"/><polygon class="cls-5" points="413.96 758.42 503.75 803.32 413.96 848.21 324.18 803.32 413.96 758.42"/><polygon class="cls-5" points="413.96 668.64 503.75 713.53 413.96 758.42 324.18 713.53 413.96 668.64"/><polygon class="cls-5" points="413.96 578.86 503.75 623.75 413.96 668.64 324.18 623.75 413.96 578.86"/><polygon class="cls-5" points="503.75 533.96 593.53 578.86 503.75 623.75 413.96 578.86 503.75 533.96"/><polygon class="cls-5" points="503.75 444.18 593.53 489.07 503.75 533.96 413.96 489.07 503.75 444.18"/><polygon class="cls-5" points="503.75 354.4 593.53 399.29 503.75 444.18 413.96 399.29 503.75 354.4"/><polygon class="cls-5" points="503.75 264.61 593.53 309.5 503.75 354.4 413.96 309.5 503.75 264.61"/><polygon class="cls-5" points="503.75 174.83 593.53 219.72 503.75 264.61 413.96 219.72 503.75 174.83"/><polygon class="cls-5" points="503.75 85.05 593.53 129.94 503.75 174.83 413.96 129.94 503.75 85.05"/><polygon class="cls-5" points="503.75 -4.74 593.53 40.15 503.75 85.05 413.96 40.15 503.75 -4.74"/><polygon class="cls-5" points="503.75 1252.23 593.53 1297.13 503.75 1342.02 413.96 1297.13 503.75 1252.23"/><polygon class="cls-5" points="503.75 1162.45 593.53 1207.34 503.75 1252.23 413.96 1207.34 503.75 1162.45"/><polygon class="cls-5" points="503.75 1072.67 593.53 1117.56 503.75 1162.45 413.96 1117.56 503.75 1072.67"/><polygon class="cls-5" points="503.75 982.88 593.53 1027.78 503.75 1072.67 413.96 1027.78 503.75 982.88"/><polygon class="cls-5" points="503.75 893.1 593.53 937.99 503.75 982.88 413.96 937.99 503.75 893.1"/><polygon class="cls-5" points="503.75 803.32 593.53 848.21 503.75 893.1 413.96 848.21 503.75 803.32"/><polygon class="cls-5" points="503.75 713.53 593.53 758.42 503.75 803.32 413.96 758.42 503.75 713.53"/><polygon class="cls-5" points="503.75 623.75 593.53 668.64 503.75 713.53 413.96 668.64 503.75 623.75"/><polygon class="cls-5" points="593.53 578.86 683.32 623.75 593.53 668.64 503.75 623.75 593.53 578.86"/><polygon class="cls-5" points="593.53 489.07 683.32 533.96 593.53 578.86 503.75 533.96 593.53 489.07"/><polygon class="cls-5" points="593.53 399.29 683.32 444.18 593.53 489.07 503.75 444.18 593.53 399.29"/><polygon class="cls-5" points="593.53 309.5 683.32 354.4 593.53 399.29 503.75 354.4 593.53 309.5"/><polygon class="cls-5" points="593.53 219.72 683.32 264.61 593.53 309.5 503.75 264.61 593.53 219.72"/><polygon class="cls-5" points="593.53 129.94 683.32 174.83 593.53 219.72 503.75 174.83 593.53 129.94"/><polygon class="cls-5" points="593.53 40.15 683.32 85.05 593.53 129.94 503.75 85.05 593.53 40.15"/><polygon class="cls-5" points="593.53 1297.13 683.32 1342.02 593.53 1386.91 503.75 1342.02 593.53 1297.13"/><polygon class="cls-5" points="593.53 1207.34 683.32 1252.23 593.53 1297.13 503.75 1252.23 593.53 1207.34"/><polygon class="cls-5" points="593.53 1117.56 683.32 1162.45 593.53 1207.34 503.75 1162.45 593.53 1117.56"/><polygon class="cls-5" points="593.53 1027.78 683.32 1072.67 593.53 1117.56 503.75 1072.67 593.53 1027.78"/><polygon class="cls-5" points="593.53 937.99 683.32 982.88 593.53 1027.78 503.75 982.88 593.53 937.99"/><polygon class="cls-5" points="593.53 848.21 683.32 893.1 593.53 937.99 503.75 893.1 593.53 848.21"/><polygon class="cls-5" points="593.53 758.42 683.32 803.32 593.53 848.21 503.75 803.32 593.53 758.42"/><polygon class="cls-5" points="593.53 668.64 683.32 713.53 593.53 758.42 503.75 713.53 593.53 668.64"/><polygon class="cls-5" points="683.32 623.75 773.1 668.64 683.32 713.53 593.53 668.64 683.32 623.75"/><polygon class="cls-5" points="683.32 533.96 773.1 578.86 683.32 623.75 593.53 578.86 683.32 533.96"/><polygon class="cls-5" points="683.32 444.18 773.1 489.07 683.32 533.96 593.53 489.07 683.32 444.18"/><polygon class="cls-5" points="683.32 354.4 773.1 399.29 683.32 444.18 593.53 399.29 683.32 354.4"/><polygon class="cls-5" points="683.32 264.61 773.1 309.5 683.32 354.4 593.53 309.5 683.32 264.61"/><polygon class="cls-5" points="683.32 174.83 773.1 219.72 683.32 264.61 593.53 219.72 683.32 174.83"/><polygon class="cls-5" points="683.32 85.05 773.1 129.94 683.32 174.83 593.53 129.94 683.32 85.05"/><polygon class="cls-5" points="683.32 -4.74 773.1 40.15 683.32 85.05 593.53 40.15 683.32 -4.74"/><polygon class="cls-5" points="683.32 1252.23 773.1 1297.13 683.32 1342.02 593.53 1297.13 683.32 1252.23"/><polygon class="cls-5" points="683.32 1162.45 773.1 1207.34 683.32 1252.23 593.53 1207.34 683.32 1162.45"/><polygon class="cls-5" points="683.32 1072.67 773.1 1117.56 683.32 1162.45 593.53 1117.56 683.32 1072.67"/><polygon class="cls-5" points="683.32 982.88 773.1 1027.78 683.32 1072.67 593.53 1027.78 683.32 982.88"/><polygon class="cls-5" points="683.32 893.1 773.1 937.99 683.32 982.88 593.53 937.99 683.32 893.1"/><polygon class="cls-5" points="683.32 803.32 773.1 848.21 683.32 893.1 593.53 848.21 683.32 803.32"/><polygon class="cls-5" points="683.32 713.53 773.1 758.42 683.32 803.32 593.53 758.42 683.32 713.53"/><polygon class="cls-5" points="773.1 668.64 862.88 713.53 773.1 758.42 683.32 713.53 773.1 668.64"/><polygon class="cls-5" points="773.1 578.86 862.88 623.75 773.1 668.64 683.32 623.75 773.1 578.86"/><polygon class="cls-5" points="773.1 489.07 862.88 533.96 773.1 578.86 683.32 533.96 773.1 489.07"/><polygon class="cls-5" points="773.1 399.29 862.88 444.18 773.1 489.07 683.32 444.18 773.1 399.29"/><polygon class="cls-5" points="773.1 309.5 862.88 354.4 773.1 399.29 683.32 354.4 773.1 309.5"/><polygon class="cls-5" points="773.1 219.72 862.88 264.61 773.1 309.5 683.32 264.61 773.1 219.72"/><polygon class="cls-5" points="773.1 129.94 862.88 174.83 773.1 219.72 683.32 174.83 773.1 129.94"/><polygon class="cls-5" points="773.1 40.15 862.88 85.05 773.1 129.94 683.32 85.05 773.1 40.15"/><polygon class="cls-5" points="773.1 1297.13 862.88 1342.02 773.1 1386.91 683.32 1342.02 773.1 1297.13"/><polygon class="cls-5" points="773.1 1207.34 862.88 1252.23 773.1 1297.13 683.32 1252.23 773.1 1207.34"/><polygon class="cls-5" points="773.1 1117.56 862.88 1162.45 773.1 1207.34 683.32 1162.45 773.1 1117.56"/><polygon class="cls-5" points="773.1 1027.78 862.88 1072.67 773.1 1117.56 683.32 1072.67 773.1 1027.78"/><polygon class="cls-5" points="773.1 937.99 862.88 982.88 773.1 1027.78 683.32 982.88 773.1 937.99"/><polygon class="cls-5" points="773.1 848.21 862.88 893.1 773.1 937.99 683.32 893.1 773.1 848.21"/><polygon class="cls-5" points="773.1 758.42 862.88 803.32 773.1 848.21 683.32 803.32 773.1 758.42"/><polygon class="cls-5" points="862.88 713.53 952.67 758.42 862.88 803.32 773.1 758.42 862.88 713.53"/><polygon class="cls-5" points="862.88 623.75 952.67 668.64 862.88 713.53 773.1 668.64 862.88 623.75"/><polygon class="cls-5" points="862.88 533.96 952.67 578.86 862.88 623.75 773.1 578.86 862.88 533.96"/><polygon class="cls-5" points="862.88 444.18 952.67 489.07 862.88 533.96 773.1 489.07 862.88 444.18"/><polygon class="cls-5" points="862.88 354.4 952.67 399.29 862.88 444.18 773.1 399.29 862.88 354.4"/><polygon class="cls-5" points="862.88 264.61 952.67 309.5 862.88 354.4 773.1 309.5 862.88 264.61"/><polygon class="cls-5" points="862.88 174.83 952.67 219.72 862.88 264.61 773.1 219.72 862.88 174.83"/><polygon class="cls-5" points="862.88 85.05 952.67 129.94 862.88 174.83 773.1 129.94 862.88 85.05"/><polygon class="cls-5" points="862.88 -4.74 952.67 40.15 862.88 85.05 773.1 40.15 862.88 -4.74"/><polygon class="cls-5" points="862.88 1252.23 952.67 1297.13 862.88 1342.02 773.1 1297.13 862.88 1252.23"/><polygon class="cls-5" points="862.88 1162.45 952.67 1207.34 862.88 1252.23 773.1 1207.34 862.88 1162.45"/><polygon class="cls-5" points="862.88 1072.67 952.67 1117.56 862.88 1162.45 773.1 1117.56 862.88 1072.67"/><polygon class="cls-5" points="862.88 982.88 952.67 1027.78 862.88 1072.67 773.1 1027.78 862.88 982.88"/><polygon class="cls-5" points="862.88 893.1 952.67 937.99 862.88 982.88 773.1 937.99 862.88 893.1"/><polygon class="cls-5" points="862.88 803.32 952.67 848.21 862.88 893.1 773.1 848.21 862.88 803.32"/><polygon class="cls-5" points="952.67 758.42 1042.45 803.32 952.67 848.21 862.88 803.32 952.67 758.42"/><polygon class="cls-5" points="952.67 668.64 1042.45 713.53 952.67 758.42 862.88 713.53 952.67 668.64"/><polygon class="cls-5" points="952.67 578.86 1042.45 623.75 952.67 668.64 862.88 623.75 952.67 578.86"/><polygon class="cls-5" points="952.67 489.07 1042.45 533.96 952.67 578.86 862.88 533.96 952.67 489.07"/><polygon class="cls-5" points="952.67 399.29 1042.45 444.18 952.67 489.07 862.88 444.18 952.67 399.29"/><polygon class="cls-5" points="952.67 309.5 1042.45 354.4 952.67 399.29 862.88 354.4 952.67 309.5"/><polygon class="cls-5" points="952.67 219.72 1042.45 264.61 952.67 309.5 862.88 264.61 952.67 219.72"/><polygon class="cls-5" points="952.67 129.94 1042.45 174.83 952.67 219.72 862.88 174.83 952.67 129.94"/><polygon class="cls-5" points="952.67 40.15 1042.45 85.05 952.67 129.94 862.88 85.05 952.67 40.15"/><polygon class="cls-5" points="952.67 1297.13 1042.45 1342.02 952.67 1386.91 862.88 1342.02 952.67 1297.13"/><polygon class="cls-5" points="952.67 1207.34 1042.45 1252.23 952.67 1297.13 862.88 1252.23 952.67 1207.34"/><polygon class="cls-5" points="952.67 1117.56 1042.45 1162.45 952.67 1207.34 862.88 1162.45 952.67 1117.56"/><polygon class="cls-5" points="952.67 1027.78 1042.45 1072.67 952.67 1117.56 862.88 1072.67 952.67 1027.78"/><polygon class="cls-5" points="952.67 937.99 1042.45 982.88 952.67 1027.78 862.88 982.88 952.67 937.99"/><polygon class="cls-5" points="952.67 848.21 1042.45 893.1 952.67 937.99 862.88 893.1 952.67 848.21"/><polygon class="cls-5" points="1042.45 803.32 1132.23 848.21 1042.45 893.1 952.67 848.21 1042.45 803.32"/><polygon class="cls-5" points="1042.45 713.53 1132.23 758.42 1042.45 803.32 952.67 758.42 1042.45 713.53"/><polygon class="cls-5" points="1042.45 623.75 1132.23 668.64 1042.45 713.53 952.67 668.64 1042.45 623.75"/><polygon class="cls-5" points="1042.45 533.96 1132.23 578.86 1042.45 623.75 952.67 578.86 1042.45 533.96"/><polygon class="cls-5" points="1042.45 444.18 1132.23 489.07 1042.45 533.96 952.67 489.07 1042.45 444.18"/><polygon class="cls-5" points="1042.45 354.4 1132.23 399.29 1042.45 444.18 952.67 399.29 1042.45 354.4"/><polygon class="cls-5" points="1042.45 264.61 1132.23 309.5 1042.45 354.4 952.67 309.5 1042.45 264.61"/><polygon class="cls-5" points="1042.45 174.83 1132.23 219.72 1042.45 264.61 952.67 219.72 1042.45 174.83"/><polygon class="cls-5" points="1042.45 85.05 1132.23 129.94 1042.45 174.83 952.67 129.94 1042.45 85.05"/><polygon class="cls-5" points="1042.45 -4.74 1132.23 40.15 1042.45 85.05 952.67 40.15 1042.45 -4.74"/><polygon class="cls-5" points="1042.45 1252.23 1132.23 1297.13 1042.45 1342.02 952.67 1297.13 1042.45 1252.23"/><polygon class="cls-5" points="1042.45 1162.45 1132.23 1207.34 1042.45 1252.23 952.67 1207.34 1042.45 1162.45"/><polygon class="cls-5" points="1042.45 1072.67 1132.23 1117.56 1042.45 1162.45 952.67 1117.56 1042.45 1072.67"/><polygon class="cls-5" points="1042.45 982.88 1132.23 1027.78 1042.45 1072.67 952.67 1027.78 1042.45 982.88"/><polygon class="cls-5" points="1042.45 893.1 1132.23 937.99 1042.45 982.88 952.67 937.99 1042.45 893.1"/></g></g></g><g id="Layer_5" data-name="Layer 5"><circle class="cls-6" cx="681.51" cy="657.77" r="462.91"/><g class="cls-7"><circle class="cls-8" cx="681.51" cy="671.3" r="354.08"/><g class="cls-9"><path class="cls-10" d="M367.39,478.61c-4.08,29.57,6.11,44.86,0,59.13s-13.26,39.76-7.14,57.09,15.29,55.06,23.45,56.08-6.12-40.78,2-27.53,8.15,33,22.43,46.56,33.64,11.55,48.93,24.8,30.59,32.63,44.86,30.59c0,0-1,10.2-8.16,27.53s-8.15,37.72,1,49.95,18.35,30.59,26.51,39.76,14.27,58.11,12.23,82.58,9.18,79.52,34.66,91.75,0-6.11-5.09-21.4,3.94-51,16.25-56.08,23.51-25.48,32.68-39.76,32.63-20.39,39.77-37.72,4.07-37.72,8.15-46.89,15.3-29.57-9.18-41.81-34.65-6.11-35.68-17.33-7.13-23.44-24.46-28.54-32.63-15-52-17.18-23.45,13.1-33.64,4.95-18.35-16.32-22.43-26.51-16.31-4.08-15.29-10.2,17.33-23.44-1-17.33-34.67,4.08-33.65-12.23,23.45-22.43,32.63-24.47,16.31,9.18,27.53,16.31,1-10.19,7.13-22.43,29.57-11.21,32.62-28.54-1-31.61,17.34-33.65,37.72,1,39.75-8.15-21.41,3.06-22.42-8.16,20.39-26.5,26.5-15.29,21.41,12.23,23.45,8.16,0-11.22-7.13-28.55-14.28-12.23-20.4-31.6-16.3,1-26.5-9.18-22.43-31.6-24.47-13.25-2,28.54-11.21,42.81S514.2,496,506,486.77s-26.51-18.35-20.39-26.5,12.23-29.57,21.41-23.45,23.45,6.11,21.41-4.08,0-14.28,4.07-19.37,18.36-14.28,18.36,4.08-2,23.44,12.23,25.48,30.58,3.06,29.57-6.11,4.07-7.14,0-22.44-16.32-16.31-29.57-23.45-20.39-18.34-31.61-14.27-12.23,8.16-13.25,19.38-7.14,15.29-11.21,10.19,1-21.41-14.27-11.21-21.41,27.52-29.57,15.29,12.23-33.65-9.18-24.47-36.7,19.37-25.48,23.45S451,420.5,439.77,424.58s-33.64-3.06-41.8,5.1S367.39,478.61,367.39,478.61Z"/><path class="cls-10" d="M487.69,368.51c-.06,11.4,3.06,20.39,13.25,10.19s16.31-22.42,23.45-17.33,19.37,3.75,24.46,3.4,6.12-15.63,20.4-13.59,9.17-3.06,24.46-11.22,47.92-22.43,14.28-18.35-35.69-5.1-59.14,10.19-28.54,15.3-34.65,19.38-13.26-12.24-21.41,0S487.74,356.9,487.69,368.51Z"/><path class="cls-10" d="M609.64,336.91c-12,10.4-30.58,25.48-16.31,25.48s21.2-7.47,28.95,2.38S627,389.92,627,397.05s-4.08,23.45,6.12,43.84,11.21,33.65,21.41,20.39,34.66-38.74,46.89-40.78,24.47-7.13,30.59-17.33,0-20.08,10.19-27.37,8.16-16.47,11.22-27.68,30.58-11.21,18.35-17.33-34.66-10.2-61.17-7.14S632.07,317.53,609.64,336.91Z"/><path class="cls-10" d="M497.88,651.92c-6.48,10.58-3.06,11.22,4.08,13.26s-3.06,14.27,5.1,15.29,26.5,6.12,31.6,0-8.15-3.73-17.33-10.53S502.49,644.41,497.88,651.92Z"/><path class="cls-10" d="M991.32,818.1c-11,5.5-6.12,14.27-16.32,20.39s-6.11,8.16-9.17,22.43,1,22.43,8.15,11.22S1003.55,812,991.32,818.1Z"/><path class="cls-10" d="M1049.43,646.83c-3.06-17.33-25.49-174.33-25.49-174.33s-60.15-38.75-70.34-30.59-27.53,6.92-25.49-1.12,15.29-6-7.14-21.31-26.51-28.55-43.83-9.17S855.73,446,845.53,451.09s-18.35,21.41-7.14,25.48,12.23,0,21.41,8.16,21.41,6.12,23.45,1,4.08-21.41,5.1-27.53,11.38-26.5,10.28-10.19,14.19,16.31,4,27.53S898.54,496,878.15,498s-21.41-10.19-32.62-4.07-10.2,10.19-14.28,16.31-25.48,18.35-25.48,18.35-17.33-6.12-9.18,5.1,15.3,24.46,8.16,25.48-26.51-10.19-26.51,2-3,25.49,5.1,28.55c5.76,2.16,9.49,6.83,14.77,6.18A26.29,26.29,0,0,0,787.42,604c-7.93,10.37-3.06,28.55-19.37,34.66s-16.31,13.25-19.37,26.51,0,46.9,4.07,50,11.22,28.54,28.55,26.5,35.68-2.83,41.8.12,16.31-6.23,19.37,17.21,10.19,26.51,14.27,38.75-2,37.72,0,53,16.31,41.8,16.31,55,15.3,19.37,23.45,14.27,25.49-15.29,32.63-31.6,7.13-24.47,18.35-45.88,8.16-36.7,13.25-53S978.09,762,994.9,743.68s13.78-28.54,0-27.53-23-12.23-30.1-28.54-15.28-57.09-9.16-43.84,18.34,50,30.58,56.07,34.66-10.39,39.76-16.41,3.06-23.35-10.2-30.48-5.09-13.26,8.16-5.1S1052.48,664.16,1049.43,646.83ZM941.36,603c-1,8.16,3.06,21.41-19.37,16.32s-22.43-17.34-31.6-8.16S870,628.48,856.74,614.2s-11.21-18.34-18.35-19.37c-5.08-.72-22-4.5-36.16-.39a23.14,23.14,0,0,0,3.54-2.66c10.19-9.18,8.15-12.24,19.37-22.43s19.37-19.37,27.52-10.2,25.49,11.22,19.37,21.41-2,16.31,5.11,10.2,17.32-10.2,10.19-18.35-14.28-29.57-4.08-15.3,13.25,21.41,19.37,29.57,12.23,13.25,14.27,8.15-1-16.31,2-18.34,0,17.33,9.18,18.34S942.38,594.83,941.36,603Zm23.44-34.66c-7.14-4.08-20.38,0-36.69,5.09s-3.26-11.34,4.08-22.42c6.56-9.91,3,3.06,17.33,4.08S972,572.41,964.8,568.33Zm35.69,31.6c-3.06,3.06-8.15-14.27-11.21-22.43s-3-22.33,5.62-30.21c10.72-9.83,5.59,12.88,5.59,25.12S1003.55,596.87,1000.49,599.93Z"/><path class="cls-10" d="M803.73,475.56c-6.25,1.87-11.22,14.27-8.16,20.39s-3.06-3.07-11.21,2-20.28,19.38-9.12,20.39,9.12-8.15,19.31-4.08S816,517.36,816,507.16,813.92,472.5,803.73,475.56Z"/><path class="cls-10" d="M737.46,428.66c-6.14.88-8.16,16.31,5.1,18.35,12,1.85,37.19-2.87,28.18-11.22C761.93,427.64,751.74,426.62,737.46,428.66Z"/></g></g><path class="cls-11" d="M865.94,369a352.46,352.46,0,0,1,67.2,207.53c0,195.56-158.53,354.09-354.09,354.09a352.41,352.41,0,0,1-184.43-51.78c64.33,88.78,168.86,146.55,286.89,146.55,195.55,0,354.08-158.53,354.08-354.09C1035.59,543.32,967.68,431.21,865.94,369Z"/><path class="cls-12" d="M768.39,518.41c21.39.57,41.49,2.2,58.73,5.31"/><path class="cls-12" d="M666.11,521.92c33.39-2.71,69.37-4.38,102.28-3.51"/><path class="cls-12" d="M593.49,529.75c20.57-2.78,45.75-5.64,72.62-7.83"/><path class="cls-12" d="M445.69,570.92s53.66-25.87,118.05-36.71c8.12-1.37,18.2-2.9,29.75-4.46"/><path class="cls-12" d="M445.69,570.92S498,739.13,564.18,838.22"/><path class="cls-12" d="M445.69,570.92c125.5,78,188.5,97.72,323,126.27,28.64,4.46,53.21,4.61,73.95,2.33"/><path class="cls-12" d="M656.69,888.7c35.91,0,99.47-42.27,152.79-148.86"/><circle class="cls-13" cx="447.02" cy="570.93" r="13"/><path class="cls-12" d="M733.7,409.34a702.24,702.24,0,0,1,78,1.83"/><path class="cls-12" d="M447,570.93c-9.23-28.56,41.32-113.36,180.19-147.5"/><path class="cls-12" d="M956.51,779.16c14-20.15,25.39-49.84,25.39-76.95"/><path class="cls-12" d="M1010.89,518.18s38.8,52.75-5.7,96.52"/><path class="cls-12" d="M326,691.11c-.57,13.67.8,37,12.19,64.5,24,55.09,81.63,113.93,115.47,116.92"/><path class="cls-12" d="M331.26,607.77c-3.84-21.07,11.56-74.19,52.66-104.46"/><polygon class="cls-14" points="881.84 378.7 876.2 378.7 840.32 397.31 840.32 439.57 875.3 458.18 880.93 458.18 917.71 439.57 917.71 397.18 881.84 378.7"/><polygon class="cls-15" points="882.32 378.7 846.45 397.31 846.45 439.57 881.42 458.18 918.2 439.57 918.2 397.18 882.32 378.7"/><path class="cls-14" d="M882.33,381.25l33.61,17.31v39.62l-34.49,17.45-32.74-17.41V398.68l33.62-17.43m0-2.55-35.87,18.6v42.27l35,18.61,36.78-18.61V397.18L882.32,378.7Z"/><polygon class="cls-14" points="840.32 397.31 848.39 398.44 848.39 437.81 840.32 439.57 840.32 397.31"/><path class="cls-16" d="M884.55,398.44a20.06,20.06,0,0,1,16.42,20c0,11.19-8.75,20.26-19.55,20.26s-19.54-9.07-19.54-20.26,8.75-20.26,19.54-20.26a19,19,0,0,1,3.13.26"/><path class="cls-17" d="M884.55,398.44a19.82,19.82,0,0,1,15.72,14.64"/><path class="cls-13" d="M628.54,431.23l9.85-10.89a1.14,1.14,0,0,0-.62-2l-14.25-3.42c-1.4-.34-3,.82-2.66,1.92l4.39,14.31C625.59,432.25,627.57,432.3,628.54,431.23Z"/><path class="cls-13" d="M818.07,420.28l13.34-6.15a1.15,1.15,0,0,0,.21-2.09l-11.77-8.73c-1.15-.86-3.08-.43-3.2.72l-1.58,14.88C815,420.06,816.76,420.89,818.07,420.28Z"/><path class="cls-13" d="M812,530.47l14.17-3.86a1.14,1.14,0,0,0,.56-2L816.55,514c-1-1-3-.94-3.28.17l-4,14.42C808.93,529.73,810.58,530.84,812,530.47Z"/><polygon class="cls-18" points="389.54 458.73 405.64 462.41 376.44 480.21 360.35 476.53 389.54 458.73"/><polygon class="cls-19" points="357.69 514.85 360.35 476.53 376.44 480.21 373.79 518.53 357.69 514.85"/><polygon class="cls-20" points="385.38 528.9 357.69 514.85 373.79 518.53 401.36 534.22 385.38 528.9"/><polygon class="cls-21" points="405.64 462.41 432.5 478.12 429.86 516.33 401.36 534.22 373.79 518.53 376.44 480.21 405.64 462.41"/><polygon class="cls-22" points="405.64 462.41 432.5 478.12 429.86 516.33 401.36 534.22 373.79 518.53 376.44 480.21 405.64 462.41"/><polygon class="cls-22" points="360.35 476.53 389.54 458.73 405.64 462.41 405.64 462.41 432.5 478.12 429.86 516.33 401.36 534.22 385.38 528.9 357.69 514.85 360.35 476.53 360.35 476.53"/><path class="cls-23" d="M396.9,505.7a10.74,10.74,0,0,1,.77-3.46,10.3,10.3,0,0,1,2-2.94q2-2.18,3.65-3.82c1.11-1.09,2.06-2.11,2.87-3a19.76,19.76,0,0,0,1.91-2.54,5.16,5.16,0,0,0,.79-2.27,3.24,3.24,0,0,0-1.14-3.09,4.07,4.07,0,0,0-3.35-.49,8.51,8.51,0,0,0-4.88,2.72,9,9,0,0,0-2.12,4.52l-10.21,1.52a20.67,20.67,0,0,1,5.93-11.7A23.29,23.29,0,0,1,404.81,475a18.87,18.87,0,0,1,5.7-.4,10.48,10.48,0,0,1,4.6,1.45,7.73,7.73,0,0,1,3,3.38,10.54,10.54,0,0,1,.81,5.33,16.14,16.14,0,0,1-.63,3.53,14.77,14.77,0,0,1-1.58,3.34,26.52,26.52,0,0,1-2.75,3.59q-1.67,1.88-4.19,4.22a10.14,10.14,0,0,0-2.23,2.74,6.18,6.18,0,0,0-.69,2.35l-.13,1.9-10,2.12Zm-2,12.85a7.33,7.33,0,0,1,.63-2.46,8.7,8.7,0,0,1,3.49-3.91,7.84,7.84,0,0,1,2.44-1,5.9,5.9,0,0,1,2.36,0,4.23,4.23,0,0,1,1.88.86,3.85,3.85,0,0,1,1.16,1.67,5.18,5.18,0,0,1,.31,2.26,7.12,7.12,0,0,1-.64,2.46,8.21,8.21,0,0,1-1.43,2.21,8.84,8.84,0,0,1-2,1.7,7.88,7.88,0,0,1-2.43,1,5.77,5.77,0,0,1-2.37.05,4.18,4.18,0,0,1-1.88-.86,4,4,0,0,1-1.17-1.66A5.4,5.4,0,0,1,394.89,518.55Z"/><path class="cls-13" d="M368.49,529.38l1.85-14.57a1.14,1.14,0,0,0-1.65-1.29l-13.64,5.35c-1.34.53-2,2.39-1.09,3.1l11.79,9.23C366.66,531.91,368.31,530.81,368.49,529.38Z"/><path class="cls-13" d="M483.07,697.92,495.31,706a1.14,1.14,0,0,0,1.88-.91l1.26-14.6c.12-1.43-1.26-2.84-2.29-2.35l-13.5,6.48C481.62,695.15,481.86,697.12,483.07,697.92Z"/><path class="cls-13" d="M554.73,841.09,567,849.21a1.14,1.14,0,0,0,1.89-.91l1.26-14.6c.12-1.43-1.26-2.85-2.3-2.35l-13.49,6.47C553.29,838.32,553.53,840.29,554.73,841.09Z"/><path class="cls-13" d="M811.28,754.31l-.75-14.67a1.14,1.14,0,0,0-1.85-1l-12.48,7.67c-1.23.75-1.55,2.7-.53,3.24l13.23,7C809.92,757.12,811.35,755.75,811.28,754.31Z"/><path class="cls-13" d="M951.49,770.86l1.29,14.63a1.14,1.14,0,0,0,1.89.91l12.19-8.12c1.2-.8,1.45-2.76.41-3.26l-13.48-6.51C952.75,768,951.37,769.42,951.49,770.86Z"/><path class="cls-13" d="M439.5,877.65l14.35-3.17a1.14,1.14,0,0,0,.65-2l-9.63-11c-.95-1.09-2.92-1.08-3.28,0l-4.72,14.2C436.51,876.77,438.09,878,439.5,877.65Z"/><path class="cls-13" d="M1003,603.31,1001.77,618a1.14,1.14,0,0,0,1.71,1.21l13.39-5.94c1.31-.59,1.89-2.48,1-3.14l-12.18-8.71C1004.7,600.7,1003.1,601.87,1003,603.31Z"/><polygon class="cls-18" points="582.08 492.01 598.18 495.69 568.98 513.49 552.89 509.81 582.08 492.01"/><polygon class="cls-19" points="550.23 548.13 552.89 509.81 568.98 513.49 566.33 551.8 550.23 548.13"/><polygon class="cls-20" points="577.92 562.18 550.23 548.13 566.33 551.8 593.9 567.5 577.92 562.18"/><polygon class="cls-21" points="598.18 495.69 625.05 511.4 622.4 549.61 593.9 567.5 566.33 551.8 568.98 513.49 598.18 495.69"/><polygon class="cls-22" points="598.18 495.69 625.05 511.4 622.4 549.61 593.9 567.5 566.33 551.8 568.98 513.49 598.18 495.69"/><polygon class="cls-22" points="552.89 509.81 582.08 492.01 598.18 495.69 598.18 495.69 625.05 511.4 622.4 549.61 593.9 567.5 577.92 562.18 550.23 548.13 552.89 509.81 552.89 509.81"/><path class="cls-23" d="M589.44,539a10.74,10.74,0,0,1,.77-3.46,10.17,10.17,0,0,1,2-2.94q2-2.18,3.65-3.82c1.11-1.09,2.06-2.11,2.87-3a19.28,19.28,0,0,0,1.92-2.55,4.94,4.94,0,0,0,.78-2.26,3.28,3.28,0,0,0-1.13-3.1,4.12,4.12,0,0,0-3.35-.48,8.49,8.49,0,0,0-4.88,2.71,8.85,8.85,0,0,0-2.12,4.53L579.7,526.1a20.67,20.67,0,0,1,5.93-11.7,23.29,23.29,0,0,1,11.72-6.08,18.58,18.58,0,0,1,5.7-.4,10.56,10.56,0,0,1,4.6,1.44,7.78,7.78,0,0,1,3,3.38,10.56,10.56,0,0,1,.81,5.33,15,15,0,0,1-.63,3.54,14.77,14.77,0,0,1-1.58,3.34,27,27,0,0,1-2.74,3.59q-1.68,1.88-4.2,4.22a10.33,10.33,0,0,0-2.23,2.74,6.19,6.19,0,0,0-.69,2.34l-.13,1.91-10,2.12Zm-2,12.85a7.33,7.33,0,0,1,.63-2.46,8.7,8.7,0,0,1,3.49-3.91,7.84,7.84,0,0,1,2.44-1,5.72,5.72,0,0,1,2.36,0,4.07,4.07,0,0,1,1.88.86,3.88,3.88,0,0,1,1.16,1.66,5.24,5.24,0,0,1,.31,2.27,7.33,7.33,0,0,1-.63,2.46,8.46,8.46,0,0,1-1.43,2.21,9.11,9.11,0,0,1-2.06,1.7,7.88,7.88,0,0,1-2.43,1,6,6,0,0,1-2.37,0,4.23,4.23,0,0,1-1.88-.86,4,4,0,0,1-1.16-1.66A5.42,5.42,0,0,1,587.43,551.83Z"/><polygon class="cls-18" points="682.44 373.43 698.54 377.11 669.34 394.91 653.25 391.23 682.44 373.43"/><polygon class="cls-19" points="650.59 429.55 653.25 391.23 669.34 394.91 666.69 433.23 650.59 429.55"/><polygon class="cls-20" points="678.28 443.6 650.59 429.55 666.69 433.23 694.26 448.92 678.28 443.6"/><polygon class="cls-21" points="698.54 377.11 725.41 392.82 722.76 431.03 694.26 448.92 666.69 433.23 669.34 394.91 698.54 377.11"/><polygon class="cls-22" points="698.54 377.11 725.41 392.82 722.76 431.03 694.26 448.92 666.69 433.23 669.34 394.91 698.54 377.11"/><polygon class="cls-22" points="653.25 391.23 682.44 373.43 698.54 377.11 698.54 377.11 725.41 392.82 722.76 431.03 694.26 448.92 678.28 443.6 650.59 429.55 653.25 391.23 653.25 391.23"/><path class="cls-23" d="M689.8,420.4a10.74,10.74,0,0,1,.77-3.46,10.17,10.17,0,0,1,2-2.94q2-2.17,3.65-3.82c1.11-1.09,2.06-2.11,2.87-3A19.28,19.28,0,0,0,701,404.6a4.94,4.94,0,0,0,.78-2.26,3.28,3.28,0,0,0-1.13-3.1,4.12,4.12,0,0,0-3.35-.48,8.44,8.44,0,0,0-4.88,2.72,8.82,8.82,0,0,0-2.12,4.52l-10.22,1.52a20.67,20.67,0,0,1,5.93-11.7,23.29,23.29,0,0,1,11.72-6.08,18.9,18.9,0,0,1,5.7-.4,10.44,10.44,0,0,1,4.6,1.45,7.7,7.7,0,0,1,3,3.37,10.56,10.56,0,0,1,.81,5.33,15,15,0,0,1-.63,3.54,14.77,14.77,0,0,1-1.58,3.34,27.91,27.91,0,0,1-2.74,3.59q-1.68,1.88-4.2,4.22a10.14,10.14,0,0,0-2.23,2.74,6.19,6.19,0,0,0-.69,2.34l-.13,1.91-10,2.12Zm-2,12.85a7.33,7.33,0,0,1,.63-2.46,8.7,8.7,0,0,1,3.49-3.91,7.84,7.84,0,0,1,2.44-1,5.72,5.72,0,0,1,2.36-.05,4.12,4.12,0,0,1,1.88.86,3.88,3.88,0,0,1,1.16,1.66,5.24,5.24,0,0,1,.31,2.27,7.33,7.33,0,0,1-.63,2.46,8.46,8.46,0,0,1-1.43,2.21,9.11,9.11,0,0,1-2.06,1.7,7.88,7.88,0,0,1-2.43,1,5.77,5.77,0,0,1-2.37.05,4.23,4.23,0,0,1-1.88-.86,4,4,0,0,1-1.16-1.66A5.42,5.42,0,0,1,687.79,433.25Z"/><polygon class="cls-18" points="511.9 700.69 528 704.37 498.81 722.17 482.71 718.49 511.9 700.69"/><polygon class="cls-19" points="480.05 756.8 482.71 718.49 498.81 722.17 496.15 760.48 480.05 756.8"/><polygon class="cls-20" points="507.74 770.86 480.05 756.8 496.15 760.48 523.72 776.17 507.74 770.86"/><polygon class="cls-21" points="528 704.36 554.87 720.08 552.22 758.28 523.72 776.17 496.15 760.48 498.81 722.17 528 704.36"/><polygon class="cls-22" points="528 704.36 554.87 720.08 552.22 758.28 523.72 776.17 496.15 760.48 498.81 722.17 528 704.36"/><polygon class="cls-22" points="482.71 718.49 511.9 700.69 528 704.37 528 704.37 554.87 720.08 552.22 758.28 523.72 776.17 507.74 770.86 480.05 756.8 482.71 718.49 482.71 718.49"/><path class="cls-23" d="M519.26,747.66a10.74,10.74,0,0,1,.77-3.46,10.34,10.34,0,0,1,2-3c1.33-1.44,2.55-2.72,3.65-3.81s2.06-2.11,2.87-3a19.28,19.28,0,0,0,1.92-2.55,5,5,0,0,0,.78-2.26,3.28,3.28,0,0,0-1.13-3.1,4.07,4.07,0,0,0-3.35-.48,8.43,8.43,0,0,0-4.88,2.71,8.85,8.85,0,0,0-2.12,4.53l-10.22,1.52a20.79,20.79,0,0,1,5.93-11.71A23.35,23.35,0,0,1,527.17,717a18.58,18.58,0,0,1,5.7-.4,10.56,10.56,0,0,1,4.6,1.44,7.78,7.78,0,0,1,3,3.38,10.67,10.67,0,0,1,.82,5.33,15.37,15.37,0,0,1-.64,3.53,14.57,14.57,0,0,1-1.58,3.34,26.44,26.44,0,0,1-2.74,3.6c-1.12,1.25-2.52,2.65-4.2,4.22a10.47,10.47,0,0,0-2.23,2.73,6.29,6.29,0,0,0-.69,2.35l-.13,1.91-10,2.12Zm-2,12.85a6.83,6.83,0,0,1,.63-2.46,8.43,8.43,0,0,1,1.43-2.22,8.8,8.8,0,0,1,2-1.69,7.84,7.84,0,0,1,2.44-1,5.72,5.72,0,0,1,2.36,0,4.07,4.07,0,0,1,1.88.86,3.92,3.92,0,0,1,1.17,1.66,5.22,5.22,0,0,1,.3,2.26,7.32,7.32,0,0,1-.63,2.47,8.46,8.46,0,0,1-1.43,2.21,9.11,9.11,0,0,1-2.06,1.7,7.88,7.88,0,0,1-2.43,1,6,6,0,0,1-2.37,0,4,4,0,0,1-1.87-.87,3.81,3.81,0,0,1-1.17-1.65A5.27,5.27,0,0,1,517.26,760.51Z"/><polygon class="cls-18" points="809.3 651.75 825.39 655.42 796.2 673.23 780.1 669.55 809.3 651.75"/><polygon class="cls-19" points="777.45 707.87 780.11 669.55 796.2 673.23 793.54 711.54 777.45 707.87"/><polygon class="cls-20" points="805.13 721.92 777.45 707.87 793.54 711.54 821.12 727.23 805.13 721.92"/><polygon class="cls-21" points="825.39 655.42 852.26 671.14 849.61 709.35 821.12 727.23 793.54 711.54 796.2 673.23 825.39 655.42"/><polygon class="cls-22" points="825.39 655.42 852.26 671.14 849.61 709.35 821.12 727.23 793.54 711.54 796.2 673.23 825.39 655.42"/><polygon class="cls-22" points="780.1 669.55 809.3 651.75 825.39 655.42 825.39 655.42 852.26 671.14 849.61 709.35 821.12 727.23 805.13 721.92 777.45 707.87 780.1 669.55 780.1 669.55"/><path class="cls-23" d="M816.66,698.72a10.74,10.74,0,0,1,.77-3.46,9.78,9.78,0,0,1,2-2.94c1.33-1.45,2.54-2.72,3.65-3.82s2.06-2.11,2.87-3a19.12,19.12,0,0,0,1.91-2.55,5,5,0,0,0,.78-2.26,3.25,3.25,0,0,0-1.13-3.1,4.07,4.07,0,0,0-3.35-.48,8.52,8.52,0,0,0-4.88,2.71,8.85,8.85,0,0,0-2.12,4.53l-10.21,1.52a20.73,20.73,0,0,1,5.93-11.71,23.31,23.31,0,0,1,11.72-6.07,18.54,18.54,0,0,1,5.7-.4,10.65,10.65,0,0,1,4.6,1.44,7.85,7.85,0,0,1,3,3.38,10.56,10.56,0,0,1,.81,5.33,15.37,15.37,0,0,1-.64,3.53,14.57,14.57,0,0,1-1.57,3.35,28.05,28.05,0,0,1-2.75,3.59c-1.12,1.25-2.51,2.66-4.2,4.22a10.07,10.07,0,0,0-2.22,2.74,6.19,6.19,0,0,0-.69,2.34l-.14,1.91-10,2.12Zm-2,12.85a7.33,7.33,0,0,1,.63-2.46,8.72,8.72,0,0,1,1.44-2.22,8.6,8.6,0,0,1,2-1.69,7.88,7.88,0,0,1,2.43-1,5.77,5.77,0,0,1,2.37-.05,4.12,4.12,0,0,1,1.88.86,4.06,4.06,0,0,1,1.16,1.66,5.24,5.24,0,0,1,.3,2.27,6.88,6.88,0,0,1-.63,2.46,8.46,8.46,0,0,1-1.43,2.21,8.69,8.69,0,0,1-2.06,1.7,7.73,7.73,0,0,1-2.42,1,6,6,0,0,1-2.38.05,4,4,0,0,1-1.87-.87,4,4,0,0,1-1.17-1.65A5.27,5.27,0,0,1,814.65,711.57Z"/><polygon class="cls-18" points="991.52 621.88 975.98 625.44 1004.17 642.63 1019.71 639.08 991.52 621.88"/><polygon class="cls-19" points="1022.27 676.08 1019.71 639.08 1004.17 642.63 1006.73 679.63 1022.27 676.08"/><polygon class="cls-20" points="995.54 689.65 1022.27 676.08 1006.73 679.63 980.11 694.78 995.54 689.65"/><polygon class="cls-21" points="975.98 625.44 950.03 640.61 952.59 677.51 980.11 694.78 1006.73 679.63 1004.17 642.63 975.98 625.44"/><path class="cls-23" d="M972.33,667.33a10,10,0,0,1,.34-3.4,6.6,6.6,0,0,1,1.52-2.58q1.63-1.79,3-3.1c.91-.88,1.7-1.7,2.36-2.47a12.19,12.19,0,0,0,1.51-2.19,4.08,4.08,0,0,0,.48-2.16,4.83,4.83,0,0,0-1.4-3.45,4.49,4.49,0,0,0-3.2-1.27,5.12,5.12,0,0,0-4.28,1.67,6.68,6.68,0,0,0-1.49,4.19l-9.42-.79q.35-7.06,4.27-10.72t10.33-3.57a16.67,16.67,0,0,1,5.31.9,13.58,13.58,0,0,1,4.47,2.55,12.92,12.92,0,0,1,3.18,4.18,14.35,14.35,0,0,1,1.35,5.69,15.54,15.54,0,0,1-.2,3.5,11.29,11.29,0,0,1-1.12,3.09,16.36,16.36,0,0,1-2.18,3.08,37.83,37.83,0,0,1-3.47,3.39,6.24,6.24,0,0,0-1.79,2.31,5.66,5.66,0,0,0-.39,2.27l.09,1.94-9.15-.12Zm-.46,12.81a6.58,6.58,0,0,1,.32-2.4,5.63,5.63,0,0,1,1.1-2,5,5,0,0,1,1.74-1.27,5.15,5.15,0,0,1,2.18-.44,5.43,5.43,0,0,1,2.21.49,5.84,5.84,0,0,1,1.86,1.32,6.73,6.73,0,0,1,1.28,2,7,7,0,0,1,.53,2.41,6.38,6.38,0,0,1-.32,2.4,5.63,5.63,0,0,1-1.09,2,4.93,4.93,0,0,1-1.75,1.28,5.11,5.11,0,0,1-2.17.44,5.48,5.48,0,0,1-2.22-.49,5.72,5.72,0,0,1-1.86-1.33,6.55,6.55,0,0,1-1.28-2A7.22,7.22,0,0,1,971.87,680.14Z"/><polygon class="cls-22" points="975.98 625.44 950.03 640.61 952.59 677.51 980.11 694.78 1006.73 679.63 1004.17 642.63 975.98 625.44"/><polygon class="cls-22" points="1019.71 639.08 991.52 621.88 975.98 625.44 975.98 625.44 950.03 640.61 952.59 677.51 980.11 694.78 995.54 689.65 1022.27 676.08 1019.71 639.08 1019.71 639.08"/><polygon class="cls-14" points="881.83 489.67 876.03 489.67 839.12 508.13 839.12 550.08 875.1 568.54 880.9 568.54 918.74 550.08 918.74 508.01 881.83 489.67"/><polygon class="cls-15" points="882.33 489.67 845.42 508.13 845.42 550.08 881.4 568.54 919.24 550.08 919.24 508.01 882.33 489.67"/><path class="cls-14" d="M882.33,492.22,917,509.42v39.23L881.43,566,847.7,548.68V509.54l34.63-17.32m0-2.55-36.91,18.46v42l36,18.46,37.84-18.46V508l-36.91-18.34Z"/><path class="cls-24" d="M886.4,509.26a20.1,20.1,0,1,1-3.22-.26,20.12,20.12,0,0,1,3.22.26"/><path class="cls-25" d="M886.4,509.26a20.11,20.11,0,1,1-18.7,32.68"/><polygon class="cls-14" points="926.02 783.3 920.22 783.3 883.31 801.76 883.31 843.71 919.3 862.18 925.1 862.18 962.93 843.71 962.93 801.64 926.02 783.3"/><polygon class="cls-15" points="926.52 783.3 889.61 801.76 889.61 843.71 925.6 862.18 963.43 843.71 963.43 801.64 926.52 783.3"/><path class="cls-14" d="M926.53,785.85l34.62,17.21v39.23l-35.53,17.33-33.72-17.3V803.17l34.63-17.32m0-2.55-36.91,18.46v42l36,18.47,37.84-18.47V801.64L926.52,783.3Z"/><path class="cls-24" d="M923.12,803.08a20.57,20.57,0,0,1,4.25-.45,20,20,0,0,1,3.22.26"/><path class="cls-25" d="M930.59,802.89a20.09,20.09,0,1,1-7.47.19"/><path class="cls-25" d="M930.59,802.89a20.11,20.11,0,1,1-18.7,32.68"/><polygon class="cls-14" points="603.41 841.89 597.78 841.89 561.9 860.49 561.9 902.76 596.88 921.37 602.51 921.37 639.29 902.76 639.29 860.37 603.41 841.89"/><polygon class="cls-15" points="603.9 841.89 568.02 860.49 568.02 902.76 603 921.37 639.78 902.76 639.78 860.37 603.9 841.89"/><path class="cls-14" d="M603.9,844.44l33.62,17.31v39.62L603,918.82,570.28,901.4V861.87l33.62-17.43m0-2.55L568,860.49v42.27l35,18.61,36.78-18.61V860.37L603.9,841.89Z"/><polygon class="cls-14" points="561.9 860.49 569.97 861.63 569.97 901 561.9 902.76 561.9 860.49"/><path class="cls-16" d="M585.53,872.53A19.49,19.49,0,0,1,603,861.37a19,19,0,0,1,3.13.26"/><path class="cls-17" d="M606.13,861.63a20.05,20.05,0,0,1,16.41,20c0,11.19-8.75,20.26-19.54,20.26s-19.54-9.07-19.54-20.26a20.92,20.92,0,0,1,2.07-9.1"/><path class="cls-17" d="M606.13,861.63a19.85,19.85,0,0,1,15.72,14.64"/><polygon class="cls-14" points="504.54 842.32 498.74 842.32 461.82 860.78 461.82 902.73 497.81 921.2 503.61 921.2 541.45 902.73 541.45 860.66 504.54 842.32"/><polygon class="cls-15" points="505.04 842.32 468.13 860.78 468.13 902.73 504.11 921.2 541.95 902.73 541.95 860.66 505.04 842.32"/><path class="cls-14" d="M505,844.87l34.63,17.21v39.23l-35.53,17.33-33.73-17.3V862.19L505,844.87m0-2.55-36.91,18.46v42l36,18.47L542,902.73V860.66L505,842.32Z"/><path class="cls-24" d="M509.11,861.91a20.11,20.11,0,1,1-3.22-.26,20.12,20.12,0,0,1,3.22.26"/><path class="cls-25" d="M509.11,861.91a20.11,20.11,0,1,1-18.7,32.68"/></g></g></svg>