<svg xmlns="http://www.w3.org/2000/svg" viewBox="0 0 1363.01 1315.54"><defs><style>.cls-1{fill:#89e8a7;}.cls-2{fill:#fac4a3;}.cls-12,.cls-15,.cls-20,.cls-3{fill:none;}.cls-3{stroke:#fecf37;stroke-width:4.5px;}.cls-12,.cls-15,.cls-16,.cls-3{stroke-linecap:round;stroke-miterlimit:10;}.cls-4{fill:#b0b0b0;}.cls-5{fill:#e0e0e0;}.cls-6{fill:#bdbdbd;}.cls-7{fill:#212121;}.cls-8{fill:#f5f5f5;}.cls-9{fill:#fbfffa;}.cls-10,.cls-16{fill:#fff;}.cls-11{fill:#fde0c9;}.cls-12{stroke:#f8ac99;stroke-width:3.7px;}.cls-13{fill:#ffb74d;}.cls-14{fill:#fecf37;}.cls-15,.cls-16,.cls-20{stroke:#89e8a7;}.cls-15{stroke-width:4.51px;stroke-dasharray:7.51 15.03;}.cls-16{stroke-width:5.06px;}.cls-17{fill:#c7ffd9;}.cls-18{fill:#93f0b0;}.cls-19{fill:#acf4c3;}.cls-20{stroke-linejoin:round;stroke-width:1.15px;}</style></defs><title>Boid_06 Power</title><g id="Layer_5" data-name="Layer 5"><path class="cls-1" d="M233.33,47a3.45,3.45,0,0,0-5.67,1.92l-3.55,17.77-3.54,17.77a3.46,3.46,0,0,0,4.5,4l17.16-5.82,17.16-5.81a3.46,3.46,0,0,0,1.17-5.87L247,58.9Z"/></g><g id="Layer_2" data-name="Layer 2"><path class="cls-2" d="M754.54,1315.54H946.93l-69.78-237.19L855.29,953.66,773,968.09l-108.54,19s54.34,90.12,59.25,118.12C726.27,1119.66,740.92,1220.81,754.54,1315.54Z"/><line class="cls-3" x1="695.61" y1="217.91" x2="695.61" y2="142.11"/><line class="cls-3" x1="1002.51" y1="439.29" x2="1073.08" y2="416.36"/><line class="cls-3" x1="878.41" y1="287.41" x2="928.9" y2="217.91"/><path class="cls-2" d="M818.35,743,691.7,622.73,617.44,778.18,740.37,1112l138.42-24.27s46.13-97.85,36.59-169.33C907.57,859.85,893.65,818.6,818.35,743Z"/><path class="cls-4" d="M829.85,483h6.47a4.16,4.16,0,0,1,4.16,4.16v72a4.16,4.16,0,0,1-4.16,4.16h-6.47a0,0,0,0,1,0,0V483A0,0,0,0,1,829.85,483Z"/><path class="cls-4" d="M488.49,463.27H495a4.16,4.16,0,0,1,4.16,4.16v42.82a4.16,4.16,0,0,1-4.16,4.16h-6.47a0,0,0,0,1,0,0V463.27A0,0,0,0,1,488.49,463.27Z" transform="translate(987.61 977.68) rotate(-180)"/><path class="cls-4" d="M488.49,413.9H495a4.16,4.16,0,0,1,4.16,4.16v18.69a4.16,4.16,0,0,1-4.16,4.16h-6.47a0,0,0,0,1,0,0v-27a0,0,0,0,1,0,0Z" transform="translate(987.61 854.81) rotate(-180)"/><path class="cls-4" d="M488.49,527.69H495a4.16,4.16,0,0,1,4.16,4.16v42.82a4.16,4.16,0,0,1-4.16,4.16h-6.47a0,0,0,0,1,0,0V527.69A0,0,0,0,1,488.49,527.69Z" transform="translate(987.61 1106.52) rotate(-180)"/><rect class="cls-5" x="492.48" y="320.26" width="344.02" height="696.01" rx="53.04" ry="53.04"/><rect class="cls-6" x="323.12" y="502.9" width="682.72" height="330.74" rx="46.4" ry="46.4" transform="translate(1332.75 3.78) rotate(90)"/><rect class="cls-7" x="330.43" y="510.2" width="668.11" height="316.13" rx="39.09" ry="39.09" transform="translate(1332.75 3.78) rotate(90)"/><path class="cls-8" d="M783.46,341.51H753a3.42,3.42,0,0,0-3.42,3.42h0a20.49,20.49,0,0,1-20.49,20.49H598.42a20.49,20.49,0,0,1-20.49-20.49h0a3.42,3.42,0,0,0-3.42-3.42h-29a31.78,31.78,0,0,0-31.78,31.79V963.23A31.78,31.78,0,0,0,545.51,995h238a31.78,31.78,0,0,0,31.78-31.79V373.3A31.78,31.78,0,0,0,783.46,341.51Z"/><rect class="cls-9" x="610.25" y="985.94" width="108.47" height="4.87" rx="2.44" ry="2.44"/><rect class="cls-7" x="749.25" y="360.77" width="2.74" height="3.49"/><rect class="cls-7" x="753.07" y="359.17" width="2.74" height="5.09"/><rect class="cls-7" x="756.89" y="357.29" width="2.74" height="6.97"/><rect class="cls-7" x="760.71" y="355.65" width="2.74" height="8.61"/><path class="cls-7" d="M773.9,358a6.22,6.22,0,0,0-4.41,1.83l1.67,1.67a3.89,3.89,0,0,1,5.48,0l1.67-1.67A6.22,6.22,0,0,0,773.9,358Z"/><path class="cls-7" d="M771.63,362l2.27,2.27,2.27-2.27a3.21,3.21,0,0,0-4.54,0Z"/><path class="cls-7" d="M773.9,357.35a6.88,6.88,0,0,1,4.88,2l1.7-1.69a9.28,9.28,0,0,0-13.15,0l1.69,1.69A6.89,6.89,0,0,1,773.9,357.35Z"/><path class="cls-7" d="M799,355.28H786.19a2.11,2.11,0,0,0-2.11,2.11v4.88a2.12,2.12,0,0,0,2.11,2.12H799a2.12,2.12,0,0,0,2.12-2.12v-4.88A2.11,2.11,0,0,0,799,355.28Zm1.48,7a1.48,1.48,0,0,1-1.48,1.48H786.19a1.48,1.48,0,0,1-1.48-1.48v-4.88a1.49,1.49,0,0,1,1.48-1.48H799a1.48,1.48,0,0,1,1.48,1.48Z"/><rect class="cls-7" x="785.36" y="356.73" width="14.5" height="6.2" rx="0.55" ry="0.55"/><path class="cls-7" d="M801.79,358v3.65a1.85,1.85,0,0,0,0-3.65Z"/><path class="cls-10" d="M750.91,931.16h1.6a.39.39,0,1,0,0-.77h-1.6a.39.39,0,1,0,0,.77Z"/><path class="cls-10" d="M757.61,933.56a3.19,3.19,0,1,0,3.19,3.19A3.19,3.19,0,0,0,757.61,933.56Z"/><path class="cls-10" d="M765.21,931.76h-3.29l-1.22-2.46h-6l-1,2.46h-3.23a1.55,1.55,0,0,0-1.56,1.55v7.85a1.56,1.56,0,0,0,1.56,1.56h14.74a1.55,1.55,0,0,0,1.55-1.56v-7.85A1.54,1.54,0,0,0,765.21,931.76Zm-7.6,8.84a3.86,3.86,0,1,1,3.85-3.85A3.86,3.86,0,0,1,757.61,940.6Zm5.33-6.82a.56.56,0,1,1,.56-.56A.56.56,0,0,1,762.94,933.78Z"/><path class="cls-2" d="M860.36,928.51c-2.26-8.88-11.92-13.23-20.34-9.62a12.23,12.23,0,0,1-3.08.85c-15.58,2.27-50-50-53.06-64-3.77-17.21-8-34.56-8.18-49.34,0-1.69.7-13.09.77-14.71.82-17.4-17-20.71-33.39-15a14.43,14.43,0,0,0-3.54,1.7c-11.73,8.16-24.83,27.77-25.35,63.2-.38,25.8,19.09,67.64,32.16,86.64a14.88,14.88,0,0,1,1.4,14.2c-9.15,22-12.56,53.59-5.18,83.6,9.87,40.13,35.39,67.68,39.18,69l75.1-15.13a14.83,14.83,0,0,0,19.73-15.39L865.69,950.18a14.31,14.31,0,0,0-.39-2.25Z"/><path class="cls-11" d="M776.23,788s-14.45.27-18.65,1.32-7.82,35.84,1,47.13,20.65-2,20.65-2Z"/><path class="cls-12" d="M747.75,942.45c-9.15,22-12.56,53.59-5.18,83.6a151.61,151.61,0,0,0,11.32,30.8"/><path class="cls-13" d="M758.54,616.94q-.15,0-65.52,8l46.7-131.65c4.74-13.36,4.64-17.53,2.93-19.93a4.7,4.7,0,0,0-3.87-2c-1.32,0-5.34,0-15.72,14.13L575.45,684.86a7.83,7.83,0,0,0-.06,8,7.73,7.73,0,0,0,6.58,3.69q.1,0,58.36-5.29L585.76,830.58A7.59,7.59,0,0,0,589,840a7.71,7.71,0,0,0,9.87-1.77l165.57-208.7a7.65,7.65,0,0,0-5.91-12.55Z"/><path class="cls-14" d="M765.5,621.35a7.73,7.73,0,0,0-7-4.41q-.15,0-65.52,8l46.7-131.65c4.74-13.36,4.64-17.53,2.93-19.93a4.7,4.7,0,0,0-3.87-2l-99.63,184.8,62.79-12.43a10.78,10.78,0,0,1,10.95,16.74l-124.57,179a8.27,8.27,0,0,0,.69.46,7.71,7.71,0,0,0,9.87-1.77l165.57-208.7A7.69,7.69,0,0,0,765.5,621.35Z"/><path class="cls-15" d="M468.58,416.46C361.2,318,297.72,219.91,260.76,133.06A610.35,610.35,0,0,1,237.2,67.31"/><path class="cls-15" d="M451.76,473.6a1030.59,1030.59,0,0,1-75.86-74.15"/><circle class="cls-16" cx="349.8" cy="274.95" r="122.83"/><polygon class="cls-17" points="319.73 254.98 299.73 259.27 333.93 280 353.93 275.72 319.73 254.98"/><polygon class="cls-18" points="353.93 320.34 353.93 275.72 333.93 280 333.93 324.63 353.93 320.34"/><polygon class="cls-1" points="318.87 336.71 353.93 320.34 333.93 324.63 298.87 342.9 318.87 336.71"/><polygon class="cls-19" points="299.73 259.27 265.53 277.57 265.53 322.07 298.87 342.9 333.93 324.63 333.93 280 299.73 259.27"/><polygon class="cls-20" points="299.73 259.27 265.53 277.57 265.53 322.07 298.87 342.9 333.93 324.63 333.93 280 299.73 259.27"/><g id="NNaDqx.tif"><path class="cls-10" d="M324.43,290.66a8.39,8.39,0,0,0-.77.7l-26.54,29.95c-.21.24-.44.46-.71.75L279.77,303l6.94-7.67,9.72,10.9,21.05-23.9,6.95,8.14Z"/></g><polygon class="cls-20" points="353.93 275.72 319.73 254.98 299.73 259.27 299.73 259.27 265.53 277.57 265.53 322.07 298.87 342.9 318.87 336.71 353.93 320.34 353.93 275.72 353.93 275.72"/><polygon class="cls-17" points="357.79 188.8 337.79 193.08 371.99 213.82 391.99 209.53 357.79 188.8"/><polygon class="cls-18" points="391.99 254.16 391.99 209.53 371.99 213.82 371.99 258.44 391.99 254.16"/><polygon class="cls-1" points="356.93 270.53 391.99 254.16 371.99 258.44 336.93 276.72 356.93 270.53"/><polygon class="cls-19" points="337.79 193.08 303.59 211.39 303.59 255.88 336.93 276.72 371.99 258.44 371.99 213.82 337.79 193.08"/><polygon class="cls-20" points="337.79 193.08 303.59 211.39 303.59 255.88 336.93 276.72 371.99 258.44 371.99 213.82 337.79 193.08"/><g id="NNaDqx.tif-2" data-name="NNaDqx.tif"><path class="cls-10" d="M362.49,224.47a10.33,10.33,0,0,0-.77.7l-26.54,30c-.21.24-.44.47-.72.76l-16.63-19.1,6.94-7.66,9.72,10.9,21.05-23.91,6.95,8.15Z"/></g><polygon class="cls-20" points="391.99 209.53 357.79 188.8 337.79 193.08 337.79 193.08 303.59 211.39 303.59 255.88 336.93 276.72 356.93 270.53 391.99 254.16 391.99 209.53 391.99 209.53"/><polygon class="cls-17" points="392.91 257.84 372.91 262.12 407.11 282.86 427.11 278.57 392.91 257.84"/><polygon class="cls-18" points="427.11 323.2 427.11 278.57 407.11 282.86 407.11 327.48 427.11 323.2"/><polygon class="cls-1" points="392.05 339.57 427.11 323.2 407.11 327.48 372.05 345.76 392.05 339.57"/><polygon class="cls-19" points="372.91 262.12 338.71 280.43 338.71 324.92 372.05 345.76 407.11 327.48 407.11 282.86 372.91 262.12"/><polygon class="cls-20" points="372.91 262.12 338.71 280.43 338.71 324.92 372.05 345.76 407.11 327.48 407.11 282.86 372.91 262.12"/><g id="NNaDqx.tif-3" data-name="NNaDqx.tif"><path class="cls-10" d="M397.61,293.51a10.33,10.33,0,0,0-.77.7l-26.54,30c-.21.24-.44.47-.72.76L353,305.82l6.94-7.66,9.72,10.9,21.05-23.91,6.95,8.15Z"/></g><polygon class="cls-20" points="427.11 278.57 392.91 257.84 372.91 262.12 372.91 262.12 338.71 280.43 338.71 324.92 372.05 345.76 392.05 339.57 427.11 323.2 427.11 278.57 427.11 278.57"/><path class="cls-15" d="M401.49,386.39s64.82,78.25,137.31,121.72"/></g></svg>