<svg version="1.1" id="HJerJBlGQ" xmlns="http://www.w3.org/2000/svg" xmlns:xlink="http://www.w3.org/1999/xlink" x="0px" y="0px" viewBox="0 0 600 600" style="enable-background:new 0 0 600 600;" xml:space="preserve"><style>@-webkit-keyframes Hy2Ler1Bxf7_Animation{0%{opacity: 0;}13.33%{opacity: 1;}84.44%{opacity: 1;}100%{opacity: 0;}}@keyframes Hy2Ler1Bxf7_Animation{0%{opacity: 0;}13.33%{opacity: 1;}84.44%{opacity: 1;}100%{opacity: 0;}}@-webkit-keyframes Hy2Ler1Bxf7_Byr0gSlf7_Animation{0%{-webkit-transform: translate(-5px, -20px);transform: translate(-5px, -20px);}100%{-webkit-transform: translate(5px, 10px);transform: translate(5px, 10px);}}@keyframes Hy2Ler1Bxf7_Byr0gSlf7_Animation{0%{-webkit-transform: translate(-5px, -20px);transform: translate(-5px, -20px);}100%{-webkit-transform: translate(5px, 10px);transform: translate(5px, 10px);}}@-webkit-keyframes HJQLxHyBgf7_rySolBxMX_Animation{0%{-webkit-transform: scale(1, 1);transform: scale(1, 1);}16.67%{-webkit-transform: scale(1.1, 1.1);transform: scale(1.1, 1.1);}33.33%{-webkit-transform: scale(1, 1);transform: scale(1, 1);}50%{-webkit-transform: scale(1.1, 1.1);transform: scale(1.1, 1.1);}66.67%{-webkit-transform: scale(1, 1);transform: scale(1, 1);}83.33%{-webkit-transform: scale(1.1, 1.1);transform: scale(1.1, 1.1);}100%{-webkit-transform: scale(1, 1);transform: scale(1, 1);}}@keyframes HJQLxHyBgf7_rySolBxMX_Animation{0%{-webkit-transform: scale(1, 1);transform: scale(1, 1);}16.67%{-webkit-transform: scale(1.1, 1.1);transform: scale(1.1, 1.1);}33.33%{-webkit-transform: scale(1, 1);transform: scale(1, 1);}50%{-webkit-transform: scale(1.1, 1.1);transform: scale(1.1, 1.1);}66.67%{-webkit-transform: scale(1, 1);transform: scale(1, 1);}83.33%{-webkit-transform: scale(1.1, 1.1);transform: scale(1.1, 1.1);}100%{-webkit-transform: scale(1, 1);transform: scale(1, 1);}}@-webkit-keyframes BJrDgS1SeMX_rJMDxrefQ_Animation{0%{-webkit-transform: scale(1.1, 1.1);transform: scale(1.1, 1.1);}16.67%{-webkit-transform: scale(1, 1);transform: scale(1, 1);}33.33%{-webkit-transform: scale(1.1, 1.1);transform: scale(1.1, 1.1);}50%{-webkit-transform: scale(1, 1);transform: scale(1, 1);}66.67%{-webkit-transform: scale(1.1, 1.1);transform: scale(1.1, 1.1);}83.33%{-webkit-transform: scale(1, 1);transform: scale(1, 1);}100%{-webkit-transform: scale(1.1, 1.1);transform: scale(1.1, 1.1);}}@keyframes BJrDgS1SeMX_rJMDxrefQ_Animation{0%{-webkit-transform: scale(1.1, 1.1);transform: scale(1.1, 1.1);}16.67%{-webkit-transform: scale(1, 1);transform: scale(1, 1);}33.33%{-webkit-transform: scale(1.1, 1.1);transform: scale(1.1, 1.1);}50%{-webkit-transform: scale(1, 1);transform: scale(1, 1);}66.67%{-webkit-transform: scale(1.1, 1.1);transform: scale(1.1, 1.1);}83.33%{-webkit-transform: scale(1, 1);transform: scale(1, 1);}100%{-webkit-transform: scale(1.1, 1.1);transform: scale(1.1, 1.1);}}@-webkit-keyframes BJaPxByreMX_HJV4lrlGQ_Animation{0%{-webkit-transform: scale(1, 1);transform: scale(1, 1);}16.67%{-webkit-transform: scale(1.1, 1.1);transform: scale(1.1, 1.1);}33.33%{-webkit-transform: scale(1, 1);transform: scale(1, 1);}50%{-webkit-transform: scale(1.1, 1.1);transform: scale(1.1, 1.1);}66.67%{-webkit-transform: scale(1, 1);transform: scale(1, 1);}83.33%{-webkit-transform: scale(1.1, 1.1);transform: scale(1.1, 1.1);}100%{-webkit-transform: scale(1, 1);transform: scale(1, 1);}}@keyframes BJaPxByreMX_HJV4lrlGQ_Animation{0%{-webkit-transform: scale(1, 1);transform: scale(1, 1);}16.67%{-webkit-transform: scale(1.1, 1.1);transform: scale(1.1, 1.1);}33.33%{-webkit-transform: scale(1, 1);transform: scale(1, 1);}50%{-webkit-transform: scale(1.1, 1.1);transform: scale(1.1, 1.1);}66.67%{-webkit-transform: scale(1, 1);transform: scale(1, 1);}83.33%{-webkit-transform: scale(1.1, 1.1);transform: scale(1.1, 1.1);}100%{-webkit-transform: scale(1, 1);transform: scale(1, 1);}}@-webkit-keyframes H14dgHkBgG7_rJNlgSxG7_Animation{0%{-webkit-transform: scale(1.1, 1.1);transform: scale(1.1, 1.1);}16.67%{-webkit-transform: scale(1, 1);transform: scale(1, 1);}33.33%{-webkit-transform: scale(1.1, 1.1);transform: scale(1.1, 1.1);}50%{-webkit-transform: scale(1, 1);transform: scale(1, 1);}66.67%{-webkit-transform: scale(1.1, 1.1);transform: scale(1.1, 1.1);}83.33%{-webkit-transform: scale(1, 1);transform: scale(1, 1);}100%{-webkit-transform: scale(1.1, 1.1);transform: scale(1.1, 1.1);}}@keyframes H14dgHkBgG7_rJNlgSxG7_Animation{0%{-webkit-transform: scale(1.1, 1.1);transform: scale(1.1, 1.1);}16.67%{-webkit-transform: scale(1, 1);transform: scale(1, 1);}33.33%{-webkit-transform: scale(1.1, 1.1);transform: scale(1.1, 1.1);}50%{-webkit-transform: scale(1, 1);transform: scale(1, 1);}66.67%{-webkit-transform: scale(1.1, 1.1);transform: scale(1.1, 1.1);}83.33%{-webkit-transform: scale(1, 1);transform: scale(1, 1);}100%{-webkit-transform: scale(1.1, 1.1);transform: scale(1.1, 1.1);}}@-webkit-keyframes rJwOgrkHeG7_BkOhJrxGm_Animation{0%{-webkit-transform: scale(1, 1);transform: scale(1, 1);}16.67%{-webkit-transform: scale(1.1, 1.1);transform: scale(1.1, 1.1);}33.33%{-webkit-transform: scale(1, 1);transform: scale(1, 1);}50%{-webkit-transform: scale(1.1, 1.1);transform: scale(1.1, 1.1);}66.67%{-webkit-transform: scale(1, 1);transform: scale(1, 1);}83.33%{-webkit-transform: scale(1.1, 1.1);transform: scale(1.1, 1.1);}100%{-webkit-transform: scale(1, 1);transform: scale(1, 1);}}@keyframes rJwOgrkHeG7_BkOhJrxGm_Animation{0%{-webkit-transform: scale(1, 1);transform: scale(1, 1);}16.67%{-webkit-transform: scale(1.1, 1.1);transform: scale(1.1, 1.1);}33.33%{-webkit-transform: scale(1, 1);transform: scale(1, 1);}50%{-webkit-transform: scale(1.1, 1.1);transform: scale(1.1, 1.1);}66.67%{-webkit-transform: scale(1, 1);transform: scale(1, 1);}83.33%{-webkit-transform: scale(1.1, 1.1);transform: scale(1.1, 1.1);}100%{-webkit-transform: scale(1, 1);transform: scale(1, 1);}}@-webkit-keyframes rJcueSkHxz7_BkaKkrxGQ_Animation{0%{-webkit-transform: scale(1, 1);transform: scale(1, 1);}16.67%{-webkit-transform: scale(1.1, 1.1);transform: scale(1.1, 1.1);}33.33%{-webkit-transform: scale(1, 1);transform: scale(1, 1);}50%{-webkit-transform: scale(1.1, 1.1);transform: scale(1.1, 1.1);}66.67%{-webkit-transform: scale(1, 1);transform: scale(1, 1);}83.33%{-webkit-transform: scale(1.1, 1.1);transform: scale(1.1, 1.1);}100%{-webkit-transform: scale(1, 1);transform: scale(1, 1);}}@keyframes rJcueSkHxz7_BkaKkrxGQ_Animation{0%{-webkit-transform: scale(1, 1);transform: scale(1, 1);}16.67%{-webkit-transform: scale(1.1, 1.1);transform: scale(1.1, 1.1);}33.33%{-webkit-transform: scale(1, 1);transform: scale(1, 1);}50%{-webkit-transform: scale(1.1, 1.1);transform: scale(1.1, 1.1);}66.67%{-webkit-transform: scale(1, 1);transform: scale(1, 1);}83.33%{-webkit-transform: scale(1.1, 1.1);transform: scale(1.1, 1.1);}100%{-webkit-transform: scale(1, 1);transform: scale(1, 1);}}@-webkit-keyframes ryadgrkrez7_Animation{0%{opacity: 0;}13.33%{opacity: 1;}83.33%{opacity: 1;}100%{opacity: 0;}}@keyframes ryadgrkrez7_Animation{0%{opacity: 0;}13.33%{opacity: 1;}83.33%{opacity: 1;}100%{opacity: 0;}}@-webkit-keyframes ryadgrkrez7_S1hB1rxG7_Animation{0%{-webkit-transform: translate(-5px, 20px);transform: translate(-5px, 20px);}100%{-webkit-transform: translate(5px, -10px);transform: translate(5px, -10px);}}@keyframes ryadgrkrez7_S1hB1rxG7_Animation{0%{-webkit-transform: translate(-5px, 20px);transform: translate(-5px, 20px);}100%{-webkit-transform: translate(5px, -10px);transform: translate(5px, -10px);}}#HJerJBlGQ *{-webkit-animation-duration: 3s;animation-duration: 3s;-webkit-animation-iteration-count: infinite;animation-iteration-count: infinite;-webkit-animation-timing-function: cubic-bezier(0, 0, 1, 1);animation-timing-function: cubic-bezier(0, 0, 1, 1);}#Sk-eByBlzm{fill: #E0E0E0;}#rJzeBkrefQ{fill: #BDBDBD;}#rkXlByrgGm{fill: #757575;}#BJNxrJSgMm{fill: #E0E0E0;stroke: #BDBDBD;stroke-width: 0.6358;stroke-miterlimit: 10;}#SkSxHJreGX{fill: #212121;stroke: #E0E0E0;stroke-width: 1.2716;stroke-miterlimit: 10;}#rJIgSkHlGX{fill: #212121;stroke: #E0E0E0;stroke-width: 1.2716;stroke-miterlimit: 10;}#BJPgSJSlGm{fill: #212121;stroke: #E0E0E0;stroke-width: 1.2716;stroke-miterlimit: 10;}#By_xryrxGX{fill: #212121;stroke: #E0E0E0;stroke-width: 1.2716;stroke-miterlimit: 10;}#rJKgBJBgf7{fill: #212121;stroke: #E0E0E0;stroke-width: 1.2716;stroke-miterlimit: 10;}#B1qgHJBeM7{fill: #212121;stroke: #E0E0E0;stroke-width: 1.2716;stroke-miterlimit: 10;}#S1ieBkreMX{fill: none;stroke: #E0E0E0;stroke-width: 1.2716;stroke-miterlimit: 10;}#Syher1Sgf7{fill: none;stroke: #E0E0E0;stroke-width: 1.2716;stroke-miterlimit: 10;}#rkalSySgf7{fill: none;stroke: #E0E0E0;stroke-width: 1.2716;stroke-miterlimit: 10;}#HyReByBgMX{fill: none;stroke: #E0E0E0;stroke-width: 1.2716;stroke-miterlimit: 10;}#rJyeeHkrlzQ{fill: none;stroke: #E0E0E0;stroke-width: 1.2716;stroke-miterlimit: 10;}#SylelBJreM7{fill: none;stroke: #E0E0E0;stroke-width: 1.2716;stroke-miterlimit: 10;}#B1ZxerJBez7{fill: none;stroke: #E0E0E0;stroke-width: 1.2716;stroke-miterlimit: 10;}#H1GxlByrgfQ{fill: none;stroke: #E0E0E0;stroke-width: 1.2716;stroke-miterlimit: 10;}#r1XllSySxfQ{fill: none;stroke: #E0E0E0;stroke-width: 1.2716;stroke-miterlimit: 10;}#Hk4eeH1HxGQ{fill: none;stroke: #E0E0E0;stroke-width: 1.2716;stroke-miterlimit: 10;}#SkBeeBJSxzX{fill: none;stroke: #E0E0E0;stroke-width: 1.2716;stroke-miterlimit: 10;}#ryIggSyHxzQ{fill: none;stroke: #E0E0E0;stroke-width: 1.2716;stroke-miterlimit: 10;}#HkPxeSJBxMm{fill: none;stroke: #E0E0E0;stroke-width: 1.2716;stroke-miterlimit: 10;}#B1dlgryHlMX{fill: none;stroke: #E0E0E0;stroke-width: 1.2716;stroke-miterlimit: 10;}#HyKxgBJBef7{fill: none;stroke: #E0E0E0;stroke-width: 1.2716;stroke-miterlimit: 10;}#ryceeSkSlGX{fill: none;stroke: #E0E0E0;stroke-width: 1.2716;stroke-miterlimit: 10;}#r1ixxrkHxfm{fill: none;stroke: #E0E0E0;stroke-width: 1.2716;stroke-miterlimit: 10;}#rkhgxS1rgG7{fill: none;stroke: #E0E0E0;stroke-width: 1.2716;stroke-miterlimit: 10;}#BJTexHJSxGm{fill: none;stroke: #E0E0E0;stroke-width: 1.2716;stroke-miterlimit: 10;}#ryCglSkHxGm{fill: none;stroke: #E0E0E0;stroke-width: 1.2716;stroke-miterlimit: 10;}#Sk1ZlrkHgz7{fill: none;stroke: #E0E0E0;stroke-width: 1.2716;stroke-miterlimit: 10;}#H1gWlBJrxfQ{fill: none;stroke: #E0E0E0;stroke-width: 1.2716;stroke-miterlimit: 10;}#rJZZxBJrxfQ{fill: none;stroke: #E0E0E0;stroke-width: 1.2716;stroke-miterlimit: 10;}#B1zZlSySxGX{fill: none;stroke: #E0E0E0;stroke-width: 1.2716;stroke-miterlimit: 10;}#rymZgSyBgMQ{fill: none;stroke: #E0E0E0;stroke-width: 1.2716;stroke-miterlimit: 10;}#r1NbeH1HeGm{fill: none;stroke: #E0E0E0;stroke-width: 1.2716;stroke-miterlimit: 10;}#BkHbeSyrgGX{fill: none;stroke: #E0E0E0;stroke-width: 1.2716;stroke-miterlimit: 10;}#HkIZxHkSgf7{fill: none;stroke: #E0E0E0;stroke-width: 1.2716;stroke-miterlimit: 10;}#BkvZgBySxMm{fill: none;stroke: #E0E0E0;stroke-width: 1.2716;stroke-miterlimit: 10;}#ry_-eH1SxfX{fill: none;stroke: #E0E0E0;stroke-width: 1.2716;stroke-miterlimit: 10;}#rktZer1Sgz7{fill: none;stroke: #E0E0E0;stroke-width: 1.2716;stroke-miterlimit: 10;}#Hy5ZeBJrlfX{fill: none;stroke: #E0E0E0;stroke-width: 1.2716;stroke-miterlimit: 10;}#SJoWxrJrlM7{fill: none;stroke: #E0E0E0;stroke-width: 1.2716;stroke-miterlimit: 10;}#BknWlHkBezX{fill: none;stroke: #E0E0E0;stroke-width: 1.2716;stroke-miterlimit: 10;}#ByTWlB1SeMm{fill: none;stroke: #E0E0E0;stroke-width: 1.2716;stroke-miterlimit: 10;}#B1CWxrkrlGQ{fill: none;stroke: #E0E0E0;stroke-width: 1.2716;stroke-miterlimit: 10;}#BJ1flrJSefQ{fill: none;stroke: #E0E0E0;stroke-width: 1.2716;stroke-miterlimit: 10;}#HylfeS1refX{fill: none;stroke: #E0E0E0;stroke-width: 1.2716;stroke-miterlimit: 10;}#BkWGxSyrxzX{fill: none;stroke: #E0E0E0;stroke-width: 1.2716;stroke-miterlimit: 10;}#HkMGgHyrefm{fill: none;stroke: #E0E0E0;stroke-width: 1.2716;stroke-miterlimit: 10;}#SyQzgHJrxMm{fill: none;stroke: #E0E0E0;stroke-width: 1.2716;stroke-miterlimit: 10;}#B1EGlB1SgMm{fill: none;stroke: #E0E0E0;stroke-width: 1.2716;stroke-miterlimit: 10;}#rJHflSyrlz7{fill: none;stroke: #E0E0E0;stroke-width: 1.2716;stroke-miterlimit: 10;}#rkLzeSkrgMX{fill: none;stroke: #E0E0E0;stroke-width: 1.2716;stroke-miterlimit: 10;}#B1vzeHkHeMX{fill: none;stroke: #E0E0E0;stroke-width: 1.2716;stroke-miterlimit: 10;}#HJOzxS1HeMQ{fill: none;stroke: #E0E0E0;stroke-width: 1.2716;stroke-miterlimit: 10;}#BJYzlByBgGQ{fill: none;stroke: #E0E0E0;stroke-width: 1.2716;stroke-miterlimit: 10;}#S19GgHyBlz7{fill: none;stroke: #E0E0E0;stroke-width: 1.2716;stroke-miterlimit: 10;}#H1izxHyBxzm{fill: none;stroke: #E0E0E0;stroke-width: 1.2716;stroke-miterlimit: 10;}#HJ3GerJSeGX{fill: none;stroke: #E0E0E0;stroke-width: 1.2716;stroke-miterlimit: 10;}#S1pzlS1rgzQ{fill: none;stroke: #E0E0E0;stroke-width: 1.2716;stroke-miterlimit: 10;}#S1CzlHyHxMm{fill: none;stroke: #E0E0E0;stroke-width: 1.2716;stroke-miterlimit: 10;}#HyymeryHgzX{fill: none;stroke: #E0E0E0;stroke-width: 1.2716;stroke-miterlimit: 10;}#SyeQxSySgG7{fill: none;stroke: #E0E0E0;stroke-width: 1.2716;stroke-miterlimit: 10;}#rkZXeB1BxMm{fill: none;stroke: #E0E0E0;stroke-width: 1.2716;stroke-miterlimit: 10;}#HJzQlH1rlG7{fill: none;stroke: #E0E0E0;stroke-width: 1.2716;stroke-miterlimit: 10;}#SJX7xByBlM7{fill: none;stroke: #E0E0E0;stroke-width: 1.2716;stroke-miterlimit: 10;}#rkEXgryBxz7{fill: none;stroke: #E0E0E0;stroke-width: 1.2716;stroke-miterlimit: 10;}#ByHmxHkSlfQ{fill: none;stroke: #E0E0E0;stroke-width: 1.2716;stroke-miterlimit: 10;}#HkLmlr1BgMQ{fill: none;stroke: #E0E0E0;stroke-width: 1.2716;stroke-miterlimit: 10;}#H1wQerkHgzX{fill: none;stroke: #E0E0E0;stroke-width: 1.2716;stroke-miterlimit: 10;}#B1_7lS1HxGX{fill: none;stroke: #E0E0E0;stroke-width: 1.2716;stroke-miterlimit: 10;}#HJKQxrkHlGm{fill: none;stroke: #E0E0E0;stroke-width: 1.2716;stroke-miterlimit: 10;}#S1c7grJrlGX{fill: none;stroke: #E0E0E0;stroke-width: 1.2716;stroke-miterlimit: 10;}#S1i7xHkHlG7{fill: none;stroke: #E0E0E0;stroke-width: 1.2716;stroke-miterlimit: 10;}#SknXxrySlfm{fill: none;stroke: #E0E0E0;stroke-width: 1.2716;stroke-miterlimit: 10;}#Syp7xBkSezX{fill: none;stroke: #E0E0E0;stroke-width: 1.2716;stroke-miterlimit: 10;}#SJCQxSyrlMX{fill: none;stroke: #E0E0E0;stroke-width: 1.2716;stroke-miterlimit: 10;}#HyJ4xHJHgGX{fill: none;stroke: #E0E0E0;stroke-width: 1.2716;stroke-miterlimit: 10;}#H1xVxHkBlfm{fill: none;stroke: #E0E0E0;stroke-width: 1.2716;stroke-miterlimit: 10;}#Sy-4gHySgGm{fill: none;stroke: #E0E0E0;stroke-width: 1.2716;stroke-miterlimit: 10;}#ryfNlryHgf7{fill: none;stroke: #E0E0E0;stroke-width: 1.2716;stroke-miterlimit: 10;}#r1XVgrkrlGX{fill: none;stroke: #E0E0E0;stroke-width: 1.2716;stroke-miterlimit: 10;}#ByNElr1BlGX{fill: none;stroke: #E0E0E0;stroke-width: 1.2716;stroke-miterlimit: 10;}#rJS4gr1rlM7{fill: none;stroke: #E0E0E0;stroke-width: 1.2716;stroke-miterlimit: 10;}#HJUNeS1rgGX{fill: none;stroke: #E0E0E0;stroke-width: 1.2716;stroke-miterlimit: 10;}#ByP4xSJrlMX{fill: none;stroke: #E0E0E0;stroke-width: 1.2716;stroke-miterlimit: 10;}#r1_EgBySxMX{fill: none;stroke: #E0E0E0;stroke-width: 1.2716;stroke-miterlimit: 10;}#rkY4xS1BlMQ{fill: none;stroke: #E0E0E0;stroke-width: 1.2716;stroke-miterlimit: 10;}#SJcNeSkBlMQ{fill: #212121;}#B1oExrJHxf7{fill: #F5F5F5;}#rkh4lrkrgGm{fill: none;stroke: #FEBC37;stroke-width: 1.7031;stroke-linecap: round;stroke-miterlimit: 10;stroke-dasharray: 2.8385,5.677;}#rJ6Ver1Bgf7{fill: none;stroke: #FEBC37;stroke-width: 1.7031;stroke-linecap: round;stroke-miterlimit: 10;stroke-dasharray: 2.8385,5.677;}#BkRElS1rlGm{fill: none;stroke: #FEBC37;stroke-width: 1.7031;stroke-linecap: round;stroke-miterlimit: 10;stroke-dasharray: 2.8385,5.677;}#B1kSxSJHefQ{fill: none;stroke: #FEBC37;stroke-width: 1.7031;stroke-linecap: round;stroke-miterlimit: 10;stroke-dasharray: 2.8385,5.677;}#rklBxSyreGX{fill: none;stroke: #FEBC37;stroke-width: 1.7031;stroke-linecap: round;stroke-miterlimit: 10;stroke-dasharray: 2.8385,5.677;}#rkbSxBkSlz7{fill: none;stroke: #FEBC37;stroke-width: 1.7031;stroke-linecap: round;stroke-miterlimit: 10;stroke-dasharray: 2.8385,5.677;}#SkGSxBkSeGX{fill: #FEBC37;}#H1mrxHJBgMQ{fill: none;stroke: #89E8A7;stroke-width: 1.7031;stroke-linecap: round;stroke-miterlimit: 10;stroke-dasharray: 2.8385,5.677;}#SkEHlBJHlfX{fill: none;stroke: #89E8A7;stroke-width: 1.7031;stroke-linecap: round;stroke-miterlimit: 10;stroke-dasharray: 2.8385,5.677;}#B1HBeByreG7{fill: none;stroke: #89E8A7;stroke-width: 1.7031;stroke-linecap: round;stroke-miterlimit: 10;stroke-dasharray: 2.8385,5.677;}#S1UBeryHgG7{fill: none;stroke: #FEBC37;stroke-width: 1.7031;stroke-linecap: round;stroke-miterlimit: 10;stroke-dasharray: 2.8385,5.677;}#r1PHgB1BgGm{fill: none;stroke: #89E8A7;stroke-width: 1.7031;stroke-linecap: round;stroke-miterlimit: 10;stroke-dasharray: 2.8385,5.677;}#H1_HxryrefQ{fill: none;stroke: #89E8A7;stroke-width: 1.7031;stroke-linecap: round;stroke-miterlimit: 10;stroke-dasharray: 2.8385,5.677;}#BytBlrkrlf7{fill: #89E8A7;}#S19BxBJHgfX{fill: #212121;}#ryireH1rgfm{fill: #78CC93;}#SJhSlBJrlMm{fill: #89E8A7;}#rk6SlrkBxf7{fill: #212121;}#ryASeS1rgzX{fill: #78CC93;}#ryk8eSJHefQ{fill: #89E8A7;}#rJgLlr1HxMX{fill: #212121;}#BJWIlBJSlf7{fill: #78CC93;}#HkzUlSyBlfm{fill: #89E8A7;}#rJELlBkSxGX{fill: #E3B319;}#ByBUgBJHlM7{fill: #FECF37;}#H1UIgryBgz7{fill: #E3B319;}#rJDLxBkHlf7{fill: #FECF37;}#rkuUlSJHeGm{fill: #E3B319;}#ryFLgS1SgMX{fill: none;stroke: #B89114;stroke-width: 10.8032;stroke-miterlimit: 10;}#rJqLeryHxM7{fill: none;stroke: #FEFFD1;stroke-width: 10.8032;stroke-miterlimit: 10;}#BJj8lSJreGm{fill: none;stroke: #FEFFD1;stroke-width: 10.8032;stroke-miterlimit: 10;}#SyT8grJrxG7{fill: #FFFFFF;stroke: #FEBC37;stroke-width: 1.7031;stroke-linecap: round;stroke-miterlimit: 10;}#BkA8lBySgM7{fill: #FED537;}#SyJvgryHeMX{fill: #FE9237;}#r1evlSyBxfm{fill: #FE7637;}#HyWwxS1rlGQ{fill: #FEBC37;}#SkGvgBySlMQ{fill: none;stroke: #FE7137;stroke-width: 0.7948;stroke-linejoin: round;}#SyQweB1BxMQ{fill: none;stroke: #FE7137;stroke-width: 0.7948;stroke-linejoin: round;}#SJEDlBJrlzm{fill: #FEFFD1;}#BJUwxHkBez7{fill: #FECF37;}#rJvwxByHeMm{fill: #E3B319;}#ryODgBJHgG7{fill: #E3B319;}#HyYwxSkSefX{fill: #FECF37;}#BJ9wxHyrefX{fill: #E3B319;}#H1iveBkHxGX{fill: none;stroke: #B89114;stroke-width: 10.8032;stroke-miterlimit: 10;}#SyhwlB1rlf7{fill: none;stroke: #FEFFD1;stroke-width: 10.8032;stroke-miterlimit: 10;}#ry0PxBJHgGQ{fill: #E3B319;}#SyyOlHyHgGQ{fill: #FECF37;}#Syg_gr1SeMX{fill: #E3B319;}#ryWuxrJHlGm{fill: #E3B319;}#B1zdgBkSxG7{fill: none;stroke: #B89114;stroke-width: 10.8032;stroke-miterlimit: 10;}#ry7deB1BxGQ{fill: none;stroke: #FEFFD1;stroke-width: 10.8032;stroke-miterlimit: 10;}#H1rdxHyHgzQ{fill: #FFB74D;}#SJUulSJrxM7{fill: #FECF37;}#ByudlHkreG7{fill: #FFB74D;}#SJt_xHJreGQ{fill: #FECF37;}#rkidgS1Bxfm{fill: #FFB74D;}#Sy3uxrJHeGQ{fill: #FECF37;}#SJAdxSyrlfm{fill: #FFFFFF;stroke: #89E8A7;stroke-width: 1.9131;stroke-linecap: round;stroke-miterlimit: 10;-webkit-transform:  matrix(0.1602, -0.9871, 0.9871, 0.1602, 279.1447, 588.7505);transform:  matrix(0.1602, -0.9871, 0.9871, 0.1602, 279.1447, 588.7505);}#BJ1KgHJHezX{fill: #C7FFD9;}#SyxYgB1SeGX{fill: #93F0B0;}#rk-YxBkSxzX{fill: #89E8A7;}#SkftlHJBezQ{fill: #ACF4C3;}#HkXFxBySeMX{fill: none;stroke: #89E8A7;stroke-width: 0.7948;stroke-linejoin: round;}#SJEKlH1BlMX{fill: none;stroke: #89E8A7;stroke-width: 0.7948;stroke-linejoin: round;}#ry8YlHkHxfm{fill: #FFFFFF;}#ryadgrkrez7_S1hB1rxG7{-webkit-animation-name: ryadgrkrez7_S1hB1rxG7_Animation;animation-name: ryadgrkrez7_S1hB1rxG7_Animation;-webkit-transform-origin: 50% 50%;transform-origin: 50% 50%;transform-box: fill-box;-webkit-transform: translate(-5px, 20px);transform: translate(-5px, 20px);}#ryadgrkrez7{-webkit-animation-name: ryadgrkrez7_Animation;animation-name: ryadgrkrez7_Animation;-webkit-transform-origin: 50% 50%;transform-origin: 50% 50%;transform-box: fill-box;opacity: 0;}#rJcueSkHxz7_BkaKkrxGQ{-webkit-transform-origin: 50% 50%;transform-origin: 50% 50%;transform-box: fill-box;-webkit-animation-name: rJcueSkHxz7_BkaKkrxGQ_Animation;animation-name: rJcueSkHxz7_BkaKkrxGQ_Animation;-webkit-animation-timing-function: cubic-bezier(0.42, 0, 0.58, 1);animation-timing-function: cubic-bezier(0.42, 0, 0.58, 1);-webkit-transform: scale(1, 1);transform: scale(1, 1);}#rJwOgrkHeG7_BkOhJrxGm{-webkit-animation-name: rJwOgrkHeG7_BkOhJrxGm_Animation;animation-name: rJwOgrkHeG7_BkOhJrxGm_Animation;-webkit-transform-origin: 50% 50%;transform-origin: 50% 50%;transform-box: fill-box;-webkit-transform: scale(1, 1);transform: scale(1, 1);-webkit-animation-timing-function: cubic-bezier(0.42, 0, 0.58, 1);animation-timing-function: cubic-bezier(0.42, 0, 0.58, 1);}#H14dgHkBgG7_rJNlgSxG7{-webkit-transform-origin: 50% 50%;transform-origin: 50% 50%;transform-box: fill-box;-webkit-animation-name: H14dgHkBgG7_rJNlgSxG7_Animation;animation-name: H14dgHkBgG7_rJNlgSxG7_Animation;-webkit-animation-timing-function: cubic-bezier(0.42, 0, 0.58, 1);animation-timing-function: cubic-bezier(0.42, 0, 0.58, 1);-webkit-transform: scale(1.1, 1.1);transform: scale(1.1, 1.1);}#BJaPxByreMX_HJV4lrlGQ{-webkit-transform-origin: 50% 50%;transform-origin: 50% 50%;transform-box: fill-box;-webkit-animation-name: BJaPxByreMX_HJV4lrlGQ_Animation;animation-name: BJaPxByreMX_HJV4lrlGQ_Animation;-webkit-animation-timing-function: cubic-bezier(0.42, 0, 0.58, 1);animation-timing-function: cubic-bezier(0.42, 0, 0.58, 1);-webkit-transform: scale(1, 1);transform: scale(1, 1);}#BJrDgS1SeMX_rJMDxrefQ{-webkit-animation-name: BJrDgS1SeMX_rJMDxrefQ_Animation;animation-name: BJrDgS1SeMX_rJMDxrefQ_Animation;-webkit-transform-origin: 50% 50%;transform-origin: 50% 50%;transform-box: fill-box;-webkit-transform: scale(1.1, 1.1);transform: scale(1.1, 1.1);-webkit-animation-timing-function: cubic-bezier(0.42, 0, 0.58, 1);animation-timing-function: cubic-bezier(0.42, 0, 0.58, 1);}#HJQLxHyBgf7_rySolBxMX{-webkit-transform-origin: 50% 50%;transform-origin: 50% 50%;transform-box: fill-box;-webkit-animation-name: HJQLxHyBgf7_rySolBxMX_Animation;animation-name: HJQLxHyBgf7_rySolBxMX_Animation;-webkit-animation-timing-function: cubic-bezier(0.42, 0, 0.58, 1);animation-timing-function: cubic-bezier(0.42, 0, 0.58, 1);-webkit-transform: scale(1, 1);transform: scale(1, 1);}#Hy2Ler1Bxf7_Byr0gSlf7{-webkit-animation-name: Hy2Ler1Bxf7_Byr0gSlf7_Animation;animation-name: Hy2Ler1Bxf7_Byr0gSlf7_Animation;-webkit-transform-origin: 50% 50%;transform-origin: 50% 50%;transform-box: fill-box;-webkit-transform: translate(-5px, -20px);transform: translate(-5px, -20px);}#Hy2Ler1Bxf7{-webkit-animation-name: Hy2Ler1Bxf7_Animation;animation-name: Hy2Ler1Bxf7_Animation;-webkit-transform-origin: 50% 50%;transform-origin: 50% 50%;transform-box: fill-box;opacity: 0;}</style>

<g id="HyleSkBlGX">
	<path d="M565.9,576.3h-499c-4.8,0-7.9-5.7-5.4-9.7l43.5-70.7h421.9l44.2,70.7C573.6,570.6,570.7,576.3,565.9,576.3z" id="Sk-eByBlzm"/>
	<path d="M565.9,576.3h-499c-2.7,0-5.1-1.7-6.1-4.2H61l4.6,14.9c0.9,2.9,3.6,5,6.7,5h487.9c3.1,0,5.8-2,6.7-5l4.5-14.4&#10;&#9;&#9;C570.5,574.9,568.3,576.3,565.9,576.3z" id="rJzeBkrefQ"/>
	<path d="M357.1,576.3c0,4-3.3,7.3-7.3,7.3h-67.1c-4,0-7.3-3.3-7.3-7.3H357.1z" id="rkXlByrgGm"/>
	<path d="M390.2,565.5l-3.6-15.8c-0.5-2.1-2.3-3.6-4.5-3.6H250.5c-2.2,0-4,1.5-4.5,3.6l-3.6,15.8&#10;&#9;&#9;c-0.6,2.5,1,4.9,3.5,5.5c0.3,0.1,0.7,0.1,1,0.1h138.8c2.5,0,4.6-2.1,4.6-4.6C390.3,566.1,390.3,565.8,390.2,565.5z" id="BJNxrJSgMm"/>
	<polygon points="511.5,513.1 121.1,513.1 116.7,520.4 515.8,520.4 &#9;" id="SkSxHJreGX"/>
	<polygon points="507.2,505.8 125.4,505.8 121.1,513.1 511.5,513.1 &#9;" id="rJIgSkHlGX"/>
	<polygon points="128.6,500.6 125.6,505.8 507,505.8 504,500.6 &#9;" id="BJPgSJSlGm"/>
	<polygon points="108.2,535.2 103.9,542.4 528.6,542.4 524.2,535.1 &#9;" id="By_xryrxGX"/>
	<polygon points="515.8,520.4 116.7,520.4 112.4,527.8 520.1,527.8 &#9;" id="rJKgBJBgf7"/>
	<polygon points="519.9,527.8 112.6,527.8 108.2,535.1 524.2,535 &#9;" id="B1qgHJBeM7"/>
	<line x1="471" y1="513" x2="468.2" y2="505.7" id="S1ieBkreMX"/>
	<line x1="444.1" y1="513" x2="441.8" y2="505.7" id="Syher1Sgf7"/>
	<line x1="417.2" y1="513" x2="415.5" y2="505.7" id="rkalSySgf7"/>
	<line x1="390.3" y1="513" x2="389.1" y2="505.7" id="HyReByBgMX"/>
	<line x1="363.4" y1="513" x2="362.8" y2="505.7" id="rJyeeHkrlzQ"/>
	<line x1="336.3" y1="512.6" x2="336.2" y2="505.3" id="SylelBJreM7"/>
	<line x1="309.6" y1="513" x2="310.1" y2="505.7" id="B1ZxerJBez7"/>
	<line x1="282.7" y1="513" x2="283.7" y2="505.7" id="H1GxlByrgfQ"/>
	<line x1="255.8" y1="513" x2="257.4" y2="505.7" id="r1XllSySxfQ"/>
	<line x1="228.9" y1="513" x2="231" y2="505.7" id="Hk4eeH1HxGQ"/>
	<line x1="202" y1="513" x2="204.6" y2="505.7" id="SkBeeBJSxzX"/>
	<line x1="175.1" y1="513" x2="178.3" y2="505.7" id="ryIggSyHxzQ"/>
	<line x1="148.2" y1="513" x2="151.9" y2="505.7" id="HkPxeSJBxMm"/>
	<line x1="125.6" y1="505.7" x2="121.3" y2="513" id="B1dlgryHlMX"/>
	<line x1="167" y1="534.9" x2="170.6" y2="527.6" id="HyKxgBJBef7"/>
	<line x1="196" y1="534.9" x2="198.9" y2="527.6" id="ryceeSkSlGX"/>
	<line x1="225" y1="534.9" x2="227.2" y2="527.6" id="r1ixxrkHxfm"/>
	<line x1="254.1" y1="534.9" x2="255.5" y2="527.6" id="rkhgxS1rgG7"/>
	<line x1="283.1" y1="534.9" x2="283.8" y2="527.6" id="BJTexHJSxGm"/>
	<line x1="312.3" y1="534.5" x2="312.3" y2="527.2" id="ryCglSkHxGm"/>
	<line x1="341.2" y1="534.9" x2="340.5" y2="527.6" id="Sk1ZlrkHgz7"/>
	<line x1="370.2" y1="534.9" x2="368.8" y2="527.6" id="H1gWlBJrxfQ"/>
	<line x1="399.3" y1="534.9" x2="397.1" y2="527.6" id="rJZZxBJrxfQ"/>
	<line x1="428.3" y1="534.9" x2="425.4" y2="527.6" id="B1zZlSySxGX"/>
	<line x1="457.3" y1="534.9" x2="453.7" y2="527.6" id="rymZgSyBgMQ"/>
	<line x1="127.7" y1="502.1" x2="125.6" y2="505.7" id="r1NbeH1HeGm"/>
	<line x1="155.2" y1="501" x2="152.8" y2="505.7" id="BkHbeSyrgGX"/>
	<line x1="182.2" y1="500.6" x2="180.1" y2="505.7" id="HkIZxHkSgf7"/>
	<line x1="209" y1="500.6" x2="207.3" y2="505.7" id="BkvZgBySxMm"/>
	<line x1="235.8" y1="500.6" x2="234.5" y2="505.7" id="ry_-eH1SxfX"/>
	<line x1="262.6" y1="500.6" x2="261.8" y2="505.7" id="rktZer1Sgz7"/>
	<line x1="289.5" y1="500.6" x2="289" y2="505.7" id="Hy5ZeBJrlfX"/>
	<line x1="316.5" y1="501.1" x2="316.5" y2="505.3" id="SJoWxrJrlM7"/>
	<line x1="343.1" y1="500.4" x2="343.5" y2="505.7" id="BknWlHkBezX"/>
	<line x1="369.9" y1="500.6" x2="370.8" y2="505.7" id="ByTWlB1SeMm"/>
	<line x1="396.7" y1="500.6" x2="398" y2="505.7" id="B1CWxrkrlGQ"/>
	<line x1="423.5" y1="500.6" x2="425.2" y2="505.7" id="BJ1flrJSefQ"/>
	<line x1="450.3" y1="500.6" x2="452.5" y2="505.7" id="HylfeS1refX"/>
	<line x1="477.2" y1="500.6" x2="479.7" y2="505.7" id="BkWGxSyrxzX"/>
	<line x1="507" y1="505.7" x2="504.8" y2="502.1" id="HkMGgHyrefm"/>
	<line x1="156.1" y1="520.3" x2="159.1" y2="513" id="SyQzgHJrxMm"/>
	<line x1="183.8" y1="520.3" x2="186.1" y2="513" id="B1EGlB1SgMm"/>
	<line x1="211.4" y1="520.3" x2="213.2" y2="513" id="rJHflSyrlz7"/>
	<line x1="239.1" y1="520.3" x2="240.3" y2="513" id="rkLzeSkrgMX"/>
	<line x1="266.7" y1="520.3" x2="267.4" y2="513" id="B1vzeHkHeMX"/>
	<line x1="294.4" y1="520.3" x2="294.5" y2="513" id="HJOzxS1HeMQ"/>
	<line x1="322" y1="520.3" x2="321.6" y2="513" id="BJYzlByBgGQ"/>
	<line x1="349.7" y1="520.3" x2="348.7" y2="513" id="S19GgHyBlz7"/>
	<line x1="377.3" y1="520.3" x2="375.8" y2="513" id="H1izxHyBxzm"/>
	<line x1="405" y1="520.3" x2="402.9" y2="513" id="HJ3GerJSeGX"/>
	<line x1="432.6" y1="520.3" x2="430" y2="513" id="S1pzlS1rgzQ"/>
	<line x1="460.3" y1="520.3" x2="457.1" y2="513" id="S1CzlHyHxMm"/>
	<line x1="488" y1="520.3" x2="484.2" y2="513" id="HyymeryHgzX"/>
	<line x1="515.6" y1="520.3" x2="511.3" y2="513" id="SyeQxSySgG7"/>
	<line x1="519.9" y1="527.6" x2="515.6" y2="520.3" id="rkZXeB1BxMm"/>
	<line x1="465.6" y1="527.6" x2="462.5" y2="520.3" id="HJzQlH1rlG7"/>
	<line x1="438.5" y1="527.6" x2="435.9" y2="520.3" id="SJX7xByBlM7"/>
	<line x1="411.3" y1="527.6" x2="409.3" y2="520.3" id="rkEXgryBxz7"/>
	<line x1="384.2" y1="527.6" x2="382.7" y2="520.3" id="ByHmxHkSlfQ"/>
	<line x1="357" y1="527.6" x2="356.1" y2="520.3" id="HkLmlr1BgMQ"/>
	<line x1="329.9" y1="527.6" x2="329.6" y2="520.3" id="H1wQerkHgzX"/>
	<line x1="302.7" y1="527.6" x2="303" y2="520.3" id="B1_7lS1HxGX"/>
	<line x1="275.5" y1="527.6" x2="276.4" y2="520.3" id="HJKQxrkHlGm"/>
	<line x1="248.4" y1="527.6" x2="249.8" y2="520.3" id="S1c7grJrlGX"/>
	<line x1="221.2" y1="527.6" x2="223.2" y2="520.3" id="S1i7xHkHlG7"/>
	<line x1="194.1" y1="527.6" x2="196.7" y2="520.3" id="SknXxrySlfm"/>
	<line x1="166.9" y1="527.6" x2="170.1" y2="520.3" id="Syp7xBkSezX"/>
	<line x1="116.9" y1="520.3" x2="112.6" y2="527.6" id="SJCQxSyrlMX"/>
	<line x1="108.2" y1="535" x2="104" y2="542.2" id="HyJ4xHJHgGX"/>
	<line x1="134.3" y1="542.2" x2="138" y2="534.9" id="H1xVxHkBlfm"/>
	<line x1="164.6" y1="542.2" x2="167.7" y2="534.9" id="Sy-4gHySgGm"/>
	<line x1="195" y1="542.2" x2="197.4" y2="534.9" id="ryfNlryHgf7"/>
	<line x1="225.3" y1="542.2" x2="227.1" y2="534.9" id="r1XVgrkrlGX"/>
	<line x1="376.9" y1="542.2" x2="375.7" y2="534.9" id="ByNElr1BlGX"/>
	<line x1="407.3" y1="542.2" x2="405.4" y2="534.9" id="rJS4gr1rlM7"/>
	<line x1="437.6" y1="542.2" x2="435.1" y2="534.9" id="HJUNeS1rgGX"/>
	<line x1="467.9" y1="542.2" x2="464.8" y2="534.9" id="ByP4xSJrlMX"/>
	<line x1="498.2" y1="542.2" x2="494.5" y2="534.9" id="r1_EgBySxMX"/>
	<line x1="528.6" y1="542.2" x2="524.2" y2="534.9" id="rkY4xS1BlMQ"/>
	<path d="M526.9,495.9V230.4c0-6.2-5-11.2-11.2-11.2l0,0H116.3c-6.2,0-11.2,5-11.2,11.2v265.5H526.9z" id="SJcNeSkBlMQ"/>
	<rect x="122.8" y="236.9" width="387.4" height="240.2" id="B1oExrJHxf7"/>
	<path d="M38.2,10c1.1,77.2,20.1,132.1,43,170.4c18.6,31.1,43.1,54.5,62.4,69.7" id="rkh4lrkrgGm"/>
	<path d="M125.7,207.5c6.5,8,13.5,15.6,20.9,22.8" id="rJ6Ver1Bgf7"/>
	<path d="M66.2,52.2c1.1,10.2,2.5,20,4.3,29.3" id="BkRElS1rlGm"/>
	<path d="M65.6,45.7c0.2,2.2,0.4,4.3,0.7,6.5" id="B1kSxSJHefQ"/>
	<path d="M86.5,215.5c9,10.2,18.7,19.7,29.1,28.5" id="rklBxSyreGX"/>
	<path d="M18.7,33.9c1.1,17.5,3.4,35,6.8,52.2" id="rkbSxBkSlz7"/>
	<path d="M161.2,263.3c0.3,1-0.2,2.1-1.2,2.5c-0.3,0.1-0.7,0.1-1,0.1l-10.1-2.1l-10.1-2.1c-1.1-0.2-1.7-1.2-1.5-2.3&#10;&#9;&#9;c0.1-0.3,0.2-0.7,0.5-0.9l6.8-7.7l6.8-7.7c0.7-0.8,2-0.9,2.8-0.2c0.3,0.2,0.5,0.5,0.6,0.9l3.3,9.8L161.2,263.3z" id="SkGSxBkSeGX"/>
	<path d="M460.6,265.9c1.1-77.2,20.1-132.1,43-170.4c18.6-31.1,43.1-54.5,62.4-69.7" id="H1mrxHJBgMQ"/>
	<path d="M548.2,68.4c6.5-8,13.5-15.6,20.9-22.8" id="SkEHlBJHlfX"/>
	<path d="M488.7,223.8c1.1-10.2,2.5-20,4.3-29.3" id="B1HBeByreG7"/>
	<path d="M488,230.2c0.2-2.2,0.4-4.3,0.7-6.5" id="S1UBeryHgG7"/>
	<path d="M509,60.4c9-10.2,18.7-19.7,29.1-28.5" id="r1PHgB1BgGm"/>
	<path d="M441.2,242.1c1.1-17.5,3.4-35,6.8-52.2" id="H1_HxryrefQ"/>
	<path d="M583.7,12.6c0.3-1-0.2-2.1-1.2-2.5c-0.3-0.1-0.7-0.1-1-0.1l-10.1,2.1l-10.1,2.1c-1.1,0.2-1.7,1.2-1.5,2.3&#10;&#9;&#9;c0.1,0.3,0.2,0.7,0.5,0.9l6.8,7.7l6.8,7.7c0.7,0.8,2,0.9,2.8,0.2c0.3-0.2,0.5-0.5,0.6-0.8l3.3-9.8L583.7,12.6z" id="BytBlrkrlf7"/>
	<rect x="166.7" y="399.1" width="74.6" height="5.4" id="S19BxBJHgfX"/>
	<path d="M241,399.5v4.8h-74v-4.8H241 M241.7,398.8h-75.3v6.1h75.3L241.7,398.8L241.7,398.8z" id="ryireH1rgfm"/>
	<rect x="167.1" y="399.5" width="10.3" height="4.8" id="SJhSlBJrlMm"/>
	<rect x="278.6" y="399.1" width="74.6" height="5.4" id="rk6SlrkBxf7"/>
	<path d="M352.9,399.5v4.8h-74v-4.8H352.9 M353.6,398.8h-75.3v6.1h75.3V398.8z" id="ryASeS1rgzX"/>
	<rect x="279" y="399.5" width="44.4" height="4.8" id="ryk8eSJHefQ"/>
	<rect x="390.6" y="399.1" width="74.6" height="5.4" id="rJgLlr1HxMX"/>
	<path d="M464.9,399.5v4.8h-74v-4.8H464.9 M465.5,398.8h-75.3v6.1h75.3V398.8z" id="BJWIlBJSlf7"/>
	<rect x="390.9" y="399.5" width="67.7" height="4.8" id="HkzUlSyBlfm"/>
</g>
<g id="HJQLxHyBgf7_rySolBxMX" data-animator-group="true" data-animator-type="2"><g id="HJQLxHyBgf7">
	<polygon points="427.9,291.3 421,291.3 376.9,313.3 376.9,363.4 419.9,385.4 426.8,385.4 472,363.4 472,313.2 &#9;" id="rJELlBkSxGX"/>
	<polygon points="428.5,291.3 384.5,313.3 384.5,363.4 427.4,385.4 472.6,363.4 472.6,313.2 &#9;" id="ByBUgBJHlM7"/>
	<path d="M428.5,294.3l41.3,20.5v46.8l-42.4,20.7l-40.3-20.7V315L428.5,294.3 M428.5,291.3l-44.1,22v50.1l43,22&#10;&#9;&#9;l45.2-22v-50.2L428.5,291.3z" id="H1UIgryBgz7"/>
	<polygon points="428.9,291.3 384.9,313.3 384.9,363.4 427.8,385.4 473,363.4 473,313.2 &#9;" id="rJDLxBkHlf7"/>
	<path d="M428.9,294.3l41.3,20.5v46.8l-42.4,20.7l-40.2-20.7V315L428.9,294.3 M428.9,291.3l-44.1,22v50.1l43,22&#10;&#9;&#9;l45.2-22v-50.2L428.9,291.3L428.9,291.3z" id="rkuUlSJHeGm"/>
	<path d="M433.4,314.7c13.1,2.1,22,14.4,19.9,27.5c-2.1,13.1-14.4,22-27.5,19.9s-22-14.4-19.9-27.5&#10;&#9;&#9;c1.9-11.6,11.9-20.2,23.7-20.2C430.8,314.4,432.1,314.5,433.4,314.7" id="ryFLgS1SgMX"/>
	<path d="M405.5,338.4c0-13.3,10.7-24,24-24c0,0,0,0,0,0" id="rJqLeryHxM7"/>
	<path d="M433.4,314.7c13.1,2.1,21.9,14.5,19.8,27.5c-2.1,13.1-14.5,21.9-27.5,19.8c-13.1-2.1-21.9-14.5-19.8-27.5&#10;&#9;&#9;c0.1-0.7,0.3-1.4,0.4-2.1" id="BJj8lSJreGm"/>
</g></g>
<g id="Hy2Ler1Bxf7_Byr0gSlf7" data-animator-group="true" data-animator-type="0"><g id="Hy2Ler1Bxf7">
	<circle cx="63.1" cy="145.6" r="46.4" id="SyT8grJrxG7"/>
	<polygon points="60.4,114.7 73.6,117.7 49.7,132.3 36.5,129.2 &#9;" id="BkA8lBySgM7"/>
	<polygon points="34.3,160.7 36.5,129.2 49.7,132.3 47.5,163.7 &#9;" id="SyJvgryHeMX"/>
	<polygon points="57,172.2 34.3,160.7 47.5,163.7 70.1,176.6 &#9;" id="r1evlSyBxfm"/>
	<polygon points="73.6,117.7 95.7,130.6 93.5,161.9 70.1,176.6 47.5,163.7 49.7,132.3 &#9;" id="HyWwxS1rlGQ"/>
	<polygon points="73.6,117.7 95.7,130.6 93.5,161.9 70.1,176.6 47.5,163.7 49.7,132.3 &#9;" id="SkGvgBySlMQ"/>
	<polygon points="36.5,129.2 60.4,114.7 73.6,117.7 73.6,117.7 95.7,130.6 93.5,161.9 70.1,176.6 57,172.2 34.3,160.7 &#10;&#9;&#9;36.5,129.2 &#9;" id="SyQweB1BxMQ"/>
	<path d="M66.5,153.2c0.1-1,0.3-1.9,0.6-2.8c0.4-0.9,0.9-1.7,1.6-2.4c1.1-1.2,2.1-2.2,3-3.1c0.9-0.9,1.7-1.7,2.4-2.5&#10;&#9;&#9;c0.6-0.7,1.1-1.4,1.6-2.1c0.4-0.6,0.6-1.2,0.6-1.9c0.1-1.2-0.2-2-0.9-2.5c-0.8-0.5-1.8-0.7-2.7-0.4c-1.5,0.3-3,1.1-4,2.2&#10;&#9;&#9;c-0.9,1-1.5,2.3-1.7,3.7l-8.4,1.3c0.5-3.6,2.3-7,4.9-9.6c2.7-2.6,6-4.3,9.6-5c1.5-0.3,3.1-0.5,4.7-0.3c1.3,0.1,2.6,0.5,3.8,1.2&#10;&#9;&#9;c1.1,0.7,1.9,1.6,2.4,2.8c0.6,1.4,0.8,2.9,0.7,4.4c-0.1,1-0.2,2-0.5,2.9c-0.3,1-0.7,1.9-1.3,2.7c-0.7,1-1.4,2-2.3,2.9&#10;&#9;&#9;c-0.9,1-2.1,2.2-3.4,3.5c-0.7,0.6-1.4,1.4-1.8,2.2c-0.3,0.6-0.5,1.3-0.6,1.9l-0.1,1.6l-8.2,1.7L66.5,153.2z M64.8,163.7&#10;&#9;&#9;c0.1-0.7,0.2-1.4,0.5-2c0.6-1.3,1.6-2.5,2.8-3.2c0.6-0.4,1.3-0.6,2-0.8c0.6-0.1,1.3-0.2,1.9,0c0.6,0.1,1.1,0.3,1.5,0.7&#10;&#9;&#9;c0.4,0.4,0.8,0.8,1,1.4c0.2,0.6,0.3,1.2,0.2,1.9c0,0.7-0.2,1.4-0.5,2c-0.3,0.7-0.7,1.3-1.2,1.8c-0.5,0.5-1.1,1-1.7,1.4&#10;&#9;&#9;c-0.6,0.4-1.3,0.6-2,0.8c-0.6,0.1-1.3,0.2-1.9,0c-0.6-0.1-1.1-0.3-1.5-0.7c-0.4-0.4-0.8-0.8-1-1.4C64.8,165,64.8,164.3,64.8,163.7z&#10;&#9;&#9;" id="SJEDlBJrlzm"/>
</g></g>
<g id="BJrDgS1SeMX_rJMDxrefQ" data-animator-group="true" data-animator-type="2"><g id="BJrDgS1SeMX">
	<polygon points="316.5,291.3 272.4,313.3 272.4,363.4 315.4,385.4 360.5,363.4 360.5,313.2 &#9;" id="BJUwxHkBez7"/>
	<path d="M316.5,294.3l41.3,20.5v46.8l-42.4,20.7l-40.3-20.7V315L316.5,294.3 M316.5,291.3l-44.1,22v50.1l43,22&#10;&#9;&#9;l45.2-22v-50.2L316.5,291.3z" id="rJvwxByHeMm"/>
	<polygon points="315.5,291.3 308.6,291.3 264.5,313.3 264.5,363.4 307.4,385.4 314.4,385.4 359.5,363.4 359.5,313.2 &#9;&#10;&#9;&#9;" id="ryODgBJHgG7"/>
	<polygon points="316.1,291.3 272,313.3 272,363.4 315,385.4 360.1,363.4 360.1,313.2 &#9;" id="HyYwxSkSefX"/>
	<path d="M316.1,294.3l41.3,20.5v46.8L315,382.4l-40.3-20.7V315L316.1,294.3 M316.1,291.3l-44.1,22v50.1l43,22l45.2-22&#10;&#9;&#9;v-50.2L316.1,291.3L316.1,291.3z" id="BJ9wxHyrefX"/>
	<path d="M320.9,314.7c13.1,2.1,22,14.4,19.9,27.5c-2.1,13.1-14.4,22-27.5,19.9c-13.1-2.1-22-14.4-19.9-27.5&#10;&#9;&#9;c1.9-11.6,11.9-20.2,23.7-20.2C318.4,314.4,319.7,314.5,320.9,314.7" id="H1iveBkHxGX"/>
	<path d="M320.9,314.7c13.1,2.1,22,14.5,19.8,27.5c-2.1,13.1-14.5,22-27.5,19.8c-5.7-0.9-10.9-3.9-14.6-8.4" id="SyhwlB1rlf7"/>
</g></g>
<g id="BJaPxByreMX_HJV4lrlGQ" data-animator-group="true" data-animator-type="2"><g id="BJaPxByreMX">
	<polygon points="205.1,291.3 198.2,291.3 154.2,313.3 154.2,363.4 197.1,385.4 204,385.4 249.2,363.4 249.2,313.2 &#9;&#10;&#9;&#9;" id="ry0PxBJHgGQ"/>
	<polygon points="205.7,291.3 161.7,313.3 161.7,363.4 204.6,385.4 249.8,363.4 249.8,313.2 &#9;" id="SyyOlHyHgGQ"/>
	<path d="M205.7,294.3l41.3,20.5v46.8l-42.4,20.7l-40.2-20.7V315L205.7,294.3 M205.8,291.3l-44.1,22v50.1l43,22&#10;&#9;&#9;l45.2-22v-50.2L205.8,291.3z" id="Syg_gr1SeMX"/>
	<polygon points="154.2,313.3 164.1,314.7 164.1,361.3 154.2,363.4 &#9;" id="ryWuxrJHlGm"/>
	<path d="M208.5,314.7c13.1,2.1,22,14.4,19.9,27.5s-14.4,22-27.5,19.9c-13.1-2.1-22-14.4-19.9-27.5&#10;&#9;&#9;c1.9-11.6,11.9-20.2,23.7-20.2C205.9,314.4,207.2,314.5,208.5,314.7" id="B1zdgBkSxG7"/>
	<path d="M208.5,314.7c9.3,1.5,16.8,8.3,19.3,17.3" id="ry7deB1BxGQ"/>
</g></g>
<g id="H14dgHkBgG7_rJNlgSxG7" data-animator-group="true" data-animator-type="2"><g id="H14dgHkBgG7">
	<path d="M325.9,431.7l-7.4,0.9l5.3-14.9c0.5-1.5,0.5-2,0.3-2.3c-0.1-0.1-0.3-0.2-0.4-0.2c-0.2,0-0.6,0-1.8,1.6&#10;&#9;&#9;l-16.7,22.5c-0.3,0.4-0.1,0.9,0.3,1.2c0.1,0.1,0.3,0.1,0.5,0.1l6.6-0.6l-6.2,15.7c-0.2,0.4,0,0.9,0.4,1.1c0.1,0.1,0.3,0.1,0.4,0.1&#10;&#9;&#9;c0.3,0,0.5-0.1,0.7-0.3l18.7-23.6c0.2-0.3,0.3-0.6,0.1-0.9C326.6,431.9,326.3,431.7,325.9,431.7z" id="H1rdxHyHgzQ"/>
	<path d="M326.7,432.1c-0.1-0.3-0.5-0.5-0.8-0.5l-7.4,0.9l5.3-14.9c0.5-1.5,0.5-2,0.3-2.3c-0.1-0.1-0.3-0.2-0.4-0.2&#10;&#9;&#9;l-11.3,20.9l7.1-1.4c0.7-0.1,1.3,0.3,1.4,1c0.1,0.3,0,0.7-0.2,0.9l-14.1,20.2l0.1,0.1c0.1,0.1,0.3,0.1,0.4,0.1&#10;&#9;&#9;c0.3,0,0.5-0.1,0.7-0.3l18.7-23.6C326.8,432.8,326.9,432.5,326.7,432.1z" id="SJUulSJrxM7"/>
</g></g>
<g id="rJwOgrkHeG7_BkOhJrxGm" data-animator-group="true" data-animator-type="2"><g id="rJwOgrkHeG7">
	<path d="M437.9,431.7l-7.4,0.9l5.3-14.9c0.5-1.5,0.5-2,0.3-2.3c-0.1-0.1-0.3-0.2-0.4-0.2c-0.1,0-0.6,0-1.8,1.6&#10;&#9;&#9;l-16.7,22.5c-0.2,0.3-0.2,0.6,0,0.9c0.2,0.3,0.4,0.4,0.7,0.4l6.6-0.6l-6.2,15.7c-0.2,0.4,0,0.8,0.4,1.1c0.1,0.1,0.3,0.1,0.4,0.1&#10;&#9;&#9;c0.3,0,0.5-0.1,0.7-0.3l18.7-23.6c0.3-0.4,0.3-0.9-0.1-1.2C438.3,431.7,438.1,431.6,437.9,431.7L437.9,431.7z" id="ByudlHkreG7"/>
	<path d="M438.6,432.1c-0.1-0.3-0.4-0.5-0.8-0.5l-7.4,0.9l5.3-14.9c0.5-1.5,0.5-2,0.3-2.3c-0.1-0.1-0.3-0.2-0.4-0.2&#10;&#9;&#9;l-11.2,20.9l7.1-1.4c0.7-0.1,1.3,0.3,1.4,1c0.1,0.3,0,0.7-0.2,0.9l-14.1,20.2l0.1,0.1c0.1,0.1,0.3,0.1,0.4,0.1&#10;&#9;&#9;c0.3,0,0.5-0.1,0.7-0.3l18.7-23.6C438.7,432.8,438.8,432.5,438.6,432.1z" id="SJt_xHJreGQ"/>
</g></g>
<g id="rJcueSkHxz7_BkaKkrxGQ" data-animator-group="true" data-animator-type="2"><g id="rJcueSkHxz7">
	<path d="M211.9,431.7l-7.4,0.9l5.3-14.9c0.5-1.5,0.5-2,0.3-2.3c-0.1-0.1-0.3-0.2-0.4-0.2c-0.1,0-0.6,0-1.8,1.6&#10;&#9;&#9;l-16.7,22.5c-0.2,0.3-0.2,0.6,0,0.9c0.2,0.3,0.4,0.4,0.7,0.4l6.6-0.6l-6.2,15.7c-0.2,0.4,0.1,1,0.5,1.1c0.3,0.1,0.7,0,1-0.3&#10;&#9;&#9;l18.7-23.6c0.3-0.4,0.3-0.9-0.1-1.2C212.4,431.7,212.2,431.6,211.9,431.7L211.9,431.7z" id="rkidgS1Bxfm"/>
	<path d="M212.7,432.1c-0.1-0.3-0.4-0.5-0.8-0.5l-7.4,0.9l5.3-14.8c0.5-1.5,0.5-2,0.3-2.3c-0.1-0.1-0.3-0.2-0.4-0.2&#10;&#9;&#9;l-11.2,20.9l7.1-1.4c0.7-0.1,1.3,0.3,1.4,1c0.1,0.3,0,0.7-0.2,0.9l-14.1,20.2l0.1,0.1c0.1,0.1,0.3,0.1,0.4,0.1&#10;&#9;&#9;c0.3,0,0.5-0.1,0.7-0.3l18.7-23.6C212.9,432.8,212.9,432.5,212.7,432.1z" id="Sy3uxrJHeGQ"/>
</g></g>
<g id="ryadgrkrez7_S1hB1rxG7" data-animator-group="true" data-animator-type="0"><g id="ryadgrkrez7">
	
		<ellipse cx="485.6" cy="130.3" rx="46.4" ry="46.4" id="SJAdxSyrlfm"/>
	<polygon points="490.1,98.3 476.9,101.3 500.9,115.9 514.1,112.9 &#9;" id="BJ1KgHJHezX"/>
	<polygon points="516.2,144.3 514.1,112.9 500.9,115.9 503,147.3 &#9;" id="SyxYgB1SeGX"/>
	<polygon points="493.5,155.8 516.2,144.3 503,147.3 480.4,160.2 &#9;" id="rk-YxBkSxzX"/>
	<polygon points="476.9,101.3 454.9,114.2 457.1,145.5 480.4,160.2 503,147.3 500.9,115.9 &#9;" id="SkftlHJBezQ"/>
	<polygon points="476.9,101.3 454.9,114.2 457.1,145.5 480.4,160.2 503,147.3 500.9,115.9 &#9;" id="HkXFxBySeMX"/>
	<polygon points="514.1,112.9 490.1,98.3 476.9,101.3 476.9,101.3 454.9,114.2 457.1,145.5 480.4,160.2 493.5,155.8 &#10;&#9;&#9;516.2,144.3 514.1,112.9 &#9;" id="SJEKlH1BlMX"/>
	<g id="H1HterJSlzQ">
		<path d="M495.6,122.8c-0.2,0.2-0.4,0.4-0.6,0.6l-18.2,24c-0.1,0.2-0.3,0.4-0.5,0.6c-4.7-4.5-9.4-9-14-13.4l4.8-6.1&#10;&#9;&#9;&#9;l8.2,7.6c4.8-6.4,9.6-12.7,14.4-19.2l5.9,5.7V122.8z" id="ry8YlHkHxfm"/>
	</g>
</g></g>
<script>(function(){var a=document.querySelector('#HJerJBlGQ'),b=a.querySelectorAll('style'),c=function(d){b.forEach(function(f){var g=f.textContent;g&amp;&amp;(f.textContent=g.replace(/transform-box:[^;\r\n]*/gi,'transform-box: '+d))})};c('initial'),window.requestAnimationFrame(function(){return c('fill-box')})})();</script></svg>