<svg xmlns="http://www.w3.org/2000/svg" xmlns:xlink="http://www.w3.org/1999/xlink" viewBox="0 0 1363.01 1315.54"><defs><style>.cls-1{fill:#fac4a3;}.cls-2{fill:#57c2ff;}.cls-3{fill:#f3f5f8;}.cls-10,.cls-25,.cls-29,.cls-32,.cls-4,.cls-9{fill:none;}.cls-4{stroke:#fff;stroke-width:2.7px;}.cls-10,.cls-29,.cls-4,.cls-9{stroke-linecap:round;}.cls-29,.cls-4,.cls-9{stroke-miterlimit:10;}.cls-5{fill:#fff;}.cls-6{fill:#2f4ecc;}.cls-7{fill:#502526;}.cls-8{fill:#fec6b7;}.cls-10,.cls-9{stroke:#f1914d;stroke-width:1.35px;}.cls-10,.cls-32{stroke-linejoin:round;}.cls-11{fill:#fe9237;}.cls-12{fill:#242422;}.cls-13{fill:#40afff;}.cls-14{fill:#114774;}.cls-15{fill:#eda895;}.cls-16{fill:#e09e8d;}.cls-17{fill:url(#linear-gradient);}.cls-18{opacity:0.44;}.cls-19{fill:url(#linear-gradient-2);}.cls-20{fill:url(#linear-gradient-3);}.cls-21{fill:url(#linear-gradient-4);}.cls-22{fill:url(#linear-gradient-5);}.cls-23{fill:#a4fcc0;}.cls-24{fill:#89e8a7;}.cls-26{fill:#93f0b0;}.cls-27,.cls-28{font-size:80px;font-family:AkzidenzGroteskBQ-BdCnd, Akzidenz-Grotesk BQ Condensed;font-weight:700;letter-spacing:-0.04em;}.cls-27{fill:#a8fac2;}.cls-28{fill:#4eb36e;}.cls-29{stroke:#93f0b0;stroke-width:3px;stroke-dasharray:5 10;}.cls-30{fill:#acf4c3;}.cls-31{fill:#c7ffd9;}.cls-32{stroke:#89e8a7;stroke-width:1.18px;}</style><linearGradient id="linear-gradient" x1="653.23" y1="1127.58" x2="653.23" y2="5.25" gradientUnits="userSpaceOnUse"><stop offset="0" stop-color="#b3f8e3"/><stop offset="0.57" stop-color="#fff" stop-opacity="0"/></linearGradient><linearGradient id="linear-gradient-2" x1="430.22" y1="-1820.05" x2="430.22" y2="-2885.67" gradientTransform="matrix(1, 0, 0, -1, 0, -1873.35)" gradientUnits="userSpaceOnUse"><stop offset="0.16" stop-color="#fff" stop-opacity="0"/><stop offset="0.91" stop-color="#b5f8e3" stop-opacity="0.97"/><stop offset="1" stop-color="#b3f8e3"/></linearGradient><linearGradient id="linear-gradient-3" x1="580.66" y1="-3586.8" x2="580.66" y2="-6783.66" gradientTransform="matrix(1, 0, 0, -0.33, 0, -1248.9)" gradientUnits="userSpaceOnUse"><stop offset="0.11" stop-color="#e6fdf6" stop-opacity="0.33"/><stop offset="0.74" stop-color="#ccfaec" stop-opacity="0.67"/></linearGradient><linearGradient id="linear-gradient-4" x1="731.09" y1="4910.31" x2="731.09" y2="1713.45" gradientTransform="translate(0 -624.45) scale(1 0.33)" gradientUnits="userSpaceOnUse"><stop offset="0" stop-color="#ccfaec" stop-opacity="0.67"/><stop offset="0.85" stop-color="#e6fdf6" stop-opacity="0.33"/></linearGradient><linearGradient id="linear-gradient-5" x1="850.28" y1="1016.85" x2="850.28" y2="-48.77" gradientUnits="userSpaceOnUse"><stop offset="0" stop-color="#b3f8e3"/><stop offset="0.09" stop-color="#b5f8e3" stop-opacity="0.97"/><stop offset="0.84" stop-color="#fff" stop-opacity="0"/></linearGradient></defs><title>Boid_05 Answer</title><g id="Layer_5" data-name="Layer 5"><polygon class="cls-1" points="1257.76 740.9 1262.09 758.4 1245.26 763.74 1241.42 744.4 1257.76 740.9"/><path class="cls-1" d="M1274,787.05c-1.08-3.56-3.48-9.6-3.48-9.6-.78-6-2.45-13.76-4.62-17.4s-8.49-8.75-16.4-4.11c-6.93,4.06-9.94,14.47-9.17,20.81a20.48,20.48,0,0,1-1.41,10.23,1.77,1.77,0,0,0,1.35,2.48,2.72,2.72,0,0,0,1.15-.25c2.35-1,3-4.13,2.65-6.07s0-5.55,2.17-5.79c1.8-.21,2.89,2.71,3.85,4.27a82.05,82.05,0,0,1,3.14,11.3c.91,5.12,1.59,6.9,3.11,7,2.08.12,1.45-3.47,1.08-5.44s-1.42-8.35-2.86-12.09l1.46-.18a143.2,143.2,0,0,1,4.5,16.83c.23,2.08.84,3.54,2.33,3.52.56,0,1.48-.34,1.75-2s-3.53-16.28-4.27-19.13l.87-.2c2.29,3,4.51,12.55,4.59,14.52.08,2.23,1.16,4.75,2.85,4.27,1.39-.39,1.15-3.65.25-8.72a67.33,67.33,0,0,0-3.46-11.23c.53-.17,1-.35,1.52-.54h0a24.25,24.25,0,0,1,3,7.21c1.1,4.5,1.23,8,3.29,8.19S1275.09,790.62,1274,787.05Z"/><path d="M1089.78,1007.12c-.45,2.25-8.55,14.41-8.55,14.41s-25.68,16.67-24.78,28.38c11.26,10.81,44.14.45,57.21-6.3s13.06-8.56,13.06-9.91-1.35-26.58-2.7-26.58Z"/><path d="M1173.56,1030.86s-15.47,19-15.22,39.9a8,8,0,0,0,8.05,7.94c33.72-.54,46.13-36.64,42.75-44.38C1205.54,1026,1173.56,1030.86,1173.56,1030.86Z"/><path class="cls-2" d="M1106.54,767.27S1087.31,870.65,1088,898.35s-3.38,114.85-3.38,114.85,35.81,13.51,44.43-4.73c3.54-63.51,5.55-113.5,6.58-116.2s16.06-70.95,16.06-70.95-.38,85.13,2.76,98,11.25,115.53,11.25,115.53,28.38,14.19,48-2.7c-2-58.1-10.45-124.32-10.45-124.32l-.36-141.88Z"/><path class="cls-3" d="M1113.12,595.91s-2.32,32.3-5.48,60.06c-4.05,35.58-10.24,159.6-10.24,159.6a120.45,120.45,0,0,0,24.23,10.23l5.18-8.8,4.94,11.51c21.3,4.81,49.88,5.74,78-10.41,3.15-56.3-6.51-210.33-6.51-210.33s-33.49-19.23-54.85-18.16S1113.12,595.91,1113.12,595.91Z"/><line class="cls-4" x1="1134.07" y1="654.32" x2="1126.81" y2="815.82"/><path class="cls-5" d="M1166.67,584.59s10.87,4.3,14.52,14.42c4.73,13.11.68,23.92-1.85,29.66-4.06-3-9.8-3.88-9.8-3.88l3.88,11-40.53,24.62,36.48-49.79Z"/><path class="cls-5" d="M1134.55,581.75c-11.69,2.69-20.28,16.91-21.5,37.18A60.61,60.61,0,0,1,1123,616l-6.77,8.55,16.69,35.83,8-15.56V609.25C1140.88,607.45,1143.06,579.79,1134.55,581.75Z"/><path class="cls-6" d="M1161.83,589.13c6.83,1.11,12.09,5.65,9.74,17.11-3.72,18.55-37.69,52.33-37.69,52.33s-14-46.39-4.73-67.05C1135.32,577.81,1155,588,1161.83,589.13Z"/><path class="cls-3" d="M1237.71,747.61c-2.6-12.46-18.74-57.88-21.34-64.62-2.36-6.14-10.6-21-20.93-36-4.77-7-12.72-13.19-10.67-21.38l18.52-17.81c42.51,47.75,46.78,77.55,46.78,77.55,4.54,18.39,14.46,38.07,13.4,59C1260.07,755.32,1239.07,754.08,1237.71,747.61Z"/><path class="cls-7" d="M1125.12,509.45s-2.5-2.58-4.86.73c-5.49,7.7-7.62,32.55,7.37,38.44s4.18-38.37,4.18-38.37Z"/><path class="cls-8" d="M1172.59,574.27,1168.13,596c-2.16,6.85-8.41,10.05-15.4,11.84-7.76,2-21.87-1.47-20.09-7.75,2.65-9.4,4.24-18.14,4.24-18.14Z"/><path class="cls-8" d="M1150.48,498.24c-10-1.09-34.39,2.43-29.68,41.37-4.25,41.82,10.71,48.49,22.35,48.7,17.12.3,38.57-15.48,41.44-46.34C1186.78,518.47,1182.23,501.66,1150.48,498.24Z"/><path class="cls-7" d="M1186.16,539.47s5.88-8.72.53-17v-.14c-1.21-12.77-8.89-21.62-32.68-25.42-2.86-4.66-15.93-6.75-25.28-3.27-8.94,3.33-16.89,16.09-7.72,26.95.94-4.08,6.4-6.66,15.89-2.74,7-3.23,18.92,1.42,24.17,6.55,4.25,9.33-1.1,16,8.59,16.54.1,4.77,4.93,4.48,4.93,4.48s.51,11.21-2.07,28.7C1184.65,563.35,1192.92,551.07,1186.16,539.47Z"/><ellipse class="cls-8" cx="1174.59" cy="545.46" rx="11.75" ry="8.06" transform="translate(507.42 1655.44) rotate(-83.9)"/><path class="cls-9" d="M1136,587.44a24.71,24.71,0,0,0,7.19.87c7.49-.14,16.23-3.62,23.89-10.06"/><path class="cls-10" d="M1133.27,532.62s2.16,5.75,1.21,8.28c-2.62,7-4,9.23-6.28,12.17s-3,7.45,1.41,8c1,.12,1.84.19,2.47.23"/><path class="cls-3" d="M1075,670.05c2.56-18.58,38.09-74.14,38.09-74.14l3.08,37.81s-13.68,38.29-15.35,44.2c0,0-4,5.79-17.2,3.61S1075,670.05,1075,670.05Z"/><polygon class="cls-1" points="1056.07 729.49 1051.73 746.99 1068.57 752.32 1072.4 732.99 1056.07 729.49"/><path class="cls-1" d="M1039.81,775.64c1.07-3.57,3.48-9.61,3.48-9.61.77-6,2.44-13.76,4.62-17.39s8.48-8.76,16.39-4.12c6.94,4.06,10,14.48,9.17,20.81a20.34,20.34,0,0,0,1.42,10.23,1.77,1.77,0,0,1-1.36,2.48,2.62,2.62,0,0,1-1.14-.24c-2.36-1-3-4.14-2.66-6.07s0-5.56-2.17-5.8c-1.8-.21-2.89,2.72-3.85,4.27a84,84,0,0,0-3.14,11.3c-.91,5.13-1.59,6.9-3.11,7-2.07.12-1.45-3.46-1.08-5.43s1.42-8.35,2.86-12.09l-1.46-.18a142.17,142.17,0,0,0-4.5,16.83c-.23,2.07-.84,3.53-2.33,3.52-.55,0-1.48-.34-1.75-2-.24-1.48,3.53-16.27,4.27-19.13l-.87-.19c-2.29,2.95-4.51,12.55-4.59,14.51-.08,2.23-1.16,4.75-2.85,4.27-1.39-.39-1.15-3.64-.25-8.72a68.13,68.13,0,0,1,3.46-11.22c-.53-.18-1-.36-1.52-.55h0a24.25,24.25,0,0,0-2.95,7.21c-1.1,4.5-1.22,7.95-3.29,8.19S1038.73,779.2,1039.81,775.64Z"/><path class="cls-3" d="M1075.64,667.3S1053.34,725,1053.37,731s20.36,10,21.36,7.82,26.12-60.91,26.12-60.91Z"/><path class="cls-11" d="M120.59,588.15s-3.66,11.24-4.36,28.7c-2.35,59.21,11.4,92.38,14.46,82.18.72-2.4,41.6-24.35,41.6-24.35s29.64-22.49,30.21-25.39,0-84.44,0-84.44L159.38,545s-18.23,19.46-18.67,21.1S120.59,588.15,120.59,588.15Z"/><path class="cls-12" d="M195.62,1038s-4.37,16.46-2.07,20.91c3.18,2.55,6.77,2.32,12.86,5.11,7.57,3.48,24,22.34,33.34,17.46,9.19-4.81-22.63-41.33-22.63-41.33Z"/><path class="cls-13" d="M182.78,877s2.86,30.71,5.73,41.77,4,119.21,4,119.21,12.32,14,30.83,6.5c0,0,7.37-125.3,7.78-144.55s-3.69-85.37-3.69-85.37-23.95-5.12-42.59,5.11S182.78,877,182.78,877Z"/><path class="cls-12" d="M136.65,1079.19s-2.09,25.92.74,30.33,29.06,25.53,37,22.16c13.45-5.72-12.69-29.4-12.63-40.42S136.65,1079.19,136.65,1079.19Z"/><path class="cls-2" d="M135.58,818.89s-8.6,22.72-6.14,43.3,4.2,122.13,3,141.37,2.34,74,2.34,74,13.55,24.3,30.95,16.59c0-26.2,12.57-126,13.8-142s5.32-83.32,5.32-83.32,30.6-7.37,42.59-54.26C195.88,806.81,135.58,818.89,135.58,818.89Z"/><path class="cls-3" d="M305.75,735c-11.35-5.78-51-33.23-56.78-37.5-5.32-3.89-25.83-30.13-37.69-44-5.47-6.43-9.4-15.73-17.84-15.9l-22,13.22c35,53.53,71,79.86,71,79.86,16.56,9.19,33,23.92,53.44,28.37C307.34,758.61,311.64,738,305.75,735Z"/><path class="cls-3" d="M155.25,641.29s-39.6,24.9-39,42.63,14.77,52,17.73,67.37-9.46,39-11.23,70.92-3.54,98.11-3.54,98.11S160,939.23,196,923.86s40.19-24.23,40.19-24.23-1.77-74.47-8.27-99.88-17.73-38.41-17.73-52,10-31.32,9.45-52-24.23-57.92-24.23-57.92S175.34,634.13,155.25,641.29Z"/><path class="cls-5" d="M148.84,641.29s-10.93,12.19-13.15,16.84-1.33,21.5-1.33,21.5h7.43l1.66,12.07,43.12,7.58,15.93-22.72L195.43,671l5-5.1s-14.3-26.41-25.54-30.49S148.84,641.29,148.84,641.29Z"/><path class="cls-8" d="M149.85,626.06s1.87,15.6-4.63,25.06,13.15,32.35,23.12,37.53,18.23,10.63,18.23,10.63,4.3-22.31.74-37.38c-2.83-12-14.33-21.72-13.74-35.31C162.34,614.18,149.85,626.06,149.85,626.06Z"/><path class="cls-14" d="M184.28,654.05c-9.14,12.26-27.62,12.44-37.32,11.56,5,9.52,15.11,19.78,21.38,23,10,5.18,18.23,10.64,18.23,10.64s4.3-22.31.74-37.38A35.67,35.67,0,0,0,184.28,654.05Z"/><path class="cls-15" d="M174.67,634.85v-.05c-.12-.38-.24-.77-.34-1.17a22.66,22.66,0,0,1-.71-4.37c0-.11,0-.21,0-.31a23,23,0,0,1,0-2.35h0c-11.23-12.41-23.72-.53-23.72-.53s.21,1.87.24,4.68c9.64,11.42,22.26,17.28,31.6,18.55C179,644.63,176.19,640,174.67,634.85Z"/><path class="cls-8" d="M159.38,545c-19-1.16-39.59,27.19-29,58.51s42,41.37,52,36.64,19.5-40.18,15.37-56.73S188.34,546.81,159.38,545Z"/><path class="cls-3" d="M120.91,823.63l3-4.71a11.49,11.49,0,0,0,.47-11.71c-6.5-12.05-21-29.24-18-51.1s11.39-25.11,22.49-41.32c5.13-7.48,13.67-14.17,11.47-23l-19.9-19.14s-35,31.79-40.2,85.87c-2,21,10.56,47.65,21.15,64.86A11.53,11.53,0,0,0,120.91,823.63Z"/><path class="cls-16" d="M133.17,817.73c7.17,1.41,13.37,12.1,14.42,14.84,1.27,4-5.23,8.62-9.24,11.15a2.26,2.26,0,0,1-3.33-1.08c-1.7-4.37-5.05-13.21-5-15C130,825.31,126,816.33,133.17,817.73Z"/><path class="cls-8" d="M122.6,808s-15.48,5.37-16.21,16.63c3.37,6.06,4.73,8.24,4.73,8.24s-.82,10.12,6.29,16.13,26.51-11.86,26.51-11.86a58.92,58.92,0,0,0-7.65-17.66L130,815.6Z"/><path class="cls-11" d="M173.13,559.44s-5,46.18-34.95,51.17c-3.09,3.32-16.76-14.13-17.59-22.46s10.93-45.77,27.57-47.43c17.48-1.25,54.09,7.48,57.83,23.29S173.13,559.44,173.13,559.44Z"/><path class="cls-8" d="M298.93,755.81l11.24,6.25,9.55-14.85-13-6.43a5.34,5.34,0,0,0-7.11,2.34l-2.88,5.58A5.34,5.34,0,0,0,298.93,755.81Z"/><path class="cls-8" d="M334.7,781.07c-3.16-2-8.36-5.87-8.36-5.87-5.63-2.33-12.64-6-15.58-9s-6.24-10.47.31-16.9c5.74-5.63,16.58-5.81,22.49-3.4a20.46,20.46,0,0,0,10.24,1.31,1.77,1.77,0,0,1,2,2,2.77,2.77,0,0,1-.53,1c-1.58,2-4.78,1.82-6.56,1s-5.37-1.42-6.16.58c-.67,1.68,1.87,3.5,3.11,4.83a84.62,84.62,0,0,0,10.09,6c4.71,2.22,6.24,3.34,5.93,4.83-.43,2-3.72.49-5.52-.38s-7.69-3.55-10.92-5.93c-.17.44-.36.9-.56,1.37a142,142,0,0,0,15.07,8.74c1.94.77,3.19,1.74,2.78,3.17-.15.54-.71,1.34-2.37,1.17-1.5-.15-14.78-7.66-17.35-9.12l-.41.78c2.25,3,10.93,7.65,12.81,8.23,2.12.67,4.28,2.37,3.37,3.88-.74,1.23-3.82.15-8.48-2a67.65,67.65,0,0,1-9.93-6.27c-.31.47-.62.91-.92,1.32h0a24,24,0,0,0,6.18,4.73c4.06,2.24,7.36,3.27,7,5.32S337.85,783,334.7,781.07Z"/></g><g id="Layer_2" data-name="Layer 2"><polygon class="cls-17" points="395.28 910.58 658.4 1127.58 923.94 909.69 933.64 5.25 372.82 5.25 395.28 910.58"/><g class="cls-18"><polygon class="cls-19" points="377.09 -53.3 465.81 -51.86 483.35 1012.32 394.63 1012.32 377.09 -53.3"/><polygon class="cls-20" points="539.22 1012.32 533.38 -53.3 622.09 -52.34 627.94 1011.84 539.22 1012.32"/><polygon class="cls-21" points="683.81 1012.32 689.66 -53.3 778.37 -52.82 772.53 1011.36 683.81 1012.32"/><polygon class="cls-22" points="810.35 1016.86 877.02 1015.41 890.21 -48.77 823.53 -48.77 810.35 1016.86"/></g><polygon class="cls-23" points="439.19 877.25 439.19 836.5 480.11 815.82 521.01 836.29 521.01 876.63 480.08 897.71 439.19 877.25"/><path class="cls-24" d="M480.12,817.5l39.39,19.71v38.51L480.07,896l-39.38-19.7V837.42l39.43-19.92m0-3.35-42.42,21.43v42.6l42.4,21.21,42.42-21.84V835.36l-42.4-21.21Z"/><line class="cls-25" x1="378.7" y1="934.17" x2="480.1" y2="853.67"/><polygon class="cls-26" points="660.71 943.75 660.71 903 701.63 882.32 742.53 902.79 742.53 943.13 701.6 964.21 660.71 943.75"/><path class="cls-24" d="M701.63,884,741,903.71v38.51l-39.44,20.31-39.38-19.7V903.92L701.63,884m0-3.35-42.42,21.43v42.6l42.4,21.21L744,944.05V901.86l-42.4-21.21Z"/><polygon class="cls-24" points="919.28 898.08 877.13 877.25 830.9 900.9 831.08 900.99 831.29 943.18 788.98 965.23 746.48 944.24 746.48 944.1 657.96 989.38 659.39 1273.94 924.24 1135.89 923.06 899.85 919.28 898.08"/><polygon class="cls-23" points="484.86 943.75 484.86 903 525.78 882.32 566.68 902.79 566.68 943.13 525.75 964.21 484.86 943.75"/><path class="cls-24" d="M525.78,884l39.4,19.71v38.51l-39.44,20.31-39.38-19.7V903.92L525.78,884m0-3.35-42.41,21.43v42.6l42.4,21.21,42.42-21.84V901.86l-42.41-21.21Z"/><polygon class="cls-23" points="527.27 1011.83 527.27 971.08 568.19 950.4 609.09 970.86 609.09 1011.21 568.16 1032.29 527.27 1011.83"/><path class="cls-24" d="M568.19,952.08l39.4,19.71v38.51l-39.44,20.3-39.38-19.7V972l39.42-19.92m0-3.36-42.41,21.44v42.6l42.4,21.21,42.42-21.84V969.94l-42.41-21.22Z"/><polygon class="cls-23" points="394.68 1141.49 393.73 951.31 437.35 972.86 479.48 951.3 520.48 971.55 520.41 1013.89 571.44 1039.1 613.41 1017.63 656.71 1039.14 657.88 1271.52 394.68 1141.49"/><path class="cls-24" d="M479.49,953,519,972.48l-.07,40.47v1.87l1.67.83,49.52,24.46,1.35.67,1.35-.69,40.62-20.78,41.8,20.76.2,40.34,1,188.69L396.18,1140.56l-.94-186.83L436,973.87l1.35.67,1.35-.69L479.49,953m-87.27-4.09,1,193.54,266.2,131.51-1-193.55-.21-42.18L613.4,1016l-42,21.47L521.91,1013l.07-42.34-42.51-21-42.13,21.56-45.12-22.29Z"/><polygon class="cls-23" points="394.36 943.75 394.36 903 435.28 882.32 476.18 902.79 476.18 943.13 435.25 964.21 394.36 943.75"/><path class="cls-24" d="M435.28,884l39.4,19.71v38.51l-39.44,20.31-39.38-19.7V903.92L435.28,884m0-3.35-42.41,21.43v42.6l42.4,21.21,42.42-21.84V901.86l-42.41-21.21Z"/><polygon class="cls-26" points="616.94 1009.87 616.94 969.12 657.85 948.44 698.76 968.9 698.76 1009.25 657.82 1030.32 616.94 1009.87"/><path class="cls-24" d="M657.86,950.12l39.4,19.71v38.51l-39.45,20.3-39.37-19.7V970l39.42-19.92m0-3.36L615.44,968.2v42.6L657.83,1032l42.43-21.84V968l-42.41-21.22Z"/><text class="cls-27" transform="matrix(1.03, -0.52, -0.01, 1, 676, 1168.2)">ANSWER</text><text class="cls-28" transform="matrix(1.03, -0.52, -0.01, 1, 676, 1162.77)">ANSWER</text><line class="cls-29" x1="354.02" y1="30.99" x2="354.02" y2="123.9"/><line class="cls-29" x1="421.36" y1="136.63" x2="421.36" y2="279.37"/><line class="cls-29" x1="421.36" y1="30.99" x2="421.36" y2="67.99"/><line class="cls-29" x1="548.62" y1="24.99" x2="548.62" y2="211.77"/><line class="cls-29" x1="671.82" y1="49.49" x2="671.82" y2="13.32"/><line class="cls-29" x1="671.82" y1="230.49" x2="671.82" y2="215.99"/><line class="cls-29" x1="671.82" y1="304.07" x2="671.82" y2="264.99"/><line class="cls-29" x1="817.12" y1="43.99" x2="817.12" y2="13.32"/><line class="cls-29" x1="817.12" y1="192.53" x2="817.12" y2="91.32"/><line class="cls-29" x1="899.18" y1="85.32" x2="899.18" y2="58.83"/><line class="cls-29" x1="899.18" y1="309.33" x2="899.18" y2="141.93"/><line class="cls-29" x1="835.54" y1="368.07" x2="835.54" y2="343.37"/><line class="cls-29" x1="835.54" y1="574.74" x2="835.54" y2="405.78"/><line class="cls-29" x1="525.77" y1="604.49" x2="525.77" y2="582.99"/><line class="cls-29" x1="525.77" y1="728.85" x2="525.77" y2="651.62"/><line class="cls-29" x1="658.74" y1="515.95" x2="658.74" y2="494.45"/><line class="cls-29" x1="658.74" y1="640.31" x2="658.74" y2="539.99"/><line class="cls-29" x1="435.27" y1="723.22" x2="435.27" y2="657.77"/><polygon class="cls-30" points="421.96 299.44 380.84 320 380.84 366.74 420.93 387.31 463.08 366.74 463.08 319.87 421.96 299.44"/><path class="cls-24" d="M422,302.28l38.58,19.17v43.7L421,384.47l-37.58-19.28V321.58L422,302.28m0-2.84L380.84,320v46.74l40.09,20.57,42.15-20.57V319.87L422,299.44Z"/><g id="NNaDqx.tif"><path class="cls-5" d="M451.66,331.43c-.31.26-.64.49-.92.77l-31.92,32.5c-.25.26-.53.5-.86.82l-20-19.4,8.35-8.33L418,348.86l25.32-25.93,8.35,8.28Z"/></g><polygon class="cls-26" points="376.93 371.34 335.81 391.91 335.81 438.64 375.9 459.21 418.05 438.64 418.05 391.78 376.93 371.34"/><path class="cls-24" d="M376.93,374.19l38.58,19.16v43.7l-39.58,19.32-37.58-19.28V393.48l38.58-19.29m0-2.85-41.12,20.57v46.73l40.09,20.57,42.15-20.57V391.78l-41.12-20.44Z"/><g id="NNaDqx.tif-2" data-name="NNaDqx.tif"><path class="cls-5" d="M406.63,403.34a11.25,11.25,0,0,0-.92.76l-31.92,32.5c-.25.26-.53.51-.86.82l-20-19.39,8.35-8.33L373,420.77c8.42-8.64,16.82-17.24,25.31-25.94l8.35,8.29Z"/></g><polygon class="cls-26" points="465.99 371.34 424.87 391.91 424.87 438.64 464.96 459.21 507.11 438.64 507.11 391.78 465.99 371.34"/><path class="cls-24" d="M466,374.19l38.57,19.16v43.7L465,456.37l-37.58-19.28V393.48L466,374.19m0-2.85-41.12,20.57v46.73L465,459.21l42.15-20.57V391.78L466,371.34Z"/><g id="NNaDqx.tif-3" data-name="NNaDqx.tif"><path class="cls-5" d="M495.69,403.34a9.77,9.77,0,0,0-.92.76q-16,16.25-31.92,32.5c-.26.26-.53.51-.86.82L442,418l8.34-8.33L462,420.77l25.32-25.94,8.35,8.29Z"/></g><polygon class="cls-26" points="626.79 381.24 585.67 401.8 585.67 448.54 625.76 469.11 667.91 448.54 667.91 401.67 626.79 381.24"/><path class="cls-24" d="M626.8,384.08l38.57,19.17V447l-39.58,19.31L588.22,447V403.37l38.58-19.29m0-2.84L585.67,401.8v46.74l40.09,20.57,42.15-20.57V401.67l-41.12-20.43Z"/><g id="NNaDqx.tif-4" data-name="NNaDqx.tif"><path class="cls-5" d="M656.49,413.23a11.36,11.36,0,0,0-.92.77q-16,16.25-31.91,32.5c-.26.26-.53.5-.86.82l-20-19.4,8.34-8.33,11.69,11.07,25.31-25.94,8.35,8.29Z"/></g><polygon class="cls-30" points="671.82 309.65 630.7 330.22 630.7 376.95 670.79 397.53 712.94 376.95 712.94 330.09 671.82 309.65"/><path class="cls-24" d="M671.83,312.5l38.57,19.16v43.71l-39.58,19.31L633.25,375.4V331.79l38.58-19.29m0-2.84L630.7,330.22V377l40.09,20.57L712.94,377V330.09l-41.12-20.43Z"/><g id="NNaDqx.tif-5" data-name="NNaDqx.tif"><path class="cls-5" d="M701.52,341.65a11.36,11.36,0,0,0-.92.77l-31.92,32.5c-.25.26-.52.5-.85.81l-20-19.39,8.35-8.33,11.69,11.07c8.42-8.64,16.82-17.24,25.31-25.94l8.35,8.29Z"/></g><polygon class="cls-24" points="715.85 381.24 674.73 401.8 674.73 448.54 714.82 469.11 756.97 448.54 756.97 401.67 715.85 381.24"/><path class="cls-24" d="M715.85,384.08l38.58,19.17V447l-39.58,19.31L677.27,447V403.37l38.58-19.29m0-2.84L674.73,401.8v46.74l40.09,20.57L757,448.54V401.67l-41.12-20.43Z"/><g id="NNaDqx.tif-6" data-name="NNaDqx.tif"><path class="cls-5" d="M745.55,413.23a11.36,11.36,0,0,0-.92.77l-31.92,32.5c-.25.26-.53.5-.86.82l-20-19.4,8.35-8.33,11.69,11.07,25.31-25.94,8.35,8.29Z"/></g><polygon class="cls-26" points="744.94 484.68 703.82 505.25 703.82 551.98 743.9 572.55 786.06 551.98 786.06 505.12 744.94 484.68"/><path class="cls-24" d="M744.94,487.53l38.57,19.16v43.7l-39.58,19.32-37.57-19.28V506.82l38.58-19.29m0-2.85-41.12,20.57V552l40.08,20.57L786.06,552V505.12l-41.12-20.44Z"/><g id="NNaDqx.tif-7" data-name="NNaDqx.tif"><path class="cls-5" d="M774.64,516.68a11.4,11.4,0,0,0-.93.76l-31.91,32.5c-.26.26-.53.51-.86.82l-20-19.39,8.34-8.33L741,534.11l25.31-25.94,8.36,8.29Z"/></g><polygon class="cls-26" points="747.14 630.22 706.02 650.78 706.02 697.52 746.11 718.09 788.26 697.52 788.26 650.65 747.14 630.22"/><path class="cls-24" d="M747.14,633.06l38.57,19.17v43.7l-39.58,19.31L708.56,696V652.35l38.58-19.29m0-2.84L706,650.78v46.74l40.09,20.57,42.15-20.57V650.65l-41.12-20.43Z"/><g id="NNaDqx.tif-8" data-name="NNaDqx.tif"><path class="cls-5" d="M776.84,662.21a11.51,11.51,0,0,0-.93.77L744,695.48c-.26.26-.53.5-.86.82l-20-19.4,8.34-8.33,11.69,11.07,25.31-25.94,8.36,8.29Z"/></g><polygon class="cls-26" points="655.29 757.48 655.29 757.48 614.17 737.04 573.05 757.61 573.05 804.35 583.2 809.55 613.13 824.92 655.29 804.35 655.29 757.48 655.29 757.48"/><g id="NNaDqx.tif-9" data-name="NNaDqx.tif"><path class="cls-5" d="M643.87,769a9.74,9.74,0,0,0-.93.77L611,802.31c-.26.26-.53.5-.86.81l-20-19.39,8.34-8.33,11.69,11.07,25.31-25.94,8.36,8.29Z"/></g><polygon class="cls-26" points="525.77 737.04 484.65 757.61 484.65 804.35 524.74 824.92 566.89 804.35 566.89 757.48 525.77 737.04"/><path class="cls-24" d="M525.77,739.89l38.58,19.16v43.71l-39.58,19.31-37.58-19.28V759.18l38.58-19.29m0-2.84-41.12,20.56v46.74l40.09,20.57,42.15-20.57V757.48l-41.12-20.43Z"/><g id="NNaDqx.tif-10" data-name="NNaDqx.tif"><path class="cls-5" d="M555.47,769a8.52,8.52,0,0,0-.92.77q-16,16.25-31.92,32.5c-.25.26-.53.5-.86.81l-20-19.39,8.34-8.33,11.69,11.07,25.32-25.94,8.35,8.29Z"/></g><polygon class="cls-26" points="789.55 728.85 748.43 749.41 748.43 796.14 788.52 816.72 830.67 796.14 830.67 749.28 789.55 728.85"/><path class="cls-24" d="M789.55,731.69l38.57,19.16v43.71l-39.58,19.31L751,794.59V751l38.58-19.29m0-2.84-41.12,20.56v46.74l40.09,20.57,42.15-20.57V749.28l-41.12-20.43Z"/><g id="NNaDqx.tif-11" data-name="NNaDqx.tif"><path class="cls-5" d="M819.25,760.84a9.86,9.86,0,0,0-.92.77q-16,16.25-31.92,32.5c-.26.26-.53.5-.86.81l-20-19.39,8.34-8.33,11.69,11.07,25.32-25.94,8.35,8.29Z"/></g><polygon class="cls-30" points="745.77 812.83 704.65 833.4 704.65 880.13 744.74 900.7 786.89 880.13 786.89 833.26 745.77 812.83"/><path class="cls-24" d="M745.78,815.67l38.57,19.17v43.7l-39.58,19.32L707.2,878.58V835l38.58-19.3m0-2.84L704.65,833.4v46.73l40.09,20.57,42.15-20.57V833.26l-41.12-20.43Z"/><g id="NNaDqx.tif-12" data-name="NNaDqx.tif"><path class="cls-5" d="M775.47,844.83a11.25,11.25,0,0,0-.92.76l-31.91,32.5c-.26.26-.53.51-.86.82l-20-19.4,8.34-8.32,11.69,11.06,25.31-25.93,8.35,8.28Z"/></g><polygon class="cls-26" points="830.67 812.83 789.55 833.4 789.55 880.13 829.64 900.7 871.79 880.13 871.79 833.26 830.67 812.83"/><path class="cls-24" d="M830.67,815.67l38.58,19.17v43.7l-39.58,19.32-37.58-19.28V835l38.58-19.3m0-2.84L789.55,833.4v46.73l40.09,20.57,42.15-20.57V833.26l-41.12-20.43Z"/><g id="NNaDqx.tif-13" data-name="NNaDqx.tif"><path class="cls-5" d="M860.37,844.83a9.77,9.77,0,0,0-.92.76q-16,16.24-31.92,32.5c-.25.26-.53.51-.86.82l-20-19.4,8.34-8.32,11.69,11.06L852,836.32l8.35,8.28Z"/></g><polygon class="cls-26" points="657.96 812.83 616.84 833.4 616.84 880.13 656.93 900.7 699.08 880.13 699.08 833.26 657.96 812.83"/><path class="cls-24" d="M658,815.67l38.57,19.17v43.7L657,897.86l-37.57-19.28V835L658,815.67m0-2.84L616.84,833.4v46.73l40.09,20.57,42.15-20.57V833.26L658,812.83Z"/><g id="NNaDqx.tif-14" data-name="NNaDqx.tif"><path class="cls-5" d="M687.66,844.83a11.25,11.25,0,0,0-.92.76l-31.91,32.5c-.26.26-.53.51-.86.82l-20-19.4,8.34-8.32L654,862.25l25.31-25.93,8.35,8.28Z"/></g><polygon class="cls-30" points="873.73 324.81 855.91 360.29 874.97 398.11 914.64 403.38 937.42 367.73 915.26 326.2 873.73 324.81"/><path class="cls-24" d="M874.45,326l40.09,1.35,21.51,40.32-22,34.42L875.74,397l-18.51-36.73L874.45,326m-.72-1.2-17.82,35.48L875,398.11l39.67,5.27,22.78-35.65L915.26,326.2l-41.53-1.39Z"/><polygon class="cls-31" points="886.07 322.02 873.73 324.81 915.23 326.15 928.1 322.36 886.07 322.02"/><polygon class="cls-26" points="928.1 322.36 948.15 360.37 937.42 367.73 915.23 326.15 928.1 322.36"/><polygon class="cls-24" points="914.64 403.38 926.65 393.96 948.15 360.37 937.42 367.73 914.64 403.38"/><path class="cls-32" d="M928.1,322.36l-42-.34-12.34,2.79h0l-17.82,35.48L875,398.11l39.67,5.27,12-9.42,21.5-33.59Zm-54.37,2.45"/><g id="NNaDqx.tif-15" data-name="NNaDqx.tif"><path class="cls-5" d="M922.42,350.22a11.64,11.64,0,0,0-.84.88l-28.2,37.2c-.22.3-.47.58-.76.94l-21.71-20.77,7.39-9.54L891,370.77l22.35-29.68,9.08,8.88Z"/></g><polygon class="cls-30" points="378.77 145.9 396.59 181.39 377.53 219.2 337.86 224.47 315.08 188.82 337.24 147.29 378.77 145.9"/><path class="cls-24" d="M378.05,147.1l17.22,34.28-18.51,36.73-38.31,5.09-22-34.43L338,148.45l40.09-1.35m.72-1.2-41.53,1.39-22.16,41.53,22.78,35.65,39.67-5.27,19.06-37.81L378.77,145.9Z"/><polygon class="cls-31" points="366.43 143.11 378.77 145.9 337.27 147.25 324.4 143.46 366.43 143.11"/><polygon class="cls-26" points="324.4 143.46 304.35 181.46 315.08 188.82 337.27 147.25 324.4 143.46"/><polygon class="cls-24" points="337.86 224.47 325.85 215.05 304.35 181.46 315.08 188.82 337.86 224.47"/><path class="cls-32" d="M304.35,181.46l21.5,33.59,12,9.42,39.67-5.27,19.06-37.81L378.77,145.9h0l-12.35-2.79-42,.35Zm74.42-35.56"/><g id="NNaDqx.tif-16" data-name="NNaDqx.tif"><path class="cls-5" d="M382.51,170.79a10.22,10.22,0,0,0-.84.89Q367,190.82,352.36,210c-.23.31-.48.59-.78,1l-16.48-26,7.65-9.8L352.39,190l23.26-30.58,6.87,11.09Z"/></g><polygon class="cls-31" points="830.2 203.5 810.2 208 844.4 229.78 864.4 225.28 830.2 203.5"/><polygon class="cls-26" points="864.4 272.14 864.4 225.28 844.4 229.78 844.4 276.64 864.4 272.14"/><polygon class="cls-24" points="829.34 289.34 864.4 272.14 844.4 276.64 809.34 295.84 829.34 289.34"/><polygon class="cls-30" points="810.2 208 776 227.22 776 273.96 809.34 295.84 844.4 276.64 844.4 229.78 810.2 208"/><polygon class="cls-32" points="810.2 208 776 227.22 776 273.96 809.34 295.84 844.4 276.64 844.4 229.78 810.2 208"/><g id="NNaDqx.tif-17" data-name="NNaDqx.tif"><path class="cls-5" d="M834.9,241a10.57,10.57,0,0,0-.77.73l-26.54,31.46c-.21.25-.44.49-.71.79l-16.64-20,6.94-8.05,9.72,11.44L828,232.19l6.95,8.55Z"/></g><polygon class="cls-32" points="864.4 225.28 830.2 203.5 810.2 208 810.2 208 776 227.22 776 273.96 809.34 295.84 829.34 289.34 864.4 272.14 864.4 225.28 864.4 225.28"/><polygon class="cls-31" points="537.58 234.05 557.58 238.55 523.38 260.33 503.38 255.83 537.58 234.05"/><polygon class="cls-26" points="503.38 302.7 503.38 255.83 523.38 260.33 523.38 307.2 503.38 302.7"/><polygon class="cls-24" points="538.44 319.89 503.38 302.7 523.38 307.2 558.44 326.39 538.44 319.89"/><polygon class="cls-30" points="557.58 238.55 591.78 257.77 591.78 304.51 558.44 326.39 523.38 307.2 523.38 260.33 557.58 238.55"/><polygon class="cls-32" points="557.58 238.55 591.78 257.77 591.78 304.51 558.44 326.39 523.38 307.2 523.38 260.33 557.58 238.55"/><g id="NNaDqx.tif-18" data-name="NNaDqx.tif"><path class="cls-5" d="M583.73,268.82c-.29.28-.61.53-.87.83Q567.74,287,552.64,304.31c-.25.28-.5.54-.82.88l-18.94-18,7.9-8.89,11.07,10.27,24-27.65,7.91,7.72Z"/></g><polygon class="cls-32" points="503.38 255.83 537.58 234.05 557.58 238.55 557.58 238.55 591.78 257.77 591.78 304.51 558.44 326.39 538.44 319.89 503.38 302.7 503.38 255.83 503.38 255.83"/><polygon class="cls-31" points="458.07 560.71 478.07 565.21 443.87 586.98 423.87 582.48 458.07 560.71"/><polygon class="cls-26" points="423.87 629.35 423.87 582.48 443.87 586.98 443.87 633.85 423.87 629.35"/><polygon class="cls-24" points="458.93 646.54 423.87 629.35 443.87 633.85 478.93 653.04 458.93 646.54"/><polygon class="cls-30" points="478.07 565.21 512.27 584.43 512.27 631.16 478.93 653.04 443.87 633.85 443.87 586.98 478.07 565.21"/><polygon class="cls-32" points="478.07 565.21 512.27 584.43 512.27 631.16 478.93 653.04 443.87 633.85 443.87 586.98 478.07 565.21"/><g id="NNaDqx.tif-19" data-name="NNaDqx.tif"><path class="cls-5" d="M504.22,595.47c-.29.28-.61.53-.87.83Q488.23,613.63,473.12,631c-.24.27-.5.54-.81.87l-18.94-18,7.9-8.89,11.07,10.27,24-27.65,7.91,7.72Z"/></g><polygon class="cls-32" points="423.87 582.48 458.07 560.71 478.07 565.21 478.07 565.21 512.27 584.43 512.27 631.16 478.93 653.04 458.93 646.54 423.87 629.35 423.87 582.48 423.87 582.48"/><polygon class="cls-31" points="420.22 492.67 440.22 497.17 406.02 518.94 386.02 514.44 420.22 492.67"/><polygon class="cls-26" points="386.02 561.31 386.02 514.44 406.02 518.94 406.02 565.81 386.02 561.31"/><polygon class="cls-24" points="421.08 578.5 386.02 561.31 406.02 565.81 441.08 585 421.08 578.5"/><polygon class="cls-30" points="440.22 497.17 474.42 516.39 474.42 563.12 441.08 585 406.02 565.81 406.02 518.94 440.22 497.17"/><polygon class="cls-32" points="440.22 497.17 474.42 516.39 474.42 563.12 441.08 585 406.02 565.81 406.02 518.94 440.22 497.17"/><g id="NNaDqx.tif-20" data-name="NNaDqx.tif"><path class="cls-5" d="M466.37,527.44a11.24,11.24,0,0,0-.87.82q-15.12,17.32-30.23,34.67c-.24.27-.5.54-.81.87l-18.94-18,7.9-8.89,11.07,10.27,24-27.65,7.91,7.72Z"/></g><polygon class="cls-32" points="386.02 514.44 420.22 492.67 440.22 497.17 440.22 497.17 474.42 516.39 474.42 563.12 441.08 585 421.08 578.5 386.02 561.31 386.02 514.44 386.02 514.44"/><polygon class="cls-31" points="386.25 564.71 406.25 569.21 372.05 590.98 352.05 586.48 386.25 564.71"/><polygon class="cls-26" points="352.05 633.35 352.05 586.48 372.05 590.98 372.05 637.85 352.05 633.35"/><polygon class="cls-24" points="387.11 650.54 352.05 633.35 372.05 637.85 407.11 657.04 387.11 650.54"/><polygon class="cls-30" points="406.25 569.21 440.45 588.43 440.45 635.16 407.11 657.04 372.05 637.85 372.05 590.98 406.25 569.21"/><polygon class="cls-32" points="406.25 569.21 440.45 588.43 440.45 635.16 407.11 657.04 372.05 637.85 372.05 590.98 406.25 569.21"/><g id="NNaDqx.tif-21" data-name="NNaDqx.tif"><path class="cls-5" d="M432.4,599.47c-.29.28-.61.53-.87.83Q416.41,617.63,401.3,635c-.24.27-.5.54-.81.87l-18.94-18,7.9-8.89,11.07,10.27,24-27.65,7.91,7.72Z"/></g><polygon class="cls-32" points="352.05 586.48 386.25 564.71 406.25 569.21 406.25 569.21 440.45 588.43 440.45 635.16 407.11 657.04 387.11 650.54 352.05 633.35 352.05 586.48 352.05 586.48"/><polygon class="cls-31" points="636.67 138.35 616.67 142.85 650.87 164.63 670.87 160.13 636.67 138.35"/><polygon class="cls-26" points="670.87 206.99 670.87 160.13 650.87 164.63 650.87 211.49 670.87 206.99"/><polygon class="cls-24" points="635.82 224.19 670.87 206.99 650.87 211.49 615.82 230.69 635.82 224.19"/><polygon class="cls-30" points="616.67 142.85 582.47 162.07 582.47 208.81 615.82 230.69 650.87 211.49 650.87 164.63 616.67 142.85"/><polygon class="cls-32" points="616.67 142.85 582.47 162.07 582.47 208.81 615.82 230.69 650.87 211.49 650.87 164.63 616.67 142.85"/><g id="NNaDqx.tif-22" data-name="NNaDqx.tif"><path class="cls-5" d="M641.37,175.82a10.44,10.44,0,0,0-.76.73L614.06,208c-.21.25-.44.48-.71.79l-16.64-20.05,6.94-8.06,9.72,11.45c7-8.36,14-16.68,21.06-25.11l6.94,8.56Z"/></g><polygon class="cls-32" points="670.87 160.13 636.67 138.35 616.67 142.85 616.67 142.85 582.47 162.07 582.47 208.81 615.82 230.69 635.82 224.19 670.87 206.99 670.87 160.13 670.87 160.13"/><polygon class="cls-31" points="674.73 68.84 654.73 73.34 688.93 95.12 708.93 90.62 674.73 68.84"/><polygon class="cls-26" points="708.93 137.49 708.93 90.62 688.93 95.12 688.93 141.99 708.93 137.49"/><polygon class="cls-24" points="673.87 154.68 708.93 137.49 688.93 141.99 653.87 161.18 673.87 154.68"/><polygon class="cls-30" points="654.73 73.34 620.53 92.56 620.53 139.3 653.87 161.18 688.93 141.99 688.93 95.12 654.73 73.34"/><polygon class="cls-32" points="654.73 73.34 620.53 92.56 620.53 139.3 653.87 161.18 688.93 141.99 688.93 95.12 654.73 73.34"/><g id="NNaDqx.tif-23" data-name="NNaDqx.tif"><path class="cls-5" d="M679.43,106.31a10.57,10.57,0,0,0-.77.73q-13.27,15.72-26.54,31.46c-.21.25-.44.49-.71.79l-16.64-20,6.94-8.06,9.72,11.45,21.05-25.1,6.95,8.55Z"/></g><polygon class="cls-32" points="708.93 90.62 674.73 68.84 654.73 73.34 654.73 73.34 620.53 92.56 620.53 139.3 653.87 161.18 673.87 154.68 708.93 137.49 708.93 90.62 708.93 90.62"/><polygon class="cls-31" points="709.85 141.35 689.85 145.85 724.05 167.63 744.05 163.13 709.85 141.35"/><polygon class="cls-26" points="744.05 209.99 744.05 163.13 724.05 167.63 724.05 214.49 744.05 209.99"/><polygon class="cls-24" points="708.99 227.19 744.05 209.99 724.05 214.49 688.99 233.69 708.99 227.19"/><polygon class="cls-30" points="689.85 145.85 655.65 165.07 655.65 211.81 688.99 233.69 724.05 214.49 724.05 167.63 689.85 145.85"/><polygon class="cls-32" points="689.85 145.85 655.65 165.07 655.65 211.81 688.99 233.69 724.05 214.49 724.05 167.63 689.85 145.85"/><g id="NNaDqx.tif-24" data-name="NNaDqx.tif"><path class="cls-5" d="M714.55,178.82c-.25.24-.53.46-.77.73Q700.5,195.27,687.24,211c-.21.25-.44.48-.71.79l-16.64-20.05,6.94-8.06,9.72,11.45L707.61,170l6.94,8.56Z"/></g><polygon class="cls-32" points="744.05 163.13 709.85 141.35 689.85 145.85 689.85 145.85 655.65 165.07 655.65 211.81 688.99 233.69 708.99 227.19 744.05 209.99 744.05 163.13 744.05 163.13"/><polygon class="cls-31" points="829.68 584.05 849.68 588.55 815.48 610.32 795.48 605.82 829.68 584.05"/><polygon class="cls-26" points="795.48 652.69 795.48 605.83 815.48 610.32 815.48 657.19 795.48 652.69"/><polygon class="cls-24" points="830.54 669.88 795.48 652.69 815.48 657.19 850.54 676.38 830.54 669.88"/><polygon class="cls-30" points="849.68 588.55 883.88 607.77 883.88 654.5 850.54 676.38 815.48 657.19 815.48 610.33 849.68 588.55"/><polygon class="cls-32" points="849.68 588.55 883.88 607.77 883.88 654.5 850.54 676.38 815.48 657.19 815.48 610.33 849.68 588.55"/><g id="NNaDqx.tif-25" data-name="NNaDqx.tif"><path class="cls-5" d="M875.83,618.82a11.24,11.24,0,0,0-.87.82l-30.23,34.67c-.24.28-.5.54-.81.87l-18.94-18,7.9-8.89L844,638.53l24-27.66,7.91,7.72Z"/></g><polygon class="cls-32" points="795.48 605.82 829.68 584.05 849.68 588.55 849.68 588.55 883.88 607.77 883.88 654.5 850.54 676.38 830.54 669.88 795.48 652.69 795.48 605.82 795.48 605.82"/><polygon class="cls-30" points="552.35 485.56 534.53 521.04 553.59 558.86 593.27 564.13 616.05 528.48 593.89 486.95 552.35 485.56"/><path class="cls-24" d="M553.07,486.76l40.09,1.35,21.52,40.32-22,34.43-38.31-5.09L535.86,521l17.21-34.28m-.72-1.2L534.53,521l19.06,37.82,39.68,5.27,22.78-35.65L593.89,487l-41.54-1.39Z"/><polygon class="cls-31" points="564.7 482.77 552.35 485.56 593.85 486.9 606.73 483.12 564.7 482.77"/><polygon class="cls-26" points="606.73 483.12 626.78 521.12 616.05 528.48 593.85 486.9 606.73 483.12"/><polygon class="cls-24" points="593.27 564.13 605.28 554.71 626.78 521.12 616.05 528.48 593.27 564.13"/><path class="cls-32" d="M606.73,483.12l-42-.35-12.35,2.79h0L534.53,521l19.06,37.82,39.68,5.27,12-9.42,21.5-33.59Zm-54.37,2.44"/><g id="NNaDqx.tif-26" data-name="NNaDqx.tif"><path class="cls-5" d="M601,511c-.28.3-.58.56-.83.88L572,549.06c-.23.29-.47.57-.76.94l-21.71-20.78,7.39-9.54,12.66,11.85,22.35-29.69,9.08,8.88Z"/></g><polygon class="cls-31" points="643.23 644.07 663.23 648.57 629.03 670.34 609.03 665.84 643.23 644.07"/><polygon class="cls-26" points="609.03 712.71 609.03 665.84 629.03 670.34 629.03 717.21 609.03 712.71"/><polygon class="cls-24" points="644.09 729.9 609.03 712.71 629.03 717.21 664.09 736.4 644.09 729.9"/><polygon class="cls-30" points="663.23 648.57 697.43 667.79 697.43 714.52 664.09 736.4 629.03 717.21 629.03 670.34 663.23 648.57"/><polygon class="cls-32" points="663.23 648.57 697.43 667.79 697.43 714.52 664.09 736.4 629.03 717.21 629.03 670.34 663.23 648.57"/><g id="NNaDqx.tif-27" data-name="NNaDqx.tif"><path class="cls-5" d="M689.38,678.83c-.29.28-.61.53-.87.83Q673.39,697,658.29,714.33c-.24.27-.5.54-.82.87l-18.94-18,7.9-8.89,11.07,10.27,24-27.65,7.91,7.72Z"/></g><polygon class="cls-32" points="609.03 665.84 643.23 644.07 663.23 648.57 663.23 648.57 697.43 667.79 697.43 714.52 664.09 736.4 644.09 729.9 609.03 712.71 609.03 665.84 609.03 665.84"/><polygon class="cls-30" points="406.97 727.35 389.14 762.83 408.21 800.65 447.88 805.91 470.66 770.27 448.5 728.74 406.97 727.35"/><path class="cls-24" d="M407.68,728.55l40.1,1.35,21.51,40.32-22,34.42L409,799.56l-18.51-36.73,17.21-34.28m-.71-1.21-17.82,35.49,19.06,37.82,39.67,5.26,22.78-35.64L448.5,728.74,407,727.34Z"/><polygon class="cls-31" points="419.31 724.56 406.97 727.35 448.46 728.69 461.34 724.9 419.31 724.56"/><polygon class="cls-26" points="461.34 724.9 481.39 762.91 470.66 770.27 448.46 728.69 461.34 724.9"/><polygon class="cls-24" points="447.88 805.91 459.89 796.5 481.39 762.91 470.66 770.27 447.88 805.91"/><path class="cls-32" d="M461.34,724.9l-42-.34L407,727.34h0l-17.82,35.49,19.06,37.82,39.67,5.26,12-9.41,21.5-33.59ZM407,727.34"/><g id="NNaDqx.tif-28" data-name="NNaDqx.tif"><path class="cls-5" d="M455.66,752.76a11.64,11.64,0,0,0-.84.88l-28.2,37.2c-.22.3-.47.58-.76.94L404.15,771l7.39-9.54,12.66,11.84,22.35-29.68,9.08,8.88Z"/></g></g></svg>