<?xml version="1.0" encoding="UTF-8" standalone="no"?>
<svg
   xmlns:dc="http://purl.org/dc/elements/1.1/"
   xmlns:cc="http://creativecommons.org/ns#"
   xmlns:rdf="http://www.w3.org/1999/02/22-rdf-syntax-ns#"
   xmlns:svg="http://www.w3.org/2000/svg"
   xmlns="http://www.w3.org/2000/svg"
   viewBox="0 0 400 400"
   height="400"
   width="400"
   xml:space="preserve"
   id="svg2"
   version="1.1"><metadata
     id="metadata8"><rdf:RDF><cc:Work
         rdf:about=""><dc:format>image/svg+xml</dc:format><dc:type
           rdf:resource="http://purl.org/dc/dcmitype/StillImage" /></cc:Work></rdf:RDF></metadata><defs
     id="defs6"><clipPath
       id="clipPath18"
       clipPathUnits="userSpaceOnUse"><path
         id="path16"
         d="M 114.705,125.413 109.545,85.327 139.392,0 h 23.971 l 24.37,13.49 v 112.716 z" /></clipPath><linearGradient
       id="linearGradient28"
       spreadMethod="pad"
       gradientTransform="matrix(0,95,95,0,148.63887,22.5)"
       gradientUnits="userSpaceOnUse"
       y2="0"
       x2="1"
       y1="0"
       x1="0"><stop
         id="stop24"
         offset="0"
         style="stop-opacity:1;stop-color:#ffb47e" /><stop
         id="stop26"
         offset="1"
         style="stop-opacity:1;stop-color:#ff9f77" /></linearGradient><clipPath
       id="clipPath38"
       clipPathUnits="userSpaceOnUse"><path
         id="path36"
         d="M 0,300 H 300 V 0 H 0 Z" /></clipPath><clipPath
       id="clipPath50"
       clipPathUnits="userSpaceOnUse"><path
         id="path48"
         d="m 187.733,103.584 c 0,0 -0.795,-59.318 -37.904,-89.532 v 0 c -37.108,30.214 -37.902,89.532 -37.902,89.532 v 0 C 105.973,103.981 94.86,88.898 86.923,80.167 v 0 c -7.938,-8.731 -63.502,-25.4 -63.502,-25.4 v 0 V 0 h 252.817 v 54.767 c 0,0 -55.564,16.669 -63.501,25.4 v 0 c -7.836,8.618 -18.765,23.424 -24.771,23.424 v 0 c -0.078,0 -0.156,-0.002 -0.233,-0.007" /></clipPath><linearGradient
       id="linearGradient62"
       spreadMethod="pad"
       gradientTransform="matrix(252.8183,0,0,-252.8183,23.420391,43.855778)"
       gradientUnits="userSpaceOnUse"
       y2="0"
       x2="1"
       y1="0"
       x1="0"><stop
         id="stop56"
         offset="0"
         style="stop-opacity:1;stop-color:#003154" /><stop
         id="stop58"
         offset="0.999999"
         style="stop-opacity:1;stop-color:#001836" /><stop
         id="stop60"
         offset="1"
         style="stop-opacity:1;stop-color:#001836" /></linearGradient><clipPath
       id="clipPath72"
       clipPathUnits="userSpaceOnUse"><path
         id="path70"
         d="m 106.113,100.924 c -3.292,-9.93 -6.101,-23.868 -4.109,-39.808 v 0 c 3.969,-31.751 7.144,-46.039 7.144,-46.039 v 0 c 0,0 4.361,29.173 17.262,29.271 v 0 c -14.073,28.494 -14.483,59.236 -14.483,59.236 v 0 c -0.077,0.005 -0.155,0.007 -0.233,0.007 v 0 c -1.571,0 -3.48,-1.018 -5.581,-2.667" /></clipPath><linearGradient
       id="linearGradient82"
       spreadMethod="pad"
       gradientTransform="matrix(25.071491,0,0,-25.071491,101.33903,59.334427)"
       gradientUnits="userSpaceOnUse"
       y2="0"
       x2="1"
       y1="0"
       x1="0"><stop
         id="stop78"
         offset="0"
         style="stop-opacity:1;stop-color:#005481" /><stop
         id="stop80"
         offset="1"
         style="stop-opacity:1;stop-color:#003e64" /></linearGradient><clipPath
       id="clipPath92"
       clipPathUnits="userSpaceOnUse"><path
         id="path90"
         d="m 86.923,80.167 c -7.938,-8.731 -63.502,-25.4 -63.502,-25.4 v 0 V 0 h 81.684 c -2.741,14.506 -5.404,31.445 -6.672,47.622 v 0 c -1.745,22.24 3.937,41.601 9.412,54.539 v 0 C 101.694,98.249 93.289,87.169 86.923,80.167" /></clipPath><linearGradient
       id="linearGradient104"
       spreadMethod="pad"
       gradientTransform="matrix(121.75396,116.36662,116.36662,-121.75396,-6.4389777,-49.662846)"
       gradientUnits="userSpaceOnUse"
       y2="0"
       x2="1"
       y1="0"
       x1="0"><stop
         id="stop98"
         offset="0"
         style="stop-opacity:1;stop-color:#2b2b8b" /><stop
         id="stop100"
         offset="1"
         style="stop-opacity:1;stop-color:#000945" /><stop
         id="stop102"
         offset="1"
         style="stop-opacity:1;stop-color:#000945" /></linearGradient><clipPath
       id="clipPath114"
       clipPathUnits="userSpaceOnUse"><path
         id="path112"
         d="m 187.733,103.584 c 0,0 -0.411,-30.742 -14.484,-59.236 v 0 c 12.902,-0.098 17.262,-29.271 17.262,-29.271 v 0 c 0,0 3.174,14.288 7.143,46.039 v 0 c 1.994,15.94 -0.816,29.878 -4.108,39.808 v 0 c -2.1,1.649 -4.01,2.667 -5.58,2.667 v 0 c -0.079,0 -0.156,-0.002 -0.233,-0.007" /></clipPath><linearGradient
       id="linearGradient124"
       spreadMethod="pad"
       gradientTransform="matrix(25.071491,0,0,-25.071491,173.24855,59.334427)"
       gradientUnits="userSpaceOnUse"
       y2="0"
       x2="1"
       y1="0"
       x1="0"><stop
         id="stop120"
         offset="0"
         style="stop-opacity:1;stop-color:#005481" /><stop
         id="stop122"
         offset="1"
         style="stop-opacity:1;stop-color:#003e64" /></linearGradient><clipPath
       id="clipPath134"
       clipPathUnits="userSpaceOnUse"><path
         id="path132"
         d="M 200.83,47.622 C 199.561,31.445 196.897,14.506 194.157,0 v 0 h 82.081 v 54.767 c 0,0 -55.564,16.669 -63.501,25.4 v 0 c -6.553,7.208 -15.267,18.735 -21.459,22.319 v 0 c 5.518,-12.937 11.311,-32.437 9.552,-54.864" /></clipPath><linearGradient
       id="linearGradient146"
       spreadMethod="pad"
       gradientTransform="matrix(-116.90534,93.739769,93.739769,116.90534,292.74268,-27.984592)"
       gradientUnits="userSpaceOnUse"
       y2="0"
       x2="1"
       y1="0"
       x1="0"><stop
         id="stop140"
         offset="0"
         style="stop-opacity:1;stop-color:#2b2b8b" /><stop
         id="stop142"
         offset="1"
         style="stop-opacity:1;stop-color:#000945" /><stop
         id="stop144"
         offset="1"
         style="stop-opacity:1;stop-color:#000945" /></linearGradient><clipPath
       id="clipPath156"
       clipPathUnits="userSpaceOnUse"><path
         id="path154"
         d="M 0,300 H 300 V 0 H 0 Z" /></clipPath><clipPath
       id="clipPath168"
       clipPathUnits="userSpaceOnUse"><path
         id="path166"
         d="m 146.059,217.887 c -7.144,-0.794 -11.113,0 -23.814,1.588 v 0 c -12.7,1.588 -18.256,-57.152 -18.256,-57.152 v 0 c 0,2.381 -2.382,4.763 -2.382,4.763 v 0 c 0,0 -12.7,11.113 -9.525,-11.907 v 0 c 3.175,-23.019 11.907,-19.05 11.907,-19.05 v 0 c 7.144,-35.72 40.483,-55.565 50.008,-55.565 v 0 c 9.526,0 19.051,10.319 30.957,22.226 v 0 c 11.907,11.906 14.288,34.926 14.288,34.926 v 0 c 0,0 3.175,-2.381 7.143,2.382 v 0 c 4.313,5.174 6.352,28.575 1.589,30.163 v 0 c -4.763,1.588 -7.144,-7.144 -7.144,-7.144 v 0 c 0,11.113 -4.762,39.689 -10.319,53.976 v 0 c -2.011,5.172 -6.909,6.868 -12.878,6.868 v 0 c -10.521,0 -24.367,-5.273 -31.574,-6.074" /></clipPath><linearGradient
       id="linearGradient178"
       spreadMethod="pad"
       gradientTransform="matrix(0,133.18408,133.18408,0,151.1436,86)"
       gradientUnits="userSpaceOnUse"
       y2="0"
       x2="1"
       y1="0"
       x1="0"><stop
         id="stop174"
         offset="0"
         style="stop-opacity:1;stop-color:#ffb47e" /><stop
         id="stop176"
         offset="1"
         style="stop-opacity:1;stop-color:#ff9f77" /></linearGradient></defs><g
     transform="matrix(1.3333333,0,0,-1.3333333,0,400)"
     id="g10"><g
       id="g12"><g
         clip-path="url(#clipPath18)"
         id="g14"><g
           id="g20"><g
             id="g22"><path
               id="path30"
               style="fill:url(#linearGradient28);stroke:none"
               d="M 114.705,125.413 109.545,85.327 139.392,0 h 23.971 l 24.37,13.49 v 112.716 z" /></g></g></g></g><g
       id="g32"><g
         clip-path="url(#clipPath38)"
         id="g34"><g
           transform="translate(214.1328,65.4824)"
           id="g40"><path
             id="path42"
             style="fill:#ffffff;fill-opacity:1;fill-rule:nonzero;stroke:none"
             d="m 0,0 h -0.717 c 0.324,-1.042 0.511,-2.1 0.511,-3.175 0,-14.027 -28.402,-25.475 -64.097,-26.158 -35.695,0.683 -64.098,12.131 -64.098,26.158 0,1.075 0.187,2.133 0.511,3.175 h -0.716 c -26.956,-58.505 -46.628,-73.821 -46.628,-73.821 h 110.732 0.397 110.732 c 0,0 -19.672,15.316 -46.627,73.821" /></g></g></g><g
       id="g44"><g
         clip-path="url(#clipPath50)"
         id="g46"><g
           id="g52"><g
             id="g54"><path
               id="path64"
               style="fill:url(#linearGradient62);stroke:none"
               d="m 187.733,103.584 c 0,0 -0.795,-59.318 -37.904,-89.532 v 0 c -37.108,30.214 -37.902,89.532 -37.902,89.532 v 0 C 105.973,103.981 94.86,88.898 86.923,80.167 v 0 c -7.938,-8.731 -63.502,-25.4 -63.502,-25.4 v 0 V 0 h 252.817 v 54.767 c 0,0 -55.564,16.669 -63.501,25.4 v 0 c -7.836,8.618 -18.765,23.424 -24.771,23.424 v 0 c -0.078,0 -0.156,-0.002 -0.233,-0.007" /></g></g></g></g><g
       id="g66"><g
         clip-path="url(#clipPath72)"
         id="g68"><g
           id="g74"><g
             id="g76"><path
               id="path84"
               style="fill:url(#linearGradient82);stroke:none"
               d="m 106.113,100.924 c -3.292,-9.93 -6.101,-23.868 -4.109,-39.808 v 0 c 3.969,-31.751 7.144,-46.039 7.144,-46.039 v 0 c 0,0 4.361,29.173 17.262,29.271 v 0 c -14.073,28.494 -14.483,59.236 -14.483,59.236 v 0 c -0.077,0.005 -0.155,0.007 -0.233,0.007 v 0 c -1.571,0 -3.48,-1.018 -5.581,-2.667" /></g></g></g></g><g
       id="g86"><g
         clip-path="url(#clipPath92)"
         id="g88"><g
           id="g94"><g
             id="g96"><path
               id="path106"
               style="fill:url(#linearGradient104);stroke:none"
               d="m 86.923,80.167 c -7.938,-8.731 -63.502,-25.4 -63.502,-25.4 v 0 V 0 h 81.684 c -2.741,14.506 -5.404,31.445 -6.672,47.622 v 0 c -1.745,22.24 3.937,41.601 9.412,54.539 v 0 C 101.694,98.249 93.289,87.169 86.923,80.167" /></g></g></g></g><g
       id="g108"><g
         clip-path="url(#clipPath114)"
         id="g110"><g
           id="g116"><g
             id="g118"><path
               id="path126"
               style="fill:url(#linearGradient124);stroke:none"
               d="m 187.733,103.584 c 0,0 -0.411,-30.742 -14.484,-59.236 v 0 c 12.902,-0.098 17.262,-29.271 17.262,-29.271 v 0 c 0,0 3.174,14.288 7.143,46.039 v 0 c 1.994,15.94 -0.816,29.878 -4.108,39.808 v 0 c -2.1,1.649 -4.01,2.667 -5.58,2.667 v 0 c -0.079,0 -0.156,-0.002 -0.233,-0.007" /></g></g></g></g><g
       id="g128"><g
         clip-path="url(#clipPath134)"
         id="g130"><g
           id="g136"><g
             id="g138"><path
               id="path148"
               style="fill:url(#linearGradient146);stroke:none"
               d="M 200.83,47.622 C 199.561,31.445 196.897,14.506 194.157,0 v 0 h 82.081 v 54.767 c 0,0 -55.564,16.669 -63.501,25.4 v 0 c -6.553,7.208 -15.267,18.735 -21.459,22.319 v 0 c 5.518,-12.937 11.311,-32.437 9.552,-54.864" /></g></g></g></g><g
       id="g150"><g
         clip-path="url(#clipPath156)"
         id="g152"><g
           transform="translate(111.5298,234.1602)"
           id="g158"><path
             id="path160"
             style="fill:#0a131e;fill-opacity:1;fill-rule:nonzero;stroke:none"
             d="m 0,0 c 0,0 8.731,10.319 7.938,17.463 0,0 6.35,-3.969 5.556,-10.319 0,0 16.67,15.082 15.876,25.401 -0.794,10.319 15.082,-5.557 15.082,-20.638 0,0 2.381,17.463 -0.794,22.225 0,0 18.257,-7.144 23.019,-24.607 0,0 0.794,10.32 -1.588,13.495 0,0 16.67,-11.907 21.433,-31.751 0,0 8.731,-1.588 10.319,-24.607 1.587,-23.02 -1.588,-41.277 -1.588,-41.277 l -66.677,-11.113 -42.864,12.701 v 5.556 c 0,0 -5.557,41.276 3.175,53.183 C -2.381,-2.381 -1.587,-2.381 0,0" /></g></g></g><g
       id="g162"><g
         clip-path="url(#clipPath168)"
         id="g164"><g
           id="g170"><g
             id="g172"><path
               id="path180"
               style="fill:url(#linearGradient178);stroke:none"
               d="m 146.059,217.887 c -7.144,-0.794 -11.113,0 -23.814,1.588 v 0 c -12.7,1.588 -18.256,-57.152 -18.256,-57.152 v 0 c 0,2.381 -2.382,4.763 -2.382,4.763 v 0 c 0,0 -12.7,11.113 -9.525,-11.907 v 0 c 3.175,-23.019 11.907,-19.05 11.907,-19.05 v 0 c 7.144,-35.72 40.483,-55.565 50.008,-55.565 v 0 c 9.526,0 19.051,10.319 30.957,22.226 v 0 c 11.907,11.906 14.288,34.926 14.288,34.926 v 0 c 0,0 3.175,-2.381 7.143,2.382 v 0 c 4.313,5.174 6.352,28.575 1.589,30.163 v 0 c -4.763,1.588 -7.144,-7.144 -7.144,-7.144 v 0 c 0,11.113 -4.762,39.689 -10.319,53.976 v 0 c -2.011,5.172 -6.909,6.868 -12.878,6.868 v 0 c -10.521,0 -24.367,-5.273 -31.574,-6.074" /></g></g></g></g></g></svg>