<svg xmlns="http://www.w3.org/2000/svg" xmlns:xlink="http://www.w3.org/1999/xlink" viewBox="0 0 1365.97 1368.55"><defs><style>.cls-1{fill:url(#radial-gradient);}.cls-2{mask:url(#mask);}.cls-3{opacity:0.5;}.cls-20,.cls-21,.cls-24,.cls-34,.cls-39,.cls-4,.cls-40,.cls-42,.cls-43,.cls-47,.cls-49,.cls-52{fill:none;}.cls-4{stroke:#d5e5f6;stroke-width:3.39px;}.cls-20,.cls-21,.cls-32,.cls-37,.cls-4,.cls-40,.cls-42,.cls-43,.cls-49,.cls-57{stroke-miterlimit:10;}.cls-5{fill:#1e1f23;}.cls-6{fill:#78cc93;}.cls-7{fill:#89e8a7;}.cls-23,.cls-8{fill:#424242;}.cls-9{fill:#757575;}.cls-10{fill:#a5b1cc;}.cls-11{fill:#aebecf;}.cls-12{fill:#c9dbee;}.cls-13{fill:#ff3d22;}.cls-14{fill:#ff5722;}.cls-15,.cls-54{fill:#f1b58a;}.cls-16{fill:#e08748;}.cls-17{fill:#a34b2e;}.cls-18{fill:#bdbdbd;}.cls-19{fill:#eee;}.cls-20{stroke:#fff;}.cls-20,.cls-21{stroke-width:0.48px;}.cls-21{stroke:#bdbdbd;}.cls-22{fill:#d9d9d9;}.cls-23{stroke:#eee;stroke-width:1.45px;}.cls-23,.cls-24,.cls-34,.cls-39,.cls-40,.cls-49,.cls-52,.cls-53,.cls-54{stroke-linecap:round;}.cls-23,.cls-24,.cls-34,.cls-39,.cls-47,.cls-52,.cls-53,.cls-54{stroke-linejoin:round;}.cls-24,.cls-52,.cls-54{stroke:#e08748;}.cls-24,.cls-34{stroke-width:1.96px;}.cls-25{fill:#9c4c11;}.cls-26{fill:#febe1c;}.cls-27{fill:#242422;}.cls-28{fill:#40afff;}.cls-29,.cls-53{fill:#57c2ff;}.cls-30{fill:#fecf37;}.cls-31{fill:#6b340c;}.cls-32{fill:#faffe6;stroke:#c2776c;stroke-width:1.48px;}.cls-33{fill:#e1e6cf;}.cls-34{stroke:#6b340c;}.cls-35{fill:#0f3d63;}.cls-36{fill:#114774;}.cls-37,.cls-57{stroke:#8c8c8c;}.cls-37,.cls-39,.cls-40{stroke-width:1.56px;}.cls-38{fill:#4f4f4f;}.cls-39,.cls-40{stroke:#f1914d;}.cls-41{fill:#e3b319;}.cls-42{stroke:#b89114;}.cls-42,.cls-43{stroke-width:11.55px;}.cls-43{stroke:#feffd1;}.cls-44{fill:#c7ffd9;}.cls-45{fill:#93f0b0;}.cls-46{fill:#acf4c3;}.cls-47{stroke:#89e8a7;stroke-width:2.37px;}.cls-48,.cls-57{fill:#fff;}.cls-49{stroke:#febc37;stroke-width:3px;stroke-dasharray:5 10;}.cls-50{fill:#616161;}.cls-51{fill:#ff7d35;}.cls-52,.cls-54{stroke-width:2.09px;}.cls-53{stroke:#57c2ff;stroke-width:1.22px;}.cls-55{fill:#a81212;}.cls-56{fill:#735c4a;}.cls-57{stroke-width:1.57px;}</style><radialGradient id="radial-gradient" cx="-5245.7" cy="2951.71" r="1654.68" gradientTransform="translate(2390.28 473.72) scale(0.34 0.21)" gradientUnits="userSpaceOnUse"><stop offset="0" stop-color="#fff"/><stop offset="0.93"/></radialGradient><mask id="mask" x="39.08" y="394.01" width="1297.41" height="1010.09" maskUnits="userSpaceOnUse"><ellipse class="cls-1" cx="586.73" cy="1100.56" rx="498.97" ry="303.54"/></mask></defs><title>Boid_Common Cause</title><g id="Layer_2" data-name="Layer 2"><g class="cls-2"><g class="cls-3"><polygon class="cls-4" points="110.76 769.27 178.65 803.22 110.76 837.16 42.88 803.22 110.76 769.27"/><polygon class="cls-4" points="110.76 701.39 178.65 735.33 110.76 769.27 42.88 735.33 110.76 701.39"/><polygon class="cls-4" points="110.76 633.5 178.65 667.45 110.76 701.39 42.88 667.45 110.76 633.5"/><polygon class="cls-4" points="110.76 565.62 178.65 599.56 110.76 633.5 42.88 599.56 110.76 565.62"/><polygon class="cls-4" points="110.76 497.73 178.65 531.68 110.76 565.62 42.88 531.68 110.76 497.73"/><polygon class="cls-4" points="110.76 429.85 178.65 463.79 110.76 497.73 42.88 463.79 110.76 429.85"/><polygon class="cls-4" points="110.76 1244.47 178.65 1278.41 110.76 1312.36 42.88 1278.41 110.76 1244.47"/><polygon class="cls-4" points="110.76 1176.59 178.65 1210.53 110.76 1244.47 42.88 1210.53 110.76 1176.59"/><polygon class="cls-4" points="110.76 1108.7 178.65 1142.64 110.76 1176.59 42.88 1142.64 110.76 1108.7"/><polygon class="cls-4" points="110.76 1040.82 178.65 1074.76 110.76 1108.7 42.88 1074.76 110.76 1040.82"/><polygon class="cls-4" points="110.76 972.93 178.65 1006.87 110.76 1040.82 42.88 1006.87 110.76 972.93"/><polygon class="cls-4" points="110.76 905.04 178.65 938.99 110.76 972.93 42.88 938.99 110.76 905.04"/><polygon class="cls-4" points="110.76 837.16 178.65 871.1 110.76 905.04 42.88 871.1 110.76 837.16"/><polygon class="cls-4" points="178.65 803.22 246.53 837.16 178.65 871.1 110.76 837.16 178.65 803.22"/><polygon class="cls-4" points="178.65 735.33 246.53 769.27 178.65 803.22 110.76 769.27 178.65 735.33"/><polygon class="cls-4" points="178.65 667.45 246.53 701.39 178.65 735.33 110.76 701.39 178.65 667.45"/><polygon class="cls-4" points="178.65 599.56 246.53 633.5 178.65 667.45 110.76 633.5 178.65 599.56"/><polygon class="cls-4" points="178.65 531.68 246.53 565.62 178.65 599.56 110.76 565.62 178.65 531.68"/><polygon class="cls-4" points="178.65 463.79 246.53 497.73 178.65 531.68 110.76 497.73 178.65 463.79"/><polygon class="cls-4" points="178.65 395.91 246.53 429.85 178.65 463.79 110.76 429.85 178.65 395.91"/><polygon class="cls-4" points="178.65 1210.53 246.53 1244.47 178.65 1278.41 110.76 1244.47 178.65 1210.53"/><polygon class="cls-4" points="178.65 1142.64 246.53 1176.59 178.65 1210.53 110.76 1176.59 178.65 1142.64"/><polygon class="cls-4" points="178.65 1074.76 246.53 1108.7 178.65 1142.64 110.76 1108.7 178.65 1074.76"/><polygon class="cls-4" points="178.65 1006.87 246.53 1040.82 178.65 1074.76 110.76 1040.82 178.65 1006.87"/><polygon class="cls-4" points="178.65 938.99 246.53 972.93 178.65 1006.87 110.76 972.93 178.65 938.99"/><polygon class="cls-4" points="178.65 871.1 246.53 905.04 178.65 938.99 110.76 905.04 178.65 871.1"/><polygon class="cls-4" points="246.53 837.16 314.42 871.1 246.53 905.04 178.65 871.1 246.53 837.16"/><polygon class="cls-4" points="246.53 769.27 314.42 803.22 246.53 837.16 178.65 803.22 246.53 769.27"/><polygon class="cls-4" points="246.53 701.39 314.42 735.33 246.53 769.27 178.65 735.33 246.53 701.39"/><polygon class="cls-4" points="246.53 633.5 314.42 667.45 246.53 701.39 178.65 667.45 246.53 633.5"/><polygon class="cls-4" points="246.53 565.62 314.42 599.56 246.53 633.5 178.65 599.56 246.53 565.62"/><polygon class="cls-4" points="246.53 497.73 314.42 531.68 246.53 565.62 178.65 531.68 246.53 497.73"/><polygon class="cls-4" points="246.53 429.85 314.42 463.79 246.53 497.73 178.65 463.79 246.53 429.85"/><polygon class="cls-4" points="246.53 1244.47 314.42 1278.41 246.53 1312.36 178.65 1278.41 246.53 1244.47"/><polygon class="cls-4" points="246.53 1176.59 314.42 1210.53 246.53 1244.47 178.65 1210.53 246.53 1176.59"/><polygon class="cls-4" points="246.53 1108.7 314.42 1142.64 246.53 1176.59 178.65 1142.64 246.53 1108.7"/><polygon class="cls-4" points="246.53 1040.82 314.42 1074.76 246.53 1108.7 178.65 1074.76 246.53 1040.82"/><polygon class="cls-4" points="246.53 972.93 314.42 1006.87 246.53 1040.82 178.65 1006.87 246.53 972.93"/><polygon class="cls-4" points="246.53 905.04 314.42 938.99 246.53 972.93 178.65 938.99 246.53 905.04"/><polygon class="cls-4" points="314.42 871.1 382.3 905.04 314.42 938.99 246.53 905.04 314.42 871.1"/><polygon class="cls-4" points="314.42 803.22 382.3 837.16 314.42 871.1 246.53 837.16 314.42 803.22"/><polygon class="cls-4" points="314.42 735.33 382.3 769.27 314.42 803.22 246.53 769.27 314.42 735.33"/><polygon class="cls-4" points="314.42 667.45 382.3 701.39 314.42 735.33 246.53 701.39 314.42 667.45"/><polygon class="cls-4" points="314.42 599.56 382.3 633.5 314.42 667.45 246.53 633.5 314.42 599.56"/><polygon class="cls-4" points="314.42 531.68 382.3 565.62 314.42 599.56 246.53 565.62 314.42 531.68"/><polygon class="cls-4" points="314.42 463.79 382.3 497.73 314.42 531.68 246.53 497.73 314.42 463.79"/><polygon class="cls-4" points="314.42 395.91 382.3 429.85 314.42 463.79 246.53 429.85 314.42 395.91"/><polygon class="cls-4" points="314.42 1210.53 382.3 1244.47 314.42 1278.41 246.53 1244.47 314.42 1210.53"/><polygon class="cls-4" points="314.42 1142.64 382.3 1176.59 314.42 1210.53 246.53 1176.59 314.42 1142.64"/><polygon class="cls-4" points="314.42 1074.76 382.3 1108.7 314.42 1142.64 246.53 1108.7 314.42 1074.76"/><polygon class="cls-4" points="314.42 1006.87 382.3 1040.82 314.42 1074.76 246.53 1040.82 314.42 1006.87"/><polygon class="cls-4" points="314.42 938.99 382.3 972.93 314.42 1006.87 246.53 972.93 314.42 938.99"/><polygon class="cls-4" points="382.3 905.04 450.19 938.99 382.3 972.93 314.42 938.99 382.3 905.04"/><polygon class="cls-4" points="382.3 837.16 450.19 871.1 382.3 905.04 314.42 871.1 382.3 837.16"/><polygon class="cls-4" points="382.3 769.27 450.19 803.22 382.3 837.16 314.42 803.22 382.3 769.27"/><polygon class="cls-4" points="382.3 701.39 450.19 735.33 382.3 769.27 314.42 735.33 382.3 701.39"/><polygon class="cls-4" points="382.3 633.5 450.19 667.45 382.3 701.39 314.42 667.45 382.3 633.5"/><polygon class="cls-4" points="382.3 565.62 450.19 599.56 382.3 633.5 314.42 599.56 382.3 565.62"/><polygon class="cls-4" points="382.3 497.73 450.19 531.68 382.3 565.62 314.42 531.68 382.3 497.73"/><polygon class="cls-4" points="382.3 429.85 450.19 463.79 382.3 497.73 314.42 463.79 382.3 429.85"/><polygon class="cls-4" points="382.3 1244.47 450.19 1278.41 382.3 1312.36 314.42 1278.41 382.3 1244.47"/><polygon class="cls-4" points="382.3 1176.59 450.19 1210.53 382.3 1244.47 314.42 1210.53 382.3 1176.59"/><polygon class="cls-4" points="382.3 1108.7 450.19 1142.64 382.3 1176.59 314.42 1142.64 382.3 1108.7"/><polygon class="cls-4" points="382.3 1040.82 450.19 1074.76 382.3 1108.7 314.42 1074.76 382.3 1040.82"/><polygon class="cls-4" points="382.3 972.93 450.19 1006.87 382.3 1040.82 314.42 1006.87 382.3 972.93"/><polygon class="cls-4" points="450.19 938.99 518.07 972.93 450.19 1006.87 382.3 972.93 450.19 938.99"/><polygon class="cls-4" points="450.19 871.1 518.07 905.04 450.19 938.99 382.3 905.04 450.19 871.1"/><polygon class="cls-4" points="450.19 803.22 518.07 837.16 450.19 871.1 382.3 837.16 450.19 803.22"/><polygon class="cls-4" points="450.19 735.33 518.07 769.27 450.19 803.22 382.3 769.27 450.19 735.33"/><polygon class="cls-4" points="450.19 667.45 518.07 701.39 450.19 735.33 382.3 701.39 450.19 667.45"/><polygon class="cls-4" points="450.19 599.56 518.07 633.5 450.19 667.45 382.3 633.5 450.19 599.56"/><polygon class="cls-4" points="450.19 531.68 518.07 565.62 450.19 599.56 382.3 565.62 450.19 531.68"/><polygon class="cls-4" points="450.19 463.79 518.07 497.73 450.19 531.68 382.3 497.73 450.19 463.79"/><polygon class="cls-4" points="450.19 395.91 518.07 429.85 450.19 463.79 382.3 429.85 450.19 395.91"/><polygon class="cls-4" points="450.19 1210.53 518.07 1244.47 450.19 1278.41 382.3 1244.47 450.19 1210.53"/><polygon class="cls-4" points="450.19 1142.64 518.07 1176.59 450.19 1210.53 382.3 1176.59 450.19 1142.64"/><polygon class="cls-4" points="450.19 1074.76 518.07 1108.7 450.19 1142.64 382.3 1108.7 450.19 1074.76"/><polygon class="cls-4" points="450.19 1006.87 518.07 1040.82 450.19 1074.76 382.3 1040.82 450.19 1006.87"/><polygon class="cls-4" points="518.07 972.93 585.96 1006.87 518.07 1040.82 450.19 1006.87 518.07 972.93"/><polygon class="cls-4" points="518.07 905.04 585.96 938.99 518.07 972.93 450.19 938.99 518.07 905.04"/><polygon class="cls-4" points="518.07 837.16 585.96 871.1 518.07 905.04 450.19 871.1 518.07 837.16"/><polygon class="cls-4" points="518.07 769.27 585.96 803.22 518.07 837.16 450.19 803.22 518.07 769.27"/><polygon class="cls-4" points="518.07 701.39 585.96 735.33 518.07 769.27 450.19 735.33 518.07 701.39"/><polygon class="cls-4" points="518.07 633.5 585.96 667.45 518.07 701.39 450.19 667.45 518.07 633.5"/><polygon class="cls-4" points="518.07 565.62 585.96 599.56 518.07 633.5 450.19 599.56 518.07 565.62"/><polygon class="cls-4" points="518.07 497.73 585.96 531.68 518.07 565.62 450.19 531.68 518.07 497.73"/><polygon class="cls-4" points="518.07 429.85 585.96 463.79 518.07 497.73 450.19 463.79 518.07 429.85"/><polygon class="cls-4" points="518.07 1244.47 585.96 1278.41 518.07 1312.36 450.19 1278.41 518.07 1244.47"/><polygon class="cls-4" points="518.07 1176.59 585.96 1210.53 518.07 1244.47 450.19 1210.53 518.07 1176.59"/><polygon class="cls-4" points="518.07 1108.7 585.96 1142.64 518.07 1176.59 450.19 1142.64 518.07 1108.7"/><polygon class="cls-4" points="518.07 1040.82 585.96 1074.76 518.07 1108.7 450.19 1074.76 518.07 1040.82"/><polygon class="cls-4" points="585.96 1006.87 653.84 1040.82 585.96 1074.76 518.07 1040.82 585.96 1006.87"/><polygon class="cls-4" points="585.96 938.99 653.84 972.93 585.96 1006.87 518.07 972.93 585.96 938.99"/><polygon class="cls-4" points="585.96 871.1 653.84 905.04 585.96 938.99 518.07 905.04 585.96 871.1"/><polygon class="cls-4" points="585.96 803.22 653.84 837.16 585.96 871.1 518.07 837.16 585.96 803.22"/><polygon class="cls-4" points="585.96 735.33 653.84 769.27 585.96 803.22 518.07 769.27 585.96 735.33"/><polygon class="cls-4" points="585.96 667.45 653.84 701.39 585.96 735.33 518.07 701.39 585.96 667.45"/><polygon class="cls-4" points="585.96 599.56 653.84 633.5 585.96 667.45 518.07 633.5 585.96 599.56"/><polygon class="cls-4" points="585.96 531.68 653.84 565.62 585.96 599.56 518.07 565.62 585.96 531.68"/><polygon class="cls-4" points="585.96 463.79 653.84 497.73 585.96 531.68 518.07 497.73 585.96 463.79"/><polygon class="cls-4" points="585.96 395.91 653.84 429.85 585.96 463.79 518.07 429.85 585.96 395.91"/><polygon class="cls-4" points="585.96 1210.53 653.84 1244.47 585.96 1278.41 518.07 1244.47 585.96 1210.53"/><polygon class="cls-4" points="585.96 1142.64 653.84 1176.59 585.96 1210.53 518.07 1176.59 585.96 1142.64"/><polygon class="cls-4" points="585.96 1074.76 653.84 1108.7 585.96 1142.64 518.07 1108.7 585.96 1074.76"/><polygon class="cls-4" points="653.84 1040.82 721.73 1074.76 653.84 1108.7 585.96 1074.76 653.84 1040.82"/><polygon class="cls-4" points="653.84 972.93 721.73 1006.87 653.84 1040.82 585.96 1006.87 653.84 972.93"/><polygon class="cls-4" points="653.84 905.04 721.73 938.99 653.84 972.93 585.96 938.99 653.84 905.04"/><polygon class="cls-4" points="653.84 837.16 721.73 871.1 653.84 905.04 585.96 871.1 653.84 837.16"/><polygon class="cls-4" points="653.84 769.27 721.73 803.22 653.84 837.16 585.96 803.22 653.84 769.27"/><polygon class="cls-4" points="653.84 701.39 721.73 735.33 653.84 769.27 585.96 735.33 653.84 701.39"/><polygon class="cls-4" points="653.84 633.5 721.73 667.45 653.84 701.39 585.96 667.45 653.84 633.5"/><polygon class="cls-4" points="653.84 565.62 721.73 599.56 653.84 633.5 585.96 599.56 653.84 565.62"/><polygon class="cls-4" points="653.84 497.73 721.73 531.68 653.84 565.62 585.96 531.68 653.84 497.73"/><polygon class="cls-4" points="653.84 429.85 721.73 463.79 653.84 497.73 585.96 463.79 653.84 429.85"/><polygon class="cls-4" points="653.84 1244.47 721.73 1278.41 653.84 1312.36 585.96 1278.41 653.84 1244.47"/><polygon class="cls-4" points="653.84 1176.59 721.73 1210.53 653.84 1244.47 585.96 1210.53 653.84 1176.59"/><polygon class="cls-4" points="653.84 1108.7 721.73 1142.64 653.84 1176.59 585.96 1142.64 653.84 1108.7"/><polygon class="cls-4" points="721.73 395.91 789.62 429.85 721.73 463.79 653.84 429.85 721.73 395.91"/><polygon class="cls-4" points="721.73 1074.76 789.62 1108.7 721.73 1142.64 653.84 1108.7 721.73 1074.76"/><polygon class="cls-4" points="721.73 1006.87 789.62 1040.82 721.73 1074.76 653.84 1040.82 721.73 1006.87"/><polygon class="cls-4" points="721.73 938.99 789.62 972.93 721.73 1006.87 653.84 972.93 721.73 938.99"/><polygon class="cls-4" points="721.73 871.1 789.62 905.04 721.73 938.99 653.84 905.04 721.73 871.1"/><polygon class="cls-4" points="721.73 803.22 789.62 837.16 721.73 871.1 653.84 837.16 721.73 803.22"/><polygon class="cls-4" points="721.73 735.33 789.62 769.27 721.73 803.22 653.84 769.27 721.73 735.33"/><polygon class="cls-4" points="721.73 667.45 789.62 701.39 721.73 735.33 653.84 701.39 721.73 667.45"/><polygon class="cls-4" points="721.73 599.56 789.62 633.5 721.73 667.45 653.84 633.5 721.73 599.56"/><polygon class="cls-4" points="721.73 531.68 789.62 565.62 721.73 599.56 653.84 565.62 721.73 531.68"/><polygon class="cls-4" points="721.73 463.79 789.62 497.73 721.73 531.68 653.84 497.73 721.73 463.79"/><polygon class="cls-4" points="721.73 1210.53 789.62 1244.47 721.73 1278.41 653.84 1244.47 721.73 1210.53"/><polygon class="cls-4" points="721.73 1142.64 789.62 1176.59 721.73 1210.53 653.84 1176.59 721.73 1142.64"/><polygon class="cls-4" points="789.62 429.85 857.5 463.79 789.62 497.73 721.73 463.79 789.62 429.85"/><polygon class="cls-4" points="789.62 1108.7 857.5 1142.64 789.62 1176.59 721.73 1142.64 789.62 1108.7"/><polygon class="cls-4" points="789.62 1040.82 857.5 1074.76 789.62 1108.7 721.73 1074.76 789.62 1040.82"/><polygon class="cls-4" points="789.62 972.93 857.5 1006.87 789.62 1040.82 721.73 1006.87 789.62 972.93"/><polygon class="cls-4" points="789.62 905.04 857.5 938.99 789.62 972.93 721.73 938.99 789.62 905.04"/><polygon class="cls-4" points="789.62 837.16 857.5 871.1 789.62 905.04 721.73 871.1 789.62 837.16"/><polygon class="cls-4" points="789.62 769.27 857.5 803.22 789.62 837.16 721.73 803.22 789.62 769.27"/><polygon class="cls-4" points="789.62 701.39 857.5 735.33 789.62 769.27 721.73 735.33 789.62 701.39"/><polygon class="cls-4" points="789.62 633.5 857.5 667.45 789.62 701.39 721.73 667.45 789.62 633.5"/><polygon class="cls-4" points="789.62 565.62 857.5 599.56 789.62 633.5 721.73 599.56 789.62 565.62"/><polygon class="cls-4" points="789.62 497.73 857.5 531.68 789.62 565.62 721.73 531.68 789.62 497.73"/><polygon class="cls-4" points="789.62 1244.47 857.5 1278.41 789.62 1312.36 721.73 1278.41 789.62 1244.47"/><polygon class="cls-4" points="789.62 1176.59 857.5 1210.53 789.62 1244.47 721.73 1210.53 789.62 1176.59"/><polygon class="cls-4" points="857.5 463.79 925.38 497.73 857.5 531.68 789.62 497.73 857.5 463.79"/><polygon class="cls-4" points="857.5 395.91 925.38 429.85 857.5 463.79 789.62 429.85 857.5 395.91"/><polygon class="cls-4" points="857.5 1142.64 925.38 1176.59 857.5 1210.53 789.62 1176.59 857.5 1142.64"/><polygon class="cls-4" points="857.5 1074.76 925.38 1108.7 857.5 1142.64 789.62 1108.7 857.5 1074.76"/><polygon class="cls-4" points="857.5 1006.87 925.38 1040.82 857.5 1074.76 789.62 1040.82 857.5 1006.87"/><polygon class="cls-4" points="857.5 938.99 925.38 972.93 857.5 1006.87 789.62 972.93 857.5 938.99"/><polygon class="cls-4" points="857.5 871.1 925.38 905.04 857.5 938.99 789.62 905.04 857.5 871.1"/><polygon class="cls-4" points="857.5 803.22 925.38 837.16 857.5 871.1 789.62 837.16 857.5 803.22"/><polygon class="cls-4" points="857.5 735.33 925.38 769.27 857.5 803.22 789.62 769.27 857.5 735.33"/><polygon class="cls-4" points="857.5 667.45 925.38 701.39 857.5 735.33 789.62 701.39 857.5 667.45"/><polygon class="cls-4" points="857.5 599.56 925.38 633.5 857.5 667.45 789.62 633.5 857.5 599.56"/><polygon class="cls-4" points="857.5 531.68 925.38 565.62 857.5 599.56 789.62 565.62 857.5 531.68"/><polygon class="cls-4" points="857.5 1210.53 925.38 1244.47 857.5 1278.41 789.62 1244.47 857.5 1210.53"/><polygon class="cls-4" points="925.38 497.73 993.27 531.68 925.38 565.62 857.5 531.68 925.38 497.73"/><polygon class="cls-4" points="925.38 429.85 993.27 463.79 925.38 497.73 857.5 463.79 925.38 429.85"/><polygon class="cls-4" points="925.38 1176.59 993.27 1210.53 925.38 1244.47 857.5 1210.53 925.38 1176.59"/><polygon class="cls-4" points="925.38 1108.7 993.27 1142.64 925.38 1176.59 857.5 1142.64 925.38 1108.7"/><polygon class="cls-4" points="925.38 1040.82 993.27 1074.76 925.38 1108.7 857.5 1074.76 925.38 1040.82"/><polygon class="cls-4" points="925.38 972.93 993.27 1006.87 925.38 1040.82 857.5 1006.87 925.38 972.93"/><polygon class="cls-4" points="925.38 905.04 993.27 938.99 925.38 972.93 857.5 938.99 925.38 905.04"/><polygon class="cls-4" points="925.38 837.16 993.27 871.1 925.38 905.04 857.5 871.1 925.38 837.16"/><polygon class="cls-4" points="925.38 769.27 993.27 803.22 925.38 837.16 857.5 803.22 925.38 769.27"/><polygon class="cls-4" points="925.38 701.39 993.27 735.33 925.38 769.27 857.5 735.33 925.38 701.39"/><polygon class="cls-4" points="925.38 633.5 993.27 667.45 925.38 701.39 857.5 667.45 925.38 633.5"/><polygon class="cls-4" points="925.38 565.62 993.27 599.56 925.38 633.5 857.5 599.56 925.38 565.62"/><polygon class="cls-4" points="925.38 1244.47 993.27 1278.41 925.38 1312.36 857.5 1278.41 925.38 1244.47"/><polygon class="cls-4" points="993.27 531.68 1061.16 565.62 993.27 599.56 925.38 565.62 993.27 531.68"/><polygon class="cls-4" points="993.27 463.79 1061.16 497.73 993.27 531.68 925.38 497.73 993.27 463.79"/><polygon class="cls-4" points="993.27 395.91 1061.16 429.85 993.27 463.79 925.38 429.85 993.27 395.91"/><polygon class="cls-4" points="993.27 1210.53 1061.16 1244.47 993.27 1278.41 925.38 1244.47 993.27 1210.53"/><polygon class="cls-4" points="993.27 1142.64 1061.16 1176.59 993.27 1210.53 925.38 1176.59 993.27 1142.64"/><polygon class="cls-4" points="993.27 1074.76 1061.16 1108.7 993.27 1142.64 925.38 1108.7 993.27 1074.76"/><polygon class="cls-4" points="993.27 1006.87 1061.16 1040.82 993.27 1074.76 925.38 1040.82 993.27 1006.87"/><polygon class="cls-4" points="993.27 938.99 1061.16 972.93 993.27 1006.87 925.38 972.93 993.27 938.99"/><polygon class="cls-4" points="993.27 871.1 1061.16 905.04 993.27 938.99 925.38 905.04 993.27 871.1"/><polygon class="cls-4" points="993.27 803.22 1061.16 837.16 993.27 871.1 925.38 837.16 993.27 803.22"/><polygon class="cls-4" points="993.27 735.33 1061.16 769.27 993.27 803.22 925.38 769.27 993.27 735.33"/><polygon class="cls-4" points="993.27 667.45 1061.16 701.39 993.27 735.33 925.38 701.39 993.27 667.45"/><polygon class="cls-4" points="993.27 599.56 1061.16 633.5 993.27 667.45 925.38 633.5 993.27 599.56"/><polygon class="cls-4" points="1061.16 565.62 1129.04 599.56 1061.16 633.5 993.27 599.56 1061.16 565.62"/><polygon class="cls-4" points="1061.16 497.73 1129.04 531.68 1061.16 565.62 993.27 531.68 1061.16 497.73"/><polygon class="cls-4" points="1061.16 429.85 1129.04 463.79 1061.16 497.73 993.27 463.79 1061.16 429.85"/><polygon class="cls-4" points="1061.16 1244.47 1129.04 1278.41 1061.16 1312.36 993.27 1278.41 1061.16 1244.47"/><polygon class="cls-4" points="1061.16 1176.59 1129.04 1210.53 1061.16 1244.47 993.27 1210.53 1061.16 1176.59"/><polygon class="cls-4" points="1061.16 1108.7 1129.04 1142.64 1061.16 1176.59 993.27 1142.64 1061.16 1108.7"/><polygon class="cls-4" points="1061.16 1040.82 1129.04 1074.76 1061.16 1108.7 993.27 1074.76 1061.16 1040.82"/><polygon class="cls-4" points="1061.16 972.93 1129.04 1006.87 1061.16 1040.82 993.27 1006.87 1061.16 972.93"/><polygon class="cls-4" points="1061.16 905.04 1129.04 938.99 1061.16 972.93 993.27 938.99 1061.16 905.04"/><polygon class="cls-4" points="1061.16 837.16 1129.04 871.1 1061.16 905.04 993.27 871.1 1061.16 837.16"/><polygon class="cls-4" points="1061.16 769.27 1129.04 803.22 1061.16 837.16 993.27 803.22 1061.16 769.27"/><polygon class="cls-4" points="1061.16 701.39 1129.04 735.33 1061.16 769.27 993.27 735.33 1061.16 701.39"/><polygon class="cls-4" points="1061.16 633.5 1129.04 667.45 1061.16 701.39 993.27 667.45 1061.16 633.5"/><polygon class="cls-4" points="1129.04 599.56 1196.93 633.5 1129.04 667.45 1061.16 633.5 1129.04 599.56"/><polygon class="cls-4" points="1129.04 531.68 1196.93 565.62 1129.04 599.56 1061.16 565.62 1129.04 531.68"/><polygon class="cls-4" points="1129.04 463.79 1196.93 497.73 1129.04 531.68 1061.16 497.73 1129.04 463.79"/><polygon class="cls-4" points="1129.04 395.91 1196.93 429.85 1129.04 463.79 1061.16 429.85 1129.04 395.91"/><polygon class="cls-4" points="1129.04 1210.53 1196.93 1244.47 1129.04 1278.41 1061.16 1244.47 1129.04 1210.53"/><polygon class="cls-4" points="1129.04 1142.64 1196.93 1176.59 1129.04 1210.53 1061.16 1176.59 1129.04 1142.64"/><polygon class="cls-4" points="1129.04 1074.76 1196.93 1108.7 1129.04 1142.64 1061.16 1108.7 1129.04 1074.76"/><polygon class="cls-4" points="1129.04 1006.87 1196.93 1040.82 1129.04 1074.76 1061.16 1040.82 1129.04 1006.87"/><polygon class="cls-4" points="1129.04 938.99 1196.93 972.93 1129.04 1006.87 1061.16 972.93 1129.04 938.99"/><polygon class="cls-4" points="1129.04 871.1 1196.93 905.04 1129.04 938.99 1061.16 905.04 1129.04 871.1"/><polygon class="cls-4" points="1129.04 803.22 1196.93 837.16 1129.04 871.1 1061.16 837.16 1129.04 803.22"/><polygon class="cls-4" points="1129.04 735.33 1196.93 769.27 1129.04 803.22 1061.16 769.27 1129.04 735.33"/><polygon class="cls-4" points="1129.04 667.45 1196.93 701.39 1129.04 735.33 1061.16 701.39 1129.04 667.45"/><polygon class="cls-4" points="1196.93 633.5 1264.81 667.45 1196.93 701.39 1129.04 667.45 1196.93 633.5"/><polygon class="cls-4" points="1196.93 565.62 1264.81 599.56 1196.93 633.5 1129.04 599.56 1196.93 565.62"/><polygon class="cls-4" points="1196.93 497.73 1264.81 531.68 1196.93 565.62 1129.04 531.68 1196.93 497.73"/><polygon class="cls-4" points="1196.93 429.85 1264.81 463.79 1196.93 497.73 1129.04 463.79 1196.93 429.85"/><polygon class="cls-4" points="1196.93 1244.47 1264.81 1278.41 1196.93 1312.36 1129.04 1278.41 1196.93 1244.47"/><polygon class="cls-4" points="1196.93 1176.59 1264.81 1210.53 1196.93 1244.47 1129.04 1210.53 1196.93 1176.59"/><polygon class="cls-4" points="1196.93 1108.7 1264.81 1142.64 1196.93 1176.59 1129.04 1142.64 1196.93 1108.7"/><polygon class="cls-4" points="1196.93 1040.82 1264.81 1074.76 1196.93 1108.7 1129.04 1074.76 1196.93 1040.82"/><polygon class="cls-4" points="1196.93 972.93 1264.81 1006.87 1196.93 1040.82 1129.04 1006.87 1196.93 972.93"/><polygon class="cls-4" points="1196.93 905.04 1264.81 938.99 1196.93 972.93 1129.04 938.99 1196.93 905.04"/><polygon class="cls-4" points="1196.93 837.16 1264.81 871.1 1196.93 905.04 1129.04 871.1 1196.93 837.16"/><polygon class="cls-4" points="1196.93 769.27 1264.81 803.22 1196.93 837.16 1129.04 803.22 1196.93 769.27"/><polygon class="cls-4" points="1196.93 701.39 1264.81 735.33 1196.93 769.27 1129.04 735.33 1196.93 701.39"/><polygon class="cls-4" points="1264.81 667.45 1332.7 701.39 1264.81 735.33 1196.93 701.39 1264.81 667.45"/><polygon class="cls-4" points="1264.81 599.56 1332.7 633.5 1264.81 667.45 1196.93 633.5 1264.81 599.56"/><polygon class="cls-4" points="1264.81 531.68 1332.7 565.62 1264.81 599.56 1196.93 565.62 1264.81 531.68"/><polygon class="cls-4" points="1264.81 463.79 1332.7 497.73 1264.81 531.68 1196.93 497.73 1264.81 463.79"/><polygon class="cls-4" points="1264.81 395.91 1332.7 429.85 1264.81 463.79 1196.93 429.85 1264.81 395.91"/><polygon class="cls-4" points="1264.81 1210.53 1332.7 1244.47 1264.81 1278.41 1196.93 1244.47 1264.81 1210.53"/><polygon class="cls-4" points="1264.81 1142.64 1332.7 1176.59 1264.81 1210.53 1196.93 1176.59 1264.81 1142.64"/><polygon class="cls-4" points="1264.81 1074.76 1332.7 1108.7 1264.81 1142.64 1196.93 1108.7 1264.81 1074.76"/><polygon class="cls-4" points="1264.81 1006.87 1332.7 1040.82 1264.81 1074.76 1196.93 1040.82 1264.81 1006.87"/><polygon class="cls-4" points="1264.81 938.99 1332.7 972.93 1264.81 1006.87 1196.93 972.93 1264.81 938.99"/><polygon class="cls-4" points="1264.81 871.1 1332.7 905.04 1264.81 938.99 1196.93 905.04 1264.81 871.1"/><polygon class="cls-4" points="1264.81 803.22 1332.7 837.16 1264.81 871.1 1196.93 837.16 1264.81 803.22"/><polygon class="cls-4" points="1264.81 735.33 1332.7 769.27 1264.81 803.22 1196.93 769.27 1264.81 735.33"/></g></g><rect class="cls-5" x="420.56" y="295.77" width="215.42" height="15.66"/><path class="cls-6" d="M635,296.72v13.75H421.52V296.72H635m1.91-1.91H419.6v17.57H636.93V294.81Z"/><rect class="cls-7" x="421.52" y="296.72" width="73.67" height="13.74"/><polygon class="cls-8" points="536.73 1110.62 536.73 1118.55 473.56 1150.14 473.56 1142.21 536.73 1110.62"/><polygon class="cls-9" points="523.46 1142.21 498.51 1129.67 498.51 1137.6 523.46 1150.14 523.46 1142.21"/><polygon class="cls-9" points="473.56 1142.21 473.56 1150.14 460.29 1143.51 460.29 1135.57 473.56 1142.21"/><polygon class="cls-9" points="460.29 1110.62 460.29 1118.55 489.11 1132.96 489.11 1125.03 460.29 1110.62"/><polygon class="cls-10" points="536.73 1110.62 523.46 1103.99 460.29 1135.57 473.56 1142.21 536.73 1110.62"/><polygon class="cls-8" points="523.46 1142.21 523.46 1150.14 536.73 1143.51 536.73 1135.57 523.46 1142.21"/><polygon class="cls-10" points="460.29 1110.62 473.56 1103.99 536.73 1135.57 523.46 1142.21 460.29 1110.62"/><polygon class="cls-9" points="498.17 1129.38 487.96 1124.28 487.96 986.98 498.17 992.09 498.17 1129.38"/><polygon class="cls-8" points="498.17 1129.38 508.38 1124.28 508.38 986.98 498.17 992.09 498.17 1129.38"/><path class="cls-5" d="M483.37,932.31,373.74,987.12a15.82,15.82,0,0,0-8.74,14.15h0a15.82,15.82,0,0,0,8.74,14.15l106.19,53.09a15.78,15.78,0,0,0,14.14,0l109.64-54.81a15.82,15.82,0,0,0,8.74-14.15h0a15.82,15.82,0,0,0-8.74-14.15L497.52,932.31A15.8,15.8,0,0,0,483.37,932.31Z"/><path class="cls-5" d="M484,741.46s9,8.43,9,14.62V917.8a16.35,16.35,0,0,1-9,14.63L378.37,985.26a16.35,16.35,0,0,1-14.62,0h0a16.35,16.35,0,0,1-9-14.63V808.91a16.36,16.36,0,0,1,9-14.63L469.4,741.46A16.37,16.37,0,0,1,484,741.46Z"/><path class="cls-5" d="M598.05,1135.21a42.55,42.55,0,0,0,10.32,18.44c8.12,8.35,28,31,17,38.35s-54.77-13.19-62.64-31.39c5.24-19,3.63-27.62,3.63-27.62Z"/><path class="cls-5" d="M540.52,1170.61s5.41,24.09,7.37,34.42,7.38,46.22-9.83,45.73-29-23.11-30.49-43,2.46-37.13,4.92-37.13Z"/><path class="cls-11" d="M518.3,932s62.05,39,68,54.23,9.83,21.15,8.85,35.9-2.46,95.39,2.46,108.18a10.55,10.55,0,0,1,2.58,6.54c0,3.78-32.46,11.16-35.53-1.62-6.27-26.1-8.85-76.22-8.85-76.22s.93-28.14-8.36-34.42c-16.72-11.31-49.66-40.82-71.3-67.86C484.46,920.32,518.3,932,518.3,932Z"/><path class="cls-12" d="M395.75,937.41s-3,44.25,6.63,58.27,98.18,52.74,98.18,52.74,6.64,17.33,4.43,22.86-5.53,84.09,3.32,105.48,32.82,10.32,35.4-1.48c1.11-26.18,4.43-72.65,5.17-83.72s13.64-47.2-.37-67.85-72.41-67-72.41-67Z"/><path class="cls-13" d="M489.13,777.52s6.27.57,11.8,13.48,15.12,93.67,15.12,93.67l28,55.69s-13.28,21.39-28,10-31.34-60-31.34-60L472.9,806.47S472.17,779.9,489.13,777.52Z"/><path class="cls-14" d="M391.4,804.27s35-26.18,46.84-26.92,45.73-1.14,50.89.17c3.69,31.55,16.85,46.35,18.44,60,1.72,14.75-12.54,31-12.54,31s-1.47,36.88,3.32,41.31S517.84,927.93,518.3,932c2.06,18.34-96.29,58.9-122.47,23.5-1.11-39.83,3.68-45,5.53-57.53S381.81,830.09,391.4,804.27Z"/><path class="cls-15" d="M463.18,772.31s5.3,30.49-5.4,33.81-26.92-18.07-26.18-24.34l-6.8-41.18Z"/><path class="cls-16" d="M428.55,743.7l34.63,28.61a97.48,97.48,0,0,1,1.19,19.48C449.15,786.31,431.43,770.84,428.55,743.7Z"/><path class="cls-15" d="M405.38,692.7a25.21,25.21,0,0,1,17.61-22c10.83-3.39,27.4-6.81,39.49-1.29,27,12.36,32.94,27.54,36,53.49,0,0,4.56,40-9.08,47.93s-47.51,7.19-66.82-23.85C409.66,726.26,404.22,707.2,405.38,692.7Z"/><path class="cls-17" d="M462.22,660.78c3.08-.44,30.54,17.75,33.81,37.55-25.15-21.68-36.69-23.48-36.69-23.48s10.94,36.29-16.68,52.53-35.29-3.57-35.29-3.57S391.17,677,416.91,668,462.22,660.78,462.22,660.78Z"/><path class="cls-17" d="M438.51,724.08s-5.95,38.72-19.2,36.14c-8.09-10-6.67-33.58-4-46.1S438.51,724.08,438.51,724.08Z"/><path class="cls-17" d="M409.84,688s-14.27-13.21-29-.92-2.43,39.66,5.77,53.16,27.45,56.09,18.33,65c16-17.85,11.93-37.81,3.89-55.77s-10.2-33.38,2.77-40.94S409.84,688,409.84,688Z"/><ellipse class="cls-15" cx="431.41" cy="735.87" rx="10.73" ry="15.36" transform="matrix(0.95, -0.3, 0.3, 0.95, -200.24, 162.6)"/><polygon class="cls-9" points="491.8 1032.13 624.63 965.71 624.63 959.43 491.8 1025.84 491.8 1032.13"/><polygon class="cls-18" points="491.8 1032.13 416.88 994.67 416.88 988.39 491.8 1025.84 491.8 1032.13"/><polygon class="cls-19" points="624.63 959.43 549.72 921.97 416.88 988.39 491.8 1025.84 624.63 959.43"/><polyline class="cls-20" points="520 944.93 534.71 952.29 473.66 982.81"/><polyline class="cls-21" points="473.66 982.81 458.95 975.46 520 944.93"/><polygon class="cls-22" points="450.49 1002.12 461.34 996.7 499.22 1015.63 488.37 1021.06 450.49 1002.12"/><polygon class="cls-22" points="566.33 944.2 577.18 938.77 615.06 957.71 604.21 963.14 566.33 944.2"/><polygon class="cls-23" points="496.69 988.49 486.05 993.81 495.52 998.54 506.16 993.22 496.69 988.49"/><polygon class="cls-23" points="495.52 998.54 504.99 1003.28 515.63 997.96 506.16 993.22 495.52 998.54"/><polygon class="cls-23" points="506.16 993.22 515.63 997.96 526.28 992.63 516.81 987.9 506.16 993.22"/><polygon class="cls-23" points="527.45 982.58 536.92 987.31 547.57 981.99 538.1 977.26 527.45 982.58"/><polygon class="cls-23" points="548.74 971.93 558.21 976.67 568.86 971.35 559.39 966.61 548.74 971.93"/><polygon class="cls-23" points="538.1 977.26 547.57 981.99 558.21 976.67 548.74 971.93 538.1 977.26"/><polygon class="cls-23" points="548.74 971.93 539.27 967.2 528.63 972.52 538.1 977.26 548.74 971.93"/><polygon class="cls-23" points="559.39 966.61 549.92 961.88 539.27 967.2 548.74 971.93 559.39 966.61"/><polygon class="cls-23" points="570.03 961.29 560.56 956.55 549.92 961.88 559.39 966.61 570.03 961.29"/><polygon class="cls-23" points="559.39 966.61 568.86 971.35 579.5 966.02 570.03 961.29 559.39 966.61"/><polygon class="cls-23" points="516.81 987.9 507.34 983.16 496.69 988.49 506.16 993.22 516.81 987.9"/><polygon class="cls-23" points="527.45 982.58 517.98 977.84 507.34 983.16 516.81 987.9 527.45 982.58"/><polygon class="cls-23" points="538.1 977.26 528.63 972.52 517.98 977.84 527.45 982.58 538.1 977.26"/><polygon class="cls-23" points="516.81 987.9 526.28 992.63 536.92 987.31 527.45 982.58 516.81 987.9"/><polygon class="cls-23" points="476.58 989.08 465.94 994.4 475.4 999.13 486.05 993.81 476.58 989.08"/><polygon class="cls-23" points="486.05 993.81 475.4 999.13 484.87 1003.87 495.52 998.54 486.05 993.81"/><polygon class="cls-23" points="496.69 988.49 487.22 983.75 476.58 989.08 486.05 993.81 496.69 988.49"/><polygon class="cls-23" points="590.15 960.7 579.5 966.02 588.97 970.76 579.5 966.02 568.86 971.35 578.33 976.08 568.86 971.35 558.21 976.67 567.68 981.4 558.21 976.67 547.57 981.99 557.04 986.73 547.57 981.99 536.92 987.31 546.39 992.05 536.92 987.31 526.28 992.63 535.75 997.37 599.62 965.44 590.15 960.7"/><polygon class="cls-23" points="495.52 998.54 484.87 1003.87 494.34 1008.6 504.99 1003.28 495.52 998.54"/><polygon class="cls-23" points="507.34 983.16 497.87 978.43 487.22 983.75 496.69 988.49 507.34 983.16"/><polygon class="cls-23" points="515.63 997.96 525.1 1002.69 515.63 997.96 504.99 1003.28 514.46 1008.01 504.99 1003.28 494.34 1008.6 503.81 1013.34 535.75 997.37 526.28 992.63 515.63 997.96"/><polygon class="cls-23" points="560.56 956.55 551.09 951.82 540.45 957.14 549.92 961.88 560.56 956.55"/><polygon class="cls-23" points="579.5 966.02 590.15 960.7 580.68 955.97 570.03 961.29 579.5 966.02"/><polygon class="cls-23" points="571.21 951.23 561.74 946.5 551.09 951.82 560.56 956.55 571.21 951.23"/><polygon class="cls-23" points="570.03 961.29 580.68 955.97 571.21 951.23 560.56 956.55 570.03 961.29"/><polygon class="cls-23" points="517.98 977.84 508.51 973.11 497.87 978.43 507.34 983.16 517.98 977.84"/><polygon class="cls-23" points="539.27 967.2 529.8 962.46 539.27 967.2 549.92 961.88 540.45 957.14 519.16 967.79 528.63 972.52 539.27 967.2"/><polygon class="cls-23" points="528.63 972.52 519.16 967.79 508.51 973.11 517.98 977.84 528.63 972.52"/><path class="cls-15" d="M450.53,968s8,19.46,19.81,19.94,15.57-7.13,13.47-16.08-22.75-19-22.75-19Z"/><path class="cls-15" d="M494.16,966.65a4.34,4.34,0,0,1,.1,3.69c-.85,1.72-2.89,2.08-4.55.8l-7.27-5.58-13.62-1a4.47,4.47,0,0,1-3.72-4.12c-.2-2.14,1.15-3.77,3-3.63l14.63,1a3.51,3.51,0,0,1,1.88.75l8.17,6.27A4.62,4.62,0,0,1,494.16,966.65Z"/><path class="cls-15" d="M501.27,979.48a5.42,5.42,0,0,1,.22.56c.55,1.81-.21,3.55-1.71,3.89l-7.94,1.82a2.8,2.8,0,0,1-2.13-.46l-12-8a4,4,0,0,1-1.56-4.59,2.43,2.43,0,0,1,3.79-1l11,7.31,6.87-1.57A3.33,3.33,0,0,1,501.27,979.48Z"/><path class="cls-15" d="M497.66,984.9l-8.54,1.94c-10.18-8.52-10.49-8.54-11.57-8.62-1.59-.11-2.74,1.29-2.57,3.12a4.1,4.1,0,0,0,2.12,3.23c1.12.78,6,4.81,10.32,8.41a2.84,2.84,0,0,0,2.44.69l9.81-2.23c1.5-.34,2.27-2.08,1.71-3.89a5.37,5.37,0,0,0-.21-.56A3.33,3.33,0,0,0,497.66,984.9Zm-19.5,0Z"/><path class="cls-15" d="M492.43,993.07a4,4,0,0,1,.38,2,2.44,2.44,0,0,1-3.17,2.33c-1.27-.39-7.62-2.33-8.81-2.8-.6-.23-1.85-.72-9.27-8.49a3.78,3.78,0,0,1-.57-4.7c1-1.26,2.78-1.2,4.06.13,2.65,2.77,6,6.08,7,6.87,1.24.43,5.54,1.76,8.16,2.57A3.74,3.74,0,0,1,492.43,993.07Z"/><path class="cls-15" d="M482.2,996a3.83,3.83,0,0,1,.2,2.89,2.42,2.42,0,0,1-3.75,1.15l-5.57-3.52a3.37,3.37,0,0,1-.77-.65l-10.37-11.47a3.74,3.74,0,0,1-.43-4.7c1-1.22,2.83-1.09,4.07.29l10,11.08,5.14,3.25A4,4,0,0,1,482.2,996Z"/><path class="cls-13" d="M391.4,804.27c13.22-5.67,22.74,32.46,25.2,52.13s3.74,52.12,3.74,52.12l45.77,45.79s-13.82,9.78-12.49,22.56c-27.18-14.26-58.49-49.17-63.24-60.48S369.64,813.62,391.4,804.27Z"/><path class="cls-18" d="M491.8,1025.37a.54.54,0,0,1-.3-.1.51.51,0,0,1-.18-.49l18.18-85.39c0-5.48,4-11.91,8.9-14.35l114.41-57.4a8.35,8.35,0,0,1,3.72-1c3.41,0,5.61,2.65,5.61,6.74a.38.38,0,0,1,0,.1L624,959a.48.48,0,0,1-.26.33l-131.68,66A.54.54,0,0,1,491.8,1025.37Z"/><path class="cls-22" d="M636.53,867.15c3,0,5.13,2.34,5.13,6.26l-18.18,85.44-131.68,66L510,939.44c0-5.31,3.88-11.6,8.63-14L633,868.07a8,8,0,0,1,3.51-.92m0-1a8.79,8.79,0,0,0-3.94,1l-114.41,57.4c-5,2.51-9.12,9.1-9.17,14.73l-18.16,85.34a1,1,0,0,0,.36,1,1,1,0,0,0,.59.2,1,1,0,0,0,.43-.1l131.68-66a1,1,0,0,0,.51-.66l18.18-85.44a.71.71,0,0,0,0-.2c0-4.32-2.45-7.22-6.09-7.22Z"/><path class="cls-24" d="M485,705.51s-3.41,7.14-1.6,10.08c5,8,7.58,10.63,11.66,13.9s5.65,8.62-1.95,9.74c-1.79.26-3.2.44-4.3.55"/><path class="cls-25" d="M288.71,843s15.58,29-7.4,48.19S264,853.81,264,853.81L273.84,843Z"/><path class="cls-26" d="M261.14,757.63c-1.6-12.76-7.87-64.44-8-95.82-.07-12.15,15.39-18.15,23-8.71.25.31.48.63.71,1,5.54,8.19,11.84,83.37,13.2,100.49l.61,95.37s-4.29,9.2-20.25,1.52C264,831.66,261.14,757.63,261.14,757.63Z"/><path class="cls-27" d="M240.23,1122.26s-5.25,19.76-2.49,25.11c3.82,3.06,8.13,2.78,15.44,6.14,9.09,4.18,33.7,31.91,40,21,17-29.28-24.63-59.75-27.18-49.63Z"/><path class="cls-28" d="M224.8,929s3.44,36.88,6.88,50.16,4.78,143.15,4.78,143.15,14.8,16.8,37,7.81c0,0,8.85-150.47,9.34-173.58S278.4,854,278.4,854s-28.77-6.14-51.14,6.15S224.8,929,224.8,929Z"/><path class="cls-27" d="M169.42,1171.71s-2.52,31.12.88,36.42,34.89,30.65,44.39,26.61c16.15-6.87-15.24-35.31-15.16-48.54S169.42,1171.71,169.42,1171.71Z"/><path class="cls-29" d="M168.13,859.13s-10.33,27.29-7.38,52,5,146.65,3.57,169.77,2.81,88.88,2.81,88.88,16.27,29.18,37.17,19.93c0-31.47,15.09-151.35,16.57-170.53s6.39-100,6.39-100S264,910.27,278.4,854C240.54,844.62,168.13,859.13,168.13,859.13Z"/><path class="cls-30" d="M151,703.29c-2.65-11.06,4.32-22.31,12.71-30,11.94-10.93,31.81-27.38,46.11-30.29,21.76-4.42,62.07-1.7,64.54,13.28C263.37,768.55,278.4,854,278.4,854s-50.16,40.2-110.27,5.17C169.24,819.67,178,815.72,151,703.29Z"/><path class="cls-25" d="M258.66,706c14.59-16.16,9.07-51.46-16.05-64.43A122.11,122.11,0,0,0,209.8,643c-7.08,1.45-15.53,6.21-23.71,12h0s6.19,23,17.4,40.66C216.53,716.14,240.8,725.79,258.66,706Z"/><path class="cls-25" d="M202.06,612v42.41s4.79,11.8,22.86,11.06,17.7-10,17.7-10V632.32Z"/><path class="cls-31" d="M242.63,643.43V632.32l-38.15-19.07C215.24,639.43,228.5,642.8,242.63,643.43Z"/><path d="M265,536.49s4.58,8.64,2.32,40.68-23.66-39.27-22.55-38.74S265,536.49,265,536.49Z"/><path class="cls-25" d="M177.16,534.26c18.43-22.47,58.76-5.11,73.1,3,11.94,6.77,18.54,29.24,17.71,45.39s-3.61,49.41-18.21,51.54-39.3-1.31-58.29-30.72S164.28,550,177.16,534.26Z"/><path d="M262.82,532.88a42,42,0,0,0-12.42-7.07c-18.27-6.9-49.87-13-73.43,4.57-18.62,13.85-14.77,75.44,25.53,94.7,0,0-1.89-16.09,7.05-42.48,20.56,4.95,30.65-25.85,33.93-38.72,5.34-.19,10.57-.12,15,0A6.28,6.28,0,0,0,262.82,532.88Z"/><ellipse class="cls-25" cx="199.93" cy="592.17" rx="10.26" ry="15.74" transform="translate(-293.59 208.67) rotate(-33.49)"/><path class="cls-30" d="M269.41,665.54s9.1,45.05,15,54c9.15,12.67,4.86,44.14-24.2,42.67s-14.59-29-11.88-31S263.79,702,263.79,702Z"/><path class="cls-25" d="M284.14,693.73s-3.56-6.76-7.62-7.5,1.72,11.07,1.72,11.07Z"/><path class="cls-32" d="M250.59,708.17,271.17,714a2.84,2.84,0,0,0,3.49-2l13.94-49.17a2.82,2.82,0,0,0-3.28-3.54l-22.51,4.54a2.82,2.82,0,0,0-2.14,1.93l-12,38.8A2.83,2.83,0,0,0,250.59,708.17Z"/><path class="cls-25" d="M242.63,729.38s7.87,17.8,16,10.42c2.66-2.41,16.77-15.27,18.9-18.74,4.37-7.14-.56-9.62-1.13-15.08-.85-8.12-25.31,1-25.31,1S243.39,711.31,242.63,729.38Z"/><path class="cls-25" d="M242.63,729.38V699.51l7.93-10.77a1.84,1.84,0,0,1,3.31.88,10.32,10.32,0,0,1-2.18,7.8c-4.18,4.92,2.24,16.72,2.24,16.72Z"/><path class="cls-25" d="M266.24,703.05s16.43-11.29,17.9-9.32-1.49,13.68-15.13,15.45C266.69,707.25,266.24,703.05,266.24,703.05Z"/><path class="cls-25" d="M266,711.53s16.42-11.28,17.9-9.32-1.5,13.68-15.13,15.45C266.4,715.74,266,711.53,266,711.53Z"/><path class="cls-25" d="M267.19,718.8s13.54-9.31,14.76-7.68-1.24,11.27-12.48,12.73C267.56,722.26,267.19,718.8,267.19,718.8Z"/><ellipse class="cls-33" cx="270.25" cy="685.54" rx="7.11" ry="4.41" transform="translate(-456.17 561.83) rotate(-58.82)"/><path d="M195.56,545.73a35.41,35.41,0,0,1-7.3,29.47,26.54,26.54,0,0,1-10.8,7.89c-4.63,2-8.29,5.5-13.47,6.26s-11.42-1.88-12.82-7c-.24-.86-.41-1.88-1.18-2.34a2.87,2.87,0,0,0-1.72-.24c-2.73.17-5.54.41-8.15-.41s-5-3-5.15-5.74c-.08-1.56.56-3.13.24-4.66-.62-3-4.37-4.14-6-6.74s-.67-5.94.56-8.71,2.79-5.64,2.38-8.65c-.27-1.93-1.34-3.66-1.87-5.54S130,535,131.63,534c1.86-1.19,5.17-.57,5.68-2.71a4.89,4.89,0,0,0-.07-1.66,6,6,0,0,1,10.26-4.93c1-4.48,5.84-6.82,10.1-8.53a7.2,7.2,0,0,1,3.41-.76,7.78,7.78,0,0,1,5.23,3.54c3.1,2,5.88-.15,9.44.77,2.78.72,6.78,2.5,7.5,6C189.36,531.28,194.17,539,195.56,545.73Z"/><path class="cls-26" d="M155.28,762.29c6.29,24.39,21,45.31,38,48.43,27.75,5.08,65.33-70.92,65.33-70.92l-16-10.42S216.54,783.05,199,783.05c-10.35,0-13.84-21.76-15.39-53.67-.4-8.29,3-54.33-16.08-54.33C141.61,675.05,148.3,735.2,155.28,762.29Z"/><path d="M266,537.2a9.11,9.11,0,0,0-2.56-4.58,27,27,0,0,0-10.9-5.94h0c-.69-.3-1.4-.59-2.15-.87-16.88-6.38-45.15-12-67.94,1,.22,2.15.54,4.3,1,6.46C187.92,555,203.19,572,223.1,580.43c11.64-7.2,17.92-26.9,20.38-36.55,3.55-.13,7.05-.14,10.31-.08,4.64,10.71,17.16,34.25,34.92,26.32C278.72,565.4,270.24,556.39,266,537.2Z"/><path class="cls-34" d="M261.35,574.42s-2.93,7.78-2.79,10.45c.44,7.9,14.67,13.48-.62,19.87"/><path class="cls-15" d="M860.65,825.67s16.46,30.66-7.82,50.91-18.3-39.47-18.3-39.47l10.41-11.44Z"/><path class="cls-35" d="M831.52,735.49c-1.69-13.49-8.31-68.09-8.5-101.25-.07-12.84,16.26-19.18,24.34-9.2.26.32.51.66.75,1,5.86,8.65,12.5,88.09,13.95,106.18l4.8,96.27s-8.69,14.23-25.55,6.11C834.53,813.71,831.52,735.49,831.52,735.49Z"/><path class="cls-12" d="M809.84,1120.77s-6.21,23.38-2.94,29.7c4.52,3.63,9.62,3.3,18.26,7.27,10.76,4.94,34.11,31.73,47.37,24.8,13.06-6.83-32.15-58.72-32.15-58.72Z"/><path class="cls-5" d="M793.12,916.51s3.64,39,7.28,53,5,151.26,5,151.26,15.64,17.75,39.12,8.25c0,0,9.35-159,9.87-183.41s-4.67-108.33-4.67-108.33-30.4-6.5-54,6.49S793.12,916.51,793.12,916.51Z"/><path class="cls-12" d="M734.71,1173s-3,36.57,1,42.78,41,36,52.15,31.27c19-8.07-17.91-41.48-17.81-57S734.71,1173,734.71,1173Z"/><path class="cls-5" d="M733.24,842.73s-10.91,28.84-7.79,54.95,5.32,155,3.76,179.38,3,93.92,3,93.92,17.2,30.84,39.28,21.06c0-33.25,15.95-159.92,17.51-180.19s6.75-105.72,6.75-105.72,38.82-9.36,54-68.85C809.75,827.4,733.24,842.73,733.24,842.73Z"/><path class="cls-36" d="M715.12,678.07a40.46,40.46,0,0,1,13.43-31.69c12.62-11.55,33.62-28.93,48.72-32,23-4.68,65.58-1.81,68.2,14,17.65,106.84,4.29,208.87,4.29,208.87s-53,42.47-116.52,5.45C734.41,801,718.27,739.6,715.12,678.07Z"/><path class="cls-15" d="M769.09,581.64v44.82s5.07,12.47,24.16,11.69S812,627.63,812,627.63V603.08Z"/><path class="cls-35" d="M744,765.08c-7.52-10.56-39.73-89.76-19.45-104.42,12.32-8.9,31,28.22,38,47.93s15.89,52.88,15.89,52.88,1.61,16.33-7.67,18C757.29,781.81,744,765.08,744,765.08Z"/><path class="cls-35" d="M744,765.08l87.33-50.43s23,3.26,15,23.53C830.54,756.67,778.36,804.78,744,765.08Z"/><path class="cls-15" d="M882.93,703.39s-.87-8-4.57-10.33-2.62,11.54-2.62,11.54Z"/><path class="cls-37" d="M844.35,704.53l17.94,13.74a3,3,0,0,0,4.18-.56l32.84-42.88a3,3,0,0,0-1.84-4.76l-23.89-4.3a3,3,0,0,0-2.85,1.07l-26.89,33.45A3,3,0,0,0,844.35,704.53Z"/><path class="cls-15" d="M828.27,722.26s6.11,18.35,17,14.26c3.54-1.34,17.12-6.28,20.55-8.86,7.07-5.32,3.2-9.67,4.77-15.26,2.32-8.3-25.26-8.86-25.26-8.86S836.06,704.81,828.27,722.26Z"/><path class="cls-15" d="M828.27,722.26l11.62-29.35,12-7.49a2,2,0,0,1,2.91,2.16,10.92,10.92,0,0,1-5.18,6.81c-6,3.2-4.3,17.29-4.3,17.29Z"/><path class="cls-15" d="M861.72,705.58s20.52-4.69,21.21-2.19-6.8,12.86-20.88,9.29C860.52,709.89,861.72,705.58,861.72,705.58Z"/><path class="cls-15" d="M858.14,713.8s20.52-4.69,21.21-2.19-6.8,12.86-20.88,9.29C856.94,718.11,858.14,713.8,858.14,713.8Z"/><path class="cls-15" d="M856.52,721.42s16.92-3.87,17.48-1.8-5.6,10.6-17.21,7.65C855.53,725,856.52,721.42,856.52,721.42Z"/><ellipse class="cls-38" cx="872.47" cy="689.94" rx="7.51" ry="4.66" transform="translate(-239.62 668.1) rotate(-37.21)"/><path class="cls-14" d="M815.61,488.24c1.81.57,13.37,1.87,25.72-4.47s25.91,3.13,16.43,18.66S830.52,513,830.52,513l-14.91-24.8"/><path class="cls-14" d="M818.08,493.64c.77-.1,18.44-8.37,12.07-13.34s-27.77,7.51-27.77,7.51Z"/><path class="cls-14" d="M839.89,505.71s9.67,10.14,4.85,43.74-22-43.19-20.82-42.55S839.89,505.71,839.89,505.71Z"/><path class="cls-15" d="M762.93,502.54c21.13-22.28,52.42-6.08,66.92,3.57,12.07,8,15.31,32.1,15.21,49.19-.12,19.33-7.57,48.85-23.12,50s-41.32-1.43-59.09-33.88S748.16,518.11,762.93,502.54Z"/><path class="cls-39" d="M826.71,535.6s-2.61,6.59-1.56,9.53c2.88,8.06,4.46,10.73,7,14.16s3.29,8.65-1.78,9.17c-1.19.12-2.13.19-2.86.22"/><path class="cls-14" d="M769.09,589.57a54.29,54.29,0,0,1,14.48-38.89,34.75,34.75,0,0,0,4.62-30.18c5.56-9.94,33.1-8.59,49.83-6.76a6.63,6.63,0,0,0,5.4-11.31A44.2,44.2,0,0,0,830.87,494c-18.73-8.67-43.33-14.67-69.5,2C740.7,509.23,745,562.55,769.09,589.57Z"/><ellipse class="cls-15" cx="771.17" cy="559.9" rx="12.51" ry="16.63" transform="translate(-175.47 450.04) rotate(-29.36)"/><path class="cls-40" d="M765,548.65c.52,0,11.45,3.69,13.51,14.29"/><path class="cls-40" d="M774.08,554.39s-7.9,4.26-3.87,10.63"/><path class="cls-40" d="M821.94,605.29s-29.83,2.44-44.46-15.72"/><polygon class="cls-41" points="222.64 280.03 215.24 280.03 168.13 303.6 168.13 357.14 214.06 380.71 221.46 380.71 269.76 357.14 269.76 303.44 222.64 280.03"/><polygon class="cls-30" points="223.28 280.03 176.17 303.6 176.17 357.14 222.1 380.71 270.4 357.14 270.4 303.44 223.28 280.03"/><path class="cls-41" d="M223.29,283.29l44.19,22v50.07l-45.35,22.13-43-22.09v-50l44.21-22.11m0-3.26L176.17,303.6v53.54l45.93,23.57,48.3-23.57v-53.7L223.28,280Z"/><polygon class="cls-41" points="168.13 303.6 178.73 305.04 178.73 354.91 168.13 357.14 168.13 303.6"/><path class="cls-42" d="M226.21,305a25.72,25.72,0,1,1-4.11-.32,26.51,26.51,0,0,1,4.11.32"/><path class="cls-43" d="M226.21,305a25.72,25.72,0,0,1,20.65,18.55"/><polygon class="cls-41" points="790.56 248.56 783.16 248.56 736.04 272.12 736.04 325.67 781.98 349.24 789.38 349.24 837.68 325.67 837.68 271.97 790.56 248.56"/><polygon class="cls-30" points="791.2 248.56 744.09 272.12 744.09 325.67 790.02 349.24 838.32 325.67 838.32 271.97 791.2 248.56"/><path class="cls-41" d="M791.21,251.82l44.19,22v50.07L790.05,346l-43-22.09v-50l44.21-22.11m0-3.26-47.11,23.56v53.55L790,349.24l48.3-23.57V272L791.2,248.56Z"/><path class="cls-42" d="M796.4,273.56a25.72,25.72,0,1,1-4.11-.32,26.51,26.51,0,0,1,4.11.32"/><path class="cls-43" d="M796.4,273.56a25.67,25.67,0,1,1-23.87,41.72"/><polygon class="cls-41" points="570.91 413.45 578.32 413.45 625.43 437.01 625.43 490.56 579.5 514.13 572.1 514.13 523.8 490.56 523.8 436.86 570.91 413.45"/><polygon class="cls-30" points="570.27 413.45 617.39 437.01 617.39 490.56 571.46 514.13 523.16 490.56 523.16 436.86 570.27 413.45"/><path class="cls-41" d="M570.27,416.71l44.2,22.11v50l-43.05,22.09-45.35-22.13V438.67l44.2-22m0-3.26-47.11,23.41v53.7l48.3,23.57,45.93-23.57V437l-47.12-23.56Z"/><path class="cls-42" d="M565.08,438.45a25.72,25.72,0,1,0,4.11-.32,26.41,26.41,0,0,0-4.11.32"/><path class="cls-42" d="M549.73,447.05A25.67,25.67,0,1,0,589,480.17"/><path class="cls-43" d="M581.82,441.45a25.67,25.67,0,1,1-12.63-3.32,26.51,26.51,0,0,1,4.11.32"/><path class="cls-43" d="M588.64,447.05a25.67,25.67,0,1,1-39.22,33.12"/><polygon class="cls-44" points="501.37 88.61 541.52 97.64 472.86 141.36 432.7 132.33 501.37 88.61"/><polygon class="cls-45" points="432.7 226.43 432.7 132.33 472.86 141.36 472.86 235.46 432.7 226.43"/><polygon class="cls-7" points="503.09 260.95 432.7 226.43 472.86 235.46 543.24 274 503.09 260.95"/><polygon class="cls-46" points="541.52 97.64 610.19 136.23 610.19 230.06 543.24 274 472.86 235.46 472.86 141.36 541.52 97.64"/><polygon class="cls-47" points="541.52 97.64 610.19 136.23 610.19 230.06 543.24 274 472.86 235.46 472.86 141.36 541.52 97.64"/><polygon class="cls-47" points="432.7 132.33 501.37 88.61 541.52 97.64 541.52 97.64 610.19 136.23 610.19 230.06 543.24 274 503.09 260.95 432.7 226.43 432.7 132.33 432.7 132.33"/><polygon class="cls-48" points="588.3 164.96 558.36 170.87 558.36 138.24 531.51 143.41 531.51 176.17 498.18 182.74 498.18 209.14 531.51 202.56 531.51 239.18 558.36 234.02 558.36 197.26 588.3 191.35 588.3 164.96"/><path class="cls-49" d="M361.69,217c-33.66,7.22-63.23,20.9-88.18,40.76"/><path class="cls-49" d="M273.51,218.47c34.6-22,70-31.65,97.26-35.79"/><path class="cls-49" d="M246.34,260.46C319.68,188,417.55,196,417.55,196"/><path class="cls-49" d="M303.92,561.7c.46-27.28-11-50.24-34.17-68.38"/><path class="cls-49" d="M258.55,434.75c9.31,13.19,20,24.84,30.93,33.38,16.6,13,28.86,28.21,36.61,45.2"/><path class="cls-49" d="M300.68,628.34s55.08-88-21.07-147.61C260.29,465.59,240.46,441,227.1,412.4"/><path class="cls-49" d="M719.82,252.54a250.92,250.92,0,0,0-44-22.92"/><path class="cls-49" d="M882.29,581.64c-.23-8.6-.74-17.92-1.67-27.86a461.83,461.83,0,0,0-25-111.68"/><path class="cls-49" d="M853.81,359.27a513,513,0,0,1,53.53,153.39"/><path class="cls-49" d="M666.29,192.41a266.38,266.38,0,0,1,34.31,13,285.74,285.74,0,0,1,42.45,24.21"/><path class="cls-49" d="M740.5,247.34c-59.74-43.53-113.43-46.76-113.43-46.76"/><path class="cls-49" d="M894,648.46s27.59-130.3-54.84-282.66"/><path class="cls-49" d="M570.27,766.25a173.31,173.31,0,0,1,16.42-35.19q19.93-32.53,29.66-62"/><path class="cls-49" d="M642.36,548.65c11,22.47,16.12,46.93,15.21,73.09a192.33,192.33,0,0,1-5.22,37.55"/><path class="cls-49" d="M579.5,863.36s-15.34-64.9,20.83-123.94c53.35-87.07,53.35-157.78,9.86-211.4"/><path class="cls-13" d="M491.8,869.35c-2.47.67-24.47,6.7-49.13,3.74.33,9.59,14.66,10.59,31.16,9.93S491.8,869.35,491.8,869.35Z"/><path class="cls-28" d="M1029.56,601.46c8.27,12.5,59.43,60.06,105.4,53,62.51-9.54,98.78-59.5,107.24-82.89-9.38-18.24-15.81-15.91-15.81-15.91s-34.23,48.12-69.1,56c-45,10.2-55.71-23.42-87.63-53C1042,562.08,1021.29,589,1029.56,601.46Z"/><path class="cls-15" d="M1242.2,571.61c2.29,0,31.77-5.55,34-18.71s-3.6-20.91-11-26.2-22.23-3.15-27.33,6.13-11.43,22.87-11.43,22.87Z"/><path class="cls-15" d="M1226.39,555.7s4.15-26.72,18.76-24.66c13.08,3.46,13.68,13.41,12.89,13.91s-11.79-1.09-12.42-5.2c3.36,8.42,3.1,20.46-9.43,22.2C1228.5,560.07,1226.39,555.7,1226.39,555.7Z"/><path class="cls-50" d="M1318.79,494.76a14.6,14.6,0,1,1-16-12.8A14.48,14.48,0,0,1,1318.79,494.76Z"/><path class="cls-8" d="M1289.75,497.78a14.6,14.6,0,0,0,29-3,.44.44,0,0,1,0-.09l-29,3Z"/><ellipse class="cls-51" cx="1228.57" cy="504.48" rx="14.83" ry="14.36" transform="translate(-45.05 127.96) rotate(-5.85)"/><path class="cls-14" d="M1213.82,506A14.58,14.58,0,0,0,1230,518.79a14.76,14.76,0,0,0,8.17-3.46l-1.14-11.13-.11-1.09-23.18,2.38S1213.8,505.84,1213.82,506Z"/><path class="cls-50" d="M1227,478.77a8.07,8.07,0,0,0-7.29,8.89l3.5,34.16a8.24,8.24,0,0,0,9,7.43l34.47-3.53-5.18-50.48Z"/><polygon class="cls-51" points="1261.17 475.19 1263.72 500.06 1263.86 501.45 1266.36 525.85 1311.65 542.34 1307.01 497.03 1306.87 495.63 1302.17 449.86 1261.17 475.19"/><path class="cls-8" d="M1247,510.06h2.93a8.17,8.17,0,0,1,8.17,8.17v38.93a8.18,8.18,0,0,1-8.18,8.18H1247a8.18,8.18,0,0,1-8.18-8.18V518.23a8.17,8.17,0,0,1,8.17-8.17Z" transform="translate(-48.33 130.15) rotate(-5.85)"/><path class="cls-15" d="M1250.29,524.23a9.56,9.56,0,0,0-3.42,11.43c2.65,7.63,13.46,22.48,19.82,22.84s8.82-3.37,8.82-3.37,4-9.52-1.59-18.93S1260.92,522.08,1250.29,524.23Z"/><path class="cls-52" d="M1248.22,526.19a9.51,9.51,0,0,0-1.35,9.47c2.65,7.63,13.46,22.48,19.82,22.84a14.56,14.56,0,0,0,2.61-.09"/><path class="cls-8" d="M1221.45,504.7l1.75,17.12a8.24,8.24,0,0,0,9,7.43l34.47-3.53L1264,500.34Z"/><polygon class="cls-14" points="1263.75 500.37 1263.86 501.45 1266.36 525.85 1311.65 542.34 1307.01 497.03 1306.9 495.94 1263.75 500.37"/><rect class="cls-8" x="1304.09" y="447.69" width="6.8" height="96.95" rx="3.39" ry="3.39" transform="translate(-43.79 135.96) rotate(-5.85)"/><path class="cls-53" d="M1331.83,521.52l.2-.3,1.53,1-.2.31Zm-5.07-54.94,1.32-1.28.26.26-1.32,1.28Zm12,36.61,0-.36,1.82.24-.05.37ZM1337,483.32l1.74-.58.12.36-1.75.56Z"/><path class="cls-54" d="M1236.19,562c12.53-1.74,12.79-13.78,9.43-22.2.63,4.11,9.82,6.87,12.42,5.2s.19-10.45-12.89-13.91c0,0-6.93-1.4-13.21,7.87"/><path class="cls-55" d="M981,1073.57a45.54,45.54,0,0,0,11,19.7c8.67,8.93,29.95,33.1,18.13,41s-66.93-33.54-66.93-33.54l3.88-29.52Z"/><path class="cls-55" d="M1109.75,1056.23a40.08,40.08,0,0,0,14.24,16.49c10.51,7.09,36.54,26.52,24.3,34.81s-77.42-23-77.42-23l1.2-26.83Z"/><path class="cls-5" d="M971,760.28s-7.75,52-1.11,101.84-27.67,192.6-26.56,209.21,44.27,32.1,50.92-4.43,41.24-137.22,41.1-239.63c29.74,52.56,32,239.63,32,239.63s43.17,16.6,45.39-16.61,16.6-173.78-16.61-285.58C1009.71,755.85,971,760.28,971,760.28Z"/><path class="cls-29" d="M1027.42,551.34c36.32-1.25,57.56.83,68.63,57.29s0,156.08,0,156.08-75.27,29.88-125.08-4.43c3.59-67.31-37-178.36,6.75-192.87C993.39,562.21,1016.42,551.71,1027.42,551.34Z"/><path class="cls-28" d="M1061.16,565.62l6.34,21.4s0-28.9-11.48-36.95l-5,9.7Z"/><path class="cls-15" d="M1012.57,517.74s0,27.24.59,37.5c11.64,10.57,23.47,28,37.07,31.78,3.76-.17,9.07-18.95,8.82-22.61a201,201,0,0,1,.26-26.58S1024.32,511.05,1012.57,517.74Z"/><path class="cls-15" d="M1032.51,436.49c-19.2,5.36-33,20.09-31.25,46.43s6.89,42.67,31.25,55.81,43.75,9.82,49.55-15.63,4.91-66.52-15.18-79S1032.51,436.49,1032.51,436.49Z"/><path class="cls-56" d="M1012.58,523.37l19.82-21.71a19.91,19.91,0,0,0-3-19.18l9.38-3.55s-6.57-19.51-3.31-25c6.34-10.71,43.71-2.23,50.18-12,9-13.6-12-13.09-26.32-12.2s-39.53,2.83-46.74,7.29c-8,4.95-14.63,16.12-14.63,33.06S1001.09,512.52,1012.58,523.37Z"/><ellipse class="cls-15" cx="1018.35" cy="500.59" rx="10.71" ry="14.75" transform="translate(-96.53 289.25) rotate(-15.44)"/><path class="cls-28" d="M990.45,565.09c-20.84-1.58-34,20.75-36.53,50.64s-5.81,110.42,12.46,127,68.9,54,68.9,54l15-15.77s-42.34-47.74-53.55-64.34c6.64-45.66,14.53-84.27,14.94-102.12S1012.45,566.75,990.45,565.09Z"/><path class="cls-15" d="M1075.08,826.27s7.78-2.43,9.33-6.55-11.93-.32-11.93-.32Z"/><path class="cls-57" d="M1066.38,788.29l-10.08,20.47a3,3,0,0,0,1.37,4l48.91,24.1a3,3,0,0,0,4.35-2.76l-.43-24.49a3,3,0,0,0-1.62-2.62L1070.48,787A3,3,0,0,0,1066.38,788.29Z"/><path class="cls-15" d="M1045.67,775.85s-17,9.65-10.79,19.58c2,3.25,9.57,15.72,12.8,18.62,6.65,6,10.21,1.27,16,1.72,8.67.67,3.82-26.75,3.82-26.75S1064.48,780.14,1045.67,775.85Z"/><path class="cls-15" d="M1045.67,775.85,1077,781.6l9.77,10.4a2,2,0,0,1-1.56,3.3,11,11,0,0,1-7.76-3.79c-4.36-5.33-18-.86-18-.86Z"/><path class="cls-15" d="M1068.75,805.7s8.68,19.41,6.33,20.57-14.07-4.2-13.29-18.85C1064.25,805.36,1068.75,805.7,1068.75,805.7Z"/><path class="cls-15" d="M1059.91,803.77s8.67,19.4,6.33,20.57-14.07-4.21-13.3-18.85C1055.41,803.42,1059.91,803.77,1059.91,803.77Z"/><path class="cls-15" d="M1052.05,803.66s7.15,16,5.21,17-11.59-3.47-11-15.54C1048.34,803.38,1052.05,803.66,1052.05,803.66Z"/><ellipse class="cls-38" cx="1086.35" cy="813.28" rx="4.7" ry="7.58" transform="translate(-242.97 1086.21) rotate(-48.42)"/><path class="cls-56" d="M1037.19,531.15s27,26.72,41.09,18.68,9.83-23.2,4.63-27.69-17.59,4.13-17.59,4.13-25.25-8.91-32.72-31.32c-7.23-3.88-3.93,2.79-3.93,2.79S1024.84,523.4,1037.19,531.15Z"/><path class="cls-56" d="M1060.46,525.12c.18.09,9-17.74,16.62-18.07,5.79-.25,7.27,2.2,7.27,2.2a4,4,0,0,0,.82-6.16c-4.88-3.06-15-2.09-20,3.26-5.82,6.13-8.4,18.77-8.4,18.77Z"/><path class="cls-29" d="M1007.25,556.51l5.32-10.88,30.29,21.89,7.37,19.5S1009.75,572.75,1007.25,556.51Z"/><path class="cls-28" d="M1012.71,539a45.83,45.83,0,0,0-11.61,22.25s31.4,33,32.15,31.5,9.61-25.25,9.61-25.25S1017.12,551.34,1012.71,539Z"/></g></svg>