<svg version="1.1" id="BJgPofxzm" xmlns="http://www.w3.org/2000/svg" xmlns:xlink="http://www.w3.org/1999/xlink" x="0px" y="0px" viewBox="0 0 600 600" style="enable-background:new 0 0 600 600;" xml:space="preserve"><style>@-webkit-keyframes rJeVgDiflGX_Animation{0%{opacity: 0;}18.33%{opacity: 1;}81.67%{opacity: 1;}100%{opacity: 0;}}@keyframes rJeVgDiflGX_Animation{0%{opacity: 0;}18.33%{opacity: 1;}81.67%{opacity: 1;}100%{opacity: 0;}}@-webkit-keyframes ry6ZewoGxMQ_Animation{0%{opacity: 0;}11.67%{opacity: 1;}80%{opacity: 1;}100%{opacity: 0;}}@keyframes ry6ZewoGxMQ_Animation{0%{opacity: 0;}11.67%{opacity: 1;}80%{opacity: 1;}100%{opacity: 0;}}@-webkit-keyframes SkDfxwsfefm_Animation{0%{opacity: 0;}10%{opacity: 1;}90%{opacity: 1;}100%{opacity: 0;}}@keyframes SkDfxwsfefm_Animation{0%{opacity: 0;}10%{opacity: 1;}90%{opacity: 1;}100%{opacity: 0;}}@-webkit-keyframes By17ePszefX_Animation{0%{opacity: 0;}18.33%{opacity: 1;}83.33%{opacity: 1;}100%{opacity: 0;}}@keyframes By17ePszefX_Animation{0%{opacity: 0;}18.33%{opacity: 1;}83.33%{opacity: 1;}100%{opacity: 0;}}@-webkit-keyframes Hkw7ePsfxGX_Animation{0%{opacity: 0;}15%{opacity: 1;}85%{opacity: 1;}100%{opacity: 0;}}@keyframes Hkw7ePsfxGX_Animation{0%{opacity: 0;}15%{opacity: 1;}85%{opacity: 1;}100%{opacity: 0;}}@-webkit-keyframes ryd4xvsGeGX_Animation{0%{opacity: 0;}13.33%{opacity: 1;}88.33%{opacity: 1;}100%{opacity: 0;}}@keyframes ryd4xvsGeGX_Animation{0%{opacity: 0;}13.33%{opacity: 1;}88.33%{opacity: 1;}100%{opacity: 0;}}@-webkit-keyframes r1U8evoMxMm_Animation{0%{opacity: 0;}20%{opacity: 1;}81.67%{opacity: 1;}100%{opacity: 0;}}@keyframes r1U8evoMxMm_Animation{0%{opacity: 0;}20%{opacity: 1;}81.67%{opacity: 1;}100%{opacity: 0;}}@-webkit-keyframes SJIWewsMeMm_B1BOvVeMQ_Animation{0%{-webkit-transform: scale(1.05, 1.05);transform: scale(1.05, 1.05);}15%{-webkit-transform: scale(1.1, 1.1);transform: scale(1.1, 1.1);}35%{-webkit-transform: scale(1, 1);transform: scale(1, 1);}55.00%{-webkit-transform: scale(1.1, 1.1);transform: scale(1.1, 1.1);}75%{-webkit-transform: scale(1, 1);transform: scale(1, 1);}100%{-webkit-transform: scale(1, 1.05);transform: scale(1, 1.05);}}@keyframes SJIWewsMeMm_B1BOvVeMQ_Animation{0%{-webkit-transform: scale(1.05, 1.05);transform: scale(1.05, 1.05);}15%{-webkit-transform: scale(1.1, 1.1);transform: scale(1.1, 1.1);}35%{-webkit-transform: scale(1, 1);transform: scale(1, 1);}55.00%{-webkit-transform: scale(1.1, 1.1);transform: scale(1.1, 1.1);}75%{-webkit-transform: scale(1, 1);transform: scale(1, 1);}100%{-webkit-transform: scale(1, 1.05);transform: scale(1, 1.05);}}@-webkit-keyframes ry6ZewoGxMQ_rJhUw4lf7_Animation{0%{-webkit-transform: translate(0px, 0px);transform: translate(0px, 0px);}100%{-webkit-transform: translate(5px, -10px);transform: translate(5px, -10px);}}@keyframes ry6ZewoGxMQ_rJhUw4lf7_Animation{0%{-webkit-transform: translate(0px, 0px);transform: translate(0px, 0px);}100%{-webkit-transform: translate(5px, -10px);transform: translate(5px, -10px);}}@-webkit-keyframes SkDfxwsfefm_B18SwExfX_Animation{0%{-webkit-transform: translate(-20px, 5px);transform: translate(-20px, 5px);}100%{-webkit-transform: translate(0px, 0px);transform: translate(0px, 0px);}}@keyframes SkDfxwsfefm_B18SwExfX_Animation{0%{-webkit-transform: translate(-20px, 5px);transform: translate(-20px, 5px);}100%{-webkit-transform: translate(0px, 0px);transform: translate(0px, 0px);}}@-webkit-keyframes By17ePszefX_S1A7w4xMQ_Animation{0%{-webkit-transform: translate(0px, 0px);transform: translate(0px, 0px);}100%{-webkit-transform: translate(10px, 0px);transform: translate(10px, 0px);}}@keyframes By17ePszefX_S1A7w4xMQ_Animation{0%{-webkit-transform: translate(0px, 0px);transform: translate(0px, 0px);}100%{-webkit-transform: translate(10px, 0px);transform: translate(10px, 0px);}}@-webkit-keyframes Hkw7ePsfxGX_By4Gw4gfX_Animation{0%{-webkit-transform: translate(-10px, -20px);transform: translate(-10px, -20px);}100%{-webkit-transform: translate(0px, 0px);transform: translate(0px, 0px);}}@keyframes Hkw7ePsfxGX_By4Gw4gfX_Animation{0%{-webkit-transform: translate(-10px, -20px);transform: translate(-10px, -20px);}100%{-webkit-transform: translate(0px, 0px);transform: translate(0px, 0px);}}@-webkit-keyframes rJeVgDiflGX_SyTlPElfQ_Animation{0%{-webkit-transform: translate(-20px, 0px);transform: translate(-20px, 0px);}100%{-webkit-transform: translate(0px, 0px);transform: translate(0px, 0px);}}@keyframes rJeVgDiflGX_SyTlPElfQ_Animation{0%{-webkit-transform: translate(-20px, 0px);transform: translate(-20px, 0px);}100%{-webkit-transform: translate(0px, 0px);transform: translate(0px, 0px);}}@-webkit-keyframes ryd4xvsGeGX_SyI1PVgG7_Animation{0%{-webkit-transform: translate(5px, -10px);transform: translate(5px, -10px);}100%{-webkit-transform: translate(0px, 0px);transform: translate(0px, 0px);}}@keyframes ryd4xvsGeGX_SyI1PVgG7_Animation{0%{-webkit-transform: translate(5px, -10px);transform: translate(5px, -10px);}100%{-webkit-transform: translate(0px, 0px);transform: translate(0px, 0px);}}@-webkit-keyframes HkeBeDizxMm_BJMTLVeMX_Animation{0%{-webkit-transform: scale(1.1, 1.1);transform: scale(1.1, 1.1);}25%{-webkit-transform: scale(1, 1);transform: scale(1, 1);}50%{-webkit-transform: scale(1.1, 1.1);transform: scale(1.1, 1.1);}75%{-webkit-transform: scale(1, 1);transform: scale(1, 1);}100%{-webkit-transform: scale(1.1, 1.1);transform: scale(1.1, 1.1);}}@keyframes HkeBeDizxMm_BJMTLVeMX_Animation{0%{-webkit-transform: scale(1.1, 1.1);transform: scale(1.1, 1.1);}25%{-webkit-transform: scale(1, 1);transform: scale(1, 1);}50%{-webkit-transform: scale(1.1, 1.1);transform: scale(1.1, 1.1);}75%{-webkit-transform: scale(1, 1);transform: scale(1, 1);}100%{-webkit-transform: scale(1.1, 1.1);transform: scale(1.1, 1.1);}}@-webkit-keyframes H1LrlPiGef7_H1SDUVgMQ_Animation{0%{-webkit-transform: scale(1.04, 1.04);transform: scale(1.04, 1.04);}15%{-webkit-transform: scale(1.1, 1.1);transform: scale(1.1, 1.1);}35%{-webkit-transform: scale(1, 1);transform: scale(1, 1);}60%{-webkit-transform: scale(1.1, 1.1);transform: scale(1.1, 1.1);}85%{-webkit-transform: scale(1, 1);transform: scale(1, 1);}100%{-webkit-transform: scale(1.04, 1.04);transform: scale(1.04, 1.04);}}@keyframes H1LrlPiGef7_H1SDUVgMQ_Animation{0%{-webkit-transform: scale(1.04, 1.04);transform: scale(1.04, 1.04);}15%{-webkit-transform: scale(1.1, 1.1);transform: scale(1.1, 1.1);}35%{-webkit-transform: scale(1, 1);transform: scale(1, 1);}60%{-webkit-transform: scale(1.1, 1.1);transform: scale(1.1, 1.1);}85%{-webkit-transform: scale(1, 1);transform: scale(1, 1);}100%{-webkit-transform: scale(1.04, 1.04);transform: scale(1.04, 1.04);}}@-webkit-keyframes SJarePizgM7_rJGEUNgzQ_Animation{0%{-webkit-transform: scale(1, 1);transform: scale(1, 1);}25%{-webkit-transform: scale(1.1, 1.1);transform: scale(1.1, 1.1);}50%{-webkit-transform: scale(1, 1);transform: scale(1, 1);}75%{-webkit-transform: scale(1.1, 1.1);transform: scale(1.1, 1.1);}100%{-webkit-transform: scale(1, 1);transform: scale(1, 1);}}@keyframes SJarePizgM7_rJGEUNgzQ_Animation{0%{-webkit-transform: scale(1, 1);transform: scale(1, 1);}25%{-webkit-transform: scale(1.1, 1.1);transform: scale(1.1, 1.1);}50%{-webkit-transform: scale(1, 1);transform: scale(1, 1);}75%{-webkit-transform: scale(1.1, 1.1);transform: scale(1.1, 1.1);}100%{-webkit-transform: scale(1, 1);transform: scale(1, 1);}}@-webkit-keyframes r1U8evoMxMm_r19WINgzQ_Animation{0%{-webkit-transform: translate(-20px, -5px);transform: translate(-20px, -5px);}100%{-webkit-transform: translate(0px, 0px);transform: translate(0px, 0px);}}@keyframes r1U8evoMxMm_r19WINgzQ_Animation{0%{-webkit-transform: translate(-20px, -5px);transform: translate(-20px, -5px);}100%{-webkit-transform: translate(0px, 0px);transform: translate(0px, 0px);}}#BJgPofxzm *{-webkit-animation-duration: 2s;animation-duration: 2s;-webkit-animation-iteration-count: infinite;animation-iteration-count: infinite;-webkit-animation-timing-function: cubic-bezier(0, 0, 1, 1);animation-timing-function: cubic-bezier(0, 0, 1, 1);}#BJWgPiGxGm{fill: url(#SVGID_1_);}#rymlwifxz7{-webkit-clip-path: url(#SVGID_3_);clip-path: url(#SVGID_3_);}#rJExPiMgzm{fill: #57C2FF;}#ByIeDoGgzX{-webkit-clip-path: url(#SVGID_5_);clip-path: url(#SVGID_5_);}#BJDlDjMxGQ{fill: #40AFFF;}#BJdgDoGgM7{fill: #40AFFF;}#ByKgvjGefX{fill: #40AFFF;}#Hy5ewsMxMQ{fill: #40AFFF;}#r1jxviGgGX{fill: #40AFFF;}#HJ2lwiGeGX{fill: #40AFFF;}#BJpxviMxGQ{fill: #40AFFF;}#SJAePiGxMX{fill: #40AFFF;}#ByJeePiGgMQ{opacity: 0.34;fill: #00C7EC;enable-background: new;}#S1ZgevofezX{fill: none;stroke: #FFFFFF;stroke-width: 1.9344;stroke-linecap: round;stroke-miterlimit: 10;stroke-dasharray: 3.224,6.448;}#BkGxgDofgzm{fill: none;stroke: #FFFFFF;stroke-width: 1.9344;stroke-linecap: round;stroke-miterlimit: 10;stroke-dasharray: 3.224,6.448;}#rymlxvofeM7{fill: none;stroke: #FFFFFF;stroke-width: 1.9344;stroke-linecap: round;stroke-miterlimit: 10;stroke-dasharray: 3.224,6.448;}#B1EelDjflM7{fill: none;stroke: #FFFFFF;stroke-width: 1.9344;stroke-linecap: round;stroke-miterlimit: 10;stroke-dasharray: 3.224,6.448;}#SkSglPiMxzX{fill: none;stroke: #FFFFFF;stroke-width: 1.9344;stroke-linecap: round;stroke-miterlimit: 10;stroke-dasharray: 3.224,6.448;}#Hy8xlwoGeMm{fill: none;stroke: #FFFFFF;stroke-width: 1.9344;stroke-linecap: round;stroke-miterlimit: 10;stroke-dasharray: 3.224,6.448;}#r1DegwoflGX{fill: none;stroke: #FFFFFF;stroke-width: 1.9344;stroke-linecap: round;stroke-miterlimit: 10;stroke-dasharray: 3.224,6.448;}#ryuleviMef7{fill: #FFFFFF;}#H1texvifgfm{fill: none;stroke: #FFFFFF;stroke-width: 1.9344;stroke-linecap: round;stroke-miterlimit: 10;stroke-dasharray: 3.224,6.448;}#HJcxlvoGeGX{fill: none;stroke: #FFFFFF;stroke-width: 1.9344;stroke-linecap: round;stroke-miterlimit: 10;stroke-dasharray: 3.224,6.448;}#r1sggDjzxG7{fill: none;stroke: #FFFFFF;stroke-width: 1.9344;stroke-linecap: round;stroke-miterlimit: 10;stroke-dasharray: 3.224,6.448;}#BynggDjzgMm{fill: none;stroke: #FFFFFF;stroke-width: 1.9344;stroke-linecap: round;stroke-miterlimit: 10;stroke-dasharray: 3.224,6.448;}#r1allvjGeGX{fill: none;stroke: #FFFFFF;stroke-width: 1.9344;stroke-linecap: round;stroke-miterlimit: 10;stroke-dasharray: 3.224,6.448;}#S1CllvozxzX{fill: #FFFFFF;}#BkJblPoMgM7{fill: #FFFFFF;}#SylZePiMxM7{fill: #FFFFFF;}#H1bbgPjMeMQ{fill: #FFFFFF;}#Hkz-lviGlG7{fill: #FFFFFF;}#rk7blDiMxzQ{fill: #FFFFFF;}#B1EZlviGez7{fill: #FFFFFF;}#S1rbgwoMgMQ{fill: #FFFFFF;}#SJPZxvsMlzm{fill: #E3B319;}#ryubgDjzlzX{fill: #FECF37;}#SJYbgDoMezm{fill: #E3B319;}#S15WgDjGgf7{fill: #E3B319;}#BJsZxwiflzQ{fill: none;stroke: #B89114;stroke-width: 5.7444;stroke-miterlimit: 10;}#BJn-lvsflG7{fill: none;stroke: #FEFFD1;stroke-width: 5.7444;stroke-miterlimit: 10;}#rk0blvoGlMQ{fill: none;stroke: #FFFFFF;stroke-width: 1.9125;stroke-linecap: round;stroke-miterlimit: 10;stroke-dasharray: 3.1875,6.3749;}#S1JfgPiGlGm{fill: #FED537;}#HkgMlDjGlMQ{fill: #FE9237;}#H1bMxvszefQ{fill: #FE7637;}#ryzMgPiGlf7{fill: #FEBC37;}#S17GewoGgzm{fill: none;stroke: #FE7137;stroke-width: 0.6183;stroke-linejoin: round;}#BJEGlDjGgfQ{fill: none;stroke: #FE7137;stroke-width: 0.6183;stroke-linejoin: round;}#S1SzlPjzeG7{fill: #FEFFD1;}#BkUGgwszgMm{fill: #FFFFFF;}#rJ_MxPszxfm{fill: #FED537;}#SJKGxvjzeMm{fill: #FE9237;}#Hk5GlPoMxz7{fill: #FE7637;}#rJjMxPjzlM7{fill: #FEBC37;}#ryhfgPsflfX{fill: none;stroke: #FE7137;stroke-width: 0.6183;stroke-linejoin: round;}#Bk6flDiGezQ{fill: none;stroke: #FE7137;stroke-width: 0.6183;stroke-linejoin: round;}#BJAfxDjzlfX{fill: #FEFFD1;}#rJxmewofezX{fill: #FED537;}#Syb7gvsMgGX{fill: #FE9237;}#SkGmevsGlMm{fill: #FE7637;}#H1QmgDiflz7{fill: #FEBC37;}#HkNQgPoMgGQ{fill: none;stroke: #FE7137;stroke-width: 0.6183;stroke-linejoin: round;}#rkHQlDozgMX{fill: none;stroke: #FE7137;stroke-width: 0.6183;stroke-linejoin: round;}#H1L7lDsMgf7{fill: #FEFFD1;}#Hyu7eDozlzm{fill: #FFFFFF;}#B1KQgwjGezQ{fill: #FED537;}#rkc7xviGxMX{fill: #FE9237;}#HJimxPoMxGm{fill: #FE7637;}#r12XgDjMeGX{fill: #FEBC37;}#HJ6XevizlM7{fill: none;stroke: #FE7137;stroke-width: 0.6219;stroke-linejoin: round;}#rJC7xDizlfQ{fill: none;stroke: #FE7137;stroke-width: 0.6219;stroke-linejoin: round;}#SykVewofxG7{fill: #FEFFD1;}#ByWExwiGxM7{fill: #FED537;}#SkMExwizxzQ{fill: #FE9237;}#rJXVePsMgGm{fill: #FE7637;}#HkVEgvszlGm{fill: #FEBC37;}#HkS4evjMezX{fill: none;stroke: #FE7137;stroke-width: 0.6219;stroke-linejoin: round;}#S1UVePiMxM7{fill: none;stroke: #FE7137;stroke-width: 0.6219;stroke-linejoin: round;}#SkvExwoGxz7{fill: #FEFFD1;}#HytNxvoMxzm{fill: #FED537;}#r1q4xPsGgzX{fill: #FE9237;}#r1iExPszlz7{fill: #FE7637;}#S1hVxwjGgGX{fill: #FEBC37;}#rya4lwsMxGQ{fill: #FEFFD1;}#BkCVlvsGxM7{fill: none;stroke: #FE7137;stroke-width: 0.629;stroke-linejoin: round;}#ByJHlwiGgf7{fill: none;stroke: #FE7137;stroke-width: 0.629;stroke-linejoin: round;}#B1WSgwizgM7{fill: #E3B319;}#BkfBeDjzlfX{fill: #FECF37;}#SymHlPizgMQ{fill: #E3B319;}#Hy4BgDoMlMX{fill: none;stroke: #B89114;stroke-width: 5.8686;stroke-miterlimit: 10;}#SyrSlPsMgzX{fill: none;stroke: #FEFFD1;stroke-width: 5.8686;stroke-miterlimit: 10;}#BkwrlvifxzX{fill: #E3B319;}#ryOSgDozezm{fill: #FECF37;}#BytSgviGeMm{fill: #E3B319;}#r1cHlPoflz7{fill: none;stroke: #B89114;stroke-width: 5.8021;stroke-miterlimit: 10;}#HJsrlwsflG7{fill: none;stroke: #FEFFD1;stroke-width: 5.8021;stroke-miterlimit: 10;}#Hy2SxwsfgfX{fill: none;stroke: #FEFFD1;stroke-width: 5.8021;stroke-miterlimit: 10;}#BkRrxvsfgGQ{fill: #E3B319;}#r1gIlwsfgM7{fill: #E3B319;}#ByZIxPiMez7{fill: #FECF37;}#SkMIxDozgMQ{fill: #E3B319;}#S178evsfgGQ{fill: none;stroke: #B89114;stroke-width: 5.7444;stroke-miterlimit: 10;}#rkN8ewjMlMQ{fill: none;stroke: #FEFFD1;stroke-width: 5.7444;stroke-miterlimit: 10;}#SJHIevofxM7{fill: none;stroke: #FEFFD1;stroke-width: 5.7444;stroke-miterlimit: 10;}#BJvIlwiMeGm{fill: #E3B319;}#B1OLevjGgMX{fill: #FECF37;}#BJFUgPizxf7{fill: #E3B319;}#r1qUxvjfgzX{fill: none;stroke: #B89114;stroke-width: 5.8021;stroke-miterlimit: 10;}#SJiLlPjzgMX{fill: none;stroke: #FEFFD1;stroke-width: 5.8021;stroke-miterlimit: 10;}#r1U8evoMxMm_r19WINgzQ{-webkit-animation-name: r1U8evoMxMm_r19WINgzQ_Animation;animation-name: r1U8evoMxMm_r19WINgzQ_Animation;-webkit-transform-origin: 50% 50%;transform-origin: 50% 50%;transform-box: fill-box;}#SJarePizgM7_rJGEUNgzQ{-webkit-animation-name: SJarePizgM7_rJGEUNgzQ_Animation;animation-name: SJarePizgM7_rJGEUNgzQ_Animation;-webkit-transform-origin: 50% 50%;transform-origin: 50% 50%;transform-box: fill-box;-webkit-animation-timing-function: cubic-bezier(0.42, 0, 0.58, 1);animation-timing-function: cubic-bezier(0.42, 0, 0.58, 1);}#H1LrlPiGef7_H1SDUVgMQ{-webkit-animation-name: H1LrlPiGef7_H1SDUVgMQ_Animation;animation-name: H1LrlPiGef7_H1SDUVgMQ_Animation;-webkit-transform-origin: 50% 50%;transform-origin: 50% 50%;transform-box: fill-box;-webkit-animation-timing-function: cubic-bezier(0.42, 0, 0.58, 1);animation-timing-function: cubic-bezier(0.42, 0, 0.58, 1);}#HkeBeDizxMm_BJMTLVeMX{-webkit-transform-origin: 50% 50%;transform-origin: 50% 50%;transform-box: fill-box;-webkit-animation-name: HkeBeDizxMm_BJMTLVeMX_Animation;animation-name: HkeBeDizxMm_BJMTLVeMX_Animation;-webkit-animation-timing-function: cubic-bezier(0.42, 0, 0.58, 1);animation-timing-function: cubic-bezier(0.42, 0, 0.58, 1);}#ryd4xvsGeGX_SyI1PVgG7{-webkit-animation-name: ryd4xvsGeGX_SyI1PVgG7_Animation;animation-name: ryd4xvsGeGX_SyI1PVgG7_Animation;-webkit-transform-origin: 50% 50%;transform-origin: 50% 50%;transform-box: fill-box;}#rJeVgDiflGX_SyTlPElfQ{-webkit-animation-name: rJeVgDiflGX_SyTlPElfQ_Animation;animation-name: rJeVgDiflGX_SyTlPElfQ_Animation;-webkit-transform-origin: 50% 50%;transform-origin: 50% 50%;transform-box: fill-box;}#Hkw7ePsfxGX_By4Gw4gfX{-webkit-animation-name: Hkw7ePsfxGX_By4Gw4gfX_Animation;animation-name: Hkw7ePsfxGX_By4Gw4gfX_Animation;-webkit-transform-origin: 50% 50%;transform-origin: 50% 50%;transform-box: fill-box;}#By17ePszefX_S1A7w4xMQ{-webkit-animation-name: By17ePszefX_S1A7w4xMQ_Animation;animation-name: By17ePszefX_S1A7w4xMQ_Animation;-webkit-transform-origin: 50% 50%;transform-origin: 50% 50%;transform-box: fill-box;}#SkDfxwsfefm_B18SwExfX{-webkit-animation-name: SkDfxwsfefm_B18SwExfX_Animation;animation-name: SkDfxwsfefm_B18SwExfX_Animation;-webkit-transform-origin: 50% 50%;transform-origin: 50% 50%;transform-box: fill-box;}#ry6ZewoGxMQ_rJhUw4lf7{-webkit-animation-name: ry6ZewoGxMQ_rJhUw4lf7_Animation;animation-name: ry6ZewoGxMQ_rJhUw4lf7_Animation;-webkit-transform-origin: 50% 50%;transform-origin: 50% 50%;transform-box: fill-box;}#SJIWewsMeMm_B1BOvVeMQ{-webkit-animation-name: SJIWewsMeMm_B1BOvVeMQ_Animation;animation-name: SJIWewsMeMm_B1BOvVeMQ_Animation;-webkit-transform-origin: 50% 50%;transform-origin: 50% 50%;transform-box: fill-box;}#r1U8evoMxMm{-webkit-animation-name: r1U8evoMxMm_Animation;animation-name: r1U8evoMxMm_Animation;-webkit-transform-origin: 50% 50%;transform-origin: 50% 50%;transform-box: fill-box;-webkit-animation-timing-function: cubic-bezier(0.42, 0, 0.58, 1);animation-timing-function: cubic-bezier(0.42, 0, 0.58, 1);}#ryd4xvsGeGX{-webkit-animation-name: ryd4xvsGeGX_Animation;animation-name: ryd4xvsGeGX_Animation;-webkit-transform-origin: 50% 50%;transform-origin: 50% 50%;transform-box: fill-box;}#Hkw7ePsfxGX{-webkit-animation-name: Hkw7ePsfxGX_Animation;animation-name: Hkw7ePsfxGX_Animation;-webkit-transform-origin: 50% 50%;transform-origin: 50% 50%;transform-box: fill-box;}#By17ePszefX{-webkit-animation-name: By17ePszefX_Animation;animation-name: By17ePszefX_Animation;-webkit-transform-origin: 50% 50%;transform-origin: 50% 50%;transform-box: fill-box;}#SkDfxwsfefm{-webkit-animation-name: SkDfxwsfefm_Animation;animation-name: SkDfxwsfefm_Animation;-webkit-transform-origin: 50% 50%;transform-origin: 50% 50%;transform-box: fill-box;}#ry6ZewoGxMQ{-webkit-animation-name: ry6ZewoGxMQ_Animation;animation-name: ry6ZewoGxMQ_Animation;-webkit-transform-origin: 50% 50%;transform-origin: 50% 50%;transform-box: fill-box;}#rJeVgDiflGX{-webkit-animation-name: rJeVgDiflGX_Animation;animation-name: rJeVgDiflGX_Animation;-webkit-transform-origin: 50% 50%;transform-origin: 50% 50%;transform-box: fill-box;}</style>

<g id="SyxlDiGxz7">
	
		<radialGradient id="SVGID_1_" cx="299.5" cy="-416.2" r="535.2991" gradientTransform="matrix(1 0 0 1 0 716)" gradientUnits="userSpaceOnUse">
		<stop offset="0.26" style="stop-color:#B3EAF8"/>
		<stop offset="0.73" style="stop-color:#FFFFFF;stop-opacity:0"/>
		<stop offset="0.75" style="stop-color:#FFFFFF;stop-opacity:0"/>
	</radialGradient>
	<circle cx="299.5" cy="299.8" r="298.5" id="BJWgPiGxGm"/>
	<g id="SJGevjGezX">
		<defs>
			<circle id="SVGID_2_" cx="299.5" cy="308.5" r="228.3"/>
		</defs>
		<clipPath id="SVGID_3_">
			<use xlink:href="#SVGID_2_" style="overflow:visible;"/>
		</clipPath>
		<g id="rymlwifxz7">
			<circle cx="299.5" cy="308.5" r="228.3" id="rJExPiMgzm"/>
			<g id="rJSePsGxGX">
				<defs>
					<circle id="SVGID_4_" cx="298.4" cy="305.5" r="230.4"/>
				</defs>
				<clipPath id="SVGID_5_">
					<use xlink:href="#SVGID_4_" style="overflow:visible;"/>
				</clipPath>
				<g id="ByIeDoGgzX">
					<path d="M97,184.3c-2.6,19,3.9,28.9,0,38.1c-3.9,9.2-8.5,25.6-4.6,36.8c3.9,11.2,9.9,35.5,15.1,36.2&#10;&#9;&#9;&#9;&#9;&#9;&#9;c5.3,0.7-4-26.3,1.3-17.7c5.3,8.5,5.3,21.3,14.5,30s21.7,7.5,31.6,16c9.9,8.5,19.7,21.1,28.9,19.7c0,0-0.7,6.6-5.3,17.7&#10;&#9;&#9;&#9;&#9;&#9;&#9;c-4.6,11.2-5.3,24.3,0.7,32.2c5.9,7.9,11.8,19.7,17.1,25.6c5.3,5.9,9.2,37.5,7.9,53.3c-1.3,15.8,5.9,51.3,22.4,59.1&#10;&#9;&#9;&#9;&#9;&#9;&#9;s0-3.9-3.3-13.8c-3.3-9.9,2.5-32.9,10.5-36.2c7.9-3.3,15.2-16.4,21.1-25.6c5.9-9.2,21.1-13.2,25.6-24.3&#10;&#9;&#9;&#9;&#9;&#9;&#9;c4.6-11.2,2.6-24.3,5.3-30.3c2.6-5.9,9.9-19-5.9-26.9c-15.8-7.9-22.4-3.9-23-11.2c-0.7-7.2-4.6-15.1-15.8-18.4&#10;&#9;&#9;&#9;&#9;&#9;&#9;c-11.2-3.3-21.1-9.7-33.5-11.1c-12.5-1.4-15.1,8.4-21.7,3.2s-11.8-10.5-14.5-17.1c-2.6-6.6-10.5-2.6-9.9-6.6&#10;&#9;&#9;&#9;&#9;&#9;&#9;s11.2-15.1-0.7-11.2c-11.8,3.9-22.4,2.6-21.7-7.9c0.7-10.5,15.1-14.5,21.1-15.8c5.9-1.3,10.5,5.9,17.7,10.5&#10;&#9;&#9;&#9;&#9;&#9;&#9;c7.2,4.6,0.7-6.6,4.6-14.5c3.9-7.9,19-7.2,21.1-18.4c2-11.2-0.7-20.4,11.2-21.7c11.8-1.3,24.3,0.7,25.6-5.3&#10;&#9;&#9;&#9;&#9;&#9;&#9;c1.3-5.9-13.8,2-14.5-5.3c-0.7-7.2,13.2-17.1,17.1-9.9c3.9,7.2,13.8,7.9,15.1,5.3c1.3-2.6,0-7.2-4.6-18.4&#10;&#9;&#9;&#9;&#9;&#9;&#9;c-4.6-11.2-9.2-7.9-13.2-20.4c-4-12.5-10.5,0.7-17.1-5.9c-6.6-6.6-14.5-20.4-15.8-8.5c-1.3,11.8-1.3,18.4-7.2,27.6&#10;&#9;&#9;&#9;&#9;&#9;&#9;c-5.9,9.2-8.5,2-13.8-3.9c-5.3-5.9-17.1-11.8-13.2-17.1c4-5.3,7.9-19,13.8-15.1c5.9,4,15.1,3.9,13.8-2.6&#10;&#9;&#9;&#9;&#9;&#9;&#9;c-1.3-6.6,0-9.2,2.6-12.5c2.6-3.3,11.9-9.2,11.9,2.6c0,11.9-1.3,15.1,7.9,16.4c9.2,1.3,19.7,2,19-3.9c-0.7-5.9,2.6-4.6,0-14.5&#10;&#9;&#9;&#9;&#9;&#9;&#9;c-2.6-9.9-10.5-10.5-19-15.1c-8.5-4.6-13.2-11.8-20.4-9.2s-7.9,5.3-8.5,12.5c-0.7,7.2-4.6,9.9-7.2,6.6&#10;&#9;&#9;&#9;&#9;&#9;&#9;c-2.6-3.3,0.7-13.8-9.2-7.2c-9.9,6.6-13.8,17.7-19,9.9c-5.3-7.9,7.9-21.7-5.9-15.8c-13.8,5.9-23.7,12.5-16.4,15.1&#10;&#9;&#9;&#9;&#9;&#9;&#9;s14.5,7.2,7.2,9.9c-7.2,2.6-21.7-2-26.9,3.3C111.4,158,97,184.3,97,184.3z" id="BJDlDjMxGQ"/>
					<path d="M174.5,113.3c0,7.3,2,13.2,8.5,6.6c6.6-6.6,10.5-14.5,15.1-11.2c4.6,3.3,12.5,2.4,15.8,2.2&#10;&#9;&#9;&#9;&#9;&#9;&#9;c3.3-0.2,4-10.1,13.2-8.8c9.2,1.3,5.9-2,15.8-7.2c9.9-5.3,30.9-14.5,9.2-11.8s-23-3.3-38.1,6.6c-15.1,9.9-18.4,9.9-22.4,12.5&#10;&#9;&#9;&#9;&#9;&#9;&#9;c-3.9,2.6-8.5-7.9-13.8,0S174.6,105.8,174.5,113.3z" id="BJdgDoGgM7"/>
					<path d="M253.1,92.9c-7.7,6.7-19.7,16.4-10.5,16.4c9.2,0,13.7-4.8,18.7,1.5c5,6.3,3,16.2,3,20.8&#10;&#9;&#9;&#9;&#9;&#9;&#9;c0,4.6-2.6,15.1,4,28.3c6.6,13.2,7.2,21.7,13.8,13.2c6.6-8.5,22.4-25,30.3-26.3c7.9-1.3,15.8-4.6,19.7-11.2&#10;&#9;&#9;&#9;&#9;&#9;&#9;c4-6.6,0-12.9,6.6-17.6c6.6-4.7,5.3-10.6,7.2-17.8c2-7.2,19.7-7.2,11.8-11.2c-7.9-4-22.4-6.6-39.4-4.6&#10;&#9;&#9;&#9;&#9;&#9;&#9;C301.2,86.4,267.6,80.4,253.1,92.9z" id="ByKgvjGefX"/>
					<path d="M181.1,296c-4.2,6.8-2,7.2,2.6,8.5c4.6,1.3-2,9.2,3.3,9.9c5.3,0.7,17.1,4,20.4,0s-5.3-2.4-11.2-6.8&#10;&#9;&#9;&#9;&#9;&#9;&#9;C190.3,303.3,184.1,291.2,181.1,296z" id="Hy5ewsMxMQ"/>
					<path d="M499.3,403.2c-7.1,3.5-4,9.2-10.5,13.2c-6.6,4-3.9,5.3-5.9,14.5c-2,9.2,0.7,14.5,5.3,7.2&#10;&#9;&#9;&#9;&#9;&#9;&#9;C492.7,430.8,507.2,399.2,499.3,403.2z" id="r1jxviGgGX"/>
					<path d="M536.8,292.8c-2-11.2-16.4-112.4-16.4-112.4s-38.8-25-45.4-19.7c-6.6,5.3-17.7,4.5-16.4-0.7&#10;&#9;&#9;&#9;&#9;&#9;&#9;c1.3-5.2,9.9-3.9-4.6-13.7c-14.5-9.9-17.1-18.4-28.2-5.9c-11.2,12.5-13.8,23-20.4,26.3c-6.6,3.3-11.8,13.8-4.6,16.4&#10;&#9;&#9;&#9;&#9;&#9;&#9;c7.2,2.6,7.9,0,13.8,5.3c5.9,5.3,13.8,4,15.1,0.7c1.3-3.3,2.6-13.8,3.3-17.7c0.7-4,7.3-17.1,6.6-6.6&#10;&#9;&#9;&#9;&#9;&#9;&#9;c-0.7,10.5,9.2,10.5,2.6,17.7c-6.6,7.2-2.6,13.2-15.8,14.5c-13.2,1.3-13.8-6.6-21.1-2.6c-7.2,4-6.6,6.6-9.2,10.5&#10;&#9;&#9;&#9;&#9;&#9;&#9;c-2.6,3.9-16.4,11.8-16.4,11.8s-11.2-4-5.9,3.3c5.3,7.2,9.9,15.8,5.3,16.4c-4.6,0.7-17.1-6.6-17.1,1.3c0,7.9-1.9,16.4,3.3,18.4&#10;&#9;&#9;&#9;&#9;&#9;&#9;c3.7,1.4,6.1,4.4,9.5,4c-2.7,1.1-5.1,2.9-6.9,5.2c-5.1,6.7-2,18.4-12.5,22.4c-10.5,3.9-10.5,8.5-12.5,17.1&#10;&#9;&#9;&#9;&#9;&#9;&#9;c-2,8.5,0,30.3,2.6,32.3s7.2,18.4,18.4,17.1c11.2-1.3,23-1.8,26.9,0.1c4,1.9,10.5-4,12.5,11.1c2,15.1,6.6,17.1,9.2,25&#10;&#9;&#9;&#9;&#9;&#9;&#9;c2.6,7.9-1.3,24.3,0,34.2c1.3,9.9,10.5,26.9,10.5,35.5c0,8.5,9.9,12.5,15.1,9.2s16.4-9.9,21.1-20.4&#10;&#9;&#9;&#9;&#9;&#9;&#9;c4.6-10.5,4.6-15.8,11.8-29.6c7.2-13.8,5.3-23.7,8.5-34.2s11.2-17.7,22-29.6c10.8-11.8,8.9-18.4,0-17.7&#10;&#9;&#9;&#9;&#9;&#9;&#9;c-8.9,0.7-14.8-7.9-19.4-18.4c-4.6-10.5-9.9-36.8-5.9-28.3s11.8,32.3,19.7,36.1c7.9,3.9,22.4-6.7,25.6-10.6&#10;&#9;&#9;&#9;&#9;&#9;&#9;c3.3-3.9,2-15.1-6.6-19.7c-8.5-4.6-3.3-8.5,5.3-3.3C528.9,298.6,538.7,303.9,536.8,292.8z M467.1,264.5&#10;&#9;&#9;&#9;&#9;&#9;&#9;c-0.7,5.3,2,13.8-12.5,10.5c-14.5-3.3-14.5-11.2-20.4-5.3c-5.9,5.9-13.2,11.2-21.7,2s-7.2-11.8-11.8-12.5&#10;&#9;&#9;&#9;&#9;&#9;&#9;c-3.3-0.5-14.2-2.9-23.3-0.2c0.8-0.5,1.6-1.1,2.3-1.7c6.6-5.9,5.3-7.9,12.5-14.5s12.5-12.5,17.7-6.6&#10;&#9;&#9;&#9;&#9;&#9;&#9;c5.3,5.9,16.4,7.2,12.5,13.8c-4,6.6-1.3,10.5,3.3,6.6c4.6-3.9,11.2-6.6,6.6-11.8c-4.6-5.3-9.2-19-2.6-9.9&#10;&#9;&#9;&#9;&#9;&#9;&#9;c6.6,9.2,8.5,13.8,12.5,19c4,5.3,7.9,8.5,9.2,5.3c1.3-3.3-0.7-10.5,1.3-11.8c1.9-1.3,0,11.2,5.9,11.8&#10;&#9;&#9;&#9;&#9;&#9;&#9;C464.4,259.8,467.7,259.2,467.1,264.5z M482.2,242.1c-4.6-2.6-13.1,0-23.7,3.3c-10.5,3.3-2.1-7.3,2.6-14.5&#10;&#9;&#9;&#9;&#9;&#9;&#9;c4.2-6.4,1.9,2,11.2,2.6C481.6,234.3,486.8,244.8,482.2,242.1L482.2,242.1z M505.2,262.5c-2,2-5.3-9.2-7.2-14.5&#10;&#9;&#9;&#9;&#9;&#9;&#9;c-2-5.3-1.9-14.4,3.6-19.5c6.9-6.3,3.6,8.3,3.6,16.2S507.2,260.5,505.2,262.5L505.2,262.5z" id="HJ2lwiGeGX"/>
					<path d="M378.3,182.3c-4,1.2-7.2,9.2-5.3,13.2s-2-2-7.2,1.3s-13.1,12.5-5.9,13.2c7.2,0.7,5.9-5.3,12.5-2.6&#10;&#9;&#9;&#9;&#9;&#9;&#9;c6.6,2.6,13.8,2,13.8-4.6C386.2,196.1,384.9,180.3,378.3,182.3z" id="BJpxviMxGQ"/>
					<path d="M335.6,152c-4,0.6-5.3,10.5,3.3,11.8c7.7,1.2,24-1.9,18.2-7.2C351.4,151.4,344.8,150.7,335.6,152z" id="SJAePiGxMX"/>
				</g>
			</g>
			<path d="M418.4,113.6c28.2,38.9,43.4,85.8,43.3,133.8c0,126.1-102.2,228.3-228.3,228.3c-42,0-83.1-11.5-118.9-33.4&#10;&#9;&#9;&#9;&#9;c41.5,57.2,108.9,94.5,185,94.5c126.1,0,228.3-102.2,228.3-228.3C527.8,226,484,153.7,418.4,113.6z" id="ByJeePiGgMQ"/>
			<g id="HJgxeDszgMm">
				<path d="M355.5,209.9c13.8,0.4,26.8,1.4,37.9,3.4" id="S1ZgevofezX"/>
				<path d="M289.6,212.2c21.5-1.7,44.7-2.8,66-2.2" id="BkGxgDofgzm"/>
				<path d="M242.7,217.3c13.3-1.8,29.5-3.6,46.8-5" id="rymlxvofeM7"/>
				<path d="M147.4,243.8c0,0,34.6-16.7,76.1-23.7c5.2-0.9,11.7-1.9,19.2-2.9" id="B1EelDjflM7"/>
				<path d="M147.4,243.8c0,0,33.7,108.4,76.4,172.4" id="SkSglPiMxzX"/>
				<path d="M147.4,243.8c80.9,50.3,121.6,63,208.3,81.4c18.5,2.9,34.3,3,47.7,1.5" id="Hy8xlwoGeMm"/>
				<path d="M283.5,448.7c23.2,0,64.1-27.3,98.5-96" id="r1DegwoflGX"/>
				<circle cx="148.3" cy="243.8" r="8.4" id="ryuleviMef7"/>
				<path d="M333.2,139.6c16.8-0.6,33.6-0.1,50.3,1.2" id="H1texvifgfm"/>
				<path d="M148.3,243.8c-5.9-18.4,26.7-73.1,116.2-95.1" id="HJcxlvoGeGX"/>
				<path d="M476.8,378c9-13,16.4-32.1,16.4-49.6" id="r1sggDjzxG7"/>
				<path d="M511.9,209.8c0,0,25,34-3.7,62.2" id="BynggDjzgMm"/>
				<path d="M70.3,321.3c-0.4,8.8,0.5,23.9,7.8,41.6c15.5,35.5,52.6,73.5,74.5,75.4" id="r1allvjGeGX"/>
				<path d="M265.3,153.7l6.3-7c0.3-0.3,0.3-0.7,0.1-1c-0.1-0.1-0.3-0.2-0.5-0.2l-9.2-2.2c-0.9-0.2-1.9,0.5-1.7,1.3&#10;&#9;&#9;&#9;&#9;&#9;l2.8,9.2C263.5,154.4,264.7,154.4,265.3,153.7z" id="S1CllvozxzX"/>
				<path d="M387.5,146.7l8.6-4c0.4-0.1,0.6-0.6,0.5-0.9c0-0.2-0.2-0.3-0.3-0.4l-7.6-5.6c-0.7-0.6-2-0.3-2.1,0.5l-1,9.6&#10;&#9;&#9;&#9;&#9;&#9;C385.6,146.5,386.7,147,387.5,146.7z" id="BkJblPoMgM7"/>
				<path d="M383.6,217.7l9.2-2.5c0.4,0,0.7-0.4,0.6-0.8c0-0.2-0.1-0.3-0.2-0.5l-6.6-6.8c-0.7-0.7-1.9-0.6-2.1,0.1&#10;&#9;&#9;&#9;&#9;&#9;l-2.6,9.3C381.7,217.2,382.7,218,383.6,217.7z" id="SylZePiMxM7"/>
				<path d="M217.8,418l7.9,5.2c0.3,0.3,0.7,0.2,1,0c0.1-0.1,0.2-0.3,0.2-0.5l0.8-9.4c0.1-0.9-0.8-1.8-1.5-1.5l-8.7,4.2&#10;&#9;&#9;&#9;&#9;&#9;C216.8,416.2,217,417.5,217.8,418z" id="H1bbgPjMeMQ"/>
				<path d="M383.2,362l-0.5-9.5c0-0.4-0.2-0.7-0.7-0.8c-0.2,0-0.4,0-0.5,0.1l-8,4.9c-0.8,0.5-1,1.7-0.3,2.1l8.5,4.5&#10;&#9;&#9;&#9;&#9;&#9;C382.3,363.9,383.2,363,383.2,362z" id="Hkz-lviGlG7"/>
				<path d="M473.6,372.7l0.8,9.4c0,0.4,0.3,0.7,0.7,0.7c0.2,0,0.4,0,0.5-0.2l7.8-5.2c0.8-0.5,0.9-1.8,0.3-2.1l-8.7-4.2&#10;&#9;&#9;&#9;&#9;&#9;C474.4,370.9,473.5,371.8,473.6,372.7z" id="rk7blDiMxzQ"/>
				<path d="M143.5,441.6l9.2-2.1c0.4,0,0.7-0.4,0.7-0.8c0-0.2-0.1-0.4-0.2-0.5l-6.2-7.1c-0.6-0.7-1.9-0.7-2.1,0l-3,9.2&#10;&#9;&#9;&#9;&#9;&#9;C141.5,441,142.5,441.8,143.5,441.6z" id="B1EZlviGez7"/>
				<path d="M506.8,264.7l-0.8,9.5c-0.1,0.4,0.2,0.8,0.6,0.9c0.2,0,0.4,0,0.6-0.1l8.6-3.8c0.8-0.4,1.2-1.6,0.7-2&#10;&#9;&#9;&#9;&#9;&#9;l-7.8-5.6C507.9,263,506.9,263.8,506.8,264.7z" id="S1rbgwoMgMQ"/>
			</g>
		</g>
	</g>
</g>
<g id="SJIWewsMeMm_B1BOvVeMQ" data-animator-group="true" data-animator-type="2"><g id="SJIWewsMeMm">
	<polygon points="427.9,120.9 424.3,120.9 401.3,132.8 401.3,159.9 423.8,171.8 427.3,171.8 450.9,159.9 450.9,132.7 &#9;&#10;&#9;&#9;" id="SJPZxvsMlzm"/>
	<polygon points="428.3,120.9 405.2,132.8 405.2,159.9 427.7,171.8 451.2,159.9 451.2,132.7 &#9;" id="ryubgDjzlzX"/>
	<path d="M428.3,122.5l21.5,11.1V159l-22.1,11.2l-21-11.1v-25.3L428.3,122.5 M428.3,120.9l-23,11.9v27.1l22.4,11.9&#10;&#9;&#9;l23.6-11.9v-27.2L428.3,120.9L428.3,120.9z" id="SJYbgDoMezm"/>
	<polygon points="401.3,132.8 406.5,133.5 406.5,158.8 401.3,159.9 &#9;" id="S15WgDjGgf7"/>
	<path d="M429.7,133.5c6.2,1.1,10.6,6.5,10.5,12.8c0,7.2-5.6,13-12.5,13c-6.9,0-12.5-5.8-12.5-13c0-7.2,5.6-13,12.5-13&#10;&#9;&#9;C428.4,133.3,429,133.4,429.7,133.5" id="BJsZxwiflzQ"/>
	<path d="M429.7,133.5c4.9,0.9,8.9,4.5,10.1,9.4" id="BJn-lvsflG7"/>
</g></g>
<g id="ry6ZewoGxMQ_rJhUw4lf7" data-animator-group="true" data-animator-type="0"><g id="ry6ZewoGxMQ">
	<path d="M76.2,267.9c-2.4-13.4,7.4-47.3,33.6-66.6" id="rk0blvoGlMQ"/>
	<polygon points="113.4,172.9 123.6,175.2 105,186.6 94.8,184.2 &#9;" id="S1JfgPiGlGm"/>
	<polygon points="93.1,208.7 94.8,184.2 105,186.6 103.3,211 &#9;" id="HkgMlDjGlMQ"/>
	<polygon points="110.7,217.6 93.1,208.7 103.3,211 120.9,221 &#9;" id="H1bMxvszefQ"/>
	<polygon points="123.6,175.2 140.8,185.2 139.1,209.6 120.9,221 103.3,211 105,186.6 &#9;" id="ryzMgPiGlf7"/>
	<polygon points="123.6,175.2 140.8,185.2 139.1,209.6 120.9,221 103.3,211 105,186.6 &#9;" id="S17GewoGgzm"/>
	<polygon points="94.8,184.2 113.4,172.9 123.6,175.2 123.6,175.2 140.8,185.2 139.1,209.6 120.9,221 110.7,217.6 &#10;&#9;&#9;93.1,208.7 &#9;" id="BJEGlDjGgfQ"/>
	<path d="M118.1,202.8c0-0.7,0.2-1.5,0.5-2.2c0.3-0.7,0.7-1.3,1.3-1.9c0.8-0.9,1.6-1.8,2.3-2.4s1.3-1.3,1.8-1.9&#10;&#9;&#9;c0.5-0.5,0.9-1.1,1.2-1.6c0.3-0.4,0.5-0.9,0.5-1.4c0.1-0.7-0.1-1.5-0.7-2c-0.6-0.4-1.4-0.5-2.1-0.3c-1.2,0.2-2.3,0.8-3.1,1.8&#10;&#9;&#9;c-0.7,0.8-1.2,1.8-1.3,2.9l-6.6,1c0.4-2.8,1.8-5.4,3.8-7.5c2-2,4.7-3.4,7.4-3.9c1.2-0.3,2.4-0.4,3.6-0.3c1,0.1,2,0.4,3,0.9&#10;&#9;&#9;c0.8,0.5,1.5,1.2,1.9,2.2c0.5,1.1,0.6,2.3,0.5,3.4c0,0.8-0.2,1.5-0.4,2.3c-0.2,0.7-0.6,1.5-1,2.1c-0.5,0.8-1.1,1.6-1.8,2.3&#10;&#9;&#9;c-0.7,0.8-1.6,1.7-2.7,2.7c-0.6,0.5-1.1,1.1-1.4,1.8c-0.2,0.5-0.4,1-0.5,1.5l-0.1,1.2l-6.4,1.3L118.1,202.8z M116.8,211&#10;&#9;&#9;c0-0.6,0.2-1.1,0.4-1.6c0.5-1.1,1.2-1.9,2.2-2.5c0.5-0.3,1-0.5,1.6-0.6c0.5-0.1,1-0.1,1.5,0c0.5,0.1,0.8,0.3,1.2,0.6&#10;&#9;&#9;c0.3,0.3,0.6,0.6,0.7,1.1c0.2,0.5,0.2,1,0.2,1.4c0,0.6-0.2,1.1-0.4,1.6s-0.6,1-0.9,1.4c-0.4,0.4-0.8,0.8-1.3,1.1&#10;&#9;&#9;c-0.5,0.3-1,0.5-1.6,0.6c-0.5,0.1-1,0.1-1.5,0c-0.5-0.1-0.8-0.3-1.2-0.6c-0.3-0.3-0.6-0.6-0.7-1.1&#10;&#9;&#9;C116.8,212.1,116.8,211.6,116.8,211L116.8,211z" id="S1SzlPjzeG7"/>
	<path d="M100,217.9l1.2-9.3c0.1-0.4-0.1-0.8-0.5-0.9c-0.2,0-0.4,0-0.6,0l-8.7,3.4c-0.9,0.3-1.3,1.5-0.7,2l7.5,5.9&#10;&#9;&#9;C98.8,219.5,99.8,218.8,100,217.9z" id="BkUGgwszgMm"/>
</g></g>
<g id="SkDfxwsfefm_B18SwExfX" data-animator-group="true" data-animator-type="0"><g id="SkDfxwsfefm">
	<polygon points="236.1,194.1 246.4,196.5 227.8,207.8 217.5,205.5 &#9;" id="rJ_MxPszxfm"/>
	<polygon points="215.8,229.9 217.5,205.5 227.8,207.8 226.1,232.2 &#9;" id="SJKGxvjzeMm"/>
	<polygon points="233.5,238.8 215.8,229.9 226.1,232.2 243.7,242.2 &#9;" id="Hk5GlPoMxz7"/>
	<polygon points="246.4,196.5 263.5,206.5 261.8,230.8 243.7,242.2 226.1,232.2 227.8,207.8 &#9;" id="rJjMxPjzlM7"/>
	<polygon points="246.4,196.5 263.5,206.5 261.8,230.8 243.7,242.2 226.1,232.2 227.8,207.8 &#9;" id="ryhfgPsflfX"/>
	<polygon points="217.5,205.5 236.1,194.1 246.4,196.5 246.4,196.5 263.5,206.5 261.8,230.8 243.7,242.2 233.5,238.8 &#10;&#9;&#9;215.8,229.9 &#9;" id="Bk6flDiGezQ"/>
	<path d="M240.8,224.1c0-0.7,0.2-1.5,0.5-2.2c0.3-0.7,0.7-1.3,1.3-1.9c0.8-0.9,1.6-1.8,2.3-2.4s1.3-1.3,1.8-1.9&#10;&#9;&#9;c0.5-0.5,0.9-1.1,1.2-1.6c0.3-0.4,0.5-0.9,0.5-1.4c0.1-0.7-0.1-1.5-0.7-2c-0.6-0.4-1.4-0.5-2.1-0.3c-1.2,0.2-2.3,0.8-3.1,1.7&#10;&#9;&#9;c-0.7,0.8-1.2,1.8-1.3,2.9l-6.6,0.9c0.4-2.8,1.8-5.4,3.8-7.5c2.1-2,4.7-3.3,7.5-3.9c1.2-0.3,2.4-0.4,3.6-0.3c1,0.1,2,0.4,3,0.9&#10;&#9;&#9;c0.8,0.5,1.5,1.2,1.9,2.2c0.5,1.1,0.6,2.3,0.5,3.4c0,0.8-0.2,1.5-0.4,2.3c-0.2,0.7-0.6,1.5-1,2.1c-0.5,0.8-1.1,1.6-1.8,2.3&#10;&#9;&#9;c-0.7,0.8-1.6,1.7-2.7,2.7c-0.6,0.5-1.1,1.1-1.4,1.8c-0.2,0.5-0.4,1-0.5,1.5l-0.1,1.2l-6.4,1.3L240.8,224.1z M239.5,232.3&#10;&#9;&#9;c0-0.6,0.2-1.1,0.4-1.6c0.5-1.1,1.2-1.9,2.2-2.5c0.5-0.3,1-0.5,1.6-0.6c0.5-0.1,1-0.1,1.5,0c0.5,0.1,0.8,0.3,1.2,0.6&#10;&#9;&#9;c0.3,0.3,0.6,0.6,0.7,1.1c0.2,0.5,0.2,1,0.2,1.4c0,0.6-0.2,1.1-0.4,1.6c-0.2,0.5-0.6,1-0.9,1.4c-0.4,0.4-0.8,0.8-1.3,1.1&#10;&#9;&#9;c-0.5,0.3-1,0.5-1.6,0.6c-0.5,0.1-1,0.1-1.5,0c-0.5-0.1-0.8-0.3-1.2-0.6c-0.3-0.3-0.6-0.6-0.7-1.1&#10;&#9;&#9;C239.5,233.2,239.5,232.7,239.5,232.3L239.5,232.3z" id="BJAfxDjzlfX"/>
</g></g>
<g id="By17ePszefX_S1A7w4xMQ" data-animator-group="true" data-animator-type="0"><g id="By17ePszefX">
	<polygon points="300.1,118.5 310.3,120.9 291.7,132.2 281.5,129.9 &#9;" id="rJxmewofezX"/>
	<polygon points="279.8,154.3 281.5,129.9 291.7,132.2 290,156.6 &#9;" id="Syb7gvsMgGX"/>
	<polygon points="297.4,163.3 279.8,154.3 290,156.6 307.6,166.6 &#9;" id="SkGmevsGlMm"/>
	<polygon points="310.3,120.9 327.5,130.9 325.8,155.2 307.6,166.6 290,156.6 291.7,132.2 &#9;" id="H1QmgDiflz7"/>
	<polygon points="310.3,120.9 327.5,130.9 325.8,155.2 307.6,166.6 290,156.6 291.7,132.2 &#9;" id="HkNQgPoMgGQ"/>
	<polygon points="281.5,129.9 300.1,118.5 310.3,120.9 310.3,120.9 327.5,130.9 325.8,155.2 307.6,166.6 297.4,163.3 &#10;&#9;&#9;279.8,154.3 &#9;" id="rkHQlDozgMX"/>
	<path d="M304.8,148.5c0-0.7,0.2-1.5,0.5-2.2c0.3-0.7,0.7-1.3,1.3-1.9c0.8-0.9,1.6-1.8,2.3-2.4&#10;&#9;&#9;c0.7-0.7,1.3-1.3,1.8-1.9c0.5-0.5,0.9-1.1,1.2-1.7c0.3-0.4,0.5-0.9,0.5-1.4c0.1-0.7-0.1-1.5-0.7-2c-0.6-0.4-1.4-0.5-2.1-0.3&#10;&#9;&#9;c-1.2,0.2-2.3,0.8-3.1,1.8c-0.7,0.8-1.2,1.8-1.3,2.9l-6.5,1c0.4-2.8,1.8-5.4,3.8-7.5c2.1-2,4.7-3.3,7.5-3.9&#10;&#9;&#9;c1.2-0.3,2.4-0.4,3.6-0.3c1,0.1,2,0.4,3,0.9c0.8,0.5,1.5,1.2,1.9,2.2c0.5,1.1,0.6,2.3,0.5,3.4c0,0.8-0.2,1.5-0.4,2.3&#10;&#9;&#9;c-0.2,0.7-0.6,1.5-1,2.1c-0.5,0.8-1.1,1.6-1.8,2.3c-0.7,0.8-1.6,1.7-2.7,2.7c-0.6,0.5-1.1,1.1-1.4,1.8c-0.2,0.5-0.4,1-0.5,1.5&#10;&#9;&#9;l-0.1,1.2l-6.4,1.3L304.8,148.5z M303.5,156.7c0-0.6,0.2-1.1,0.4-1.6c0.5-1.1,1.2-1.9,2.2-2.5c0.5-0.3,1-0.5,1.6-0.6&#10;&#9;&#9;c0.5-0.1,1-0.1,1.5,0c0.5,0.1,0.8,0.3,1.2,0.6c0.3,0.3,0.6,0.6,0.7,1.1c0.2,0.5,0.2,1,0.2,1.4c0,0.6-0.2,1.1-0.4,1.6&#10;&#9;&#9;s-0.6,1-0.9,1.4c-0.4,0.4-0.8,0.8-1.3,1.1c-0.5,0.3-1,0.5-1.6,0.6c-0.5,0.1-1,0.1-1.5,0c-0.5-0.1-0.8-0.3-1.2-0.6&#10;&#9;&#9;c-0.3-0.3-0.6-0.6-0.7-1.1C303.6,157.6,303.5,157.1,303.5,156.7L303.5,156.7z" id="H1L7lDsMgf7"/>
</g></g>
<g id="Hkw7ePsfxGX_By4Gw4gfX" data-animator-group="true" data-animator-type="0"><g id="Hkw7ePsfxGX">
	<path d="M172.3,325.5l7.8,5.2c0.3,0.3,0.8,0.2,1-0.1c0.1-0.1,0.2-0.3,0.2-0.5l0.8-9.4c0.1-0.9-0.8-1.8-1.5-1.5&#10;&#9;&#9;l-8.6,4.2C171.3,323.8,171.5,325,172.3,325.5z" id="Hyu7eDozlzm"/>
	<polygon points="190.7,327.3 201.1,329.6 182.4,341.1 172,338.7 &#9;" id="B1KQgwjGezQ"/>
	<polygon points="170.4,363.3 172,338.7 182.4,341.1 180.7,365.6 &#9;" id="rkc7xviGxMX"/>
	<polygon points="188.1,372.3 170.4,363.3 180.7,365.6 198.4,375.7 &#9;" id="HJimxPoMxGm"/>
	<polygon points="201.1,329.6 218.3,339.7 216.6,364.2 198.4,375.7 180.7,365.6 182.4,341.1 &#9;" id="r12XgDjMeGX"/>
	<polygon points="201.1,329.6 218.3,339.7 216.6,364.2 198.4,375.7 180.7,365.6 182.4,341.1 &#9;" id="HJ6XevizlM7"/>
	<polygon points="172,338.7 190.7,327.3 201.1,329.6 201.1,329.6 218.3,339.7 216.6,364.2 198.4,375.7 188.1,372.3 &#10;&#9;&#9;170.4,363.3 &#9;" id="rJC7xDizlfQ"/>
	<path d="M195.5,357.4c0-0.7,0.2-1.5,0.5-2.2s0.7-1.3,1.3-1.9c0.8-0.9,1.6-1.8,2.3-2.5c0.7-0.7,1.3-1.3,1.9-1.9&#10;&#9;&#9;c0.5-0.5,0.9-1.1,1.3-1.6c0.3-0.4,0.5-0.9,0.5-1.4c0.1-0.7-0.1-1.5-0.7-2c-0.6-0.4-1.4-0.5-2.1-0.3c-1.2,0.2-2.3,0.8-3.1,1.7&#10;&#9;&#9;c-0.7,0.8-1.2,1.8-1.3,2.9l-6.5,1c0.4-2.8,1.8-5.5,3.8-7.5c2.1-2,4.7-3.3,7.5-3.9c1.2-0.3,2.4-0.4,3.7-0.3c1,0.1,2,0.4,3,0.9&#10;&#9;&#9;c0.8,0.5,1.5,1.3,1.9,2.2c0.5,1.1,0.6,2.3,0.5,3.4c0,0.8-0.2,1.5-0.4,2.3c-0.2,0.7-0.6,1.5-1,2.1c-0.5,0.8-1.1,1.6-1.8,2.3&#10;&#9;&#9;c-0.7,0.8-1.6,1.7-2.7,2.7c-0.6,0.5-1.1,1.1-1.4,1.8c-0.2,0.5-0.4,1-0.5,1.5l-0.1,1.3l-6.4,1.3L195.5,357.4z M194.2,365.7&#10;&#9;&#9;c0-0.6,0.2-1.1,0.4-1.6c0.2-0.5,0.6-1,0.9-1.4s0.8-0.8,1.3-1.1c0.5-0.3,1-0.5,1.6-0.6c0.5-0.1,1-0.1,1.5,0c0.5,0.1,0.8,0.3,1.2,0.6&#10;&#9;&#9;c0.3,0.3,0.6,0.6,0.7,1.1c0.2,0.5,0.2,1,0.2,1.4c0,0.6-0.2,1.1-0.4,1.6c-0.2,0.5-0.6,1-0.9,1.4c-0.4,0.4-0.8,0.8-1.3,1.1&#10;&#9;&#9;c-0.5,0.3-1,0.5-1.6,0.6c-0.5,0.1-1,0.1-1.5,0c-0.5-0.1-0.8-0.3-1.2-0.6c-0.3-0.3-0.6-0.6-0.7-1.1&#10;&#9;&#9;C194.2,366.6,194.1,366.1,194.2,365.7L194.2,365.7z" id="SykVewofxG7"/>
</g></g>
<g id="rJeVgDiflGX_SyTlPElfQ" data-animator-group="true" data-animator-type="0"><g id="rJeVgDiflGX">
	<polygon points="381.4,295.9 391.7,298.3 373,309.7 362.7,307.3 &#9;" id="ByWExwiGxM7"/>
	<polygon points="361,331.9 362.7,307.3 373,309.7 371.3,334.2 &#9;" id="SkMExwizxzQ"/>
	<polygon points="378.8,340.9 361,331.9 371.3,334.2 389,344.3 &#9;" id="rJXVePsMgGm"/>
	<polygon points="391.7,298.3 409,308.3 407.3,332.8 389,344.3 371.3,334.2 373,309.7 &#9;" id="HkVEgvszlGm"/>
	<polygon points="391.7,298.3 409,308.3 407.3,332.8 389,344.3 371.3,334.2 373,309.7 &#9;" id="HkS4evjMezX"/>
	<polygon points="362.7,307.3 381.4,295.9 391.7,298.3 391.7,298.3 409,308.3 407.3,332.8 389,344.3 378.8,340.9 &#10;&#9;&#9;361,331.9 &#9;" id="S1UVePiMxM7"/>
	<path d="M386.2,326c0-0.7,0.2-1.5,0.5-2.2c0.3-0.7,0.7-1.3,1.3-1.9c0.8-0.9,1.6-1.8,2.3-2.5c0.7-0.7,1.3-1.3,1.9-1.9&#10;&#9;&#9;c0.5-0.5,0.9-1.1,1.2-1.6c0.3-0.4,0.5-0.9,0.5-1.4c0.1-0.7-0.1-1.5-0.7-2c-0.6-0.4-1.4-0.5-2.1-0.3c-1.2,0.2-2.3,0.8-3.1,1.7&#10;&#9;&#9;c-0.7,0.8-1.2,1.8-1.3,2.9l-6.5,1c0.4-2.8,1.8-5.5,3.8-7.5c2.1-2,4.7-3.3,7.5-3.9c1.2-0.3,2.4-0.4,3.7-0.3c1,0.1,2,0.4,3,0.9&#10;&#9;&#9;c0.8,0.5,1.5,1.3,1.9,2.2c0.5,1.1,0.6,2.3,0.5,3.4c0,0.8-0.2,1.5-0.4,2.3c-0.2,0.7-0.6,1.5-1,2.1c-0.5,0.8-1.1,1.6-1.8,2.3&#10;&#9;&#9;c-0.7,0.8-1.6,1.7-2.7,2.7c-0.6,0.5-1.1,1.1-1.4,1.8c-0.2,0.5-0.4,1-0.5,1.5l-0.1,1.2l-6.4,1.3L386.2,326z M384.9,334.3&#10;&#9;&#9;c0-0.6,0.2-1.1,0.4-1.6s0.6-1,0.9-1.4c0.4-0.4,0.8-0.8,1.3-1.1c0.5-0.3,1-0.5,1.6-0.6c0.5-0.1,1-0.1,1.5,0c0.5,0.1,0.8,0.3,1.2,0.6&#10;&#9;&#9;c0.3,0.3,0.6,0.6,0.7,1.1c0.2,0.5,0.2,1,0.2,1.4c0,0.6-0.2,1.1-0.4,1.6c-0.2,0.5-0.6,1-0.9,1.4c-0.4,0.4-0.8,0.8-1.3,1.1&#10;&#9;&#9;c-0.5,0.3-1,0.5-1.5,0.6c-0.5,0.1-1,0.1-1.5,0c-0.5-0.1-0.8-0.3-1.2-0.6c-0.3-0.3-0.6-0.6-0.7-1.1&#10;&#9;&#9;C384.9,335.3,384.8,334.8,384.9,334.3L384.9,334.3z" id="SkvExwoGxz7"/>
</g></g>
<g id="ryd4xvsGeGX_SyI1PVgG7" data-animator-group="true" data-animator-type="0"><g id="ryd4xvsGeGX">
	<polygon points="500.5,276.5 490.4,278.8 508.8,290 518.8,287.7 &#9;" id="HytNxvoMxzm"/>
	<polygon points="520.5,311.7 518.8,287.7 508.8,290 510.4,314 &#9;" id="r1q4xPsGgzX"/>
	<polygon points="503.1,320.5 520.5,311.7 510.4,314 493.1,323.8 &#9;" id="r1iExPszlz7"/>
	<polygon points="490.4,278.8 473.6,288.7 475.3,312.6 493.1,323.8 510.4,314 508.8,290 &#9;" id="S1hVxwjGgGX"/>
	<path d="M488.1,306c0-0.8,0-1.5,0.2-2.2c0.2-0.6,0.5-1.2,1-1.7c0.7-0.8,1.4-1.5,1.9-2c0.6-0.6,1.1-1.1,1.5-1.6&#10;&#9;&#9;c0.4-0.4,0.7-0.9,1-1.4c0.2-0.4,0.3-0.9,0.3-1.4c0-0.8-0.3-1.6-0.9-2.3c-0.6-0.5-1.3-0.8-2.1-0.8c-1-0.1-2.1,0.3-2.8,1.1&#10;&#9;&#9;c-0.6,0.8-1,1.7-1,2.7l-6.1-0.5c0.1-3.1,1.1-5.4,2.8-6.9c1.7-1.6,3.9-2.3,6.7-2.3c1.2,0,2.3,0.2,3.4,0.6c1.1,0.4,2.1,0.9,2.9,1.6&#10;&#9;&#9;c0.8,0.8,1.5,1.7,2.1,2.7c0.6,1.2,0.8,2.4,0.9,3.7c0,0.8,0,1.5-0.1,2.3c-0.1,0.7-0.4,1.4-0.7,2c-0.4,0.7-0.8,1.4-1.4,2&#10;&#9;&#9;c-0.7,0.8-1.5,1.5-2.3,2.2c-0.5,0.4-0.9,0.9-1.2,1.5c-0.2,0.5-0.3,1-0.2,1.5l0,1.3l-5.9-0.1L488.1,306z M487.8,314.3&#10;&#9;&#9;c0-0.5,0-1,0.2-1.5c0.1-0.5,0.4-0.9,0.7-1.3c0.3-0.4,0.7-0.7,1.1-0.8c0.4-0.2,0.9-0.3,1.4-0.3c0.5,0,1,0.1,1.5,0.3&#10;&#9;&#9;c0.5,0.2,0.8,0.5,1.2,0.8c0.3,0.4,0.6,0.8,0.8,1.3c0.2,0.5,0.3,1,0.3,1.5c0,0.5,0,1-0.2,1.5c-0.1,0.5-0.4,0.9-0.7,1.3&#10;&#9;&#9;c-0.3,0.4-0.7,0.7-1.1,0.8c-0.4,0.2-0.9,0.3-1.4,0.3c-0.5,0-1-0.1-1.5-0.3c-0.5-0.2-0.8-0.5-1.2-0.8c-0.4-0.4-0.7-0.8-0.8-1.3&#10;&#9;&#9;C487.9,315.3,487.8,314.8,487.8,314.3z" id="rya4lwsMxGQ"/>
	<polygon points="490.4,278.8 473.6,288.7 475.3,312.6 493.1,323.8 510.4,314 508.8,290 &#9;" id="BkCVlvsGxM7"/>
	<polygon points="518.8,287.7 500.5,276.5 490.4,278.8 490.4,278.8 473.6,288.7 475.3,312.6 493.1,323.8 503.1,320.5 &#10;&#9;&#9;520.5,311.7 &#9;" id="ByJHlwiGgf7"/>
</g></g>
<g id="HkeBeDizxMm_BJMTLVeMX" data-animator-group="true" data-animator-type="2"><g id="HkeBeDizxMm">
	<polygon points="429.4,190.8 425.7,190.8 401.7,202.8 401.7,229.9 425,241.9 428.8,241.9 453.4,229.9 453.4,202.7 &#9;" id="B1WSgwizgM7"/>
	<polygon points="429.7,190.8 405.8,202.8 405.8,229.9 429.1,241.9 453.7,229.9 453.7,202.7 &#9;" id="BkfBeDjzlfX"/>
	<path d="M429.7,192.4l22.5,11.2V229l-23.1,11.3L407.3,229v-25.4L429.7,192.4 M429.7,190.8l-23.9,12V230l23.3,12&#10;&#9;&#9;l24.6-12v-27.3L429.7,190.8L429.7,190.8z" id="SymHlPizgMQ"/>
	<path d="M432.4,203.5c7.1,1.2,11.9,7.8,10.8,15c-1.2,7.1-7.8,11.9-15,10.8c-7.1-1.2-11.9-7.8-10.8-15&#10;&#9;&#9;c1-6.3,6.5-10.9,12.9-10.9C431,203.3,431.7,203.4,432.4,203.5" id="Hy4BgDoMlMX"/>
	<path d="M432.4,203.5c7.1,1.2,11.9,7.8,10.8,15c-1.2,7.1-7.8,11.9-15,10.8c-3.1-0.5-6-2.1-8-4.6" id="SyrSlPsMgzX"/>
</g></g>
<g id="H1LrlPiGef7_H1SDUVgMQ" data-animator-group="true" data-animator-type="2"><g id="H1LrlPiGef7">
	<polygon points="456.3,380.2 452.5,380.2 428.9,392.1 428.9,419 451.9,430.8 455.7,430.8 479.9,419 479.9,392 &#9;" id="BkwrlvifxzX"/>
	<polygon points="456.6,380.2 432.9,392.1 432.9,419 456,430.8 480.3,419 480.3,392 &#9;" id="ryOSgDozezm"/>
	<path d="M456.6,381.9l22.2,11v25.2L456,429.2l-21.6-11.1V393L456.6,381.9 M456.6,380.2l-23.7,11.8V419l23.1,11.8&#10;&#9;&#9;l24.3-11.8v-27L456.6,380.2L456.6,380.2z" id="BytSgviGeMm"/>
	<path d="M454.4,393c0.9-0.2,1.8-0.3,2.7-0.3c0.7,0,1.4,0,2,0.2" id="r1cHlPoflz7"/>
	<path d="M459.2,392.8c7,1.2,11.8,7.8,10.6,14.8c-1.2,7-7.8,11.8-14.8,10.6c-7-1.2-11.8-7.8-10.6-14.8&#10;&#9;&#9;c0.8-5.2,4.8-9.4,10-10.5" id="HJsrlwsflG7"/>
	<path d="M459.2,392.8c7,1.2,11.8,7.8,10.7,14.8c-1.2,7-7.8,11.8-14.8,10.7c-3.1-0.5-5.9-2.1-7.9-4.5" id="Hy2SxwsfgfX"/>
</g></g>
<g id="SJarePizgM7_rJGEUNgzQ" data-animator-group="true" data-animator-type="2"><g id="SJarePizgM7">
	<polygon points="222.8,429.8 228,430.5 228,455.7 222.8,456.8 &#9;" id="BkRrxvsfgGQ"/>
	<g id="ByJLeDozlz7">
		<polygon points="249.4,417.8 245.8,417.8 222.8,429.8 222.8,456.8 245.2,468.8 248.9,468.8 272.4,456.8 272.4,429.7 &#10;&#9;&#9;&#9;&#9;&#9;" id="r1gIlwsfgM7"/>
		<polygon points="249.7,417.8 226.8,429.8 226.8,456.8 249.2,468.8 272.8,456.8 272.8,429.7 &#9;&#9;" id="ByZIxPiMez7"/>
		<path d="M249.7,419.5l21.5,11.1V456l-22.1,11.2l-21-11.2v-25.3L249.7,419.5 M249.7,417.8l-23,11.9v27.1l22.4,11.9&#10;&#9;&#9;&#9;l23.6-11.9v-27.2L249.7,417.8z" id="SkMIxDozgMQ"/>
		<path d="M237.9,437.5c2-4.3,6.4-7.1,11.2-7.1c0.6,0,1.3,0,2,0.2" id="S178evsfgGQ"/>
		<path d="M251.2,430.5c6.2,1.2,10.6,6.5,10.5,12.8c0,7.2-5.6,13-12.5,13c-6.9,0-12.5-5.8-12.5-13c0-2,0.5-4,1.3-5.8" id="rkN8ewjMlMQ"/>
		<path d="M251.2,430.5c4.9,0.9,8.9,4.5,10.1,9.4" id="SJHIevofxM7"/>
	</g>
</g></g>
<g id="r1U8evoMxMm_r19WINgzQ" data-animator-group="true" data-animator-type="0"><g id="r1U8evoMxMm">
	<polygon points="186.1,418.1 182.3,418.1 158.7,430 158.7,456.8 181.7,468.7 185.4,468.7 209.7,456.8 209.7,429.9 &#9;" id="BJvIlwiMeGm"/>
	<polygon points="186.4,418.1 162.7,430 162.7,456.8 185.8,468.7 210.1,456.8 210.1,429.9 &#9;" id="B1OLevjGgMX"/>
	<path d="M186.3,419.7l22.2,11V456L185.7,467L164.1,456v-25.1L186.3,419.7 M186.3,418.1L162.7,430v26.9l23.1,11.8&#10;&#9;&#9;l24.3-11.9v-27L186.3,418.1z" id="BJFUgPizxf7"/>
	<path d="M189,430.7c7,1.2,11.8,7.8,10.7,14.8c-1.2,7-7.8,11.8-14.8,10.7c-7-1.2-11.8-7.8-10.7-14.8&#10;&#9;&#9;c1-6.2,6.4-10.8,12.7-10.8C187.6,430.5,188.3,430.6,189,430.7" id="r1qUxvjfgzX"/>
	<path d="M189,430.7c7,1.2,11.8,7.8,10.7,14.8c-1.2,7-7.8,11.8-14.8,10.7c-3.1-0.5-5.9-2.1-7.9-4.5" id="SJiLlPjzgMX"/>
</g></g>
<script>(function(){var a=document.querySelector('#BJgPofxzm'),b=a.querySelectorAll('style'),c=function(d){b.forEach(function(f){var g=f.textContent;g&amp;&amp;(f.textContent=g.replace(/transform-box:[^;\r\n]*/gi,'transform-box: '+d))})};c('initial'),window.requestAnimationFrame(function(){return c('fill-box')})})();</script></svg>