<?xml version="1.0" encoding="utf-8"?>
<!-- Generator: Adobe Illustrator 22.0.0, SVG Export Plug-In . SVG Version: 6.00 Build 0)  -->
<svg version="1.1" id="Layer_1" xmlns="http://www.w3.org/2000/svg" xmlns:xlink="http://www.w3.org/1999/xlink" x="0px" y="0px"
	 viewBox="0 0 600 600" style="enable-background:new 0 0 600 600;" xml:space="preserve">
<style type="text/css">
	.st0{opacity:0.15;}
	.st1{fill:url(#SVGID_1_);}
	.st2{fill:#C6D4E8;}
	.st3{fill:#E1E9F5;}
	.st4{opacity:0.8;fill:#659BF8;}
	.st5{fill:#E2E7F1;}
	.st6{fill:#FFFFFF;}
	.st7{fill:#D4DAE9;}
	.st8{fill:#E2E7F1;stroke:#D4DAE9;stroke-width:0.5576;stroke-linecap:round;stroke-linejoin:round;stroke-miterlimit:10;}
	.st9{fill:#B7BFD7;}
	.st10{clip-path:url(#SVGID_3_);}
	.st11{clip-path:url(#SVGID_5_);}
	.st12{fill:#ECB54D;}
	.st13{fill:#F1CD37;}
	
		.st14{opacity:0.7;fill:none;stroke:#6499F6;stroke-width:5.858;stroke-linecap:round;stroke-linejoin:round;stroke-miterlimit:10;stroke-dasharray:10.2515;}
	.st15{clip-path:url(#SVGID_7_);}
	.st16{clip-path:url(#SVGID_9_);}
	
		.st17{opacity:0.7;fill:none;stroke:#6499F6;stroke-width:2.929;stroke-linecap:round;stroke-linejoin:round;stroke-miterlimit:10;stroke-dasharray:1.4645,4.3935;}
	.st18{fill:#EBB7AC;}
	.st19{opacity:0.3;}
	.st20{fill:#F4D9D5;}
	.st21{fill:#D44F65;}
</style>
<g id="XMLID_391_" class="st0">
	
		<linearGradient id="SVGID_1_" gradientUnits="userSpaceOnUse" x1="1379.5674" y1="387.7736" x2="1472.7666" y2="327.8598" gradientTransform="matrix(1 0 0 1 -1204.5488 0)">
		<stop  offset="0" style="stop-color:#000000"/>
		<stop  offset="1" style="stop-color:#000000;stop-opacity:0"/>
	</linearGradient>
	<polygon class="st1" points="202.3,423 345,343.9 253.7,291.8 126.6,353.5 	"/>
</g>
<g id="XMLID_13_">
	<path class="st2" d="M116.4,387.6l59.1,33.6c19.9,11.3,44.6-3,44.6-25.9V147.4c0-4.8-2.6-9.2-6.7-11.6l-91.8-53.3
		c-9-5.2-20.2,1.3-20.2,11.6v267.5C101.3,372.4,107.1,382.3,116.4,387.6z"/>
</g>
<g id="XMLID_8_">
	<path class="st3" d="M112,390l59.1,33.6c19.9,11.3,44.6-3,44.6-25.9V149.8c0-4.8-2.6-9.2-6.7-11.6L117.2,85
		c-9-5.2-20.2,1.3-20.2,11.6v267.5C97,374.8,102.7,384.7,112,390z"/>
</g>
<path id="XMLID_1_" class="st4" d="M85.4,364.1V137.6l118.7,66.1v194c0,22.9-24.7,37.2-44.6,25.9L100.5,390
	C91.2,384.7,85.4,374.8,85.4,364.1z"/>
<g id="XMLID_232_">
	<polygon id="XMLID_482_" class="st0" points="197.7,475.3 391.6,587.3 520.9,512.6 327,400.7 	"/>
	<g id="XMLID_859_">
		<polygon class="st5" points="327,388.6 520.9,500.6 520.9,313.9 327,202 		"/>
	</g>
	<polygon id="XMLID_858_" class="st6" points="331.5,386 331.5,209.8 516.4,316.5 516.4,492.7 	"/>
	<polygon id="XMLID_857_" class="st7" points="197.7,463.2 391.6,575.2 520.9,500.6 327,388.6 	"/>
	<polygon id="XMLID_856_" class="st8" points="262.9,500.5 327.5,537.8 367.1,514.9 302.4,477.6 	"/>
	<g id="XMLID_853_">
		<polygon class="st7" points="332.1,199.1 327,202 520.9,313.9 526,311 		"/>
	</g>
	<g id="XMLID_850_">
		<path class="st9" d="M523.9,503.4l-3,1.7V313.9l5.1-2.9l0,188.7C526,501.2,525.2,502.6,523.9,503.4z"/>
	</g>
	<g id="XMLID_847_">
		<polygon class="st9" points="391.6,579.8 391.6,575.2 520.9,500.6 520.9,505.1 		"/>
	</g>
	<g id="XMLID_844_">
		<polygon class="st5" points="197.7,467.8 197.7,463.2 391.6,575.2 391.6,579.8 		"/>
	</g>
	<g id="XMLID_769_">
		<polygon id="XMLID_843_" class="st8" points="369.1,418.5 355,426.7 369.1,434.8 383.2,426.7 		"/>
		<polygon id="XMLID_842_" class="st8" points="383.2,426.7 369.1,434.8 383.2,443 397.4,434.8 		"/>
		<polygon id="XMLID_841_" class="st8" points="397.4,434.8 383.2,443 397.4,451.2 411.5,443 		"/>
		<polygon id="XMLID_840_" class="st8" points="411.5,443 397.4,451.2 411.5,459.3 425.7,451.2 		"/>
		<polygon id="XMLID_839_" class="st8" points="425.7,451.2 411.5,459.3 425.7,467.5 439.8,459.3 		"/>
		<polygon id="XMLID_838_" class="st8" points="439.8,459.3 425.7,467.5 439.8,475.7 454,467.5 		"/>
		<polygon id="XMLID_837_" class="st8" points="355,426.7 340.8,434.8 355,443 369.1,434.8 		"/>
		<polygon id="XMLID_836_" class="st8" points="369.1,434.8 355,443 369.1,451.2 383.2,443 		"/>
		<polygon id="XMLID_835_" class="st8" points="383.2,443 369.1,451.2 383.2,459.3 397.4,451.2 		"/>
		<polygon id="XMLID_834_" class="st8" points="397.4,451.2 383.2,459.3 397.4,467.5 411.5,459.3 		"/>
		<polygon id="XMLID_833_" class="st8" points="439.8,475.7 425.7,467.5 411.5,459.3 397.4,467.5 411.5,475.7 411.5,475.7 
			425.7,483.8 		"/>
		<polygon id="XMLID_832_" class="st8" points="454.5,467 440.3,475.1 454.5,483.3 468.6,475.1 		"/>
		<polygon id="XMLID_831_" class="st8" points="468.6,475.1 454.5,483.3 468.6,491.5 482.8,483.3 		"/>
		<polygon id="XMLID_830_" class="st8" points="482.8,483.3 468.6,491.5 482.8,499.6 496.9,491.5 		"/>
		<polygon id="XMLID_829_" class="st8" points="440.3,475.1 426.2,483.3 440.3,491.5 454.5,483.3 		"/>
		<polygon id="XMLID_828_" class="st8" points="454.5,483.3 440.3,491.5 454.5,499.6 468.6,491.5 		"/>
		<polygon id="XMLID_827_" class="st8" points="468.6,491.5 454.5,499.6 468.6,507.8 482.8,499.6 		"/>
		<polygon id="XMLID_826_" class="st8" points="496.9,491.5 482.8,499.6 496.9,507.8 511.1,499.6 		"/>
		<polygon id="XMLID_825_" class="st8" points="482.8,499.6 468.6,507.8 482.8,516 496.9,507.8 		"/>
		<polygon id="XMLID_824_" class="st8" points="340.8,434.8 326.7,443 340.8,451.2 355,443 		"/>
		<polygon id="XMLID_823_" class="st8" points="355,443 340.8,451.2 355,459.3 369.1,451.2 		"/>
		<polygon id="XMLID_822_" class="st8" points="369.1,451.2 355,459.3 369.1,467.5 383.2,459.3 		"/>
		<polygon id="XMLID_821_" class="st8" points="383.2,459.3 369.1,467.5 383.2,475.7 397.4,467.5 		"/>
		<polygon id="XMLID_820_" class="st8" points="397.4,467.5 383.2,475.7 397.4,483.8 411.5,475.7 		"/>
		<polygon id="XMLID_819_" class="st8" points="411.5,475.7 397.4,483.8 411.5,492 425.7,483.8 		"/>
		<polygon id="XMLID_818_" class="st8" points="426.2,483.3 412,491.5 426.2,499.6 440.3,491.5 		"/>
		<polygon id="XMLID_817_" class="st8" points="440.3,491.5 426.2,499.6 440.3,507.8 454.5,499.6 		"/>
		<polygon id="XMLID_816_" class="st8" points="454.5,499.6 440.3,507.8 454.5,516 468.6,507.8 		"/>
		<polygon id="XMLID_815_" class="st8" points="468.6,507.8 454.5,516 468.6,524.1 482.8,516 		"/>
		<polygon id="XMLID_814_" class="st8" points="326.7,443 312.5,451.2 326.7,459.3 340.8,451.2 		"/>
		<polygon id="XMLID_813_" class="st8" points="340.8,451.2 326.7,459.3 340.8,467.5 355,459.3 		"/>
		<polygon id="XMLID_812_" class="st8" points="355,459.3 340.8,467.5 355,475.7 369.1,467.5 		"/>
		<polygon id="XMLID_811_" class="st8" points="369.1,467.5 355,475.7 369.1,483.8 383.2,475.7 		"/>
		<polygon id="XMLID_810_" class="st8" points="383.2,475.7 369.1,483.8 383.2,492 397.4,483.8 		"/>
		<polygon id="XMLID_809_" class="st8" points="397.4,483.8 383.2,492 397.4,500.2 411.5,492 		"/>
		<polygon id="XMLID_808_" class="st8" points="412,491.5 397.9,499.6 412,507.8 426.2,499.6 		"/>
		<polygon id="XMLID_807_" class="st8" points="426.2,499.6 412,507.8 426.2,516 440.3,507.8 		"/>
		<polygon id="XMLID_806_" class="st8" points="440.3,507.8 426.2,516 440.3,524.1 454.5,516 		"/>
		<polygon id="XMLID_805_" class="st8" points="454.5,516 440.3,524.1 454.5,532.3 468.6,524.1 		"/>
		<polygon id="XMLID_804_" class="st8" points="312.5,451.2 298.4,459.3 312.5,467.5 326.7,459.3 		"/>
		<polygon id="XMLID_803_" class="st8" points="326.7,459.3 312.5,467.5 326.7,475.7 340.8,467.5 		"/>
		<polygon id="XMLID_802_" class="st8" points="340.8,467.5 326.7,475.7 340.8,483.8 355,475.7 		"/>
		<polygon id="XMLID_801_" class="st8" points="355,475.7 340.8,483.8 355,492 369.1,483.8 		"/>
		<polygon id="XMLID_800_" class="st8" points="383.2,492 369.1,483.8 355,492 369.1,500.2 383.2,508.3 397.4,500.2 		"/>
		<polygon id="XMLID_799_" class="st8" points="397.9,499.6 383.7,507.8 397.9,516 412,507.8 		"/>
		<polygon id="XMLID_798_" class="st8" points="412,507.8 397.9,516 412,524.1 426.2,516 		"/>
		<polygon id="XMLID_797_" class="st8" points="426.2,516 412,524.1 426.2,532.3 440.3,524.1 		"/>
		<polygon id="XMLID_796_" class="st8" points="440.3,524.1 426.2,532.3 440.3,540.5 454.5,532.3 		"/>
		<polygon id="XMLID_795_" class="st8" points="355,410.3 340.8,418.5 355,426.7 369.1,418.5 		"/>
		<polygon id="XMLID_794_" class="st8" points="340.8,418.5 326.7,426.7 340.8,434.8 355,426.7 		"/>
		<polygon id="XMLID_793_" class="st8" points="326.7,426.7 312.5,434.8 326.7,443 340.8,434.8 		"/>
		<polygon id="XMLID_792_" class="st8" points="312.5,434.8 298.4,443 312.5,451.2 326.7,443 		"/>
		<polygon id="XMLID_791_" class="st8" points="298.4,443 284.2,451.2 298.4,459.3 312.5,451.2 		"/>
		<polygon id="XMLID_790_" class="st8" points="340.8,402.1 326.7,410.3 340.8,418.5 355,410.3 		"/>
		<polygon id="XMLID_789_" class="st8" points="326.7,410.3 312.5,418.5 326.7,426.7 340.8,418.5 		"/>
		<polygon id="XMLID_788_" class="st8" points="298.4,426.7 284.2,434.8 298.4,443 312.5,434.8 		"/>
		<polygon id="XMLID_787_" class="st8" points="284.2,434.8 270.1,443 284.2,451.2 298.4,443 		"/>
		<polygon id="XMLID_786_" class="st8" points="270.1,443 255.9,451.2 270.1,459.3 284.2,451.2 		"/>
		<polygon id="XMLID_785_" class="st8" points="326.7,394 312.5,402.1 326.7,410.3 340.8,402.1 		"/>
		<polygon id="XMLID_784_" class="st8" points="312.5,402.1 298.4,410.3 312.5,418.5 326.7,410.3 		"/>
		<polygon id="XMLID_783_" class="st8" points="326.5,426.7 312.4,418.5 312.4,418.5 298.2,410.3 284.1,418.5 298.2,426.7 
			298.2,426.7 312.4,434.8 		"/>
		<polygon id="XMLID_782_" class="st8" points="284.2,418.5 270.1,426.7 284.2,434.8 298.4,426.7 		"/>
		<polygon id="XMLID_781_" class="st8" points="270.1,426.7 255.9,434.8 270.1,443 284.2,434.8 		"/>
		<polygon id="XMLID_780_" class="st8" points="255.9,434.8 241.8,443 255.9,451.2 270.1,443 		"/>
		<polygon id="XMLID_779_" class="st8" points="326.4,475.7 312.4,467.6 312.5,467.5 298.4,459.3 284.2,451.2 270.1,459.3 
			284.2,467.5 298.2,475.6 298.1,475.7 312.2,483.8 326.4,492 340.5,483.8 		"/>
		<polygon id="XMLID_778_" class="st8" points="340.8,483.8 326.7,492 340.8,500.2 355,492 		"/>
		<polygon id="XMLID_777_" class="st8" points="355,492 340.8,500.2 355,508.3 369.1,500.2 		"/>
		<polygon id="XMLID_776_" class="st8" points="369.1,500.2 355,508.3 369.1,516.5 383.2,508.3 		"/>
		<polygon id="XMLID_775_" class="st8" points="383.7,507.8 369.6,516 383.7,524.1 397.9,516 		"/>
		<polygon id="XMLID_774_" class="st8" points="397.9,516 383.7,524.1 397.9,532.3 412,524.1 		"/>
		<polygon id="XMLID_773_" class="st8" points="412,524.1 397.9,532.3 412,540.5 426.2,532.3 		"/>
		<polygon id="XMLID_772_" class="st8" points="426.2,532.3 412,540.5 426.2,548.6 440.3,540.5 		"/>
	</g>
</g>
<g>
	<g>
		<defs>
			<polygon id="SVGID_2_" points="389.1,268.4 448.2,302.6 448.2,434.1 389.1,399.9 			"/>
		</defs>
		<clipPath id="SVGID_3_">
			<use xlink:href="#SVGID_2_"  style="overflow:visible;"/>
		</clipPath>
		<g id="Artwork_1" class="st10">
			<g>
				<defs>
					<polygon id="SVGID_4_" points="389.1,268.4 448.2,302.6 448.2,434.1 389.1,399.9 					"/>
				</defs>
				<clipPath id="SVGID_5_">
					<use xlink:href="#SVGID_4_"  style="overflow:visible;"/>
				</clipPath>
				<g class="st11">
					<path class="st12" d="M445.8,353l-20.2-8.7l14.4-38.6c1.5-3.9,1.4-5.4,0.9-6.6c-0.3-0.6-0.7-1.1-1.1-1.4
						c-0.4-0.2-1.6-1-4.8,2.2l-45.5,44.6c-0.7,0.9-0.3,2.8,0.8,4.2c0.4,0.5,0.8,0.9,1.2,1.1l17.9,8.5l-16.8,39.9
						c-0.5,1.1,0.1,3,1.3,4.3c0.3,0.3,0.6,0.5,0.9,0.7c0.7,0.5,1.5,0.5,2,0.1l51-44.8c0.8-0.7,0.6-2.5-0.4-4.1
						C446.8,353.9,446.3,353.4,445.8,353"/>
					<path class="st13" d="M448,355.8c-0.4-1.2-1.2-2.3-2.1-2.8l-20.2-8.7l14.4-38.6c1.5-3.9,1.4-5.4,0.9-6.6
						c-0.3-0.6-0.7-1.1-1.1-1.4l-30.8,48l19.3,6.8c1.8,0.6,3.5,2.9,3.9,5.2c0.2,1.1,0,2.1-0.5,2.6l-38.4,41.6l0.2,0.3
						c1,1.3,2.3,1.7,3,1.1l51-44.8C448.2,358,448.4,357,448,355.8"/>
				</g>
			</g>
		</g>
	</g>
</g>
<polyline class="st14" points="228.6,54 164.5,17 164.5,96.3 "/>
<polyline class="st14" points="416.5,234.7 416.5,162.5 262.4,73.5 "/>
<g>
	<g>
		<defs>
			<polygon id="SVGID_6_" points="231.4,18.7 262.8,36.9 262.8,106.8 231.4,88.7 			"/>
		</defs>
		<clipPath id="SVGID_7_">
			<use xlink:href="#SVGID_6_"  style="overflow:visible;"/>
		</clipPath>
		<g id="Artwork_1_1_" class="st15">
			<g>
				<defs>
					<polygon id="SVGID_8_" points="231.4,18.7 262.8,36.9 262.8,106.8 231.4,88.7 					"/>
				</defs>
				<clipPath id="SVGID_9_">
					<use xlink:href="#SVGID_8_"  style="overflow:visible;"/>
				</clipPath>
				<g class="st16">
					<path class="st12" d="M261.6,63.7L250.8,59l7.7-20.5c0.8-2.1,0.8-2.9,0.5-3.5c-0.1-0.3-0.4-0.6-0.6-0.7
						c-0.2-0.1-0.9-0.5-2.6,1.2l-24.2,23.7c-0.4,0.5-0.2,1.5,0.4,2.2c0.2,0.3,0.4,0.5,0.7,0.6l9.5,4.5l-8.9,21.2
						c-0.3,0.6,0,1.6,0.7,2.3c0.1,0.1,0.3,0.3,0.5,0.4c0.4,0.3,0.8,0.3,1,0.1l27.1-23.8c0.4-0.4,0.3-1.4-0.2-2.2
						C262.1,64.1,261.8,63.9,261.6,63.7"/>
					<path class="st13" d="M262.7,65.2c-0.2-0.6-0.7-1.2-1.1-1.5L250.8,59l7.7-20.5c0.8-2.1,0.8-2.9,0.5-3.5
						c-0.1-0.3-0.4-0.6-0.6-0.7L242,59.8l10.3,3.6c0.9,0.3,1.9,1.6,2.1,2.8c0.1,0.6,0,1.1-0.3,1.4l-20.4,22.1l0.1,0.2
						c0.5,0.7,1.2,0.9,1.6,0.6l27.1-23.8C262.9,66.4,262.9,65.8,262.7,65.2"/>
				</g>
			</g>
		</g>
	</g>
</g>
<line class="st17" x1="301.3" y1="77.9" x2="320.7" y2="88.9"/>
<line class="st17" x1="271.5" y1="60.4" x2="295.2" y2="74.1"/>
<line class="st17" x1="299.8" y1="113" x2="313.4" y2="121.1"/>
<line class="st17" x1="253.9" y1="86.8" x2="293.7" y2="109.3"/>
<g>
	<g>
		<path id="XMLID_31_" class="st18" d="M125.6,138.1l3.6,7.8c0,0,1.9,0.9,9.6,9.1c11.2,11.9,12.1,10.8,14.5,11.1
			c3.5,0.5,8.4-1,10.7-1.5c2.3-0.5,4.6-4.8,7.4-5.7c2.9-0.9,4.5-1.4,4.5-1.4s0.9-1.1-0.5-2.8c-1.4-1.7-3.6-2.8-5.6-2.5
			c-2,0.3-8.4,3.7-13.1,1.7c-4.8-2-9.4,3.4-13.9-0.8c-4.5-4.2-15.4-14.7-15.4-14.7L125.6,138.1z"/>
		<path id="XMLID_29_" class="st18" d="M125.5,128.2c1.7-0.6,7.2,0.2,11.5,5.9c6.3,8.5,11.2,15.1,15.8,17.9
			c4.6,2.7,10.5,5.2,10.2,8.6c-0.3,3.4-7.7,5.9-14.9,0.9c-7.2-5-16-13.6-18.6-17c-2.5-3.4-4.2-5.9-4.2-5.9L125.5,128.2z"/>
		<g id="XMLID_27_" class="st19">
			<path d="M141.7,151c2.4,1.4,5,2.5,7.1,4.3c2,1.8,4.2,3.6,6.5,5.1c1.1,0.8,2.3,1.5,3.6,2c0.6,0.3,1.3,0.5,1.9,0.5
				c0.6,0,1.3-0.2,1.8-0.7c0.4-0.5,0.5-1.2,0.3-1.9c-0.1-0.7-0.4-1.3-0.8-1.8c-0.8-1.1-1.8-2.1-3-2.8c1.2,0.7,2.3,1.6,3.1,2.8
				c0.4,0.6,0.7,1.2,0.9,1.9c0.2,0.7,0.1,1.5-0.3,2.1c-0.5,0.6-1.3,0.8-2,0.8c-0.7,0-1.4-0.2-2.1-0.5c-1.3-0.5-2.5-1.3-3.7-2
				c-2.3-1.6-4.5-3.3-6.5-5.2c-1-0.9-2.2-1.6-3.4-2.4C144.1,152.5,142.9,151.8,141.7,151z"/>
		</g>
		<path id="XMLID_25_" class="st20" d="M158.3,160.2l-0.1-3.9c0-0.2,0.2-0.4,0.4-0.2l1.9,1c1.1,0.6,2.1,2.2,2.1,3.5v0
			c0,1.3-0.8,1.9-1.9,1.3l-1.9-1C158.5,160.7,158.3,160.4,158.3,160.2z"/>
		<path id="XMLID_23_" class="st20" d="M176.1,157.5c-0.5-0.6-1.1-0.9-1.5-0.7l-0.9,0.3c-0.2,0.1-0.3,0.4-0.1,0.8l0.2,0.4
			c1.4-0.4,2.3-0.7,2.3-0.7S176,157.5,176.1,157.5z"/>
		<ellipse transform="matrix(0.866 -0.5 0.5 0.866 -51.4531 83.4741)" class="st18" cx="130" cy="137.7" rx="6.2" ry="10.7"/>
	</g>
	<path id="XMLID_22_" class="st21" d="M158.4,151.2c-3,0.9-7.2-1.5-10.2-5.9l-9.5-13.7c-1.6-2.3-2.9-4.9-3.6-7.5
		c-2.7-10.6,5.2-16.4,14-6.8c0.2,0.2,0.4,0.5,0.6,0.7l3.6,4.2l3.6-0.1c0.2,0,0.4,0,0.6,0c8.8,0.5,16.6,15.5,14,23
		c-0.7,1.8-1.9,3-3.6,3.4L158.4,151.2z"/>
</g>
</svg>
