<?xml version="1.0" encoding="utf-8"?>
<!-- Generator: Adobe Illustrator 22.0.0, SVG Export Plug-In . SVG Version: 6.00 Build 0)  -->
<svg version="1.1" id="Layer_1" xmlns="http://www.w3.org/2000/svg" xmlns:xlink="http://www.w3.org/1999/xlink" x="0px" y="0px"
	 viewBox="0 0 600 600" style="enable-background:new 0 0 600 600;" xml:space="preserve">
<style type="text/css">
	.st0{opacity:0.15;}
	.st1{fill:#101011;}
	.st2{fill:#E4E9F3;}
	.st3{fill:#D6DCEB;}
	.st4{fill:#FFFFFF;}
	.st5{fill:#B9C1D9;}
	.st6{fill:#3D3B48;}
	.st7{fill:#444653;}
	.st8{fill:#D7D5D8;}
	.st9{fill:#E6E6F2;}
	.st10{fill:#57545F;}
	.st11{fill:none;stroke:#3D3B48;stroke-width:1.6484;stroke-linecap:round;stroke-miterlimit:10;}
	.st12{clip-path:url(#SVGID_2_);}
	.st13{fill:#24242D;}
	.st14{clip-path:url(#SVGID_4_);}
	.st15{clip-path:url(#SVGID_6_);}
	.st16{clip-path:url(#SVGID_8_);}
	.st17{clip-path:url(#SVGID_10_);}
	.st18{fill:#706E82;}
	.st19{fill:#31303D;}
	.st20{opacity:0.2;}
	.st21{fill:#0B0C0C;}
	.st22{fill:#3D3D41;}
	.st23{font-family:'Omnes_GirlScouts-Medium';}
	.st24{font-size:32.9686px;}
	.st25{font-size:43.105px;}
	.st26{clip-path:url(#SVGID_12_);}
	.st27{clip-path:url(#SVGID_14_);}
	.st28{fill:#FFB74D;}
	.st29{fill:#FECF37;}
</style>
<g id="XMLID_2_">
	<g id="XMLID_255_" class="st0">
		<polygon class="st1" points="423.3,422 371.9,392.3 371.9,392.3 449.1,347.7 500.5,377.4 		"/>
	</g>
	<g id="XMLID_138_">
		<polygon class="st2" points="371.9,331.1 449.1,286.5 449.1,328.8 449.1,328.8 371.9,373.3 		"/>
	</g>
	<g id="XMLID_135_">
		<polygon class="st3" points="423.3,403.1 371.9,373.3 371.9,373.3 449.1,328.8 500.5,358.5 		"/>
	</g>
	<g id="XMLID_132_">
		<polygon class="st2" points="552,226.9 268.9,390.3 268.9,182.3 552,18.9 		"/>
	</g>
	<polygon id="XMLID_131_" class="st4" points="543.6,222 543.6,33.4 277.3,187.1 277.3,375.8 	"/>
	<g id="XMLID_128_">
		<polygon class="st3" points="552,19.1 543.6,14.2 260.5,177.6 268.9,182.5 		"/>
	</g>
	<g id="XMLID_125_">
		<polygon class="st5" points="261.2,385.8 268.9,390.3 268.9,182.3 260.5,177.4 		"/>
	</g>
	<g id="XMLID_122_">
		<polygon class="st2" points="500.5,366.6 500.5,358.5 423.3,403.1 423.3,410.9 		"/>
	</g>
	<g id="XMLID_115_">
		<g id="XMLID_119_">
			<polygon class="st5" points="365.2,334.9 371.9,331.1 371.9,373.3 365.5,369.7 			"/>
		</g>
		<g id="XMLID_116_">
			<polygon class="st5" points="423.3,410.9 371.9,380.8 365.6,377 365.5,369.7 371.9,373.3 423.3,403.1 			"/>
		</g>
	</g>
</g>
<g>
	<g class="st0">
		<polygon class="st1" points="47.6,495.7 206.7,588 313,527 153.9,434.7 		"/>
	</g>
	<polygon class="st6" points="47.6,481.7 206.7,574 313,512.2 153.9,420.7 	"/>
	<g>
		<polygon class="st7" points="225.8,456.5 135.2,404.3 135.2,262.2 225.8,314.5 		"/>
		<path class="st8" d="M191.9,358l-18.8-10.8c-2.1-1.2-3.9-4.5-3.9-7.4v-20.3c0-2.8,1.7-4.2,3.9-2.9l18.8,10.8
			c2.1,1.2,3.9,4.5,3.9,7.4V355C195.7,357.9,194,359.2,191.9,358z"/>
		<polygon class="st6" points="206,379.8 203.3,378.2 203.3,318.4 206,320 		"/>
		<polygon class="st6" points="210.4,382.3 207.6,380.7 207.6,320.9 210.4,322.5 		"/>
		<polygon class="st6" points="214.7,384.8 212,383.2 212,323.4 214.7,325 		"/>
		<polygon class="st6" points="219.1,387.4 216.3,385.8 216.3,325.9 219.1,327.5 		"/>
		<polyline class="st9" points="135.2,264.1 135.2,265 135.2,336.7 151.8,332.6 151.8,290.5 		"/>
		<polygon class="st9" points="144.7,267.7 153,283.5 183.1,300.8 199.3,299.2 		"/>
		<polygon class="st10" points="159.7,298.3 155.4,295.8 155.4,290.8 159.7,293.3 		"/>
		<polygon class="st10" points="159.7,310.2 155.4,307.7 155.4,302.6 159.7,305.2 		"/>
		<polygon class="st10" points="159.7,316.1 155.4,313.6 155.4,308.6 159.7,311.1 		"/>
		<polygon class="st10" points="159.7,322.1 155.4,319.5 155.4,314.5 159.7,317 		"/>
		<polygon class="st10" points="159.7,328 155.4,325.5 155.4,320.5 159.7,323 		"/>
		<polygon class="st10" points="159.7,333.9 155.4,331.4 155.4,326.4 159.7,328.9 		"/>
		<polygon class="st10" points="164.9,301.3 160.5,298.8 160.5,293.7 164.9,296.3 		"/>
		<polygon class="st10" points="170.4,304.5 166.1,302 166.1,296.9 170.4,299.4 		"/>
		<polygon class="st10" points="176,307.7 171.6,305.2 171.6,300.1 176,302.6 		"/>
		<polygon class="st10" points="181.9,311.1 177.5,308.6 177.5,303.6 181.9,306.1 		"/>
		<polygon class="st10" points="187.4,314.3 183.1,311.8 183.1,306.8 187.4,309.3 		"/>
		<polygon class="st6" points="165.3,313.8 163.3,312.7 163.3,304.9 165.3,306.1 		"/>
		<polygon class="st6" points="165.3,328 163.3,326.8 163.3,319.1 165.3,320.2 		"/>
		<polyline class="st11" points="161.3,338.5 138,341 138,366.1 		"/>
		<polyline class="st11" points="162.9,340.8 139.6,343.3 139.6,368.4 		"/>
		<polyline class="st11" points="164.5,343.1 141.2,345.6 141.2,370.7 		"/>
		<polyline class="st11" points="166.1,345.8 142.7,348.3 142.7,373.4 		"/>
		<polyline class="st11" points="168.1,347.9 144.7,350.4 144.7,375.5 		"/>
		<path class="st9" d="M204.7,416.5l-11.9-6.9c-1.2-0.7-2.1-2.5-2.1-4.1v-26.7c0-1.6,1-2.3,2.1-1.6l11.9,6.9
			c1.2,0.7,2.1,2.5,2.1,4.1v26.7C206.8,416.4,205.9,417.2,204.7,416.5z"/>
		<polygon class="st6" points="146.7,355.2 186.2,378 186.2,374.8 146.7,352 		"/>
		<polygon class="st6" points="146.7,364.8 160.9,373 160.9,369.8 146.7,361.6 		"/>
		<polygon class="st6" points="146.7,375.3 186.2,398.1 186.2,394.9 146.7,372.1 		"/>
		<polygon class="st6" points="146.7,394 186.2,416.8 186.2,413.6 146.7,390.8 		"/>
		<polygon class="st6" points="146.7,384.8 160.9,393.1 160.9,389.9 146.7,381.6 		"/>
	</g>
	<polygon class="st6" points="135.8,432.2 47.6,481.7 47.6,215.5 135.8,215.5 	"/>
	<g>
		<g>
			<defs>
				<polygon id="SVGID_1_" points="51.2,377.4 140.8,325.6 140.8,342.4 51.2,395.1 				"/>
			</defs>
			<clipPath id="SVGID_2_">
				<use xlink:href="#SVGID_1_"  style="overflow:visible;"/>
			</clipPath>
			<g class="st12">
				<rect x="51.7" y="311.7" class="st13" width="6.1" height="99.1"/>
				<rect x="59.5" y="311.7" class="st13" width="6.1" height="99.1"/>
				<rect x="67.3" y="311.7" class="st13" width="6.1" height="99.1"/>
				<rect x="90.8" y="311.7" class="st5" width="6.1" height="99.1"/>
				<rect x="75.1" y="311.7" class="st5" width="6.1" height="99.1"/>
				<rect x="83" y="311.7" class="st5" width="6.1" height="99.1"/>
				<rect x="98.6" y="311.7" class="st5" width="6.1" height="99.1"/>
				<rect x="106.4" y="311.7" class="st5" width="6.1" height="99.1"/>
				<rect x="114.3" y="311.7" class="st5" width="6.1" height="99.1"/>
			</g>
		</g>
		<path class="st13" d="M48,377.4V398l88.2-51.9v-19.8L48,377.4z M134.5,345.2l-84.9,50v-16.8l84.9-49.2V345.2z"/>
	</g>
	<g>
		<g>
			<defs>
				<polygon id="SVGID_3_" points="51.2,337.9 140.8,286 140.8,302.8 51.2,355.6 				"/>
			</defs>
			<clipPath id="SVGID_4_">
				<use xlink:href="#SVGID_3_"  style="overflow:visible;"/>
			</clipPath>
			<g class="st14">
				<rect x="51.7" y="272.1" class="st13" width="6.1" height="99.1"/>
				<rect x="59.5" y="272.1" class="st13" width="6.1" height="99.1"/>
				<rect x="67.3" y="272.1" class="st13" width="6.1" height="99.1"/>
				<rect x="90.8" y="272.1" class="st13" width="6.1" height="99.1"/>
				<rect x="75.1" y="272.1" class="st13" width="6.1" height="99.1"/>
				<rect x="83" y="272.1" class="st13" width="6.1" height="99.1"/>
				<rect x="98.6" y="272.1" class="st13" width="6.1" height="99.1"/>
				<rect x="106.4" y="272.1" class="st13" width="6.1" height="99.1"/>
				<rect x="114.3" y="272.1" class="st13" width="6.1" height="99.1"/>
			</g>
		</g>
		<path class="st13" d="M48,337.9v20.6l88.2-51.9v-19.8L48,337.9z M134.5,305.6l-84.9,50v-16.8l84.9-49.2V305.6z"/>
	</g>
	<g>
		<g>
			<defs>
				<polygon id="SVGID_5_" points="51.2,420.3 140.8,368.4 140.8,385.3 51.2,438 				"/>
			</defs>
			<clipPath id="SVGID_6_">
				<use xlink:href="#SVGID_5_"  style="overflow:visible;"/>
			</clipPath>
			<g class="st15">
				<rect x="51.7" y="354.5" class="st13" width="6.1" height="99.1"/>
				<rect x="59.5" y="354.5" class="st13" width="6.1" height="99.1"/>
				<rect x="67.3" y="354.5" class="st13" width="6.1" height="99.1"/>
				<rect x="90.8" y="354.5" class="st13" width="6.1" height="99.1"/>
				<rect x="75.1" y="354.5" class="st13" width="6.1" height="99.1"/>
				<rect x="83" y="354.5" class="st13" width="6.1" height="99.1"/>
				<rect x="98.6" y="354.5" class="st5" width="6.1" height="99.1"/>
				<rect x="106.4" y="354.5" class="st5" width="6.1" height="99.1"/>
				<rect x="114.3" y="354.5" class="st5" width="6.1" height="99.1"/>
			</g>
		</g>
		<path class="st13" d="M48,420.3v20.6l88.2-51.9v-19.8L48,420.3z M134.5,388l-84.9,50v-16.8l84.9-49.2V388z"/>
	</g>
	<g>
		<g>
			<defs>
				<polygon id="SVGID_7_" points="51.2,440.9 140.8,389 140.8,405.9 51.2,458.6 				"/>
			</defs>
			<clipPath id="SVGID_8_">
				<use xlink:href="#SVGID_7_"  style="overflow:visible;"/>
			</clipPath>
			<g class="st16">
				<rect x="51.7" y="375.1" class="st13" width="6.1" height="99.1"/>
				<rect x="59.5" y="375.1" class="st13" width="6.1" height="99.1"/>
				<rect x="67.3" y="375.1" class="st13" width="6.1" height="99.1"/>
				<rect x="90.8" y="375.1" class="st5" width="6.1" height="99.1"/>
				<rect x="75.1" y="375.1" class="st13" width="6.1" height="99.1"/>
				<rect x="83" y="375.1" class="st13" width="6.1" height="99.1"/>
				<rect x="98.6" y="375.1" class="st5" width="6.1" height="99.1"/>
				<rect x="106.4" y="375.1" class="st5" width="6.1" height="99.1"/>
				<rect x="114.3" y="375.1" class="st5" width="6.1" height="99.1"/>
			</g>
		</g>
		<path class="st13" d="M48,440.9v20.6l88.2-51.9v-19.8L48,440.9z M134.5,408.6l-84.9,50v-16.8l84.9-49.2V408.6z"/>
	</g>
	<g>
		<g>
			<defs>
				<polygon id="SVGID_9_" points="51.2,459.9 140.8,408 140.8,424.8 51.2,477.6 				"/>
			</defs>
			<clipPath id="SVGID_10_">
				<use xlink:href="#SVGID_9_"  style="overflow:visible;"/>
			</clipPath>
			<g class="st17">
				<rect x="51.7" y="394.1" class="st13" width="6.1" height="99.1"/>
				<rect x="59.5" y="394.1" class="st13" width="6.1" height="99.1"/>
				<rect x="67.3" y="394.1" class="st13" width="6.1" height="99.1"/>
				<rect x="90.8" y="394.1" class="st13" width="6.1" height="99.1"/>
				<rect x="75.1" y="394.1" class="st13" width="6.1" height="99.1"/>
				<rect x="83" y="394.1" class="st13" width="6.1" height="99.1"/>
				<rect x="98.6" y="394.1" class="st5" width="6.1" height="99.1"/>
				<rect x="106.4" y="394.1" class="st5" width="6.1" height="99.1"/>
				<rect x="114.3" y="394.1" class="st5" width="6.1" height="99.1"/>
			</g>
		</g>
		<path class="st13" d="M48,459.8v20.6l88.2-51.9v-19.8L48,459.8z M134.5,427.6l-84.9,50v-16.8l84.9-49.2V427.6z"/>
	</g>
	<g>
		<polygon class="st18" points="242.9,450.4 172,490.7 169.6,461.9 242.1,427.3 		"/>
		<polygon class="st18" points="80.5,411.6 78.1,428.1 148.1,466.8 151.4,442.9 		"/>
		<rect x="144.8" y="450.4" class="st4" width="14.8" height="12.4"/>
		<g>
			<rect x="84.7" y="415.7" class="st6" width="0.8" height="14"/>
			<rect x="83" y="415.7" class="st6" width="0.8" height="14"/>
			<rect x="86.3" y="415.7" class="st6" width="0.8" height="14"/>
			<rect x="88" y="415.7" class="st6" width="0.8" height="14"/>
			<rect x="89.6" y="418.2" class="st6" width="0.8" height="14"/>
			<rect x="91.3" y="418.2" class="st6" width="0.8" height="14"/>
			<rect x="92.9" y="419" class="st6" width="0.8" height="14"/>
			<rect x="94.6" y="419.9" class="st6" width="0.8" height="14"/>
			<rect x="96.2" y="421.5" class="st6" width="0.8" height="14"/>
			<rect x="97.9" y="421.5" class="st6" width="0.8" height="14"/>
			<rect x="99.5" y="423.2" class="st6" width="0.8" height="14"/>
			<rect x="101.2" y="423.2" class="st6" width="0.8" height="14"/>
			<rect x="102.8" y="424.8" class="st6" width="0.8" height="14"/>
			<rect x="104.5" y="425.6" class="st6" width="0.8" height="14"/>
			<rect x="106.1" y="426.5" class="st6" width="0.8" height="14"/>
			<rect x="107.7" y="427.3" class="st6" width="0.8" height="14"/>
			<rect x="109.4" y="428.1" class="st6" width="0.8" height="14"/>
			<rect x="111" y="428.9" class="st6" width="0.8" height="14"/>
			<rect x="112.7" y="429.8" class="st6" width="0.8" height="14"/>
			<rect x="114.3" y="430.6" class="st6" width="0.8" height="14"/>
			<rect x="116" y="432.2" class="st6" width="0.8" height="14"/>
			<rect x="117.6" y="433" class="st6" width="0.8" height="14"/>
			<rect x="119.3" y="433.9" class="st6" width="0.8" height="14"/>
			<rect x="120.9" y="434.7" class="st6" width="0.8" height="14"/>
			<rect x="122.6" y="435.5" class="st6" width="0.8" height="14"/>
			<rect x="124.2" y="436.3" class="st6" width="0.8" height="14"/>
			<rect x="125.9" y="438" class="st6" width="0.8" height="14"/>
			<rect x="127.5" y="438.8" class="st6" width="0.8" height="14"/>
			<rect x="129.2" y="439.6" class="st6" width="0.8" height="14"/>
			<rect x="130.8" y="440.5" class="st6" width="0.8" height="14"/>
			<rect x="132.5" y="441.3" class="st6" width="0.8" height="14"/>
			<rect x="134.1" y="442.1" class="st6" width="0.8" height="14"/>
			<rect x="135.8" y="442.9" class="st6" width="0.8" height="14"/>
			<rect x="137.4" y="443.8" class="st6" width="0.8" height="14"/>
			<rect x="139.1" y="444.6" class="st6" width="0.8" height="14"/>
			<rect x="140.7" y="446.2" class="st6" width="0.8" height="14"/>
			<rect x="142.4" y="447.1" class="st6" width="0.8" height="14"/>
			<rect x="144" y="447.1" class="st6" width="0.8" height="14"/>
		</g>
		<polygon class="st10" points="154,458.7 145.3,460.7 82.6,426 82.6,417.3 48,397.2 48,420.3 55.6,424.6 65.3,420.3 91.7,435.1 
			92.1,445.6 171.6,491.2 171.6,468.9 		"/>
		<polygon class="st19" points="118.1,356 48,397.2 171.6,468.9 242.5,427.7 		"/>
	</g>
	<g>
		<polygon class="st18" points="242.9,412.4 172,452.8 169.6,424 242.1,389.4 		"/>
		<polygon class="st18" points="80.5,373.7 78.1,390.2 148.1,428.9 151.4,405 		"/>
		<rect x="144.8" y="412.4" class="st10" width="14.8" height="12.4"/>
		<g>
			<rect x="84.7" y="377.8" class="st6" width="0.8" height="14"/>
			<rect x="83" y="377.8" class="st6" width="0.8" height="14"/>
			<rect x="86.3" y="377.8" class="st6" width="0.8" height="14"/>
			<rect x="88" y="377.8" class="st6" width="0.8" height="14"/>
			<rect x="89.6" y="380.3" class="st6" width="0.8" height="14"/>
			<rect x="91.3" y="380.3" class="st6" width="0.8" height="14"/>
			<rect x="92.9" y="381.1" class="st6" width="0.8" height="14"/>
			<rect x="94.6" y="381.9" class="st6" width="0.8" height="14"/>
			<rect x="96.2" y="383.6" class="st6" width="0.8" height="14"/>
			<rect x="97.9" y="383.6" class="st6" width="0.8" height="14"/>
			<rect x="99.5" y="385.2" class="st6" width="0.8" height="14"/>
			<rect x="101.2" y="385.2" class="st6" width="0.8" height="14"/>
			<rect x="102.8" y="386.9" class="st6" width="0.8" height="14"/>
			<rect x="104.5" y="387.7" class="st6" width="0.8" height="14"/>
			<rect x="106.1" y="388.5" class="st6" width="0.8" height="14"/>
			<rect x="107.7" y="389.4" class="st6" width="0.8" height="14"/>
			<rect x="109.4" y="390.2" class="st6" width="0.8" height="14"/>
			<rect x="111" y="391" class="st6" width="0.8" height="14"/>
			<rect x="112.7" y="391.8" class="st6" width="0.8" height="14"/>
			<rect x="114.3" y="392.7" class="st6" width="0.8" height="14"/>
			<rect x="116" y="394.3" class="st6" width="0.8" height="14"/>
			<rect x="117.6" y="395.1" class="st6" width="0.8" height="14"/>
			<rect x="119.3" y="396" class="st6" width="0.8" height="14"/>
			<rect x="120.9" y="396.8" class="st6" width="0.8" height="14"/>
			<rect x="122.6" y="397.6" class="st6" width="0.8" height="14"/>
			<rect x="124.2" y="398.4" class="st6" width="0.8" height="14"/>
			<rect x="125.9" y="400.1" class="st6" width="0.8" height="14"/>
			<rect x="127.5" y="400.9" class="st6" width="0.8" height="14"/>
			<rect x="129.2" y="401.7" class="st6" width="0.8" height="14"/>
			<rect x="130.8" y="402.6" class="st6" width="0.8" height="14"/>
			<rect x="132.5" y="403.4" class="st6" width="0.8" height="14"/>
			<rect x="134.1" y="404.2" class="st6" width="0.8" height="14"/>
			<rect x="135.8" y="405" class="st6" width="0.8" height="14"/>
			<rect x="137.4" y="405.8" class="st6" width="0.8" height="14"/>
			<rect x="139.1" y="406.7" class="st6" width="0.8" height="14"/>
			<rect x="140.7" y="408.3" class="st6" width="0.8" height="14"/>
			<rect x="142.4" y="409.1" class="st6" width="0.8" height="14"/>
			<rect x="144" y="409.1" class="st6" width="0.8" height="14"/>
		</g>
		<polygon class="st10" points="154,420.7 145.3,422.7 82.6,388.1 82.6,379.4 48,359.3 48,382.4 55.6,386.7 65.3,382.4 91.7,397.2 
			92.1,407.7 171.6,453.2 171.6,431 		"/>
		<polygon class="st19" points="118.1,318.1 48,359.3 171.6,431 242.5,389.8 		"/>
	</g>
	<g>
		<polygon class="st2" points="206.7,307.8 313,246.8 313,512.2 206.7,574 		"/>
	</g>
	<g>
		<g class="st20">
			<path class="st21" d="M55.8,229.8l142.6,82.7v247.2L55.8,476.9V229.8 M47.6,215.5v266.2L206.7,574V307.8L47.6,215.5L47.6,215.5z"
				/>
		</g>
	</g>
	<g class="st20">
		<polygon class="st21" points="47.6,481.7 47.6,215.5 206.7,307.8 206.7,574 		"/>
	</g>
	<path class="st13" d="M133.2,357.4c-5.4,0-11.1-0.9-16.8-3.1c-11.6-4.4-19.8-12.6-23.7-23.8c-7.1-20.2,0-49.8,20-83.5l9.9,5.9
		c-18.2,30.7-24.9,56.9-19,73.8c2.8,7.9,8.5,13.6,16.9,16.8c26.6,10.1,52.9-16.5,53.2-16.8l0,9.7
		C172.6,337.6,159.6,357.4,133.2,357.4z"/>
	<path class="st13" d="M146.4,365.7c-5.4,0-11.1-0.9-16.8-3.1c-11.6-4.4-19.8-12.6-23.7-23.8c-7.1-20.2,0-49.8,20-83.5l9.9,5.9
		c-18.2,30.7-24.9,56.9-19,73.8c2.8,7.9,8.5,13.6,16.9,16.8c26.6,10.1,52.9-16.5,53.2-16.8l0,9.7
		C185.8,345.9,172.8,365.7,146.4,365.7z"/>
	<g>
		<polygon class="st3" points="47.6,215.5 206.7,307.8 313,246.8 153.9,154.5 		"/>
	</g>
	<ellipse class="st13" cx="173.7" cy="331.7" rx="3.3" ry="4.9"/>
	<ellipse class="st13" cx="186" cy="339.9" rx="3.3" ry="4.9"/>
	<polygon class="st6" points="313,512.2 313,246.8 256.1,279.4 256.1,379.5 280.8,404.2 280.8,530.9 	"/>
	<g>
		<polygon class="st2" points="313,512.2 313,246.8 260.2,277 260.2,378.6 285,403.4 285,528.5 		"/>
	</g>
</g>
<g>
	<text id="XMLID_253_" transform="matrix(0.866 -0.5 0 1 341.8382 193.1128)" class="st22 st23 st24">Boid Power</text>
	<text id="XMLID_3_" transform="matrix(0.866 -0.5 0 1 390.3052 289.7291)" class="st22 st23 st25">96</text>
</g>
<g>
	<g>
		<defs>
			<polygon id="SVGID_11_" points="391.8,171.4 427.9,150.6 427.9,230.8 391.8,251.7 			"/>
		</defs>
		<clipPath id="SVGID_12_">
			<use xlink:href="#SVGID_11_"  style="overflow:visible;"/>
		</clipPath>
		<g id="Artwork_1_1_" class="st26">
			<g>
				<defs>
					<polygon id="SVGID_13_" points="391.8,171.4 427.9,150.6 427.9,230.8 391.8,251.7 					"/>
				</defs>
				<clipPath id="SVGID_14_">
					<use xlink:href="#SVGID_13_"  style="overflow:visible;"/>
				</clipPath>
				<g class="st27">
					<path class="st28" d="M426.5,183l-12.3,8.9l8.8-33.7c0.9-3.4,0.9-4.3,0.5-4.7c-0.2-0.2-0.4-0.2-0.7-0.1c-0.2,0.1-1,0.6-3,4.8
						l-27.8,59.3c-0.4,1-0.2,1.9,0.5,2c0.2,0,0.5,0,0.8-0.2l10.9-7.5L394,248.2c-0.3,1,0,1.8,0.8,1.7c0.2,0,0.3-0.1,0.5-0.2
						c0.5-0.2,0.9-0.7,1.2-1.3l31.1-63.3c0.5-1,0.4-2-0.3-2.2C427.1,182.9,426.8,182.9,426.5,183"/>
					<path class="st29" d="M427.8,183.2c-0.2-0.4-0.7-0.5-1.3-0.2l-12.3,8.9l8.8-33.7c0.9-3.4,0.9-4.3,0.5-4.7
						c-0.2-0.2-0.4-0.2-0.7-0.1l-18.8,51l11.8-9.5c1.1-0.9,2.2-0.7,2.4,0.4c0.1,0.6,0,1.3-0.3,2l-23.4,52.4l0.1,0
						c0.6,0.1,1.4-0.6,1.9-1.5l31.1-63.3C428,184.4,428,183.7,427.8,183.2"/>
				</g>
			</g>
		</g>
	</g>
</g>
</svg>
