<svg version="1.1" id="Sk40PDKZX" xmlns="http://www.w3.org/2000/svg" xmlns:xlink="http://www.w3.org/1999/xlink" x="0px" y="0px" viewBox="0 0 600 600" style="enable-background:new 0 0 600 600;" xml:space="preserve"><style>@-webkit-keyframes H1I-VAwDKW7_rkbURDKZQ_Animation{0%{-webkit-transform: translate(10px, 10px);transform: translate(10px, 10px);}100%{-webkit-transform: translate(-20px, -20px);transform: translate(-20px, -20px);}}@keyframes H1I-VAwDKW7_rkbURDKZQ_Animation{0%{-webkit-transform: translate(10px, 10px);transform: translate(10px, 10px);}100%{-webkit-transform: translate(-20px, -20px);transform: translate(-20px, -20px);}}@-webkit-keyframes SJiw4CDvF-X_ryXo6vFWX_Animation{0%{-webkit-transform: scale(1, 1);transform: scale(1, 1);}25%{-webkit-transform: scale(1.05, 1.05);transform: scale(1.05, 1.05);}35%{-webkit-transform: scale(1, 1);transform: scale(1, 1);}60%{-webkit-transform: scale(1.05, 1.05);transform: scale(1.05, 1.05);}70%{-webkit-transform: scale(1, 1);transform: scale(1, 1);}90%{-webkit-transform: scale(1.05, 1.05);transform: scale(1.05, 1.05);}100%{-webkit-transform: scale(1, 1);transform: scale(1, 1);}}@keyframes SJiw4CDvF-X_ryXo6vFWX_Animation{0%{-webkit-transform: scale(1, 1);transform: scale(1, 1);}25%{-webkit-transform: scale(1.05, 1.05);transform: scale(1.05, 1.05);}35%{-webkit-transform: scale(1, 1);transform: scale(1, 1);}60%{-webkit-transform: scale(1.05, 1.05);transform: scale(1.05, 1.05);}70%{-webkit-transform: scale(1, 1);transform: scale(1, 1);}90%{-webkit-transform: scale(1.05, 1.05);transform: scale(1.05, 1.05);}100%{-webkit-transform: scale(1, 1);transform: scale(1, 1);}}@-webkit-keyframes SkdDNAwwtZ7_rJJO2vYZm_Animation{0%{-webkit-transform: scale(1, 1);transform: scale(1, 1);}10%{-webkit-transform: scale(1.1, 1.1);transform: scale(1.1, 1.1);}20%{-webkit-transform: scale(1, 1);transform: scale(1, 1);}30%{-webkit-transform: scale(1.1, 1.1);transform: scale(1.1, 1.1);}40%{-webkit-transform: scale(1, 1);transform: scale(1, 1);}50%{-webkit-transform: scale(1.1, 1.1);transform: scale(1.1, 1.1);}60%{-webkit-transform: scale(1, 1);transform: scale(1, 1);}70%{-webkit-transform: scale(1.1, 1.1);transform: scale(1.1, 1.1);}80%{-webkit-transform: scale(1, 1);transform: scale(1, 1);}90%{-webkit-transform: scale(1.1, 1.1);transform: scale(1.1, 1.1);}100%{-webkit-transform: scale(1, 1);transform: scale(1, 1);}}@keyframes SkdDNAwwtZ7_rJJO2vYZm_Animation{0%{-webkit-transform: scale(1, 1);transform: scale(1, 1);}10%{-webkit-transform: scale(1.1, 1.1);transform: scale(1.1, 1.1);}20%{-webkit-transform: scale(1, 1);transform: scale(1, 1);}30%{-webkit-transform: scale(1.1, 1.1);transform: scale(1.1, 1.1);}40%{-webkit-transform: scale(1, 1);transform: scale(1, 1);}50%{-webkit-transform: scale(1.1, 1.1);transform: scale(1.1, 1.1);}60%{-webkit-transform: scale(1, 1);transform: scale(1, 1);}70%{-webkit-transform: scale(1.1, 1.1);transform: scale(1.1, 1.1);}80%{-webkit-transform: scale(1, 1);transform: scale(1, 1);}90%{-webkit-transform: scale(1.1, 1.1);transform: scale(1.1, 1.1);}100%{-webkit-transform: scale(1, 1);transform: scale(1, 1);}}@-webkit-keyframes SJlPNCPDFZm_Animation{88.33%{opacity: 0;}90%{opacity: 1;}98.33%{opacity: 1;}100%{opacity: 0;}0%{opacity: 0;}}@keyframes SJlPNCPDFZm_Animation{88.33%{opacity: 0;}90%{opacity: 1;}98.33%{opacity: 1;}100%{opacity: 0;}0%{opacity: 0;}}@-webkit-keyframes r1hUEAPDKWX_Animation{78.33%{opacity: 0;}80%{opacity: 1;}88.33%{opacity: 1;}90%{opacity: 0;}0%{opacity: 0;}100%{opacity: 0;}}@keyframes r1hUEAPDKWX_Animation{78.33%{opacity: 0;}80%{opacity: 1;}88.33%{opacity: 1;}90%{opacity: 0;}0%{opacity: 0;}100%{opacity: 0;}}@-webkit-keyframes HkOL4CvwtW7_Animation{68.33%{opacity: 0;}70%{opacity: 1;}78.33%{opacity: 1;}80%{opacity: 0;}0%{opacity: 0;}100%{opacity: 0;}}@keyframes HkOL4CvwtW7_Animation{68.33%{opacity: 0;}70%{opacity: 1;}78.33%{opacity: 1;}80%{opacity: 0;}0%{opacity: 0;}100%{opacity: 0;}}@-webkit-keyframes rk4UVAvwtZX_Animation{60%{opacity: 0;}61.67%{opacity: 1;}68.33%{opacity: 1;}70%{opacity: 0;}0%{opacity: 0;}100%{opacity: 0;}}@keyframes rk4UVAvwtZX_Animation{60%{opacity: 0;}61.67%{opacity: 1;}68.33%{opacity: 1;}70%{opacity: 0;}0%{opacity: 0;}100%{opacity: 0;}}@-webkit-keyframes rkeUVRwwKW7_Animation{53.33%{opacity: 0;}55.00%{opacity: 1;}60%{opacity: 1;}61.67%{opacity: 0;}0%{opacity: 0;}100%{opacity: 0;}}@keyframes rkeUVRwwKW7_Animation{53.33%{opacity: 0;}55.00%{opacity: 1;}60%{opacity: 1;}61.67%{opacity: 0;}0%{opacity: 0;}100%{opacity: 0;}}@-webkit-keyframes SJ2HE0wPtbX_Animation{48.33%{opacity: 0;}50%{opacity: 1;}53.33%{opacity: 1;}55.00%{opacity: 0;}0%{opacity: 0;}}@keyframes SJ2HE0wPtbX_Animation{48.33%{opacity: 0;}50%{opacity: 1;}53.33%{opacity: 1;}55.00%{opacity: 0;}0%{opacity: 0;}}@-webkit-keyframes S14B40Pvtbm_Animation{43.33%{opacity: 0;}45%{opacity: 1;}48.33%{opacity: 1;}50%{opacity: 0;}0%{opacity: 0;}100%{opacity: 0;}}@keyframes S14B40Pvtbm_Animation{43.33%{opacity: 0;}45%{opacity: 1;}48.33%{opacity: 1;}50%{opacity: 0;}0%{opacity: 0;}100%{opacity: 0;}}@-webkit-keyframes SylSE0DwKWQ_Animation{38.33%{opacity: 0;}40%{opacity: 1;}43.33%{opacity: 1;}45%{opacity: 0;}0%{opacity: 0;}100%{opacity: 0;}}@keyframes SylSE0DwKWQ_Animation{38.33%{opacity: 0;}40%{opacity: 1;}43.33%{opacity: 1;}45%{opacity: 0;}0%{opacity: 0;}100%{opacity: 0;}}@-webkit-keyframes BJ3EEAwPtWQ_Animation{33.33%{opacity: 0;}35%{opacity: 1;}38.33%{opacity: 1;}40%{opacity: 0;}0%{opacity: 0;}100%{opacity: 0;}}@keyframes BJ3EEAwPtWQ_Animation{33.33%{opacity: 0;}35%{opacity: 1;}38.33%{opacity: 1;}40%{opacity: 0;}0%{opacity: 0;}100%{opacity: 0;}}@-webkit-keyframes BkuVERPPFbX_Animation{28.33%{opacity: 0;}30%{opacity: 1;}33.33%{opacity: 1;}35%{opacity: 0;}0%{opacity: 0;}100%{opacity: 0;}}@keyframes BkuVERPPFbX_Animation{28.33%{opacity: 0;}30%{opacity: 1;}33.33%{opacity: 1;}35%{opacity: 0;}0%{opacity: 0;}100%{opacity: 0;}}@-webkit-keyframes BJNENCvwFbm_Animation{23.33%{opacity: 0;}25%{opacity: 1;}28.33%{opacity: 1;}30%{opacity: 0;}0%{opacity: 0;}100%{opacity: 0;}}@keyframes BJNENCvwFbm_Animation{23.33%{opacity: 0;}25%{opacity: 1;}28.33%{opacity: 1;}30%{opacity: 0;}0%{opacity: 0;}100%{opacity: 0;}}@-webkit-keyframes rJeEECDvYZX_Animation{18.33%{opacity: 0;}20%{opacity: 1;}23.33%{opacity: 1;}25%{opacity: 0;}0%{opacity: 0;}100%{opacity: 0;}}@keyframes rJeEECDvYZX_Animation{18.33%{opacity: 0;}20%{opacity: 1;}23.33%{opacity: 1;}25%{opacity: 0;}0%{opacity: 0;}100%{opacity: 0;}}@-webkit-keyframes BkhX4ADDFbX_Animation{13.33%{opacity: 0;}15%{opacity: 1;}18.33%{opacity: 1;}20%{opacity: 0;}0%{opacity: 0;}100%{opacity: 0;}}@keyframes BkhX4ADDFbX_Animation{13.33%{opacity: 0;}15%{opacity: 1;}18.33%{opacity: 1;}20%{opacity: 0;}0%{opacity: 0;}100%{opacity: 0;}}@-webkit-keyframes SkO74CvDFb7_Animation{8.33%{opacity: 0;}10%{opacity: 1;}13.33%{opacity: 1;}15%{opacity: 0;}0%{opacity: 0;}100%{opacity: 0;}}@keyframes SkO74CvDFb7_Animation{8.33%{opacity: 0;}10%{opacity: 1;}13.33%{opacity: 1;}15%{opacity: 0;}0%{opacity: 0;}100%{opacity: 0;}}@-webkit-keyframes HJEXEAPwtZm_Animation{3.33%{opacity: 0;}5%{opacity: 1;}8.33%{opacity: 1;}10%{opacity: 0;}0%{opacity: 0;}100%{opacity: 0;}}@keyframes HJEXEAPwtZm_Animation{3.33%{opacity: 0;}5%{opacity: 1;}8.33%{opacity: 1;}10%{opacity: 0;}0%{opacity: 0;}100%{opacity: 0;}}@-webkit-keyframes HygXVCPDFbX_Animation{3.33%{opacity: 1;}5%{opacity: 0;}0%{opacity: 1;}100%{opacity: 0;}}@keyframes HygXVCPDFbX_Animation{3.33%{opacity: 1;}5%{opacity: 0;}0%{opacity: 1;}100%{opacity: 0;}}#Sk40PDKZX *{-webkit-animation-duration: 2s;animation-duration: 2s;-webkit-animation-iteration-count: infinite;animation-iteration-count: infinite;-webkit-animation-timing-function: cubic-bezier(0, 0, 1, 1);animation-timing-function: cubic-bezier(0, 0, 1, 1);}#SkG4RPvFWX{fill: #89E8A7;}#HJmERwvF-m{fill: #FAC4A3;}#SyE4APwYWQ{fill: none;stroke: #FECF37;stroke-width: 2.103;stroke-linecap: round;stroke-miterlimit: 10;}#rJBERDPtZX{fill: none;stroke: #FECF37;stroke-width: 2.103;stroke-linecap: round;stroke-miterlimit: 10;}#BkUN0PvtW7{fill: none;stroke: #FECF37;stroke-width: 2.103;stroke-linecap: round;stroke-miterlimit: 10;}#H1v40DwK-7{fill: #FAC4A3;}#SJdVAwwKZm{fill: #B0B0B0;}#HJFVAvPKW7{fill: #B0B0B0;}#BkqERvDtW7{fill: #B0B0B0;}#HJiE0PPFWQ{fill: #B0B0B0;}#Hk24RvwYZm{fill: #E0E0E0;}#ry6EAPDFb7{fill: #BDBDBD;}#rJCERDDYWQ{fill: #212121;}#BJ1gNAwvYZm{fill: #F5F5F5;}#BylgV0PvYbX{fill: #FBFFFA;}#S1blVCvwFZm{fill: #212121;}#rJGg4APPtWm{fill: #212121;}#H1mg4CDPF-m{fill: #212121;}#ByVgNRPvKZ7{fill: #212121;}#SJrxNRwvFb7{fill: #212121;}#H1IeNAwwKZX{fill: #212121;}#SJDg4CDvtWX{fill: #212121;}#H1_xN0wwt-m{fill: #212121;}#B1teEADPtZm{fill: #212121;}#HJ9lECvwY-X{fill: #212121;}#ryogVRwDK-Q{fill: #FFFFFF;}#Sy2lV0wDtbQ{fill: #FFFFFF;}#S1pg40wwYbm{fill: #FFFFFF;}#rkAgVRvPKZ7{fill: #FAC4A3;}#Hk1WE0Dwt-Q{fill: #FDE0C9;}#rJgW4RPvtb7{fill: none;stroke: #F8AC99;stroke-width: 1.7291;stroke-linecap: round;stroke-miterlimit: 10;}#r1-bVRDwKZX{fill: none;stroke: #89E8A7;stroke-width: 2.1076;stroke-linecap: round;stroke-miterlimit: 10;stroke-dasharray: 3.5096,7.0239;}#B1MZ4CvPFZQ{fill: none;stroke: #89E8A7;stroke-width: 2.1076;stroke-linecap: round;stroke-miterlimit: 10;stroke-dasharray: 3.5096,7.0239;}#Hk7bNADvKW7{fill: none;stroke: #89E8A7;stroke-width: 2.1076;stroke-linecap: round;stroke-miterlimit: 10;stroke-dasharray: 3.5096,7.0239;}#rkV-ERDvYbQ{fill: #3D3D41;}#HkBbV0wwtW7{fill: #F5F5F5;}#S1wZN0PwYbm{fill: #FFFFFF;stroke: #89E8A7;stroke-width: 2.3647;stroke-linecap: round;stroke-miterlimit: 10;}#SJO-N0vPYWX{fill: #C7FFD9;}#SyKZ4CPPKbQ{fill: #93F0B0;}#BJqZVCvDYW7{fill: #89E8A7;}#S1jWERvwFb7{fill: #ACF4C3;}#Sy2ZNCPDK-Q{fill: none;stroke: #89E8A7;stroke-width: 0.5374;stroke-linejoin: round;}#HyCZEAvPY-X{fill: #FFFFFF;}#BkyMVCPvt-Q{fill: none;stroke: #89E8A7;stroke-width: 0.5374;stroke-linejoin: round;}#r1lGVRvwK-7{fill: #C7FFD9;}#SJWG40vDY-m{fill: #93F0B0;}#B1MMNCvPKW7{fill: #89E8A7;}#r1mMVCvPYbm{fill: #ACF4C3;}#ryEGVAPvKZ7{fill: none;stroke: #89E8A7;stroke-width: 0.5374;stroke-linejoin: round;}#rkUGNRwwYbm{fill: #FFFFFF;}#rJvGVAvvFbX{fill: none;stroke: #89E8A7;stroke-width: 0.5374;stroke-linejoin: round;}#HkOG4AwwK-X{fill: #C7FFD9;}#H1tzNCDDt-X{fill: #93F0B0;}#SJcM40DwKbQ{fill: #89E8A7;}#B1jMVADvKZm{fill: #ACF4C3;}#SynMN0PDYZQ{fill: none;stroke: #89E8A7;stroke-width: 0.5374;stroke-linejoin: round;}#SyAG4RDPYZm{fill: #FFFFFF;}#HJyX4AvwY-m{fill: none;stroke: #89E8A7;stroke-width: 0.5374;stroke-linejoin: round;}#HygXVCPDFbX{enable-background: new;-webkit-animation-name: HygXVCPDFbX_Animation;animation-name: HygXVCPDFbX_Animation;-webkit-transform-origin: 50% 50%;transform-origin: 50% 50%;transform-box: fill-box;opacity: 1;}#rkbXEADPF-m{fill: #3D3D41;}#S1G7ERDDt-7{fill: #3D3D41;}#SyXQERPwFW7{fill: #3D3D41;}#HJEXEAPwtZm{enable-background: new;-webkit-animation-name: HJEXEAPwtZm_Animation;animation-name: HJEXEAPwtZm_Animation;-webkit-transform-origin: 50% 50%;transform-origin: 50% 50%;transform-box: fill-box;opacity: 0;}#r1rXVCwDYbm{fill: #3D3D41;}#HJIQV0PPKbm{fill: #3D3D41;}#BkvXV0DDKWX{fill: #3D3D41;}#SkO74CvDFb7{enable-background: new;-webkit-animation-name: SkO74CvDFb7_Animation;animation-name: SkO74CvDFb7_Animation;-webkit-transform-origin: 50% 50%;transform-origin: 50% 50%;transform-box: fill-box;opacity: 0;}#r1tXEAPDF-m{fill: #3D3D41;}#BycQECPDKZX{fill: #3D3D41;}#B1sm4ADwFZQ{fill: #3D3D41;}#BkhX4ADDFbX{enable-background: new;-webkit-animation-name: BkhX4ADDFbX_Animation;animation-name: BkhX4ADDFbX_Animation;-webkit-transform-origin: 50% 50%;transform-origin: 50% 50%;transform-box: fill-box;opacity: 0;}#SyTX4CvPFZ7{fill: #3D3D41;}#ryCX4CDPFZX{fill: #3D3D41;}#rkk4ECwvFZX{fill: #3D3D41;}#rJeEECDvYZX{enable-background: new;-webkit-animation-name: rJeEECDvYZX_Animation;animation-name: rJeEECDvYZX_Animation;-webkit-transform-origin: 50% 50%;transform-origin: 50% 50%;transform-box: fill-box;opacity: 0;}#SyZ4NADDK-Q{fill: #3D3D41;}#H1MEVRwDt-m{fill: #3D3D41;}#Hy7EEAwDYbX{fill: #3D3D41;}#BJNENCvwFbm{enable-background: new;-webkit-animation-name: BJNENCvwFbm_Animation;animation-name: BJNENCvwFbm_Animation;-webkit-transform-origin: 50% 50%;transform-origin: 50% 50%;transform-box: fill-box;opacity: 0;}#B1rNN0wvYZQ{fill: #3D3D41;}#HJ8NVRPPtW7{fill: #3D3D41;}#rJw4NCwPK-X{fill: #3D3D41;}#BkuVERPPFbX{enable-background: new;-webkit-animation-name: BkuVERPPFbX_Animation;animation-name: BkuVERPPFbX_Animation;-webkit-transform-origin: 50% 50%;transform-origin: 50% 50%;transform-box: fill-box;opacity: 0;}#ByKNVCvvtZQ{fill: #3D3D41;}#r1cVEAwDtWQ{fill: #3D3D41;}#BkiEE0vvKZX{fill: #3D3D41;}#BJ3EEAwPtWQ{enable-background: new;-webkit-animation-name: BJ3EEAwPtWQ_Animation;animation-name: BJ3EEAwPtWQ_Animation;-webkit-transform-origin: 50% 50%;transform-origin: 50% 50%;transform-box: fill-box;opacity: 0;}#Hkp4N0wDFW7{fill: #3D3D41;}#Hy0NVCPDYbQ{fill: #3D3D41;}#SkJBVADPFZQ{fill: #3D3D41;}#SylSE0DwKWQ{enable-background: new;-webkit-animation-name: SylSE0DwKWQ_Animation;animation-name: SylSE0DwKWQ_Animation;-webkit-transform-origin: 50% 50%;transform-origin: 50% 50%;transform-box: fill-box;opacity: 0;}#By-BEAvvtWQ{fill: #3D3D41;}#HJMHNADwt-m{fill: #3D3D41;}#BJ7BEAPPY-7{fill: #3D3D41;}#S14B40Pvtbm{enable-background: new;-webkit-animation-name: S14B40Pvtbm_Animation;animation-name: S14B40Pvtbm_Animation;-webkit-transform-origin: 50% 50%;transform-origin: 50% 50%;transform-box: fill-box;opacity: 0;}#SJrHVCvPtWQ{fill: #3D3D41;}#rJIHNRDDKZ7{fill: #3D3D41;}#HyDBE0vDFb7{fill: #3D3D41;}#BydrNCDDtbm{enable-background: new;visibility: hidden;}#rJFBECvwtZ7{fill: #3D3D41;}#SkqSNADwKb7{fill: #3D3D41;}#HJiH40PPKWX{fill: #3D3D41;}#SJ2HE0wPtbX{enable-background: new;-webkit-animation-name: SJ2HE0wPtbX_Animation;animation-name: SJ2HE0wPtbX_Animation;-webkit-transform-origin: 50% 50%;transform-origin: 50% 50%;transform-box: fill-box;opacity: 0;}#HJTSNRvwFbX{fill: #3D3D41;}#BJCSN0wwKb7{fill: #3D3D41;}#SkJL4Cvwt-X{fill: #3D3D41;}#rkeUVRwwKW7{enable-background: new;-webkit-animation-name: rkeUVRwwKW7_Animation;animation-name: rkeUVRwwKW7_Animation;-webkit-transform-origin: 50% 50%;transform-origin: 50% 50%;transform-box: fill-box;opacity: 0;}#SJW8NCwPKWQ{fill: #3D3D41;}#HJzLNAwvFWX{fill: #3D3D41;}#SkXUNAvPY-m{fill: #3D3D41;}#rk4UVAvwtZX{enable-background: new;-webkit-animation-name: rk4UVAvwtZX_Animation;animation-name: rk4UVAvwtZX_Animation;-webkit-transform-origin: 50% 50%;transform-origin: 50% 50%;transform-box: fill-box;opacity: 0;}#BkH8NAwPKWm{fill: #3D3D41;}#r1ILE0wPKZQ{fill: #3D3D41;}#SJvIE0vwtWm{fill: #3D3D41;}#HkOL4CvwtW7{enable-background: new;-webkit-animation-name: HkOL4CvwtW7_Animation;animation-name: HkOL4CvwtW7_Animation;-webkit-transform-origin: 50% 50%;transform-origin: 50% 50%;transform-box: fill-box;opacity: 0;}#SJK8EAPPFWQ{fill: #3D3D41;}#rJ98E0DPKWX{fill: #3D3D41;}#rkjINRvPFWQ{fill: #3D3D41;}#r1hUEAPDKWX{enable-background: new;-webkit-animation-name: r1hUEAPDKWX_Animation;animation-name: r1hUEAPDKWX_Animation;-webkit-transform-origin: 50% 50%;transform-origin: 50% 50%;transform-box: fill-box;opacity: 0;}#r1aINCPvKWX{fill: #3D3D41;}#HyRU40DvFbQ{fill: #3D3D41;}#BkywV0DwK-7{fill: #3D3D41;}#SJlPNCPDFZm{enable-background: new;-webkit-animation-name: SJlPNCPDFZm_Animation;animation-name: SJlPNCPDFZm_Animation;-webkit-transform-origin: 50% 50%;transform-origin: 50% 50%;transform-box: fill-box;opacity: 0;}#rybwNRvvYZ7{fill: #3D3D41;}#r1zvERPvtWX{fill: #3D3D41;}#H1mvNAPPF-Q{fill: #3D3D41;}#HJ4w4CvPtZX{enable-background: new;visibility: hidden;}#rJBDV0PvtZm{fill: #3D3D41;}#rJLwNRvDFWQ{fill: #3D3D41;}#B1vwVCDwKWX{fill: #3D3D41;}#rkFwECwPF-7{fill: #05D0A9;}#ry9DN0vDtbQ{fill: #05D0A9;}#SJ2wE0DvYZ7{fill: #FFB74D;}#B1pDV0wvFZ7{fill: #FECF37;}#BkhX4ADDFbX_rJTLuPFbm{-webkit-transform-origin: 50% 50%;transform-origin: 50% 50%;transform-box: fill-box;-webkit-transform: translate(0px, 0px);transform: translate(0px, 0px);}#SkdDNAwwtZ7_rJJO2vYZm{-webkit-animation-name: SkdDNAwwtZ7_rJJO2vYZm_Animation;animation-name: SkdDNAwwtZ7_rJJO2vYZm_Animation;-webkit-transform-origin: 50% 50%;transform-origin: 50% 50%;transform-box: fill-box;-webkit-animation-timing-function: cubic-bezier(0.42, 0, 0.58, 1);animation-timing-function: cubic-bezier(0.42, 0, 0.58, 1);}#SJiw4CDvF-X_ryXo6vFWX{-webkit-transform-origin: 50% 50%;transform-origin: 50% 50%;transform-box: fill-box;-webkit-animation-name: SJiw4CDvF-X_ryXo6vFWX_Animation;animation-name: SJiw4CDvF-X_ryXo6vFWX_Animation;-webkit-animation-timing-function: cubic-bezier(0.42, 0, 0.58, 1);animation-timing-function: cubic-bezier(0.42, 0, 0.58, 1);}#H1I-VAwDKW7_rkbURDKZQ{-webkit-animation-name: H1I-VAwDKW7_rkbURDKZQ_Animation;animation-name: H1I-VAwDKW7_rkbURDKZQ_Animation;-webkit-transform-origin: 50% 50%;transform-origin: 50% 50%;transform-box: fill-box;}</style>

<g id="r1eVRvvFZX">
	<g id="Sy-ERwvtZm">
		<path d="M105.5,7.6c-0.7-0.6-1.7-0.5-2.3,0.1c-0.2,0.2-0.3,0.5-0.4,0.7l-1.7,8.3l-1.6,8.3c-0.2,0.9,0.4,1.7,1.3,1.9&#10;&#9;&#9;&#9;c0.3,0,0.6,0,0.8,0l8-2.7l8-2.7c0.8-0.3,1.3-1.2,1-2.1c-0.1-0.3-0.2-0.5-0.5-0.7l-6.4-5.7L105.5,7.6z" id="SkG4RPvFWX"/>
	</g>
	<path d="M349.1,600.4H439l-32.6-110.8l-10.2-58.3l-38.4,6.8l-50.7,8.9c0,0,25.4,42.1,27.7,55.2&#10;&#9;&#9;C335.9,508.9,342.8,556.2,349.1,600.4z" id="HJmERwvF-m"/>
	<line x1="321.6" y1="87.5" x2="321.6" y2="52.1" id="SyE4APwYWQ"/>
	<line x1="465" y1="190.9" x2="498" y2="180.2" id="rJBERDPtZX"/>
	<line x1="395.8" y1="129.8" x2="440.1" y2="75.9" id="BkUN0PvtW7"/>
	<path d="M378.9,332.9l-59.2-56.2L285,349.3l57.5,156l64.7-11.4c0,0,21.5-45.7,17.1-79.1&#10;&#9;&#9;C420.7,387.5,414.2,368.2,378.9,332.9z" id="H1v40DwK-7"/>
	<path d="M384.3,211.4h3c1.1,0,2,0.9,2,2V247c0,1.1-0.9,2-2,2h-3l0,0V211.4L384.3,211.4z" id="SJdVAwwKZm"/>
	<path d="M229.8,226h-3c-1.1,0-2-0.9-2-2l0,0v-20c0-1.1,0.9-2,2-2h3l0,0V226L229.8,226z" id="HJFVAvPKW7"/>
	<path d="M229.8,191.7h-3c-1.1,0-2-0.9-2-2l0,0V181c0-1.1,0.9-2,2-2l0,0h3l0,0V191.7L229.8,191.7L229.8,191.7z" id="BkqERvDtW7"/>
	<path d="M229.8,256.1h-3c-1.1,0-2-0.9-2-2v-20c0-1.1,0.9-2,2-2h3l0,0V256.1L229.8,256.1z" id="HJiE0PPFWQ"/>
	<path d="M251.4,135.3h111.2c13.7,0,24.8,11.1,24.8,24.8v275.7c0,13.7-11.1,24.8-24.8,24.8H251.4&#10;&#9;&#9;c-13.7,0-24.8-11.1-24.8-24.8V160.1C226.7,146.4,237.7,135.3,251.4,135.3z" id="Hk24RvwYZm"/>
	<path d="M384.3,160.1v275.7c0,12-9.7,21.7-21.7,21.7H251.4c-12,0-21.7-9.7-21.7-21.7V160.1c0-12,9.7-21.7,21.7-21.7&#10;&#9;&#9;h111.2C374.6,138.4,384.3,148.1,384.3,160.1z" id="ry6EAPDFb7"/>
	<path d="M380.9,160.1v275.7c0,10.1-8.2,18.3-18.3,18.3H251.4c-10.1,0-18.3-8.2-18.3-18.3V160.1&#10;&#9;&#9;c0-10.1,8.2-18.3,18.3-18.3h111.2C372.7,141.8,380.9,150,380.9,160.1z" id="rJCERDDYWQ"/>
	<path d="M362.7,145.2h-14.3c-0.9,0-1.6,0.7-1.6,1.6l0,0c0,5.3-4.3,9.6-9.6,9.6h-61.1c-5.3,0-9.6-4.3-9.6-9.6l0,0&#10;&#9;&#9;c0-0.9-0.7-1.6-1.6-1.6h-13.6c-8.2,0-14.9,6.6-14.9,14.9l0,0v275.7c0,8.2,6.6,14.9,14.9,14.9h111.2c8.2,0,14.9-6.6,14.9-14.9l0,0&#10;&#9;&#9;V160.1C377.5,151.9,370.9,145.2,362.7,145.2L362.7,145.2z" id="BJ1gNAwvYZm"/>
	<path d="M282.8,446.4h48.4c0.6,0,1.1,0.5,1.1,1.1l0,0c0,0.6-0.5,1.1-1.1,1.1h-48.4c-0.6,0-1.1-0.5-1.1-1.1l0,0&#10;&#9;&#9;C281.7,446.9,282.2,446.4,282.8,446.4z" id="BylgV0PvYbX"/>
	<rect x="346.7" y="154.3" width="1.3" height="1.6" id="S1blVCvwFZm"/>
	<rect x="348.5" y="153.5" width="1.3" height="2.4" id="rJGg4APPtWm"/>
	<rect x="350.2" y="152.6" width="1.3" height="3.3" id="H1mg4CDPF-m"/>
	<rect x="352" y="151.8" width="1.3" height="4" id="ByVgNRPvKZ7"/>
	<path d="M358.2,153c-0.8,0-1.5,0.3-2.1,0.8l0.8,0.8c0.7-0.7,1.9-0.7,2.6,0l0.8-0.8C359.7,153.3,359,153,358.2,153z" id="SJrxNRwvFb7"/>
	<path d="M357.1,154.8l1.1,1.1l1.1-1.1C358.6,154.2,357.7,154.2,357.1,154.8L357.1,154.8L357.1,154.8z" id="H1IeNAwwKZX"/>
	<path d="M358.2,152.7c0.8,0,1.7,0.3,2.3,0.9l0.8-0.8c-1.7-1.7-4.4-1.7-6.1,0l0,0l0.8,0.8&#10;&#9;&#9;C356.5,153,357.3,152.6,358.2,152.7z" id="SJDg4CDvtWX"/>
	<path d="M369.9,151.7h-6c-0.6,0-1,0.4-1,1v2.3c0,0.6,0.4,1,1,1h6c0.6,0,1-0.4,1-1v-2.3&#10;&#9;&#9;C370.9,152.1,370.5,151.7,369.9,151.7L369.9,151.7z M370.6,155c0,0.4-0.3,0.7-0.7,0.7h-6c-0.4,0-0.7-0.3-0.7-0.7v-2.3&#10;&#9;&#9;c0-0.4,0.3-0.7,0.7-0.7h6c0.4,0,0.7,0.3,0.7,0.7V155z" id="H1_xN0wwt-m"/>
	<path d="M363.8,152.3h6.3c0.1,0,0.2,0.1,0.2,0.2v2.4c0,0.1-0.1,0.2-0.2,0.2h-6.3c-0.1,0-0.2-0.1-0.2-0.2v-2.4&#10;&#9;&#9;C363.6,152.5,363.6,152.3,363.8,152.3z" id="B1teEADPtZm"/>
	<path d="M371.2,153v1.7c0.5-0.1,0.8-0.5,0.7-1C371.9,153.3,371.6,153,371.2,153z" id="HJ9lECvwY-X"/>
	<path d="M347.4,420.8h0.7c0.1,0,0.2,0,0.2-0.1s0-0.2-0.1-0.2h0h-0.7c-0.1,0-0.2,0-0.2,0.1S347.3,420.8,347.4,420.8&#10;&#9;&#9;C347.4,420.8,347.4,420.8,347.4,420.8z" id="ryogVRwDK-Q"/>
	<path d="M350.6,421.9c-0.8,0-1.5,0.7-1.5,1.5s0.7,1.5,1.5,1.5s1.5-0.7,1.5-1.5S351.4,421.9,350.6,421.9L350.6,421.9z" id="Sy2lV0wDtbQ"/>
	<path d="M354.1,421.1h-1.5l-0.6-1.2h-2.8l-0.5,1.2h-1.5c-0.4,0-0.7,0.3-0.7,0.7l0,0v3.6c0,0.4,0.3,0.7,0.7,0.7h6.9&#10;&#9;&#9;c0.4,0,0.7-0.3,0.7-0.7l0,0v-3.6C354.9,421.4,354.5,421.1,354.1,421.1L354.1,421.1z M350.6,425.2c-1,0-1.8-0.8-1.8-1.8&#10;&#9;&#9;c0-1,0.8-1.8,1.8-1.8c1,0,1.8,0.8,1.8,1.8l0,0C352.4,424.4,351.5,425.2,350.6,425.2L350.6,425.2z M353,422c-0.1,0-0.3-0.1-0.3-0.3&#10;&#9;&#9;c0-0.1,0.1-0.3,0.3-0.3s0.3,0.1,0.3,0.3l0,0C353.3,421.9,353.2,422,353,422L353,422L353,422z" id="S1pg40wwYbm"/>
	<path d="M398.6,419.6c-1.1-4.2-5.6-6.2-9.5-4.5c-0.5,0.2-0.9,0.3-1.4,0.4c-7.3,1.1-23.4-23.4-24.8-29.9&#10;&#9;&#9;c-1.8-8-3.7-16.2-3.8-23c0-0.8,0.3-6.1,0.4-6.9c0.4-8.1-7.9-9.7-15.6-7c-0.6,0.2-1.1,0.5-1.6,0.8c-5.5,3.8-11.6,13-11.8,29.5&#10;&#9;&#9;c-0.2,12.1,8.9,31.6,15,40.5c1.4,2,1.6,4.4,0.7,6.6c-4.3,10.3-5.9,25-2.4,39.1c4.6,18.7,16.5,31.6,18.3,32.2l35.1-7.1&#10;&#9;&#9;c3.6,1.3,7.6-0.6,8.8-4.2c0.3-0.9,0.5-2,0.4-3l-5.1-53.4c0-0.4-0.1-0.7-0.2-1.1L398.6,419.6z" id="rkAgVRvPKZ7"/>
	<path d="M359.3,353.9c0,0-6.8,0.1-8.7,0.6c-2,0.5-3.6,16.7,0.5,22c4.1,5.3,9.7-0.9,9.7-0.9L359.3,353.9z" id="Hk1WE0Dwt-Q"/>
	<path d="M346,426.1c-4.3,10.3-5.9,25-2.4,39.1c1.2,5,3,9.8,5.3,14.4" id="rJgW4RPvtb7"/>
	<path d="M215.5,180.3c-50.2-46-79.9-91.9-97.1-132.4c-4.3-10-7.9-20.3-11-30.7" id="r1-bVRDwKZX"/>
	<path d="M207.7,207c-12.4-10.9-24.3-22.5-35.5-34.6" id="B1MZ4CvPFZQ"/>
	<path d="M184.1,166.2c0,0,30.3,36.6,64.2,56.9" id="Hk7bNADvKW7"/>
	<path d="M356.5,218.1h-98.8c-2.3,0-4.2-1.9-4.2-4.2v-43.7c0-2.3,1.9-4.2,4.2-4.2h98.8c2.3,0,4.2,1.9,4.2,4.2v43.7&#10;&#9;&#9;C360.7,216.1,358.8,218.1,356.5,218.1z" id="rkV-ERDvYbQ"/>
	<path d="M257.7,215.2c-0.7,0-1.4-0.6-1.4-1.4v-43.7c0-0.7,0.6-1.4,1.4-1.4h98.8c0.7,0,1.4,0.6,1.4,1.4v43.7&#10;&#9;&#9;c0,0.7-0.6,1.4-1.4,1.4H257.7z" id="HkBbV0wwtW7"/>
</g>
<g id="H1I-VAwDKW7_rkbURDKZQ" data-animator-group="true" data-animator-type="0"><g id="H1I-VAwDKW7">
	<circle cx="160" cy="114.2" r="57.4" id="S1wZN0PwYbm"/>
	<polygon points="145.9,104.8 136.6,106.8 152.6,116.5 161.9,114.5 &#9;" id="SJO-N0vPYWX"/>
	<polygon points="161.9,135.3 161.9,114.5 152.6,116.5 152.6,137.3 &#9;" id="SyKZ4CPPKbQ"/>
	<polygon points="145.5,143 161.9,135.3 152.6,137.3 136.2,145.9 &#9;" id="BJqZVCvDYW7"/>
	<polygon points="136.6,106.8 120.6,115.4 120.6,136.2 136.2,145.9 152.6,137.3 152.6,116.5 &#9;" id="S1jWERvwFb7"/>
	<polygon points="136.6,106.8 120.6,115.4 120.6,136.2 136.2,145.9 152.6,137.3 152.6,116.5 &#9;" id="Sy2ZNCPDK-Q"/>
	<g id="rJpZ4RPwt-7">
		<path d="M148.1,121.5c-0.1,0.1-0.2,0.2-0.4,0.3l-12.4,14c-0.1,0.1-0.2,0.2-0.3,0.4l-7.8-9l3.2-3.6l4.5,5.1l9.8-11.2&#10;&#9;&#9;&#9;l3.3,3.8V121.5z" id="HyCZEAvPY-X"/>
	</g>
	<polygon points="161.9,114.5 145.9,104.8 136.6,106.8 136.6,106.8 120.6,115.4 120.6,136.2 136.2,145.9 145.5,143 &#10;&#9;&#9;161.9,135.3 &#9;" id="BkyMVCPvt-Q"/>
	<polygon points="163.7,73.9 154.4,75.9 170.4,85.6 179.7,83.6 &#9;" id="r1lGVRvwK-7"/>
	<polygon points="179.7,104.4 179.7,83.6 170.4,85.6 170.4,106.4 &#9;" id="SJWG40vDY-m"/>
	<polygon points="163.3,112.1 179.7,104.4 170.4,106.4 154,115 &#9;" id="B1MMNCvPKW7"/>
	<polygon points="154.4,75.9 138.4,84.4 138.4,105.2 154,115 170.4,106.4 170.4,85.6 &#9;" id="r1mMVCvPYbm"/>
	<polygon points="154.4,75.9 138.4,84.4 138.4,105.2 154,115 170.4,106.4 170.4,85.6 &#9;" id="ryEGVAPvKZ7"/>
	<g id="B1SfN0PPY-m">
		<path d="M165.9,90.6c-0.1,0.1-0.2,0.2-0.4,0.3l-12.4,14c-0.1,0.1-0.2,0.2-0.3,0.4l-7.8-8.9l3.2-3.6l4.5,5.1l9.8-11.2&#10;&#9;&#9;&#9;L165.9,90.6L165.9,90.6z" id="rkUGNRwwYbm"/>
	</g>
	<polygon points="179.7,83.6 163.7,73.9 154.4,75.9 154.4,75.9 138.4,84.4 138.4,105.2 154,115 163.3,112.1 &#10;&#9;&#9;179.7,104.4 &#9;" id="rJvGVAvvFbX"/>
	<polygon points="180.1,106.1 170.8,108.1 186.8,117.9 196.1,115.8 &#9;" id="HkOG4AwwK-X"/>
	<polygon points="196.1,136.7 196.1,115.8 186.8,117.9 186.8,138.7 &#9;" id="H1tzNCDDt-X"/>
	<polygon points="179.7,144.4 196.1,136.7 186.8,138.7 170.4,147.3 &#9;" id="SJcM40DwKbQ"/>
	<polygon points="170.8,108.1 154.8,116.7 154.8,137.5 170.4,147.3 186.8,138.7 186.8,117.9 &#9;" id="B1jMVADvKZm"/>
	<polygon points="170.8,108.1 154.8,116.7 154.8,137.5 170.4,147.3 186.8,138.7 186.8,117.9 &#9;" id="SynMN0PDYZQ"/>
	<g id="H1TMEAvDKZm">
		<path d="M182.3,122.8c-0.1,0.1-0.2,0.2-0.4,0.3l-12.4,14c-0.1,0.1-0.2,0.2-0.3,0.4l-7.8-9l3.2-3.6l4.5,5.1l9.8-11.2&#10;&#9;&#9;&#9;l3.3,3.8V122.8z" id="SyAG4RDPYZm"/>
	</g>
	<polygon points="196.1,115.8 180.1,106.1 170.8,108.1 170.8,108.1 154.8,116.7 154.8,137.5 170.4,147.3 179.7,144.4 &#10;&#9;&#9;196.1,136.7 &#9;" id="HJyX4AvwY-m"/>
</g></g>
<g id="HygXVCPDFbX">
	<path d="M270.3,205.4l0.2-21.2c-0.8,0.8-1.9,1.2-3.1,1.2c-2.2,0-3.6-1.3-3.6-3.2c0-1.6,1.2-2.4,1.4-2.3&#10;&#9;&#9;c0.7,0.6,1.5,1.1,2.7,1.1c2,0,3.5-1.5,3.7-3.4l1.6,0c1.4,0,2.1,0.8,2,2.2l-0.3,25.8c0,1.4-0.7,2.1-2.1,2.1l-0.6,0&#10;&#9;&#9;C271,207.6,270.3,206.8,270.3,205.4z" id="rkbXEADPF-m"/>
	<path d="M296,205.7l0.1-6l-12.1-0.1c-1.8,0-2.9-0.9-2.9-2.2l0-1c0-1,0.5-1.7,1.4-2.9l10.7-13.6&#10;&#9;&#9;c1.2-1.6,1.8-2.1,4.1-2.1c2.6,0,3.5,0.9,3.5,3.1l-0.2,15l3.3,0c1.4,0,2.1,0.6,2,1.9l0,0.2c0,1.2-0.7,1.8-2.1,1.8l-3.3,0l-0.1,6&#10;&#9;&#9;c0,1.4-0.7,2.1-2,2.1l-0.5,0C296.7,207.9,296,206.9,296,205.7z M285.3,195.8l10.9,0.1l0.1-14.3L285.3,195.8z" id="S1G7ERDDt-7"/>
	<path d="M313.4,190.7c1.7-0.8,3.8-1.3,6.1-1.3c6.4,0.1,10.6,3.7,10.5,9.5c-0.1,5.9-4.5,9.7-11.6,9.6&#10;&#9;&#9;c-6.5-0.1-10.5-3.5-10.5-6c0-1.6,2.1-2.5,2.3-2.3c1.6,2.7,4.5,4.4,8.3,4.5c4.4,0,7.1-2.2,7.2-5.8c0-3.6-2.4-5.7-6.6-5.8&#10;&#9;&#9;c-3.2,0-5.3,0.8-6.9,1.9c-2-0.2-2.9-1.1-2.9-3l0.1-11.3c0-1.6,0.9-2.6,2.5-2.6l14.9,0.2c1.5,0,2.2,0.7,2.2,1.9l0,0.2&#10;&#9;&#9;c0,1.2-0.8,1.9-2.2,1.9l-13.1-0.1L313.4,190.7z" id="SyXQERPwFW7"/>
</g>
<g id="HJEXEAPwtZm">
	<path d="M270.3,205.4l0.2-21.2c-0.8,0.8-1.9,1.2-3.1,1.2c-2.2,0-3.6-1.3-3.6-3.2c0-1.6,1.2-2.4,1.4-2.3&#10;&#9;&#9;c0.7,0.6,1.5,1.1,2.7,1.1c2,0,3.5-1.5,3.7-3.4l1.6,0c1.4,0,2.1,0.8,2,2.2l-0.3,25.8c0,1.4-0.7,2.1-2.1,2.1l-0.6,0&#10;&#9;&#9;C271,207.6,270.3,206.9,270.3,205.4z" id="r1rXVCwDYbm"/>
	<path d="M296,205.7l0.1-6l-12.1-0.1c-1.8,0-2.9-0.9-2.9-2.2l0-1c0-1,0.5-1.7,1.4-2.9l10.7-13.6&#10;&#9;&#9;c1.2-1.6,1.8-2.1,4.1-2.1c2.6,0,3.5,0.9,3.5,3.1l-0.2,15l3.3,0c1.4,0,2.1,0.6,2,1.9l0,0.2c0,1.2-0.7,1.8-2.1,1.8l-3.3,0l-0.1,6&#10;&#9;&#9;c0,1.4-0.7,2.1-2,2.1l-0.5,0C296.7,207.9,295.9,206.9,296,205.7z M285.3,195.8l10.9,0.1l0.1-14.3L285.3,195.8z" id="HJIQV0PPKbm"/>
	<path d="M307.4,180.1c0-1.3,0.8-2,2.1-1.9l17.3,0.2c2.5,0,2.9,1.1,2.9,2.3l0,0.4c0,1-0.7,2.2-1.4,3.4l-12.2,22&#10;&#9;&#9;c-0.7,1.3-1.6,1.6-2.4,1.6c-1.6,0-2.8-1.5-2.6-1.8l13.4-23.7l-15-0.2c-1.4,0-2.1-0.7-2.1-1.9L307.4,180.1z" id="BkvXV0DDKWX"/>
</g>
<g id="SkO74CvDFb7">
	<path d="M270,205.4l0.2-21.2c-0.8,0.8-1.9,1.2-3.1,1.2c-2.2,0-3.6-1.3-3.6-3.2c0-1.6,1.2-2.4,1.4-2.3&#10;&#9;&#9;c0.7,0.6,1.5,1.1,2.7,1.1c2,0,3.5-1.5,3.7-3.4l1.6,0c1.4,0,2.1,0.8,2,2.2l-0.3,25.8c0,1.4-0.7,2.1-2.1,2.1l-0.6,0&#10;&#9;&#9;C270.6,207.6,269.9,206.8,270,205.4z" id="r1tXEAPDF-m"/>
	<path d="M295.6,205.7l0.1-6l-12.1-0.1c-1.8,0-2.9-0.9-2.9-2.2l0-1c0-1,0.5-1.7,1.4-2.9l10.7-13.6&#10;&#9;&#9;c1.2-1.6,1.8-2.1,4.1-2.1c2.6,0,3.5,0.9,3.5,3.1l-0.2,15l3.3,0c1.4,0,2.1,0.6,2,1.9l0,0.2c0,1.2-0.7,1.8-2.1,1.8l-3.3,0l-0.1,6&#10;&#9;&#9;c0,1.4-0.7,2.1-2,2.1l-0.5,0C296.3,207.8,295.6,206.9,295.6,205.7z M284.9,195.8l10.9,0.1l0.1-14.3L284.9,195.8z" id="BycQECPDKZX"/>
	<path d="M326.4,194.1c-1.9,1.8-5,3.2-8.4,3.1c-6.1-0.1-10-3.4-9.9-9l0-0.2c0.1-5.9,4.7-10.4,11.1-10.3&#10;&#9;&#9;c7.5,0.1,12,5.2,11.9,13.8l0,3.2c-0.1,9.2-4.6,13.9-12.8,13.8c-6.2-0.1-9.4-2.9-9.3-5.1c0-1.7,1.9-2.5,2-2.4&#10;&#9;&#9;c1.6,2.1,3.9,3.6,7.2,3.6c5.5,0.1,8.3-3,8.3-9.9L326.4,194.1z M326.4,190.4c-0.1-5.6-2.6-9-7.1-9c-3.8,0-6.6,2.7-6.7,6.3l0,0.2&#10;&#9;&#9;c0,3.7,2.2,5.7,6.4,5.8C321.8,193.7,324.6,192.3,326.4,190.4z" id="B1sm4ADwFZQ"/>
</g>
<g id="BkhX4ADDFbX">
	<path d="M270.7,205.5l0.2-21.2c-0.8,0.8-1.9,1.2-3.1,1.2c-2.2,0-3.6-1.3-3.6-3.2c0-1.6,1.2-2.4,1.4-2.3&#10;&#9;&#9;c0.7,0.6,1.5,1.1,2.7,1.1c2,0,3.5-1.5,3.7-3.4l1.6,0c1.4,0,2.1,0.8,2,2.2l-0.3,25.8c0,1.4-0.7,2.1-2.1,2.1l-0.6,0&#10;&#9;&#9;C271.4,207.6,270.7,206.9,270.7,205.5z" id="SyTX4CvPFZ7"/>
	<path d="M286.5,190.4c1.7-0.8,3.8-1.3,6.1-1.3c6.4,0.1,10.6,3.7,10.5,9.5c-0.1,5.9-4.5,9.7-11.6,9.6&#10;&#9;&#9;c-6.5-0.1-10.5-3.5-10.5-6c0-1.6,2.1-2.5,2.3-2.3c1.6,2.7,4.5,4.4,8.3,4.5c4.4,0,7.1-2.2,7.2-5.8c0-3.6-2.4-5.7-6.6-5.8&#10;&#9;&#9;c-3.2,0-5.3,0.8-6.9,1.9c-2-0.2-2.9-1.1-2.9-3l0.1-11.3c0-1.6,0.9-2.6,2.5-2.6l14.9,0.2c1.5,0,2.2,0.7,2.2,1.9l0,0.2&#10;&#9;&#9;c0,1.2-0.8,1.9-2.2,1.9l-13.1-0.1L286.5,190.4z" id="ryCX4CDPFZX"/>
	<path d="M310.6,203.8l15,0.2c1.6,0,2.2,0.7,2.2,1.9l0,0.3c0,1.2-0.7,1.9-2.3,1.9l-16.5-0.2c-2.1,0-2.9-0.7-2.9-2.6&#10;&#9;&#9;l0-1.1c0.1-6.1,4.8-8.7,9.3-10.9c3.9-1.9,7.4-3.3,7.4-6.5c0-3.1-2.2-4.9-6-5c-4.4,0-6.4,2.6-7.3,5.6c0,0.1-3.1,0.2-3.1-2.3&#10;&#9;&#9;c0-3.1,3.7-7.4,10.7-7.3c6.5,0.1,10.3,3.5,10.3,8.9c-0.1,5.3-4.3,7.4-8.8,9.4C314.3,197.9,310.8,199.7,310.6,203.8z" id="rkk4ECwvFZX"/>
</g>
<g id="rJeEECDvYZX">
	<path d="M270.7,205.4l0.2-21.2c-0.8,0.8-1.9,1.2-3.1,1.2c-2.2,0-3.6-1.3-3.6-3.2c0-1.6,1.2-2.4,1.4-2.3&#10;&#9;&#9;c0.7,0.6,1.5,1.1,2.7,1.1c2,0,3.5-1.5,3.7-3.4l1.6,0c1.4,0,2.1,0.8,2,2.2l-0.3,25.8c0,1.4-0.7,2.1-2.1,2.1l-0.6,0&#10;&#9;&#9;C271.3,207.6,270.6,206.9,270.7,205.4z" id="SyZ4NADDK-Q"/>
	<path d="M286.5,190.4c1.7-0.8,3.8-1.3,6.1-1.3c6.4,0.1,10.6,3.7,10.5,9.5c-0.1,5.9-4.5,9.7-11.6,9.6&#10;&#9;&#9;c-6.5-0.1-10.5-3.5-10.5-6c0-1.6,2.1-2.5,2.3-2.3c1.6,2.7,4.5,4.4,8.3,4.5c4.3,0,7.1-2.2,7.2-5.8c0-3.6-2.4-5.7-6.6-5.8&#10;&#9;&#9;c-3.2,0-5.3,0.8-6.9,1.9c-2-0.2-2.9-1.1-2.9-3l0.1-11.3c0-1.6,0.9-2.6,2.5-2.6l14.9,0.2c1.5,0,2.2,0.7,2.2,1.9l0,0.2&#10;&#9;&#9;c0,1.2-0.8,1.9-2.2,1.9l-13.1-0.1L286.5,190.4z" id="H1MEVRwDt-m"/>
	<path d="M311.4,191.4l0,0.9c1.9-1.8,5-3.2,8.5-3.2c6,0.1,10,3.5,9.9,9l0,0.2c-0.1,5.9-4.7,10.1-11.1,10&#10;&#9;&#9;c-7.9-0.1-12.1-5.7-12-13.9l0-3c0.1-8.7,5-14,12.6-13.9c6.2,0.1,9.4,3,9.4,5.4c0,1.8-2.3,2.4-2.4,2.3c-1.4-2.1-3.4-3.7-6.8-3.7&#10;&#9;&#9;C314.4,181.5,311.5,185,311.4,191.4z M311.4,196c0.2,5.4,2.7,8.6,7.1,8.7c3.9,0,6.7-2.4,6.7-5.9l0-0.3c0-3.7-2.3-5.7-6.4-5.8&#10;&#9;&#9;C316,192.7,313.2,194.1,311.4,196z" id="Hy7EEAwDYbX"/>
</g>
<g id="BJNENCvwFbm">
	<path d="M270.4,205.4l0.2-21.2c-0.8,0.8-1.9,1.2-3.1,1.2c-2.2,0-3.6-1.3-3.6-3.2c0-1.6,1.2-2.4,1.4-2.3&#10;&#9;&#9;c0.7,0.6,1.5,1.1,2.7,1.1c2,0,3.5-1.5,3.7-3.4l1.6,0c1.4,0,2.1,0.8,2,2.2l-0.3,25.8c0,1.4-0.7,2.1-2.1,2.1l-0.6,0&#10;&#9;&#9;C271.1,207.5,270.4,206.8,270.4,205.4z" id="B1rNN0wvYZQ"/>
	<path d="M286.5,191.1l0,0.9c1.9-1.8,5-3.2,8.5-3.2c6,0.1,10,3.5,9.9,9l0,0.2c-0.1,5.9-4.7,10.1-11.1,10&#10;&#9;&#9;c-7.9-0.1-12.1-5.7-12-13.9l0-3c0.1-8.7,5-14,12.6-13.9c6.2,0.1,9.4,3,9.4,5.4c0,1.8-2.3,2.4-2.4,2.3c-1.4-2.1-3.4-3.7-6.8-3.7&#10;&#9;&#9;C289.5,181.2,286.6,184.7,286.5,191.1z M286.5,195.7c0.2,5.4,2.7,8.6,7.1,8.7c3.9,0,6.7-2.4,6.7-5.9l0-0.3c0-3.7-2.3-5.7-6.4-5.8&#10;&#9;&#9;C291.1,192.4,288.3,193.8,286.5,195.7z" id="HJ8NVRPPtW7"/>
	<path d="M308.7,194.4l0-3c0.1-8.6,4.9-13.9,12.5-13.8c7.7,0.1,12.3,5.4,12.2,14l0,3c-0.1,8.6-4.9,13.9-12.5,13.8&#10;&#9;&#9;C313.2,208.3,308.6,203,308.7,194.4z M328.7,194.8l0-3.3c0.1-6.2-2.7-9.9-7.5-10c-4.8,0-7.6,3.5-7.7,9.7l0,3.3&#10;&#9;&#9;c-0.1,6.2,2.7,9.8,7.5,9.9C325.8,204.5,328.6,201,328.7,194.8z" id="rJw4NCwPK-X"/>
</g>
<g id="BkuVERPPFbX">
	<path d="M270.2,205.4l0.2-21.2c-0.8,0.8-1.9,1.2-3.1,1.2c-2.2,0-3.6-1.3-3.6-3.2c0-1.6,1.2-2.4,1.4-2.3&#10;&#9;&#9;c0.7,0.6,1.5,1.1,2.7,1.1c2,0,3.5-1.5,3.7-3.4l1.6,0c1.4,0,2.1,0.8,2,2.2l-0.3,25.8c0,1.4-0.7,2.1-2.1,2.1l-0.6,0&#10;&#9;&#9;C270.9,207.6,270.2,206.9,270.2,205.4z" id="ByKNVCvvtZQ"/>
	<path d="M286.3,191.2l0,0.9c1.9-1.8,5-3.2,8.5-3.2c6,0.1,10,3.5,9.9,9l0,0.2c-0.1,5.9-4.7,10.1-11.1,10&#10;&#9;&#9;c-7.9-0.1-12.1-5.7-12-13.9l0-3c0.1-8.7,5-14,12.6-13.9c6.2,0.1,9.4,3,9.4,5.4c0,1.8-2.3,2.4-2.4,2.3c-1.4-2.1-3.4-3.7-6.8-3.7&#10;&#9;&#9;C289.3,181.2,286.4,184.7,286.3,191.2z M286.3,195.8c0.2,5.4,2.7,8.6,7.1,8.7c3.9,0,6.7-2.4,6.7-5.9l0-0.3c0-3.7-2.3-5.7-6.4-5.8&#10;&#9;&#9;C290.9,192.4,288.1,193.8,286.3,195.8z" id="r1cVEAwDtWQ"/>
	<path d="M312.9,190.7c1.7-0.8,3.8-1.3,6.1-1.3c6.4,0.1,10.6,3.7,10.5,9.5c-0.1,5.9-4.5,9.7-11.6,9.6&#10;&#9;&#9;c-6.5-0.1-10.5-3.5-10.5-6c0-1.6,2.1-2.5,2.3-2.3c1.6,2.7,4.5,4.4,8.3,4.5c4.4,0,7.1-2.2,7.2-5.8s-2.4-5.7-6.6-5.8&#10;&#9;&#9;c-3.2,0-5.3,0.8-6.9,1.9c-2-0.2-2.9-1.1-2.9-3l0.1-11.3c0-1.6,0.9-2.6,2.5-2.6l14.9,0.2c1.5,0,2.2,0.7,2.2,1.9l0,0.2&#10;&#9;&#9;c0,1.2-0.8,1.9-2.2,1.9l-13.1-0.1L312.9,190.7z" id="BkiEE0vvKZX"/>
</g>
<g id="BJ3EEAwPtWQ">
	<path d="M270.5,205.4l0.2-21.2c-0.8,0.8-1.9,1.2-3.1,1.2c-2.2,0-3.6-1.3-3.6-3.2c0-1.6,1.2-2.4,1.4-2.3&#10;&#9;&#9;c0.7,0.6,1.5,1.1,2.7,1.1c2,0,3.5-1.5,3.7-3.4l1.6,0c1.4,0,2.1,0.8,2,2.2l-0.3,25.8c0,1.4-0.7,2.1-2.1,2.1l-0.6,0&#10;&#9;&#9;C271.2,207.6,270.5,206.8,270.5,205.4z" id="Hkp4N0wDFW7"/>
	<path d="M281,179.8c0-1.3,0.8-2,2.1-1.9l17.3,0.2c2.5,0,2.9,1.1,2.9,2.3l0,0.4c0,1-0.7,2.2-1.4,3.4l-12.2,22&#10;&#9;&#9;c-0.7,1.3-1.6,1.6-2.4,1.6c-1.6,0-2.8-1.5-2.6-1.8l13.4-23.7l-15-0.2c-1.4,0-2.1-0.7-2.1-1.9L281,179.8z" id="Hy0NVCPDYbQ"/>
	<path d="M305.9,194.4l0-3c0.1-8.6,4.9-13.9,12.5-13.8c7.7,0.1,12.3,5.4,12.2,14l0,3c-0.1,8.6-4.9,13.9-12.5,13.8&#10;&#9;&#9;C310.4,208.3,305.8,203,305.9,194.4z M325.9,194.8l0-3.3c0.1-6.2-2.7-9.9-7.5-10c-4.8,0-7.6,3.5-7.7,9.7l0,3.3&#10;&#9;&#9;c-0.1,6.2,2.7,9.8,7.5,9.9C323,204.5,325.8,201,325.9,194.8z" id="SkJBVADPFZQ"/>
</g>
<g id="SylSE0DwKWQ">
	<path d="M270.6,205.5l0.2-21.2c-0.8,0.8-1.9,1.2-3.1,1.2c-2.2,0-3.6-1.3-3.6-3.2c0-1.6,1.2-2.4,1.4-2.3&#10;&#9;&#9;c0.7,0.6,1.5,1.1,2.7,1.1c2,0,3.5-1.5,3.7-3.4l1.6,0c1.4,0,2.1,0.8,2,2.2l-0.3,25.8c0,1.4-0.7,2.1-2.1,2.1l-0.6,0&#10;&#9;&#9;C271.2,207.6,270.5,206.9,270.6,205.5z" id="By-BEAvvtWQ"/>
	<path d="M281,179.8c0-1.3,0.8-2,2.1-1.9l17.3,0.2c2.5,0,2.9,1.1,2.9,2.3l0,0.4c0,1-0.7,2.2-1.4,3.4l-12.2,22&#10;&#9;&#9;c-0.7,1.3-1.6,1.6-2.4,1.6c-1.6,0-2.8-1.5-2.6-1.8l13.4-23.7l-15-0.2c-1.4,0-2.1-0.7-2.1-1.9L281,179.8z" id="HJMHNADwt-m"/>
	<path d="M318.3,205.9l0.1-6l-12.1-0.1c-1.8,0-2.9-0.9-2.9-2.2l0-1c0-1,0.5-1.7,1.4-2.9l10.7-13.6&#10;&#9;&#9;c1.2-1.6,1.8-2.1,4.1-2.1c2.6,0,3.5,0.9,3.5,3.1l-0.2,15l3.3,0c1.4,0,2.1,0.6,2,1.9l0,0.2c0,1.2-0.7,1.8-2.1,1.8l-3.3,0l-0.1,6&#10;&#9;&#9;c0,1.4-0.7,2.1-2,2.1l-0.5,0C319,208.1,318.3,207.2,318.3,205.9z M307.6,196.1l10.9,0.1l0.1-14.3L307.6,196.1z" id="BJ7BEAPPY-7"/>
</g>
<g id="S14B40Pvtbm">
	<path d="M270.3,205.5l0.2-21.2c-0.8,0.8-1.9,1.2-3.1,1.2c-2.2,0-3.6-1.3-3.6-3.2c0-1.6,1.2-2.4,1.4-2.3&#10;&#9;&#9;c0.7,0.6,1.5,1.1,2.7,1.1c2,0,3.5-1.5,3.7-3.4l1.6,0c1.4,0,2.1,0.8,2,2.2l-0.3,25.8c0,1.4-0.7,2.1-2.1,2.1l-0.6,0&#10;&#9;&#9;C270.9,207.6,270.3,206.9,270.3,205.5z" id="SJrHVCvPtWQ"/>
	<path d="M280.7,179.8c0-1.3,0.8-2,2.1-1.9l17.3,0.2c2.5,0,2.9,1.1,2.9,2.3l0,0.4c0,1-0.7,2.2-1.4,3.4l-12.2,22&#10;&#9;&#9;c-0.7,1.3-1.6,1.6-2.4,1.6c-1.6,0-2.8-1.5-2.6-1.8l13.4-23.7l-15-0.2c-1.4,0-2.1-0.7-2.1-1.9L280.7,179.8z" id="rJIHNRDDKZ7"/>
	<path d="M305,180.1c0-1.3,0.8-2,2.1-1.9l17.3,0.2c2.5,0,2.9,1.1,2.9,2.3l0,0.4c0,1-0.7,2.2-1.4,3.4l-12.2,22&#10;&#9;&#9;c-0.7,1.3-1.6,1.6-2.4,1.6c-1.6,0-2.8-1.5-2.6-1.8l13.4-23.7l-15-0.2c-1.4,0-2.1-0.7-2.1-1.9L305,180.1z" id="HyDBE0vDFb7"/>
</g>
<g id="BydrNCDDtbm">
	<path d="M270,205.4l0.2-21.2c-0.8,0.8-1.9,1.2-3.1,1.2c-2.2,0-3.6-1.3-3.6-3.2c0-1.6,1.2-2.4,1.4-2.3&#10;&#9;&#9;c0.7,0.6,1.5,1.1,2.7,1.1c2,0,3.5-1.5,3.7-3.4l1.6,0c1.4,0,2.1,0.8,2,2.2l-0.3,25.8c0,1.4-0.7,2.1-2.1,2.1l-0.6,0&#10;&#9;&#9;C270.7,207.6,270,206.8,270,205.4z" id="rJFBECvwtZ7"/>
	<path d="M280.5,179.8c0-1.3,0.8-2,2.1-1.9l17.3,0.2c2.5,0,2.9,1.1,2.9,2.3l0,0.4c0,1-0.7,2.2-1.4,3.4l-12.2,22&#10;&#9;&#9;c-0.7,1.3-1.6,1.6-2.4,1.6c-1.6,0-2.8-1.5-2.6-1.8l13.4-23.7l-15-0.2c-1.4,0-2.1-0.7-2.1-1.9L280.5,179.8z" id="SkqSNADwKb7"/>
	<path d="M324.1,194.1c-1.9,1.8-5,3.2-8.4,3.1c-6.1-0.1-10-3.4-9.9-9l0-0.2c0.1-5.9,4.7-10.4,11.1-10.3&#10;&#9;&#9;c7.5,0.1,12,5.2,11.9,13.8l0,3.2c-0.1,9.2-4.6,13.9-12.8,13.8c-6.2-0.1-9.4-2.9-9.3-5.1c0-1.7,1.9-2.5,2-2.4&#10;&#9;&#9;c1.6,2.1,3.9,3.6,7.2,3.6c5.5,0.1,8.3-3,8.3-9.9L324.1,194.1z M324,190.4c-0.1-5.6-2.6-9-7.1-9c-3.8,0-6.6,2.7-6.7,6.3l0,0.2&#10;&#9;&#9;c0,3.7,2.2,5.7,6.4,5.8C319.5,193.7,322.3,192.3,324,190.4z" id="HJiH40PPKWX"/>
</g>
<g id="SJ2HE0wPtbX">
	<path d="M270.3,205.5l0.2-21.2c-0.8,0.8-1.9,1.2-3.1,1.2c-2.2,0-3.6-1.3-3.6-3.2c0-1.6,1.2-2.4,1.4-2.3&#10;&#9;&#9;c0.7,0.6,1.5,1.1,2.7,1.1c2,0,3.5-1.5,3.7-3.4l1.6,0c1.4,0,2.1,0.8,2,2.2l-0.3,25.8c0,1.4-0.7,2.1-2.1,2.1l-0.6,0&#10;&#9;&#9;C271,207.7,270.3,206.9,270.3,205.5z" id="HJTSNRvwFbX"/>
	<path d="M281.2,199.7c0-3.4,2.1-6.1,6.1-7.3c-3.5-1.2-5.1-3.6-5.1-6.7c0.1-4.9,4.3-8.2,10.9-8.2&#10;&#9;&#9;c6.6,0.1,10.6,3.3,10.6,8.3c0,3.2-1.8,5.5-5.2,6.7c4,1.3,6,4,5.9,7.5c-0.1,4.9-4.7,8.4-11.7,8.3&#10;&#9;&#9;C285.5,208.1,281.1,204.8,281.2,199.7z M299.8,199.5c0-3.2-2.6-5.3-7-5.3c-4.4,0-7,2-7.1,5.2c0,3,2.6,5.2,7,5.2&#10;&#9;&#9;C297.4,204.6,299.8,202.7,299.8,199.5z M299.2,186.1c0-2.9-2.2-5-6.2-5c-4.1,0-6.2,1.9-6.3,4.9c0,2.8,2.3,4.8,6.2,4.8&#10;&#9;&#9;C296.9,190.8,299.1,189.1,299.2,186.1z" id="BJCSN0wwKb7"/>
	<path d="M313.8,206l0.2-21.2c-0.8,0.8-1.9,1.2-3.1,1.2c-2.2,0-3.6-1.3-3.6-3.2c0-1.6,1.2-2.4,1.4-2.3&#10;&#9;&#9;c0.7,0.6,1.5,1.1,2.7,1.1c2,0,3.5-1.5,3.7-3.4l1.6,0c1.4,0,2.1,0.8,2,2.2l-0.3,25.8c0,1.4-0.7,2.1-2.1,2.1l-0.6,0&#10;&#9;&#9;C314.4,208.1,313.7,207.4,313.8,206z" id="SkJL4Cvwt-X"/>
</g>
<g id="rkeUVRwwKW7">
	<path d="M270,205.4l0.2-21.2c-0.8,0.8-1.9,1.2-3.1,1.2c-2.2,0-3.6-1.3-3.6-3.2c0-1.6,1.2-2.4,1.4-2.3&#10;&#9;&#9;c0.7,0.6,1.5,1.1,2.7,1.1c2,0,3.5-1.5,3.7-3.4l1.6,0c1.4,0,2.1,0.8,2,2.2l-0.3,25.8c0,1.4-0.7,2.1-2.1,2.1l-0.6,0&#10;&#9;&#9;C270.7,207.6,270,206.8,270,205.4z" id="SJW8NCwPKWQ"/>
	<path d="M280.9,199.6c0-3.4,2.1-6.1,6.1-7.3c-3.5-1.2-5.1-3.6-5.1-6.7c0.1-4.9,4.3-8.2,10.9-8.2&#10;&#9;&#9;c6.6,0.1,10.6,3.3,10.6,8.3c0,3.2-1.8,5.5-5.2,6.7c4,1.3,6,4,5.9,7.5c-0.1,4.9-4.7,8.4-11.7,8.3&#10;&#9;&#9;C285.2,208.1,280.8,204.7,280.9,199.6z M299.5,199.4c0-3.2-2.6-5.3-7-5.3c-4.4,0-7,2-7.1,5.2c0,3,2.6,5.2,7,5.2&#10;&#9;&#9;C297.1,204.6,299.5,202.6,299.5,199.4z M298.9,186c0-2.9-2.2-5-6.2-5c-4.1,0-6.2,1.9-6.3,4.9c0,2.8,2.3,4.8,6.2,4.8&#10;&#9;&#9;C296.6,190.7,298.8,189,298.9,186z" id="HJzLNAwvFWX"/>
	<path d="M317.4,208.4c-7.2-0.1-10.9-4.1-10.8-6.8c0-2.4,2.7-2.6,2.8-2.4c1.1,3.4,4.2,5.3,8.1,5.3&#10;&#9;&#9;c4.2,0,6.9-1.9,6.9-5.1c0-3.4-2.3-5.2-6.7-5.3l-2.1,0c-1.6,0-2.2-0.7-2.2-1.7l0-0.3c0-1.2,0.8-1.7,2.2-1.7l2.7,0&#10;&#9;&#9;c3.6,0,5.6-1.6,5.6-4.4c0-2.8-2.3-4.6-6.2-4.6c-3.8,0-6.2,1.9-7.3,4.4c-0.1,0.2-2.7-0.2-2.7-2.4c0-2.5,4-5.9,10.1-5.8&#10;&#9;&#9;c6.8,0.1,10.7,3,10.7,8.1c0,3.2-1.7,5.3-5.1,6.3c3.7,1.3,5.7,4,5.7,7.7C328.9,205.2,324.7,208.5,317.4,208.4z" id="SkXUNAvPY-m"/>
</g>
<g id="rk4UVAvwtZX">
	<path d="M270.6,205.4l0.2-21.2c-0.8,0.8-1.9,1.2-3.1,1.2c-2.2,0-3.6-1.3-3.6-3.2c0-1.6,1.2-2.4,1.4-2.3&#10;&#9;&#9;c0.7,0.6,1.5,1.1,2.7,1.1c2,0,3.5-1.5,3.7-3.4l1.6,0c1.4,0,2.1,0.8,2,2.2l-0.3,25.8c0,1.4-0.7,2.1-2.1,2.1l-0.6,0&#10;&#9;&#9;C271.3,207.6,270.6,206.8,270.6,205.4z" id="BkH8NAwPKWm"/>
	<path d="M281.5,199.6c0-3.4,2.1-6.1,6.1-7.3c-3.5-1.2-5.1-3.6-5.1-6.7c0.1-4.9,4.3-8.2,10.9-8.2&#10;&#9;&#9;c6.6,0.1,10.6,3.3,10.6,8.3c0,3.2-1.8,5.5-5.2,6.7c4,1.3,6,4,5.9,7.5c-0.1,4.9-4.7,8.4-11.7,8.3C285.8,208,281.4,204.7,281.5,199.6&#10;&#9;&#9;z M300.1,199.4c0-3.2-2.6-5.3-7-5.3c-4.4,0-7,2-7.1,5.2c0,3,2.6,5.2,7,5.2C297.7,204.5,300.1,202.6,300.1,199.4z M299.5,186&#10;&#9;&#9;c0-2.9-2.2-5-6.2-5c-4.1,0-6.2,1.9-6.3,4.9c0,2.8,2.3,4.8,6.2,4.8C297.2,190.7,299.4,188.9,299.5,186z" id="r1ILE0wPKZQ"/>
	<path d="M323,205.9l0.1-6l-12.1-0.1c-1.8,0-2.9-0.9-2.9-2.2l0-1c0-1,0.5-1.7,1.4-2.9l10.7-13.6&#10;&#9;&#9;c1.2-1.6,1.8-2.1,4.1-2.1c2.6,0,3.5,0.9,3.5,3.1l-0.2,15l3.3,0c1.4,0,2.1,0.6,2,1.9l0,0.2c0,1.2-0.7,1.8-2.1,1.8l-3.3,0l-0.1,6&#10;&#9;&#9;c0,1.4-0.7,2.1-2,2.1l-0.5,0C323.7,208.1,322.9,207.2,323,205.9z M312.3,196.1l10.9,0.1l0.1-14.3L312.3,196.1z" id="SJvIE0vwtWm"/>
</g>
<g id="HkOL4CvwtW7">
	<path d="M269.9,205.4l0.2-21.2c-0.8,0.8-1.9,1.2-3.1,1.2c-2.2,0-3.6-1.3-3.6-3.2c0-1.6,1.2-2.4,1.4-2.3&#10;&#9;&#9;c0.7,0.6,1.5,1.1,2.7,1.1c2,0,3.5-1.5,3.7-3.4l1.6,0c1.4,0,2.1,0.8,2,2.2l-0.3,25.8c0,1.4-0.7,2.1-2.1,2.1l-0.6,0&#10;&#9;&#9;C270.6,207.6,269.9,206.9,269.9,205.4z" id="SJK8EAPPFWQ"/>
	<path d="M280.8,199.6c0-3.4,2.1-6.1,6.1-7.3c-3.5-1.2-5.1-3.6-5.1-6.7c0.1-4.9,4.3-8.2,10.9-8.2&#10;&#9;&#9;c6.6,0.1,10.6,3.3,10.6,8.3c0,3.2-1.8,5.5-5.2,6.7c4,1.3,6,4,5.9,7.5c-0.1,4.9-4.7,8.4-11.7,8.3&#10;&#9;&#9;C285.1,208.1,280.7,204.7,280.8,199.6z M299.4,199.4c0-3.2-2.6-5.3-7-5.3c-4.4,0-7,2-7.1,5.2c0,3,2.6,5.2,7,5.2&#10;&#9;&#9;C297,204.6,299.4,202.6,299.4,199.4z M298.8,186c0-2.9-2.2-5-6.2-5c-4.1,0-6.2,1.9-6.3,4.9c0,2.8,2.3,4.8,6.2,4.8&#10;&#9;&#9;C296.5,190.7,298.7,189,298.8,186z" id="rJ98E0DPKWX"/>
	<path d="M312.4,190.7c1.7-0.8,3.8-1.3,6.1-1.3c6.4,0.1,10.6,3.7,10.5,9.5c-0.1,5.9-4.5,9.7-11.6,9.6&#10;&#9;&#9;c-6.5-0.1-10.5-3.5-10.5-6c0-1.6,2.1-2.5,2.3-2.3c1.6,2.7,4.5,4.4,8.3,4.5c4.4,0,7.1-2.2,7.2-5.8s-2.4-5.7-6.6-5.8&#10;&#9;&#9;c-3.2,0-5.3,0.8-6.9,1.9c-2-0.2-2.9-1.1-2.9-3l0.1-11.3c0-1.6,0.9-2.6,2.5-2.6l14.9,0.2c1.5,0,2.2,0.7,2.2,1.9l0,0.2&#10;&#9;&#9;c0,1.2-0.8,1.9-2.2,1.9l-13.1-0.1L312.4,190.7z" id="rkjINRvPFWQ"/>
</g>
<g id="r1hUEAPDKWX">
	<path d="M270.5,205.4l0.2-21.2c-0.8,0.8-1.9,1.2-3.1,1.2c-2.2,0-3.6-1.3-3.6-3.2c0-1.6,1.2-2.4,1.4-2.3&#10;&#9;&#9;c0.7,0.6,1.5,1.1,2.7,1.1c2,0,3.5-1.5,3.7-3.4l1.6,0c1.4,0,2.1,0.8,2,2.2l-0.3,25.8c0,1.4-0.7,2.1-2.1,2.1l-0.6,0&#10;&#9;&#9;C271.1,207.6,270.4,206.8,270.5,205.4z" id="r1aINCPvKWX"/>
	<path d="M281.3,199.6c0-3.4,2.1-6.1,6.1-7.3c-3.5-1.2-5.1-3.6-5.1-6.7c0.1-4.9,4.3-8.2,10.9-8.2&#10;&#9;&#9;c6.6,0.1,10.6,3.3,10.6,8.3c0,3.2-1.8,5.5-5.2,6.7c4,1.3,6,4,5.9,7.5c-0.1,4.9-4.7,8.4-11.7,8.3C285.6,208,281.3,204.7,281.3,199.6&#10;&#9;&#9;z M300,199.4c0-3.2-2.6-5.3-7-5.3c-4.4,0-7,2-7.1,5.2c0,3,2.6,5.2,7,5.2C297.5,204.5,299.9,202.6,300,199.4z M299.3,186&#10;&#9;&#9;c0-2.9-2.2-5-6.2-5c-4.1,0-6.2,1.9-6.3,4.9c0,2.8,2.3,4.8,6.2,4.8C297,190.7,299.3,188.9,299.3,186z" id="HyRU40DvFbQ"/>
	<path d="M313.3,191.4l0,0.9c1.9-1.8,5-3.2,8.5-3.2c6,0.1,10,3.5,9.9,9l0,0.2c-0.1,5.9-4.7,10.1-11.1,10&#10;&#9;&#9;c-7.9-0.1-12.1-5.7-12-13.9l0-3c0.1-8.7,5-14,12.6-13.9c6.2,0.1,9.4,3,9.4,5.4c0,1.8-2.3,2.4-2.4,2.3c-1.4-2.1-3.4-3.7-6.8-3.7&#10;&#9;&#9;C316.3,181.5,313.4,185,313.3,191.4z M313.3,196c0.2,5.4,2.7,8.6,7.1,8.7c3.9,0,6.7-2.4,6.7-5.9l0-0.3c0-3.7-2.3-5.7-6.4-5.8&#10;&#9;&#9;C317.9,192.7,315.1,194.1,313.3,196z" id="BkywV0DwK-7"/>
</g>
<g id="SJlPNCPDFZm">
	<path d="M270.5,205.4l0.2-21.2c-0.8,0.8-1.9,1.2-3.1,1.2c-2.2,0-3.6-1.3-3.6-3.2c0-1.6,1.2-2.4,1.4-2.3&#10;&#9;&#9;c0.7,0.6,1.5,1.1,2.7,1.1c2,0,3.5-1.5,3.7-3.4l1.6,0c1.4,0,2.1,0.8,2,2.2l-0.3,25.8c0,1.4-0.7,2.1-2.1,2.1l-0.6,0&#10;&#9;&#9;C271.2,207.6,270.5,206.9,270.5,205.4z" id="rybwNRvvYZ7"/>
	<path d="M281.4,199.6c0-3.4,2.1-6.1,6.1-7.3c-3.5-1.2-5.1-3.6-5.1-6.7c0.1-4.9,4.3-8.2,10.9-8.2&#10;&#9;&#9;c6.6,0.1,10.6,3.3,10.6,8.3c0,3.2-1.8,5.5-5.2,6.7c4,1.3,6,4,5.9,7.5c-0.1,4.9-4.7,8.4-11.7,8.3&#10;&#9;&#9;C285.7,208.1,281.3,204.7,281.4,199.6z M300,199.4c0-3.2-2.6-5.3-7-5.3c-4.4,0-7,2-7.1,5.2c0,3,2.6,5.2,7,5.2&#10;&#9;&#9;C297.6,204.6,300,202.6,300,199.4z M299.4,186c0-2.9-2.2-5-6.2-5c-4.1,0-6.2,1.9-6.3,4.9c0,2.8,2.3,4.8,6.2,4.8&#10;&#9;&#9;C297.1,190.7,299.3,189,299.4,186z" id="r1zvERPvtWX"/>
	<path d="M306.9,180.1c0-1.3,0.8-2,2.1-1.9l17.3,0.2c2.5,0,2.9,1.1,2.9,2.3l0,0.4c0,1-0.7,2.2-1.4,3.4l-12.2,22&#10;&#9;&#9;c-0.7,1.3-1.6,1.6-2.4,1.6c-1.6,0-2.8-1.5-2.6-1.8l13.4-23.7l-15-0.2c-1.4,0-2.1-0.7-2.1-1.9L306.9,180.1z" id="H1mvNAPPF-Q"/>
</g>
<g id="HJ4w4CvPtZX">
	<path d="M270.2,205.4l0.2-21.2c-0.8,0.8-1.9,1.2-3.1,1.2c-2.2,0-3.6-1.3-3.6-3.2c0-1.6,1.2-2.4,1.4-2.3&#10;&#9;&#9;c0.7,0.6,1.5,1.1,2.7,1.1c2,0,3.5-1.5,3.7-3.4l1.6,0c1.4,0,2.1,0.8,2,2.2l-0.3,25.8c0,1.4-0.7,2.1-2.1,2.1l-0.6,0&#10;&#9;&#9;C270.8,207.6,270.2,206.8,270.2,205.4z" id="rJBDV0PvtZm"/>
	<path d="M281,199.6c0-3.4,2.1-6.1,6.1-7.3c-3.5-1.2-5.1-3.6-5.1-6.7c0.1-4.9,4.3-8.2,10.9-8.2&#10;&#9;&#9;c6.6,0.1,10.6,3.3,10.6,8.3c0,3.2-1.8,5.5-5.2,6.7c4,1.3,6,4,5.9,7.5c-0.1,4.9-4.7,8.4-11.7,8.3C285.4,208,281,204.7,281,199.6z&#10;&#9;&#9; M299.7,199.4c0-3.2-2.6-5.3-7-5.3c-4.4,0-7,2-7.1,5.2c0,3,2.6,5.2,7,5.2C297.3,204.5,299.7,202.6,299.7,199.4z M299,186&#10;&#9;&#9;c0-2.9-2.2-5-6.2-5c-4.1,0-6.2,1.9-6.3,4.9c0,2.8,2.3,4.8,6.2,4.8C296.8,190.7,299,188.9,299,186z" id="rJLwNRvDFWQ"/>
	<path d="M307.7,199.8c0-3.4,2.1-6.1,6.1-7.3c-3.5-1.2-5.1-3.6-5.1-6.7c0.1-4.9,4.3-8.2,10.9-8.2&#10;&#9;&#9;c6.6,0.1,10.6,3.3,10.6,8.3c0,3.2-1.8,5.5-5.2,6.7c4,1.3,6,4,5.9,7.5c-0.1,4.9-4.7,8.4-11.7,8.3C312.1,208.3,307.7,205,307.7,199.8&#10;&#9;&#9;z M326.4,199.7c0-3.2-2.6-5.3-7-5.3c-4.4,0-7,2-7.1,5.2c0,3,2.6,5.2,7,5.2C324,204.8,326.4,202.9,326.4,199.7z M325.7,186.2&#10;&#9;&#9;c0-2.9-2.2-5-6.2-5c-4.1,0-6.2,1.9-6.3,4.9c0,2.8,2.3,4.8,6.2,4.8C323.5,191,325.7,189.2,325.7,186.2z" id="B1vwVCDwKWX"/>
</g>
<g id="SkdDNAwwtZ7_rJJO2vYZm" data-animator-group="true" data-animator-type="2"><g id="SkdDNAwwtZ7">
	<path d="M343.8,180l-8.9,15.5c-0.3,0.5,0,1.1,0.6,1.1h17.9c0.6,0,0.9-0.6,0.6-1.1l-9-15.5&#10;&#9;&#9;C344.7,179.5,344.1,179.5,343.8,180z" id="rkFwECwPF-7"/>
	<path d="M349.3,207.4h-9.6c-0.4,0-0.7-0.3-0.7-0.7v-14.2c0-0.4,0.3-0.7,0.7-0.7h9.6c0.4,0,0.7,0.3,0.7,0.7v14.2&#10;&#9;&#9;C350,207.1,349.7,207.4,349.3,207.4z" id="ry9DN0vDtbQ"/>
</g></g>
<g id="SJiw4CDvF-X_ryXo6vFWX" data-animator-group="true" data-animator-type="2"><g id="SJiw4CDvF-X">
	<path d="M351,298.2c0,0-10.2,1.3-30.6,3.7l21.8-61.5c2.2-6.3,2.1-8.2,1.4-9.3c-0.4-0.6-1.1-0.9-1.8-0.9&#10;&#9;&#9;c-0.6,0-2.5,0-7.3,6.6L265.5,330c-0.7,1.2-0.7,2.6,0,3.7c0.7,1.1,1.8,1.7,3.1,1.7c0,0,9.1-0.8,27.3-2.5l-25.5,65.1&#10;&#9;&#9;c-0.7,1.6,0,3.5,1.5,4.4c1.5,0.9,3.5,0.6,4.6-0.8l77.4-97.5c1.3-1.5,1.1-3.8-0.5-5C352.7,298.6,351.8,298.3,351,298.2L351,298.2z" id="SJ2wE0DvYZ7"/>
	<path d="M354.3,300.3c-0.6-1.3-1.9-2.1-3.3-2.1c0,0-10.2,1.3-30.6,3.7l21.8-61.5c2.2-6.3,2.1-8.2,1.4-9.3&#10;&#9;&#9;c-0.4-0.6-1.1-0.9-1.8-0.9l-46.5,86.4l29.3-5.8c2.7-0.6,5.4,1.2,5.9,4c0.3,1.4,0,2.8-0.8,3.9l-58.2,83.7c0.1,0.1,0.2,0.1,0.3,0.2&#10;&#9;&#9;c1.5,0.9,3.5,0.6,4.6-0.8l77.4-97.5C354.6,303.1,354.8,301.6,354.3,300.3z" id="B1pDV0wvFZ7"/>
</g></g>
<script>(function(){var a=document.querySelector('#Sk40PDKZX'),b=a.querySelectorAll('style'),c=function(d){b.forEach(function(f){var g=f.textContent;g&amp;&amp;(f.textContent=g.replace(/transform-box:[^;\r\n]*/gi,'transform-box: '+d))})};c('initial'),window.requestAnimationFrame(function(){return c('fill-box')})})();</script></svg>