<?xml version="1.0" encoding="UTF-8" standalone="no"?>
<svg
   xmlns:dc="http://purl.org/dc/elements/1.1/"
   xmlns:cc="http://creativecommons.org/ns#"
   xmlns:rdf="http://www.w3.org/1999/02/22-rdf-syntax-ns#"
   xmlns:svg="http://www.w3.org/2000/svg"
   xmlns="http://www.w3.org/2000/svg"
   viewBox="0 0 400 400"
   height="400"
   width="400"
   xml:space="preserve"
   id="svg2"
   version="1.1"><metadata
     id="metadata8"><rdf:RDF><cc:Work
         rdf:about=""><dc:format>image/svg+xml</dc:format><dc:type
           rdf:resource="http://purl.org/dc/dcmitype/StillImage" /></cc:Work></rdf:RDF></metadata><defs
     id="defs6"><clipPath
       id="clipPath18"
       clipPathUnits="userSpaceOnUse"><path
         id="path16"
         d="m 114.435,111.634 5.507,-109.541 75.273,-1.377 -3.212,122.851 -73.438,6.426 z" /></clipPath><linearGradient
       id="linearGradient28"
       spreadMethod="pad"
       gradientTransform="matrix(4.6666665,84.333328,84.333328,-4.6666665,152.95049,22.299183)"
       gradientUnits="userSpaceOnUse"
       y2="0"
       x2="1"
       y1="0"
       x1="0"><stop
         id="stop24"
         offset="0"
         style="stop-opacity:1;stop-color:#ffd4ae" /><stop
         id="stop26"
         offset="1"
         style="stop-opacity:1;stop-color:#f8c9a8" /></linearGradient><clipPath
       id="clipPath38"
       clipPathUnits="userSpaceOnUse"><path
         id="path36"
         d="m 206.689,173.137 -5.048,-42.226 c 0,0 1.836,-2.754 6.425,1.836 v 0 c 4.59,4.59 7.803,35.801 5.967,39.931 v 0 c -0.661,1.488 -1.797,1.964 -2.982,1.964 v 0 c -2.105,-0.001 -4.362,-1.505 -4.362,-1.505" /></clipPath><linearGradient
       id="linearGradient48"
       spreadMethod="pad"
       gradientTransform="matrix(12.917785,0,0,-12.917785,201.64107,152.36659)"
       gradientUnits="userSpaceOnUse"
       y2="0"
       x2="1"
       y1="0"
       x1="0"><stop
         id="stop44"
         offset="0"
         style="stop-opacity:1;stop-color:#ffd4ae" /><stop
         id="stop46"
         offset="1"
         style="stop-opacity:1;stop-color:#f8c9a8" /></linearGradient><clipPath
       id="clipPath58"
       clipPathUnits="userSpaceOnUse"><path
         id="path56"
         d="M 0,300 H 300 V 0 H 0 Z" /></clipPath><clipPath
       id="clipPath70"
       clipPathUnits="userSpaceOnUse"><path
         id="path68"
         d="m 90.629,172.048 c -1.449,-4.283 4.618,-35.066 9.61,-39.215 v 0 c 4.992,-4.148 6.567,-1.238 6.567,-1.238 v 0 l -8.907,41.584 c 0,0 -2.064,1.117 -4.04,1.117 v 0 c -1.342,0 -2.644,-0.516 -3.23,-2.248" /></clipPath><linearGradient
       id="linearGradient80"
       spreadMethod="pad"
       gradientTransform="matrix(16.395117,0,0,-16.395117,90.411194,152.44929)"
       gradientUnits="userSpaceOnUse"
       y2="0"
       x2="1"
       y1="0"
       x1="0"><stop
         id="stop76"
         offset="0"
         style="stop-opacity:1;stop-color:#ffd4ae" /><stop
         id="stop78"
         offset="1"
         style="stop-opacity:1;stop-color:#f8c9a8" /></linearGradient><clipPath
       id="clipPath90"
       clipPathUnits="userSpaceOnUse"><path
         id="path88"
         d="m 103.648,156.844 c 2.295,-27.998 10.099,-39.473 14.688,-42.686 v 0 c 4.59,-3.212 8.721,-11.933 10.098,-17.9 v 0 c 1.377,-5.967 8.262,-22.49 28.916,-22.49 v 0 c 18.818,0 26.621,25.703 29.375,33.047 v 0 c 2.754,7.343 12.391,13.769 14.227,22.949 v 0 c 4.961,24.802 2.754,41.308 0,47.734 v 0 c -2.754,6.425 1.109,2.881 -1.836,29.374 v 0 c -2.524,22.72 -22.03,26.162 -22.03,26.162 v 0 c -1.836,-6.426 -17.212,-20.195 -24.326,-20.195 v 0 c -22.265,0 -30.293,21.113 -30.293,21.113 v 0 c -12.851,-3.213 -21.113,-49.111 -18.819,-77.108" /></clipPath><linearGradient
       id="linearGradient100"
       spreadMethod="pad"
       gradientTransform="matrix(1,90.333328,90.333328,-1,153.10365,118.69135)"
       gradientUnits="userSpaceOnUse"
       y2="0"
       x2="1"
       y1="0"
       x1="0"><stop
         id="stop96"
         offset="0"
         style="stop-opacity:1;stop-color:#ffd4ae" /><stop
         id="stop98"
         offset="1"
         style="stop-opacity:1;stop-color:#f8c9a8" /></linearGradient><clipPath
       id="clipPath110"
       clipPathUnits="userSpaceOnUse"><path
         id="path108"
         d="M 95.205,71.68 C 87.876,63.085 36.573,46.679 36.573,46.679 v 0 V 0 H 270 v 41.837 c 0,0 -51.303,21.248 -58.631,29.843 v 0 c -7.33,8.594 -14.526,20.505 -18.16,21.959 v 0 c 0,0 -5.593,-51.987 -35.354,-82.702 v 0 c -2.546,-2.627 -6.59,-2.627 -9.136,0 v 0 c -29.762,30.715 -32.756,83.186 -32.756,83.186 v 0 C 110.51,91.701 102.533,80.274 95.205,71.68" /></clipPath><linearGradient
       id="linearGradient122"
       spreadMethod="pad"
       gradientTransform="matrix(0,-135.61998,-135.61998,0,153.28662,85.393219)"
       gradientUnits="userSpaceOnUse"
       y2="0"
       x2="1"
       y1="0"
       x1="0"><stop
         id="stop116"
         offset="0"
         style="stop-opacity:1;stop-color:#003154" /><stop
         id="stop118"
         offset="0.999999"
         style="stop-opacity:1;stop-color:#001836" /><stop
         id="stop120"
         offset="1"
         style="stop-opacity:1;stop-color:#001836" /></linearGradient><clipPath
       id="clipPath132"
       clipPathUnits="userSpaceOnUse"><path
         id="path130"
         d="M 95.205,71.68 C 87.876,63.085 36.573,46.679 36.573,46.679 v 0 V 0 h 74.183 c -2.067,12.516 -3.945,26.344 -4.924,39.649 v 0 c -1.611,21.889 3.635,40.945 8.69,53.677 v 0 C 108.843,89.476 101.082,78.573 95.205,71.68" /></clipPath><linearGradient
       id="linearGradient144"
       spreadMethod="pad"
       gradientTransform="matrix(78.380829,0,0,-78.380829,36.573257,35.23769)"
       gradientUnits="userSpaceOnUse"
       y2="0"
       x2="1"
       y1="0"
       x1="0"><stop
         id="stop138"
         offset="0"
         style="stop-opacity:1;stop-color:#00386e" /><stop
         id="stop140"
         offset="1"
         style="stop-opacity:1;stop-color:#00275a" /><stop
         id="stop142"
         offset="1"
         style="stop-opacity:1;stop-color:#00275a" /></linearGradient><clipPath
       id="clipPath154"
       clipPathUnits="userSpaceOnUse"><path
         id="path152"
         d="M 200.375,39.649 C 199.396,26.344 197.518,12.516 195.451,0 V 0 H 270 v 41.837 c 0,0 -51.303,21.248 -58.631,29.843 v 0 c -6.05,7.094 -12.444,18.433 -18.16,21.959 v 0 c 5.093,-12.733 8.79,-31.917 7.166,-53.99" /></clipPath><linearGradient
       id="linearGradient166"
       spreadMethod="pad"
       gradientTransform="matrix(78.747276,0,0,-78.747276,191.25272,32.972084)"
       gradientUnits="userSpaceOnUse"
       y2="0"
       x2="1"
       y1="0"
       x1="0"><stop
         id="stop160"
         offset="0"
         style="stop-opacity:1;stop-color:#00386e" /><stop
         id="stop162"
         offset="1"
         style="stop-opacity:1;stop-color:#00275a" /><stop
         id="stop164"
         offset="1"
         style="stop-opacity:1;stop-color:#00275a" /></linearGradient><clipPath
       id="clipPath176"
       clipPathUnits="userSpaceOnUse"><path
         id="path174"
         d="m 115.923,94.026 c 0.026,0.096 0.04,0.146 0.04,0.146 v 0 c -0.014,-0.047 -0.028,-0.095 -0.04,-0.146 m 1.403,-83.213 c 0,0 15.449,5.812 22.719,10.655 v 0 c 0,0 -26.017,64.652 -24.122,72.558 v 0 c -0.827,-3.033 -14.01,-52.701 1.403,-83.213" /></clipPath><linearGradient
       id="linearGradient186"
       spreadMethod="pad"
       gradientTransform="matrix(105.74885,26.693882,26.693882,-105.74885,50.474995,35.789242)"
       gradientUnits="userSpaceOnUse"
       y2="0"
       x2="1"
       y1="0"
       x1="0"><stop
         id="stop182"
         offset="0"
         style="stop-opacity:1;stop-color:#005481" /><stop
         id="stop184"
         offset="1"
         style="stop-opacity:1;stop-color:#003e64" /></linearGradient><clipPath
       id="clipPath196"
       clipPathUnits="userSpaceOnUse"><path
         id="path194"
         d="m 193.078,94.031 c -0.012,0.049 -0.025,0.096 -0.039,0.141 v 0 c 0,0 0.013,-0.048 0.039,-0.141 m -25.77,-71.595 c 7.271,-4.842 24.368,-11.623 24.368,-11.623 v 0 c 15.422,30.531 2.214,80.242 1.402,83.218 v 0 c 1.889,-7.868 -25.77,-71.595 -25.77,-71.595" /></clipPath><linearGradient
       id="linearGradient206"
       spreadMethod="pad"
       gradientTransform="matrix(-71.868149,40.040825,40.040825,71.868149,237.13509,26.497055)"
       gradientUnits="userSpaceOnUse"
       y2="0"
       x2="1"
       y1="0"
       x1="0"><stop
         id="stop202"
         offset="0"
         style="stop-opacity:1;stop-color:#005481" /><stop
         id="stop204"
         offset="1"
         style="stop-opacity:1;stop-color:#003e64" /></linearGradient></defs><g
     transform="matrix(1.3333333,0,0,-1.3333333,0,400)"
     id="g10"><g
       id="g12"><g
         clip-path="url(#clipPath18)"
         id="g14"><g
           id="g20"><g
             id="g22"><path
               id="path30"
               style="fill:url(#linearGradient28);stroke:none"
               d="m 114.435,111.634 5.507,-109.541 75.273,-1.377 -3.212,122.851 -73.438,6.426 z" /></g></g></g></g><g
       id="g32"><g
         clip-path="url(#clipPath38)"
         id="g34"><g
           id="g40"><g
             id="g42"><path
               id="path50"
               style="fill:url(#linearGradient48);stroke:none"
               d="m 206.689,173.137 -5.048,-42.226 c 0,0 1.836,-2.754 6.425,1.836 v 0 c 4.59,4.59 7.803,35.801 5.967,39.931 v 0 c -0.661,1.488 -1.797,1.964 -2.982,1.964 v 0 c -2.105,-0.001 -4.362,-1.505 -4.362,-1.505" /></g></g></g></g><g
       id="g52"><g
         clip-path="url(#clipPath58)"
         id="g54"><g
           transform="translate(150.6943,253)"
           id="g60"><path
             id="path62"
             style="fill:#e2b64b;fill-opacity:1;fill-rule:nonzero;stroke:none"
             d="m 0,0 c 5.508,0 44.98,-2.295 50.946,-22.031 5.967,-19.736 7.344,-44.062 5.967,-61.504 -1.377,-17.441 -6.885,-54.159 -10.098,-61.503 -3.211,-7.344 -15.145,-35.8 -38.094,-38.095 -22.95,-2.295 -34.883,17.441 -41.768,33.505 -6.885,16.065 -17.441,41.768 -19.277,65.175 -1.836,23.409 -9.638,53.702 5.967,65.635 C -30.752,-6.885 -15.146,0 0,0" /></g></g></g><g
       id="g64"><g
         clip-path="url(#clipPath70)"
         id="g66"><g
           id="g72"><g
             id="g74"><path
               id="path82"
               style="fill:url(#linearGradient80);stroke:none"
               d="m 90.629,172.048 c -1.449,-4.283 4.618,-35.066 9.61,-39.215 v 0 c 4.992,-4.148 6.567,-1.238 6.567,-1.238 v 0 l -8.907,41.584 c 0,0 -2.064,1.117 -4.04,1.117 v 0 c -1.342,0 -2.644,-0.516 -3.23,-2.248" /></g></g></g></g><g
       id="g84"><g
         clip-path="url(#clipPath90)"
         id="g86"><g
           id="g92"><g
             id="g94"><path
               id="path102"
               style="fill:url(#linearGradient100);stroke:none"
               d="m 103.648,156.844 c 2.295,-27.998 10.099,-39.473 14.688,-42.686 v 0 c 4.59,-3.212 8.721,-11.933 10.098,-17.9 v 0 c 1.377,-5.967 8.262,-22.49 28.916,-22.49 v 0 c 18.818,0 26.621,25.703 29.375,33.047 v 0 c 2.754,7.343 12.391,13.769 14.227,22.949 v 0 c 4.961,24.802 2.754,41.308 0,47.734 v 0 c -2.754,6.425 1.109,2.881 -1.836,29.374 v 0 c -2.524,22.72 -22.03,26.162 -22.03,26.162 v 0 c -1.836,-6.426 -17.212,-20.195 -24.326,-20.195 v 0 c -22.265,0 -30.293,21.113 -30.293,21.113 v 0 c -12.851,-3.213 -21.113,-49.111 -18.819,-77.108" /></g></g></g></g><g
       id="g104"><g
         clip-path="url(#clipPath110)"
         id="g106"><g
           id="g112"><g
             id="g114"><path
               id="path124"
               style="fill:url(#linearGradient122);stroke:none"
               d="M 95.205,71.68 C 87.876,63.085 36.573,46.679 36.573,46.679 v 0 V 0 H 270 v 41.837 c 0,0 -51.303,21.248 -58.631,29.843 v 0 c -7.33,8.594 -14.526,20.505 -18.16,21.959 v 0 c 0,0 -5.593,-51.987 -35.354,-82.702 v 0 c -2.546,-2.627 -6.59,-2.627 -9.136,0 v 0 c -29.762,30.715 -32.756,83.186 -32.756,83.186 v 0 C 110.51,91.701 102.533,80.274 95.205,71.68" /></g></g></g></g><g
       id="g126"><g
         clip-path="url(#clipPath132)"
         id="g128"><g
           id="g134"><g
             id="g136"><path
               id="path146"
               style="fill:url(#linearGradient144);stroke:none"
               d="M 95.205,71.68 C 87.876,63.085 36.573,46.679 36.573,46.679 v 0 V 0 h 74.183 c -2.067,12.516 -3.945,26.344 -4.924,39.649 v 0 c -1.611,21.889 3.635,40.945 8.69,53.677 v 0 C 108.843,89.476 101.082,78.573 95.205,71.68" /></g></g></g></g><g
       id="g148"><g
         clip-path="url(#clipPath154)"
         id="g150"><g
           id="g156"><g
             id="g158"><path
               id="path168"
               style="fill:url(#linearGradient166);stroke:none"
               d="M 200.375,39.649 C 199.396,26.344 197.518,12.516 195.451,0 V 0 H 270 v 41.837 c 0,0 -51.303,21.248 -58.631,29.843 v 0 c -6.05,7.094 -12.444,18.433 -18.16,21.959 v 0 c 5.093,-12.733 8.79,-31.917 7.166,-53.99" /></g></g></g></g><g
       id="g170"><g
         clip-path="url(#clipPath176)"
         id="g172"><g
           id="g178"><g
             id="g180"><path
               id="path188"
               style="fill:url(#linearGradient186);stroke:none"
               d="m 115.923,94.026 c 0.026,0.096 0.04,0.146 0.04,0.146 v 0 c -0.014,-0.047 -0.028,-0.095 -0.04,-0.146 m 1.403,-83.213 c 0,0 15.449,5.812 22.719,10.655 v 0 c 0,0 -26.017,64.652 -24.122,72.558 v 0 c -0.827,-3.033 -14.01,-52.701 1.403,-83.213" /></g></g></g></g><g
       id="g190"><g
         clip-path="url(#clipPath196)"
         id="g192"><g
           id="g198"><g
             id="g200"><path
               id="path208"
               style="fill:url(#linearGradient206);stroke:none"
               d="m 193.078,94.031 c -0.012,0.049 -0.025,0.096 -0.039,0.141 v 0 c 0,0 0.013,-0.048 0.039,-0.141 m -25.77,-71.595 c 7.271,-4.842 24.368,-11.623 24.368,-11.623 v 0 c 15.422,30.531 2.214,80.242 1.402,83.218 v 0 c 1.889,-7.868 -25.77,-71.595 -25.77,-71.595" /></g></g></g></g></g></svg>