<?xml version="1.0" encoding="UTF-8" standalone="no"?>
<svg
   xmlns:dc="http://purl.org/dc/elements/1.1/"
   xmlns:cc="http://creativecommons.org/ns#"
   xmlns:rdf="http://www.w3.org/1999/02/22-rdf-syntax-ns#"
   xmlns:svg="http://www.w3.org/2000/svg"
   xmlns="http://www.w3.org/2000/svg"
   viewBox="0 0 400 400"
   height="400"
   width="400"
   xml:space="preserve"
   id="svg2"
   version="1.1"><metadata
     id="metadata8"><rdf:RDF><cc:Work
         rdf:about=""><dc:format>image/svg+xml</dc:format><dc:type
           rdf:resource="http://purl.org/dc/dcmitype/StillImage" /></cc:Work></rdf:RDF></metadata><defs
     id="defs6"><clipPath
       id="clipPath18"
       clipPathUnits="userSpaceOnUse"><path
         id="path16"
         d="M 105.121,127.002 V 53.039 l 39.514,-43.508 40.25,43.508 c 0,0 2.417,81.697 5.318,92.333 v 0 z" /></clipPath><linearGradient
       id="linearGradient30"
       spreadMethod="pad"
       gradientTransform="matrix(-0.3333333,39.666668,39.666668,0.3333333,147.8873,72.382805)"
       gradientUnits="userSpaceOnUse"
       y2="0"
       x2="1"
       y1="0"
       x1="0"><stop
         id="stop24"
         offset="0"
         style="stop-opacity:1;stop-color:#fabca2" /><stop
         id="stop26"
         offset="1"
         style="stop-opacity:1;stop-color:#f4ad85" /><stop
         id="stop28"
         offset="1"
         style="stop-opacity:1;stop-color:#f4ad85" /></linearGradient><clipPath
       id="clipPath40"
       clipPathUnits="userSpaceOnUse"><path
         id="path38"
         d="M 0,300 H 300 V 0 H 0 Z" /></clipPath><clipPath
       id="clipPath52"
       clipPathUnits="userSpaceOnUse"><path
         id="path50"
         d="m 132.676,244.956 c -18.128,-2.176 -29.73,-9.427 -37.465,-20.062 v 0 c -7.735,-10.636 -2.417,-64.295 -2.417,-64.295 v 0 H 90.86 c -2.417,19.337 -6.768,19.82 -6.768,19.82 v 0 c -5.8,5.318 -1.449,-14.502 0,-27.554 v 0 c 1.45,-13.053 8.944,-9.911 8.944,-9.911 v 0 c 2.9,-15.952 22.237,-39.156 43.508,-39.156 v 0 c 21.269,0 52.693,29.972 52.693,29.972 v 0 l 3.383,19.819 c 8.701,-9.668 12.568,0.968 13.052,3.384 v 0 c 0.483,2.418 6.285,32.39 -1.934,33.356 v 0 c -8.218,0.968 -10.151,-16.436 -10.151,-16.436 v 0 l -4.834,-4.35 c 0,0 0.967,28.038 -5.319,52.692 v 0 c -5.045,19.797 -29.067,23.128 -42.872,23.128 v 0 c -3.388,0 -6.16,-0.2 -7.886,-0.407" /></clipPath><linearGradient
       id="linearGradient64"
       spreadMethod="pad"
       gradientTransform="matrix(-0.3333333,88.333336,88.333336,0.3333333,144.78975,137.02814)"
       gradientUnits="userSpaceOnUse"
       y2="0"
       x2="1"
       y1="0"
       x1="0"><stop
         id="stop58"
         offset="0"
         style="stop-opacity:1;stop-color:#fabca2" /><stop
         id="stop60"
         offset="1"
         style="stop-opacity:1;stop-color:#f4ad85" /><stop
         id="stop62"
         offset="1"
         style="stop-opacity:1;stop-color:#f4ad85" /></linearGradient><clipPath
       id="clipPath74"
       clipPathUnits="userSpaceOnUse"><path
         id="path72"
         d="M 0,300 H 300 V 0 H 0 Z" /></clipPath><clipPath
       id="clipPath90"
       clipPathUnits="userSpaceOnUse"><path
         id="path88"
         d="M 83.037,93.968 C 75.239,85.39 20.66,69.016 20.66,69.016 v 0 V 0 H 269 v 64.182 c 0,0 -54.58,21.208 -62.378,29.786 v 0 c -7.797,8.576 -15.452,20.464 -19.32,21.915 v 0 c 0,0 -5.949,-51.885 -37.613,-82.54 v 0 c -2.708,-2.622 -7.011,-2.622 -9.719,0 v 0 c -31.663,30.655 -34.849,83.023 -34.849,83.023 v 0 C 99.32,113.949 90.834,102.544 83.037,93.968" /></clipPath><linearGradient
       id="linearGradient102"
       spreadMethod="pad"
       gradientTransform="matrix(0,-102.95293,-102.95293,0,144.82954,102.50846)"
       gradientUnits="userSpaceOnUse"
       y2="0"
       x2="1"
       y1="0"
       x1="0"><stop
         id="stop96"
         offset="0"
         style="stop-opacity:1;stop-color:#003154" /><stop
         id="stop98"
         offset="0.999999"
         style="stop-opacity:1;stop-color:#001836" /><stop
         id="stop100"
         offset="1"
         style="stop-opacity:1;stop-color:#001836" /></linearGradient><clipPath
       id="clipPath112"
       clipPathUnits="userSpaceOnUse"><path
         id="path110"
         d="M 83.037,93.968 C 75.239,85.39 20.66,69.016 20.66,69.016 v 0 V 0 h 83.307 c -3.544,16.547 -7.898,39.987 -9.625,61.999 v 0 c -1.712,21.845 3.869,40.865 9.246,53.573 v 0 C 97.547,111.729 89.29,100.846 83.037,93.968" /></clipPath><linearGradient
       id="linearGradient124"
       spreadMethod="pad"
       gradientTransform="matrix(83.388763,0,0,-83.388763,20.659075,57.596191)"
       gradientUnits="userSpaceOnUse"
       y2="0"
       x2="1"
       y1="0"
       x1="0"><stop
         id="stop118"
         offset="0"
         style="stop-opacity:1;stop-color:#00386e" /><stop
         id="stop120"
         offset="1"
         style="stop-opacity:1;stop-color:#00275a" /><stop
         id="stop122"
         offset="1"
         style="stop-opacity:1;stop-color:#00275a" /></linearGradient><clipPath
       id="clipPath134"
       clipPathUnits="userSpaceOnUse"><path
         id="path132"
         d="M 194.926,61.999 C 193.201,39.987 188.846,16.547 185.303,0 v 0 h 84.223 L 276,64.182 c 0,0 -61.58,21.208 -69.378,29.786 v 0 c -6.437,7.08 -13.238,18.395 -19.32,21.915 v 0 c 5.419,-12.707 9.352,-31.854 7.624,-53.884" /></clipPath><linearGradient
       id="linearGradient146"
       spreadMethod="pad"
       gradientTransform="matrix(90.778626,0,0,-90.778626,185.22137,55.335014)"
       gradientUnits="userSpaceOnUse"
       y2="0"
       x2="1"
       y1="0"
       x1="0"><stop
         id="stop140"
         offset="0"
         style="stop-opacity:1;stop-color:#00386e" /><stop
         id="stop142"
         offset="1"
         style="stop-opacity:1;stop-color:#00275a" /><stop
         id="stop144"
         offset="1"
         style="stop-opacity:1;stop-color:#00275a" /></linearGradient><clipPath
       id="clipPath156"
       clipPathUnits="userSpaceOnUse"><path
         id="path154"
         d="m 105.078,116.271 c 0.028,0.096 0.043,0.145 0.043,0.145 v 0 c -0.015,-0.046 -0.03,-0.094 -0.043,-0.145 m 1.494,-83.052 c 0,0 16.436,5.801 24.17,10.634 v 0 c 0,0 -27.683,64.533 -25.664,72.418 v 0 c -0.876,-3.015 -14.907,-52.595 1.494,-83.052" /></clipPath><linearGradient
       id="linearGradient166"
       spreadMethod="pad"
       gradientTransform="matrix(-47.133327,-25.862902,-25.862902,47.133327,126.31734,84.69986)"
       gradientUnits="userSpaceOnUse"
       y2="0"
       x2="1"
       y1="0"
       x1="0"><stop
         id="stop162"
         offset="0"
         style="stop-opacity:1;stop-color:#005481" /><stop
         id="stop164"
         offset="1"
         style="stop-opacity:1;stop-color:#003e64" /></linearGradient><clipPath
       id="clipPath176"
       clipPathUnits="userSpaceOnUse"><path
         id="path174"
         d="m 187.163,116.276 c -0.013,0.049 -0.026,0.096 -0.041,0.14 v 0 c 0,0 0.014,-0.048 0.041,-0.14 M 159.747,44.82 c 7.736,-4.834 25.925,-11.601 25.925,-11.601 v 0 c 16.408,30.472 2.355,80.087 1.491,83.057 v 0 c 2.01,-7.855 -27.416,-71.456 -27.416,-71.456" /></clipPath><linearGradient
       id="linearGradient186"
       spreadMethod="pad"
       gradientTransform="matrix(80.005798,-44.474522,-44.474522,-80.005798,154.25677,91.249847)"
       gradientUnits="userSpaceOnUse"
       y2="0"
       x2="1"
       y1="0"
       x1="0"><stop
         id="stop182"
         offset="0"
         style="stop-opacity:1;stop-color:#005481" /><stop
         id="stop184"
         offset="1"
         style="stop-opacity:1;stop-color:#003e64" /></linearGradient></defs><g
     transform="matrix(1.3333333,0,0,-1.3333333,0,400)"
     id="g10"><g
       id="g12"><g
         clip-path="url(#clipPath18)"
         id="g14"><g
           id="g20"><g
             id="g22"><path
               id="path32"
               style="fill:url(#linearGradient30);stroke:none"
               d="M 105.121,127.002 V 53.039 l 39.514,-43.508 40.25,43.508 c 0,0 2.417,81.697 5.318,92.333 v 0 z" /></g></g></g></g><g
       id="g34"><g
         clip-path="url(#clipPath40)"
         id="g36"><g
           transform="translate(119.8652,269.3687)"
           id="g42"><path
             id="path44"
             style="fill:#0a131e;fill-opacity:1;fill-rule:nonzero;stroke:none"
             d="m 0,0 c 0,0 4.351,4.834 12.569,4.351 8.218,-0.484 11.602,-3.384 11.602,-3.384 0,0 9.185,0.483 14.986,-2.901 0,0 13.052,-0.483 21.754,-12.569 8.701,-12.085 25.621,-38.19 22.721,-67.195 -2.901,-29.005 -61.395,-31.422 -61.395,-31.422 l -55.593,2.417 c 0,0 -0.967,10.152 -2.417,19.82 -1.45,9.669 -5.801,27.555 -3.384,36.74 2.417,9.185 6.284,32.389 14.503,37.706 0,0 8.701,15.954 24.654,16.437" /></g></g></g><g
       id="g46"><g
         clip-path="url(#clipPath52)"
         id="g48"><g
           id="g54"><g
             id="g56"><path
               id="path66"
               style="fill:url(#linearGradient64);stroke:none"
               d="m 132.676,244.956 c -18.128,-2.176 -29.73,-9.427 -37.465,-20.062 v 0 c -7.735,-10.636 -2.417,-64.295 -2.417,-64.295 v 0 H 90.86 c -2.417,19.337 -6.768,19.82 -6.768,19.82 v 0 c -5.8,5.318 -1.449,-14.502 0,-27.554 v 0 c 1.45,-13.053 8.944,-9.911 8.944,-9.911 v 0 c 2.9,-15.952 22.237,-39.156 43.508,-39.156 v 0 c 21.269,0 52.693,29.972 52.693,29.972 v 0 l 3.383,19.819 c 8.701,-9.668 12.568,0.968 13.052,3.384 v 0 c 0.483,2.418 6.285,32.39 -1.934,33.356 v 0 c -8.218,0.968 -10.151,-16.436 -10.151,-16.436 v 0 l -4.834,-4.35 c 0,0 0.967,28.038 -5.319,52.692 v 0 c -5.045,19.797 -29.067,23.128 -42.872,23.128 v 0 c -3.388,0 -6.16,-0.2 -7.886,-0.407" /></g></g></g></g><g
       id="g68"><g
         clip-path="url(#clipPath74)"
         id="g70"><g
           transform="translate(92.7939,160.5991)"
           id="g76"><path
             id="path78"
             style="fill:#0a131e;fill-opacity:1;fill-rule:nonzero;stroke:none"
             d="M 0,0 C -0.054,0.749 -0.125,1.515 -0.21,2.286 -0.082,0.825 0,0 0,0" /></g><g
           transform="translate(191.8945,156.2485)"
           id="g80"><path
             id="path82"
             style="fill:#0a131e;fill-opacity:1;fill-rule:nonzero;stroke:none"
             d="m 0,0 c -0.241,2.659 1.34,15.165 1.692,17.645 l -4.834,-4.351 c 0,0 0.026,0.741 0.041,2.081 l -0.041,-2.081 c 0,0 -9.686,-16.502 -20.714,-22.929 -3.297,-1.922 -7.521,-1.393 -10.188,1.337 -5.265,5.39 -5.202,11.319 -24.45,9.748 -23.687,-1.933 -24.654,-14.502 -26.588,-15.469 -1.933,-0.967 -13.535,11.602 -14.019,18.37 h -1.933 c -0.154,1.231 -0.316,2.384 -0.484,3.466 l 0.726,-3.708 1.933,-17.403 c 2.901,-15.953 22.237,-39.157 43.508,-39.157 21.27,0 52.693,29.972 52.693,29.972 l 3.384,19.82 C 0.777,-2.716 0.827,-2.77 0.879,-2.825 0.382,-1.623 0.059,-0.646 0,0" /></g></g></g><g
       id="g84"><g
         clip-path="url(#clipPath90)"
         id="g86"><g
           id="g92"><g
             id="g94"><path
               id="path104"
               style="fill:url(#linearGradient102);stroke:none"
               d="M 83.037,93.968 C 75.239,85.39 20.66,69.016 20.66,69.016 v 0 V 0 H 269 v 64.182 c 0,0 -54.58,21.208 -62.378,29.786 v 0 c -7.797,8.576 -15.452,20.464 -19.32,21.915 v 0 c 0,0 -5.949,-51.885 -37.613,-82.54 v 0 c -2.708,-2.622 -7.011,-2.622 -9.719,0 v 0 c -31.663,30.655 -34.849,83.023 -34.849,83.023 v 0 C 99.32,113.949 90.834,102.544 83.037,93.968" /></g></g></g></g><g
       id="g106"><g
         clip-path="url(#clipPath112)"
         id="g108"><g
           id="g114"><g
             id="g116"><path
               id="path126"
               style="fill:url(#linearGradient124);stroke:none"
               d="M 83.037,93.968 C 75.239,85.39 20.66,69.016 20.66,69.016 v 0 V 0 h 83.307 c -3.544,16.547 -7.898,39.987 -9.625,61.999 v 0 c -1.712,21.845 3.869,40.865 9.246,53.573 v 0 C 97.547,111.729 89.29,100.846 83.037,93.968" /></g></g></g></g><g
       id="g128"><g
         clip-path="url(#clipPath134)"
         id="g130"><g
           id="g136"><g
             id="g138"><path
               id="path148"
               style="fill:url(#linearGradient146);stroke:none"
               d="M 194.926,61.999 C 193.201,39.987 188.846,16.547 185.303,0 v 0 h 84.223 L 276,64.182 c 0,0 -61.58,21.208 -69.378,29.786 v 0 c -6.437,7.08 -13.238,18.395 -19.32,21.915 v 0 c 5.419,-12.707 9.352,-31.854 7.624,-53.884" /></g></g></g></g><g
       id="g150"><g
         clip-path="url(#clipPath156)"
         id="g152"><g
           id="g158"><g
             id="g160"><path
               id="path168"
               style="fill:url(#linearGradient166);stroke:none"
               d="m 105.078,116.271 c 0.028,0.096 0.043,0.145 0.043,0.145 v 0 c -0.015,-0.046 -0.03,-0.094 -0.043,-0.145 m 1.494,-83.052 c 0,0 16.436,5.801 24.17,10.634 v 0 c 0,0 -27.683,64.533 -25.664,72.418 v 0 c -0.876,-3.015 -14.907,-52.595 1.494,-83.052" /></g></g></g></g><g
       id="g170"><g
         clip-path="url(#clipPath176)"
         id="g172"><g
           id="g178"><g
             id="g180"><path
               id="path188"
               style="fill:url(#linearGradient186);stroke:none"
               d="m 187.163,116.276 c -0.013,0.049 -0.026,0.096 -0.041,0.14 v 0 c 0,0 0.014,-0.048 0.041,-0.14 M 159.747,44.82 c 7.736,-4.834 25.925,-11.601 25.925,-11.601 v 0 c 16.408,30.472 2.355,80.087 1.491,83.057 v 0 c 2.01,-7.855 -27.416,-71.456 -27.416,-71.456" /></g></g></g></g></g></svg>