<?xml version="1.0" encoding="utf-8"?>
<!-- Generator: Adobe Illustrator 22.0.0, SVG Export Plug-In . SVG Version: 6.00 Build 0)  -->
<svg version="1.1" id="Layer_1" xmlns="http://www.w3.org/2000/svg" xmlns:xlink="http://www.w3.org/1999/xlink" x="0px" y="0px"
	 viewBox="0 0 600 600" style="enable-background:new 0 0 600 600;" xml:space="preserve">
<style type="text/css">
	.st0{fill:#86B8F1;}
	.st1{fill:#639BF3;}
	.st2{opacity:0.1;fill:#FFFFFF;}
	.st3{opacity:0.2;fill:#3B3B3B;}
	.st4{fill:#FFFFFF;}
	.st5{fill:#A7EDC1;}
	.st6{fill:#87E3A7;}
	.st7{fill:#F4D86E;}
	.st8{fill:#E6B244;}
	.st9{fill:#D09D2D;}
	.st10{fill:#575F66;}
	.st11{fill:#404952;}
	.st12{opacity:0.15;}
	.st13{fill:#E4E9F3;}
	.st14{fill:#D6DCEB;}
	.st15{fill:#E4E9F3;stroke:#D6DCEB;stroke-width:0.7432;stroke-linecap:round;stroke-linejoin:round;stroke-miterlimit:10;}
	.st16{fill:#B9C1D9;}
	.st17{clip-path:url(#SVGID_2_);}
	.st18{clip-path:url(#SVGID_4_);}
	.st19{fill:#FFB74D;}
	.st20{fill:#FECF37;}
	.st21{fill:#95AB42;}
	.st22{fill:#ABC64B;}
	.st23{fill:#E5ECB2;}
	.st24{fill:#B6D350;}
	
		.st25{opacity:0.7;fill:none;stroke:#659BF8;stroke-width:7.8084;stroke-linecap:round;stroke-linejoin:round;stroke-miterlimit:10;stroke-dasharray:13.6647;}
</style>
<g>
	<g id="XMLID_471_">
		<g id="XMLID_476_">
			
				<ellipse id="XMLID_481_" transform="matrix(0.866 -0.5 0.5 0.866 -50.7587 239.0915)" class="st0" cx="420.8" cy="214.3" rx="20.9" ry="36.2"/>
			
				<ellipse id="XMLID_480_" transform="matrix(0.866 -0.5 0.5 0.866 -50.7588 239.0905)" class="st1" cx="420.8" cy="214.3" rx="17.7" ry="30.7"/>
			<path id="XMLID_479_" class="st2" d="M425.7,241.5c-11.7-3.6-23.3-18.6-26.1-33.7c-0.4-2-0.6-4-0.6-5.8c0,2.1,0.1,4.3,0.6,6.7
				c2.8,15,14.4,30.1,26.1,33.7c10.1,3.1,16.8-3.5,16.7-15C442.2,238.4,435.5,244.5,425.7,241.5z"/>
			<path id="XMLID_477_" class="st3" d="M415.8,188.8c11.7,3.6,23.3,18.6,26.1,33.7c0.3,1.8,0.5,3.5,0.6,5.2c0.1-2.1-0.1-4.5-0.6-7
				c-2.8-15-14.4-30.1-26.1-33.7c-10.3-3.1-17.1,3.7-16.7,15.7C399.4,191.9,406.1,185.9,415.8,188.8z"/>
		</g>
		<g id="XMLID_472_">
			<g id="XMLID_473_">
				<path id="XMLID_475_" class="st4" d="M406,215.7c0.5-1.3,0.9-2.6,1.4-3.9c0-0.1,0.3-0.1,0.4,0c0.8,0.4,1.6,0.9,2.4,1.4
					c5.2,3,10.5,6,15.7,9.1c0.4,0.2,0.6,0.2,0.7-0.2c0.9-2.5,1.8-4.9,2.7-7.4c0-0.1,0.1-0.3,0.1-0.5c-6.3-3.7-12.6-7.3-19-11
					c0.5-1.4,0.9-2.6,1.4-3.9c0-0.1,0.2-0.1,0.4,0c0.5,0.3,0.9,0.5,1.4,0.8c6.4,3.7,12.9,7.5,19.3,11.1c1.9,1.1,4,4,3.1,6.7
					c-0.6,2.1-1.4,4-2.1,6c-0.2,0.7-0.5,1.4-0.7,2c-0.9,2.3-2.7,3-5.2,2.4c-0.2,0-0.5-0.2-0.7-0.3c-6.9-4-13.9-8-20.8-12
					C406.4,216,406.2,215.9,406,215.7z"/>
				<path id="XMLID_474_" class="st4" d="M418,210.3c-0.5,1.3-0.9,2.5-1.4,3.7c0,0.1-0.2,0.1-0.3,0c-3.6-2.1-7.2-4.2-10.8-6.2
					c0,0-0.1-0.1-0.2-0.2c0.5-1.2,0.9-2.4,1.4-3.5c0-0.1,0.2-0.1,0.4-0.1C410.6,206,414.2,208.1,418,210.3z"/>
			</g>
		</g>
	</g>
	<g id="XMLID_461_">
		<g id="XMLID_465_">
			
				<ellipse id="XMLID_470_" transform="matrix(0.866 -0.5 0.5 0.866 12.9851 222.0111)" class="st5" cx="420.8" cy="86.8" rx="20.9" ry="36.2"/>
			
				<ellipse id="XMLID_469_" transform="matrix(0.866 -0.5 0.5 0.866 12.985 222.0108)" class="st6" cx="420.8" cy="86.8" rx="17.7" ry="30.7"/>
			<path id="XMLID_468_" class="st2" d="M425.7,114c-11.7-3.6-23.3-18.6-26.1-33.7c-0.4-2-0.6-4-0.6-5.8c0,2.1,0.1,4.3,0.6,6.7
				c2.8,15,14.4,30.1,26.1,33.7c10.1,3.1,16.8-3.5,16.7-15C442.2,110.9,435.5,117,425.7,114z"/>
			<path id="XMLID_466_" class="st3" d="M415.8,61.4c11.7,3.6,23.3,18.6,26.1,33.7c0.3,1.8,0.5,3.5,0.6,5.2c0.1-2.1-0.1-4.5-0.6-7
				c-2.8-15-14.4-30.1-26.1-33.7c-10.3-3.1-17.1,3.7-16.7,15.7C399.4,64.4,406.1,58.4,415.8,61.4z"/>
		</g>
		<g id="XMLID_462_">
			<path id="XMLID_464_" class="st4" d="M407.6,79.1c0.2,0,0.5,0,0.8,0c0.6,0.1,1.1,0.2,1.7,0.4c1.2,0.4,2.3,0.9,3.5,1.4
				c1.6,0.7,3.1,1.5,4.7,2.4v4.2c0.8,0.5,1.5,0.9,2.3,1.4l0.3,0.2c0.9,0.5,1.8,1,2.7,1.5v-4.2c1.4,0.9,2.8,1.8,4.3,2.8
				c1.2,0.8,2.4,1.7,3.5,2.6c0.6,0.5,1.2,1,1.7,1.5c0.3,0.3,0.5,0.6,0.8,0.9c0.2,0.3,0.5,0.7,0.5,1.1c0-0.4-0.2-0.8-0.5-1.1
				c-0.2-0.3-0.5-0.7-0.8-1c-0.6-0.6-1.1-1.1-1.7-1.6c-1.2-1-2.3-1.9-3.5-2.8c-1.4-1-2.9-2-4.3-2.9v-4.2l7.7,4.5v-6.1l-20.7-12v6.1
				l7.7,4.5v4.1c-1.6-0.8-3.2-1.6-4.7-2.3c-1.2-0.5-2.4-0.9-3.5-1.3c-0.6-0.2-1.2-0.3-1.7-0.3C408.1,79,407.8,79,407.6,79.1
				c-0.3,0-0.5,0.1-0.5,0.5C407.1,79.3,407.4,79.2,407.6,79.1z"/>
			<path id="XMLID_463_" class="st4" d="M433.9,95.8c-0.3,0-0.5,0-0.8-0.1c-0.6-0.1-1.1-0.3-1.7-0.5c-1.2-0.4-2.3-0.9-3.5-1.5
				c-2.4-1.1-4.7-2.4-7.1-3.8c-2.4-1.4-4.7-2.8-7.1-4.4c-1.2-0.8-2.4-1.6-3.5-2.6c-0.6-0.5-1.2-0.9-1.7-1.5
				c-0.3-0.3-0.5-0.6-0.8-0.9c-0.2-0.3-0.5-0.7-0.5-1.1c0,0.4,0.2,0.8,0.5,1.1c0.2,0.4,0.5,0.7,0.8,1c0.5,0.6,1.1,1.2,1.7,1.7
				c1.2,1,2.3,2,3.5,2.9c1.6,1.2,3.2,2.2,4.8,3.2v12.2l5.3,3.1V92.6c1.4,0.7,2.9,1.4,4.3,2c1.2,0.5,2.4,0.9,3.5,1.2
				c0.6,0.1,1.2,0.3,1.7,0.3c0.3,0,0.5,0,0.8-0.1c0.2-0.1,0.5-0.2,0.5-0.6C434.4,95.7,434.1,95.8,433.9,95.8z"/>
		</g>
	</g>
	<g id="XMLID_440_">
		
			<ellipse id="XMLID_460_" transform="matrix(0.866 -0.5 0.5 0.866 -18.8867 230.5517)" class="st7" cx="420.8" cy="150.5" rx="20.8" ry="36.1"/>
		<g id="XMLID_458_">
			
				<ellipse id="XMLID_459_" transform="matrix(0.866 -0.5 0.5 0.866 -18.8867 230.5518)" class="st8" cx="420.8" cy="150.5" rx="18.3" ry="31.6"/>
		</g>
		<g id="XMLID_442_">
			<g id="XMLID_455_">
				<polygon id="XMLID_457_" class="st9" points="418.6,137.2 415.8,135.6 415.8,129.1 418.6,130.7 				"/>
				<polygon id="XMLID_456_" class="st9" points="424.2,140.4 421.3,138.8 421.3,132.3 424.2,133.9 				"/>
			</g>
			<g id="XMLID_452_">
				<polygon id="XMLID_454_" class="st9" points="418.6,168 415.8,166.4 415.8,159.9 418.6,161.6 				"/>
				<polygon id="XMLID_453_" class="st9" points="424.2,171.3 421.3,169.6 421.3,163.1 424.2,164.8 				"/>
			</g>
			<g id="XMLID_447_">
				<path id="XMLID_448_" class="st9" d="M432.5,150.7c0,3.1-1.7,4.6-4.4,3.9c3.2,2.6,5.3,6.7,5.3,10.5c0,5.1-3.8,6-9.8,2.5
					l-12.6-7.3v-29.5l12.1,7C428.8,141.2,432.5,146.2,432.5,150.7z M425.6,148.1c0-1.8-1.1-3.5-3-4.5l-5.1-2.9v5.7l5.1,2.9
					C424.5,150.4,425.6,150,425.6,148.1z M426.4,160.1c0-1.9-1.5-3.9-3.8-5.2l-5.1-2.9v6.2l5.1,2.9
					C425,162.5,426.4,162.1,426.4,160.1z"/>
			</g>
			<path id="XMLID_443_" class="st7" d="M433.7,164.9c0-3.8-2-7.9-5.3-10.5c2.7,0.7,4.4-0.8,4.4-3.9c0-4.2-3.2-8.9-8.3-12.2v-4.2
				l-2.9-1.7v4.1l-2.7-1.5v-4.1l-2.9-1.7v4.1l-4.9-2.8v29.5l4.9,2.8v3.7l2.9,1.7v-3.7l2.7,1.5v3.7l2.9,1.7v-3.7
				C430.2,170.8,433.7,169.7,433.7,164.9z M426,147.9c0,1.9-1.1,2.3-3,1.2l-5.1-2.9v-5.7l5.1,2.9C424.9,144.4,426,146.1,426,147.9z
				 M423,160.9l-5.1-2.9v-6.2l5.1,2.9c2.3,1.3,3.8,3.3,3.8,5.2C426.8,161.9,425.4,162.3,423,160.9z"/>
		</g>
		<path id="XMLID_441_" class="st9" d="M420.8,124.7c-3.7-2.1-7.2-3.1-10.3-3c2.9,0.1,6.1,1.1,9.5,3c12.4,7.1,22.4,24.5,22.4,38.7
			c0,10-4.9,15.8-12.1,16c7.6,0.2,12.8-5.6,12.8-16C443.1,149.2,433.1,131.8,420.8,124.7z"/>
	</g>
	<g id="XMLID_375_">
		<g id="XMLID_434_">
			
				<ellipse id="XMLID_439_" transform="matrix(0.866 -0.5 0.5 0.866 -82.6306 247.6317)" class="st10" cx="420.8" cy="278" rx="20.9" ry="36.2"/>
			
				<ellipse id="XMLID_438_" transform="matrix(0.866 -0.5 0.5 0.866 -82.6306 247.6306)" class="st11" cx="420.8" cy="278" rx="17.7" ry="30.7"/>
			<path id="XMLID_437_" class="st2" d="M425.7,305.2c-11.7-3.6-23.3-18.6-26.1-33.7c-0.4-2-0.6-4-0.6-5.8c0,2.1,0.1,4.3,0.6,6.7
				c2.8,15,14.4,30.1,26.1,33.7c10.1,3.1,16.8-3.5,16.7-15C442.2,302.1,435.5,308.2,425.7,305.2z"/>
			<path id="XMLID_435_" class="st3" d="M415.8,252.6c11.7,3.6,23.3,18.6,26.1,33.7c0.3,1.8,0.5,3.5,0.6,5.2c0.1-2.1-0.1-4.5-0.6-7
				c-2.8-15-14.4-30.1-26.1-33.7c-10.3-3.1-17.1,3.7-16.7,15.7C399.4,255.6,406.1,249.6,415.8,252.6z"/>
		</g>
		<g id="XMLID_422_">
			<g id="XMLID_423_">
				<g id="XMLID_432_">
					<polygon id="XMLID_433_" class="st4" points="421.1,286.5 421.1,294.6 429.8,285.5 					"/>
				</g>
				<g id="XMLID_429_">
					<polygon id="XMLID_431_" class="st4" points="429.5,282.7 421.1,261.8 421.1,273.5 					"/>
					<polygon id="XMLID_430_" class="st4" points="421.1,274.4 421.1,284.4 429.4,283.6 					"/>
				</g>
				<g id="XMLID_426_">
					<polygon id="XMLID_428_" class="st4" points="412.1,272.6 420.4,261.4 420.4,273.1 					"/>
					<polygon id="XMLID_427_" class="st4" points="420.4,274 420.4,284 412.1,273.6 					"/>
				</g>
				<g id="XMLID_424_">
					<polygon id="XMLID_425_" class="st4" points="420.4,286.1 420.4,294.2 411.7,275 					"/>
				</g>
			</g>
		</g>
	</g>
</g>
<g id="XMLID_232_">
	<polygon id="XMLID_482_" class="st12" points="477.6,391.9 219.1,541.2 46.8,441.7 305.3,292.4 	"/>
	<g id="XMLID_859_">
		<polygon class="st13" points="305.3,264.6 46.8,413.9 46.8,165.1 305.3,15.9 		"/>
	</g>
	<polygon id="XMLID_858_" class="st4" points="299.3,261.1 299.3,26.3 52.8,168.6 52.8,403.5 	"/>
	<polygon id="XMLID_857_" class="st14" points="477.6,364.1 219.1,513.4 46.8,413.9 305.3,264.6 	"/>
	<polygon id="XMLID_856_" class="st15" points="390.7,413.8 304.6,463.5 251.9,433 338,383.3 	"/>
	<g id="XMLID_853_">
		<polygon class="st14" points="298.5,12 305.3,15.9 46.8,165.1 40,161.2 		"/>
	</g>
	<g id="XMLID_850_">
		<path class="st16" d="M42.8,417.6l4,2.3V165.1l-6.8-3.9l0,251.5C40,414.8,41.1,416.6,42.8,417.6z"/>
	</g>
	<g id="XMLID_847_">
		<polygon class="st16" points="219.1,519.5 219.1,513.4 46.8,413.9 46.8,419.9 		"/>
	</g>
	<g id="XMLID_844_">
		<polygon class="st13" points="477.6,370.2 477.6,364.1 219.1,513.4 219.1,519.5 		"/>
	</g>
	<g id="XMLID_769_">
		<polygon id="XMLID_843_" class="st15" points="249.1,304.5 268,315.4 249.1,326.2 230.3,315.4 		"/>
		<polygon id="XMLID_842_" class="st15" points="230.3,315.4 249.1,326.2 230.3,337.1 211.4,326.2 		"/>
		<polygon id="XMLID_841_" class="st15" points="211.4,326.2 230.3,337.1 211.4,348 192.6,337.1 		"/>
		<polygon id="XMLID_840_" class="st15" points="192.6,337.1 211.4,348 192.6,358.9 173.7,348 		"/>
		<polygon id="XMLID_839_" class="st15" points="173.7,348 192.6,358.9 173.7,369.8 154.8,358.9 		"/>
		<polygon id="XMLID_838_" class="st15" points="154.8,358.9 173.7,369.8 154.8,380.7 136,369.8 		"/>
		<polygon id="XMLID_837_" class="st15" points="268,315.4 286.9,326.2 268,337.1 249.1,326.2 		"/>
		<polygon id="XMLID_836_" class="st15" points="249.1,326.2 268,337.1 249.1,348 230.3,337.1 		"/>
		<polygon id="XMLID_835_" class="st15" points="230.3,337.1 249.1,348 230.3,358.9 211.4,348 		"/>
		<polygon id="XMLID_834_" class="st15" points="211.4,348 230.3,358.9 211.4,369.8 192.6,358.9 		"/>
		<polygon id="XMLID_833_" class="st15" points="154.8,380.7 173.7,369.8 192.6,358.9 211.4,369.8 192.6,380.7 192.6,380.7 
			173.7,391.6 		"/>
		<polygon id="XMLID_832_" class="st15" points="135.3,369.1 154.2,380 135.3,390.9 116.5,380 		"/>
		<polygon id="XMLID_831_" class="st15" points="116.5,380 135.3,390.9 116.5,401.7 97.6,390.9 		"/>
		<polygon id="XMLID_830_" class="st15" points="97.6,390.9 116.5,401.7 97.6,412.6 78.7,401.7 		"/>
		<polygon id="XMLID_829_" class="st15" points="154.2,380 173,390.9 154.2,401.7 135.3,390.9 		"/>
		<polygon id="XMLID_828_" class="st15" points="135.3,390.9 154.2,401.7 135.3,412.6 116.5,401.7 		"/>
		<polygon id="XMLID_827_" class="st15" points="116.5,401.7 135.3,412.6 116.5,423.5 97.6,412.6 		"/>
		<polygon id="XMLID_826_" class="st15" points="78.7,401.7 97.6,412.6 78.7,423.5 59.9,412.6 		"/>
		<polygon id="XMLID_825_" class="st15" points="97.6,412.6 116.5,423.5 97.6,434.4 78.7,423.5 		"/>
		<polygon id="XMLID_824_" class="st15" points="286.9,326.2 305.7,337.1 286.9,348 268,337.1 		"/>
		<polygon id="XMLID_823_" class="st15" points="268,337.1 286.9,348 268,358.9 249.1,348 		"/>
		<polygon id="XMLID_822_" class="st15" points="249.1,348 268,358.9 249.1,369.8 230.3,358.9 		"/>
		<polygon id="XMLID_821_" class="st15" points="230.3,358.9 249.1,369.8 230.3,380.7 211.4,369.8 		"/>
		<polygon id="XMLID_820_" class="st15" points="211.4,369.8 230.3,380.7 211.4,391.6 192.6,380.7 		"/>
		<polygon id="XMLID_819_" class="st15" points="192.6,380.7 211.4,391.6 192.6,402.5 173.7,391.6 		"/>
		<polygon id="XMLID_818_" class="st15" points="173,390.9 191.9,401.7 173,412.6 154.2,401.7 		"/>
		<polygon id="XMLID_817_" class="st15" points="154.2,401.7 173,412.6 154.2,423.5 135.3,412.6 		"/>
		<polygon id="XMLID_816_" class="st15" points="135.3,412.6 154.2,423.5 135.3,434.4 116.5,423.5 		"/>
		<polygon id="XMLID_815_" class="st15" points="116.5,423.5 135.3,434.4 116.5,445.3 97.6,434.4 		"/>
		<polygon id="XMLID_814_" class="st15" points="305.7,337.1 324.6,348 305.7,358.9 286.9,348 		"/>
		<polygon id="XMLID_813_" class="st15" points="286.9,348 305.7,358.9 286.9,369.8 268,358.9 		"/>
		<polygon id="XMLID_812_" class="st15" points="268,358.9 286.9,369.8 268,380.7 249.1,369.8 		"/>
		<polygon id="XMLID_811_" class="st15" points="249.1,369.8 268,380.7 249.1,391.6 230.3,380.7 		"/>
		<polygon id="XMLID_810_" class="st15" points="230.3,380.7 249.1,391.6 230.3,402.5 211.4,391.6 		"/>
		<polygon id="XMLID_809_" class="st15" points="211.4,391.6 230.3,402.5 211.4,413.3 192.6,402.5 		"/>
		<polygon id="XMLID_808_" class="st15" points="191.9,401.7 210.8,412.6 191.9,423.5 173,412.6 		"/>
		<polygon id="XMLID_807_" class="st15" points="173,412.6 191.9,423.5 173,434.4 154.2,423.5 		"/>
		<polygon id="XMLID_806_" class="st15" points="154.2,423.5 173,434.4 154.2,445.3 135.3,434.4 		"/>
		<polygon id="XMLID_805_" class="st15" points="135.3,434.4 154.2,445.3 135.3,456.2 116.5,445.3 		"/>
		<polygon id="XMLID_804_" class="st15" points="324.6,348 343.4,358.9 324.6,369.8 305.7,358.9 		"/>
		<polygon id="XMLID_803_" class="st15" points="305.7,358.9 324.6,369.8 305.7,380.7 286.9,369.8 		"/>
		<polygon id="XMLID_802_" class="st15" points="286.9,369.8 305.7,380.7 286.9,391.6 268,380.7 		"/>
		<polygon id="XMLID_801_" class="st15" points="268,380.7 286.9,391.6 268,402.5 249.1,391.6 		"/>
		<polygon id="XMLID_800_" class="st15" points="230.3,402.5 249.1,391.6 268,402.5 249.1,413.3 230.3,424.2 211.4,413.3 		"/>
		<polygon id="XMLID_799_" class="st15" points="210.8,412.6 229.6,423.5 210.8,434.4 191.9,423.5 		"/>
		<polygon id="XMLID_798_" class="st15" points="191.9,423.5 210.8,434.4 191.9,445.3 173,434.4 		"/>
		<polygon id="XMLID_797_" class="st15" points="173,434.4 191.9,445.3 173,456.2 154.2,445.3 		"/>
		<polygon id="XMLID_796_" class="st15" points="154.2,445.3 173,456.2 154.2,467.1 135.3,456.2 		"/>
		<polygon id="XMLID_795_" class="st15" points="268,293.6 286.9,304.5 268,315.4 249.1,304.5 		"/>
		<polygon id="XMLID_794_" class="st15" points="286.9,304.5 305.7,315.4 286.9,326.2 268,315.4 		"/>
		<polygon id="XMLID_793_" class="st15" points="305.7,315.4 324.6,326.2 305.7,337.1 286.9,326.2 		"/>
		<polygon id="XMLID_792_" class="st15" points="324.6,326.2 343.4,337.1 324.6,348 305.7,337.1 		"/>
		<polygon id="XMLID_791_" class="st15" points="343.4,337.1 362.3,348 343.4,358.9 324.6,348 		"/>
		<polygon id="XMLID_790_" class="st15" points="286.9,282.7 305.7,293.6 286.9,304.5 268,293.6 		"/>
		<polygon id="XMLID_789_" class="st15" points="305.7,293.6 324.6,304.5 305.7,315.4 286.9,304.5 		"/>
		<polygon id="XMLID_788_" class="st15" points="343.4,315.4 362.3,326.2 343.4,337.1 324.6,326.2 		"/>
		<polygon id="XMLID_787_" class="st15" points="362.3,326.2 381.2,337.1 362.3,348 343.4,337.1 		"/>
		<polygon id="XMLID_786_" class="st15" points="381.2,337.1 400,348 381.2,358.9 362.3,348 		"/>
		<polygon id="XMLID_785_" class="st15" points="305.7,271.8 324.6,282.7 305.7,293.6 286.9,282.7 		"/>
		<polygon id="XMLID_784_" class="st15" points="324.6,282.7 343.4,293.6 324.6,304.5 305.7,293.6 		"/>
		<polygon id="XMLID_783_" class="st15" points="305.9,315.4 324.8,304.5 324.8,304.5 343.6,293.6 362.5,304.5 343.6,315.4 
			343.6,315.4 324.8,326.2 		"/>
		<polygon id="XMLID_782_" class="st15" points="362.3,304.5 381.2,315.4 362.3,326.2 343.4,315.4 		"/>
		<polygon id="XMLID_781_" class="st15" points="381.2,315.4 400,326.2 381.2,337.1 362.3,326.2 		"/>
		<polygon id="XMLID_780_" class="st15" points="400,326.2 418.9,337.1 400,348 381.2,337.1 		"/>
		<polygon id="XMLID_779_" class="st15" points="306.1,380.7 324.8,369.9 324.6,369.8 343.4,358.9 362.3,348 381.2,358.9 
			362.3,369.8 343.6,380.6 343.8,380.7 324.9,391.6 306.1,402.5 287.2,391.6 		"/>
		<polygon id="XMLID_778_" class="st15" points="286.9,391.6 305.7,402.5 286.9,413.3 268,402.5 		"/>
		<polygon id="XMLID_777_" class="st15" points="268,402.5 286.9,413.3 268,424.2 249.1,413.3 		"/>
		<polygon id="XMLID_776_" class="st15" points="249.1,413.3 268,424.2 249.1,435.1 230.3,424.2 		"/>
		<polygon id="XMLID_775_" class="st15" points="229.6,423.5 248.5,434.4 229.6,445.3 210.8,434.4 		"/>
		<polygon id="XMLID_774_" class="st15" points="210.8,434.4 229.6,445.3 210.8,456.2 191.9,445.3 		"/>
		<polygon id="XMLID_773_" class="st15" points="191.9,445.3 210.8,456.2 191.9,467.1 173,456.2 		"/>
		<polygon id="XMLID_772_" class="st15" points="173,456.2 191.9,467.1 173,478 154.2,467.1 		"/>
	</g>
</g>
<g>
	<g>
		<defs>
			<polygon id="SVGID_1_" points="147.8,152.3 227.9,106 227.9,284.2 147.8,330.4 			"/>
		</defs>
		<clipPath id="SVGID_2_">
			<use xlink:href="#SVGID_1_"  style="overflow:visible;"/>
		</clipPath>
		<g id="Artwork_1_1_" class="st17">
			<g>
				<defs>
					<polygon id="SVGID_3_" points="147.8,152.3 227.9,106 227.9,284.2 147.8,330.4 					"/>
				</defs>
				<clipPath id="SVGID_4_">
					<use xlink:href="#SVGID_3_"  style="overflow:visible;"/>
				</clipPath>
				<g class="st18">
					<path class="st19" d="M224.7,178l-27.4,19.8l19.5-74.7c2-7.6,1.9-9.6,1.2-10.3c-0.3-0.4-0.9-0.4-1.5-0.1
						c-0.5,0.3-2.2,1.3-6.6,10.6l-61.7,131.7c-0.9,2.3-0.4,4.3,1.1,4.5c0.5,0.1,1.1-0.1,1.7-0.4l24.3-16.6l-22.7,80.3
						c-0.7,2.3,0.1,3.9,1.7,3.8c0.4-0.1,0.8-0.2,1.2-0.4c1-0.5,2-1.6,2.6-2.9l69.1-140.4c1.1-2.2,0.8-4.4-0.6-4.9
						C226.1,177.6,225.4,177.7,224.7,178"/>
					<path class="st20" d="M227.6,178.5c-0.5-1-1.7-1.2-2.9-0.4l-27.4,19.8l19.5-74.7c2-7.6,1.9-9.6,1.2-10.3
						c-0.3-0.4-0.9-0.4-1.5-0.1l-41.7,113.1l26.2-21.1c2.4-2,4.8-1.6,5.3,0.9c0.2,1.2,0,2.8-0.7,4.4l-52,116.4l0.3,0.1
						c1.4,0.1,3.1-1.2,4.1-3.2l69.1-140.5C228,181.1,228.2,179.4,227.6,178.5"/>
				</g>
			</g>
		</g>
	</g>
</g>
<g>
	<g id="XMLID_410_">
		<g id="XMLID_415_">
			
				<ellipse id="XMLID_420_" transform="matrix(0.866 -0.5 0.5 0.866 -51.9963 238.377)" class="st0" cx="418.8" cy="216.2" rx="20.9" ry="36.2"/>
			
				<ellipse id="XMLID_419_" transform="matrix(0.866 -0.5 0.5 0.866 -51.9964 238.376)" class="st1" cx="418.8" cy="216.2" rx="17.7" ry="30.7"/>
			<path id="XMLID_418_" class="st2" d="M423.8,243.5c-11.7-3.6-23.3-18.6-26.1-33.7c-0.4-2-0.6-4-0.6-5.8c0,2.1,0.1,4.3,0.6,6.7
				c2.8,15,14.4,30.1,26.1,33.7c10.1,3.1,16.8-3.5,16.7-15C440.2,240.3,433.6,246.4,423.8,243.5z"/>
			<path id="XMLID_416_" class="st3" d="M413.8,190.8c11.7,3.6,23.3,18.6,26.1,33.7c0.3,1.8,0.5,3.5,0.6,5.2c0.1-2.1-0.1-4.5-0.6-7
				c-2.8-15-14.4-30.1-26.1-33.7c-10.3-3.1-17.1,3.7-16.7,15.7C397.5,193.8,404.1,187.8,413.8,190.8z"/>
		</g>
		<g id="XMLID_411_">
			<g id="XMLID_412_">
				<path id="XMLID_414_" class="st4" d="M404,217.7c0.5-1.3,0.9-2.6,1.4-3.9c0-0.1,0.3-0.1,0.4,0c0.8,0.4,1.6,0.9,2.4,1.4
					c5.2,3,10.5,6,15.7,9.1c0.4,0.2,0.6,0.2,0.7-0.2c0.9-2.5,1.8-4.9,2.7-7.4c0-0.1,0.1-0.3,0.1-0.5c-6.3-3.7-12.6-7.3-19-11
					c0.5-1.4,0.9-2.6,1.4-3.9c0-0.1,0.2-0.1,0.4,0c0.5,0.3,0.9,0.5,1.4,0.8c6.4,3.7,12.9,7.5,19.3,11.1c1.9,1.1,4,4,3.1,6.7
					c-0.6,2.1-1.4,4-2.1,6c-0.2,0.7-0.5,1.4-0.7,2c-0.9,2.3-2.7,3-5.2,2.4c-0.2,0-0.5-0.2-0.7-0.3c-6.9-4-13.9-8-20.8-12
					C404.4,217.9,404.2,217.8,404,217.7z"/>
				<path id="XMLID_413_" class="st4" d="M416.1,212.3c-0.5,1.3-0.9,2.5-1.4,3.7c0,0.1-0.2,0.1-0.3,0c-3.6-2.1-7.2-4.2-10.8-6.2
					c0,0-0.1-0.1-0.2-0.2c0.5-1.2,0.9-2.4,1.4-3.5c0-0.1,0.2-0.1,0.4-0.1C408.7,208,412.3,210.1,416.1,212.3z"/>
			</g>
		</g>
	</g>
	<g id="XMLID_400_">
		<g id="XMLID_404_">
			
				<ellipse id="XMLID_409_" transform="matrix(0.866 -0.5 0.5 0.866 11.7475 221.2966)" class="st5" cx="418.8" cy="88.7" rx="20.9" ry="36.2"/>
			
				<ellipse id="XMLID_408_" transform="matrix(0.866 -0.5 0.5 0.866 11.7474 221.2963)" class="st6" cx="418.8" cy="88.7" rx="17.7" ry="30.7"/>
			<path id="XMLID_407_" class="st2" d="M423.8,116c-11.7-3.6-23.3-18.6-26.1-33.7c-0.4-2-0.6-4-0.6-5.8c0,2.1,0.1,4.3,0.6,6.7
				c2.8,15,14.4,30.1,26.1,33.7c10.1,3.1,16.8-3.5,16.7-15C440.2,112.8,433.6,119,423.8,116z"/>
			<path id="XMLID_405_" class="st3" d="M413.8,63.3c11.7,3.6,23.3,18.6,26.1,33.7c0.3,1.8,0.5,3.5,0.6,5.2c0.1-2.1-0.1-4.5-0.6-7
				c-2.8-15-14.4-30.1-26.1-33.7c-10.3-3.1-17.1,3.7-16.7,15.7C397.5,66.3,404.1,60.3,413.8,63.3z"/>
		</g>
		<g id="XMLID_401_">
			<path id="XMLID_403_" class="st4" d="M405.7,81.1c0.2,0,0.5,0,0.8,0c0.6,0.1,1.1,0.2,1.7,0.4c1.2,0.4,2.3,0.9,3.5,1.4
				c1.6,0.7,3.1,1.5,4.7,2.4v4.2c0.8,0.5,1.5,0.9,2.3,1.4L419,91c0.9,0.5,1.8,1,2.7,1.5v-4.2c1.4,0.9,2.8,1.8,4.3,2.8
				c1.2,0.8,2.4,1.7,3.5,2.6c0.6,0.5,1.2,1,1.7,1.5c0.3,0.3,0.5,0.6,0.8,0.9c0.2,0.3,0.5,0.7,0.5,1.1c0-0.4-0.2-0.8-0.5-1.1
				c-0.2-0.3-0.5-0.7-0.8-1c-0.6-0.6-1.1-1.1-1.7-1.6c-1.2-1-2.3-1.9-3.5-2.8c-1.4-1-2.9-2-4.3-2.9v-4.2l7.7,4.5v-6.1l-20.7-12v6.1
				l7.7,4.5v4.1c-1.6-0.8-3.2-1.6-4.7-2.3c-1.2-0.5-2.4-0.9-3.5-1.3c-0.6-0.2-1.2-0.3-1.7-0.3C406.1,80.9,405.9,80.9,405.7,81.1
				c-0.3,0-0.5,0.1-0.5,0.5C405.2,81.2,405.4,81.1,405.7,81.1z"/>
			<path id="XMLID_402_" class="st4" d="M431.9,97.8c-0.3,0-0.5,0-0.8-0.1c-0.6-0.1-1.1-0.3-1.7-0.5c-1.2-0.4-2.3-0.9-3.5-1.5
				c-2.4-1.1-4.7-2.4-7.1-3.8c-2.4-1.4-4.7-2.8-7.1-4.4c-1.2-0.8-2.4-1.6-3.5-2.6c-0.6-0.5-1.2-0.9-1.7-1.5
				c-0.3-0.3-0.5-0.6-0.8-0.9c-0.2-0.3-0.5-0.7-0.5-1.1c0,0.4,0.2,0.8,0.5,1.1c0.2,0.4,0.5,0.7,0.8,1c0.5,0.6,1.1,1.2,1.7,1.7
				c1.2,1,2.3,2,3.5,2.9c1.6,1.2,3.2,2.2,4.8,3.2v12.2l5.3,3.1V94.5c1.4,0.7,2.9,1.4,4.3,2c1.2,0.5,2.4,0.9,3.5,1.2
				c0.6,0.1,1.2,0.3,1.7,0.3c0.3,0,0.5,0,0.8-0.1c0.2-0.1,0.5-0.2,0.5-0.6C432.4,97.7,432.2,97.7,431.9,97.8z"/>
		</g>
	</g>
	<g id="XMLID_379_">
		
			<ellipse id="XMLID_399_" transform="matrix(0.866 -0.5 0.5 0.866 -20.1243 229.8372)" class="st7" cx="418.8" cy="152.5" rx="20.8" ry="36.1"/>
		<g id="XMLID_397_">
			
				<ellipse id="XMLID_398_" transform="matrix(0.866 -0.5 0.5 0.866 -20.1243 229.8372)" class="st8" cx="418.8" cy="152.5" rx="18.3" ry="31.6"/>
		</g>
		<g id="XMLID_381_">
			<g id="XMLID_394_">
				<polygon id="XMLID_396_" class="st9" points="416.7,139.2 413.8,137.5 413.8,131 416.7,132.7 				"/>
				<polygon id="XMLID_395_" class="st9" points="422.2,142.4 419.4,140.7 419.4,134.2 422.2,135.9 				"/>
			</g>
			<g id="XMLID_391_">
				<polygon id="XMLID_393_" class="st9" points="416.7,170 413.8,168.3 413.8,161.8 416.7,163.5 				"/>
				<polygon id="XMLID_392_" class="st9" points="422.2,173.2 419.4,171.5 419.4,165.1 422.2,166.7 				"/>
			</g>
			<g id="XMLID_386_">
				<path id="XMLID_387_" class="st9" d="M430.5,152.7c0,3.1-1.7,4.6-4.4,3.9c3.2,2.6,5.3,6.7,5.3,10.5c0,5.1-3.8,6-9.8,2.5
					l-12.6-7.3v-29.5l12.1,7C426.9,143.1,430.5,148.1,430.5,152.7z M423.7,150.1c0-1.8-1.1-3.5-3-4.5l-5.1-2.9v5.7l5.1,2.9
					C422.6,152.4,423.7,151.9,423.7,150.1z M424.5,162.1c0-1.9-1.5-3.9-3.8-5.2l-5.1-2.9v6.2l5.1,2.9
					C423,164.4,424.5,164.1,424.5,162.1z"/>
			</g>
			<path id="XMLID_382_" class="st7" d="M431.8,166.8c0-3.8-2-7.9-5.3-10.5c2.7,0.7,4.4-0.8,4.4-3.9c0-4.2-3.2-8.9-8.3-12.2v-4.2
				l-2.9-1.7v4.1l-2.7-1.5v-4.1l-2.9-1.7v4.1l-4.9-2.8V162l4.9,2.8v3.7l2.9,1.7v-3.7l2.7,1.5v3.7l2.9,1.7v-3.7
				C428.2,172.7,431.8,171.7,431.8,166.8z M424.1,149.9c0,1.9-1.1,2.3-3,1.2l-5.1-2.9v-5.7l5.1,2.9
				C422.9,146.4,424.1,148.1,424.1,149.9z M421.1,162.9l-5.1-2.9v-6.2l5.1,2.9c2.3,1.3,3.8,3.3,3.8,5.2
				C424.9,163.9,423.4,164.2,421.1,162.9z"/>
		</g>
		<path id="XMLID_380_" class="st9" d="M418.8,126.6c-3.7-2.1-7.2-3.1-10.3-3c2.9,0.1,6.1,1.1,9.5,3c12.4,7.1,22.4,24.5,22.4,38.7
			c0,10-4.9,15.8-12.1,16c7.6,0.2,12.8-5.6,12.8-16C441.2,151.1,431.2,133.8,418.8,126.6z"/>
	</g>
	<g id="XMLID_41_">
		<g id="XMLID_373_">
			
				<ellipse id="XMLID_378_" transform="matrix(0.866 -0.5 0.5 0.866 -83.8682 246.9171)" class="st10" cx="418.8" cy="280" rx="20.9" ry="36.2"/>
			
				<ellipse id="XMLID_377_" transform="matrix(0.866 -0.5 0.5 0.866 -83.8682 246.916)" class="st11" cx="418.8" cy="280" rx="17.7" ry="30.7"/>
			<path id="XMLID_376_" class="st2" d="M423.8,307.2c-11.7-3.6-23.3-18.6-26.1-33.7c-0.4-2-0.6-4-0.6-5.8c0,2.1,0.1,4.3,0.6,6.7
				c2.8,15,14.4,30.1,26.1,33.7c10.1,3.1,16.8-3.5,16.7-15C440.2,304.1,433.6,310.2,423.8,307.2z"/>
			<path id="XMLID_374_" class="st3" d="M413.8,254.5c11.7,3.6,23.3,18.6,26.1,33.7c0.3,1.8,0.5,3.5,0.6,5.2c0.1-2.1-0.1-4.5-0.6-7
				c-2.8-15-14.4-30.1-26.1-33.7c-10.3-3.1-17.1,3.7-16.7,15.7C397.5,257.6,404.1,251.6,413.8,254.5z"/>
		</g>
		<g id="XMLID_361_">
			<g id="XMLID_362_">
				<g id="XMLID_371_">
					<polygon id="XMLID_372_" class="st4" points="419.2,288.5 419.2,296.6 427.9,287.5 					"/>
				</g>
				<g id="XMLID_368_">
					<polygon id="XMLID_370_" class="st4" points="427.6,284.7 419.2,263.8 419.2,275.5 					"/>
					<polygon id="XMLID_369_" class="st4" points="419.2,276.4 419.2,286.3 427.5,285.5 					"/>
				</g>
				<g id="XMLID_365_">
					<polygon id="XMLID_367_" class="st4" points="410.1,274.6 418.5,263.4 418.5,275 					"/>
					<polygon id="XMLID_366_" class="st4" points="418.5,276 418.5,285.9 410.1,275.5 					"/>
				</g>
				<g id="XMLID_363_">
					<polygon id="XMLID_364_" class="st4" points="418.4,288 418.4,296.1 409.7,277 					"/>
				</g>
			</g>
		</g>
	</g>
</g>
<g id="XMLID_3004_">
	<polygon id="XMLID_5206_" class="st12" points="476,462 538.4,498.1 389.6,584 327.2,548 	"/>
	<g id="XMLID_4581_">
		<polygon id="XMLID_5203_" class="st21" points="476,449.1 538.4,485.1 389.6,571.1 327.2,535.1 		"/>
		<g id="XMLID_4584_">
			<polygon id="XMLID_5185_" class="st22" points="389.6,565.9 538.4,479.9 476,443.9 327.2,529.8 			"/>
			<polygon id="XMLID_5181_" class="st23" points="389.4,559.6 527.5,479.8 476.2,450.2 338,529.9 			"/>
			<ellipse id="XMLID_5176_" class="st22" cx="432.8" cy="504.9" rx="26.1" ry="15"/>
			<g id="XMLID_4649_">
				<g>
					<path id="XMLID_124_" class="st23" d="M444.9,511.8l-0.2,0.1c-0.8,0.5-1.6,0.4-2.5-0.1l-1.4-0.8c-3.7,1.7-8,1.8-10.8,0.2
						c-3.5-2-1.6-4.4,0.4-6.3l-5.8-3.3c-1.4,1.1-2,2.5-1.6,3.6c0,0.1-1.8,0.4-2.9-0.1c-1.3-0.7-1-2.7,1.9-4.8l-1.3-0.8
						c-1-0.6-1-1-0.2-1.4l0.2-0.1c0.8-0.4,1.5-0.4,2.5,0.1l1.4,0.8c3.5-1.5,7.6-1.5,10.2,0c3.4,1.9,1.8,4.1-0.1,5.9l6,3.5
						c1.6-1.3,2.2-2.8,1.7-4c0-0.1,1.8-0.4,2.8,0.1c1.4,0.8,1.1,3-2,5.3l1.4,0.8C445.7,510.9,445.7,511.3,444.9,511.8z M432,500.4
						c-1.3-0.7-3.3-0.8-5.1-0.1l5.2,3C433.1,502.1,433.5,501.2,432,500.4z M433,509.5c1.4,0.8,3.6,0.8,5.6,0l-5.5-3.2
						C432,507.5,431.5,508.6,433,509.5z"/>
				</g>
			</g>
			<ellipse id="XMLID_4613_" class="st22" cx="476.2" cy="450.2" rx="4.8" ry="2.8"/>
			<ellipse id="XMLID_4608_" class="st22" cx="527.5" cy="479.8" rx="4.8" ry="2.8"/>
			<ellipse id="XMLID_4594_" class="st22" cx="338" cy="529.9" rx="4.8" ry="2.8"/>
			<ellipse id="XMLID_4585_" class="st22" cx="389.4" cy="559.6" rx="4.8" ry="2.8"/>
		</g>
		<polygon id="XMLID_4583_" class="st21" points="327.2,535.1 327.2,529.8 389.6,565.9 389.6,571.1 		"/>
		<polygon id="XMLID_4582_" class="st24" points="538.4,479.9 538.4,485.1 389.6,571.1 389.6,565.9 		"/>
	</g>
	<g id="XMLID_4519_">
		<polygon id="XMLID_4571_" class="st21" points="476,443 538.4,479 389.6,564.9 327.2,528.9 		"/>
		<g id="XMLID_4522_">
			<polygon id="XMLID_4568_" class="st22" points="389.6,559.7 538.4,473.8 476,437.7 327.2,523.7 			"/>
			<polygon id="XMLID_4565_" class="st23" points="389.4,553.4 527.5,473.7 476.2,444 338,523.8 			"/>
			<ellipse id="XMLID_4561_" class="st22" cx="432.8" cy="498.7" rx="26.1" ry="15"/>
			<g id="XMLID_4542_">
				<g>
					<path id="XMLID_118_" class="st23" d="M444.9,505.6l-0.2,0.1c-0.8,0.5-1.6,0.4-2.5-0.1l-1.4-0.8c-3.7,1.7-8,1.8-10.8,0.2
						c-3.5-2-1.6-4.4,0.4-6.3l-5.8-3.3c-1.4,1.1-2,2.5-1.6,3.6c0,0.1-1.8,0.4-2.9-0.1c-1.3-0.7-1-2.7,1.9-4.8l-1.3-0.8
						c-1-0.6-1-1-0.2-1.4l0.2-0.1c0.8-0.4,1.5-0.4,2.5,0.1l1.4,0.8c3.5-1.5,7.6-1.5,10.2,0c3.4,1.9,1.8,4.1-0.1,5.9l6,3.5
						c1.6-1.3,2.2-2.8,1.7-4c0-0.1,1.8-0.4,2.8,0.1c1.4,0.8,1.1,3-2,5.3l1.4,0.8C445.7,504.8,445.7,505.2,444.9,505.6z M432,494.2
						c-1.3-0.7-3.3-0.8-5.1-0.1l5.2,3C433.1,496,433.5,495,432,494.2z M433,503.4c1.4,0.8,3.6,0.8,5.6,0l-5.5-3.2
						C432,501.4,431.5,502.5,433,503.4z"/>
				</g>
			</g>
			<ellipse id="XMLID_4533_" class="st22" cx="476.2" cy="444" rx="4.8" ry="2.8"/>
			<ellipse id="XMLID_4529_" class="st22" cx="527.5" cy="473.7" rx="4.8" ry="2.8"/>
			<ellipse id="XMLID_4526_" class="st22" cx="338" cy="523.8" rx="4.8" ry="2.8"/>
			<ellipse id="XMLID_4523_" class="st22" cx="389.4" cy="553.4" rx="4.8" ry="2.8"/>
		</g>
		<polygon id="XMLID_4521_" class="st21" points="327.2,528.9 327.2,523.7 389.6,559.7 389.6,564.9 		"/>
		<polygon id="XMLID_4520_" class="st24" points="538.4,473.8 538.4,479 389.6,564.9 389.6,559.7 		"/>
	</g>
	<g id="XMLID_4480_">
		<polygon id="XMLID_4516_" class="st21" points="476,436.9 538.4,472.9 389.6,558.8 327.2,522.8 		"/>
		<g id="XMLID_4483_">
			<polygon id="XMLID_4513_" class="st22" points="389.6,553.6 538.4,467.7 476,431.6 327.2,517.6 			"/>
			<polygon id="XMLID_4510_" class="st23" points="389.4,547.3 527.5,467.6 476.2,437.9 338,517.7 			"/>
			<ellipse id="XMLID_4507_" class="st22" cx="432.8" cy="492.6" rx="26.1" ry="15"/>
			<g id="XMLID_4496_">
				<g>
					<path id="XMLID_114_" class="st23" d="M444.9,499.5l-0.2,0.1c-0.8,0.5-1.6,0.4-2.5-0.1l-1.4-0.8c-3.7,1.7-8,1.8-10.8,0.2
						c-3.5-2-1.6-4.4,0.4-6.3l-5.8-3.3c-1.4,1.1-2,2.5-1.6,3.6c0,0.1-1.8,0.4-2.9-0.1c-1.3-0.7-1-2.7,1.9-4.8l-1.3-0.8
						c-1-0.6-1-1-0.2-1.4l0.2-0.1c0.8-0.4,1.5-0.4,2.5,0.1l1.4,0.8c3.5-1.5,7.6-1.5,10.2,0c3.4,1.9,1.8,4.1-0.1,5.9l6,3.5
						c1.6-1.3,2.2-2.8,1.7-4c0-0.1,1.8-0.4,2.8,0.1c1.4,0.8,1.1,3-2,5.3l1.4,0.8C445.7,498.7,445.7,499.1,444.9,499.5z M432,488.1
						c-1.3-0.7-3.3-0.8-5.1-0.1l5.2,3C433.1,489.9,433.5,488.9,432,488.1z M433,497.3c1.4,0.8,3.6,0.8,5.6,0l-5.5-3.2
						C432,495.3,431.5,496.4,433,497.3z"/>
				</g>
			</g>
			<ellipse id="XMLID_4493_" class="st22" cx="476.2" cy="437.9" rx="4.8" ry="2.8"/>
			<ellipse id="XMLID_4490_" class="st22" cx="527.5" cy="467.6" rx="4.8" ry="2.8"/>
			<ellipse id="XMLID_4487_" class="st22" cx="338" cy="517.7" rx="4.8" ry="2.8"/>
			<ellipse id="XMLID_4484_" class="st22" cx="389.4" cy="547.3" rx="4.8" ry="2.8"/>
		</g>
		<polygon id="XMLID_4482_" class="st21" points="327.2,522.8 327.2,517.6 389.6,553.6 389.6,558.8 		"/>
		<polygon id="XMLID_4481_" class="st24" points="538.4,467.7 538.4,472.9 389.6,558.8 389.6,553.6 		"/>
	</g>
	<g id="XMLID_4441_">
		<polygon id="XMLID_4477_" class="st21" points="476,430.6 538.4,466.6 389.6,552.5 327.2,516.5 		"/>
		<g id="XMLID_4444_">
			<polygon id="XMLID_4474_" class="st22" points="389.6,547.3 538.4,461.4 476,425.3 327.2,511.3 			"/>
			<polygon id="XMLID_4471_" class="st23" points="389.4,541 527.5,461.3 476.2,431.6 338,511.4 			"/>
			<ellipse id="XMLID_4468_" class="st22" cx="432.8" cy="486.3" rx="26.1" ry="15"/>
			<g id="XMLID_4457_">
				<g>
					<path id="XMLID_106_" class="st23" d="M444.9,493.2l-0.2,0.1c-0.8,0.5-1.6,0.4-2.5-0.1l-1.4-0.8c-3.7,1.7-8,1.8-10.8,0.2
						c-3.5-2-1.6-4.4,0.4-6.3l-5.8-3.3c-1.4,1.1-2,2.5-1.6,3.6c0,0.1-1.8,0.4-2.9-0.1c-1.3-0.7-1-2.7,1.9-4.8l-1.3-0.8
						c-1-0.6-1-1-0.2-1.4l0.2-0.1c0.8-0.4,1.5-0.4,2.5,0.1l1.4,0.8c3.5-1.5,7.6-1.5,10.2,0c3.4,1.9,1.8,4.1-0.1,5.9l6,3.5
						c1.6-1.3,2.2-2.8,1.7-4c0-0.1,1.8-0.4,2.8,0.1c1.4,0.8,1.1,3-2,5.3l1.4,0.8C445.7,492.4,445.7,492.8,444.9,493.2z M432,481.8
						c-1.3-0.7-3.3-0.8-5.1-0.1l5.2,3C433.1,483.5,433.5,482.6,432,481.8z M433,491c1.4,0.8,3.6,0.8,5.6,0l-5.5-3.2
						C432,489,431.5,490.1,433,491z"/>
				</g>
			</g>
			<ellipse id="XMLID_4454_" class="st22" cx="476.2" cy="431.6" rx="4.8" ry="2.8"/>
			<ellipse id="XMLID_4451_" class="st22" cx="527.5" cy="461.3" rx="4.8" ry="2.8"/>
			<ellipse id="XMLID_4448_" class="st22" cx="338" cy="511.4" rx="4.8" ry="2.8"/>
			<ellipse id="XMLID_4445_" class="st22" cx="389.4" cy="541" rx="4.8" ry="2.8"/>
		</g>
		<polygon id="XMLID_4443_" class="st21" points="327.2,516.5 327.2,511.3 389.6,547.3 389.6,552.5 		"/>
		<polygon id="XMLID_4442_" class="st24" points="538.4,461.4 538.4,466.6 389.6,552.5 389.6,547.3 		"/>
	</g>
	<g id="XMLID_4402_">
		<polygon id="XMLID_4438_" class="st21" points="476,424.3 538.4,460.3 389.6,546.3 327.2,510.3 		"/>
		<g id="XMLID_4405_">
			<polygon id="XMLID_4435_" class="st22" points="389.6,541 538.4,455.1 476,419.1 327.2,505 			"/>
			<polygon id="XMLID_4432_" class="st23" points="389.4,534.8 527.5,455 476.2,425.4 338,505.1 			"/>
			<ellipse id="XMLID_4429_" class="st22" cx="432.8" cy="480.1" rx="26.1" ry="15"/>
			<g id="XMLID_4418_">
				<g>
					<path id="XMLID_107_" class="st23" d="M444.9,487l-0.2,0.1c-0.8,0.5-1.6,0.4-2.5-0.1l-1.4-0.8c-3.7,1.7-8,1.8-10.8,0.2
						c-3.5-2-1.6-4.4,0.4-6.3l-5.8-3.3c-1.4,1.1-2,2.5-1.6,3.6c0,0.1-1.8,0.4-2.9-0.1c-1.3-0.7-1-2.7,1.9-4.8l-1.3-0.8
						c-1-0.6-1-1-0.2-1.4l0.2-0.1c0.8-0.4,1.5-0.4,2.5,0.1l1.4,0.8c3.5-1.5,7.6-1.5,10.2,0c3.4,1.9,1.8,4.1-0.1,5.9l6,3.5
						c1.6-1.3,2.2-2.8,1.7-4c0-0.1,1.8-0.4,2.8,0.1c1.4,0.8,1.1,3-2,5.3l1.4,0.8C445.7,486.1,445.7,486.5,444.9,487z M432,475.6
						c-1.3-0.7-3.3-0.8-5.1-0.1l5.2,3C433.1,477.3,433.5,476.4,432,475.6z M433,484.7c1.4,0.8,3.6,0.8,5.6,0l-5.5-3.2
						C432,482.7,431.5,483.8,433,484.7z"/>
				</g>
			</g>
			<ellipse id="XMLID_4415_" class="st22" cx="476.2" cy="425.4" rx="4.8" ry="2.8"/>
			<ellipse id="XMLID_4412_" class="st22" cx="527.5" cy="455" rx="4.8" ry="2.8"/>
			<ellipse id="XMLID_4409_" class="st22" cx="338" cy="505.1" rx="4.8" ry="2.8"/>
			<ellipse id="XMLID_4406_" class="st22" cx="389.4" cy="534.8" rx="4.8" ry="2.8"/>
		</g>
		<polygon id="XMLID_4404_" class="st21" points="327.2,510.3 327.2,505 389.6,541 389.6,546.3 		"/>
		<polygon id="XMLID_4403_" class="st24" points="538.4,455.1 538.4,460.3 389.6,546.3 389.6,541 		"/>
	</g>
	<g id="XMLID_4363_">
		<polygon id="XMLID_4399_" class="st21" points="476,418.1 538.4,454.1 389.6,540 327.2,504 		"/>
		<g id="XMLID_4366_">
			<polygon id="XMLID_4396_" class="st22" points="389.6,534.8 538.4,448.8 476,412.8 327.2,498.8 			"/>
			<polygon id="XMLID_4393_" class="st23" points="389.4,528.5 527.5,448.7 476.2,419.1 338,498.9 			"/>
			<ellipse id="XMLID_4390_" class="st22" cx="432.8" cy="473.8" rx="26.1" ry="15"/>
			<g id="XMLID_4379_">
				<g>
					<path id="XMLID_120_" class="st23" d="M444.9,480.7l-0.2,0.1c-0.8,0.5-1.6,0.4-2.5-0.1l-1.4-0.8c-3.7,1.7-8,1.8-10.8,0.2
						c-3.5-2-1.6-4.4,0.4-6.3l-5.8-3.3c-1.4,1.1-2,2.5-1.6,3.6c0,0.1-1.8,0.4-2.9-0.1c-1.3-0.7-1-2.7,1.9-4.8l-1.3-0.8
						c-1-0.6-1-1-0.2-1.4l0.2-0.1c0.8-0.4,1.5-0.4,2.5,0.1l1.4,0.8c3.5-1.5,7.6-1.5,10.2,0c3.4,1.9,1.8,4.1-0.1,5.9l6,3.5
						c1.6-1.3,2.2-2.8,1.7-4c0-0.1,1.8-0.4,2.8,0.1c1.4,0.8,1.1,3-2,5.3l1.4,0.8C445.7,479.8,445.7,480.2,444.9,480.7z M432,469.3
						c-1.3-0.7-3.3-0.8-5.1-0.1l5.2,3C433.1,471,433.5,470.1,432,469.3z M433,478.4c1.4,0.8,3.6,0.8,5.6,0l-5.5-3.2
						C432,476.5,431.5,477.6,433,478.4z"/>
				</g>
			</g>
			<ellipse id="XMLID_4376_" class="st22" cx="476.2" cy="419.1" rx="4.8" ry="2.8"/>
			<ellipse id="XMLID_4373_" class="st22" cx="527.5" cy="448.7" rx="4.8" ry="2.8"/>
			<ellipse id="XMLID_4370_" class="st22" cx="338" cy="498.9" rx="4.8" ry="2.8"/>
			<ellipse id="XMLID_4367_" class="st22" cx="389.4" cy="528.5" rx="4.8" ry="2.8"/>
		</g>
		<polygon id="XMLID_4365_" class="st21" points="327.2,504 327.2,498.8 389.6,534.8 389.6,540 		"/>
		<polygon id="XMLID_4364_" class="st24" points="538.4,448.8 538.4,454.1 389.6,540 389.6,534.8 		"/>
	</g>
	<g id="XMLID_4324_">
		<polygon id="XMLID_4360_" class="st21" points="476,411.8 538.4,447.8 389.6,533.8 327.2,497.7 		"/>
		<g id="XMLID_4327_">
			<polygon id="XMLID_4357_" class="st22" points="389.6,528.5 538.4,442.6 476,406.6 327.2,492.5 			"/>
			<polygon id="XMLID_4354_" class="st23" points="389.4,522.3 527.5,442.5 476.2,412.8 338,492.6 			"/>
			<ellipse id="XMLID_4351_" class="st22" cx="432.8" cy="467.5" rx="26.1" ry="15"/>
			<g id="XMLID_4340_">
				<g>
					<path id="XMLID_135_" class="st23" d="M444.9,474.4l-0.2,0.1c-0.8,0.5-1.6,0.4-2.5-0.1l-1.4-0.8c-3.7,1.7-8,1.8-10.8,0.2
						c-3.5-2-1.6-4.4,0.4-6.3l-5.8-3.3c-1.4,1.1-2,2.5-1.6,3.6c0,0.1-1.8,0.4-2.9-0.1c-1.3-0.7-1-2.7,1.9-4.8l-1.3-0.8
						c-1-0.6-1-1-0.2-1.4l0.2-0.1c0.8-0.4,1.5-0.4,2.5,0.1l1.4,0.8c3.5-1.5,7.6-1.5,10.2,0c3.4,1.9,1.8,4.1-0.1,5.9l6,3.5
						c1.6-1.3,2.2-2.8,1.7-4c0-0.1,1.8-0.4,2.8,0.1c1.4,0.8,1.1,3-2,5.3l1.4,0.8C445.7,473.6,445.7,474,444.9,474.4z M432,463
						c-1.3-0.7-3.3-0.8-5.1-0.1l5.2,3C433.1,464.8,433.5,463.9,432,463z M433,472.2c1.4,0.8,3.6,0.8,5.6,0l-5.5-3.2
						C432,470.2,431.5,471.3,433,472.2z"/>
				</g>
			</g>
			<ellipse id="XMLID_4337_" class="st22" cx="476.2" cy="412.8" rx="4.8" ry="2.8"/>
			<ellipse id="XMLID_4334_" class="st22" cx="527.5" cy="442.5" rx="4.8" ry="2.8"/>
			<ellipse id="XMLID_4331_" class="st22" cx="338" cy="492.6" rx="4.8" ry="2.8"/>
			<ellipse id="XMLID_4328_" class="st22" cx="389.4" cy="522.3" rx="4.8" ry="2.8"/>
		</g>
		<polygon id="XMLID_4326_" class="st21" points="327.2,497.7 327.2,492.5 389.6,528.5 389.6,533.8 		"/>
		<polygon id="XMLID_4325_" class="st24" points="538.4,442.6 538.4,447.8 389.6,533.8 389.6,528.5 		"/>
	</g>
	<g id="XMLID_3005_">
		<polygon id="XMLID_4321_" class="st21" points="476,405.2 538.4,441.2 389.6,527.2 327.2,491.2 		"/>
		<g id="XMLID_3008_">
			<polygon id="XMLID_4318_" class="st22" points="389.6,521.9 538.4,436 476,400 327.2,485.9 			"/>
			<polygon id="XMLID_4315_" class="st23" points="389.4,515.7 527.5,435.9 476.2,406.2 338,486 			"/>
			<ellipse id="XMLID_4312_" class="st22" cx="432.8" cy="461" rx="26.1" ry="15"/>
			<g id="XMLID_4301_">
				<g>
					<path id="XMLID_130_" class="st23" d="M444.9,467.9l-0.2,0.1c-0.8,0.5-1.6,0.4-2.5-0.1l-1.4-0.8c-3.7,1.7-8,1.8-10.8,0.2
						c-3.5-2-1.6-4.4,0.4-6.3l-5.8-3.3c-1.4,1.1-2,2.5-1.6,3.6c0,0.1-1.8,0.4-2.9-0.1c-1.3-0.7-1-2.7,1.9-4.8l-1.3-0.8
						c-1-0.6-1-1-0.2-1.4l0.2-0.1c0.8-0.4,1.5-0.4,2.5,0.1l1.4,0.8c3.5-1.5,7.6-1.5,10.2,0c3.4,1.9,1.8,4.1-0.1,5.9l6,3.5
						c1.6-1.3,2.2-2.8,1.7-4c0-0.1,1.8-0.4,2.8,0.1c1.4,0.8,1.1,3-2,5.3l1.4,0.8C445.7,467,445.7,467.4,444.9,467.9z M432,456.4
						c-1.3-0.7-3.3-0.8-5.1-0.1l5.2,3C433.1,458.2,433.5,457.3,432,456.4z M433,465.6c1.4,0.8,3.6,0.8,5.6,0l-5.5-3.2
						C432,463.6,431.5,464.7,433,465.6z"/>
				</g>
			</g>
			<ellipse id="XMLID_4298_" class="st22" cx="476.2" cy="406.2" rx="4.8" ry="2.8"/>
			<ellipse id="XMLID_4295_" class="st22" cx="527.5" cy="435.9" rx="4.8" ry="2.8"/>
			<ellipse id="XMLID_4265_" class="st22" cx="338" cy="486" rx="4.8" ry="2.8"/>
			<ellipse id="XMLID_3009_" class="st22" cx="389.4" cy="515.7" rx="4.8" ry="2.8"/>
		</g>
		<polygon id="XMLID_3007_" class="st21" points="327.2,491.2 327.2,485.9 389.6,521.9 389.6,527.2 		"/>
		<polygon id="XMLID_3006_" class="st24" points="538.4,436 538.4,441.2 389.6,527.2 389.6,521.9 		"/>
	</g>
</g>
<polyline class="st25" points="454.2,103.7 506.9,135 506.9,408.3 "/>
<line class="st25" x1="456.2" y1="168.2" x2="497.2" y2="193.5"/>
<line class="st25" x1="456.2" y1="230.6" x2="497.2" y2="256"/>
<line class="st25" x1="456.2" y1="295.1" x2="497.2" y2="320.4"/>
<line class="st25" x1="385.9" y1="72.5" x2="323.4" y2="39.3"/>
<line class="st25" x1="385.9" y1="136.9" x2="323.4" y2="103.7"/>
<line class="st25" x1="385.9" y1="191.6" x2="323.4" y2="158.4"/>
<line class="st25" x1="385.9" y1="256" x2="323.4" y2="222.8"/>
</svg>
