<svg xmlns="http://www.w3.org/2000/svg" viewBox="0 0 1363.01 1315.54"><defs><style>.cls-1,.cls-4{fill:#e0e0e0;}.cls-2{fill:#bdbdbd;}.cls-3{fill:#757575;}.cls-4{stroke:#bdbdbd;stroke-width:1.12px;}.cls-10,.cls-11,.cls-12,.cls-14,.cls-15,.cls-17,.cls-4,.cls-5{stroke-miterlimit:10;}.cls-5,.cls-6{fill:#212121;}.cls-5{stroke:#e0e0e0;stroke-width:2.24px;}.cls-7{fill:#f5f5f5;}.cls-8{fill:#e3b319;}.cls-9{fill:#fecf37;}.cls-10,.cls-11,.cls-12,.cls-14,.cls-21,.cls-28{fill:none;}.cls-10{stroke:#b89114;}.cls-10,.cls-11{stroke-width:19.03px;}.cls-11{stroke:#feffd1;}.cls-12,.cls-17{stroke:#febc37;}.cls-12,.cls-14,.cls-15,.cls-17{stroke-linecap:round;}.cls-12,.cls-14,.cls-17{stroke-width:3px;}.cls-12,.cls-14{stroke-dasharray:5 10;}.cls-13{fill:#febc37;}.cls-14,.cls-15,.cls-28{stroke:#89e8a7;}.cls-15,.cls-17,.cls-29{fill:#fff;}.cls-15{stroke-width:3.37px;}.cls-16{fill:#89e8a7;}.cls-18{fill:#fed537;}.cls-19{fill:#fe9237;}.cls-20{fill:#fe7637;}.cls-21{stroke:#fe7137;}.cls-21,.cls-28{stroke-linejoin:round;stroke-width:1.4px;}.cls-22{fill:#feffd1;}.cls-23{fill:#78cc93;}.cls-24{fill:#ffb74d;}.cls-25{fill:#c7ffd9;}.cls-26{fill:#93f0b0;}.cls-27{fill:#acf4c3;}</style></defs><title>Boid_04 Process</title><g id="Layer_5" data-name="Layer 5"><path class="cls-1" d="M1121.19,1130h-879c-8.39,0-14-10-9.55-17.17l76.69-124.47h743.16l77.78,124.47C1134.69,1119.94,1129.58,1130,1121.19,1130Z"/><path class="cls-2" d="M1121.19,1130h-879a11.51,11.51,0,0,1-10.78-7.36h.36l8.16,26.23a12.4,12.4,0,0,0,11.85,8.72h859.4a12.4,12.4,0,0,0,11.85-8.72l7.92-25.45A10.48,10.48,0,0,1,1121.19,1130Z"/><path class="cls-3" d="M753.43,1130a12.87,12.87,0,0,1-12.87,12.87H622.39A12.88,12.88,0,0,1,609.51,1130Z"/><path class="cls-4" d="M811.66,1110.84l-6.36-27.91a8.11,8.11,0,0,0-7.91-6.32H565.55a8.11,8.11,0,0,0-7.91,6.32l-6.35,27.91a8.11,8.11,0,0,0,7.91,9.92H803.74A8.12,8.12,0,0,0,811.66,1110.84Z"/><polygon class="cls-5" points="1025.34 1018.67 337.61 1018.67 329.99 1031.54 1032.95 1031.54 1025.34 1018.67"/><polygon class="cls-5" points="1017.72 1005.79 345.22 1005.79 337.61 1018.67 1025.34 1018.67 1017.72 1005.79"/><polygon class="cls-5" points="350.85 996.59 345.56 1005.79 1017.38 1005.79 1012.09 996.59 350.85 996.59"/><polygon class="cls-5" points="315.02 1057.47 307.29 1070.17 1055.54 1070.17 1047.82 1057.3 315.02 1057.47"/><polygon class="cls-5" points="1032.95 1031.54 329.99 1031.54 322.37 1044.42 1040.57 1044.42 1032.95 1031.54"/><polygon class="cls-5" points="1040.21 1044.42 322.73 1044.42 315.02 1057.3 1047.82 1057.12 1040.21 1044.42"/><line class="cls-5" x1="954.11" y1="1018.47" x2="949.08" y2="1005.61"/><line class="cls-5" x1="906.71" y1="1018.47" x2="902.66" y2="1005.61"/><line class="cls-5" x1="859.31" y1="1018.47" x2="856.24" y2="1005.61"/><line class="cls-5" x1="811.92" y1="1018.47" x2="809.81" y2="1005.61"/><line class="cls-5" x1="764.52" y1="1018.47" x2="763.39" y2="1005.61"/><line class="cls-5" x1="716.8" y1="1017.75" x2="716.63" y2="1004.87"/><line class="cls-5" x1="669.73" y1="1018.47" x2="670.54" y2="1005.61"/><line class="cls-5" x1="622.33" y1="1018.47" x2="624.11" y2="1005.61"/><line class="cls-5" x1="574.94" y1="1018.47" x2="577.69" y2="1005.61"/><line class="cls-5" x1="527.54" y1="1018.47" x2="531.26" y2="1005.61"/><line class="cls-5" x1="480.14" y1="1018.47" x2="484.84" y2="1005.61"/><line class="cls-5" x1="432.75" y1="1018.47" x2="438.41" y2="1005.61"/><line class="cls-5" x1="385.35" y1="1018.47" x2="391.99" y2="1005.61"/><line class="cls-5" x1="345.56" y1="1005.61" x2="337.95" y2="1018.47"/><line class="cls-5" x1="418.49" y1="1057.06" x2="424.83" y2="1044.2"/><line class="cls-5" x1="469.63" y1="1057.06" x2="474.71" y2="1044.2"/><line class="cls-5" x1="520.78" y1="1057.06" x2="524.58" y2="1044.2"/><line class="cls-5" x1="571.93" y1="1057.06" x2="574.46" y2="1044.2"/><line class="cls-5" x1="623.07" y1="1057.06" x2="624.34" y2="1044.2"/><line class="cls-5" x1="674.49" y1="1056.38" x2="674.49" y2="1043.5"/><line class="cls-5" x1="725.36" y1="1057.06" x2="724.1" y2="1044.2"/><line class="cls-5" x1="776.51" y1="1057.06" x2="773.97" y2="1044.2"/><line class="cls-5" x1="827.66" y1="1057.06" x2="823.85" y2="1044.2"/><line class="cls-5" x1="878.8" y1="1057.06" x2="873.73" y2="1044.2"/><line class="cls-5" x1="929.95" y1="1057.06" x2="923.61" y2="1044.2"/><line class="cls-5" x1="349.29" y1="999.31" x2="345.56" y2="1005.61"/><line class="cls-5" x1="397.73" y1="997.37" x2="393.55" y2="1005.61"/><line class="cls-5" x1="445.32" y1="996.67" x2="441.54" y2="1005.61"/><line class="cls-5" x1="492.55" y1="996.67" x2="489.52" y2="1005.61"/><line class="cls-5" x1="539.78" y1="996.67" x2="537.51" y2="1005.61"/><line class="cls-5" x1="587.01" y1="996.67" x2="585.5" y2="1005.61"/><line class="cls-5" x1="634.24" y1="996.67" x2="633.48" y2="1005.61"/><line class="cls-5" x1="681.85" y1="997.51" x2="681.85" y2="1004.87"/><line class="cls-5" x1="728.66" y1="996.15" x2="729.46" y2="1005.61"/><line class="cls-5" x1="775.93" y1="996.67" x2="777.44" y2="1005.61"/><line class="cls-5" x1="823.16" y1="996.67" x2="825.43" y2="1005.61"/><line class="cls-5" x1="870.39" y1="996.67" x2="873.42" y2="1005.61"/><line class="cls-5" x1="917.63" y1="996.67" x2="921.4" y2="1005.61"/><line class="cls-5" x1="964.86" y1="996.67" x2="969.39" y2="1005.61"/><line class="cls-5" x1="1017.38" y1="1005.61" x2="1013.65" y2="999.31"/><line class="cls-5" x1="399.36" y1="1031.34" x2="404.54" y2="1018.47"/><line class="cls-5" x1="448.07" y1="1031.34" x2="452.26" y2="1018.47"/><line class="cls-5" x1="496.78" y1="1031.34" x2="499.99" y2="1018.47"/><line class="cls-5" x1="545.49" y1="1031.34" x2="547.72" y2="1018.47"/><line class="cls-5" x1="594.2" y1="1031.34" x2="595.45" y2="1018.47"/><line class="cls-5" x1="642.91" y1="1031.34" x2="643.17" y2="1018.47"/><line class="cls-5" x1="691.62" y1="1031.34" x2="690.9" y2="1018.47"/><line class="cls-5" x1="740.34" y1="1031.34" x2="738.63" y2="1018.47"/><line class="cls-5" x1="789.05" y1="1031.34" x2="786.35" y2="1018.47"/><line class="cls-5" x1="837.76" y1="1031.34" x2="834.08" y2="1018.47"/><line class="cls-5" x1="886.47" y1="1031.34" x2="881.81" y2="1018.47"/><line class="cls-5" x1="935.18" y1="1031.34" x2="929.53" y2="1018.47"/><line class="cls-5" x1="983.89" y1="1031.34" x2="977.26" y2="1018.47"/><line class="cls-5" x1="1032.6" y1="1031.34" x2="1024.99" y2="1018.47"/><line class="cls-5" x1="1040.21" y1="1044.2" x2="1032.6" y2="1031.34"/><line class="cls-5" x1="944.55" y1="1044.2" x2="938.97" y2="1031.34"/><line class="cls-5" x1="896.71" y1="1044.2" x2="892.15" y2="1031.34"/><line class="cls-5" x1="848.88" y1="1044.2" x2="845.33" y2="1031.34"/><line class="cls-5" x1="801.05" y1="1044.2" x2="798.51" y2="1031.34"/><line class="cls-5" x1="753.22" y1="1044.2" x2="751.7" y2="1031.34"/><line class="cls-5" x1="705.39" y1="1044.2" x2="704.88" y2="1031.34"/><line class="cls-5" x1="657.56" y1="1044.2" x2="658.06" y2="1031.34"/><line class="cls-5" x1="609.72" y1="1044.2" x2="611.25" y2="1031.34"/><line class="cls-5" x1="561.89" y1="1044.2" x2="564.43" y2="1031.34"/><line class="cls-5" x1="514.06" y1="1044.2" x2="517.61" y2="1031.34"/><line class="cls-5" x1="466.23" y1="1044.2" x2="470.79" y2="1031.34"/><line class="cls-5" x1="418.4" y1="1044.2" x2="423.98" y2="1031.34"/><line class="cls-5" x1="330.34" y1="1031.34" x2="322.73" y2="1044.2"/><line class="cls-5" x1="315.02" y1="1057.24" x2="307.51" y2="1069.93"/><line class="cls-5" x1="360.93" y1="1069.93" x2="367.46" y2="1057.06"/><line class="cls-5" x1="414.36" y1="1069.93" x2="419.79" y2="1057.06"/><line class="cls-5" x1="467.78" y1="1069.93" x2="472.13" y2="1057.06"/><line class="cls-5" x1="521.2" y1="1069.93" x2="524.46" y2="1057.06"/><line class="cls-5" x1="788.32" y1="1069.93" x2="786.14" y2="1057.06"/><line class="cls-5" x1="841.74" y1="1069.93" x2="838.48" y2="1057.06"/><line class="cls-5" x1="895.16" y1="1069.93" x2="890.81" y2="1057.06"/><line class="cls-5" x1="948.59" y1="1069.93" x2="943.15" y2="1057.06"/><line class="cls-5" x1="1002.01" y1="1069.93" x2="995.48" y2="1057.06"/><line class="cls-5" x1="1055.43" y1="1069.93" x2="1047.82" y2="1057.06"/><path class="cls-6" d="M1052.51,988.32V520.66a19.81,19.81,0,0,0-19.81-19.81H329.16a19.81,19.81,0,0,0-19.81,19.81V988.32Z"/><rect class="cls-7" x="340.62" y="532.12" width="682.46" height="423.09"/><polygon class="cls-8" points="878.13 627.89 865.93 627.89 788.32 666.71 788.32 754.92 863.98 793.75 876.18 793.75 955.74 754.92 955.74 666.46 878.13 627.89"/><polygon class="cls-9" points="879.18 627.89 801.57 666.71 801.57 754.92 877.23 793.75 956.8 754.92 956.8 666.46 879.18 627.89"/><path class="cls-8" d="M879.19,633.26,952,669.43v82.49l-74.71,36.46L806.37,752V669.68l72.82-36.42m0-5.37-77.61,38.82v88.21l75.66,38.83,79.57-38.83V666.46l-77.62-38.57Z"/><polygon class="cls-9" points="879.93 627.89 802.32 666.71 802.32 754.92 877.98 793.75 957.55 754.92 957.55 666.46 879.93 627.89"/><path class="cls-8" d="M879.94,633.26l72.81,36.17v82.49L878,788.38,807.12,752V669.68l72.82-36.42m0-5.37-77.61,38.82v88.21L878,793.75l79.57-38.83V666.46l-77.62-38.57Z"/><path class="cls-10" d="M887.76,669.08a42.31,42.31,0,1,1-6.77-.54,43.15,43.15,0,0,1,6.77.54"/><path class="cls-11" d="M838.71,710.82A42.28,42.28,0,0,1,881,668.54"/><path class="cls-11" d="M887.76,669.08A42.25,42.25,0,1,1,840,700.3"/><polygon class="cls-9" points="681.85 627.89 604.23 666.71 604.23 754.92 679.9 793.75 759.46 754.92 759.46 666.46 681.85 627.89"/><path class="cls-8" d="M681.85,633.26l72.81,36.17v82.49L680,788.38,609,752V669.68l72.82-36.42m0-5.37-77.62,38.82v88.21l75.67,38.83,79.56-38.83V666.46l-77.61-38.57Z"/><path class="cls-12" d="M191.56,132.45c1.94,136,35.47,232.74,75.82,300.22,32.81,54.87,75.9,95.92,110,122.86"/><path class="cls-12" d="M345.79,480.31a467.34,467.34,0,0,0,36.76,40.24"/><path class="cls-12" d="M241,206.67q2.94,27,7.57,51.64"/><path class="cls-12" d="M239.88,195.27q.54,5.76,1.15,11.4"/><path class="cls-12" d="M276.78,494.46a488.63,488.63,0,0,0,51.29,50.12"/><path class="cls-12" d="M157.28,174.45a703.63,703.63,0,0,0,11.92,91.92"/><path class="cls-13" d="M408.37,578.6a3.46,3.46,0,0,1-4,4.49l-17.76-3.63-17.75-3.63a3.45,3.45,0,0,1-1.89-5.68l12-13.56L391,543a3.45,3.45,0,0,1,5.87,1.2l5.73,17.18Z"/><path class="cls-14" d="M935.73,583.16c1.94-136,35.47-232.74,75.82-300.22,32.81-54.87,75.9-95.92,110-122.86"/><path class="cls-14" d="M1090,235.3a467.34,467.34,0,0,1,36.76-40.24"/><path class="cls-14" d="M985.2,508.94q2.94-27,7.57-51.64"/><path class="cls-12" d="M984.05,520.34q.54-5.76,1.15-11.4"/><path class="cls-14" d="M1021,221.15A488.63,488.63,0,0,1,1072.24,171"/><path class="cls-14" d="M901.45,541.16a703.63,703.63,0,0,1,11.92-91.92"/><circle class="cls-15" cx="979.69" cy="344.35" r="81.74"/><path class="cls-16" d="M1152.54,137a3.46,3.46,0,0,0-4-4.49l-17.76,3.63-17.75,3.63a3.45,3.45,0,0,0-1.89,5.68l12,13.56,12,13.56a3.46,3.46,0,0,0,5.87-1.2l5.74-17.19Z"/><circle class="cls-17" cx="235.52" cy="371.26" r="81.74"/><polygon class="cls-18" points="230.82 316.74 254.07 322.05 211.9 347.77 188.65 342.45 230.82 316.74"/><polygon class="cls-19" points="184.81 397.8 188.65 342.45 211.9 347.77 208.06 403.12 184.81 397.8"/><polygon class="cls-20" points="224.81 418.11 184.81 397.8 208.06 403.12 247.9 425.79 224.81 418.11"/><polygon class="cls-13" points="254.07 322.05 292.89 344.75 289.06 399.94 247.9 425.79 208.06 403.12 211.9 347.77 254.07 322.05"/><polygon class="cls-21" points="254.07 322.05 292.89 344.75 289.06 399.94 247.9 425.79 208.06 403.12 211.9 347.77 254.07 322.05"/><polygon class="cls-21" points="188.65 342.45 230.82 316.74 254.07 322.05 254.07 322.05 292.89 344.75 289.06 399.94 247.9 425.79 224.81 418.11 184.81 397.8 188.65 342.45 188.65 342.45"/><path class="cls-22" d="M241.45,384.59a15.72,15.72,0,0,1,1.12-5,14.4,14.4,0,0,1,2.85-4.25q2.88-3.13,5.26-5.51c1.6-1.58,3-3.05,4.15-4.38a28.48,28.48,0,0,0,2.77-3.68,7.29,7.29,0,0,0,1.13-3.27c.14-2.09-.4-3.58-1.64-4.47a5.9,5.9,0,0,0-4.84-.7,12.3,12.3,0,0,0-7.05,3.92,12.82,12.82,0,0,0-3.06,6.54L227.38,366A29.88,29.88,0,0,1,236,349.08a33.61,33.61,0,0,1,16.93-8.78,27.2,27.2,0,0,1,8.24-.58,15.33,15.33,0,0,1,6.64,2.09,11.25,11.25,0,0,1,4.31,4.88,15.38,15.38,0,0,1,1.17,7.7,22.41,22.41,0,0,1-.92,5.1,21,21,0,0,1-2.28,4.83,39.18,39.18,0,0,1-4,5.19q-2.43,2.7-6.07,6.1a14.53,14.53,0,0,0-3.21,3.95,8.84,8.84,0,0,0-1,3.39l-.2,2.76-14.44,3.06Zm-2.9,18.56a10.7,10.7,0,0,1,.91-3.55,12.69,12.69,0,0,1,5-5.65,11.62,11.62,0,0,1,3.52-1.4,8.43,8.43,0,0,1,3.42-.07,6,6,0,0,1,2.71,1.24,5.68,5.68,0,0,1,1.68,2.4,7.58,7.58,0,0,1,.44,3.27,10.28,10.28,0,0,1-.91,3.57,12.31,12.31,0,0,1-2.07,3.19,12.77,12.77,0,0,1-3,2.45,11.08,11.08,0,0,1-3.51,1.4,8.63,8.63,0,0,1-3.42.08,6.06,6.06,0,0,1-2.71-1.25,5.73,5.73,0,0,1-1.69-2.4A7.76,7.76,0,0,1,238.55,403.15Z"/></g><g id="Layer_2" data-name="Layer 2"><polygon class="cls-8" points="485.71 627.89 473.52 627.89 395.9 666.71 395.9 754.92 471.57 793.75 483.76 793.75 563.33 754.92 563.33 666.46 485.71 627.89"/><polygon class="cls-9" points="486.77 627.89 409.15 666.71 409.15 754.92 484.82 793.75 564.38 754.92 564.38 666.46 486.77 627.89"/><path class="cls-8" d="M486.78,633.26l72.8,36.17v82.49l-74.71,36.46L414,752V669.68l72.83-36.42m0-5.37-77.62,38.82v88.21l75.67,38.83,79.56-38.83V666.46l-77.61-38.57Z"/><polygon class="cls-8" points="680.06 627.89 667.87 627.89 590.25 666.71 590.25 754.92 665.92 793.75 678.11 793.75 757.67 754.92 757.67 666.46 680.06 627.89"/><polygon class="cls-9" points="681.12 627.89 603.5 666.71 603.5 754.92 679.17 793.75 758.73 754.92 758.73 666.46 681.12 627.89"/><path class="cls-8" d="M681.12,633.26l72.81,36.17v82.49l-74.71,36.46L608.3,752V669.68l72.82-36.42m0-5.37L603.5,666.71v88.21l75.67,38.83,79.56-38.83V666.46l-77.62-38.57Z"/><polygon class="cls-8" points="395.9 666.71 413.37 669.08 413.37 751.24 395.9 754.92 395.9 666.71"/><path class="cls-10" d="M689.68,669.08a42.31,42.31,0,1,1-6.78-.54,43.28,43.28,0,0,1,6.78.54"/><path class="cls-11" d="M689.68,669.08a42.28,42.28,0,1,1-39.33,68.72"/><path class="cls-10" d="M491.59,669.08a42.31,42.31,0,1,1-6.77-.54,43.05,43.05,0,0,1,6.77.54"/><path class="cls-11" d="M491.59,669.08a42.32,42.32,0,0,1,34,30.55"/><rect class="cls-6" x="418.03" y="817.85" width="131.46" height="9.56"/><path class="cls-23" d="M548.91,818.43v8.39H418.62v-8.39H548.91m1.17-1.16H417.45V828H550.08V817.27Z"/><rect class="cls-16" x="418.62" y="818.43" width="18.22" height="8.39"/><rect class="cls-6" x="615.2" y="817.85" width="131.47" height="9.56"/><path class="cls-23" d="M746.08,818.43v8.39H615.78v-8.39h130.3m1.16-1.16H614.61V828H747.24V817.27Z"/><rect class="cls-16" x="615.78" y="818.43" width="78.22" height="8.39"/><rect class="cls-6" x="812.36" y="817.85" width="131.46" height="9.56"/><path class="cls-23" d="M943.24,818.43v8.39H812.94v-8.39h130.3m1.17-1.16H811.78V828H944.41V817.27Z"/><rect class="cls-16" x="812.94" y="818.43" width="119.22" height="8.39"/><path class="cls-24" d="M698.47,875.17l-13,1.59,9.28-26.17c.95-2.65.92-3.48.59-4a.93.93,0,0,0-.77-.39c-.27,0-1.07,0-3.13,2.81l-29.34,39.62a1.52,1.52,0,0,0,1.29,2.32L675,889.93l-10.85,27.7a1.5,1.5,0,0,0,.65,1.87,1.49,1.49,0,0,0,.77.21,1.54,1.54,0,0,0,1.19-.56l32.91-41.49a1.52,1.52,0,0,0,.21-1.62A1.54,1.54,0,0,0,698.47,875.17Z"/><path class="cls-9" d="M699.86,876a1.54,1.54,0,0,0-1.39-.87l-13,1.59,9.28-26.17c.95-2.65.92-3.48.59-4a.93.93,0,0,0-.77-.39L674.74,883l12.48-2.47a2.15,2.15,0,0,1,2.18,3.33l-24.76,35.58.14.09a1.49,1.49,0,0,0,.77.21,1.54,1.54,0,0,0,1.19-.56l32.91-41.49A1.52,1.52,0,0,0,699.86,876Z"/><path class="cls-24" d="M895.64,875.17l-13,1.59,9.29-26.17c.94-2.65.92-3.48.58-4a.93.93,0,0,0-.77-.39c-.26,0-1.06,0-3.12,2.81l-29.35,39.62a1.56,1.56,0,0,0,0,1.58,1.54,1.54,0,0,0,1.31.74l11.6-1.06-10.85,27.7a1.52,1.52,0,0,0,.65,1.87,1.49,1.49,0,0,0,.77.21,1.54,1.54,0,0,0,1.19-.56l32.91-41.49a1.52,1.52,0,0,0-1.17-2.49Z"/><path class="cls-9" d="M897,876a1.53,1.53,0,0,0-1.38-.87l-13,1.59,9.29-26.17c.94-2.65.92-3.48.58-4a.93.93,0,0,0-.77-.39L871.91,883l12.48-2.47a2.14,2.14,0,0,1,2.17,3.33L861.8,919.41l.14.09a1.49,1.49,0,0,0,.77.21,1.54,1.54,0,0,0,1.19-.56l32.91-41.49A1.52,1.52,0,0,0,897,876Z"/><path class="cls-24" d="M497.69,875.17l-13,1.59L494,850.59c.94-2.65.92-3.48.58-4a.93.93,0,0,0-.77-.39c-.26,0-1.06,0-3.12,2.81l-29.35,39.62a1.56,1.56,0,0,0,0,1.58,1.54,1.54,0,0,0,1.31.74l11.6-1.06-10.85,27.7a1.53,1.53,0,0,0,2.61,1.52l32.91-41.49a1.52,1.52,0,0,0-1.17-2.49Z"/><path class="cls-9" d="M499.07,876a1.53,1.53,0,0,0-1.38-.87l-13,1.59L494,850.59c.94-2.65.92-3.48.58-4a.93.93,0,0,0-.77-.39L474,883l12.48-2.47a2.14,2.14,0,0,1,2.17,3.33l-24.76,35.58.14.09a1.51,1.51,0,0,0,.77.21,1.54,1.54,0,0,0,1.19-.56l32.91-41.49A1.52,1.52,0,0,0,499.07,876Z"/><polygon class="cls-25" points="987.72 287.93 964.47 293.24 1006.64 318.96 1029.89 313.65 987.72 287.93"/><polygon class="cls-26" points="1033.73 369 1029.89 313.65 1006.64 318.96 1010.48 374.31 1033.73 369"/><polygon class="cls-16" points="993.73 389.3 1033.73 369 1010.48 374.31 970.64 396.98 993.73 389.3"/><polygon class="cls-27" points="964.47 293.24 925.65 315.94 929.48 371.14 970.64 396.98 1010.48 374.31 1006.64 318.96 964.47 293.24"/><polygon class="cls-28" points="964.47 293.24 925.65 315.94 929.48 371.14 970.64 396.98 1010.48 374.31 1006.64 318.96 964.47 293.24"/><polygon class="cls-28" points="1029.89 313.65 987.72 287.93 964.47 293.24 964.47 293.24 925.65 315.94 929.48 371.14 970.64 396.98 993.73 389.3 1033.73 369 1029.89 313.65 1029.89 313.65"/><g id="NNaDqx.tif"><path class="cls-29" d="M997.32,331.05c-.32.34-.67.64-1,1l-32,42.27c-.26.34-.54.65-.87,1.06q-12.45-11.89-24.66-23.6L947.2,341l14.38,13.45C970,343.18,978.46,332,987,320.68l10.32,10.09Z"/></g></g></svg>