<?xml version="1.0" encoding="utf-8"?>
<!-- Generator: Adobe Illustrator 19.2.1, SVG Export Plug-In . SVG Version: 6.00 Build 0)  -->
<svg version="1.1" id="XMLID_2_" xmlns="http://www.w3.org/2000/svg" xmlns:xlink="http://www.w3.org/1999/xlink" x="0px" y="0px"
	 viewBox="0 0 64 64" enable-background="new 0 0 64 64" xml:space="preserve">
<g id="flat-icon-141">
	<g>
		<circle fill="#CDDCF0" cx="32.2359" cy="32.0448" r="26"/>
		<circle fill="#A5BEE2" cx="18.2359" cy="32.0448" r="6"/>
		<circle fill="#A5BEE2" cx="32.2359" cy="32.0448" r="14"/>
		<circle fill="#CDDCF0" cx="50.2359" cy="14.0448" r="8"/>
		<path fill="#A5BEE2" d="M50.2359,22.0448c1.9519,0,3.7166-0.7268,5.1052-1.8881c-2.4796-4.8092-6.408-8.7377-11.2172-11.2173
			c-1.1614,1.3887-1.8881,3.1534-1.8881,5.1053C42.2359,18.463,45.8176,22.0448,50.2359,22.0448z"/>
		<path fill="#85A4D4" d="M24.2359,32.0448c0-2.8683-2.016-5.2588-4.7061-5.8517c-0.8225,1.7823-1.2939,3.7598-1.2939,5.8517
			c0,2.0918,0.4714,4.0692,1.2939,5.8517C22.2199,37.3036,24.2359,34.9131,24.2359,32.0448z"/>
	</g>
	<g>
		<path fill="#85A4D4" d="M32.2359,34.0448c-0.5117,0-1.0234-0.1953-1.4141-0.5859c-0.7812-0.7812-0.7812-2.0469,0-2.8281l18-18
			c0.7812-0.7812,2.0469-0.7812,2.8281,0s0.7812,2.0469,0,2.8281l-18,18C33.2593,33.8495,32.7476,34.0448,32.2359,34.0448z"/>
	</g>
	<path fill="#6C8EC7" d="M40.609,20.8437l-9.7871,9.7871c-0.7812,0.7812-0.7812,2.0469,0,2.8281
		c0.3906,0.3906,0.9023,0.5859,1.4141,0.5859s1.0234-0.1953,1.4141-0.5859l9.7871-9.7871
		C42.6335,22.5987,41.6822,21.6471,40.609,20.8437z"/>
	<path fill="#6C8EC7" d="M51.904,15.0764c-0.8328-0.9646-1.735-1.8669-2.6996-2.6998c-0.1302,0.0803-0.2697,0.1412-0.3826,0.2542
		l-5.4545,5.4545c0.6898,1.1696,1.6586,2.1383,2.8281,2.8281l5.4545-5.4545C51.7629,15.346,51.8237,15.2067,51.904,15.0764z"/>
	<circle fill="#FDDA5F" cx="32.2359" cy="32.0448" r="6"/>
	<path fill="#A5BEE2" d="M6.2359,32.0448c0,1.3639,0.1366,2.6927,0.339,4h11.661v-8H6.5749
		C6.3725,29.3521,6.2359,30.6809,6.2359,32.0448z"/>
	<path fill="#85A4D4" d="M18.2359,28.0448H13.793c-0.9578,1.0632-1.5571,2.4563-1.5571,4s0.5994,2.9368,1.5571,4h4.4429V28.0448z"/>
	<circle fill="#3A71B2" cx="18.2359" cy="32.0448" r="4"/>
	<path fill="#A5BEE2" d="M53.0643,16.8732l4.8745-4.8744c-0.7339-2.7638-2.8931-4.923-5.6569-5.6569l-4.8744,4.8744L53.0643,16.8732
		z"/>
	<circle fill="#EA7A26" cx="50.2359" cy="14.0448" r="4"/>
</g>
</svg>
