<?xml version="1.0" encoding="utf-8"?>
<!-- Generator: Adobe Illustrator 19.2.1, SVG Export Plug-In . SVG Version: 6.00 Build 0)  -->
<svg version="1.1" id="XMLID_2_" xmlns="http://www.w3.org/2000/svg" xmlns:xlink="http://www.w3.org/1999/xlink" x="0px" y="0px"
	 viewBox="0 0 64 64" enable-background="new 0 0 64 64" xml:space="preserve">
<g id="flat-icon-151">
	<g>
		<polygon fill="#B8DCA6" points="16.2357,4 26.2356,9.7723 26.2356,21.318 16.2357,27.0923 6.2358,21.318 6.2358,9.7723 		"/>
		<polygon fill="#7BC24D" points="36.2356,4 46.2355,9.7723 46.2355,21.318 36.2356,27.0923 26.2356,21.318 26.2356,9.7723 		"/>
		<polygon fill="#DBEDD2" points="26.2356,21.3199 36.2356,27.0923 36.2356,38.638 26.2356,44.4122 16.2357,38.638 16.2357,27.0923 
					"/>
	</g>
	<g>
		<path fill="#CDDCF0" d="M34.2357,14v4h2v32c0,5.522,4.478,10,10,10s10-4.478,10-10V18h2v-4H34.2357z"/>
		<path fill="#5886C5" d="M52.2357,50c0,1.602-0.624,3.11-1.758,4.242c-1.132,1.134-2.64,1.758-4.242,1.758s-3.11-0.624-4.242-1.758
			c-1.134-1.132-1.758-2.64-1.758-4.242V32h12V50z"/>
		<rect x="46.2357" y="18" fill="#BCCCE1" width="6" height="14"/>
		<path fill="#4F7EC0" d="M46.2357,49.9999h-6c0,3.2508,2.7309,6,6,6c3.3101,0,6-2.678,6-6V32h-6V49.9999z"/>
		<path fill="#BECFE4" d="M36.2357,18v4h20c0-1.7377,0-3.2797,0-4C48.9985,18,43.4729,18,36.2357,18z"/>
		<g>
			<circle fill="#6692CC" cx="43.2357" cy="37" r="2"/>
		</g>
		<g>
			<circle fill="#6692CC" cx="42.2357" cy="46" r="1"/>
		</g>
		<g>
			<circle fill="#5E8BC8" cx="49.2357" cy="49" r="1"/>
		</g>
		<g>
			<circle fill="#5E8BC8" cx="49.2357" cy="35" r="1"/>
		</g>
		<g>
			<circle fill="#6692CC" cx="47.2357" cy="43" r="3"/>
		</g>
		<g>
			<path fill="#5E8BC8" d="M47.2357,40c-0.3525,0-0.6858,0.0719-1,0.1836v5.6328c0.3142,0.1117,0.6475,0.1836,1,0.1836
				c1.6569,0,3-1.3431,3-3S48.8926,40,47.2357,40z"/>
		</g>
		<g>
			<circle fill="#6692CC" cx="45.2357" cy="51" r="2"/>
		</g>
		<g>
			<path fill="#5E8BC8" d="M46.2357,49.3065v0.6934h-2.6935C43.365,50.2985,43.2357,50.6276,43.2357,51c0,1.1045,0.8954,2,2,2
				s2-0.8955,2-2C47.2357,50.2677,46.8227,49.6549,46.2357,49.3065z"/>
		</g>
		<rect x="46.2357" y="18" fill="#AEC0D7" width="6" height="4"/>
	</g>
</g>
</svg>
