<?xml version="1.0" encoding="utf-8"?>
<!-- Generator: Adobe Illustrator 19.2.1, SVG Export Plug-In . SVG Version: 6.00 Build 0)  -->
<svg version="1.1" id="XMLID_2_" xmlns="http://www.w3.org/2000/svg" xmlns:xlink="http://www.w3.org/1999/xlink" x="0px" y="0px"
	 viewBox="0 0 64 64" enable-background="new 0 0 64 64" xml:space="preserve">
<g id="flat-icon-135">
	<g>
		<g>
			<path fill="#EBF6FD" d="M50.2,6.0714c-5.514,0-10,4.4861-10,10s4.486,10,10,10s10-4.4861,10-10S55.714,6.0714,50.2,6.0714z"/>
		</g>
	</g>
	<g>
		<g>
			<path fill="#F4FBFE" d="M32.2,2.0714c-16.5421,0-30,13.458-30,30s13.4579,30,30,30s30-13.458,30-30S48.7421,2.0714,32.2,2.0714z"
				/>
		</g>
	</g>
	<path fill="#E1F2FC" d="M59.4957,19.694C56.9808,14.171,52.8439,9.5543,47.6911,6.4293C43.3949,7.5504,40.2,11.4289,40.2,16.0714
		c0,5.5139,4.486,10,10,10C54.4333,26.0714,58.039,23.4174,59.4957,19.694z"/>
	<g>
		<g>
			<path fill="#E2F3FC" d="M32.2,5.0714c-14.8878,0-27,12.1121-27,27s12.1122,27,27,27s27-12.1121,27-27S47.0878,5.0714,32.2,5.0714
				z"/>
		</g>
	</g>
	<path fill="#CFE8F9" d="M57.5322,22.819c-2.3643-6.4504-7.1069-11.7466-13.1779-14.8242C41.8488,9.8141,40.2,12.7455,40.2,16.0714
		c0,5.5139,4.486,10,10,10C53.1061,26.0714,55.7034,24.8048,57.5322,22.819z"/>
	<path fill="#115081" d="M32.2,8.0714c-13.2,0-24,10.8-24,24s10.8,24,24,24s24-10.8,24-24S45.4,8.0714,32.2,8.0714z"/>
	<path fill="#114D80" d="M55.0461,24.7641c-2.08-6.4546-6.8353-11.7224-12.9413-14.5154C40.9186,11.8925,40.2,13.8939,40.2,16.0714
		c0,5.5139,4.486,10,10,10C51.967,26.0714,53.6041,25.5714,55.0461,24.7641z"/>
	<path fill="#114570" d="M44.6575,11.6139C46.8884,15.2545,48.2,19.5119,48.2,24.0714c0,13.2-10.8,24-24,24
		c-4.5593,0-8.8169-1.3115-12.4575-3.5425C15.9703,51.4284,23.5594,56.0714,32.2,56.0714
		C56.1688,56.0714,65.4444,24.3518,44.6575,11.6139z"/>
	<g>
		<g>
			<path fill="#114570" d="M54.3841,29.8715c-1.9968,0-3.2252,0-5.1841,0c-6.0864,0-7.1862,8.7544-1.2537,10.2217
				c1.2711,0.3139-0.0345,2.0926,1.9185,4.6726c0.1255,0.1658,0.0816,0.1078,0.2719,0.3586
				C53.3456,40.6591,54.8659,35.6612,54.3841,29.8715z"/>
		</g>
		<g>
			<path fill="#114570" d="M15.6846,17.6825h0.0764C15.1065,18.432,14.543,19.1483,14,19.9677c0,2.2199,0,2.018,0,4.2239
				c0,6.5964,5.2436,5.8047,6.4507,9.7102c0.8619,2.7891,2.8806,5.073,5.5493,6.2849c0,0.7082,0,1.2438,0,1.9434
				c4.0633,7.5462,4,6.7626,4,9.9707c0.028,2.099,2.7651,3.0327,4.0044,1.1638c0.313-0.4528,1.8259-2.6414,2.1362-3.0906
				l-0.0446-0.0032c1.5947-2.5038,0.434-4.0254,1.5568-5.7078c1.9637-2.8266-0.1139-6.5916-3.6589-6.5916
				c-9.7557,0-6.4539,0-8.712,0v-0.8723c0-0.6301-0.5127-1.1428-1.1428-1.1428h-0.6808v-1.9612
				c0-0.8953,0.7285-1.6238,1.6238-1.6238c5.4152,0,6.061-0.3943,7.1011,1.4045c0.6149,1.064,2.2168,0.6002,2.2168-0.6045
				c0-1-2.3687-3.0868,0.2751-5.2239c1.7264-1.3958,1.5485-3.1383,1.5485-4.1389c0-1.8007-2.2045-2.7424-3.5088-1.3738
				c-0.0741,0.0798-0.099,0.1069-0.2297,0.1069c-0.0151-0.0071-0.0773-0.0605-0.0907-0.0891l0.0056-2.634
				c0.0157-1.8679,1.6752-3.4473,3.6237-3.4473c3.2951,0,5.4323,0,11.6636,0C38.7242,7.4897,24.5098,7.8703,15.6846,17.6825z"/>
		</g>
	</g>
	<g>
		<path fill="#FDDA5F" d="M8.2,4.0714c0,2.2981-1.7018,4-4,4c2.2982,0,4,1.7017,4,4c0-2.2983,1.7018-4,4-4
			C9.9018,8.0714,8.2,6.3695,8.2,4.0714z"/>
		<path fill="#FDDA5F" d="M56.2,50.0714c0,3.4473-2.5527,6-6,6c3.4473,0,6,2.5527,6,6c0-3.4473,2.5527-6,6-6
			C58.7527,56.0714,56.2,53.5187,56.2,50.0714z"/>
	</g>
	<path fill="#0B9156" d="M54.2,30.0714h-5c-5.8563,0-6.9076,8.4175-1.2057,9.8276c1.4901,0.3685,0.0429,2.121,2.0299,4.7461
		l0.1082,0.1426C53.3276,40.3468,54.621,35.1441,54.2,30.0714z"/>
	<path fill="#0B9156" d="M33.9939,38.0714c-3.8732,0-4.9391,0-8.912,0c0-1.0011,0.1318-2.0151-0.9429-2.0151h-0.8807v-2.1611
		c0-1.0073,0.8165-1.8237,1.8237-1.8237c5.3907,0,6.17-0.4056,7.2742,1.5044c0.6376,1.103,2.3505,0.1834,1.7056-0.9819
		c-2.7329-4.9373,1.9618-4.0868,1.9618-7.9485c0-1.0002,0.1249-2.1031-1.1255-2.6216C31.7181,20.7055,32.2,29.6634,32.2,11.0714
		c-7.5184,0.0613-14.1028,3.0874-18,8.9565v4.1636c0,6.4629,5.2056,5.6517,6.4418,9.6511c0.8612,2.7866,2.9143,5.0537,5.5582,6.2144
		v2.0225c4.0322,7.4827,4,6.7573,4,9.9919c0,1.1045,0.8954,2,2,2c1.264,0,1.5479-0.7874,3.5768-3.7227l-0.0415-0.0029
		c1.8147-2.4989,0.5527-4.1972,1.7512-5.9939C39.3288,41.7003,37.4508,38.0714,33.9939,38.0714z"/>
	<g>
		<path fill="#203062" d="M47.56,18.6622l-3.0253,3.0254l3.6031,3.603C48.1586,24.8844,48.2,24.483,48.2,24.0714
			C48.2,22.2096,47.9708,20.402,47.56,18.6622z"/>
		<path fill="#1A2A56" d="M50.0525,16.1696L47.56,18.6622c0.4108,1.7397,0.64,3.5474,0.64,5.4092
			c0,0.4116-0.0414,0.813-0.0621,1.2192l7.9966,7.9966C56.486,26.7513,54.2376,20.845,50.0525,16.1696z"/>
	</g>
	<path fill="#E1F3FA" d="M16.1335,17.6311H22.19c2.1605,0,4.4933,1.6985,4.7263,3.8462c0.0455,0.419,0.2469,0.7951,0.5423,1.0796
		c0.2238,0.2155,0.5437,0.299,0.8442,0.2201c0.3005-0.0789,0.5376-0.3087,0.627-0.6063c0.4111-1.3684,1.7219-2.2634,3.2701-2.3035
		c0.0168-1.9995,1.8198-3.6472,3.8236-3.6472h11.1737C39.0747,8.2626,24.7602,8.0417,16.1335,17.6311z"/>
	<g>
		<path fill="#203062" d="M34.0044,53.2645c0.313-0.4528,1.8259-2.6414,2.1362-3.0906l-0.0446-0.0032
			c0.6848-1.0752,1.0228-2.3833,0.9802-3.8069c-0.0367-1.2282,0.6493-1.7915,1.0334-2.7917
			c-2.7007,1.9353-5.8024,3.3396-9.1658,4.0212C29.7998,49.1814,30,49.4288,30,52.1007
			C30.028,54.1997,32.7652,55.1334,34.0044,53.2645z"/>
	</g>
	<path fill="#203062" d="M50.1366,45.1244c3.6279-5.0482,4.5558-9.7654,4.2474-15.2529c0,0-5.8313-0.0996-7.0179,0.3508
		c-0.6481,2.4238-1.6584,4.6992-2.9855,6.7612c0.6053,1.5127,1.8992,2.6973,3.5657,3.1096
		c1.2711,0.3139-0.0345,2.0926,1.9185,4.6726C49.9903,44.9315,49.9464,44.8735,50.1366,45.1244z"/>
	<path fill="#0F1C39" d="M52.7101,29.8631l1.7434,1.7432c-0.0176-0.8057-0.0693-1.7349-0.0693-1.7349
		S53.6761,29.8597,52.7101,29.8631z"/>
	<path fill="#397E4B" d="M35.7768,50.3488l-0.0415-0.0029c0.8262-1.1377,1.1842-2.5381,1.1411-3.9761
		c-0.0332-1.1076,0.4958-1.7,0.9128-2.5576c-2.5682,1.7769-5.4916,3.0693-8.642,3.7368c0.8298,1.5397,1.0527,1.8373,1.0527,4.5225
		c0,1.1045,0.8954,2,2,2C33.464,54.0714,33.7479,53.284,35.7768,50.3488z"/>
	<path fill="#397E4B" d="M50.1324,44.7877c3.1952-4.4409,4.4886-9.6436,4.0676-14.7163c-5.3684,0-5.7094-0.1084-6.8922,0.376
		c-0.6284,2.2617-1.5784,4.3872-2.8026,6.3315c0.5656,1.5405,1.8715,2.72,3.4891,3.1201c1.4902,0.3681,0.0429,2.1209,2.0299,4.7461
		L50.1324,44.7877z"/>
	<path fill="#1C453B" d="M54.2522,31.4049c-0.0067-0.4609-0.0192-0.9343-0.0522-1.3335h-1.2814L54.2522,31.4049z"/>
	<path fill="#CEEBFB" d="M41.0021,12.1552C40.4876,13.359,40.2,14.6818,40.2,16.0714c0,0.0508,0.0143,0.0979,0.015,0.1484h6.9823
		C45.4705,14.5282,43.1999,13.1133,41.0021,12.1552z"/>
	<path fill="#1A2956" d="M47.56,18.6622c0.4108,1.7397,0.64,3.5474,0.64,5.4092c0,0.4116-0.0414,0.813-0.0621,1.2192l0.6366,0.6367
		c0.4696,0.0679,0.9374,0.144,1.4255,0.144c1.7532,0,3.3778-0.4929,4.812-1.2888c-1.0471-3.218-2.7463-6.1404-4.9595-8.613
		L47.56,18.6622z"/>
	<g>
		<g>
			<circle fill="#DAE5D5" cx="50.2" cy="16.0714" r="8"/>
			<path fill="#C1CBBF" d="M53.4808,8.7907c2.4096,5.3373-1.52,11.2808-7.2808,11.2808c-1.1724,0-2.2775-0.2661-3.2808-0.7192
				c1.2544,2.7778,4.0349,4.7192,7.2808,4.7192c4.4183,0,8-3.5818,8-8C58.2,12.8253,56.2586,10.0451,53.4808,8.7907z"/>
			<g>
				<path fill="#C1CBBF" d="M47.2,16.5714c-1.3789,0-2.5-1.1211-2.5-2.5s1.1211-2.5,2.5-2.5s2.5,1.1211,2.5,2.5
					S48.5789,16.5714,47.2,16.5714z M47.2,12.5714c-0.8262,0-1.5,0.6729-1.5,1.5c0,1.982,3,1.9823,3,0
					C48.7,13.2443,48.0262,12.5714,47.2,12.5714z"/>
			</g>
		</g>
		<g>
			<path fill="none" d="M51.2345,18.2418c0.417-0.3408,0.7952-0.7188,1.1359-1.136C51.695,16.9825,51.1036,17.5063,51.2345,18.2418z
				"/>
			<path fill="#C1CBBF" d="M54.0911,11.0934C53.5925,11.15,53.2,11.5578,53.2,12.0714c0,0.5171,0.3977,0.9282,0.9012,0.98
				C54.2466,11.876,54.2264,12.1397,54.0911,11.0934z"/>
			<path fill="#B4BEB3" d="M55.2,12.0714c0-0.5493-0.4502-1.0553-1.1089-0.978c0.1358,1.05,0.1552,0.7851,0.0101,1.958
				C54.756,13.1218,55.2,12.6174,55.2,12.0714z"/>
			<path fill="#C1CBBF" d="M52.3704,17.1059c0.2258-0.2764,0.4396-0.5583,0.6273-0.8635c-1.6601-0.7276-3.3555,0.964-2.6268,2.6267
				c0.3054-0.1877,0.5873-0.4016,0.8636-0.6272C51.1036,17.5063,51.695,16.9825,52.3704,17.1059z"/>
			<path fill="#B4BEB3" d="M52.2,20.0714c2.151,0,2.7834-2.9597,0.7977-3.8291c-0.1877,0.3052-0.4015,0.5872-0.6273,0.8635
				c0.4667,0.0837,0.8296,0.4744,0.8296,0.9656c0,1.1918-1.7459,1.3922-1.9655,0.1704c-0.2764,0.2256-0.5582,0.4395-0.8636,0.6272
				C50.6801,19.5746,51.381,20.0714,52.2,20.0714z"/>
			<circle fill="#B4BEB3" cx="47.2" cy="21.0714" r="1"/>
		</g>
	</g>
</g>
</svg>
