<?xml version="1.0" encoding="UTF-8" standalone="no"?>
<svg
   xmlns:dc="http://purl.org/dc/elements/1.1/"
   xmlns:cc="http://creativecommons.org/ns#"
   xmlns:rdf="http://www.w3.org/1999/02/22-rdf-syntax-ns#"
   xmlns:svg="http://www.w3.org/2000/svg"
   xmlns="http://www.w3.org/2000/svg"
   viewBox="0 0 400 400"
   height="400"
   width="400"
   xml:space="preserve"
   id="svg2"
   version="1.1"><metadata
     id="metadata8"><rdf:RDF><cc:Work
         rdf:about=""><dc:format>image/svg+xml</dc:format><dc:type
           rdf:resource="http://purl.org/dc/dcmitype/StillImage" /></cc:Work></rdf:RDF></metadata><defs
     id="defs6"><clipPath
       id="clipPath22"
       clipPathUnits="userSpaceOnUse"><path
         id="path20"
         d="M 0,300 H 300 V 0 H 0 Z" /></clipPath><clipPath
       id="clipPath34"
       clipPathUnits="userSpaceOnUse"><path
         id="path32"
         d="M 95.511,86.81 C 88.404,78.574 25.659,56.874 25.659,56.874 v 0 L 37.278,0 H 137.43 c -3.491,15.221 -8.75,34.7 -10.122,53.136 v 0 c -1.562,20.976 -17.968,39.239 -13.066,51.441 v 0 C 108.735,100.887 101.21,93.414 95.511,86.81" /></clipPath><linearGradient
       id="linearGradient46"
       spreadMethod="pad"
       gradientTransform="matrix(113.5237,115.17696,115.17696,-113.5237,15.569526,-42.62941)"
       gradientUnits="userSpaceOnUse"
       y2="0"
       x2="1"
       y1="0"
       x1="0"><stop
         id="stop40"
         offset="0"
         style="stop-opacity:1;stop-color:#2b2b8b" /><stop
         id="stop42"
         offset="1"
         style="stop-opacity:1;stop-color:#000945" /><stop
         id="stop44"
         offset="1"
         style="stop-opacity:1;stop-color:#000945" /></linearGradient><clipPath
       id="clipPath56"
       clipPathUnits="userSpaceOnUse"><path
         id="path54"
         d="M 177.649,53.136 C 176.293,34.909 172.751,15.259 169.726,0 v 0 h 96.837 L 274,54.232 c 0,0 -58.745,24.342 -65.852,32.578 v 0 c -5.866,6.798 -12.065,14.687 -17.608,18.067 v 0 C 195.479,92.675 179.224,74.289 177.649,53.136" /></clipPath><linearGradient
       id="linearGradient68"
       spreadMethod="pad"
       gradientTransform="matrix(-155.95731,147.69101,147.69101,155.95731,306.92801,-57.793892)"
       gradientUnits="userSpaceOnUse"
       y2="0"
       x2="1"
       y1="0"
       x1="0"><stop
         id="stop62"
         offset="0"
         style="stop-opacity:1;stop-color:#2b2b8b" /><stop
         id="stop64"
         offset="1"
         style="stop-opacity:1;stop-color:#000945" /><stop
         id="stop66"
         offset="1"
         style="stop-opacity:1;stop-color:#000945" /></linearGradient><clipPath
       id="clipPath78"
       clipPathUnits="userSpaceOnUse"><path
         id="path76"
         d="M 0,300 H 300 V 0 H 0 Z" /></clipPath><clipPath
       id="clipPath110"
       clipPathUnits="userSpaceOnUse"><path
         id="path108"
         d="m 153.205,232.173 c -24.752,-0.284 -33.286,-7.681 -42.391,-16.217 v 0 c -7.947,-7.45 -5.488,-42.216 -4.735,-50.932 v 0 c 0.11,-1.268 -0.348,-2.516 -1.248,-3.416 v 0 l -0.275,-0.276 c -1.708,8.535 -1.139,13.656 -1.139,13.656 v 0 c -3.982,2.276 -5.121,-5.69 -5.121,-21.054 v 0 c 0,-15.363 6.26,-14.224 6.26,-14.224 v 0 c 0,0 1.137,-4.552 2.276,-14.794 v 0 c 1.137,-10.242 20.484,-43.245 36.416,-45.521 v 0 c 15.931,-2.276 29.588,5.121 43.813,17.639 v 0 c 14.225,12.519 19.346,38.692 19.346,38.692 v 0 c 0,0 0.57,-3.983 6.828,0.57 v 0 c 6.259,4.551 9.105,32.433 6.259,35.277 v 0 c -2.844,2.846 -6.259,-9.103 -6.259,-9.103 v 0 l -2.56,2.56 c -2.845,3.983 -0.569,34.14 -3.414,52.918 v 0 c -1.915,12.642 -20.332,14.772 -35.813,14.772 v 0 c -7.513,0 -14.335,-0.502 -18.243,-0.547" /></clipPath><linearGradient
       id="linearGradient120"
       spreadMethod="pad"
       gradientTransform="matrix(-2.7554293,59.517273,59.517273,2.7554293,158.98907,169.25778)"
       gradientUnits="userSpaceOnUse"
       y2="0"
       x2="1"
       y1="0"
       x1="0"><stop
         id="stop116"
         offset="0"
         style="stop-opacity:1;stop-color:#fca689" /><stop
         id="stop118"
         offset="1"
         style="stop-opacity:1;stop-color:#f69472" /></linearGradient><clipPath
       id="clipPath130"
       clipPathUnits="userSpaceOnUse"><path
         id="path128"
         d="M 0,300 H 300 V 0 H 0 Z" /></clipPath></defs><g
     transform="matrix(1.3333333,0,0,-1.3333333,0,400)"
     id="g10"><g
       transform="translate(115.23,118.8398)"
       id="g12"><path
         id="path14"
         style="fill:#162030;fill-opacity:1;fill-rule:nonzero;stroke:none"
         d="m 0,0 5.863,-64.198 64.297,1.707 6.828,72.263 z" /></g><g
       id="g16"><g
         clip-path="url(#clipPath22)"
         id="g18"><g
           transform="translate(208.1484,86.8096)"
           id="g24"><path
             id="path26"
             style="fill:#162030;fill-opacity:1;fill-rule:nonzero;stroke:none"
             d="m 0,0 c -7.106,8.235 -14.084,16.675 -17.608,18.067 0,0 -0.512,0.814 -2.056,-6.547 -8.68,-41.39 -65.271,-39.653 -71.648,2.199 -0.969,6.357 -1.198,4.812 -1.198,4.812 -5.287,-2.32 -13.021,-10.296 -20.128,-18.531 -7.106,-8.236 -56.851,-26.936 -56.851,-26.936 v -66.635 h 112.993 0.354 l 112.994,-4.642 v 66.636 C 56.852,-31.577 7.106,-8.236 0,0" /></g></g></g><g
       id="g28"><g
         clip-path="url(#clipPath34)"
         id="g30"><g
           id="g36"><g
             id="g38"><path
               id="path48"
               style="fill:url(#linearGradient46);stroke:none"
               d="M 95.511,86.81 C 88.404,78.574 25.659,56.874 25.659,56.874 v 0 L 37.278,0 H 137.43 c -3.491,15.221 -8.75,34.7 -10.122,53.136 v 0 c -1.562,20.976 -17.968,39.239 -13.066,51.441 v 0 C 108.735,100.887 101.21,93.414 95.511,86.81" /></g></g></g></g><g
       id="g50"><g
         clip-path="url(#clipPath56)"
         id="g52"><g
           id="g58"><g
             id="g60"><path
               id="path70"
               style="fill:url(#linearGradient68);stroke:none"
               d="M 177.649,53.136 C 176.293,34.909 172.751,15.259 169.726,0 v 0 h 96.837 L 274,54.232 c 0,0 -58.745,24.342 -65.852,32.578 v 0 c -5.866,6.798 -12.065,14.687 -17.608,18.067 v 0 C 195.479,92.675 179.224,74.289 177.649,53.136" /></g></g></g></g><g
       id="g72"><g
         clip-path="url(#clipPath78)"
         id="g74"><g
           transform="translate(140.25,62.1748)"
           id="g80"><path
             id="path82"
             style="fill:#29334a;fill-opacity:1;fill-rule:nonzero;stroke:none"
             d="m 0,0 c 0,0 4.241,-13.784 4.771,-15.375 0.53,-1.59 16.435,-2.65 16.435,-2.65 l 2.695,19.309 -4.96,9.919 -12.049,0.99 z" /></g><g
           transform="translate(133.8877,70.6572)"
           id="g84"><path
             id="path86"
             style="fill:#29334a;fill-opacity:1;fill-rule:nonzero;stroke:none"
             d="M 0,0 6.519,-8.991 18.556,-5.302 13.254,3.711 2.651,7.952 Z" /></g><g
           transform="translate(172.5889,79.1396)"
           id="g88"><path
             id="path90"
             style="fill:#29334a;fill-opacity:1;fill-rule:nonzero;stroke:none"
             d="m 0,0 -15.878,-6.426 1.034,-8.948 6.892,0.529 12.193,6.363 z" /></g><g
           transform="translate(100.5728,214.8184)"
           id="g92"><path
             id="path94"
             style="fill:#ffca7e;fill-opacity:1;fill-rule:nonzero;stroke:none"
             d="m 0,0 c 0,0 -7.966,23.329 18.777,36.985 0,0 2.276,6.259 17.07,7.966 0,0 4.552,8.535 29.02,2.845 24.466,-5.69 40.398,-17.07 45.519,-34.14 0,0 7.967,-2.845 9.674,-15.932 1.707,-13.087 0.568,-39.83 -9.104,-54.624 -9.673,-14.794 -90.472,3.414 -90.472,3.414 l -11.949,-17.64 -7.397,3.414 0.569,26.744 c 0,0 -1.138,31.295 0,35.278 z" /></g><g
           transform="translate(110.145,101.4834)"
           id="g96"><path
             id="path98"
             style="fill:#464648;fill-opacity:1;fill-rule:nonzero;stroke:none"
             d="M 0,0 C 0,0 -0.551,-33.065 19.288,-52.353 L 34.167,-20.941 7.164,6.613 Z" /></g><g
           transform="translate(195.0107,101.4834)"
           id="g100"><path
             id="path102"
             style="fill:#464648;fill-opacity:1;fill-rule:nonzero;stroke:none"
             d="m 0,0 c 0,0 0.551,-33.065 -19.288,-52.353 l -14.88,31.412 27.004,27.554 z" /></g></g></g><g
       id="g104"><g
         clip-path="url(#clipPath110)"
         id="g106"><g
           id="g112"><g
             id="g114"><path
               id="path122"
               style="fill:url(#linearGradient120);stroke:none"
               d="m 153.205,232.173 c -24.752,-0.284 -33.286,-7.681 -42.391,-16.217 v 0 c -7.947,-7.45 -5.488,-42.216 -4.735,-50.932 v 0 c 0.11,-1.268 -0.348,-2.516 -1.248,-3.416 v 0 l -0.275,-0.276 c -1.708,8.535 -1.139,13.656 -1.139,13.656 v 0 c -3.982,2.276 -5.121,-5.69 -5.121,-21.054 v 0 c 0,-15.363 6.26,-14.224 6.26,-14.224 v 0 c 0,0 1.137,-4.552 2.276,-14.794 v 0 c 1.137,-10.242 20.484,-43.245 36.416,-45.521 v 0 c 15.931,-2.276 29.588,5.121 43.813,17.639 v 0 c 14.225,12.519 19.346,38.692 19.346,38.692 v 0 c 0,0 0.57,-3.983 6.828,0.57 v 0 c 6.259,4.551 9.105,32.433 6.259,35.277 v 0 c -2.844,2.846 -6.259,-9.103 -6.259,-9.103 v 0 l -2.56,2.56 c -2.845,3.983 -0.569,34.14 -3.414,52.918 v 0 c -1.915,12.642 -20.332,14.772 -35.813,14.772 v 0 c -7.513,0 -14.335,-0.502 -18.243,-0.547" /></g></g></g></g><g
       id="g124"><g
         clip-path="url(#clipPath130)"
         id="g126"><g
           transform="translate(166.4414,-6.5293)"
           id="g132"><path
             id="path134"
             style="fill:#29334a;fill-opacity:1;fill-rule:nonzero;stroke:none"
             d="M 0,0 -4.985,50.679 -11.348,63.933 -16.119,62.342 -21.42,53.329 -26.575,0 Z" /></g></g></g></g></svg>