<?xml version="1.0" encoding="UTF-8" standalone="no"?>
<svg
   xmlns:dc="http://purl.org/dc/elements/1.1/"
   xmlns:cc="http://creativecommons.org/ns#"
   xmlns:rdf="http://www.w3.org/1999/02/22-rdf-syntax-ns#"
   xmlns:svg="http://www.w3.org/2000/svg"
   xmlns="http://www.w3.org/2000/svg"
   viewBox="0 0 400 400"
   height="400"
   width="400"
   xml:space="preserve"
   id="svg2"
   version="1.1"><metadata
     id="metadata8"><rdf:RDF><cc:Work
         rdf:about=""><dc:format>image/svg+xml</dc:format><dc:type
           rdf:resource="http://purl.org/dc/dcmitype/StillImage" /></cc:Work></rdf:RDF></metadata><defs
     id="defs6"><clipPath
       id="clipPath22"
       clipPathUnits="userSpaceOnUse"><path
         id="path20"
         d="M 0,300 H 300 V 0 H 0 Z" /></clipPath><clipPath
       id="clipPath54"
       clipPathUnits="userSpaceOnUse"><path
         id="path52"
         d="m 156.488,4.526 c -21.056,8.19 -47.753,92.175 -47.753,92.175 v 0 C 73.264,95.289 4.996,62.433 4.996,62.433 v 0 L 0.455,0 H 300 v 66.133 c -19.052,8.63 -67.68,29.451 -95.758,30.568 v 0 c 0,0 -26.696,-83.985 -47.754,-92.175" /></clipPath><linearGradient
       id="linearGradient66"
       spreadMethod="pad"
       gradientTransform="matrix(317.02274,0,0,-317.02274,-2.0227344,31.311634)"
       gradientUnits="userSpaceOnUse"
       y2="0"
       x2="1"
       y1="0"
       x1="0"><stop
         id="stop60"
         offset="0"
         style="stop-opacity:1;stop-color:#00386e" /><stop
         id="stop62"
         offset="1"
         style="stop-opacity:1;stop-color:#00275a" /><stop
         id="stop64"
         offset="1"
         style="stop-opacity:1;stop-color:#00275a" /></linearGradient><clipPath
       id="clipPath76"
       clipPathUnits="userSpaceOnUse"><path
         id="path74"
         d="M 0,300 H 300 V 0 H 0 Z" /></clipPath><clipPath
       id="clipPath88"
       clipPathUnits="userSpaceOnUse"><path
         id="path86"
         d="m 157.073,229.719 c 0,0 -20.179,0.876 -34.802,-4.388 v 0 c -14.623,-5.264 -13.453,-49.718 -13.453,-49.718 v 0 c -7.604,4.68 -6.113,-5.284 -5.264,-14.622 v 0 c 1.17,-12.868 4.094,-12.868 4.094,-12.868 v 0 c 0,0 0,-5.849 0.585,-14.623 v 0 c 0.585,-8.773 9.944,-25.737 17.547,-35.095 v 0 c 7.604,-9.358 24.567,-22.226 31.586,-22.226 v 0 c 7.019,0 22.227,12.868 30.415,20.471 v 0 c 8.19,7.604 16.963,30.416 17.548,34.511 v 0 c 0.585,4.094 -0.293,20.178 -0.293,20.178 v 0 c 3.51,-2.339 8.774,22.813 6.434,26.322 v 0 c -2.339,3.509 -5.849,-1.755 -5.849,-1.755 v 0 c -0.585,17.547 -3.509,28.661 -7.603,42.114 v 0 c -3.248,10.671 -23.055,11.774 -34.32,11.774 v 0 c -2.936,0 -5.294,-0.075 -6.625,-0.075" /></clipPath><linearGradient
       id="linearGradient100"
       spreadMethod="pad"
       gradientTransform="matrix(-1.3333333,100,100,1.3333333,157.43193,173.50354)"
       gradientUnits="userSpaceOnUse"
       y2="0"
       x2="1"
       y1="0"
       x1="0"><stop
         id="stop94"
         offset="0"
         style="stop-opacity:1;stop-color:#ffa182" /><stop
         id="stop96"
         offset="1"
         style="stop-opacity:1;stop-color:#ff8c71" /><stop
         id="stop98"
         offset="1"
         style="stop-opacity:1;stop-color:#ff8c71" /></linearGradient><clipPath
       id="clipPath110"
       clipPathUnits="userSpaceOnUse"><path
         id="path108"
         d="M 0,300 H 300 V 0 H 0 Z" /></clipPath><clipPath
       id="clipPath122"
       clipPathUnits="userSpaceOnUse"><path
         id="path120"
         d="m 133.677,125.603 c 0,-8.721 10.213,-15.792 22.811,-15.792 v 0 c 12.599,0 22.812,7.071 22.812,15.792 v 0 c 0,8.722 -10.213,15.793 -22.812,15.793 v 0 c -12.598,0 -22.811,-7.071 -22.811,-15.793" /></clipPath><linearGradient
       id="linearGradient134"
       spreadMethod="pad"
       gradientTransform="matrix(-3.3333333,175.33334,175.33334,3.3333333,157.29932,82.961334)"
       gradientUnits="userSpaceOnUse"
       y2="0"
       x2="1"
       y1="0"
       x1="0"><stop
         id="stop128"
         offset="0"
         style="stop-opacity:1;stop-color:#ffa182" /><stop
         id="stop130"
         offset="1"
         style="stop-opacity:1;stop-color:#ff8c71" /><stop
         id="stop132"
         offset="1"
         style="stop-opacity:1;stop-color:#ff8c71" /></linearGradient></defs><g
     transform="matrix(1.3333333,0,0,-1.3333333,0,400)"
     id="g10"><g
       transform="translate(108.5256,96.9426)"
       id="g12"><path
         id="path14"
         style="fill:#162030;fill-opacity:1;fill-rule:nonzero;stroke:none"
         d="M 0,0 V -96.943 H 95.926 V 0 L 47.963,40.944 Z" /></g><g
       id="g16"><g
         clip-path="url(#clipPath22)"
         id="g18"><g
           transform="translate(143.0356,59.5088)"
           id="g24"><path
             id="path26"
             style="fill:#29334a;fill-opacity:1;fill-rule:nonzero;stroke:none"
             d="m 0,0 c 0,0 4.679,-15.208 5.264,-16.963 0.585,-1.755 18.133,-2.925 18.133,-2.925 l 2.924,22.812 -8.774,9.359 -9.943,1.169 z" /></g><g
           transform="translate(154.1494,52.4893)"
           id="g28"><path
             id="path30"
             style="fill:#29334a;fill-opacity:1;fill-rule:nonzero;stroke:none"
             d="m 0,0 -5.85,-9.943 -7.019,-23.982 16.378,-19.887 16.378,12.284 -7.604,28.66 -7.019,14.623 z" /></g><g
           transform="translate(136.0166,68.8672)"
           id="g32"><path
             id="path34"
             style="fill:#29334a;fill-opacity:1;fill-rule:nonzero;stroke:none"
             d="M 0,0 7.192,-9.921 20.472,-5.85 14.623,4.094 2.925,8.773 Z" /></g><g
           transform="translate(178.7148,78.2256)"
           id="g36"><path
             id="path38"
             style="fill:#29334a;fill-opacity:1;fill-rule:nonzero;stroke:none"
             d="m 0,0 -17.518,-7.089 1.141,-9.874 7.604,0.585 13.453,7.02 z" /></g><g
           transform="translate(145.96,80.5654)"
           id="g40"><path
             id="path42"
             style="fill:#e4feff;fill-opacity:1;fill-rule:nonzero;stroke:none"
             d="m 0,0 c 0,0 -16.962,-28.076 -16.377,-38.02 0,0 -24.567,34.51 -21.642,50.303 2.924,15.792 8.189,23.397 8.189,23.397 z" /></g><g
           transform="translate(167.0166,80.5654)"
           id="g44"><path
             id="path46"
             style="fill:#e4feff;fill-opacity:1;fill-rule:nonzero;stroke:none"
             d="m 0,0 c 0,0 16.963,-28.076 16.378,-38.02 0,0 24.566,34.51 21.642,50.303 -2.924,15.792 -8.189,23.397 -8.189,23.397 z" /></g></g></g><g
       id="g48"><g
         clip-path="url(#clipPath54)"
         id="g50"><g
           id="g56"><g
             id="g58"><path
               id="path68"
               style="fill:url(#linearGradient66);stroke:none"
               d="m 156.488,4.526 c -21.056,8.19 -47.753,92.175 -47.753,92.175 v 0 C 73.264,95.289 4.996,62.433 4.996,62.433 v 0 L 0.455,0 H 300 v 66.133 c -19.052,8.63 -67.68,29.451 -95.758,30.568 v 0 c 0,0 -26.696,-83.985 -47.754,-92.175" /></g></g></g></g><g
       id="g70"><g
         clip-path="url(#clipPath76)"
         id="g72"><g
           transform="translate(108.2334,170.3496)"
           id="g78"><path
             id="path80"
             style="fill:#0a131e;fill-opacity:1;fill-rule:nonzero;stroke:none"
             d="m 0,0 c 0,0 -4.679,32.755 1.755,46.793 0,0 -2.34,0 -2.925,-3.51 0,0 -5.849,23.982 15.208,32.756 0,0 5.264,5.849 8.774,5.264 0,0 13.453,11.698 24.566,7.019 0,0 7.603,2.924 15.793,-0.585 0,0 12.283,-1.755 16.962,-11.113 4.68,-9.359 2.925,-14.039 2.925,-14.039 0,0 10.528,-2.924 14.038,-16.377 C 100.604,32.755 100.02,7.604 98.266,1.169 96.511,-5.265 0,0 0,0" /></g></g></g><g
       id="g82"><g
         clip-path="url(#clipPath88)"
         id="g84"><g
           id="g90"><g
             id="g92"><path
               id="path102"
               style="fill:url(#linearGradient100);stroke:none"
               d="m 157.073,229.719 c 0,0 -20.179,0.876 -34.802,-4.388 v 0 c -14.623,-5.264 -13.453,-49.718 -13.453,-49.718 v 0 c -7.604,4.68 -6.113,-5.284 -5.264,-14.622 v 0 c 1.17,-12.868 4.094,-12.868 4.094,-12.868 v 0 c 0,0 0,-5.849 0.585,-14.623 v 0 c 0.585,-8.773 9.944,-25.737 17.547,-35.095 v 0 c 7.604,-9.358 24.567,-22.226 31.586,-22.226 v 0 c 7.019,0 22.227,12.868 30.415,20.471 v 0 c 8.19,7.604 16.963,30.416 17.548,34.511 v 0 c 0.585,4.094 -0.293,20.178 -0.293,20.178 v 0 c 3.51,-2.339 8.774,22.813 6.434,26.322 v 0 c -2.339,3.509 -5.849,-1.755 -5.849,-1.755 v 0 c -0.585,17.547 -3.509,28.661 -7.603,42.114 v 0 c -3.248,10.671 -23.055,11.774 -34.32,11.774 v 0 c -2.936,0 -5.294,-0.075 -6.625,-0.075" /></g></g></g></g><g
       id="g104"><g
         clip-path="url(#clipPath110)"
         id="g106"><g
           transform="translate(205.3291,160.9907)"
           id="g112"><path
             id="path114"
             style="fill:#0a131e;fill-opacity:1;fill-rule:nonzero;stroke:none"
             d="m 0,0 c 0,0 -2.269,-36.016 -18.133,-39.189 -4.387,-0.878 0.878,11.99 -7.603,19.887 -7.061,6.573 -17.548,7.604 -24.567,7.019 -7.019,-0.585 -21.934,-2.048 -24.566,-9.944 -3.15,-9.449 -2.632,-18.425 -7.604,-16.377 -2.419,0.996 -14.623,23.396 -13.453,36.265 l -1.741,-11.897 c 0.034,-2.219 0.153,-6.99 0.571,-13.255 0.585,-8.773 9.944,-25.736 17.548,-35.094 7.604,-9.359 24.566,-22.227 31.585,-22.227 7.019,0 22.227,12.868 30.415,20.472 8.19,7.603 16.963,30.415 17.548,34.509 0.585,4.095 -0.293,20.18 -0.293,20.18 C -0.164,-9.736 0,0 0,0" /></g></g></g><g
       id="g116"><g
         clip-path="url(#clipPath122)"
         id="g118"><g
           id="g124"><g
             id="g126"><path
               id="path136"
               style="fill:url(#linearGradient134);stroke:none"
               d="m 133.677,125.603 c 0,-8.721 10.213,-15.792 22.811,-15.792 v 0 c 12.599,0 22.812,7.071 22.812,15.792 v 0 c 0,8.722 -10.213,15.793 -22.812,15.793 v 0 c -12.598,0 -22.811,-7.071 -22.811,-15.793" /></g></g></g></g></g></svg>