<?xml version="1.0" encoding="UTF-8" standalone="no"?>
<svg
   xmlns:dc="http://purl.org/dc/elements/1.1/"
   xmlns:cc="http://creativecommons.org/ns#"
   xmlns:rdf="http://www.w3.org/1999/02/22-rdf-syntax-ns#"
   xmlns:svg="http://www.w3.org/2000/svg"
   xmlns="http://www.w3.org/2000/svg"
   viewBox="0 0 400 400"
   height="400"
   width="400"
   xml:space="preserve"
   id="svg2"
   version="1.1"><metadata
     id="metadata8"><rdf:RDF><cc:Work
         rdf:about=""><dc:format>image/svg+xml</dc:format><dc:type
           rdf:resource="http://purl.org/dc/dcmitype/StillImage" /></cc:Work></rdf:RDF></metadata><defs
     id="defs6"><clipPath
       id="clipPath18"
       clipPathUnits="userSpaceOnUse"><path
         id="path16"
         d="m 100.844,132.417 c 0,0 7.206,-89.888 9.233,-95.971 v 0 c 2.029,-6.082 46.634,11.491 46.634,11.491 v 0 c 0,0 31.088,47.62 31.764,48.295 v 0 c 0.676,0.676 3.381,51.729 4.057,67.95 v 0 c 0.097,2.344 -1.752,3.347 -4.982,3.348 v 0 c -19.116,0.004 -86.706,-35.113 -86.706,-35.113" /></clipPath><linearGradient
       id="linearGradient28"
       spreadMethod="pad"
       gradientTransform="matrix(-5,46.5,46.5,5,153.96527,73.834976)"
       gradientUnits="userSpaceOnUse"
       y2="0"
       x2="1"
       y1="0"
       x1="0"><stop
         id="stop24"
         offset="0"
         style="stop-opacity:1;stop-color:#ffcb9d" /><stop
         id="stop26"
         offset="1"
         style="stop-opacity:1;stop-color:#f7af7a" /></linearGradient><clipPath
       id="clipPath38"
       clipPathUnits="userSpaceOnUse"><path
         id="path36"
         d="M 79.597,100.277 C 71.32,91.173 13.382,70.501 13.382,70.501 v 0 V 0 H 277 v 65.369 c 0,0 -57.938,25.804 -66.215,34.908 v 0 c -8.277,9.105 -16.403,18.434 -20.509,19.974 v 0 c 0,0 -0.596,-5.193 -2.393,-13.331 v 0 c -10.111,-45.756 -76.021,-43.835 -83.449,2.432 v 0 c -1.127,7.027 -1.395,11.412 -1.395,11.412 v 0 C 96.881,118.198 87.873,109.382 79.597,100.277" /></clipPath><linearGradient
       id="linearGradient50"
       spreadMethod="pad"
       gradientTransform="matrix(198.15125,-205.50314,-205.50314,-198.15125,19.012087,161.96339)"
       gradientUnits="userSpaceOnUse"
       y2="0"
       x2="1"
       y1="0"
       x1="0"><stop
         id="stop44"
         offset="0"
         style="stop-opacity:1;stop-color:#003154" /><stop
         id="stop46"
         offset="0.999999"
         style="stop-opacity:1;stop-color:#001836" /><stop
         id="stop48"
         offset="1"
         style="stop-opacity:1;stop-color:#001836" /></linearGradient><clipPath
       id="clipPath60"
       clipPathUnits="userSpaceOnUse"><path
         id="path58"
         d="M 79.597,100.277 C 71.32,91.173 13.382,70.501 13.382,70.501 v 0 V 0 h 87.847 c -3.644,17.354 -7.892,40.886 -9.631,63.052 v 0 c -1.819,23.19 4.105,43.378 9.815,56.868 v 0 C 94.999,115.841 86.234,107.579 79.597,100.277" /></clipPath><linearGradient
       id="linearGradient72"
       spreadMethod="pad"
       gradientTransform="matrix(88.518616,0,0,-88.518616,13.381826,58.378235)"
       gradientUnits="userSpaceOnUse"
       y2="0"
       x2="1"
       y1="0"
       x1="0"><stop
         id="stop66"
         offset="0"
         style="stop-opacity:1;stop-color:#00386e" /><stop
         id="stop68"
         offset="1"
         style="stop-opacity:1;stop-color:#00275a" /><stop
         id="stop70"
         offset="1"
         style="stop-opacity:1;stop-color:#00275a" /></linearGradient><clipPath
       id="clipPath82"
       clipPathUnits="userSpaceOnUse"><path
         id="path80"
         d="M 198.37,63.052 C 196.631,40.886 192.383,17.354 188.739,0 V 0 H 277 v 65.369 c 0,0 -57.938,25.804 -66.215,34.908 v 0 c -6.833,7.516 -14.052,16.238 -20.509,19.974 v 0 c 5.753,-13.489 9.928,-33.814 8.094,-57.199" /></clipPath><linearGradient
       id="linearGradient94"
       spreadMethod="pad"
       gradientTransform="matrix(88.932457,0,0,-88.932457,188.06755,55.977955)"
       gradientUnits="userSpaceOnUse"
       y2="0"
       x2="1"
       y1="0"
       x1="0"><stop
         id="stop88"
         offset="0"
         style="stop-opacity:1;stop-color:#00386e" /><stop
         id="stop90"
         offset="1"
         style="stop-opacity:1;stop-color:#00275a" /><stop
         id="stop92"
         offset="1"
         style="stop-opacity:1;stop-color:#00275a" /></linearGradient><clipPath
       id="clipPath104"
       clipPathUnits="userSpaceOnUse"><path
         id="path102"
         d="M 0,300 H 300 V 0 H 0 Z" /></clipPath><clipPath
       id="clipPath116"
       clipPathUnits="userSpaceOnUse"><path
         id="path114"
         d="m 125.96,250.581 c 0,0 -13.854,-1.014 -26.02,-15.883 v 0 C 87.775,219.829 90.478,181.306 90.478,181.306 v 0 c -4.731,4.731 -4.731,-4.055 -5.406,-22.303 v 0 c -0.676,-18.248 7.772,-16.557 7.772,-16.557 v 0 c 0,0 0.676,-13.518 3.379,-18.249 v 0 c 2.703,-4.731 14.869,-18.924 28.386,-21.627 v 0 c 13.517,-2.702 39.198,3.379 52.039,12.841 v 0 c 12.842,9.462 12.842,36.495 12.842,36.495 v 0 c 0,0 4.781,-10.091 11.827,-0.337 v 0 c 8.785,12.165 3.041,40.213 -1.69,40.889 v 0 c -4.73,0.676 -7.434,-13.517 -7.434,-13.517 v 0 c 0,0 -8.11,29.061 -14.193,52.715 v 0 c -4.279,16.644 -23.279,19.905 -37.698,19.904 v 0 c -6.074,0 -11.337,-0.579 -14.342,-0.979" /></clipPath><linearGradient
       id="linearGradient126"
       spreadMethod="pad"
       gradientTransform="matrix(-16.5,145.5,145.5,16.5,152.03253,105.97791)"
       gradientUnits="userSpaceOnUse"
       y2="0"
       x2="1"
       y1="0"
       x1="0"><stop
         id="stop122"
         offset="0"
         style="stop-opacity:1;stop-color:#ffcb9d" /><stop
         id="stop124"
         offset="1"
         style="stop-opacity:1;stop-color:#f7af7a" /></linearGradient><clipPath
       id="clipPath136"
       clipPathUnits="userSpaceOnUse"><path
         id="path134"
         d="M 0,300 H 300 V 0 H 0 Z" /></clipPath><clipPath
       id="clipPath148"
       clipPathUnits="userSpaceOnUse"><path
         id="path146"
         d="m 157.387,204.961 c 0,0 -16.22,-0.675 -19.6,-2.704 v 0 c -3.379,-2.027 3.38,-14.868 6.083,-19.599 v 0 c 2.703,-4.731 10.814,-4.731 22.978,-2.703 v 0 c 12.166,2.027 8.787,14.868 8.787,20.951 v 0 c 0,3.649 -4.865,4.379 -9.78,4.379 v 0 c -3.277,0 -6.576,-0.324 -8.468,-0.324" /></clipPath><linearGradient
       id="linearGradient158"
       spreadMethod="pad"
       gradientTransform="matrix(-10,106.66666,106.66666,10,162.51781,133.51729)"
       gradientUnits="userSpaceOnUse"
       y2="0"
       x2="1"
       y1="0"
       x1="0"><stop
         id="stop154"
         offset="0"
         style="stop-opacity:1;stop-color:#ffcb9d" /><stop
         id="stop156"
         offset="1"
         style="stop-opacity:1;stop-color:#f7af7a" /></linearGradient><clipPath
       id="clipPath168"
       clipPathUnits="userSpaceOnUse"><path
         id="path166"
         d="m 107.374,201.581 c 0,0 -10.813,-1.351 -15.544,-2.703 v 0 c -4.731,-1.351 -5.04,-5.869 -2.704,-16.22 v 0 c 2.366,-10.476 21.16,-6.892 26.358,-5.407 v 0 c 4.732,1.352 8.786,17.572 7.435,21.627 v 0 c -0.811,2.433 -4.541,2.919 -8.417,2.919 v 0 c -2.585,0 -5.235,-0.216 -7.128,-0.216" /></clipPath><linearGradient
       id="linearGradient178"
       spreadMethod="pad"
       gradientTransform="matrix(-10,106.66666,106.66666,10,111.58819,128.74265)"
       gradientUnits="userSpaceOnUse"
       y2="0"
       x2="1"
       y1="0"
       x1="0"><stop
         id="stop174"
         offset="0"
         style="stop-opacity:1;stop-color:#ffcb9d" /><stop
         id="stop176"
         offset="1"
         style="stop-opacity:1;stop-color:#f7af7a" /></linearGradient><clipPath
       id="clipPath188"
       clipPathUnits="userSpaceOnUse"><path
         id="path186"
         d="M 0,300 H 300 V 0 H 0 Z" /></clipPath></defs><g
     transform="matrix(1.3333333,0,0,-1.3333333,0,400)"
     id="g10"><g
       id="g12"><g
         clip-path="url(#clipPath18)"
         id="g14"><g
           id="g20"><g
             id="g22"><path
               id="path30"
               style="fill:url(#linearGradient28);stroke:none"
               d="m 100.844,132.417 c 0,0 7.206,-89.888 9.233,-95.971 v 0 c 2.029,-6.082 46.634,11.491 46.634,11.491 v 0 c 0,0 31.088,47.62 31.764,48.295 v 0 c 0.676,0.676 3.381,51.729 4.057,67.95 v 0 c 0.097,2.344 -1.752,3.347 -4.982,3.348 v 0 c -19.116,0.004 -86.706,-35.113 -86.706,-35.113" /></g></g></g></g><g
       id="g32"><g
         clip-path="url(#clipPath38)"
         id="g34"><g
           id="g40"><g
             id="g42"><path
               id="path52"
               style="fill:url(#linearGradient50);stroke:none"
               d="M 79.597,100.277 C 71.32,91.173 13.382,70.501 13.382,70.501 v 0 V 0 H 277 v 65.369 c 0,0 -57.938,25.804 -66.215,34.908 v 0 c -8.277,9.105 -16.403,18.434 -20.509,19.974 v 0 c 0,0 -0.596,-5.193 -2.393,-13.331 v 0 c -10.111,-45.756 -76.021,-43.835 -83.449,2.432 v 0 c -1.127,7.027 -1.395,11.412 -1.395,11.412 v 0 C 96.881,118.198 87.873,109.382 79.597,100.277" /></g></g></g></g><g
       id="g54"><g
         clip-path="url(#clipPath60)"
         id="g56"><g
           id="g62"><g
             id="g64"><path
               id="path74"
               style="fill:url(#linearGradient72);stroke:none"
               d="M 79.597,100.277 C 71.32,91.173 13.382,70.501 13.382,70.501 v 0 V 0 h 87.847 c -3.644,17.354 -7.892,40.886 -9.631,63.052 v 0 c -1.819,23.19 4.105,43.378 9.815,56.868 v 0 C 94.999,115.841 86.234,107.579 79.597,100.277" /></g></g></g></g><g
       id="g76"><g
         clip-path="url(#clipPath82)"
         id="g78"><g
           id="g84"><g
             id="g86"><path
               id="path96"
               style="fill:url(#linearGradient94);stroke:none"
               d="M 198.37,63.052 C 196.631,40.886 192.383,17.354 188.739,0 V 0 H 277 v 65.369 c 0,0 -57.938,25.804 -66.215,34.908 v 0 c -6.833,7.516 -14.052,16.238 -20.509,19.974 v 0 c 5.753,-13.489 9.928,-33.814 8.094,-57.199" /></g></g></g></g><g
       id="g98"><g
         clip-path="url(#clipPath104)"
         id="g100"><g
           transform="translate(118.188,268.4902)"
           id="g106"><path
             id="path108"
             style="fill:#0a131e;fill-opacity:1;fill-rule:nonzero;stroke:none"
             d="m 0,0 c 0,0 -2.704,3.379 -4.731,3.379 0,0 20.275,10.138 41.227,-1.351 l -1.352,2.703 c 0,0 17.572,-2.027 29.062,-20.951 C 75.695,-35.144 83.805,-54.067 79.074,-80.425 74.343,-106.784 68.26,-98.673 68.26,-98.673 l -89.211,14.868 -4.055,-4.055 -6.039,1.072 c 0,0 -2.747,40.155 6.714,57.727 0,0 -4.731,16.896 24.331,29.061" /></g></g></g><g
       id="g110"><g
         clip-path="url(#clipPath116)"
         id="g112"><g
           id="g118"><g
             id="g120"><path
               id="path128"
               style="fill:url(#linearGradient126);stroke:none"
               d="m 125.96,250.581 c 0,0 -13.854,-1.014 -26.02,-15.883 v 0 C 87.775,219.829 90.478,181.306 90.478,181.306 v 0 c -4.731,4.731 -4.731,-4.055 -5.406,-22.303 v 0 c -0.676,-18.248 7.772,-16.557 7.772,-16.557 v 0 c 0,0 0.676,-13.518 3.379,-18.249 v 0 c 2.703,-4.731 14.869,-18.924 28.386,-21.627 v 0 c 13.517,-2.702 39.198,3.379 52.039,12.841 v 0 c 12.842,9.462 12.842,36.495 12.842,36.495 v 0 c 0,0 4.781,-10.091 11.827,-0.337 v 0 c 8.785,12.165 3.041,40.213 -1.69,40.889 v 0 c -4.73,0.676 -7.434,-13.517 -7.434,-13.517 v 0 c 0,0 -8.11,29.061 -14.193,52.715 v 0 c -4.279,16.644 -23.279,19.905 -37.698,19.904 v 0 c -6.074,0 -11.337,-0.579 -14.342,-0.979" /></g></g></g></g><g
       id="g130"><g
         clip-path="url(#clipPath136)"
         id="g132"><g
           transform="translate(124.9463,198.2026)"
           id="g138"><path
             id="path140"
             style="fill:#313131;fill-opacity:1;fill-rule:nonzero;stroke:none"
             d="m 0,0 c 0,0 4.055,2.703 9.462,0.676 0,0 4.731,-18.924 10.813,-20.951 6.083,-2.028 24.33,-2.028 29.738,4.054 5.407,6.083 2.703,22.979 2.703,22.979 0,0 -2.028,2.703 -7.434,2.703 -5.407,0 -23.655,0.677 -35.144,-4.054 0,0 -6.759,0.676 -10.138,-1.352 0,0 -1.352,1.352 -4.731,1.352 -3.379,0 -27.034,2.027 -34.468,-5.407 0,0 -0.676,-4.731 0.676,-5.407 0,0 0.676,-3.379 1.352,-7.434 0.808,-4.854 0.675,-10.138 6.758,-10.814 6.082,-0.676 22.979,-1.351 25.006,2.703 C -3.379,-16.896 0.676,-8.11 0,0" /></g></g></g><g
       id="g142"><g
         clip-path="url(#clipPath148)"
         id="g144"><g
           id="g150"><g
             id="g152"><path
               id="path160"
               style="fill:url(#linearGradient158);stroke:none"
               d="m 157.387,204.961 c 0,0 -16.22,-0.675 -19.6,-2.704 v 0 c -3.379,-2.027 3.38,-14.868 6.083,-19.599 v 0 c 2.703,-4.731 10.814,-4.731 22.978,-2.703 v 0 c 12.166,2.027 8.787,14.868 8.787,20.951 v 0 c 0,3.649 -4.865,4.379 -9.78,4.379 v 0 c -3.277,0 -6.576,-0.324 -8.468,-0.324" /></g></g></g></g><g
       id="g162"><g
         clip-path="url(#clipPath168)"
         id="g164"><g
           id="g170"><g
             id="g172"><path
               id="path180"
               style="fill:url(#linearGradient178);stroke:none"
               d="m 107.374,201.581 c 0,0 -10.813,-1.351 -15.544,-2.703 v 0 c -4.731,-1.351 -5.04,-5.869 -2.704,-16.22 v 0 c 2.366,-10.476 21.16,-6.892 26.358,-5.407 v 0 c 4.732,1.352 8.786,17.572 7.435,21.627 v 0 c -0.811,2.433 -4.541,2.919 -8.417,2.919 v 0 c -2.585,0 -5.235,-0.216 -7.128,-0.216" /></g></g></g></g><g
       id="g182"><g
         clip-path="url(#clipPath188)"
         id="g184"><g
           transform="translate(177.6621,198.8784)"
           id="g190"><path
             id="path192"
             style="fill:#313131;fill-opacity:1;fill-rule:nonzero;stroke:none"
             d="m 0,0 17.572,-8.11 c 0,0 4.055,1.351 1.352,3.379 -2.703,2.027 -19.6,10.814 -19.6,10.814 z" /></g></g></g></g></svg>