<?xml version="1.0" encoding="UTF-8" standalone="no"?>
<svg
   xmlns:dc="http://purl.org/dc/elements/1.1/"
   xmlns:cc="http://creativecommons.org/ns#"
   xmlns:rdf="http://www.w3.org/1999/02/22-rdf-syntax-ns#"
   xmlns:svg="http://www.w3.org/2000/svg"
   xmlns="http://www.w3.org/2000/svg"
   viewBox="0 0 400 400"
   height="400"
   width="400"
   xml:space="preserve"
   id="svg2"
   version="1.1"><metadata
     id="metadata8"><rdf:RDF><cc:Work
         rdf:about=""><dc:format>image/svg+xml</dc:format><dc:type
           rdf:resource="http://purl.org/dc/dcmitype/StillImage" /></cc:Work></rdf:RDF></metadata><defs
     id="defs6"><clipPath
       id="clipPath18"
       clipPathUnits="userSpaceOnUse"><path
         id="path16"
         d="m 109.418,135.584 3.255,-79.453 c 0,0 79.204,16.081 78.728,17.032 v 0 c -0.475,0.952 1.752,73.838 1.752,73.838 v 0 z" /></clipPath><linearGradient
       id="linearGradient30"
       spreadMethod="pad"
       gradientTransform="matrix(-2.8333335,23,23,2.8333335,155.92613,77.100807)"
       gradientUnits="userSpaceOnUse"
       y2="0"
       x2="1"
       y1="0"
       x1="0"><stop
         id="stop24"
         offset="0"
         style="stop-opacity:1;stop-color:#ffbba8" /><stop
         id="stop26"
         offset="1"
         style="stop-opacity:1;stop-color:#f19f87" /><stop
         id="stop28"
         offset="1"
         style="stop-opacity:1;stop-color:#f19f87" /></linearGradient><clipPath
       id="clipPath40"
       clipPathUnits="userSpaceOnUse"><path
         id="path38"
         d="M 0,300 H 300 V 0 H 0 Z" /></clipPath><clipPath
       id="clipPath52"
       clipPathUnits="userSpaceOnUse"><path
         id="path50"
         d="m 165.423,247.516 c -5.651,-0.927 -10.263,-1.854 -11.997,-1.317 v 0 c -13.084,4.043 -23.074,1.189 -27.356,-2.617 v 0 c -4.282,-3.806 -6.661,0.952 -9.992,2.854 v 0 c -3.33,1.904 -7.612,-9.991 -11.418,-35.681 v 0 c -3.806,-25.692 -8.087,-33.78 -8.087,-33.78 v 0 c 1.902,12.846 -1.19,21.648 -1.19,21.648 v 0 c -7.612,2.854 -5.234,-6.186 -3.806,-21.41 v 0 c 1.427,-15.225 4.757,-17.127 4.757,-17.127 v 0 -14.273 c 0,-11.894 16.652,-46.626 38.061,-51.383 v 0 c 21.409,-4.758 38.537,10.943 49.956,22.361 v 0 c 11.418,11.418 13.32,31.4 13.32,31.4 v 0 c 0,0 1.904,-7.137 10.468,5.709 v 0 c 8.563,12.846 9.515,33.78 4.758,32.828 v 0 c -4.758,-0.951 -11.896,-21.409 -11.896,-21.409 v 0 c -2.853,3.806 -2.377,42.819 -2.377,68.51 v 0 c 0,12.144 -8.78,15.163 -18.662,15.163 v 0 c -4.886,0 -10.042,-0.738 -14.539,-1.476" /></clipPath><linearGradient
       id="linearGradient64"
       spreadMethod="pad"
       gradientTransform="matrix(5.333333,102.5,102.5,-5.333333,149.75128,125.85874)"
       gradientUnits="userSpaceOnUse"
       y2="0"
       x2="1"
       y1="0"
       x1="0"><stop
         id="stop58"
         offset="0"
         style="stop-opacity:1;stop-color:#ffbba8" /><stop
         id="stop60"
         offset="1"
         style="stop-opacity:1;stop-color:#f19f87" /><stop
         id="stop62"
         offset="1"
         style="stop-opacity:1;stop-color:#f19f87" /></linearGradient><clipPath
       id="clipPath74"
       clipPathUnits="userSpaceOnUse"><path
         id="path72"
         d="M 0,300 H 300 V 0 H 0 Z" /></clipPath><clipPath
       id="clipPath86"
       clipPathUnits="userSpaceOnUse"><path
         id="path84"
         d="m 172.219,193.627 h -12.37 c -7.136,0 -5.71,-12.846 -1.427,-19.507 v 0 c 4.281,-6.66 19.981,-6.184 27.594,-5.233 v 0 c 7.612,0.951 7.612,13.797 7.137,19.506 v 0 c -0.409,4.894 -11.656,5.244 -18.155,5.244 v 0 c -1.082,0 -2.033,-0.01 -2.779,-0.01" /></clipPath><linearGradient
       id="linearGradient98"
       spreadMethod="pad"
       gradientTransform="matrix(12.5,111.33334,111.33334,-12.5,167.01849,121.58225)"
       gradientUnits="userSpaceOnUse"
       y2="0"
       x2="1"
       y1="0"
       x1="0"><stop
         id="stop92"
         offset="0"
         style="stop-opacity:1;stop-color:#ffbba8" /><stop
         id="stop94"
         offset="1"
         style="stop-opacity:1;stop-color:#f19f87" /><stop
         id="stop96"
         offset="1"
         style="stop-opacity:1;stop-color:#f19f87" /></linearGradient><clipPath
       id="clipPath108"
       clipPathUnits="userSpaceOnUse"><path
         id="path106"
         d="m 108.466,199.812 c -6.185,-0.476 -7.136,-10.943 -4.757,-18.08 v 0 c 2.379,-7.136 16.652,-8.563 25.215,-8.088 v 0 c 8.564,0.476 11.894,12.846 11.894,18.079 v 0 c 0,5.234 -16.651,7.137 -19.981,7.613 v 0 c 0,0 -3.959,0.609 -8.709,0.609 v 0 c -1.188,0 -2.425,-0.038 -3.662,-0.133" /></clipPath><linearGradient
       id="linearGradient120"
       spreadMethod="pad"
       gradientTransform="matrix(12.5,111.33334,111.33334,-12.5,114.56281,127.47174)"
       gradientUnits="userSpaceOnUse"
       y2="0"
       x2="1"
       y1="0"
       x1="0"><stop
         id="stop114"
         offset="0"
         style="stop-opacity:1;stop-color:#ffbba8" /><stop
         id="stop116"
         offset="1"
         style="stop-opacity:1;stop-color:#f19f87" /><stop
         id="stop118"
         offset="1"
         style="stop-opacity:1;stop-color:#f19f87" /></linearGradient><clipPath
       id="clipPath130"
       clipPathUnits="userSpaceOnUse"><path
         id="path128"
         d="M 88.541,93.483 C 80.786,84.953 26.5,65.584 26.5,65.584 v 0 V 0 h 247 v 60.776 c 0,0 -54.286,24.177 -62.041,32.707 v 0 c -7.755,8.531 -15.369,17.273 -19.215,18.716 v 0 c 0,0 -0.558,-4.867 -2.243,-12.492 v 0 c -9.473,-42.871 -71.229,-41.071 -78.188,2.278 v 0 c -1.057,6.586 -1.307,10.694 -1.307,10.694 v 0 c -5.769,-2.405 -14.21,-10.665 -21.965,-19.196" /></clipPath><linearGradient
       id="linearGradient140"
       spreadMethod="pad"
       gradientTransform="matrix(0,194.93141,194.93141,0,150,-41.123203)"
       gradientUnits="userSpaceOnUse"
       y2="0"
       x2="1"
       y1="0"
       x1="0"><stop
         id="stop136"
         offset="0"
         style="stop-opacity:1;stop-color:#005481" /><stop
         id="stop138"
         offset="1"
         style="stop-opacity:1;stop-color:#003e64" /></linearGradient><clipPath
       id="clipPath150"
       clipPathUnits="userSpaceOnUse"><path
         id="path148"
         d="M 88.541,93.483 C 80.786,84.953 26.5,65.584 26.5,65.584 v 0 V 0 h 82.21 c -3.391,16.213 -7.311,38.036 -8.924,58.604 v 0 c -1.705,21.728 3.846,40.645 9.196,53.284 v 0 C 102.973,108.067 94.76,100.324 88.541,93.483" /></clipPath><linearGradient
       id="linearGradient162"
       spreadMethod="pad"
       gradientTransform="matrix(141.81285,158.25491,158.25491,-141.81285,-2.39362,-47.446945)"
       gradientUnits="userSpaceOnUse"
       y2="0"
       x2="1"
       y1="0"
       x1="0"><stop
         id="stop156"
         offset="0"
         style="stop-opacity:1;stop-color:#003154" /><stop
         id="stop158"
         offset="0.999999"
         style="stop-opacity:1;stop-color:#001836" /><stop
         id="stop160"
         offset="1"
         style="stop-opacity:1;stop-color:#001836" /></linearGradient><clipPath
       id="clipPath172"
       clipPathUnits="userSpaceOnUse"><path
         id="path170"
         d="M 199.826,58.604 C 198.213,38.036 194.294,16.213 190.902,0 V 0 H 273.5 v 60.776 c 0,0 -54.286,24.177 -62.041,32.707 v 0 c -6.401,7.042 -13.167,15.215 -19.215,18.716 v 0 c 5.39,-12.639 9.301,-31.683 7.582,-53.595" /></clipPath><linearGradient
       id="linearGradient184"
       spreadMethod="pad"
       gradientTransform="matrix(-111.49779,101.73531,101.73531,111.49779,288.17252,-22.733139)"
       gradientUnits="userSpaceOnUse"
       y2="0"
       x2="1"
       y1="0"
       x1="0"><stop
         id="stop178"
         offset="0"
         style="stop-opacity:1;stop-color:#003154" /><stop
         id="stop180"
         offset="0.999999"
         style="stop-opacity:1;stop-color:#001836" /><stop
         id="stop182"
         offset="1"
         style="stop-opacity:1;stop-color:#001836" /></linearGradient></defs><g
     transform="matrix(1.3333333,0,0,-1.3333333,0,400)"
     id="g10"><g
       id="g12"><g
         clip-path="url(#clipPath18)"
         id="g14"><g
           id="g20"><g
             id="g22"><path
               id="path32"
               style="fill:url(#linearGradient30);stroke:none"
               d="m 109.418,135.584 3.255,-79.453 c 0,0 79.204,16.081 78.728,17.032 v 0 c -0.475,0.952 1.752,73.838 1.752,73.838 v 0 z" /></g></g></g></g><g
       id="g34"><g
         clip-path="url(#clipPath40)"
         id="g36"><g
           transform="translate(120.3604,271.6519)"
           id="g42"><path
             id="path44"
             style="fill:#0a131e;fill-opacity:1;fill-rule:nonzero;stroke:none"
             d="m 0,0 c 0,0 18.079,2.379 24.264,0 0,0 -0.952,3.331 -3.33,4.758 0,0 19.982,4.282 32.352,-4.758 0,0 0.476,-0.476 0,1.427 0,0 9.515,1.904 25.215,-18.078 0,0 13.321,-5.71 14.749,-14.273 0,0 9.991,-10.943 4.281,-27.595 0,0 -1.902,-37.585 -4.281,-42.343 -2.379,-4.757 -34.73,-14.273 -34.73,-14.273 0,0 -26.167,6.661 -26.644,6.661 -0.476,0 -47.1,4.282 -47.1,4.282 0,0 -8.088,1.903 -8.088,2.855 0,0.951 -2.379,24.263 -2.379,24.263 0,0 -1.903,39.489 1.903,46.625 0,0 -4.282,5.234 10.942,14.749 0,0 7.613,6.66 7.137,10.943 0,0 4.282,-3.331 5.709,4.757" /></g></g></g><g
       id="g46"><g
         clip-path="url(#clipPath52)"
         id="g48"><g
           id="g54"><g
             id="g56"><path
               id="path66"
               style="fill:url(#linearGradient64);stroke:none"
               d="m 165.423,247.516 c -5.651,-0.927 -10.263,-1.854 -11.997,-1.317 v 0 c -13.084,4.043 -23.074,1.189 -27.356,-2.617 v 0 c -4.282,-3.806 -6.661,0.952 -9.992,2.854 v 0 c -3.33,1.904 -7.612,-9.991 -11.418,-35.681 v 0 c -3.806,-25.692 -8.087,-33.78 -8.087,-33.78 v 0 c 1.902,12.846 -1.19,21.648 -1.19,21.648 v 0 c -7.612,2.854 -5.234,-6.186 -3.806,-21.41 v 0 c 1.427,-15.225 4.757,-17.127 4.757,-17.127 v 0 -14.273 c 0,-11.894 16.652,-46.626 38.061,-51.383 v 0 c 21.409,-4.758 38.537,10.943 49.956,22.361 v 0 c 11.418,11.418 13.32,31.4 13.32,31.4 v 0 c 0,0 1.904,-7.137 10.468,5.709 v 0 c 8.563,12.846 9.515,33.78 4.758,32.828 v 0 c -4.758,-0.951 -11.896,-21.409 -11.896,-21.409 v 0 c -2.853,3.806 -2.377,42.819 -2.377,68.51 v 0 c 0,12.144 -8.78,15.163 -18.662,15.163 v 0 c -4.886,0 -10.042,-0.738 -14.539,-1.476" /></g></g></g></g><g
       id="g68"><g
         clip-path="url(#clipPath74)"
         id="g70"><g
           transform="translate(147.9546,187.4419)"
           id="g76"><path
             id="path78"
             style="fill:#313131;fill-opacity:1;fill-rule:nonzero;stroke:none"
             d="m 0,0 c 2.855,0 6.661,-9.991 8.088,-14.749 1.427,-4.757 23.313,-8.088 31.401,-5.233 8.088,2.855 9.514,13.797 9.514,13.797 0,0 3.86,3.33 9.067,-0.952 0,0 7.11,5.71 4.256,8.564 -2.856,2.855 -9.992,1.427 -9.992,1.427 0,0 -6.661,4.282 -12.845,4.758 C 33.303,8.088 9.515,8.564 7.136,7.612 4.758,6.661 2.379,6.661 0.952,6.661 c -1.428,0 -12.846,6.185 -21.41,6.66 -8.563,0.476 -23.788,2.855 -28.545,0.476 l -4.594,2.196 v -4.484 l 3.166,-5.324 c 0,0 1.428,-1.427 2.855,-9.039 1.427,-7.613 4.758,-9.992 13.321,-11.419 8.564,-1.427 22.837,-3.331 26.643,6.185 C -3.806,1.427 0,0 0,0" /></g></g></g><g
       id="g80"><g
         clip-path="url(#clipPath86)"
         id="g82"><g
           id="g88"><g
             id="g90"><path
               id="path100"
               style="fill:url(#linearGradient98);stroke:none"
               d="m 172.219,193.627 h -12.37 c -7.136,0 -5.71,-12.846 -1.427,-19.507 v 0 c 4.281,-6.66 19.981,-6.184 27.594,-5.233 v 0 c 7.612,0.951 7.612,13.797 7.137,19.506 v 0 c -0.409,4.894 -11.656,5.244 -18.155,5.244 v 0 c -1.082,0 -2.033,-0.01 -2.779,-0.01" /></g></g></g></g><g
       id="g102"><g
         clip-path="url(#clipPath108)"
         id="g104"><g
           id="g110"><g
             id="g112"><path
               id="path122"
               style="fill:url(#linearGradient120);stroke:none"
               d="m 108.466,199.812 c -6.185,-0.476 -7.136,-10.943 -4.757,-18.08 v 0 c 2.379,-7.136 16.652,-8.563 25.215,-8.088 v 0 c 8.564,0.476 11.894,12.846 11.894,18.079 v 0 c 0,5.234 -16.651,7.137 -19.981,7.613 v 0 c 0,0 -3.959,0.609 -8.709,0.609 v 0 c -1.188,0 -2.425,-0.038 -3.662,-0.133" /></g></g></g></g><g
       id="g124"><g
         clip-path="url(#clipPath130)"
         id="g126"><g
           id="g132"><g
             id="g134"><path
               id="path142"
               style="fill:url(#linearGradient140);stroke:none"
               d="M 88.541,93.483 C 80.786,84.953 26.5,65.584 26.5,65.584 v 0 V 0 h 247 v 60.776 c 0,0 -54.286,24.177 -62.041,32.707 v 0 c -7.755,8.531 -15.369,17.273 -19.215,18.716 v 0 c 0,0 -0.558,-4.867 -2.243,-12.492 v 0 c -9.473,-42.871 -71.229,-41.071 -78.188,2.278 v 0 c -1.057,6.586 -1.307,10.694 -1.307,10.694 v 0 c -5.769,-2.405 -14.21,-10.665 -21.965,-19.196" /></g></g></g></g><g
       id="g144"><g
         clip-path="url(#clipPath150)"
         id="g146"><g
           id="g152"><g
             id="g154"><path
               id="path164"
               style="fill:url(#linearGradient162);stroke:none"
               d="M 88.541,93.483 C 80.786,84.953 26.5,65.584 26.5,65.584 v 0 V 0 h 82.21 c -3.391,16.213 -7.311,38.036 -8.924,58.604 v 0 c -1.705,21.728 3.846,40.645 9.196,53.284 v 0 C 102.973,108.067 94.76,100.324 88.541,93.483" /></g></g></g></g><g
       id="g166"><g
         clip-path="url(#clipPath172)"
         id="g168"><g
           id="g174"><g
             id="g176"><path
               id="path186"
               style="fill:url(#linearGradient184);stroke:none"
               d="M 199.826,58.604 C 198.213,38.036 194.294,16.213 190.902,0 V 0 H 273.5 v 60.776 c 0,0 -54.286,24.177 -62.041,32.707 v 0 c -6.401,7.042 -13.167,15.215 -19.215,18.716 v 0 c 5.39,-12.639 9.301,-31.683 7.582,-53.595" /></g></g></g></g></g></svg>