<?xml version="1.0" encoding="UTF-8" standalone="no"?>
<svg
   xmlns:dc="http://purl.org/dc/elements/1.1/"
   xmlns:cc="http://creativecommons.org/ns#"
   xmlns:rdf="http://www.w3.org/1999/02/22-rdf-syntax-ns#"
   xmlns:svg="http://www.w3.org/2000/svg"
   xmlns="http://www.w3.org/2000/svg"
   viewBox="0 0 400 400"
   height="400"
   width="400"
   xml:space="preserve"
   id="svg2"
   version="1.1"><metadata
     id="metadata8"><rdf:RDF><cc:Work
         rdf:about=""><dc:format>image/svg+xml</dc:format><dc:type
           rdf:resource="http://purl.org/dc/dcmitype/StillImage" /></cc:Work></rdf:RDF></metadata><defs
     id="defs6"><clipPath
       id="clipPath22"
       clipPathUnits="userSpaceOnUse"><path
         id="path20"
         d="M 0,300 H 300 V 0 H 0 Z" /></clipPath><clipPath
       id="clipPath42"
       clipPathUnits="userSpaceOnUse"><path
         id="path40"
         d="m 150.443,33.873 c -18.937,7.364 -42.947,82.897 -42.947,82.897 v 0 C 75.596,115.5 14.199,67.482 14.199,67.482 v 0 L 7.965,0 h 284.962 l -6.239,72.1 c 0,0 -61.397,43.4 -93.298,44.67 v 0 c 0,0 -24.009,-75.533 -42.947,-82.897" /></clipPath><linearGradient
       id="linearGradient54"
       spreadMethod="pad"
       gradientTransform="matrix(0,-115.7975,-115.7975,0,150.44333,113.65987)"
       gradientUnits="userSpaceOnUse"
       y2="0"
       x2="1"
       y1="0"
       x1="0"><stop
         id="stop48"
         offset="0"
         style="stop-opacity:1;stop-color:#003154" /><stop
         id="stop50"
         offset="0.999999"
         style="stop-opacity:1;stop-color:#001836" /><stop
         id="stop52"
         offset="1"
         style="stop-opacity:1;stop-color:#001836" /></linearGradient><clipPath
       id="clipPath64"
       clipPathUnits="userSpaceOnUse"><path
         id="path62"
         d="M 0,300 H 300 V 0 H 0 Z" /></clipPath><clipPath
       id="clipPath76"
       clipPathUnits="userSpaceOnUse"><path
         id="path74"
         d="m 115.546,231.688 c -13.39,-9.452 -15.752,-61.041 -15.752,-61.041 v 0 c 0,0 -2.758,13.784 -4.529,12.406 v 0 c -2.233,-1.737 2.165,-20.676 3.458,-21.033 v 0 c 1.291,-0.358 2.93,-14.805 4.418,-21.499 v 0 c 4.726,-21.265 27.96,-44.501 43.713,-44.894 v 0 c 15.752,-0.393 23.628,4.332 37.018,16.933 v 0 c 13.389,12.603 17.327,49.621 17.327,49.621 v 0 c 0,0 1.969,-1.575 3.544,6.301 v 0 c 2.645,13.22 0.395,18.902 -1.18,18.902 v 0 c -1.577,0 -1.97,-10.632 -1.97,-10.632 v 0 c -6.694,7.482 -7.483,15.752 -14.965,38.199 v 0 c -7.482,22.446 -27.567,24.81 -42.138,24.81 v 0 c 0,0 -0.356,0.016 -1.004,0.016 v 0 c -3.751,0 -17.266,-0.555 -27.94,-8.089" /></clipPath><linearGradient
       id="linearGradient86"
       spreadMethod="pad"
       gradientTransform="matrix(-2.3333335,74.833336,74.833336,2.3333335,151.08199,154.90344)"
       gradientUnits="userSpaceOnUse"
       y2="0"
       x2="1"
       y1="0"
       x1="0"><stop
         id="stop82"
         offset="0"
         style="stop-opacity:1;stop-color:#ffbca9" /><stop
         id="stop84"
         offset="1"
         style="stop-opacity:1;stop-color:#ffaf96" /></linearGradient></defs><g
     transform="matrix(1.3333333,0,0,-1.3333333,0,400)"
     id="g10"><g
       transform="translate(150.4434,153.8101)"
       id="g12"><path
         id="path14"
         style="fill:#162030;fill-opacity:1;fill-rule:nonzero;stroke:none"
         d="M 0,0 -43.135,-36.823 V -139.4 H 0 43.135 v 102.577 z" /></g><g
       id="g16"><g
         clip-path="url(#clipPath22)"
         id="g18"><g
           transform="translate(162.0068,85.8809)"
           id="g24"><path
             id="path26"
             style="fill:#29334a;fill-opacity:1;fill-rule:nonzero;stroke:none"
             d="m 0,0 0.073,0.006 12.1,6.312 -4.209,8.417 -15.734,-6.367 -6.879,0.01 -12.35,5.369 -2.976,-9.883 8.195,-5.956 c 1.274,-4.127 2.529,-14.753 2.852,-15.723 l -6.313,-21.568 14.729,-17.886 14.73,11.047 -6.839,25.777 z" /></g><g
           transform="translate(140.9746,102.2578)"
           id="g28"><path
             id="path30"
             style="fill:#e4feff;fill-opacity:1;fill-rule:nonzero;stroke:none"
             d="m 0,0 c 0,0 -15.255,-25.249 -14.729,-34.192 0,0 -22.094,31.037 -19.463,45.239 2.63,14.203 7.364,21.042 7.364,21.042 z" /></g><g
           transform="translate(159.9121,102.2578)"
           id="g32"><path
             id="path34"
             style="fill:#e4feff;fill-opacity:1;fill-rule:nonzero;stroke:none"
             d="m 0,0 c 0,0 15.255,-25.249 14.729,-34.192 0,0 22.093,31.037 19.463,45.239 -2.63,14.203 -7.364,21.042 -7.364,21.042 z" /></g></g></g><g
       id="g36"><g
         clip-path="url(#clipPath42)"
         id="g38"><g
           id="g44"><g
             id="g46"><path
               id="path56"
               style="fill:url(#linearGradient54);stroke:none"
               d="m 150.443,33.873 c -18.937,7.364 -42.947,82.897 -42.947,82.897 v 0 C 75.596,115.5 14.199,67.482 14.199,67.482 v 0 L 7.965,0 h 284.962 l -6.239,72.1 c 0,0 -61.397,43.4 -93.298,44.67 v 0 c 0,0 -24.009,-75.533 -42.947,-82.897" /></g></g></g></g><g
       id="g58"><g
         clip-path="url(#clipPath64)"
         id="g60"><g
           transform="translate(123.8159,249.4092)"
           id="g66"><path
             id="path68"
             style="fill:#ffca7e;fill-opacity:1;fill-rule:nonzero;stroke:none"
             d="m 0,0 c 0,0 11.814,14.177 33.473,11.814 21.66,-2.362 34.262,-15.752 38.2,-23.234 3.938,-7.483 11.42,-42.138 9.058,-58.678 -2.363,-16.54 -55.921,-9.057 -55.921,-9.057 0,0 -42.925,-8.27 -43.713,-8.664 -0.787,-0.394 -7.876,8.664 -7.876,8.664 0,0 -2.757,31.898 -1.575,36.23 0,0 -5.908,11.421 1.575,23.235 C -19.297,-7.876 -14.177,-1.969 0,0" /></g></g></g><g
       id="g70"><g
         clip-path="url(#clipPath76)"
         id="g72"><g
           id="g78"><g
             id="g80"><path
               id="path88"
               style="fill:url(#linearGradient86);stroke:none"
               d="m 115.546,231.688 c -13.39,-9.452 -15.752,-61.041 -15.752,-61.041 v 0 c 0,0 -2.758,13.784 -4.529,12.406 v 0 c -2.233,-1.737 2.165,-20.676 3.458,-21.033 v 0 c 1.291,-0.358 2.93,-14.805 4.418,-21.499 v 0 c 4.726,-21.265 27.96,-44.501 43.713,-44.894 v 0 c 15.752,-0.393 23.628,4.332 37.018,16.933 v 0 c 13.389,12.603 17.327,49.621 17.327,49.621 v 0 c 0,0 1.969,-1.575 3.544,6.301 v 0 c 2.645,13.22 0.395,18.902 -1.18,18.902 v 0 c -1.577,0 -1.97,-10.632 -1.97,-10.632 v 0 c -6.694,7.482 -7.483,15.752 -14.965,38.199 v 0 c -7.482,22.446 -27.567,24.81 -42.138,24.81 v 0 c 0,0 -0.356,0.016 -1.004,0.016 v 0 c -3.751,0 -17.266,-0.555 -27.94,-8.089" /></g></g></g></g></g></svg>