<?xml version="1.0" encoding="utf-8"?>
<!-- Generator: Adobe Illustrator 22.0.0, SVG Export Plug-In . SVG Version: 6.00 Build 0)  -->
<svg version="1.1" id="Layer_1" xmlns="http://www.w3.org/2000/svg" xmlns:xlink="http://www.w3.org/1999/xlink" x="0px" y="0px"
	 viewBox="0 0 600 600" style="enable-background:new 0 0 600 600;" xml:space="preserve">
<style type="text/css">
	.st0{opacity:0.15;fill:#3D3D41;}
	.st1{fill:#FFFFFF;}
	.st2{fill:#3D3D41;}
	.st3{font-family:'Omnes_GirlScouts-Medium';}
	.st4{font-size:18.2133px;}
	.st5{fill:none;stroke:#D6DCEB;stroke-width:1.0593;stroke-miterlimit:10;}
	.st6{fill:none;stroke:#3D3D41;stroke-width:2.6483;stroke-linecap:round;stroke-linejoin:round;stroke-miterlimit:10;}
	.st7{opacity:0.7;fill:none;stroke:#589AF8;stroke-width:3.586;stroke-linecap:round;stroke-linejoin:round;stroke-miterlimit:10;}
	.st8{fill:none;}
	.st9{clip-path:url(#SVGID_2_);fill-rule:evenodd;clip-rule:evenodd;fill:#5676DD;}
	.st10{clip-path:url(#SVGID_2_);}
	.st11{fill-rule:evenodd;clip-rule:evenodd;fill:#EFD271;}
	.st12{fill-rule:evenodd;clip-rule:evenodd;fill:#F5DCCA;}
	.st13{fill-rule:evenodd;clip-rule:evenodd;fill:#6F3111;}
	.st14{clip-path:url(#SVGID_4_);fill-rule:evenodd;clip-rule:evenodd;fill:#5676DD;}
	.st15{clip-path:url(#SVGID_4_);}
	.st16{fill-rule:evenodd;clip-rule:evenodd;fill:#B67B58;}
	.st17{fill-rule:evenodd;clip-rule:evenodd;fill:#DFB889;}
	.st18{fill-rule:evenodd;clip-rule:evenodd;fill:#DA3C69;}
	.st19{fill-rule:evenodd;clip-rule:evenodd;fill:#DCB98D;}
	.st20{clip-path:url(#SVGID_6_);fill-rule:evenodd;clip-rule:evenodd;fill:#5676DD;}
	.st21{clip-path:url(#SVGID_6_);}
	.st22{fill-rule:evenodd;clip-rule:evenodd;fill:#DF6920;}
	.st23{fill-rule:evenodd;clip-rule:evenodd;fill:#F5DCCB;}
	.st24{fill-rule:evenodd;clip-rule:evenodd;fill:#FFFFFF;}
	.st25{fill-rule:evenodd;clip-rule:evenodd;fill:#6F3110;}
	.st26{clip-path:url(#SVGID_8_);fill-rule:evenodd;clip-rule:evenodd;fill:#5676DD;}
	.st27{clip-path:url(#SVGID_8_);}
	.st28{fill-rule:evenodd;clip-rule:evenodd;fill:#EFC464;}
	.st29{fill-rule:evenodd;clip-rule:evenodd;fill:#96BAE8;}
	.st30{clip-path:url(#SVGID_10_);fill-rule:evenodd;clip-rule:evenodd;fill:#5676DD;}
	.st31{clip-path:url(#SVGID_10_);}
	.st32{fill-rule:evenodd;clip-rule:evenodd;fill:#88C297;}
	.st33{fill-rule:evenodd;clip-rule:evenodd;fill:#D5A577;}
	.st34{fill-rule:evenodd;clip-rule:evenodd;fill:#45210B;}
	.st35{fill-rule:evenodd;clip-rule:evenodd;fill:#05D0A9;}
	.st36{opacity:0.7;}
	.st37{fill:none;stroke:#589AF8;stroke-width:1.0593;stroke-linecap:round;stroke-linejoin:round;}
	.st38{fill:none;stroke:#589AF8;stroke-width:1.0593;stroke-linecap:round;stroke-linejoin:round;stroke-dasharray:0.5219,2.0874;}
	
		.st39{fill-rule:evenodd;clip-rule:evenodd;fill:none;stroke:#589AF8;stroke-width:1.0593;stroke-linecap:round;stroke-linejoin:round;stroke-miterlimit:10;stroke-dasharray:0.5297,2.1187;}
	.st40{fill:none;stroke:#589AF8;stroke-width:1.0593;stroke-linecap:round;stroke-linejoin:round;stroke-dasharray:0.5361,2.1446;}
	.st41{fill:#E1E9F5;}
	.st42{fill:#D4DFF3;}
	.st43{display:none;}
	.st44{display:inline;fill:#C6D4E8;}
	.st45{opacity:0.3;fill:#3D3D41;}
	.st46{fill:#F1CD3B;}
	.st47{fill:#F2D265;}
	.st48{fill:#D8B836;}
	.st49{fill:#C6D4E8;}
	.st50{opacity:0.3;}
	.st51{fill:#95AB42;}
	.st52{fill:#ABC64B;}
	.st53{fill:#E5ECB2;}
	.st54{fill:#B6D350;}
	.st55{clip-path:url(#SVGID_12_);}
	.st56{clip-path:url(#SVGID_14_);}
	.st57{fill:#FFB74D;}
	.st58{fill:#FECF37;}
</style>
<g>
	
		<ellipse transform="matrix(0.5009 -0.8655 0.8655 0.5009 -230.4435 506.5128)" class="st0" cx="324" cy="453.1" rx="6.8" ry="160.2"/>
	<g>
		<g id="XMLID_510_">
			
				<image style="overflow:visible;opacity:0.7;" width="269" height="504" xlink:href="2C13D12.png"  transform="matrix(1 0 0 1 205.233 8.233)">
			</image>
			<g>
				<path class="st1" d="M460,503.7L218.8,364.5c-4.6-2.6-8.3-9.7-8.3-15.8V19.3c0-6.1,3.7-8.9,8.3-6.3L460,152.3
					c4.6,2.6,8.3,9.7,8.3,15.8v329.4C468.2,503.6,464.5,506.4,460,503.7z"/>
			</g>
		</g>
		<g id="XMLID_508_">
			<text transform="matrix(0.866 0.5 0 1 300.291 91.3919)" class="st2 st3 st4">Top Users</text>
		</g>
		<line id="XMLID_507_" class="st5" x1="220.6" y1="84.1" x2="454.4" y2="219.1"/>
		<line id="XMLID_506_" class="st5" x1="220.6" y1="136.1" x2="454.4" y2="271.1"/>
		<line id="XMLID_504_" class="st6" x1="281.7" y1="107.9" x2="325.9" y2="133.4"/>
		<line id="XMLID_502_" class="st6" x1="351.8" y1="148.3" x2="380.9" y2="165.1"/>
		<line id="XMLID_500_" class="st6" x1="416.9" y1="185.9" x2="436" y2="196.9"/>
		<line id="XMLID_499_" class="st7" x1="281.7" y1="145.3" x2="310.8" y2="162.1"/>
		<line id="XMLID_498_" class="st7" x1="351.8" y1="185.8" x2="370.9" y2="196.8"/>
		<line id="XMLID_497_" class="st7" x1="416.9" y1="223.4" x2="426" y2="228.6"/>
		<line id="XMLID_496_" class="st5" x1="220.6" y1="188.1" x2="454.4" y2="323.1"/>
		<line id="XMLID_495_" class="st7" x1="281.7" y1="197.4" x2="335.9" y2="228.6"/>
		<line id="XMLID_494_" class="st7" x1="351.8" y1="237.8" x2="365.9" y2="246"/>
		<line id="XMLID_493_" class="st7" x1="416.9" y1="275.4" x2="431" y2="283.5"/>
		<line id="XMLID_492_" class="st5" x1="220.6" y1="240.1" x2="454.4" y2="375.1"/>
		<line id="XMLID_491_" class="st5" x1="220.6" y1="292.1" x2="454.4" y2="427.1"/>
		<line id="XMLID_490_" class="st7" x1="281.7" y1="301.4" x2="310.8" y2="318.2"/>
		<line id="XMLID_489_" class="st7" x1="351.8" y1="341.9" x2="365.9" y2="350"/>
		<line id="XMLID_488_" class="st7" x1="416.9" y1="379.4" x2="426" y2="384.7"/>
		<line id="XMLID_487_" class="st5" x1="220.6" y1="344.2" x2="454.4" y2="479.2"/>
		<line id="XMLID_486_" class="st7" x1="281.7" y1="353.4" x2="325.9" y2="378.9"/>
		<line id="XMLID_485_" class="st7" x1="351.8" y1="393.9" x2="370.9" y2="404.9"/>
		<line id="XMLID_484_" class="st7" x1="416.9" y1="431.5" x2="431" y2="439.6"/>
		
			<ellipse id="XMLID_474_" transform="matrix(0.866 -0.5 0.5 0.866 -28.9883 138.1795)" class="st8" cx="243.3" cy="123.2" rx="12.9" ry="22.3"/>
		<g>
			<g>
				<defs>
					
						<ellipse id="SVGID_1_" transform="matrix(0.866 -0.5 0.5 0.866 -30.1011 141.7849)" cx="249.5" cy="127.1" rx="13.6" ry="23.6"/>
				</defs>
				<clipPath id="SVGID_2_">
					<use xlink:href="#SVGID_1_"  style="overflow:visible;"/>
				</clipPath>
				<ellipse transform="matrix(0.866 -0.5 0.5 0.866 -30.1011 141.7849)" class="st9" cx="249.5" cy="127.1" rx="13.6" ry="23.6"/>
				<g id="XMLID_465_" class="st10">
					<path id="XMLID_473_" class="st11" d="M246.5,141.1c-0.2-0.2-3.6-4.1-3.6-4.1c-1.5-0.3-1.9,3.5-2,5.7l3.7,2.1L246.5,141.1z"/>
					<path id="XMLID_472_" class="st11" d="M252.6,144.6c0.2,0,3.6,0.1,3.6,0.1c1.5,1.5,1.9,5.6,2,8.1l-3.7-2.1L252.6,144.6z"/>
					<path id="XMLID_471_" class="st12" d="M249.5,136.5l-1.6-0.9v1.2c0,0.7-0.1,0.5-0.7,0.6c0,0-0.6,0.2-0.7,0.2
						c0.7,3.1,1.5,6,2.9,9.2l0.4,0.2l0.4,0.2c1.4-1.6,1.7-3.9,2.4-6.2c-0.2-0.2-0.7-1-0.7-1c-0.6-0.7-0.7-0.6-0.7-1.4v-1.2
						L249.5,136.5z"/>
					<path id="XMLID_470_" class="st11" d="M249.5,142.9c-2.7-1.8-2.3-5.6-2.3-5.6c-0.9,0-4-0.4-4.4-0.3c0.3,0.9,0.7,4.1,1.1,7.5
						l5.6,3.2l5.6,3.2c0.4-3,0.8-5.7,1.1-6.3c-0.4-0.6-3.5-3.8-4.4-4.7C251.8,140,252.2,144.2,249.5,142.9z"/>
					<path id="XMLID_469_" class="st12" d="M253.8,130.7c-0.2,1.4,0.5,3.1,1.7,4.1c1.2,1,2.3,0.8,2.6-0.6c0.2-1.4-0.5-3.3-1.7-4.2
						C255.2,129,254.1,129.3,253.8,130.7z"/>
					<path id="XMLID_468_" class="st12" d="M245.5,125.9c0.2,1.7-0.5,2.5-1.7,2c-1.2-0.4-2.3-1.9-2.6-3.6c-0.2-1.7,0.5-2.7,1.7-2.2
						C244.1,122.5,245.3,124.2,245.5,125.9z"/>
					<path id="XMLID_467_" class="st12" d="M255.6,122.7c-1.2-2.5-3-4.8-4.9-6c0,0,0,0-0.1-0.1l0-0.1c0,0-0.5-0.2-1-0.5
						c-0.5-0.3-1-0.6-1-0.6l0,0.1c-0.1,0-0.1-0.1-0.1-0.1c-1.9-1-3.7-0.9-4.9,0.3c-1.2,1.2-1.3,3.4-1.2,5.6c0.1,1.7,0.3,4.5,0.4,6.3
						c1.9,9.1,11.9,15,13.6,7.8c0.1-1.6,0.3-4.2,0.4-5.8C257,127.6,256.8,125.2,255.6,122.7z"/>
					<path id="XMLID_466_" class="st13" d="M255.8,121.6c-0.1-0.9-0.5-2.3-0.5-2.3s-0.1,0.4-0.2,0.5c-0.1,0.1-0.2-0.4-0.6-1.4
						c-0.5-1-1.6-2.9-1.6-2.9s-0.3,0.5-0.4,0.7c-0.1,0.1-0.1-0.3-0.4-1.1c-0.3-0.8-1.3-2.7-1.2-2.8c0.1-0.1-0.3,0.6-1,1
						c-0.6,0.4-1.2,0.1-1.4,0.1c-0.2,0,0.1-0.4,0.1-0.5c0.1-0.1-0.1,0.1-0.6,0.1c-0.4,0.1-1.4,0-1.6,0.1c-0.2,0.1,0.3-0.5,0.3-0.5
						s-0.9-0.2-1.6,0.2c-0.6,0.3-1.5,1.1-1.9,1.9c-0.3,0.3-0.5,0.6-0.7,1.1c-0.6,1.6-0.6,3.2-0.4,7.1c0,0.5,0.1,0.9,0.1,1.4
						c0,0.3,0.1,0.6,0.1,0.9c0.3,1.7,0.3-5.1,1.3-6.3c0,0,0,0,0-0.1c0.3-0.9,1.2-0.9,2.1-0.1c1.4,1.3,3.3,3,3.7,3.2
						c0.9,0.5,2.6,1.1,3.9,1.5c0.9,0.3,1.7,1.3,2,2.4c0.8,3.3,1.3,7.6,1.3,7.6c0.2,0.1,0.2-0.7,0.2-0.8c0.1-1,0.2-2.1,0.2-3.2
						C257.2,127.8,257.5,125,255.8,121.6z"/>
				</g>
			</g>
		</g>
		<g>
			<g>
				<defs>
					
						<ellipse id="SVGID_3_" transform="matrix(0.866 -0.5 0.5 0.866 -55.9819 148.6629)" cx="249.4" cy="178.8" rx="13.6" ry="23.6"/>
				</defs>
				<clipPath id="SVGID_4_">
					<use xlink:href="#SVGID_3_"  style="overflow:visible;"/>
				</clipPath>
				<ellipse transform="matrix(0.866 -0.5 0.5 0.866 -55.9819 148.6629)" class="st14" cx="249.4" cy="178.8" rx="13.6" ry="23.6"/>
				<g id="XMLID_450_" class="st15">
					<path id="XMLID_464_" class="st16" d="M243.4,167.4c-0.4,0.5-1.4,2.6-1.6,3.2c-0.2,0.6-0.3,5.5,2.1,10.9c2.5,5.4,7.9,8.1,8,8.4
						c0.3,0.7,0.5,0.3,1,1.2c0,0,2.3-1.1,3-4.7c0.7-3.6-0.2-6.9-0.2-6.9L243.4,167.4z"/>
					<path id="XMLID_463_" class="st17" d="M252.3,196.3c0.2,0,3.5-1,3.5-1c1.5,1.5,2,6.7,2.1,9.2l-3.7-2.1L252.3,196.3z"/>
					<path id="XMLID_462_" class="st17" d="M249.2,188.1l-1.6-0.9v1.2c0,1.4-3.2-0.3-4.3-0.6c0.4,2.7-0.3,3.4,5.6,10.9l0.4,0.2
						l0.4,0.2c2.9,0.5,5,0.2,5.6-4.4c-1.1-1.1-4.5-3.1-4.5-4.6V189L249.2,188.1z"/>
					<path id="XMLID_461_" class="st17" d="M245,192.9c-0.2-0.2-2.4-5.3-2.4-5.3c-1.5-0.3-2,4.5-2.1,6.7l3.7,2.1L245,192.9z"/>
					<path id="XMLID_460_" class="st18" d="M243.3,187.8L243.3,187.8L243.3,187.8L243.3,187.8L243.3,187.8L243.3,187.8L243.3,187.8
						l-0.1,0l0,0l0,0l0,0l0,0l0,0l0,0l0,0l0,0l0,0l0,0l0,0l0,0l0,0l0,0l0,0l0,0l0,0l0,0l0,0l0,0l0,0l0,0l0,0l0,0l0,0l0,0l0,0l0,0
						l0,0l0,0l0,0l0,0l0,0l0,0l0,0l0,0l0,0c0,0,0,0,0,0l0,0h0c0,0,0,0,0,0l0,0c0,0,0,0,0,0l0,0l0,0c0,0,0,0,0,0l0,0l0,0c0,0,0,0,0,0
						c0.2,0.5,0.4,1.9,0.6,3.7c-0.2,1.6-1.1,2.3-0.5,4.2l1,0.6l5.6,3.2l0,0l0,0l5.6,3.2l1,0.6c0.6-1.2-0.2-2.9-0.5-4.7
						c0.2-1.5,0.4-2.7,0.6-3c0,0,0,0,0,0l0,0l0,0c0,0,0,0,0,0l0,0l0,0c0,0,0,0,0,0l0,0c0,0,0,0,0,0l0,0l0,0l0,0l0,0l0,0l0,0l0,0l0,0
						l0,0l0,0l0,0l0,0l0,0l0,0l0,0l0,0l0,0l0,0l0,0l0,0l0,0l0,0l0,0l0,0l0,0l0,0l0,0l0,0l0,0l0,0l0,0l0,0l0,0l0,0l0,0l0,0l0,0l0,0
						l0,0l0,0l0,0l0,0l0,0l0,0l0,0l0,0l0,0c-0.8,2.5-3.2,3.4-6,1.7C246.4,194.8,244.1,191.2,243.3,187.8z"/>
					<g id="XMLID_457_">
						<path id="XMLID_459_" class="st19" d="M244.4,176.2c0.3,1.5-0.3,2.4-1.2,2.1c-0.9-0.3-1.9-1.6-2.1-3.1
							c-0.3-1.5,0.3-2.6,1.2-2.3C243.2,173.1,244.2,174.6,244.4,176.2z"/>
						<path id="XMLID_458_" class="st19" d="M254.3,181.9c-0.3,1.2,0.3,2.7,1.2,3.5c0.9,0.8,1.9,0.6,2.1-0.7
							c0.3-1.2-0.3-2.9-1.2-3.6C255.5,180.2,254.6,180.6,254.3,181.9z"/>
					</g>
					<path id="XMLID_456_" class="st19" d="M249.4,167.7L249.4,167.7c-0.5-0.3-1-0.6-1-0.6l0,0.1c-0.1,0-0.1-0.1-0.1-0.1
						c-1.9-1-3.7-0.9-4.9,0.3c-1.2,1.2-1.3,3.4-1.2,5.6c0.2,5.8,3,13.8,7.2,16.2c4.2,2.4,7-2.4,7.2-7.9c0.1-2.2-0.1-4.5-1.2-7.1
						c-1.2-2.5-3-4.8-4.9-6c0,0,0,0-0.1-0.1l0-0.1C250.3,168.2,249.9,168,249.4,167.7L249.4,167.7z"/>
					<path id="XMLID_455_" class="st16" d="M252.4,171.6c-0.1,0.3,0,2,1.7,5.5c1.7,3.5,1.8,3.8,1.8,3.8s0.1,4.4,0.3,4
						c0.2-0.4,0.5-3.9,0.5-3.9s0.4-1.7,0-4c-0.4-2.2-1-3.3-1.7-4.1C254.2,172.2,252.4,171.6,252.4,171.6z"/>
					<path id="XMLID_454_" class="st16" d="M243.1,171.7c-0.3,0.2-1.2-0.3-1.2-0.3c0,0.4,0.4,5.9,0.8,5.7L243.1,171.7z"/>
					<path id="XMLID_453_" class="st16" d="M255.8,180.9c0.1-1.4,0.7-4.4,0.4-5.5c-0.9-3.2-2.6-5.2-5.4-7.1
						c-0.9-0.6-1.6-0.9-1.6-0.9C250.8,171.4,252.2,176.3,255.8,180.9z"/>
					<path id="XMLID_452_" class="st16" d="M253.1,172.8c-0.6,3.8-8.1-1.9-10.6,1.6c-2.8-6.4,1.5-13.9,8.8-5.8L253.1,172.8z"/>
					<path id="XMLID_451_" class="st16" d="M250.3,192.1c-0.9,2-0.2,3.2-0.2,3.2l0.1-1.4c0,0,0.3,1.9,0.3,3.1c0,1.1-0.3,2.4-0.3,2.4
						s1.5-0.1,2.3-1.2c0.8-1.1,0.5-4.1,0.5-4.1s0.3,1.1,0.3,1s0.2-1.3,0.1-2.4c0-0.5,0-1.1-0.2-1.7
						C251.9,188.3,250.6,191.4,250.3,192.1z"/>
				</g>
			</g>
		</g>
		<g>
			<g>
				<defs>
					
						<ellipse id="SVGID_5_" transform="matrix(0.866 -0.5 0.5 0.866 -108.3349 162.654)" cx="249.3" cy="283.5" rx="13.6" ry="23.6"/>
				</defs>
				<clipPath id="SVGID_6_">
					<use xlink:href="#SVGID_5_"  style="overflow:visible;"/>
				</clipPath>
				<ellipse transform="matrix(0.866 -0.5 0.5 0.866 -108.3349 162.654)" class="st20" cx="249.3" cy="283.5" rx="13.6" ry="23.6"/>
				<g id="XMLID_436_" class="st21">
					<path id="XMLID_449_" class="st22" d="M246.1,297.4c-0.2-0.2-3.6-4.1-3.6-4.1c-1.5-0.3-1.9,3.5-2,5.7l3.7,2.1L246.1,297.4z"/>
					<path id="XMLID_448_" class="st22" d="M252.2,300.9c0.2,0,3.6,0.1,3.6,0.1c1.5,1.5,1.9,5.6,2,8.1l-3.7-2.1L252.2,300.9z"/>
					<path id="XMLID_447_" class="st23" d="M249.2,292.8l-1.6-0.9v1.2c0,0.7-0.1,0.5-0.7,0.6c0,0-0.6,0.2-0.7,0.2
						c0.7,3.1,1.5,6,2.9,9.2l0.4,0.2l0.4,0.2c1.4-1.6,1.7-3.9,2.4-6.2c-0.2-0.2-0.7-1-0.7-1c-0.6-0.7-0.7-0.6-0.7-1.4v-1.2
						L249.2,292.8z"/>
					<path id="XMLID_446_" class="st22" d="M249.2,297.6c-2.7-1.8-2.3-3.9-2.3-3.9c-0.9,0-4-0.4-4.4-0.3c0.3,0.9,0.7,4.1,1.1,7.5
						l5.6,3.2l5.6,3.2c0.4-3,0.8-5.7,1.1-6.3c-0.4-0.6-3.5-3.8-4.4-4.7C251.4,296.3,251.8,298.9,249.2,297.6z"/>
					<path id="XMLID_444_" class="st24" d="M246.8,293.6l-1.6-0.2l2.3,4.9l1.6-0.9L246.8,293.6z"/>
					<path id="XMLID_442_" class="st24" d="M251.5,296.3l1.6,1.7l-2.2,2.3l-1.6-2.7L251.5,296.3z"/>
					<path id="XMLID_441_" class="st25" d="M254.2,276.2c1.5,1.1,2.3,2.8,2.7,4.6c0.9,4.7-1,12.7-7.7,8.9c-3.5-1.9-5.9-4.4-6.8-8.1
						c-0.9-3.7-1.3-9.2,0.7-10.9C245.6,268.4,250.7,271.4,254.2,276.2z"/>
					<path id="XMLID_440_" class="st23" d="M249.2,273.9c-10.2-5.9-6.5,10.5-5.9,12c0.7,1.7,4.2,7,5.9,8c1.6,1,5.1-0.3,5.9-1.2
						C255.7,291.9,259.4,279.8,249.2,273.9z"/>
					<path id="XMLID_439_" class="st23" d="M241.3,277.2c0.5,0.1,1.2,1.2,1.5,2.4c0.3,1.2,0.1,2.2-0.4,2.1c-0.5-0.1-1.2-1.2-1.5-2.4
						C240.6,278,240.8,277.1,241.3,277.2z"/>
					<path id="XMLID_438_" class="st23" d="M257,286.2c-0.5-0.5-1.2-0.2-1.5,0.7c-0.3,0.9-0.1,2,0.4,2.5c0.5,0.5,1.2,0.2,1.5-0.7
						C257.7,287.9,257.5,286.7,257,286.2z"/>
					<path id="XMLID_437_" class="st25" d="M254.2,280.3c-1.8,0.2-3.9-1.4-3.1-2.1c0.8-0.6-0.1-0.4-1.7-0.5
						c-1.6-0.1-3.5-1.3-2.4-1.4c1.3-0.1-3.9-3.6-4.8,4.4c-1.5-7.1,1.1-10.9,6.9-7.8c6.2,3.3,8.8,10.5,7,15.7
						C256.2,285.4,255.5,282.8,254.2,280.3z"/>
				</g>
			</g>
		</g>
		<g>
			<g>
				<defs>
					
						<ellipse id="SVGID_7_" transform="matrix(0.866 -0.5 0.5 0.866 -134.2009 169.4764)" cx="249.1" cy="335.2" rx="13.6" ry="23.6"/>
				</defs>
				<clipPath id="SVGID_8_">
					<use xlink:href="#SVGID_7_"  style="overflow:visible;"/>
				</clipPath>
				
					<ellipse transform="matrix(0.866 -0.5 0.5 0.866 -134.2009 169.4764)" class="st26" cx="249.1" cy="335.2" rx="13.6" ry="23.6"/>
				<g id="XMLID_412_" class="st27">
					<path id="XMLID_421_" class="st28" d="M242.4,350.4c-2.4-12.9-3.6-30.7,6.6-24.8c10.3,5.9,9.7,22.6,7.3,33.2
						C251.5,356.3,246.5,353.4,242.4,350.4z"/>
					<path id="XMLID_420_" class="st23" d="M252.4,352.8c0.2,0,3.5-1,3.5-1c1.5,1.5,2,6.7,2.1,9.2l-3.7-2.1L252.4,352.8z"/>
					<path id="XMLID_419_" class="st23" d="M249.3,344.7l-1.6-0.9v1.2c0,1.4-3.2-0.3-4.3-0.6c0.4,2.7-0.3,3.4,5.6,10.9l0.4,0.2
						l0.4,0.2c2.9,0.5,5,0.2,5.6-4.4c-1.1-1.1-4.5-3.1-4.5-4.6v-1.2L249.3,344.7z"/>
					<path id="XMLID_418_" class="st23" d="M245.1,349.4c-0.2-0.2-2.4-5.3-2.4-5.3c-1.5-0.3-2,4.5-2.1,6.7l3.7,2.1L245.1,349.4z"/>
					<path id="XMLID_417_" class="st29" d="M243.3,344.4L243.3,344.4L243.3,344.4L243.3,344.4L243.3,344.4L243.3,344.4L243.3,344.4
						l-0.1,0l0,0l0,0l0,0l0,0l0,0l0,0l0,0l0,0l0,0l0,0l0,0l0,0l0,0l0,0l0,0l0,0l0,0l0,0l0,0l0,0l0,0l0,0l0,0l0,0l0,0l0,0l0,0l0,0
						l0,0l0,0l0,0l0,0l0,0l0,0l0,0l0,0l0,0c0,0,0,0,0,0l0,0h0c0,0,0,0,0,0l0,0c0,0,0,0,0,0l0,0l0,0c0,0,0,0,0,0l0,0l0,0c0,0,0,0,0,0
						c0.2,0.5,0.4,1.9,0.6,3.7c-0.2,1.6-1.1,2.3-0.5,4.2l1,0.6l5.6,3.2l0,0l0,0l5.6,3.2l1,0.6c0.6-1.2-0.2-2.9-0.5-4.7
						c0.2-1.5,0.4-2.7,0.6-3c0,0,0,0,0,0l0,0l0,0c0,0,0,0,0,0l0,0l0,0c0,0,0,0,0,0l0,0c0,0,0,0,0,0l0,0l0,0l0,0l0,0l0,0l0,0l0,0l0,0
						l0,0l0,0l0,0l0,0l0,0l0,0l0,0l0,0l0,0l0,0l0,0l0,0l0,0l0,0l0,0l0,0l0,0l0,0l0,0l0,0l0,0l0,0l0,0l0,0l0,0l0,0l0,0l0,0l0,0l0,0
						l0,0l0,0l0,0l0,0l0,0l0,0l0,0l0,0l0,0c-0.8,2.5-3.2,3.4-6,1.7C246.5,351.4,244.1,347.8,243.3,344.4z"/>
					<path id="XMLID_416_" class="st23" d="M249.2,345.7c-1.8-1-5.6-6.4-6.7-11.8c-1.2-5.4,1-10.8,6.7-7.5
						c5.7,3.3,7.9,11.3,6.7,15.3C254.8,345.7,251,346.7,249.2,345.7z"/>
					<path id="XMLID_415_" class="st23" d="M241.4,332.2c0.6,0,1.4,1.2,1.8,2.6c0.4,1.4,0.3,2.5-0.3,2.4c-0.6,0-1.4-1.2-1.8-2.6
						C240.7,333.2,240.9,332.2,241.4,332.2z"/>
					<path id="XMLID_414_" class="st23" d="M256.9,341.1c-0.6-0.6-1.4-0.4-1.8,0.5c-0.4,0.9-0.3,2.1,0.3,2.7
						c0.6,0.6,1.4,0.4,1.8-0.5C257.6,343,257.5,341.7,256.9,341.1z"/>
					<path id="XMLID_413_" class="st28" d="M256.1,341.7c1.4-8-3.1-13.4-6.9-15.6c-4.3-2.5-8.7-1.2-6.7,8c4.1,2.1,7.8,1.5,11.4-1.9
						C254.6,335.4,255,339.2,256.1,341.7z"/>
				</g>
			</g>
		</g>
		<g id="XMLID_392_">
			
				<image style="overflow:visible;opacity:0.7;" width="312" height="245" xlink:href="2C13D16.png"  transform="matrix(1 0 0 1 183.233 160.233)">
			</image>
			<g>
				<polygon class="st1" points="490,398.2 188.7,224.3 188.7,163.7 490,337.7 				"/>
			</g>
		</g>
		<line id="XMLID_391_" class="st7" x1="272" y1="241.4" x2="317.7" y2="267.8"/>
		<line id="XMLID_390_" class="st7" x1="353.9" y1="288.7" x2="382.1" y2="305"/>
		<line id="XMLID_389_" class="st7" x1="430" y1="332.7" x2="434.7" y2="335.4"/>
		<g>
			<g>
				<defs>
					
						<ellipse id="SVGID_9_" transform="matrix(0.866 -0.5 0.5 0.866 -78.3395 146.4365)" cx="234.1" cy="219.4" rx="15.9" ry="27.6"/>
				</defs>
				<clipPath id="SVGID_10_">
					<use xlink:href="#SVGID_9_"  style="overflow:visible;"/>
				</clipPath>
				<ellipse transform="matrix(0.866 -0.5 0.5 0.866 -78.3395 146.4365)" class="st30" cx="234.1" cy="219.4" rx="15.9" ry="27.6"/>
				<g id="XMLID_53_" class="st31">
					<path id="XMLID_384_" class="st32" d="M230,235.5c-0.2-0.3-4.2-4.8-4.2-4.8c-1.8-0.4-2.2,4.1-2.4,6.7l4.3,2.5L230,235.5z"/>
					<path id="XMLID_383_" class="st32" d="M237.1,239.6c0.2-0.1,4.2,0.1,4.2,0.1c1.8,1.7,2.2,6.6,2.4,9.4l-4.3-2.5L237.1,239.6z"/>
					<path id="XMLID_382_" class="st33" d="M233.6,230.1l-1.9-1.1v1.4c0,0.9-0.1,0.6-0.8,0.7c0,0-0.7,0.2-0.9,0.2
						c0.8,3.6,1.7,7,3.4,10.8l0.5,0.3l0.5,0.3c1.6-1.9,2-4.6,2.8-7.2c-0.2-0.2-0.9-1.2-0.9-1.2c-0.7-0.8-0.8-0.7-0.8-1.6v-1.4
						L233.6,230.1z"/>
					<path id="XMLID_380_" class="st32" d="M233.6,237.6c-3.1-2.1-2.7-6.5-2.7-6.6c-1-0.1-4.7-0.5-5.1-0.3c0.3,1,0.8,4.8,1.3,8.8
						l6.5,3.8l6.5,3.8c0.4-3.5,0.9-6.7,1.3-7.3c-0.4-0.6-4.1-4.4-5.1-5.5C236.2,234.2,236.7,239.2,233.6,237.6z"/>
					<path id="XMLID_374_" class="st33" d="M238.6,222.3c-0.3,1.5,0.6,3.4,2,4.5c1.4,1.1,2.7,1,3-0.5c0.3-1.5-0.6-3.6-2-4.7
						C240.2,220.4,238.9,220.8,238.6,222.3z"/>
					<path id="XMLID_372_" class="st33" d="M228.9,216.7c0.3,1.8-0.6,2.7-2,2.2c-1.4-0.5-2.7-2.2-3-4c-0.3-1.8,0.6-2.9,2-2.4
						C227.3,213,228.6,214.8,228.9,216.7z"/>
					<path id="XMLID_287_" class="st33" d="M240.7,213.2c-1.4-3-3.5-5.6-5.7-7c0,0,0,0-0.1-0.1l0-0.1c0,0-0.5-0.3-1.1-0.6
						c-0.6-0.4-1.1-0.7-1.1-0.7l0,0.1c-0.1,0-0.1-0.1-0.1-0.1c-2.3-1.2-4.4-1-5.7,0.4c-1.4,1.4-1.5,4-1.4,6.7
						c0.3,6.9,0.8,14.8,8.4,19.3c7.7,4.5,8.1-3,8.4-9.6C242.3,219.1,242.1,216.2,240.7,213.2z"/>
					<path id="XMLID_286_" class="st34" d="M225.8,214.2c0.1-2.4,0.1-6.9,2-5.9c0,0,5.6,0.5,12.1,4.2c1.5,0.9,1.8,6,1.9,9.3
						c0,0.7,0,1.4,0.1,2.1c0,0.4,0,0.8,0.1,1.2c0,0.2,0,0.6,0.2,0.7c0.2,0.1,0.2-0.8,0.2-1c0.1-1.2,0.2-2.5,0.2-3.8
						c0-1.8,0-4.6-1.4-8c-0.5-1.2-0.8-2.5-1.7-3.8c-2.3-3.1-6.8-4.9-9.4-5.4c-1.8-0.3-3.7-0.5-4.3,1.2c-0.7,1.9-0.7,3.8-0.5,8.6
						c0,0.5,0.1,1.1,0.1,1.6c0,0.4,0.1,0.7,0.1,1.1c0.1,0.8,0.4,0.4,0.3,0C225.8,215.6,225.7,214.9,225.8,214.2z"/>
					<path id="XMLID_281_" class="st34" d="M240.3,210.7c-0.2-6.8-11.2-7.6-12.6-8.1c-3.5-1.3-4.9-4.7-4.9-4.7
						c-2.2,6.2,2.3,15.2,12.4,13.1c1.9-0.4,4.1,1.8,4.1,1.8c1.8,3.8,2.6,4.7,2.9,8.7c0,0,0.3-2.5,0.7-5
						C243.5,214,242.4,211.5,240.3,210.7z"/>
					<path id="XMLID_280_" class="st34" d="M225.4,216.3c0,0.3,1,6.5,1.7,8c0.3,0.5,1.1,1.8,2.2,3.3c2.7,3.7,6.2,5.7,8.9,5.1
						c1.1-0.2,2-0.5,2.2-0.7c0.6-0.6,2-6.6,1.7-6.4c-1.4,2.5-1.6,7.1-7.2,3.9c-0.3-0.2-0.8-1-1.1-1.3c-0.2,0.1-0.8,0.3-1.1,0.1
						C227.1,224.9,226.8,220.4,225.4,216.3z"/>
				</g>
			</g>
		</g>
		<g>
			<path class="st35" d="M469.9,342.1l-9.3,13.2c-0.3,0.4-0.2,1,0.3,1.2l18.5,10.7c0.7,0.4,1.5-0.3,1.2-1.1l-9.3-23.9
				C471.1,341.7,470.3,341.6,469.9,342.1z"/>
			<path class="st35" d="M476.1,378.5l-10.2-5.9c-0.4-0.2-0.7-0.8-0.7-1.3v-17.1c0-0.5,0.3-0.7,0.7-0.5l10.2,5.9
				c0.4,0.2,0.7,0.8,0.7,1.3V378C476.8,378.5,476.5,378.7,476.1,378.5z"/>
		</g>
		<g class="st36">
			<g>
				<line class="st37" x1="201.7" y1="238.8" x2="201.7" y2="239.1"/>
				<line class="st38" x1="201.7" y1="241.2" x2="201.7" y2="289.7"/>
				<line class="st37" x1="201.7" y1="290.8" x2="201.7" y2="291"/>
			</g>
		</g>
		<line class="st39" x1="195.9" y1="235.5" x2="195.9" y2="259.8"/>
		<g class="st36">
			<g>
				<line class="st37" x1="478.1" y1="398.4" x2="478.1" y2="398.7"/>
				<line class="st40" x1="478.1" y1="400.8" x2="478.1" y2="461.4"/>
				<line class="st37" x1="478.1" y1="462.5" x2="478.1" y2="462.7"/>
			</g>
		</g>
		<line class="st39" x1="483.9" y1="401.8" x2="483.9" y2="420"/>
		<line class="st39" x1="483.9" y1="424.8" x2="483.9" y2="432.7"/>
	</g>
	<g>
		<polygon id="XMLID_394_" class="st0" points="258.9,580.5 91.7,483.7 149.1,450.7 314.7,548.3 		"/>
		<g id="XMLID_3_">
			<g id="XMLID_137_">
				<polygon class="st41" points="147,440.2 91.2,408 147,375.7 202.8,408 				"/>
			</g>
			<g id="XMLID_83_">
				<polygon class="st42" points="151.9,507.4 91.2,472.4 91.2,408 147.4,440.3 				"/>
			</g>
			<g id="XMLID_73_" class="st43">
				<polygon class="st44" points="202.8,472.4 202.8,408 147,440.2 147,504.6 				"/>
			</g>
		</g>
		<g>
			<polygon id="XMLID_270_" class="st45" points="141,428.2 119.6,415.9 141,403.5 162.3,415.9 			"/>
			<g id="XMLID_268_">
				<polygon class="st46" points="141,398 119.6,385.7 141,373.4 162.3,385.7 				"/>
			</g>
			<g id="XMLID_265_">
				<polygon class="st47" points="141,422.6 119.6,410.3 119.6,385.7 141,398 				"/>
			</g>
			<g id="XMLID_260_">
				<polygon class="st48" points="162.3,410.3 162.3,385.7 141,398 141,422.6 				"/>
			</g>
		</g>
		<g id="XMLID_233_">
			<g id="XMLID_234_">
				<polygon class="st41" points="203,407.8 147.2,375.6 203,343.4 258.8,375.6 				"/>
			</g>
			<g id="XMLID_235_">
				<polygon class="st42" points="201.2,535.4 145.3,503.2 147.2,375.6 203,407.8 				"/>
			</g>
			<g id="XMLID_245_">
				<polygon class="st49" points="258.8,472 258.8,375.6 203,407.8 201.2,504.2 				"/>
			</g>
		</g>
		<g id="XMLID_3004_">
			<polygon id="XMLID_5206_" class="st50" points="215.5,357.8 234.5,368.8 189.1,395 170.1,384 			"/>
			<g id="XMLID_4581_">
				<polygon id="XMLID_5203_" class="st51" points="215.5,352.1 234.5,363 189.1,389.2 170.1,378.3 				"/>
				<g id="XMLID_4584_">
					<polygon id="XMLID_5185_" class="st52" points="189.1,387.7 234.5,361.4 215.5,350.5 170.1,376.7 					"/>
					<polygon id="XMLID_5181_" class="st53" points="189,385.7 231.2,361.4 215.5,352.4 173.4,376.7 					"/>
					<ellipse id="XMLID_5176_" class="st52" cx="202.3" cy="369.1" rx="7.9" ry="4.6"/>
					<g id="XMLID_4649_">
						<g>
							<path id="XMLID_151_" class="st53" d="M206,371.2L206,371.2c-0.3,0.2-0.5,0.2-0.8,0l-0.4-0.2c-1.1,0.5-2.4,0.5-3.3,0
								c-1.1-0.6-0.5-1.3,0.1-1.9l-1.8-1c-0.4,0.3-0.6,0.8-0.5,1.1c0,0-0.6,0.1-0.9,0c-0.4-0.2-0.3-0.8,0.6-1.5l-0.4-0.2
								c-0.3-0.2-0.3-0.3-0.1-0.4l0.1,0c0.2-0.1,0.5-0.1,0.8,0l0.4,0.2c1.1-0.5,2.3-0.5,3.1,0c1,0.6,0.6,1.3,0,1.8l1.8,1.1
								c0.5-0.4,0.7-0.9,0.5-1.2c0,0,0.5-0.1,0.8,0c0.4,0.2,0.3,0.9-0.6,1.6l0.4,0.2C206.2,370.9,206.2,371,206,371.2z M202,367.7
								c-0.4-0.2-1-0.2-1.6,0l1.6,0.9C202.4,368.2,202.5,367.9,202,367.7z M202.3,370.5c0.4,0.2,1.1,0.2,1.7,0l-1.7-1
								C202,369.9,201.9,370.2,202.3,370.5z"/>
						</g>
					</g>
					<ellipse id="XMLID_4613_" class="st52" cx="215.5" cy="352.4" rx="1.5" ry="0.8"/>
					<ellipse id="XMLID_4608_" class="st52" cx="231.2" cy="361.4" rx="1.5" ry="0.8"/>
					<ellipse id="XMLID_4594_" class="st52" cx="173.4" cy="376.7" rx="1.5" ry="0.8"/>
					<ellipse id="XMLID_4585_" class="st52" cx="189" cy="385.7" rx="1.5" ry="0.8"/>
				</g>
				<polygon id="XMLID_4583_" class="st51" points="170.1,378.3 170.1,376.7 189.1,387.7 189.1,389.2 				"/>
				<polygon id="XMLID_4582_" class="st54" points="234.5,361.4 234.5,363 189.1,389.2 189.1,387.7 				"/>
			</g>
			<g id="XMLID_4519_">
				<polygon id="XMLID_4571_" class="st51" points="215.5,350.2 234.5,361.2 189.1,387.4 170.1,376.4 				"/>
				<g id="XMLID_4522_">
					<polygon id="XMLID_4568_" class="st52" points="189.1,385.8 234.5,359.6 215.5,348.6 170.1,374.8 					"/>
					<polygon id="XMLID_4565_" class="st53" points="189,383.9 231.2,359.5 215.5,350.5 173.4,374.8 					"/>
					<ellipse id="XMLID_4561_" class="st52" cx="202.3" cy="367.2" rx="7.9" ry="4.6"/>
					<g id="XMLID_4542_">
						<g>
							<path id="XMLID_139_" class="st53" d="M206,369.3L206,369.3c-0.3,0.2-0.5,0.2-0.8,0l-0.4-0.2c-1.1,0.5-2.4,0.5-3.3,0
								c-1.1-0.6-0.5-1.3,0.1-1.9l-1.8-1c-0.4,0.3-0.6,0.8-0.5,1.1c0,0-0.6,0.1-0.9,0c-0.4-0.2-0.3-0.8,0.6-1.5l-0.4-0.2
								c-0.3-0.2-0.3-0.3-0.1-0.4l0.1,0c0.2-0.1,0.5-0.1,0.8,0l0.4,0.2c1.1-0.5,2.3-0.5,3.1,0c1,0.6,0.6,1.3,0,1.8l1.8,1.1
								c0.5-0.4,0.7-0.9,0.5-1.2c0,0,0.5-0.1,0.8,0c0.4,0.2,0.3,0.9-0.6,1.6l0.4,0.2C206.2,369,206.2,369.1,206,369.3z M202,365.8
								c-0.4-0.2-1-0.2-1.6,0l1.6,0.9C202.4,366.3,202.5,366.1,202,365.8z M202.3,368.6c0.4,0.2,1.1,0.2,1.7,0l-1.7-1
								C202,368,201.9,368.3,202.3,368.6z"/>
						</g>
					</g>
					<ellipse id="XMLID_4533_" class="st52" cx="215.5" cy="350.5" rx="1.5" ry="0.8"/>
					<ellipse id="XMLID_4529_" class="st52" cx="231.2" cy="359.5" rx="1.5" ry="0.8"/>
					<ellipse id="XMLID_4526_" class="st52" cx="173.4" cy="374.8" rx="1.5" ry="0.8"/>
					<ellipse id="XMLID_4523_" class="st52" cx="189" cy="383.9" rx="1.5" ry="0.8"/>
				</g>
				<polygon id="XMLID_4521_" class="st51" points="170.1,376.4 170.1,374.8 189.1,385.8 189.1,387.4 				"/>
				<polygon id="XMLID_4520_" class="st54" points="234.5,359.6 234.5,361.2 189.1,387.4 189.1,385.8 				"/>
			</g>
			<g id="XMLID_4480_">
				<polygon id="XMLID_4516_" class="st51" points="215.5,348.3 234.5,359.3 189.1,385.5 170.1,374.5 				"/>
				<g id="XMLID_4483_">
					<polygon id="XMLID_4513_" class="st52" points="189.1,383.9 234.5,357.7 215.5,346.7 170.1,372.9 					"/>
					<polygon id="XMLID_4510_" class="st53" points="189,382 231.2,357.7 215.5,348.6 173.4,373 					"/>
					<ellipse id="XMLID_4507_" class="st52" cx="202.3" cy="365.3" rx="7.9" ry="4.6"/>
					<g id="XMLID_4496_">
						<g>
							<path id="XMLID_130_" class="st53" d="M206,367.4L206,367.4c-0.3,0.2-0.5,0.2-0.8,0l-0.4-0.2c-1.1,0.5-2.4,0.5-3.3,0
								c-1.1-0.6-0.5-1.3,0.1-1.9l-1.8-1c-0.4,0.3-0.6,0.8-0.5,1.1c0,0-0.6,0.1-0.9,0c-0.4-0.2-0.3-0.8,0.6-1.5l-0.4-0.2
								c-0.3-0.2-0.3-0.3-0.1-0.4l0.1,0c0.2-0.1,0.5-0.1,0.8,0l0.4,0.2c1.1-0.5,2.3-0.5,3.1,0c1,0.6,0.6,1.3,0,1.8l1.8,1.1
								c0.5-0.4,0.7-0.9,0.5-1.2c0,0,0.5-0.1,0.8,0c0.4,0.2,0.3,0.9-0.6,1.6l0.4,0.2C206.2,367.2,206.2,367.3,206,367.4z M202,364
								c-0.4-0.2-1-0.2-1.6,0l1.6,0.9C202.4,364.5,202.5,364.2,202,364z M202.3,366.7c0.4,0.2,1.1,0.2,1.7,0l-1.7-1
								C202,366.1,201.9,366.5,202.3,366.7z"/>
						</g>
					</g>
					<ellipse id="XMLID_4493_" class="st52" cx="215.5" cy="348.6" rx="1.5" ry="0.8"/>
					<ellipse id="XMLID_4490_" class="st52" cx="231.2" cy="357.7" rx="1.5" ry="0.8"/>
					<ellipse id="XMLID_4487_" class="st52" cx="173.4" cy="373" rx="1.5" ry="0.8"/>
					<ellipse id="XMLID_4484_" class="st52" cx="189" cy="382" rx="1.5" ry="0.8"/>
				</g>
				<polygon id="XMLID_4482_" class="st51" points="170.1,374.5 170.1,372.9 189.1,383.9 189.1,385.5 				"/>
				<polygon id="XMLID_4481_" class="st54" points="234.5,357.7 234.5,359.3 189.1,385.5 189.1,383.9 				"/>
			</g>
			<g id="XMLID_4441_">
				<polygon id="XMLID_4477_" class="st51" points="215.5,346.4 234.5,357.4 189.1,383.6 170.1,372.6 				"/>
				<g id="XMLID_4444_">
					<polygon id="XMLID_4474_" class="st52" points="189.1,382 234.5,355.8 215.5,344.8 170.1,371 					"/>
					<polygon id="XMLID_4471_" class="st53" points="189,380.1 231.2,355.8 215.5,346.7 173.4,371 					"/>
					<ellipse id="XMLID_4468_" class="st52" cx="202.3" cy="363.4" rx="7.9" ry="4.6"/>
					<g id="XMLID_4457_">
						<g>
							<path id="XMLID_122_" class="st53" d="M206,365.5L206,365.5c-0.3,0.2-0.5,0.2-0.8,0l-0.4-0.2c-1.1,0.5-2.4,0.5-3.3,0
								c-1.1-0.6-0.5-1.3,0.1-1.9l-1.8-1c-0.4,0.3-0.6,0.8-0.5,1.1c0,0-0.6,0.1-0.9,0c-0.4-0.2-0.3-0.8,0.6-1.5l-0.4-0.2
								c-0.3-0.2-0.3-0.3-0.1-0.4l0.1,0c0.2-0.1,0.5-0.1,0.8,0l0.4,0.2c1.1-0.5,2.3-0.5,3.1,0c1,0.6,0.6,1.3,0,1.8l1.8,1.1
								c0.5-0.4,0.7-0.9,0.5-1.2c0,0,0.5-0.1,0.8,0c0.4,0.2,0.3,0.9-0.6,1.6l0.4,0.2C206.2,365.2,206.2,365.4,206,365.5z M202,362
								c-0.4-0.2-1-0.2-1.6,0l1.6,0.9C202.4,362.6,202.5,362.3,202,362z M202.3,364.8c0.4,0.2,1.1,0.2,1.7,0l-1.7-1
								C202,364.2,201.9,364.5,202.3,364.8z"/>
						</g>
					</g>
					<ellipse id="XMLID_4454_" class="st52" cx="215.5" cy="346.7" rx="1.5" ry="0.8"/>
					<ellipse id="XMLID_4451_" class="st52" cx="231.2" cy="355.8" rx="1.5" ry="0.8"/>
					<ellipse id="XMLID_4448_" class="st52" cx="173.4" cy="371" rx="1.5" ry="0.8"/>
					<ellipse id="XMLID_4445_" class="st52" cx="189" cy="380.1" rx="1.5" ry="0.8"/>
				</g>
				<polygon id="XMLID_4443_" class="st51" points="170.1,372.6 170.1,371 189.1,382 189.1,383.6 				"/>
				<polygon id="XMLID_4442_" class="st54" points="234.5,355.8 234.5,357.4 189.1,383.6 189.1,382 				"/>
			</g>
			<g id="XMLID_4402_">
				<polygon id="XMLID_4438_" class="st51" points="215.5,344.5 234.5,355.5 189.1,381.7 170.1,370.7 				"/>
				<g id="XMLID_4405_">
					<polygon id="XMLID_4435_" class="st52" points="189.1,380.1 234.5,353.9 215.5,342.9 170.1,369.1 					"/>
					<polygon id="XMLID_4432_" class="st53" points="189,378.2 231.2,353.9 215.5,344.8 173.4,369.1 					"/>
					<ellipse id="XMLID_4429_" class="st52" cx="202.3" cy="361.5" rx="7.9" ry="4.6"/>
					<g id="XMLID_4418_">
						<g>
							<path id="XMLID_114_" class="st53" d="M206,363.6L206,363.6c-0.3,0.2-0.5,0.2-0.8,0l-0.4-0.2c-1.1,0.5-2.4,0.5-3.3,0
								c-1.1-0.6-0.5-1.3,0.1-1.9l-1.8-1c-0.4,0.3-0.6,0.8-0.5,1.1c0,0-0.6,0.1-0.9,0c-0.4-0.2-0.3-0.8,0.6-1.5l-0.4-0.2
								c-0.3-0.2-0.3-0.3-0.1-0.4l0.1,0c0.2-0.1,0.5-0.1,0.8,0l0.4,0.2c1.1-0.5,2.3-0.5,3.1,0c1,0.6,0.6,1.3,0,1.8l1.8,1.1
								c0.5-0.4,0.7-0.9,0.5-1.2c0,0,0.5-0.1,0.8,0c0.4,0.2,0.3,0.9-0.6,1.6l0.4,0.2C206.2,363.3,206.2,363.5,206,363.6z M202,360.1
								c-0.4-0.2-1-0.2-1.6,0l1.6,0.9C202.4,360.6,202.5,360.4,202,360.1z M202.3,362.9c0.4,0.2,1.1,0.2,1.7,0l-1.7-1
								C202,362.3,201.9,362.6,202.3,362.9z"/>
						</g>
					</g>
					<ellipse id="XMLID_4415_" class="st52" cx="215.5" cy="344.8" rx="1.5" ry="0.8"/>
					<ellipse id="XMLID_4412_" class="st52" cx="231.2" cy="353.9" rx="1.5" ry="0.8"/>
					<ellipse id="XMLID_4409_" class="st52" cx="173.4" cy="369.1" rx="1.5" ry="0.8"/>
					<ellipse id="XMLID_4406_" class="st52" cx="189" cy="378.2" rx="1.5" ry="0.8"/>
				</g>
				<polygon id="XMLID_4404_" class="st51" points="170.1,370.7 170.1,369.1 189.1,380.1 189.1,381.7 				"/>
				<polygon id="XMLID_4403_" class="st54" points="234.5,353.9 234.5,355.5 189.1,381.7 189.1,380.1 				"/>
			</g>
			<g id="XMLID_4363_">
				<polygon id="XMLID_4399_" class="st51" points="215.5,342.6 234.5,353.6 189.1,379.8 170.1,368.8 				"/>
				<g id="XMLID_4366_">
					<polygon id="XMLID_4396_" class="st52" points="189.1,378.2 234.5,352 215.5,341 170.1,367.2 					"/>
					<polygon id="XMLID_4393_" class="st53" points="189,376.3 231.2,351.9 215.5,342.9 173.4,367.2 					"/>
					<ellipse id="XMLID_4390_" class="st52" cx="202.3" cy="359.6" rx="7.9" ry="4.6"/>
					<g id="XMLID_4379_">
						<g>
							<path id="XMLID_106_" class="st53" d="M206,361.7L206,361.7c-0.3,0.2-0.5,0.2-0.8,0l-0.4-0.2c-1.1,0.5-2.4,0.5-3.3,0
								c-1.1-0.6-0.5-1.3,0.1-1.9l-1.8-1c-0.4,0.3-0.6,0.8-0.5,1.1c0,0-0.6,0.1-0.9,0c-0.4-0.2-0.3-0.8,0.6-1.5l-0.4-0.2
								c-0.3-0.2-0.3-0.3-0.1-0.4l0.1,0c0.2-0.1,0.5-0.1,0.8,0l0.4,0.2c1.1-0.5,2.3-0.5,3.1,0c1,0.6,0.6,1.3,0,1.8l1.8,1.1
								c0.5-0.4,0.7-0.9,0.5-1.2c0,0,0.5-0.1,0.8,0c0.4,0.2,0.3,0.9-0.6,1.6l0.4,0.2C206.2,361.4,206.2,361.5,206,361.7z M202,358.2
								c-0.4-0.2-1-0.2-1.6,0l1.6,0.9C202.4,358.7,202.5,358.5,202,358.2z M202.3,361c0.4,0.2,1.1,0.2,1.7,0l-1.7-1
								C202,360.4,201.9,360.7,202.3,361z"/>
						</g>
					</g>
					<ellipse id="XMLID_4376_" class="st52" cx="215.5" cy="342.9" rx="1.5" ry="0.8"/>
					<ellipse id="XMLID_4373_" class="st52" cx="231.2" cy="351.9" rx="1.5" ry="0.8"/>
					<ellipse id="XMLID_4370_" class="st52" cx="173.4" cy="367.2" rx="1.5" ry="0.8"/>
					<ellipse id="XMLID_4367_" class="st52" cx="189" cy="376.3" rx="1.5" ry="0.8"/>
				</g>
				<polygon id="XMLID_4365_" class="st51" points="170.1,368.8 170.1,367.2 189.1,378.2 189.1,379.8 				"/>
				<polygon id="XMLID_4364_" class="st54" points="234.5,352 234.5,353.6 189.1,379.8 189.1,378.2 				"/>
			</g>
			<g id="XMLID_4324_">
				<polygon id="XMLID_4360_" class="st51" points="215.5,340.7 234.5,351.7 189.1,377.9 170.1,366.9 				"/>
				<g id="XMLID_4327_">
					<polygon id="XMLID_4357_" class="st52" points="189.1,376.3 234.5,350.1 215.5,339.1 170.1,365.3 					"/>
					<polygon id="XMLID_4354_" class="st53" points="189,374.4 231.2,350 215.5,341 173.4,365.3 					"/>
					<ellipse id="XMLID_4351_" class="st52" cx="202.3" cy="357.7" rx="7.9" ry="4.6"/>
					<g id="XMLID_4340_">
						<g>
							<path id="XMLID_98_" class="st53" d="M206,359.8L206,359.8c-0.3,0.2-0.5,0.2-0.8,0l-0.4-0.2c-1.1,0.5-2.4,0.5-3.3,0
								c-1.1-0.6-0.5-1.3,0.1-1.9l-1.8-1c-0.4,0.3-0.6,0.8-0.5,1.1c0,0-0.6,0.1-0.9,0c-0.4-0.2-0.3-0.8,0.6-1.5l-0.4-0.2
								c-0.3-0.2-0.3-0.3-0.1-0.4l0.1,0c0.2-0.1,0.5-0.1,0.8,0l0.4,0.2c1.1-0.5,2.3-0.5,3.1,0c1,0.6,0.6,1.3,0,1.8l1.8,1.1
								c0.5-0.4,0.7-0.9,0.5-1.2c0,0,0.5-0.1,0.8,0c0.4,0.2,0.3,0.9-0.6,1.6l0.4,0.2C206.2,359.5,206.2,359.6,206,359.8z M202,356.3
								c-0.4-0.2-1-0.2-1.6,0l1.6,0.9C202.4,356.8,202.5,356.6,202,356.3z M202.3,359.1c0.4,0.2,1.1,0.2,1.7,0l-1.7-1
								C202,358.5,201.9,358.8,202.3,359.1z"/>
						</g>
					</g>
					<ellipse id="XMLID_4337_" class="st52" cx="215.5" cy="341" rx="1.5" ry="0.8"/>
					<ellipse id="XMLID_4334_" class="st52" cx="231.2" cy="350" rx="1.5" ry="0.8"/>
					<ellipse id="XMLID_4331_" class="st52" cx="173.4" cy="365.3" rx="1.5" ry="0.8"/>
					<ellipse id="XMLID_4328_" class="st52" cx="189" cy="374.4" rx="1.5" ry="0.8"/>
				</g>
				<polygon id="XMLID_4326_" class="st51" points="170.1,366.9 170.1,365.3 189.1,376.3 189.1,377.9 				"/>
				<polygon id="XMLID_4325_" class="st54" points="234.5,350.1 234.5,351.7 189.1,377.9 189.1,376.3 				"/>
			</g>
			<g id="XMLID_3005_">
				<polygon id="XMLID_4321_" class="st51" points="215.5,338.7 234.5,349.7 189.1,375.9 170.1,364.9 				"/>
				<g id="XMLID_3008_">
					<polygon id="XMLID_4318_" class="st52" points="189.1,374.3 234.5,348.1 215.5,337.1 170.1,363.3 					"/>
					<polygon id="XMLID_4315_" class="st53" points="189,372.3 231.2,348 215.5,339 173.4,363.3 					"/>
					<ellipse id="XMLID_4312_" class="st52" cx="202.3" cy="355.7" rx="7.9" ry="4.6"/>
					<g id="XMLID_4301_">
						<g>
							<path id="XMLID_91_" class="st53" d="M206,357.8L206,357.8c-0.3,0.2-0.5,0.2-0.8,0l-0.4-0.2c-1.1,0.5-2.4,0.5-3.3,0
								c-1.1-0.6-0.5-1.3,0.1-1.9l-1.8-1c-0.4,0.3-0.6,0.8-0.5,1.1c0,0-0.6,0.1-0.9,0c-0.4-0.2-0.3-0.8,0.6-1.5l-0.4-0.2
								c-0.3-0.2-0.3-0.3-0.1-0.4l0.1,0c0.2-0.1,0.5-0.1,0.8,0l0.4,0.2c1.1-0.5,2.3-0.5,3.1,0c1,0.6,0.6,1.3,0,1.8l1.8,1.1
								c0.5-0.4,0.7-0.9,0.5-1.2c0,0,0.5-0.1,0.8,0c0.4,0.2,0.3,0.9-0.6,1.6l0.4,0.2C206.2,357.5,206.2,357.6,206,357.8z M202,354.3
								c-0.4-0.2-1-0.2-1.6,0l1.6,0.9C202.4,354.8,202.5,354.5,202,354.3z M202.3,357.1c0.4,0.2,1.1,0.2,1.7,0l-1.7-1
								C202,356.5,201.9,356.8,202.3,357.1z"/>
						</g>
					</g>
					<ellipse id="XMLID_4298_" class="st52" cx="215.5" cy="339" rx="1.5" ry="0.8"/>
					<ellipse id="XMLID_4295_" class="st52" cx="231.2" cy="348" rx="1.5" ry="0.8"/>
					<ellipse id="XMLID_4265_" class="st52" cx="173.4" cy="363.3" rx="1.5" ry="0.8"/>
					<ellipse id="XMLID_3009_" class="st52" cx="189" cy="372.3" rx="1.5" ry="0.8"/>
				</g>
				<polygon id="XMLID_3007_" class="st51" points="170.1,364.9 170.1,363.3 189.1,374.3 189.1,375.9 				"/>
				<polygon id="XMLID_3006_" class="st54" points="234.5,348.1 234.5,349.7 189.1,375.9 189.1,374.3 				"/>
			</g>
		</g>
		<g id="XMLID_140_">
			<g id="XMLID_145_">
				<polygon class="st41" points="258.9,505.1 201.6,473.7 258.9,440.6 314.7,472.8 				"/>
			</g>
			<g id="XMLID_143_">
				<polygon class="st42" points="258.9,569.5 199.1,534.5 201.6,473.7 258.9,505.1 				"/>
			</g>
			<g id="XMLID_141_">
				<polygon class="st49" points="314.7,537.3 314.7,472.8 258.9,505.1 258.9,569.5 				"/>
			</g>
		</g>
	</g>
	<g>
		<polygon id="XMLID_266_" class="st45" points="255,490.2 233.7,477.9 255,465.6 276.4,477.9 		"/>
		<g id="XMLID_259_">
			<polygon class="st46" points="255,460.1 233.7,447.7 255,435.4 276.4,447.7 			"/>
		</g>
		<g id="XMLID_258_">
			<polygon class="st47" points="255,484.7 233.7,472.4 233.7,447.7 255,460.1 			"/>
		</g>
		<g id="XMLID_62_">
			<polygon class="st48" points="276.4,472.4 276.4,447.7 255,460.1 255,484.7 			"/>
		</g>
	</g>
</g>
<g>
	<g>
		<defs>
			<polygon id="SVGID_11_" points="385.1,157.1 392.8,161.5 392.8,178.7 385.1,174.2 			"/>
		</defs>
		<clipPath id="SVGID_12_">
			<use xlink:href="#SVGID_11_"  style="overflow:visible;"/>
		</clipPath>
		<g id="Artwork_1" class="st55">
			<g>
				<defs>
					<polygon id="SVGID_13_" points="385.1,157.1 392.8,161.5 392.8,178.7 385.1,174.2 					"/>
				</defs>
				<clipPath id="SVGID_14_">
					<use xlink:href="#SVGID_13_"  style="overflow:visible;"/>
				</clipPath>
				<g class="st56">
					<path class="st57" d="M392.5,168.1l-2.6-1.1l1.9-5c0.2-0.5,0.2-0.7,0.1-0.9c0-0.1-0.1-0.1-0.1-0.2c-0.1,0-0.2-0.1-0.6,0.3
						l-5.9,5.8c-0.1,0.1,0,0.4,0.1,0.5c0,0.1,0.1,0.1,0.2,0.1l2.3,1.1l-2.2,5.2c-0.1,0.1,0,0.4,0.2,0.6c0,0,0.1,0.1,0.1,0.1
						c0.1,0.1,0.2,0.1,0.3,0l6.6-5.8c0.1-0.1,0.1-0.3-0.1-0.5C392.7,168.2,392.6,168.2,392.5,168.1"/>
					<path class="st58" d="M392.8,168.5c-0.1-0.2-0.2-0.3-0.3-0.4l-2.6-1.1l1.9-5c0.2-0.5,0.2-0.7,0.1-0.9c0-0.1-0.1-0.1-0.1-0.2
						l-4,6.3l2.5,0.9c0.2,0.1,0.5,0.4,0.5,0.7c0,0.1,0,0.3-0.1,0.3l-5,5.4l0,0c0.1,0.2,0.3,0.2,0.4,0.1l6.6-5.8
						C392.8,168.8,392.9,168.6,392.8,168.5"/>
				</g>
			</g>
		</g>
	</g>
</g>
</svg>
