<svg xmlns="http://www.w3.org/2000/svg" xmlns:xlink="http://www.w3.org/1999/xlink" viewBox="0 0 392 328"><defs><style>.cls-1{fill:none;}.cls-2{clip-path:url(#clip-path);}.cls-3{clip-path:url(#clip-path-2);}.cls-4{fill:#082c44;}.cls-5{clip-path:url(#clip-path-3);}.cls-150,.cls-152,.cls-6{fill:#0c9cfc;}.cls-7{clip-path:url(#clip-path-5);}.cls-8{fill:#f8f9fc;}.cls-9{clip-path:url(#clip-path-7);}.cls-10{fill:#103758;}.cls-11{clip-path:url(#clip-path-9);}.cls-12{clip-path:url(#clip-path-11);}.cls-13{fill:#1669a0;}.cls-14{clip-path:url(#clip-path-13);}.cls-15{fill:#174d71;}.cls-16{clip-path:url(#clip-path-15);}.cls-17{clip-path:url(#clip-path-17);}.cls-18{fill:#12334a;}.cls-19{clip-path:url(#clip-path-19);}.cls-20{fill:#c5c5c5;}.cls-21{clip-path:url(#clip-path-21);}.cls-22{fill:#898989;}.cls-23{clip-path:url(#clip-path-23);}.cls-24{fill:#dcdcdc;}.cls-25{clip-path:url(#clip-path-25);}.cls-26{clip-path:url(#clip-path-27);}.cls-27{clip-path:url(#clip-path-29);}.cls-28{clip-path:url(#clip-path-31);}.cls-29{clip-path:url(#clip-path-33);}.cls-30{clip-path:url(#clip-path-35);}.cls-31{clip-path:url(#clip-path-37);}.cls-32{clip-path:url(#clip-path-39);}.cls-33{fill:#8a4c01;}.cls-34{clip-path:url(#clip-path-41);}.cls-35{clip-path:url(#clip-path-43);}.cls-36{clip-path:url(#clip-path-45);}.cls-37{clip-path:url(#clip-path-47);}.cls-38{clip-path:url(#clip-path-49);}.cls-39{clip-path:url(#clip-path-51);}.cls-40{fill:#8bcefc;}.cls-41{clip-path:url(#clip-path-53);}.cls-42{clip-path:url(#clip-path-55);}.cls-43{fill:#fff;}.cls-44{clip-path:url(#clip-path-57);}.cls-45{fill:#1d79b6;}.cls-46{clip-path:url(#clip-path-59);}.cls-47{clip-path:url(#clip-path-61);}.cls-48{fill:#d7e7f7;}.cls-49{clip-path:url(#clip-path-63);}.cls-50{clip-path:url(#clip-path-65);}.cls-51{clip-path:url(#clip-path-67);}.cls-52{clip-path:url(#clip-path-69);}.cls-53{clip-path:url(#clip-path-71);}.cls-54{clip-path:url(#clip-path-73);}.cls-55{clip-path:url(#clip-path-75);}.cls-56{clip-path:url(#clip-path-77);}.cls-57{clip-path:url(#clip-path-79);}.cls-58{clip-path:url(#clip-path-81);}.cls-59{clip-path:url(#clip-path-83);}.cls-60{clip-path:url(#clip-path-85);}.cls-61{clip-path:url(#clip-path-87);}.cls-62{clip-path:url(#clip-path-89);}.cls-63{clip-path:url(#clip-path-91);}.cls-64{clip-path:url(#clip-path-93);}.cls-65{clip-path:url(#clip-path-95);}.cls-66{clip-path:url(#clip-path-97);}.cls-67{clip-path:url(#clip-path-99);}.cls-68{clip-path:url(#clip-path-101);}.cls-69{clip-path:url(#clip-path-103);}.cls-70{clip-path:url(#clip-path-105);}.cls-71{clip-path:url(#clip-path-107);}.cls-72{clip-path:url(#clip-path-109);}.cls-73{clip-path:url(#clip-path-111);}.cls-74{clip-path:url(#clip-path-113);}.cls-75{clip-path:url(#clip-path-115);}.cls-76{clip-path:url(#clip-path-117);}.cls-77{clip-path:url(#clip-path-119);}.cls-78{clip-path:url(#clip-path-121);}.cls-79{clip-path:url(#clip-path-123);}.cls-80{clip-path:url(#clip-path-125);}.cls-81{clip-path:url(#clip-path-127);}.cls-82{clip-path:url(#clip-path-129);}.cls-83{clip-path:url(#clip-path-131);}.cls-84{clip-path:url(#clip-path-133);}.cls-85{clip-path:url(#clip-path-135);}.cls-86{clip-path:url(#clip-path-137);}.cls-87{clip-path:url(#clip-path-139);}.cls-88{clip-path:url(#clip-path-141);}.cls-89{clip-path:url(#clip-path-143);}.cls-90{clip-path:url(#clip-path-145);}.cls-91{clip-path:url(#clip-path-147);}.cls-92{clip-path:url(#clip-path-149);}.cls-93{clip-path:url(#clip-path-151);}.cls-94{clip-path:url(#clip-path-153);}.cls-95{clip-path:url(#clip-path-155);}.cls-96{fill:#919191;}.cls-97{clip-path:url(#clip-path-157);}.cls-98{fill:#bfbfbf;}.cls-99{clip-path:url(#clip-path-159);}.cls-100{fill:#36adfc;}.cls-101{clip-path:url(#clip-path-161);}.cls-102{fill:#bc8430;}.cls-103{clip-path:url(#clip-path-163);}.cls-104{clip-path:url(#clip-path-165);}.cls-105{fill:#8e6424;}.cls-106{clip-path:url(#clip-path-167);}.cls-107{fill:#8f6424;}.cls-108{clip-path:url(#clip-path-169);}.cls-109{clip-path:url(#clip-path-171);}.cls-110{clip-path:url(#clip-path-173);}.cls-111{fill:#d9d9d9;}.cls-112{clip-path:url(#clip-path-175);}.cls-113{fill:#e5e5e5;}.cls-114{clip-path:url(#clip-path-177);}.cls-115{fill:#fdfdfd;}.cls-116{clip-path:url(#clip-path-179);}.cls-117{fill:#e54332;}.cls-118{clip-path:url(#clip-path-181);}.cls-119{fill:#ffbf00;}.cls-120{clip-path:url(#clip-path-183);}.cls-121{clip-path:url(#clip-path-185);}.cls-122{fill:#ade9f4;}.cls-123{clip-path:url(#clip-path-187);}.cls-124{clip-path:url(#clip-path-189);}.cls-125{clip-path:url(#clip-path-191);}.cls-126{clip-path:url(#clip-path-193);}.cls-127{clip-path:url(#clip-path-195);}.cls-128{fill:#7fe2f4;}.cls-129{clip-path:url(#clip-path-197);}.cls-130{clip-path:url(#clip-path-199);}.cls-131{clip-path:url(#clip-path-201);}.cls-132{fill:#38d7f4;}.cls-133{clip-path:url(#clip-path-203);}.cls-134{fill:#9cb5cc;}.cls-135{clip-path:url(#clip-path-205);}.cls-136{clip-path:url(#clip-path-207);}.cls-137{clip-path:url(#clip-path-209);}.cls-138{clip-path:url(#clip-path-211);}.cls-139{clip-path:url(#clip-path-213);}.cls-140{clip-path:url(#clip-path-215);}.cls-141{clip-path:url(#clip-path-217);}.cls-142{clip-path:url(#clip-path-219);}.cls-143{clip-path:url(#clip-path-221);}.cls-144{clip-path:url(#clip-path-223);}.cls-145{clip-path:url(#clip-path-225);}.cls-146{clip-path:url(#clip-path-227);}.cls-147{clip-path:url(#clip-path-229);}.cls-148{clip-path:url(#clip-path-231);}.cls-149{clip-path:url(#clip-path-233);}.cls-150{opacity:0.82;}.cls-151{clip-path:url(#clip-path-235);}.cls-152{opacity:0.47;}.cls-153{clip-path:url(#clip-path-237);}</style><clipPath id="clip-path" transform="translate(-27 -36)"><path class="cls-1" d="M223,294.55a2.1,2.1,0,0,1-1.22,1.71l-8.46,4.86v-1.93a1.1,1.1,0,0,0-.6-.89l3-1.7a.84.84,0,0,0,.49-.68v-4a.84.84,0,0,0-.48-.67l-32.87-19a2.61,2.61,0,0,0-2.34,0l-7.81,4.48v-1.62a.44.44,0,0,0-.27-.37,1.42,1.42,0,0,0-1.3,0l-5.58,3.2a.46.46,0,0,0-.28.38v2.7l-4.07,2.33a.86.86,0,0,0-.5.68v2.37l-3.46-2a2.06,2.06,0,0,1-1.2-1.68v4a2.08,2.08,0,0,0,1.2,1.69l39.53,22.87a6.57,6.57,0,0,0,5.89,0l19.16-11a2.08,2.08,0,0,0,1.22-1.7C223,297.22,223,295.87,223,294.55Z"/></clipPath><clipPath id="clip-path-2" transform="translate(-27 -36)"><rect class="cls-1" width="595" height="842"/></clipPath><clipPath id="clip-path-3" transform="translate(-27 -36)"><path class="cls-1" d="M215.52,291.26l-32.58-19a2.58,2.58,0,0,0-2.33,0l-19.13,11.1a.71.71,0,0,0-.48.68.72.72,0,0,0,.48.68l32.58,19a2.58,2.58,0,0,0,2.33,0l19.13-11.1a.71.71,0,0,0,.48-.68A.72.72,0,0,0,215.52,291.26Z"/></clipPath><clipPath id="clip-path-5" transform="translate(-27 -36)"><path class="cls-1" d="M209.7,297.42a4,4,0,0,1,3.57,0c1,.56,1,1.48,0,2.08l-3.65,2.08a4,4,0,0,1-3.57,0,1,1,0,1,1,0-2.08Z"/></clipPath><clipPath id="clip-path-7" transform="translate(-27 -36)"><path class="cls-1" d="M165.44,277.74a.4.4,0,0,0-.28.38.41.41,0,0,0,.28.39,1.44,1.44,0,0,0,1.31,0l5.58-3.24a.41.41,0,0,0,0-.76,1.44,1.44,0,0,0-1.31,0l-5.57,3.24Zm47.15,22.44c.94-.55,1-1.43,0-2a3.71,3.71,0,0,0-3.4,0l-3.47,2a1,1,0,0,0,0,2,3.71,3.71,0,0,0,3.4,0Zm3.06-9L182.78,272a2.63,2.63,0,0,0-2.35,0l-19.3,11.2a.72.72,0,0,0-.48.69.71.71,0,0,0,.48.68L194,303.75a2.56,2.56,0,0,0,2.35,0l19.3-11.19a.74.74,0,0,0,.49-.69A.72.72,0,0,0,215.65,291.19Zm-39.28-21.48a6.44,6.44,0,0,1,5.89,0l39.53,23.07c1.62,1,1.61,2.49,0,3.43l-19.16,11.08a6.44,6.44,0,0,1-5.89,0l-39.53-23.07c-1.62-.94-1.61-2.49,0-3.43Z"/></clipPath><clipPath id="clip-path-9" transform="translate(-27 -36)"><path class="cls-1" d="M170.52,274.15a1.34,1.34,0,0,1,1.23,0,.37.37,0,0,1,.25.35.39.39,0,0,1-.25.35l-5.25,3a1.36,1.36,0,0,1-1.24,0,.36.36,0,0,1-.26-.35.38.38,0,0,1,.26-.36Z"/></clipPath><clipPath id="clip-path-11" transform="translate(-27 -36)"><polygon class="cls-1" points="143 320 142.99 321.9 79 359 79.01 357.09 143 320"/></clipPath><clipPath id="clip-path-13" transform="translate(-27 -36)"><polygon class="cls-1" points="79 357.1 78.99 359 36 333.89 36.01 332 79 357.1"/></clipPath><clipPath id="clip-path-15" transform="translate(-27 -36)"><polygon class="cls-1" points="143 320.06 79.33 357 36 331.94 99.67 295 143 320.06"/></clipPath><clipPath id="clip-path-17" transform="translate(-27 -36)"><polygon class="cls-1" points="41 324.06 37 322 37 330.9 41 334 41 324.06"/></clipPath><clipPath id="clip-path-19" transform="translate(-27 -36)"><polygon class="cls-1" points="139 313 138.99 320.42 79 355 79.02 347.58 139 313"/></clipPath><clipPath id="clip-path-21" transform="translate(-27 -36)"><polygon class="cls-1" points="40 325 40 332.33 79.98 355 80 347.68 40 325"/></clipPath><clipPath id="clip-path-23" transform="translate(-27 -36)"><polygon class="cls-1" points="99 290 42 323.28 42 326.15 79.53 348 139 313.28 99 290"/></clipPath><clipPath id="clip-path-25" transform="translate(-27 -36)"><polygon class="cls-1" points="143 309 142.99 310.9 79 348 79.01 346.1 143 309"/></clipPath><clipPath id="clip-path-27" transform="translate(-27 -36)"><polygon class="cls-1" points="79 346.11 78.99 348 36 322.89 36.01 321 79 346.11"/></clipPath><clipPath id="clip-path-29" transform="translate(-27 -36)"><polygon class="cls-1" points="143 309.06 79.33 346 36 320.94 99.67 284 143 309.06"/></clipPath><clipPath id="clip-path-31" transform="translate(-27 -36)"><polygon class="cls-1" points="38 334 36 332.99 36 322 38 323.19 38 334"/></clipPath><clipPath id="clip-path-33" transform="translate(-27 -36)"><polygon class="cls-1" points="131 305 130.99 306.66 76 339 76 337.34 131 305"/></clipPath><clipPath id="clip-path-35" transform="translate(-27 -36)"><polygon class="cls-1" points="76 336.39 76 338 38 316.61 38.01 315 76 336.39"/></clipPath><clipPath id="clip-path-37" transform="translate(-27 -36)"><polygon class="cls-1" points="131 304.83 75.66 337 38 315.18 93.33 283 131 304.83"/></clipPath><clipPath id="clip-path-39" transform="translate(-27 -36)"><polygon class="cls-1" points="43 308.72 39 307 39 314.42 43 317 43 308.72"/></clipPath><clipPath id="clip-path-41" transform="translate(-27 -36)"><polygon class="cls-1" points="128 299 127.98 305.54 76 336 76.01 329.46 128 299"/></clipPath><clipPath id="clip-path-43" transform="translate(-27 -36)"><polygon class="cls-1" points="41 309 41 315.35 75.99 335 76 328.65 41 309"/></clipPath><clipPath id="clip-path-45" transform="translate(-27 -36)"><polygon class="cls-1" points="92.95 279 43 307.69 43 310.17 75.88 329 128 299.07 92.95 279"/></clipPath><clipPath id="clip-path-47" transform="translate(-27 -36)"><polygon class="cls-1" points="131 295 130.99 296.66 76 329 76 327.34 131 295"/></clipPath><clipPath id="clip-path-49" transform="translate(-27 -36)"><polygon class="cls-1" points="76 327.39 76 329 38 307.6 38.01 306 76 327.39"/></clipPath><clipPath id="clip-path-51" transform="translate(-27 -36)"><polygon class="cls-1" points="131 295.83 75.66 328 38 306.18 93.33 274 131 295.83"/></clipPath><clipPath id="clip-path-53" transform="translate(-27 -36)"><polygon class="cls-1" points="40 317 38 316.07 38 306 40 307.09 40 317"/></clipPath><clipPath id="clip-path-55" transform="translate(-27 -36)"><path class="cls-1" d="M172.85,52.53c2.14-1.24,3.92-.23,3.93,2.23l.22,80.1a8.59,8.59,0,0,1-3.91,6.71L46.17,214.47c-2.15,1.23-3.93.25-3.94-2.21L42,132.16a8.59,8.59,0,0,1,3.91-6.74Z"/></clipPath><clipPath id="clip-path-57" transform="translate(-27 -36)"><path class="cls-1" d="M267,194.15a1.31,1.31,0,0,1,0,.28v.27a.39.39,0,0,1-.06.25c-.06.09,0,.18-.08.27l-.1.22a1.51,1.51,0,0,1-.13.29.82.82,0,0,1-.12.2c-.06.11-.13.21-.2.32l-.16.19a2.57,2.57,0,0,1-.35.39l-.19.18-.24.21a1.93,1.93,0,0,1-.28.22l-.29.2-.46.3-49.7,28.72v-3l-11-6.4,15.86-9.2v-1.19l1,.6L242,195v-7.53L232,181.59l-2.32,1.34v-2.68l-3.38-2-6.7-3.89-11.68-6.76-3,1.73v-3.39l-10.08-5.83-2.26,1.31V158.8L182.51,153l-10.45,6.07v2.31l-2-1.15-10.46,6.09v2.31l-2-1.16-10.44,6.08v2.31l-2-1.16-10.43,6.08v2.31l-2-1.16L122.28,188v2.32l-2-1.15-10.46,6.06v2.31l-2-1.15-10.41,6v2.31l-2-1.15L85,209.64V212l-2-1.15L72.5,216.86v7.53l5.84,3.38-2.49,1.45v-2.63l-10.08-5.83-10.45,6.07v7.53L65.5,240.2l2.26-1.32v2.62l10.08,5.83L80.1,246v2.63l10.09,5.83,2.24-1.31v2.61l10.07,5.84,2.32-1.35V263l10.08,5.84,22.15-12.86v-1.52l1.3.76,16.33-9.49V244l1.48.86,6-3.46v2.88l11,6.39-40.65,23.5a9.46,9.46,0,0,1-1.29.61l-.38.14c-.3.1-.6.19-.91.27s-.55.15-.83.2-.78.15-1.17.2h-.23a15.39,15.39,0,0,1-1.55.09h-.25a8.51,8.51,0,0,1-1.51-.09h-.25a14.36,14.36,0,0,1-1.46-.25l-.28-.07a13.26,13.26,0,0,1-1.32-.4h-.14a10.06,10.06,0,0,1-1.41-.67L43.66,230c-1.77-1-2.66-2.39-2.66-3.75v7.53c0,1.35.89,2.7,2.66,3.73l75.84,44.11a9.07,9.07,0,0,0,1.37.66H121c.3.12.61.22.92.31l.39.09.29.07.27.07c.3.06.61.11.92.15h2.73a4.72,4.72,0,0,0,1-.07h.32a4.72,4.72,0,0,0,.84-.12l.34-.08.81-.19.5-.12.43-.16.37-.14a10.82,10.82,0,0,0,1.29-.61l131.81-76.18.31-.18.16-.11.29-.2.28-.22.23-.2.11-.09.1-.11.35-.38.09-.11v-.07a3,3,0,0,0,.21-.33l.1-.15a2.88,2.88,0,0,0,.13-.31,1.11,1.11,0,0,1,.08-.16,1.38,1.38,0,0,1,.08-.29.61.61,0,0,0,0-.19,1.31,1.31,0,0,0,0-.28v-.26Q267,197.91,267,194.15Z"/></clipPath><clipPath id="clip-path-59" transform="translate(-27 -36)"><path class="cls-1" d="M264.35,190.69l-75.84-44.13a14.32,14.32,0,0,0-13,0L43.7,222.78c-3.59,2.07-3.61,5.45,0,7.54l75.81,44.12a14.32,14.32,0,0,0,13,0l131.82-76.21C267.88,196.15,267.9,192.75,264.35,190.69Z"/></clipPath><clipPath id="clip-path-61" transform="translate(-27 -36)"><polygon class="cls-1" points="176.69 171 187 176.87 176.32 183 166 177.12 176.69 171"/></clipPath><clipPath id="clip-path-63" transform="translate(-27 -36)"><polygon class="cls-1" points="192.69 176 203 181.88 192.32 188 182 182.12 192.69 176"/></clipPath><clipPath id="clip-path-65" transform="translate(-27 -36)"><polygon class="cls-1" points="207.23 168 218.92 174.81 225.63 178.71 229 180.69 211.36 191 201.28 185.12 206.69 181.96 195 175.13 207.23 168"/></clipPath><clipPath id="clip-path-67" transform="translate(-27 -36)"><polygon class="cls-1" points="181.68 182 192 187.89 181.32 194 171 188.11 181.68 182"/></clipPath><clipPath id="clip-path-69" transform="translate(-27 -36)"><polygon class="cls-1" points="231.8 182 242 187.72 220.21 200 210 194.28 231.8 182"/></clipPath><clipPath id="clip-path-71" transform="translate(-27 -36)"><polygon class="cls-1" points="209.08 195 219 200.72 202.93 210 193 204.28 209.08 195"/></clipPath><clipPath id="clip-path-73" transform="translate(-27 -36)"><polygon class="cls-1" points="176.69 199 187 204.88 176.32 211 166 205.12 176.69 199"/></clipPath><clipPath id="clip-path-75" transform="translate(-27 -36)"><polygon class="cls-1" points="182.69 153 193 158.88 182.32 165 172 159.12 182.69 153"/></clipPath><clipPath id="clip-path-77" transform="translate(-27 -36)"><polygon class="cls-1" points="169.68 161 180 166.87 169.31 173 159 167.12 169.68 161"/></clipPath><clipPath id="clip-path-79" transform="translate(-27 -36)"><polygon class="cls-1" points="194.02 160 204 165.75 187.99 175 178 169.26 194.02 160"/></clipPath><clipPath id="clip-path-81" transform="translate(-27 -36)"><polygon class="cls-1" points="157.68 168 168 173.88 157.32 180 147 174.13 157.68 168"/></clipPath><clipPath id="clip-path-83" transform="translate(-27 -36)"><polygon class="cls-1" points="144.68 175 155 180.88 144.32 187 134 181.13 144.68 175"/></clipPath><clipPath id="clip-path-85" transform="translate(-27 -36)"><polygon class="cls-1" points="164.68 178 175 183.88 164.31 190 154 184.13 164.68 178"/></clipPath><clipPath id="clip-path-87" transform="translate(-27 -36)"><polygon class="cls-1" points="132.68 182 143 187.88 132.32 194 122 188.12 132.68 182"/></clipPath><clipPath id="clip-path-89" transform="translate(-27 -36)"><polygon class="cls-1" points="153.68 184 164 189.88 153.31 196 143 190.12 153.68 184"/></clipPath><clipPath id="clip-path-91" transform="translate(-27 -36)"><polygon class="cls-1" points="200.68 186 211 191.88 200.31 198 190 192.11 200.68 186"/></clipPath><clipPath id="clip-path-93" transform="translate(-27 -36)"><polygon class="cls-1" points="119.69 189 130 194.88 119.31 201 109 195.12 119.69 189"/></clipPath><clipPath id="clip-path-95" transform="translate(-27 -36)"><polygon class="cls-1" points="169.68 189 180 194.88 169.32 201 159 195.13 169.68 189"/></clipPath><clipPath id="clip-path-97" transform="translate(-27 -36)"><polygon class="cls-1" points="141.69 191 152 196.88 141.32 203 131 197.12 141.69 191"/></clipPath><clipPath id="clip-path-99" transform="translate(-27 -36)"><polygon class="cls-1" points="188.68 193 199 198.88 188.32 205 178 199.13 188.68 193"/></clipPath><clipPath id="clip-path-101" transform="translate(-27 -36)"><polygon class="cls-1" points="157.68 196 168 201.88 157.32 208 147 202.12 157.68 196"/></clipPath><clipPath id="clip-path-103" transform="translate(-27 -36)"><polygon class="cls-1" points="107.68 197 118 202.89 107.32 209 97 203.13 107.68 197"/></clipPath><clipPath id="clip-path-105" transform="translate(-27 -36)"><polygon class="cls-1" points="129.7 198 140 203.87 129.33 210 119 204.12 129.7 198"/></clipPath><clipPath id="clip-path-107" transform="translate(-27 -36)"><polygon class="cls-1" points="145.69 203 156 208.88 145.32 215 135 209.12 145.69 203"/></clipPath><clipPath id="clip-path-109" transform="translate(-27 -36)"><polygon class="cls-1" points="95.68 204 106 209.88 95.31 216 85 210.12 95.68 204"/></clipPath><clipPath id="clip-path-111" transform="translate(-27 -36)"><polygon class="cls-1" points="117.67 205 128 210.88 117.32 217 107 211.12 117.67 205"/></clipPath><clipPath id="clip-path-113" transform="translate(-27 -36)"><polygon class="cls-1" points="164.69 206 175 211.89 164.32 218 154 212.12 164.69 206"/></clipPath><clipPath id="clip-path-115" transform="translate(-27 -36)"><polygon class="cls-1" points="134.69 210 145 215.88 134.33 222 124 216.13 134.69 210"/></clipPath><clipPath id="clip-path-117" transform="translate(-27 -36)"><polygon class="cls-1" points="82.68 211 93 216.88 82.31 223 72 217.11 82.68 211"/></clipPath><clipPath id="clip-path-119" transform="translate(-27 -36)"><polygon class="cls-1" points="105.69 212 116 217.89 105.32 224 95 218.12 105.69 212"/></clipPath><clipPath id="clip-path-121" transform="translate(-27 -36)"><polygon class="cls-1" points="153.69 213 164 218.88 153.32 225 143 219.12 153.69 213"/></clipPath><clipPath id="clip-path-123" transform="translate(-27 -36)"><polygon class="cls-1" points="122.68 217 133 222.89 122.31 229 112 223.11 122.68 217"/></clipPath><clipPath id="clip-path-125" transform="translate(-27 -36)"><polygon class="cls-1" points="141.69 220 152 225.88 141.32 232 131 226.12 141.69 220"/></clipPath><clipPath id="clip-path-127" transform="translate(-27 -36)"><polygon class="cls-1" points="65.69 221 76 226.88 65.31 233 55 227.12 65.69 221"/></clipPath><clipPath id="clip-path-129" transform="translate(-27 -36)"><polygon class="cls-1" points="110.68 223 121 228.88 110.32 235 100 229.12 110.68 223"/></clipPath><clipPath id="clip-path-131" transform="translate(-27 -36)"><polygon class="cls-1" points="191.91 205 202 210.74 156.09 237 146 231.25 191.91 205"/></clipPath><clipPath id="clip-path-133" transform="translate(-27 -36)"><polygon class="cls-1" points="129.68 227 140 232.88 129.32 239 119 233.11 129.68 227"/></clipPath><clipPath id="clip-path-135" transform="translate(-27 -36)"><polygon class="cls-1" points="92.86 219 103 224.9 77.13 240 67 234.1 92.86 219"/></clipPath><clipPath id="clip-path-137" transform="translate(-27 -36)"><polygon class="cls-1" points="199.26 215 214 223.55 176.75 245 162 236.45 199.26 215"/></clipPath><clipPath id="clip-path-139" transform="translate(-27 -36)"><polygon class="cls-1" points="98.99 230 109 235.84 90 247 80 241.15 98.99 230"/></clipPath><clipPath id="clip-path-141" transform="translate(-27 -36)"><polygon class="cls-1" points="144.07 233 154 238.71 137.92 248 128 242.28 144.07 233"/></clipPath><clipPath id="clip-path-143" transform="translate(-27 -36)"><polygon class="cls-1" points="117.87 234 128 239.9 102.14 255 92 249.11 117.87 234"/></clipPath><clipPath id="clip-path-145" transform="translate(-27 -36)"><polygon class="cls-1" points="125.99 243 136 248.93 114.02 262 104 256.07 125.99 243"/></clipPath><clipPath id="clip-path-147" transform="translate(-27 -36)"><path class="cls-1" d="M179.34,43.75l-.23-.14-1.87-1.09-1.86-1.08c-1.2-.69-2.84-.6-4.66.45L38.51,118.09A14.37,14.37,0,0,0,32,129.34l.25,87.78c0,2,.73,3.5,1.92,4.18l4.65,2.7c-1.18-.68-1.9-2.13-1.91-4.17L36.66,132a14.36,14.36,0,0,1,6.47-11.26L175.36,44.6c1.8-1,3.45-1.14,4.64-.44Z"/></clipPath><clipPath id="clip-path-149" transform="translate(-27 -36)"><path class="cls-1" d="M176.75,134.86l-.22-80.5c0-2.47-1.77-3.48-3.91-2.25L46.12,125.38a8.65,8.65,0,0,0-3.89,6.76l.23,80.51c0,2.47,1.77,3.46,3.92,2.22l126.48-73.25a8.64,8.64,0,0,0,3.89-6.75Zm-1.54-91c3.58-2.07,6.53-.4,6.54,3.73l.25,87.92a14.44,14.44,0,0,1-6.5,11.28L43.78,223.11c-3.59,2.08-6.52.39-6.54-3.74L37,131.46a14.37,14.37,0,0,1,6.46-11.28Z"/></clipPath><clipPath id="clip-path-151" transform="translate(-27 -36)"><path class="cls-1" d="M237.1,161.34,327.62,214c4.14,2.42,11,2.42,15.12,0l68.12-39.39c2.1-1.21,3.15-2.81,3.14-4.42v6.15c0,1.6-1,3.21-3.14,4.42l-68.13,39.4c-4.17,2.41-11,2.41-15.12,0L237.09,167.5c-2.06-1.2-3.09-2.77-3.09-4.35V157C234,158.57,235,160.15,237.1,161.34Z"/></clipPath><clipPath id="clip-path-153" transform="translate(-27 -36)"><path class="cls-1" d="M237.13,153c-4.16,2.41-4.18,6.33,0,8.73l90.54,52.45c4.14,2.4,11,2.4,15.11,0L410.87,175c4.16-2.41,4.18-6.33,0-8.73L320.39,113.8c-4.14-2.4-11-2.4-15.11,0Z"/></clipPath><clipPath id="clip-path-155" transform="translate(-27 -36)"><polygon class="cls-1" points="289 127 289.01 132.68 291 134 290.98 128.32 289 127"/></clipPath><clipPath id="clip-path-157" transform="translate(-27 -36)"><path class="cls-1" d="M291,128v6.08a1.13,1.13,0,0,1,.65.92v-6.08A1.15,1.15,0,0,0,291,128Z"/></clipPath><clipPath id="clip-path-159" transform="translate(-27 -36)"><path class="cls-1" d="M268,129.68V136a1.44,1.44,0,0,1,.74-1.19,3.44,3.44,0,0,1,3.53,0A1.43,1.43,0,0,1,273,136v-6.32a1.43,1.43,0,0,0-.73-1.18,3.44,3.44,0,0,0-3.53,0A1.42,1.42,0,0,0,268,129.68Z"/></clipPath><clipPath id="clip-path-161" transform="translate(-27 -36)"><path class="cls-1" d="M291,129.93V136a1.14,1.14,0,0,0,.66-.93V129A1.14,1.14,0,0,1,291,129.93Z"/></clipPath><clipPath id="clip-path-163" transform="translate(-27 -36)"><path class="cls-1" d="M263.4,138.61a1.6,1.6,0,0,1-.22-.74V132a2.14,2.14,0,0,0,1.3,1.77l2.52,1.4V141l-.93-.52V146l-2.39-1.33a1.11,1.11,0,0,1-.68-.9V137.9A1,1,0,0,0,263.4,138.61Z"/></clipPath><clipPath id="clip-path-165" transform="translate(-27 -36)"><polygon class="cls-1" points="266 140 266.02 145.68 268 147 267.99 141.32 266 140"/></clipPath><clipPath id="clip-path-167" transform="translate(-27 -36)"><polygon class="cls-1" points="271 141.15 271.01 147 291 135.85 290.98 130 271 141.15"/></clipPath><clipPath id="clip-path-169" transform="translate(-27 -36)"><path class="cls-1" d="M268,142v5.65a3.37,3.37,0,0,0,3,0V142A3.37,3.37,0,0,1,268,142Z"/></clipPath><clipPath id="clip-path-171" transform="translate(-27 -36)"><path class="cls-1" d="M273,130.87a1.22,1.22,0,0,0,.81-1.15,1.2,1.2,0,0,0-.81-1.14,4.24,4.24,0,0,0-3.89,0,1.22,1.22,0,0,0,0,2.3,4.28,4.28,0,0,0,3.91,0Zm-6.13,4.2-2.48-1.46c-1.79-1-1.67-2.86.3-4l6.17-3.61a7.48,7.48,0,0,1,6.83-.15l2.48,1.46,3.26-1.91a3.5,3.5,0,0,1,3.21,0l2.34,1.39,2.42,1.41a1,1,0,0,1,.6.94,1,1,0,0,1-.6.93l-19.84,11.56a3.5,3.5,0,0,1-3.18,0L266,140.2l-2.35-1.39a1,1,0,0,1-.61-.94,1,1,0,0,1,.61-.94Z"/></clipPath><clipPath id="clip-path-173" transform="translate(-27 -36)"><path class="cls-1" d="M331.36,127c-3.52,7.89-11.1,14.08-18.6,18.1a79,79,0,0,1-34.44,8.78c-6.51.11-13-.67-19.51-1.12a41,41,0,0,1-9.22-2.06L242,154.19V157l73.83,42.93L335.91,211,336,211V129.56Z"/></clipPath><clipPath id="clip-path-175" transform="translate(-27 -36)"><polygon class="cls-1" points="406 167.68 336 129 336 211 406 170.17 406 167.68"/></clipPath><clipPath id="clip-path-177" transform="translate(-27 -36)"><path class="cls-1" d="M312.32,113,288.5,126.77l2.4,1.39a1,1,0,0,1,.6.92,1,1,0,0,1-.6.91l-19.7,11.35a3.52,3.52,0,0,1-3.16,0l-2.4-1.39L242,153.67,336,208l70-40.49Z"/></clipPath><clipPath id="clip-path-179" transform="translate(-27 -36)"><path class="cls-1" d="M385,165v.1l.14.08v-.07Z"/></clipPath><clipPath id="clip-path-181" transform="translate(-27 -36)"><path class="cls-1" d="M385,158.29a2.42,2.42,0,0,1,.87-.29A2.71,2.71,0,0,0,385,158.29Z"/></clipPath><clipPath id="clip-path-183" transform="translate(-27 -36)"><path class="cls-1" d="M389,160.71l-1-.71Z"/></clipPath><clipPath id="clip-path-185" transform="translate(-27 -36)"><path class="cls-1" d="M103,291.34a22.39,22.39,0,0,0-.25-3.37,23.42,23.42,0,0,0-1.89-6.41,22.15,22.15,0,0,0-1.63-3,23.48,23.48,0,0,0-7.56-7.38,22.29,22.29,0,0,0-2.79-1.44c-1.19-.48-1.48-.6-2-.75v1c4,2.38,3.79,6.17-.3,8.46s-10.61,2.23-14.55-.15c-2-1.18-2.88-2.69-2.86-4.19v-3.86c-.32.15-.61.31-1.09.58a23.4,23.4,0,0,0-8.35,7.89A23.67,23.67,0,0,0,56,291.47a14.86,14.86,0,0,0,.08,1.89c.07.72.2,1.68.32,2.38l.13.63a22.36,22.36,0,0,0,1.16,3.84c.22.49.49,1.17.74,1.65.4.77,1,1.81,1.45,2.55.29.42.68,1,1,1.4.61.75,1.46,1.71,2.13,2.41a23.8,23.8,0,0,0,2.41,2.08,18.48,18.48,0,0,0,2,1.31,22.35,22.35,0,0,0,2.79,1.45,23.22,23.22,0,0,0,4.82,1.5,19.52,19.52,0,0,0,2.17.32c1.39.11,1.39.11,2.1.12a14.73,14.73,0,0,0,2.09-.07c1.42-.15,1.42-.15,2.15-.27a23.43,23.43,0,0,0,4.71-1.34,23.86,23.86,0,0,0,5.67-3.26,22.38,22.38,0,0,0,3-2.81c.33-.38.8-.88,1.09-1.29.56-.77,1.27-1.8,1.77-2.61a30.93,30.93,0,0,0,1.55-3.21,19.9,19.9,0,0,0,.66-1.88c.16-.6.38-1.4.51-2-.09.26-.18.55-.29.84a17.59,17.59,0,0,0,.77-5.77Z"/></clipPath><clipPath id="clip-path-187" transform="translate(-27 -36)"><path class="cls-1" d="M68.54,310.84A22,22,0,0,1,58,295.13c.41,2.8,2.42,5.53,6.06,7.7,8.44,5.05,22.42,5.19,31.22.32,4-2.24,6.29-5.16,6.72-8.15-.15.82-.33,1.91-.56,2.72a30.07,30.07,0,0,1-1.09,3.06,21.7,21.7,0,0,1-2.51,4.29,22.31,22.31,0,0,1-29.3,5.77Z"/></clipPath><clipPath id="clip-path-189" transform="translate(-27 -36)"><path class="cls-1" d="M95.88,285c-8.41-5.16-22.34-5.31-31.11-.33s-9.06,13.18-.65,18.38,22.34,5.3,31.11.32S104.29,290.14,95.88,285Z"/></clipPath><clipPath id="clip-path-191" transform="translate(-27 -36)"><rect class="cls-1" x="69" y="256" width="21" height="17"/></clipPath><clipPath id="clip-path-193" transform="translate(-27 -36)"><path class="cls-1" d="M69,274V263.06c0,1.5,1,3,2.94,4.17,4,2.4,10.65,2.47,14.84.15C88.93,266.19,90,264.59,90,263v10.93c0,1.59-1.08,3.18-3.22,4.37a16.47,16.47,0,0,1-14.84-.14C70,277,69,275.49,69,274Z"/></clipPath><clipPath id="clip-path-195" transform="translate(-27 -36)"><path class="cls-1" d="M67,257.19v-2.12c0,1.95,1.2,3.9,3.62,5.41,5,3.11,13.21,3.21,18.4.2,2.67-1.55,4-3.61,4-5.68v2.12c0,2.07-1.33,4.14-4,5.68-5.19,3-13.42,2.92-18.4-.2C68.2,261.09,67,259.14,67,257.19Z"/></clipPath><clipPath id="clip-path-197" transform="translate(-27 -36)"><path class="cls-1" d="M89.38,250.29c5,3,4.8,7.73-.37,10.61s-13.41,2.79-18.39-.19S65.82,253,71,250.1,84.42,247.31,89.38,250.29Z"/></clipPath><clipPath id="clip-path-199" transform="translate(-27 -36)"><path class="cls-1" d="M80,261a16.7,16.7,0,0,1-8.33-2c-1.69-1-2.65-2.29-2.63-3.49s1.09-2.58,3-3.61a18.26,18.26,0,0,1,16.42.14c1.69,1,2.65,2.29,2.63,3.49s-1.09,2.58-3,3.61A16.86,16.86,0,0,1,80,261Z"/></clipPath><clipPath id="clip-path-201" transform="translate(-27 -36)"><path class="cls-1" d="M72,253.54A18,18,0,0,1,80,251.81a17.56,17.56,0,0,1,8.33,1.86A5.43,5.43,0,0,1,90.79,256a2.18,2.18,0,0,0,.21-.87c0-1.11-.93-2.28-2.63-3.23A17.8,17.8,0,0,0,80,250,18.1,18.1,0,0,0,72,251.73c-1.86.93-2.93,2.18-3,3.34a2.14,2.14,0,0,0,.21.93A5.82,5.82,0,0,1,72,253.54Z"/></clipPath><clipPath id="clip-path-203" transform="translate(-27 -36)"><polygon class="cls-1" points="159 122 157.16 120.92 157 68 158.84 69.08 159 122"/></clipPath><clipPath id="clip-path-205" transform="translate(-27 -36)"><polygon class="cls-1" points="158.87 69 157 67.93 192.13 48 194 49.07 158.87 69"/></clipPath><clipPath id="clip-path-207" transform="translate(-27 -36)"><polygon class="cls-1" points="193.84 49 194 101.95 159.16 122 159 69.05 193.84 49"/></clipPath><clipPath id="clip-path-209" transform="translate(-27 -36)"><polygon class="cls-1" points="163 125 161.15 123.92 161 71 162.85 72.08 163 125"/></clipPath><clipPath id="clip-path-211" transform="translate(-27 -36)"><polygon class="cls-1" points="162.87 72 161 70.93 196.13 51 198 52.07 162.87 72"/></clipPath><clipPath id="clip-path-213" transform="translate(-27 -36)"><polygon class="cls-1" points="197.85 52 198 104.95 163.15 125 163 72.05 197.85 52"/></clipPath><clipPath id="clip-path-215" transform="translate(-27 -36)"><polygon class="cls-1" points="167 128 165.15 126.92 165 74 166.85 75.08 167 128"/></clipPath><clipPath id="clip-path-217" transform="translate(-27 -36)"><polygon class="cls-1" points="166.87 75 165 73.93 200.13 54 202 55.07 166.87 75"/></clipPath><clipPath id="clip-path-219" transform="translate(-27 -36)"><polygon class="cls-1" points="201.85 55 202 107.95 167.15 128 167 75.05 201.85 55"/></clipPath><clipPath id="clip-path-221" transform="translate(-27 -36)"><polygon class="cls-1" points="199 84 199 87.22 169.01 105 169 101.78 199 84"/></clipPath><clipPath id="clip-path-223" transform="translate(-27 -36)"><polygon class="cls-1" points="198.99 70 199 73.22 169.01 91 169 87.78 198.99 70"/></clipPath><clipPath id="clip-path-225" transform="translate(-27 -36)"><polygon class="cls-1" points="189.99 69 190 72.17 169.01 84 169 80.82 189.99 69"/></clipPath><clipPath id="clip-path-227" transform="translate(-27 -36)"><polygon class="cls-1" points="199 77 199 80.23 169.01 98 169 94.77 199 77"/></clipPath><clipPath id="clip-path-229" transform="translate(-27 -36)"><polygon class="cls-1" points="198.99 97 199 100.23 169.01 118 169 114.77 198.99 97"/></clipPath><clipPath id="clip-path-231" transform="translate(-27 -36)"><polygon class="cls-1" points="198.99 91 199 94.22 169.01 112 169 108.78 198.99 91"/></clipPath><clipPath id="clip-path-233" transform="translate(-27 -36)"><polygon class="cls-1" points="319.93 155.36 311.35 148.37 301.06 152.32 299.36 163.25 307.94 170.24 318.23 166.29 319.93 155.36"/></clipPath><clipPath id="clip-path-235" transform="translate(-27 -36)"><polygon class="cls-1" points="320.7 153.92 329.63 150.49 331.12 140.99 323.66 134.92 314.72 138.35 313.24 147.85 320.7 153.92"/></clipPath><clipPath id="clip-path-237" transform="translate(-27 -36)"><polygon class="cls-1" points="322.14 155.65 320.43 166.59 329.02 173.57 339.3 169.62 341.01 158.69 332.43 151.7 322.14 155.65"/></clipPath></defs><title>Asset 1</title><g id="Layer_2" data-name="Layer 2"><g id="Layer_1-2" data-name="Layer 1"><g class="cls-2"><g class="cls-3"><rect class="cls-4" x="124" y="231" width="77" height="50"/></g></g><g class="cls-5"><g class="cls-3"><rect class="cls-6" x="129" y="231" width="65" height="42"/></g></g><g class="cls-7"><g class="cls-3"><rect class="cls-8" x="173" y="256" width="19" height="15"/></g></g><g class="cls-9"><g class="cls-3"><rect class="cls-10" x="124" y="228" width="77" height="49"/></g></g><g class="cls-11"><g class="cls-3"><rect class="cls-8" x="133" y="233" width="17" height="14"/></g></g><g class="cls-12"><g class="cls-3"><rect class="cls-13" x="47" y="279" width="74" height="49"/></g></g><g class="cls-14"><g class="cls-3"><rect class="cls-15" x="4" y="291" width="53" height="37"/></g></g><g class="cls-16"><g class="cls-3"><rect class="cls-15" x="4" y="254" width="117" height="72"/></g></g><g class="cls-17"><g class="cls-3"><rect class="cls-18" x="5" y="281" width="14" height="22"/></g></g><g class="cls-19"><g class="cls-3"><rect class="cls-20" x="47" y="272" width="70" height="52"/></g></g><g class="cls-21"><g class="cls-3"><rect class="cls-22" x="8" y="284" width="50" height="40"/></g></g><g class="cls-23"><g class="cls-3"><rect class="cls-24" x="10" y="249" width="107" height="68"/></g></g><g class="cls-25"><g class="cls-3"><rect class="cls-15" x="47" y="268" width="74" height="49"/></g></g><g class="cls-26"><g class="cls-3"><rect class="cls-15" x="4" y="280" width="53" height="37"/></g></g><g class="cls-27"><g class="cls-3"><rect class="cls-6" x="4" y="243" width="117" height="72"/></g></g><g class="cls-28"><g class="cls-3"><rect class="cls-18" x="4" y="281" width="12" height="22"/></g></g><g class="cls-29"><g class="cls-3"><rect class="cls-6" x="44" y="264" width="65" height="44"/></g></g><g class="cls-30"><g class="cls-3"><rect class="cls-6" x="6" y="274" width="48" height="33"/></g></g><g class="cls-31"><g class="cls-3"><rect class="cls-13" x="6" y="242" width="103" height="64"/></g></g><g class="cls-32"><g class="cls-3"><rect class="cls-33" x="7" y="266" width="14" height="20"/></g></g><g class="cls-34"><g class="cls-3"><rect class="cls-20" x="44" y="258" width="62" height="47"/></g></g><g class="cls-35"><g class="cls-3"><rect class="cls-22" x="9" y="268" width="45" height="36"/></g></g><g class="cls-36"><g class="cls-3"><rect class="cls-24" x="11" y="238" width="95" height="60"/></g></g><g class="cls-37"><g class="cls-3"><rect class="cls-6" x="44" y="254" width="65" height="44"/></g></g><g class="cls-38"><g class="cls-3"><rect class="cls-6" x="6" y="265" width="48" height="33"/></g></g><g class="cls-39"><g class="cls-3"><rect class="cls-40" x="6" y="233" width="103" height="64"/></g></g><g class="cls-41"><g class="cls-3"><rect class="cls-6" x="6" y="265" width="12" height="21"/></g></g><g class="cls-42"><g class="cls-3"><rect class="cls-43" x="10" y="11" width="145" height="173"/></g></g><g class="cls-44"><g class="cls-3"><rect class="cls-45" x="9" y="112" width="236" height="140"/></g></g><g class="cls-46"><g class="cls-3"><rect class="cls-6" x="9" y="104" width="236" height="141"/></g></g><g class="cls-47"><g class="cls-3"><rect class="cls-48" x="134" y="130" width="31" height="22"/></g></g><g class="cls-49"><g class="cls-3"><rect class="cls-48" x="150" y="135" width="31" height="22"/></g></g><g class="cls-50"><g class="cls-3"><rect class="cls-48" x="163" y="127" width="44" height="33"/></g></g><g class="cls-51"><g class="cls-3"><rect class="cls-48" x="139" y="141" width="31" height="22"/></g></g><g class="cls-52"><g class="cls-3"><rect class="cls-48" x="178" y="141" width="42" height="28"/></g></g><g class="cls-53"><g class="cls-3"><rect class="cls-48" x="161" y="154" width="36" height="25"/></g></g><g class="cls-54"><g class="cls-3"><rect class="cls-48" x="134" y="158" width="31" height="22"/></g></g><g class="cls-55"><g class="cls-3"><rect class="cls-48" x="140" y="112" width="31" height="22"/></g></g><g class="cls-56"><g class="cls-3"><rect class="cls-48" x="127" y="120" width="31" height="22"/></g></g><g class="cls-57"><g class="cls-3"><rect class="cls-48" x="146" y="119" width="36" height="25"/></g></g><g class="cls-58"><g class="cls-3"><rect class="cls-48" x="115" y="127" width="31" height="22"/></g></g><g class="cls-59"><g class="cls-3"><rect class="cls-48" x="102" y="134" width="31" height="22"/></g></g><g class="cls-60"><g class="cls-3"><rect class="cls-48" x="122" y="137" width="31" height="22"/></g></g><g class="cls-61"><g class="cls-3"><rect class="cls-48" x="90" y="141" width="31" height="22"/></g></g><g class="cls-62"><g class="cls-3"><rect class="cls-48" x="111" y="143" width="31" height="22"/></g></g><g class="cls-63"><g class="cls-3"><rect class="cls-48" x="158" y="145" width="31" height="22"/></g></g><g class="cls-64"><g class="cls-3"><rect class="cls-48" x="77" y="148" width="31" height="22"/></g></g><g class="cls-65"><g class="cls-3"><rect class="cls-48" x="127" y="148" width="31" height="22"/></g></g><g class="cls-66"><g class="cls-3"><rect class="cls-48" x="99" y="150" width="31" height="22"/></g></g><g class="cls-67"><g class="cls-3"><rect class="cls-48" x="146" y="152" width="31" height="22"/></g></g><g class="cls-68"><g class="cls-3"><rect class="cls-48" x="115" y="155" width="31" height="22"/></g></g><g class="cls-69"><g class="cls-3"><rect class="cls-48" x="65" y="156" width="31" height="22"/></g></g><g class="cls-70"><g class="cls-3"><rect class="cls-48" x="87" y="157" width="31" height="22"/></g></g><g class="cls-71"><g class="cls-3"><rect class="cls-48" x="103" y="162" width="31" height="22"/></g></g><g class="cls-72"><g class="cls-3"><rect class="cls-48" x="53" y="163" width="31" height="22"/></g></g><g class="cls-73"><g class="cls-3"><rect class="cls-48" x="75" y="164" width="31" height="22"/></g></g><g class="cls-74"><g class="cls-3"><rect class="cls-48" x="122" y="165" width="31" height="22"/></g></g><g class="cls-75"><g class="cls-3"><rect class="cls-48" x="92" y="169" width="31" height="22"/></g></g><g class="cls-76"><g class="cls-3"><rect class="cls-48" x="40" y="170" width="31" height="22"/></g></g><g class="cls-77"><g class="cls-3"><rect class="cls-48" x="63" y="171" width="31" height="22"/></g></g><g class="cls-78"><g class="cls-3"><rect class="cls-48" x="111" y="172" width="31" height="22"/></g></g><g class="cls-79"><g class="cls-3"><rect class="cls-48" x="80" y="176" width="31" height="22"/></g></g><g class="cls-80"><g class="cls-3"><rect class="cls-48" x="99" y="179" width="31" height="22"/></g></g><g class="cls-81"><g class="cls-3"><rect class="cls-48" x="23" y="180" width="31" height="22"/></g></g><g class="cls-82"><g class="cls-3"><rect class="cls-48" x="68" y="182" width="31" height="22"/></g></g><g class="cls-83"><g class="cls-3"><rect class="cls-48" x="114" y="164" width="66" height="42"/></g></g><g class="cls-84"><g class="cls-3"><rect class="cls-48" x="87" y="186" width="31" height="22"/></g></g><g class="cls-85"><g class="cls-3"><rect class="cls-48" x="35" y="178" width="46" height="31"/></g></g><g class="cls-86"><g class="cls-3"><rect class="cls-48" x="130" y="174" width="62" height="40"/></g></g><g class="cls-87"><g class="cls-3"><rect class="cls-48" x="48" y="189" width="39" height="27"/></g></g><g class="cls-88"><g class="cls-3"><rect class="cls-48" x="96" y="192" width="36" height="25"/></g></g><g class="cls-89"><g class="cls-3"><rect class="cls-48" x="60" y="193" width="46" height="31"/></g></g><g class="cls-90"><g class="cls-3"><rect class="cls-48" x="72" y="202" width="42" height="29"/></g></g><g class="cls-91"><g class="cls-3"><rect class="cls-45" width="158" height="193"/></g></g><g class="cls-92"><g class="cls-3"><rect class="cls-6" x="5" y="2" width="155" height="191"/></g></g><g class="cls-93"><g class="cls-3"><rect class="cls-45" x="202" y="116" width="190" height="75"/></g></g><g class="cls-94"><g class="cls-3"><rect class="cls-6" x="202" y="71" width="190" height="114"/></g></g><g class="cls-95"><g class="cls-3"><rect class="cls-96" x="257" y="86" width="12" height="17"/></g></g><g class="cls-97"><g class="cls-3"><rect class="cls-98" x="259" y="87" width="10.65" height="17"/></g></g><g class="cls-99"><g class="cls-3"><rect class="cls-100" x="236" y="87" width="15" height="18"/></g></g><g class="cls-101"><g class="cls-3"><rect class="cls-102" x="259" y="88" width="10.66" height="17"/></g></g><g class="cls-103"><g class="cls-3"><rect class="cls-100" x="231" y="91" width="14" height="24"/></g></g><g class="cls-104"><g class="cls-3"><rect class="cls-105" x="234" y="99" width="12" height="17"/></g></g><g class="cls-106"><g class="cls-3"><rect class="cls-107" x="239" y="89" width="30" height="27"/></g></g><g class="cls-108"><g class="cls-3"><rect class="cls-102" x="236" y="101" width="13" height="16"/></g></g><g class="cls-109"><g class="cls-3"><rect class="cls-40" x="231" y="84" width="39" height="27"/></g></g><g class="cls-110"><g class="cls-3"><rect class="cls-111" x="210" y="86" width="104" height="94"/></g></g><g class="cls-112"><g class="cls-3"><rect class="cls-113" x="304" y="88" width="80" height="92"/></g></g><g class="cls-114"><g class="cls-3"><rect class="cls-115" x="210" y="72" width="174" height="105"/></g></g><g class="cls-116"><g class="cls-3"><rect class="cls-117" x="353" y="124" width="10.14" height="10.18"/></g></g><g class="cls-118"><g class="cls-3"><rect class="cls-119" x="353" y="117" width="10.87" height="10.29"/></g></g><g class="cls-120"><g class="cls-3"><rect class="cls-119" x="356" y="119" width="11" height="10.71"/></g></g><g class="cls-121"><g class="cls-3"><rect class="cls-122" x="24" y="228" width="57" height="56"/></g></g><g class="cls-123"><g class="cls-3"><rect class="cls-6" x="26" y="254" width="54" height="29"/></g></g><g class="cls-124"><g class="cls-3"><rect class="cls-40" x="26" y="240" width="54" height="36"/></g></g><g class="cls-125"><g class="cls-3"><rect class="cls-122" x="37" y="215" width="31" height="27"/></g></g><g class="cls-126"><g class="cls-3"><rect class="cls-122" x="37" y="222" width="31" height="27"/></g></g><g class="cls-127"><g class="cls-3"><rect class="cls-128" x="35" y="214" width="36" height="20"/></g></g><g class="cls-129"><g class="cls-3"><rect class="cls-122" x="35" y="207" width="36" height="25"/></g></g><g class="cls-130"><g class="cls-3"><rect class="cls-128" x="37" y="209" width="32" height="21"/></g></g><g class="cls-131"><g class="cls-3"><rect class="cls-132" x="37" y="209" width="32" height="16"/></g></g><g class="cls-133"><g class="cls-3"><rect class="cls-134" x="125" y="27" width="12" height="64"/></g></g><g class="cls-135"><g class="cls-3"><rect class="cls-48" x="125" y="7" width="47" height="31"/></g></g><g class="cls-136"><g class="cls-3"><rect class="cls-8" x="127" y="8" width="45" height="83"/></g></g><g class="cls-137"><g class="cls-3"><rect class="cls-134" x="129" y="30" width="12" height="64"/></g></g><g class="cls-138"><g class="cls-3"><rect class="cls-48" x="129" y="10" width="47" height="31"/></g></g><g class="cls-139"><g class="cls-3"><rect class="cls-8" x="131" y="11" width="45" height="83"/></g></g><g class="cls-140"><g class="cls-3"><rect class="cls-134" x="133" y="33" width="12" height="64"/></g></g><g class="cls-141"><g class="cls-3"><rect class="cls-48" x="133" y="13" width="47" height="31"/></g></g><g class="cls-142"><g class="cls-3"><rect class="cls-8" x="135" y="14" width="45" height="83"/></g></g><g class="cls-143"><g class="cls-3"><rect class="cls-134" x="137" y="43" width="40" height="31"/></g></g><g class="cls-144"><g class="cls-3"><rect class="cls-134" x="137" y="29" width="40" height="31"/></g></g><g class="cls-145"><g class="cls-3"><rect class="cls-45" x="137" y="28" width="31" height="25"/></g></g><g class="cls-146"><g class="cls-3"><rect class="cls-134" x="137" y="36" width="40" height="31"/></g></g><g class="cls-147"><g class="cls-3"><rect class="cls-134" x="137" y="56" width="40" height="31"/></g></g><g class="cls-148"><g class="cls-3"><rect class="cls-134" x="137" y="50" width="40" height="31"/></g></g><g class="cls-149"><g class="cls-3"><rect class="cls-150" x="293.63" y="144.71" width="32.04" height="29.19" transform="translate(-63.52 85.55) rotate(-21)"/></g></g><g class="cls-151"><g class="cls-3"><rect class="cls-152" x="307.61" y="131.09" width="29.14" height="26.67" transform="translate(-57.36 89.05) rotate(-21)"/></g></g><g class="cls-153"><g class="cls-3"><rect class="cls-6" x="314.7" y="148.04" width="32.04" height="29.19" transform="translate(-63.32 93.32) rotate(-21)"/></g></g></g></g></svg>