<?xml version="1.0" encoding="utf-8"?>
<!-- Generator: Adobe Illustrator 22.0.0, SVG Export Plug-In . SVG Version: 6.00 Build 0)  -->
<svg version="1.1" id="Layer_1" xmlns="http://www.w3.org/2000/svg" xmlns:xlink="http://www.w3.org/1999/xlink" x="0px" y="0px"
	 viewBox="0 0 600 600" style="enable-background:new 0 0 600 600;" xml:space="preserve">
<style type="text/css">
	.st0{fill:#659BF8;}
	
		.st1{opacity:0.7;fill:none;stroke:#659BF8;stroke-width:4.0581;stroke-linecap:round;stroke-linejoin:round;stroke-miterlimit:10;stroke-dasharray:7.1016;enable-background:new    ;}
	.st2{fill:#A7EDC1;}
	.st3{fill:#87E3A7;}
	.st4{opacity:0.1;fill:#FFFFFF;enable-background:new    ;}
	.st5{opacity:0.2;fill:#3B3B3B;enable-background:new    ;}
	.st6{fill:#FFFFFF;}
	.st7{fill:#F4D86E;}
	.st8{fill:#E6B244;}
	.st9{fill:#D09D2D;}
	.st10{fill:#575F66;}
	.st11{fill:#404952;}
	.st12{fill:#D6876B;}
	.st13{fill:#D66B40;}
	.st14{fill:#FF719D;}
	.st15{clip-path:url(#SVGID_2_);}
	.st16{fill:#589AF8;}
	.st17{fill:#F5DE34;}
	.st18{fill:#F2FBFF;}
	.st19{fill:url(#XMLID_3_);}
	.st20{fill:#6E6EDB;}
	.st21{clip-path:url(#SVGID_4_);}
	.st22{clip-path:url(#SVGID_6_);}
	.st23{fill:#FFB74D;}
	.st24{fill:#FECF37;}
	.st25{fill:#E4E9F3;}
	.st26{fill:#D6DCEB;}
	.st27{fill:#B9C1D9;}
</style>
<g>
	<path class="st0" d="M312.4,444.8l-10.9-127.3h0.2l12.4,127.1C313.6,444.7,313,444.8,312.4,444.8z M244.4,434.3
		c-0.5-0.3-1.1-0.4-1.7-0.7l50.4-117.4l0.1,0.1L244.4,434.3z M379.3,421.9l-69.6-107.1l0.2-0.1l71,106.3
		C380.2,421.2,379.7,421.5,379.3,421.9z M187.8,392.3c-0.4-0.4-0.7-0.9-1.1-1.3l99.6-80l0.1,0.2L187.8,392.3z M427.3,370.1
		l-112-61.7l0.1-0.2L428,368.6C427.9,369.2,427.6,369.7,427.3,370.1z M157.5,328.4c-0.1-0.5-0.3-1.2-0.4-1.7l125.7-23.2v0.2
		L157.5,328.4z M445.3,301.8l-127.8-1.5V300h127.8C445.3,300.6,445.3,301.2,445.3,301.8z M283.2,294.9l-122.3-37
		c0.2-0.5,0.4-1.1,0.5-1.6l121.8,38.5L283.2,294.9z M316.4,293.8l-0.2-0.4l118.1-48.9c0.2,0.4,0.4,0.9,0.5,1.3L316.4,293.8z
		 M287.7,287.6l-90.5-90.2c0.4-0.4,0.9-0.9,1.3-1.3L287.7,287.6z M311.2,286.6L311.2,286.6l81-98.8c0.4,0.4,1,0.8,1.4,1.2
		L311.2,286.6z M294.9,283.3L257.8,161c0.5-0.2,1.1-0.4,1.6-0.4l35.8,122.6L294.9,283.3z M303.6,282.9L303.6,282.9l24.6-125.3
		c0.6,0.1,1.2,0.3,1.8,0.4L303.6,282.9z"/>
	<path class="st0" d="M305.6,410.6l-2.9-58.4h0.6l3.6,58.4C306.5,410.6,306,410.6,305.6,410.6z M279.3,408.8
		c-0.4-0.1-0.8-0.2-1.3-0.3l11.5-57.3l0.7,0.2L279.3,408.8z M332.9,405.7l-17.4-55.9l0.6-0.2l18.1,55.6
		C333.7,405.5,333.3,405.6,332.9,405.7z M252.8,400.1c-0.4-0.2-0.8-0.4-1.3-0.6l25.6-52.6l0.5,0.3L252.8,400.1z M358.1,394.2
		l-30.7-49.8l0.4-0.3l31.4,49.3C358.9,393.8,358.5,394,358.1,394.2z M229.4,385.2c-0.4-0.3-0.7-0.5-1-0.9l37.9-44.6l0.4,0.4
		L229.4,385.2z M379.8,376.8l-42.2-40.5l0.4-0.4l42.6,40.1C380.3,376.2,380.1,376.4,379.8,376.8z M210.4,365
		c-0.3-0.4-0.5-0.7-0.7-1.1l47.7-33.8l0.4,0.5L210.4,365z M396.3,354.6l-50.9-28.8l0.3-0.5l51.2,28.2
		C396.8,353.8,396.5,354.1,396.3,354.6z M197,340.8c-0.2-0.4-0.4-0.9-0.5-1.3l54.7-20.8l0.2,0.5L197,340.8z M406.9,328.8l-56.5-15.1
		l0.2-0.7l56.7,14.6C407.1,328,407,328.4,406.9,328.8z M190.2,313.8c-0.1-0.4-0.1-0.9-0.2-1.3l58.1-6.5l0.1,0.6L190.2,313.8z
		 M410.6,301.4l-58.5-0.7v-0.6h58.5C410.7,300.5,410.7,301,410.6,301.4z M248.3,293.4l-58-7.3c0.1-0.4,0.1-0.9,0.2-1.3l58,8.1
		L248.3,293.4z M350.7,287.7l-0.2-0.6l56.7-14.4c0.1,0.4,0.2,0.9,0.4,1.3L350.7,287.7z M251.5,280.8l-54.4-21.6
		c0.2-0.4,0.4-0.8,0.5-1.3l54.1,22.3L251.5,280.8z M346.1,275.6l-0.3-0.5l51.2-28.2c0.2,0.4,0.4,0.8,0.6,1.2L346.1,275.6z
		 M257.8,269.3l-47.3-34.5c0.3-0.4,0.5-0.7,0.8-1.1l46.8,35L257.8,269.3z M338.6,264.9l-0.4-0.4l42.7-40c0.3,0.4,0.6,0.6,0.9,1
		L338.6,264.9z M266.8,259.8l-37.2-45.1c0.4-0.3,0.6-0.5,1-0.8l36.7,45.5L266.8,259.8z M328.6,256.4L328,256l31.5-49.3
		c0.4,0.3,0.7,0.4,1.1,0.7L328.6,256.4z M277.9,252.8L253,199.9c0.4-0.2,0.8-0.4,1.2-0.5l24.3,53.3L277.9,252.8z M316.8,250.6
		l-0.6-0.2l18.1-55.6c0.4,0.1,0.8,0.3,1.2,0.4L316.8,250.6z M290.2,248.8l-10.8-57.5c0.4-0.1,0.9-0.2,1.3-0.3l10.2,57.6L290.2,248.8
		z M304,248h-0.5l3.7-58.4c0.4,0,0.9,0.1,1.3,0.1L304,248z"/>
</g>
<polygon class="st1" points="503.9,417.8 503.9,182.5 300.1,64.8 96.3,182.5 96.3,417.8 300.1,535.5 "/>
<g id="XMLID_2_">
	<g id="XMLID_360_">
		<ellipse id="XMLID_375_" class="st2" cx="504.1" cy="416.9" rx="56.3" ry="56.3"/>
		<ellipse id="XMLID_374_" class="st3" cx="504" cy="416.9" rx="47.6" ry="47.6"/>
		<path id="XMLID_373_" class="st4" d="M514.9,463.3c-25.6,6-51.3-9.8-57.3-35.4c-0.8-3.5-1.3-6.9-1.3-10.3c-0.1,4,0.3,8.1,1.3,12.1
			c6,25.6,31.7,41.5,57.3,35.4c22.1-5.2,36.9-25.1,36.7-46.9C551.1,439.3,536.5,458.3,514.9,463.3z"/>
		<path id="XMLID_368_" class="st5" d="M493.1,374.1c25.6-6,51.3,9.8,57.3,35.4c0.7,3.1,1.2,6.1,1.3,9.2c0.2-4.1-0.3-8.4-1.3-12.7
			c-6-25.6-31.7-41.4-57.3-35.4c-22.6,5.3-37.5,25.8-36.7,48.2C457.2,397.8,471.7,379.1,493.1,374.1z"/>
	</g>
	<g id="XMLID_357_">
		<path id="XMLID_359_" class="st6" d="M475.2,416.9c0.5-0.4,1.2-0.6,1.7-0.8c1.3-0.4,2.5-0.8,3.8-1.1c2.5-0.5,5.1-0.9,7.7-1.2
			c3.4-0.4,6.8-0.5,10.3-0.6v8c1.7,0,3.3,0.1,5,0.1h0.6c2,0,4,0,5.9-0.1v-7.9c3.1,0.1,6.2,0.3,9.3,0.6c2.6,0.3,5.2,0.6,7.7,1.2
			c1.3,0.3,2.5,0.6,3.8,1.1c0.6,0.3,1.2,0.5,1.7,0.8c0.5,0.4,1.1,0.8,1.2,1.4c0-0.7-0.5-1.3-1.1-1.6c-0.5-0.4-1.2-0.7-1.7-1
			c-1.2-0.5-2.5-0.9-3.8-1.3c-2.5-0.6-5.1-1.1-7.7-1.4c-3.1-0.4-6.3-0.6-9.4-0.8v-7.9h17v-11.7h-45.6v11.6h17v7.9
			c-3.5,0.1-6.9,0.4-10.4,0.8c-2.6,0.4-5.2,0.8-7.7,1.4c-1.3,0.4-2.5,0.7-3.8,1.3c-0.6,0.3-1.2,0.5-1.7,1c-0.5,0.4-1.1,0.9-1.1,1.6
			C474,417.7,474.7,417.1,475.2,416.9z"/>
		<path id="XMLID_358_" class="st6" d="M532.9,419.7c-0.5,0.4-1.2,0.5-1.8,0.8c-1.3,0.4-2.5,0.7-3.8,0.9c-2.5,0.4-5.1,0.8-7.7,1
			c-5.2,0.4-10.4,0.6-15.6,0.6c-5.2,0-10.4-0.2-15.6-0.6c-2.6-0.3-5.2-0.5-7.7-1c-1.3-0.3-2.5-0.5-3.8-0.9c-0.6-0.2-1.2-0.4-1.8-0.8
			c-0.5-0.4-1.1-0.7-1.2-1.4c0,0.7,0.5,1.3,1,1.6c0.5,0.4,1.1,0.7,1.7,1c1.2,0.5,2.5,1,3.8,1.3c2.5,0.7,5.1,1.3,7.7,1.6
			c3.5,0.5,6.9,0.8,10.4,0.9V448h11.9v-23.3c3.1-0.2,6.4-0.4,9.5-0.9c2.6-0.4,5.2-0.9,7.7-1.6c1.3-0.4,2.5-0.8,3.8-1.3
			c0.6-0.3,1.2-0.6,1.7-1c0.5-0.4,1.1-1,1-1.6C534,419,533.4,419.4,532.9,419.7z"/>
	</g>
</g>
<g id="XMLID_63_">
	<circle id="XMLID_83_" class="st7" cx="300.1" cy="505.9" r="56.1"/>
	<g id="XMLID_81_">
		<circle id="XMLID_82_" class="st8" cx="300.1" cy="505.9" r="49.1"/>
	</g>
	<g id="XMLID_65_">
		<g id="XMLID_78_">
			<rect id="XMLID_80_" x="289.1" y="470.6" class="st9" width="6.3" height="12.4"/>
			<rect id="XMLID_79_" x="301.3" y="470.6" class="st9" width="6.3" height="12.4"/>
		</g>
		<g id="XMLID_75_">
			<rect id="XMLID_77_" x="289.1" y="529.3" class="st9" width="6.3" height="12.4"/>
			<rect id="XMLID_76_" x="301.3" y="529.3" class="st9" width="6.3" height="12.4"/>
		</g>
		<g id="XMLID_70_">
			<path id="XMLID_71_" class="st9" d="M325.9,493.4c0,5.8-3.8,10.6-9.7,12.2c7.1,1.4,11.5,7,11.5,14.2c0,9.6-8.4,15.6-21.7,15.6
				h-27.8v-56.2h26.7C317.8,479.2,325.9,484.8,325.9,493.4z M310.8,496c0-3.3-2.5-5.4-6.6-5.3H293v10.9h11.2
				C308.3,501.6,310.8,499.5,310.8,496z M312.6,517.9c0-3.5-3.2-5.8-8.4-5.7H293v11.8h11.2C309.4,524.1,312.6,521.8,312.6,517.9z"/>
		</g>
		<path id="XMLID_66_" class="st7" d="M328.6,518.9c0-7.2-4.4-12.8-11.5-14.2c5.9-1.6,9.7-6.3,9.7-12.2c0-8.1-7-13.4-18.2-14.1v-7.9
			h-6.3v7.8h-5.9v-7.8H290v7.8h-10.8v56.2H290v7h6.3v-7h5.9v7h6.3v-7C320.8,534.1,328.6,528.2,328.6,518.9z M311.6,495.1
			c0,3.5-2.5,5.6-6.6,5.6h-11.2v-10.9H305C309.2,489.8,311.6,491.8,311.6,495.1z M305,523.2h-11.2v-11.8H305
			c5.1-0.1,8.4,2.2,8.4,5.7C313.4,521,310.2,523.2,305,523.2z"/>
	</g>
	<path id="XMLID_64_" class="st9" d="M300.1,456.8c-8.2,0-15.9,2-22.6,5.6c6.4-3,13.5-4.7,20.9-4.7c27.1,0,49.1,22,49.1,49.1
		c0,19-10.8,35.4-26.5,43.6c16.6-7.9,28.2-24.8,28.2-44.5C349.2,478.8,327.2,456.8,300.1,456.8z"/>
</g>
<g id="XMLID_45_">
	<g id="XMLID_58_">
		<ellipse id="XMLID_62_" class="st10" cx="98" cy="194.6" rx="56.3" ry="56.3"/>
		<ellipse id="XMLID_61_" class="st11" cx="98.1" cy="194.6" rx="47.6" ry="47.6"/>
		<path id="XMLID_60_" class="st4" d="M108.9,240.9c-25.6,6-51.3-9.8-57.3-35.4c-0.8-3.5-1.3-6.9-1.3-10.3c-0.1,4,0.3,8.1,1.3,12.1
			c6,25.6,31.7,41.5,57.3,35.4c22.1-5.2,36.9-25.1,36.7-46.9C145.1,216.9,130.5,235.9,108.9,240.9z"/>
		<path id="XMLID_59_" class="st5" d="M87.1,151.6c25.6-6,51.3,9.8,57.3,35.4c0.7,3.1,1.2,6.1,1.3,9.2c0.2-4.1-0.3-8.4-1.3-12.7
			c-6-25.6-31.7-41.4-57.3-35.4c-22.6,5.3-37.5,25.8-36.7,48.2C51.2,175.4,65.8,156.7,87.1,151.6z"/>
	</g>
	<g id="XMLID_46_">
		<g id="XMLID_47_">
			<g id="XMLID_56_">
				<polygon id="XMLID_57_" class="st6" points="98.9,210.4 98.9,225.8 118,198.9 				"/>
			</g>
			<g id="XMLID_53_">
				<polygon id="XMLID_55_" class="st6" points="117.3,193.9 98.9,163.4 98.9,185.6 				"/>
				<polygon id="XMLID_54_" class="st6" points="98.9,187.4 98.9,206.3 117.1,195.7 				"/>
			</g>
			<g id="XMLID_50_">
				<polygon id="XMLID_52_" class="st6" points="78.9,193.9 97.3,163.4 97.3,185.6 				"/>
				<polygon id="XMLID_51_" class="st6" points="97.3,187.4 97.3,206.3 79,195.7 				"/>
			</g>
			<g id="XMLID_48_">
				<polygon id="XMLID_49_" class="st6" points="97.2,210.4 97.2,225.8 78.1,198.9 				"/>
			</g>
		</g>
	</g>
</g>
<g id="XMLID_126_">
	<g id="XMLID_131_">
		<ellipse id="XMLID_140_" class="st12" cx="300.1" cy="97.1" rx="56.2" ry="56.2"/>
		<ellipse id="XMLID_137_" class="st13" cx="300.1" cy="97.1" rx="47.5" ry="47.5"/>
		<path id="XMLID_136_" class="st4" d="M311,143.4c-25.5,6-51.1-9.8-57.2-35.3c-0.8-3.5-1.3-6.9-1.3-10.3c-0.1,4,0.3,8,1.3,12
			c6,25.5,31.6,41.4,57.2,35.3c22.1-5.2,36.9-25.1,36.7-46.8C347.1,119.4,332.4,138.3,311,143.4z"/>
		<path id="XMLID_133_" class="st5" d="M289.1,54.2c25.5-6,51.1,9.8,57.2,35.3c0.7,3.1,1.2,6.1,1.3,9.2c0.2-4.1-0.3-8.4-1.3-12.7
			c-6-25.5-31.6-41.4-57.2-35.3c-22.5,5.3-37.5,25.8-36.6,48.1C253.3,77.9,267.8,59.3,289.1,54.2z"/>
	</g>
	<g id="XMLID_127_">
		<path id="XMLID_130_" class="st6" d="M294.7,74.3c0-2.9,0-5.6,0-8.3c3.4,0,6.8,0,10.4,0c0,2.7,0,5.3,0,8.2c4.3,0,8.3,0,12.7,0
			c-0.4,4,1,7.8-2.1,11.5c-5.9,7.3-11.4,15-17.1,22.5c-0.1,0.1-0.1,0.3-0.1,0.6c6.6,0,13.2,0,19.9,0c0,3.9,0,7.5,0,11.3
			c-4.4,0-8.6,0-13.2,0c0,2.8,0,5.4,0,8.1c-3.5,0-6.8,0-10.3,0c0-2.6,0-5.1,0-7.9c-4.4,0-8.6,0-13.1,0c0.3-4-0.8-7.8,2.2-11.5
			c6.1-7.3,11.6-15,17.3-22.6c0.1-0.2,0.2-0.4,0.3-0.7c-6.1,0-12.1,0-18.2,0c0-3.8,0-7.4,0-11.1C287.2,74.3,290.8,74.3,294.7,74.3z"
			/>
	</g>
</g>
<g>
	<circle class="st14" cx="503.2" cy="186" r="56.4"/>
	<g>
		<g>
			<defs>
				<circle id="SVGID_1_" cx="503.2" cy="186" r="56.4"/>
			</defs>
			<clipPath id="SVGID_2_">
				<use xlink:href="#SVGID_1_"  style="overflow:visible;"/>
			</clipPath>
			<g id="XMLID_348_" class="st15">
				<g id="XMLID_250_">
					<g id="XMLID_276_">
						<path id="XMLID_277_" class="st16" d="M504.6,199.9l-15.3-12.4c-0.3-0.3-0.4-0.7-0.1-1c0.3-0.3,0.7-0.4,1-0.1l15.3,12.4
							c0.3,0.3,0.4,0.7,0.1,1S504.9,200.1,504.6,199.9z"/>
					</g>
					<g id="XMLID_273_">
						<path id="XMLID_275_" class="st17" d="M504.2,206.3l-20.9-17.1c-0.3-0.3-0.4-0.7-0.1-1c0.3-0.3,0.7-0.4,1-0.1l20.9,17.1
							c0.3,0.3,0.4,0.7,0.1,1C505,206.4,504.5,206.4,504.2,206.3z"/>
					</g>
					<g id="XMLID_271_">
						<path id="XMLID_272_" class="st16" d="M503.3,212.2l-25.7-20.9c-0.3-0.3-0.4-0.7-0.1-1s0.7-0.4,1-0.1l25.7,20.9
							c0.3,0.3,0.4,0.7,0.1,1C504.1,212.4,503.6,212.5,503.3,212.2z"/>
					</g>
					<g id="XMLID_269_">
						<path id="XMLID_270_" class="st17" d="M501.6,217.5l-28.9-23.5c-0.3-0.3-0.4-0.7-0.1-1c0.3-0.3,0.7-0.4,1-0.1l28.9,23.5
							c0.3,0.3,0.4,0.7,0.1,1C502.3,217.7,501.9,217.8,501.6,217.5z"/>
					</g>
					<g id="XMLID_267_">
						<path id="XMLID_268_" class="st16" d="M499.6,222.4L468.3,197c-0.3-0.3-0.4-0.7-0.1-1s0.7-0.4,1-0.1l31.3,25.4
							c0.3,0.3,0.4,0.7,0.1,1S499.8,222.7,499.6,222.4z"/>
					</g>
					<g id="XMLID_265_">
						<path id="XMLID_266_" class="st17" d="M496.3,226.5L465.1,201c-0.3-0.3-0.4-0.7-0.1-1s0.7-0.4,1-0.1l31.3,25.4
							c0.3,0.3,0.4,0.7,0.1,1C497,226.7,496.6,226.7,496.3,226.5z"/>
					</g>
					<g id="XMLID_263_">
						<path id="XMLID_264_" class="st16" d="M493,230.5l-31.3-25.4c-0.3-0.3-0.4-0.7-0.1-1c0.3-0.3,0.7-0.4,1-0.1l31.3,25.4
							c0.3,0.3,0.4,0.7,0.1,1C493.8,230.7,493.4,230.7,493,230.5z"/>
					</g>
					<g id="XMLID_260_">
						<path id="XMLID_261_" class="st17" d="M489.8,234.5L458.5,209c-0.3-0.3-0.4-0.7-0.1-1c0.3-0.3,0.7-0.4,1-0.1l31.3,25.4
							c0.3,0.3,0.4,0.7,0.1,1C490.5,234.6,490,234.7,489.8,234.5z"/>
					</g>
					<g id="XMLID_257_">
						<path id="XMLID_258_" class="st16" d="M485.3,237.5L456.4,214c-0.3-0.3-0.4-0.7-0.1-1c0.3-0.3,0.7-0.4,1-0.1l28.9,23.5
							c0.3,0.3,0.4,0.7,0.1,1C486.1,237.7,485.6,237.8,485.3,237.5z"/>
					</g>
					<g id="XMLID_255_">
						<path id="XMLID_256_" class="st17" d="M480.4,240.2l-25.7-20.9c-0.3-0.3-0.4-0.7-0.1-1c0.3-0.3,0.7-0.4,1-0.1l25.7,20.9
							c0.3,0.3,0.4,0.7,0.1,1C481.2,240.5,480.8,240.5,480.4,240.2z"/>
					</g>
					<g id="XMLID_253_">
						<path id="XMLID_254_" class="st16" d="M474.9,242.3l-20.9-17.1c-0.3-0.3-0.4-0.7-0.1-1c0.3-0.3,0.7-0.4,1-0.1l20.9,17.1
							c0.3,0.3,0.4,0.7,0.1,1C475.6,242.6,475.1,242.6,474.9,242.3z"/>
					</g>
					<g id="XMLID_251_">
						<path id="XMLID_252_" class="st17" d="M468.7,244l-15.3-12.4c-0.3-0.3-0.4-0.7-0.1-1c0.3-0.3,0.7-0.4,1-0.1l15.3,12.4
							c0.3,0.3,0.4,0.7,0.1,1C469.5,244.2,469,244.3,468.7,244z"/>
					</g>
				</g>
				<g id="XMLID_235_">
					<g id="XMLID_248_">
						<path id="XMLID_249_" class="st16" d="M457.1,258.3l-15.3-12.4c-0.3-0.3-0.4-0.7-0.1-1s0.7-0.4,1-0.1l15.3,12.4
							c0.3,0.3,0.4,0.7,0.1,1C457.8,258.5,457.3,258.5,457.1,258.3z"/>
					</g>
					<g id="XMLID_246_">
						<path id="XMLID_247_" class="st17" d="M456.6,264.7l-20.9-17.1c-0.3-0.3-0.4-0.7-0.1-1c0.3-0.3,0.7-0.4,1-0.1l20.9,17.1
							c0.3,0.3,0.4,0.7,0.1,1C457.4,264.8,457,264.9,456.6,264.7z"/>
					</g>
					<g id="XMLID_244_">
						<path id="XMLID_245_" class="st16" d="M455.8,270.6l-25.7-20.9c-0.3-0.3-0.4-0.7-0.1-1c0.3-0.3,0.7-0.4,1-0.1l25.7,20.9
							c0.3,0.3,0.4,0.7,0.1,1C456.5,270.8,456.1,270.9,455.8,270.6z"/>
					</g>
					<g id="XMLID_242_">
						<path id="XMLID_243_" class="st17" d="M454.1,275.9l-28.9-23.5c-0.3-0.3-0.4-0.7-0.1-1s0.7-0.4,1-0.1l28.9,23.5
							c0.3,0.3,0.4,0.7,0.1,1S454.4,276.2,454.1,275.9z"/>
					</g>
					<g id="XMLID_240_">
						<path id="XMLID_241_" class="st16" d="M452,280.9l-31.3-25.4c-0.3-0.3-0.4-0.7-0.1-1c0.3-0.3,0.7-0.4,1-0.1l31.3,25.4
							c0.3,0.3,0.4,0.7,0.1,1C452.8,281.1,452.3,281.1,452,280.9z"/>
					</g>
					<g id="XMLID_238_">
						<path id="XMLID_239_" class="st17" d="M448.8,284.9l-31.3-25.4c-0.3-0.3-0.4-0.7-0.1-1c0.3-0.3,0.7-0.4,1-0.1l31.3,25.4
							c0.3,0.3,0.4,0.7,0.1,1C449.5,285.1,449.1,285.1,448.8,284.9z"/>
					</g>
					<g id="XMLID_236_">
						<path id="XMLID_237_" class="st18" d="M414.7,262.9"/>
					</g>
				</g>
				<g id="XMLID_220_">
					<g id="XMLID_233_">
						<path id="XMLID_234_" class="st17" d="M563.6,127.4L548.4,115c-0.3-0.3-0.4-0.7-0.1-1c0.3-0.3,0.7-0.4,1-0.1l15.3,12.4
							c0.3,0.3,0.4,0.7,0.1,1C564.3,127.5,563.9,127.6,563.6,127.4z"/>
					</g>
					<g id="XMLID_231_">
						<path id="XMLID_95_" class="st16" d="M569.7,125.7l-20.9-17.1c-0.3-0.3-0.4-0.7-0.1-1c0.3-0.3,0.7-0.4,1-0.1l20.9,17.1
							c0.3,0.3,0.4,0.7,0.1,1C570.5,125.9,570,125.9,569.7,125.7z"/>
					</g>
					<g id="XMLID_229_">
						<path id="XMLID_230_" class="st17" d="M575.4,123.6l-25.7-20.9c-0.3-0.3-0.4-0.7-0.1-1s0.7-0.4,1-0.1l25.7,20.9
							c0.3,0.3,0.4,0.7,0.1,1S575.7,123.9,575.4,123.6z"/>
					</g>
					<g id="XMLID_227_">
						<path id="XMLID_228_" class="st16" d="M580.2,120.9l-28.9-23.5c-0.3-0.3-0.4-0.7-0.1-1c0.3-0.3,0.7-0.4,1-0.1l28.9,23.5
							c0.3,0.3,0.4,0.7,0.1,1C581,121.1,580.5,121.2,580.2,120.9z"/>
					</g>
					<g id="XMLID_225_">
						<path id="XMLID_226_" class="st17" d="M584.7,117.8l-31.3-25.4c-0.3-0.3-0.4-0.7-0.1-1c0.3-0.3,0.7-0.4,1-0.1l31.3,25.4
							c0.3,0.3,0.4,0.7,0.1,1C585.5,118,585,118.1,584.7,117.8z"/>
					</g>
					<g id="XMLID_223_">
						<path id="XMLID_224_" class="st16" d="M588,113.8l-31.3-25.4c-0.3-0.3-0.4-0.7-0.1-1c0.3-0.3,0.7-0.4,1-0.1l31.3,25.4
							c0.3,0.3,0.4,0.7,0.1,1C588.7,114.1,588.2,114.1,588,113.8z"/>
					</g>
					<g id="XMLID_221_">
						<path id="XMLID_222_" class="st18" d="M591.7,109.3"/>
					</g>
				</g>
				<g id="XMLID_278_">
					<g id="XMLID_335_">
						<path id="XMLID_336_" class="st16" d="M552.3,141.3L537,128.9c-0.3-0.3-0.4-0.7-0.1-1c0.3-0.3,0.7-0.4,1-0.1l15.3,12.4
							c0.3,0.3,0.4,0.7,0.1,1C553,141.5,552.6,141.6,552.3,141.3z"/>
					</g>
					<g id="XMLID_321_">
						<path id="XMLID_334_" class="st17" d="M551.9,147.6l-20.9-17.1c-0.3-0.3-0.4-0.7-0.1-1c0.3-0.3,0.7-0.4,1-0.1l20.9,17.1
							c0.3,0.3,0.4,0.7,0.1,1C552.7,147.9,552.2,147.9,551.9,147.6z"/>
					</g>
					<g id="XMLID_309_">
						<path id="XMLID_310_" class="st16" d="M551,153.6l-25.7-20.9c-0.3-0.3-0.4-0.7-0.1-1c0.3-0.3,0.7-0.4,1-0.1l25.7,20.9
							c0.3,0.3,0.4,0.7,0.1,1C551.7,153.8,551.3,153.8,551,153.6z"/>
					</g>
					<g id="XMLID_307_">
						<path id="XMLID_308_" class="st17" d="M549.3,158.9l-28.9-23.5c-0.3-0.3-0.4-0.7-0.1-1c0.3-0.3,0.7-0.4,1-0.1l28.9,23.5
							c0.3,0.3,0.4,0.7,0.1,1C550.1,159.1,549.6,159.1,549.3,158.9z"/>
					</g>
					<g id="XMLID_302_">
						<path id="XMLID_306_" class="st16" d="M547.3,163.8l-31.4-25.4c-0.3-0.3-0.4-0.7-0.1-1c0.3-0.3,0.7-0.4,1-0.1l31.3,25.4
							c0.3,0.3,0.4,0.7,0.1,1C547.9,164,547.5,164.1,547.3,163.8z"/>
					</g>
					<g id="XMLID_299_">
						<path id="XMLID_300_" class="st17" d="M543.9,167.9l-31.3-25.4c-0.3-0.3-0.4-0.7-0.1-1c0.3-0.3,0.7-0.4,1-0.1l31.3,25.4
							c0.3,0.3,0.4,0.7,0.1,1C544.7,168.1,544.3,168.2,543.9,167.9z"/>
					</g>
					<g id="XMLID_297_">
						<path id="XMLID_298_" class="st16" d="M540.7,171.8l-31.3-25.4c-0.3-0.3-0.4-0.7-0.1-1s0.7-0.4,1-0.1l31.3,25.4
							c0.3,0.3,0.4,0.7,0.1,1C541.4,172.1,541,172.1,540.7,171.8z"/>
					</g>
					<g id="XMLID_295_">
						<path id="XMLID_296_" class="st17" d="M537.5,175.9l-31.3-25.4c-0.3-0.3-0.4-0.7-0.1-1c0.3-0.3,0.7-0.4,1-0.1l31.3,25.4
							c0.3,0.3,0.4,0.7,0.1,1C538.2,176.1,537.7,176.2,537.5,175.9z"/>
					</g>
					<g id="XMLID_290_">
						<path id="XMLID_294_" class="st16" d="M533,178.9l-28.9-23.5c-0.3-0.3-0.4-0.7-0.1-1c0.3-0.3,0.7-0.4,1-0.1l28.9,23.5
							c0.3,0.3,0.4,0.7,0.1,1C533.7,179.1,533.3,179.2,533,178.9z"/>
					</g>
					<g id="XMLID_288_">
						<path id="XMLID_289_" class="st17" d="M528.1,181.6l-25.7-20.9c-0.3-0.3-0.4-0.7-0.1-1c0.3-0.3,0.7-0.4,1-0.1l25.7,20.9
							c0.3,0.3,0.4,0.7,0.1,1S528.4,181.9,528.1,181.6z"/>
					</g>
					<g id="XMLID_286_">
						<path id="XMLID_287_" class="st16" d="M522.5,183.7l-20.9-17.1c-0.3-0.3-0.4-0.7-0.1-1c0.3-0.3,0.7-0.4,1-0.1l20.9,17.1
							c0.3,0.3,0.4,0.7,0.1,1C523.3,184,522.8,184,522.5,183.7z"/>
					</g>
					<g id="XMLID_280_">
						<path id="XMLID_281_" class="st17" d="M516.4,185.4L501.1,173c-0.3-0.3-0.4-0.7-0.1-1c0.3-0.3,0.7-0.4,1-0.1l15.3,12.4
							c0.3,0.3,0.4,0.7,0.1,1S516.6,185.7,516.4,185.4z"/>
					</g>
				</g>
				<g id="XMLID_339_">
					<path id="XMLID_340_" class="st18" d="M415.3,261.7c-0.5-0.4-0.6-1.2-0.2-1.7c12.2-15,26.6-15.9,40.5-16.7
						c14-0.8,27.2-1.6,38.7-15.8c11.5-14.2,9.6-27.3,7.6-41.2c-2-13.7-4-28,8.2-43c12.2-15,26.6-15.9,40.5-16.7
						c14-0.8,27.2-1.6,38.7-15.8c0.4-0.5,1.2-0.6,1.7-0.2c0.5,0.4,0.6,1.2,0.2,1.7c-12.2,15-26.6,15.9-40.5,16.7
						c-14,0.8-27.2,1.6-38.7,15.8s-9.6,27.3-7.6,41.2c2,13.7,4,28-8.2,43c-12.2,15-26.6,15.9-40.5,16.7c-14,0.8-27.2,1.6-38.7,15.8
						C416.5,262,415.8,262.1,415.3,261.7z"/>
				</g>
				<g id="XMLID_337_">
					<path id="XMLID_338_" class="st18" d="M447,287.5c-0.5-0.4-0.6-1.2-0.2-1.7c11.5-14.2,9.6-27.3,7.6-41.2c-2-13.7-4-28,8.2-43
						c12.2-15,26.6-15.9,40.5-16.7c14-0.8,27.2-1.6,38.7-15.8c11.5-14.2,9.6-27.3,7.6-41.2c-2-13.7-4-28,8.2-43
						c0.4-0.5,1.2-0.6,1.7-0.2s0.6,1.2,0.2,1.7c-11.5,14.2-9.6,27.3-7.6,41.2c2,13.7,4,28-8.2,43c-12.2,15-26.6,15.9-40.5,16.7
						c-14,0.8-27.2,1.6-38.7,15.8c-11.5,14.2-9.6,27.3-7.6,41.2c2,13.7,4,28-8.2,43C448.3,287.8,447.5,287.9,447,287.5z"/>
				</g>
				<g id="XMLID_164_">
					<g id="XMLID_218_">
						<path id="XMLID_219_" class="st17" d="M582.9,118.7c-0.5-0.7-0.7-1.5-0.6-2.3s0.4-1.5,1-2.1c0.2-0.1,0.4-0.3,0.4-0.4
							c0.2-0.1,0.4-0.2,0.5-0.3c0.4-0.1,0.7-0.2,1.2-0.2c0.8,0,1.6,0.4,2.2,0.9c0.6,0.6,1,1.4,0.9,2.2c0,0.4-0.1,0.8-0.3,1.3
							c-0.1,0.2-0.2,0.4-0.4,0.5c-0.2,0.2-0.3,0.4-0.4,0.5c-0.7,0.6-1.6,0.9-2.4,0.8C584.1,119.8,583.4,119.4,582.9,118.7z"/>
					</g>
					<g id="XMLID_216_">
						<path id="XMLID_217_" class="st17" d="M573.7,123.8c-0.4-0.8-0.3-1.7,0-2.4c0.1-0.2,0.2-0.4,0.3-0.5s0.2-0.4,0.4-0.4
							c0.3-0.3,0.5-0.5,0.9-0.7c0.7-0.4,1.5-0.4,2.2-0.2c0.7,0.3,1.4,0.7,1.9,1.5c0.4,0.7,0.5,1.6,0.3,2.4s-0.8,1.5-1.7,2
							c-0.4,0.2-0.9,0.4-1.3,0.4c-0.2,0-0.4,0-0.6,0c-0.2,0-0.4-0.1-0.6-0.2C574.7,125.2,574,124.7,573.7,123.8z"/>
					</g>
					<g id="XMLID_214_">
						<path id="XMLID_215_" class="st17" d="M563.5,126.5c-0.2-0.9,0.1-1.7,0.5-2.3c0.3-0.4,0.5-0.6,0.8-0.8
							c0.4-0.3,0.7-0.4,1.1-0.4c0.8-0.2,1.6,0,2.3,0.4c0.7,0.4,1.3,1.1,1.4,2c0.3,0.8,0.1,1.7-0.4,2.4c-0.4,0.7-1.2,1.3-2.1,1.4
							c-0.4,0.1-0.9,0.1-1.3,0c-0.4-0.1-0.8-0.3-1.2-0.4C564.2,128.1,563.7,127.4,563.5,126.5z"/>
					</g>
					<g id="XMLID_212_">
						<path id="XMLID_213_" class="st17" d="M553.1,127.5c-0.1-1.8,1.3-3.2,3-3.4c0.9-0.1,1.6,0.2,2.2,0.7c0.6,0.5,1.1,1.3,1.2,2.2
							s-0.2,1.7-0.7,2.3c-0.5,0.6-1.3,1.1-2.2,1.2C554.7,130.6,553.2,129.3,553.1,127.5z"/>
					</g>
					<g id="XMLID_210_">
						<path id="XMLID_211_" class="st17" d="M542.7,128.3c-0.1-0.9,0.2-1.7,0.7-2.3c0.5-0.6,1.3-1.1,2.2-1.1c1.8-0.1,3.3,1.2,3.4,3
							c0.1,1.8-1.3,3.2-3,3.4c-0.9,0.1-1.7-0.3-2.2-0.7C543.1,129.9,542.8,129.1,542.7,128.3z"/>
					</g>
					<g id="XMLID_208_">
						<path id="XMLID_209_" class="st17" d="M532.4,130c-0.3-0.8-0.1-1.7,0.4-2.4c0.4-0.7,1.2-1.3,2.2-1.4c0.4-0.1,0.9-0.1,1.3,0
							c0.4,0.1,0.8,0.3,1.2,0.5c0.7,0.4,1.2,1.3,1.3,2.1c0.1,0.9-0.1,1.7-0.5,2.3c-0.3,0.4-0.5,0.6-0.8,0.8
							c-0.4,0.2-0.7,0.4-1.1,0.4c-0.8,0.2-1.6,0-2.2-0.4C533.1,131.5,532.5,130.9,532.4,130z"/>
					</g>
					<g id="XMLID_206_">
						<path id="XMLID_207_" class="st17" d="M522.7,133.9c-0.4-0.8-0.5-1.6-0.3-2.4c0.1-0.4,0.4-0.8,0.6-1.1
							c0.3-0.4,0.6-0.6,1.1-0.8c0.4-0.2,0.9-0.3,1.3-0.4c0.4,0,0.9,0.1,1.3,0.2c0.8,0.3,1.4,0.9,1.7,1.8c0.3,0.8,0.3,1.7,0,2.4
							c-0.2,0.4-0.4,0.7-0.6,1c-0.3,0.3-0.5,0.5-0.9,0.7c-0.4,0.2-0.7,0.3-1.2,0.3c-0.4,0-0.8,0-1.2-0.2
							C523.7,135.2,523,134.6,522.7,133.9z"/>
					</g>
					<g id="XMLID_94_">
						<path id="XMLID_205_" class="st17" d="M514.3,140.3c-0.6-0.6-0.9-1.4-0.9-2.2c0-0.4,0.1-0.8,0.4-1.3c0.2-0.4,0.4-0.7,0.8-1.1
							c0.7-0.6,1.6-0.9,2.4-0.8c0.8,0.1,1.6,0.5,2.2,1.3c0.5,0.7,0.7,1.5,0.6,2.3c-0.1,0.8-0.4,1.5-1.1,2.1c-0.3,0.3-0.6,0.4-1,0.5
							c-0.4,0.1-0.7,0.2-1.2,0.2C515.7,141.2,514.9,140.9,514.3,140.3z"/>
					</g>
					<g id="XMLID_202_">
						<path id="XMLID_203_" class="st17" d="M507.7,148.5c-0.4-0.3-0.7-0.5-0.9-0.9c-0.3-0.4-0.4-0.7-0.4-1.2
							c-0.1-0.4-0.1-0.8,0-1.3c0.1-0.4,0.3-0.8,0.5-1.3c0.2-0.2,0.3-0.4,0.4-0.5c0.2-0.2,0.4-0.3,0.5-0.4c0.4-0.2,0.8-0.4,1.2-0.4
							c0.8-0.1,1.7,0.1,2.3,0.7c0.7,0.5,1.1,1.3,1.2,2.2c0.1,0.4,0,0.8-0.1,1.2c-0.1,0.2-0.1,0.4-0.2,0.5c-0.1,0.2-0.2,0.4-0.3,0.5
							c-0.3,0.4-0.5,0.6-0.9,0.8c-0.4,0.2-0.7,0.4-1.1,0.4c-0.4,0.1-0.8,0.1-1.2,0C508.5,148.8,508.2,148.8,507.7,148.5z"/>
					</g>
					<g id="XMLID_200_">
						<path id="XMLID_201_" class="st17" d="M503.4,158c-0.8-0.3-1.5-0.8-1.9-1.6c-0.2-0.4-0.3-0.8-0.3-1.3c0-0.4,0.1-0.9,0.3-1.3
							s0.4-0.8,0.7-1.2c0.2-0.2,0.4-0.3,0.5-0.4c0.2-0.1,0.4-0.2,0.5-0.3c0.8-0.3,1.6-0.3,2.4,0.1c0.8,0.4,1.3,1.1,1.6,1.8
							c0.1,0.2,0.1,0.4,0.2,0.5c0,0.2,0.1,0.4,0.1,0.5c0,0.4-0.1,0.8-0.2,1.2c-0.2,0.4-0.4,0.7-0.6,1c-0.3,0.3-0.6,0.5-1,0.6
							C505.1,158.1,504.2,158.3,503.4,158z"/>
					</g>
					<g id="XMLID_198_">
						<path id="XMLID_199_" class="st17" d="M501.7,168.3c-0.9,0-1.7-0.4-2.2-1.1c-0.5-0.6-0.8-1.5-0.7-2.4c0.1-0.4,0.2-0.9,0.4-1.3
							c0.2-0.4,0.5-0.7,0.8-1c0.6-0.5,1.5-0.7,2.4-0.5c0.9,0.2,1.6,0.6,2.1,1.3c0.3,0.4,0.4,0.6,0.5,1.1c0.1,0.4,0.2,0.8,0.1,1.2
							c-0.1,0.8-0.5,1.5-1.1,2.1C503.4,168.1,502.6,168.3,501.7,168.3z"/>
					</g>
					<g id="XMLID_196_">
						<path id="XMLID_197_" class="st17" d="M502.3,178.8c-1.7,0.2-3.3-1.1-3.5-2.9c0-0.4,0-0.9,0.2-1.3s0.4-0.8,0.6-1.1
							c0.5-0.6,1.3-1,2.2-1.1c0.9,0,1.7,0.3,2.2,0.8c0.3,0.3,0.5,0.5,0.7,0.9c0.2,0.4,0.3,0.7,0.4,1.2
							C505.2,177.1,504,178.6,502.3,178.8z"/>
					</g>
					<g id="XMLID_194_">
						
							<radialGradient id="XMLID_3_" cx="279.0344" cy="-539.5416" r="3.1866" gradientTransform="matrix(0.7756 0.6311 0.6311 -0.7756 627.2888 -408.5806)" gradientUnits="userSpaceOnUse">
							<stop  offset="0.4" style="stop-color:#9FDCF8"/>
							<stop  offset="0.5361" style="stop-color:#95D1F0"/>
							<stop  offset="0.777" style="stop-color:#79B3DB"/>
							<stop  offset="0.9626" style="stop-color:#6097C7"/>
							<stop  offset="1" style="stop-color:#E0FFFF"/>
						</radialGradient>
						<path id="XMLID_195_" class="st19" d="M503.6,189.2c-1.7,0.3-3.3-1-3.6-2.7c-0.3-1.7,1-3.4,2.7-3.6c1.7-0.3,3.3,1,3.6,2.7
							S505.4,188.9,503.6,189.2z"/>
					</g>
					<g id="XMLID_93_">
						<path id="XMLID_193_" class="st17" d="M504.7,199.6c-0.9,0-1.7-0.3-2.2-0.8c-0.3-0.3-0.5-0.5-0.7-0.9s-0.3-0.7-0.4-1.2
							c-0.2-1.7,1.1-3.2,2.9-3.4c0.9-0.1,1.7,0.2,2.3,0.7c0.6,0.5,1.1,1.3,1.2,2.2c0,0.4,0,0.9-0.2,1.3c-0.2,0.4-0.4,0.8-0.6,1.1
							C506.3,199.2,505.6,199.6,504.7,199.6z"/>
					</g>
					<g id="XMLID_190_">
						<path id="XMLID_191_" class="st17" d="M504,210.1c-0.9-0.2-1.6-0.6-2.1-1.3c-0.3-0.4-0.4-0.6-0.5-1.1
							c-0.1-0.4-0.2-0.8-0.1-1.2c0.1-0.8,0.5-1.5,1.1-2.1c0.6-0.5,1.4-0.8,2.3-0.8c0.9,0,1.7,0.4,2.2,1.1c0.5,0.6,0.8,1.5,0.7,2.4
							c-0.1,0.4-0.2,0.9-0.4,1.3c-0.2,0.4-0.5,0.7-0.8,1C505.7,210,504.9,210.2,504,210.1z"/>
					</g>
					<g id="XMLID_188_">
						<path id="XMLID_92_" class="st17" d="M500.6,220c-0.8-0.4-1.3-1.1-1.6-1.8c-0.1-0.2-0.1-0.4-0.2-0.5c0-0.2-0.1-0.4-0.1-0.5
							c0-0.4,0.1-0.8,0.2-1.2c0.2-0.4,0.4-0.7,0.6-1c0.3-0.3,0.6-0.5,1-0.6c0.7-0.4,1.6-0.4,2.4-0.2c0.8,0.3,1.5,0.8,1.9,1.6
							c0.2,0.4,0.3,0.8,0.3,1.3s-0.1,0.9-0.3,1.3c-0.2,0.4-0.4,0.8-0.7,1.2c-0.2,0.2-0.4,0.3-0.5,0.4c-0.2,0.1-0.4,0.2-0.5,0.3
							C502.3,220.5,501.5,220.4,500.6,220z"/>
					</g>
					<g id="XMLID_91_">
						<path id="XMLID_187_" class="st17" d="M494.8,228.7c-0.7-0.5-1.1-1.3-1.2-2.2c-0.1-0.4,0-0.8,0.1-1.2c0.1-0.2,0.1-0.4,0.2-0.5
							c0.1-0.2,0.2-0.4,0.3-0.5c0.3-0.4,0.5-0.6,0.9-0.8c0.4-0.2,0.7-0.4,1.1-0.4c0.4-0.1,0.8-0.1,1.2,0c0.4,0.1,0.8,0.2,1.2,0.4
							c0.4,0.3,0.7,0.5,0.9,0.9c0.3,0.4,0.4,0.7,0.4,1.2c0.1,0.4,0.1,0.8,0,1.3c-0.1,0.4-0.3,0.8-0.5,1.3c-0.2,0.2-0.3,0.4-0.4,0.5
							c-0.2,0.2-0.4,0.3-0.5,0.4c-0.4,0.2-0.8,0.4-1.2,0.4C496.3,229.5,495.5,229.3,494.8,228.7z"/>
					</g>
					<g id="XMLID_184_">
						<path id="XMLID_90_" class="st17" d="M487.3,235.9c-0.5-0.7-0.7-1.5-0.6-2.3c0.1-0.8,0.4-1.5,1.1-2.1c0.3-0.3,0.6-0.4,1-0.5
							c0.4-0.1,0.7-0.2,1.2-0.2c0.8,0,1.6,0.4,2.2,1c0.6,0.6,0.9,1.4,0.9,2.2c0,0.4-0.1,0.8-0.4,1.3c-0.2,0.4-0.4,0.7-0.8,1.1
							c-0.7,0.6-1.6,0.9-2.4,0.8C488.5,237.1,487.7,236.6,487.3,235.9z"/>
					</g>
					<g id="XMLID_182_">
						<path id="XMLID_183_" class="st17" d="M478,240.8c-0.3-0.8-0.3-1.7,0-2.4c0.2-0.4,0.4-0.7,0.6-1s0.5-0.5,0.9-0.7
							c0.4-0.2,0.7-0.3,1.2-0.3c0.4,0,0.8,0,1.2,0.2c0.7,0.3,1.4,0.8,1.9,1.5c0.4,0.8,0.5,1.6,0.3,2.4c-0.1,0.4-0.4,0.8-0.6,1.1
							c-0.3,0.4-0.6,0.6-1.1,0.8s-0.9,0.3-1.3,0.4c-0.4,0-0.9-0.1-1.3-0.2C478.9,242.3,478.3,241.7,478,240.8z"/>
					</g>
					<g id="XMLID_180_">
						<path id="XMLID_181_" class="st17" d="M467.8,243.4c-0.1-0.9,0.1-1.7,0.5-2.3c0.3-0.4,0.5-0.6,0.8-0.8
							c0.4-0.2,0.7-0.4,1.1-0.4c0.8-0.2,1.6,0,2.2,0.4s1.3,1.1,1.4,2c0.3,0.8,0.1,1.7-0.4,2.4c-0.4,0.7-1.2,1.3-2.2,1.4
							c-0.4,0.1-0.9,0.1-1.3,0s-0.8-0.3-1.2-0.5C468.4,245,467.9,244.2,467.8,243.4z"/>
					</g>
					<g id="XMLID_178_">
						<path id="XMLID_179_" class="st17" d="M457.3,244.4c-0.1-1.8,1.3-3.2,3-3.4c0.9-0.1,1.7,0.3,2.2,0.7c0.6,0.5,1.1,1.3,1.2,2.2
							c0.1,0.9-0.2,1.7-0.7,2.3c-0.5,0.6-1.3,1.1-2.2,1.1C459,247.4,457.5,246.1,457.3,244.4z"/>
					</g>
					<g id="XMLID_176_">
						<path id="XMLID_177_" class="st17" d="M446.9,245.1c-0.1-0.9,0.2-1.7,0.7-2.3c0.5-0.6,1.3-1.1,2.2-1.2c1.8-0.2,3.3,1.2,3.4,3
							c0.1,1.8-1.3,3.2-3,3.4c-0.9,0.1-1.6-0.2-2.2-0.7C447.5,246.7,447,246,446.9,245.1z"/>
					</g>
					<g id="XMLID_174_">
						<path id="XMLID_175_" class="st17" d="M436.6,247c-0.3-0.8-0.1-1.7,0.4-2.4c0.4-0.7,1.2-1.3,2.1-1.4c0.4-0.1,0.9-0.1,1.3,0
							c0.4,0.1,0.8,0.3,1.2,0.4c0.7,0.4,1.2,1.2,1.3,2.1s-0.1,1.7-0.5,2.3c-0.3,0.4-0.5,0.6-0.8,0.8c-0.4,0.3-0.7,0.4-1.1,0.4
							c-0.8,0.2-1.6,0-2.3-0.4C437.4,248.5,436.8,247.8,436.6,247z"/>
					</g>
					<g id="XMLID_170_">
						<path id="XMLID_173_" class="st17" d="M427.4,251c-0.4-0.7-0.5-1.6-0.3-2.4c0.3-0.8,0.8-1.5,1.7-2c0.4-0.2,0.9-0.4,1.3-0.4
							c0.2,0,0.4,0,0.6,0c0.2,0,0.4,0.1,0.6,0.2c0.8,0.3,1.4,0.9,1.7,1.7c0.4,0.8,0.3,1.7,0,2.4c-0.1,0.2-0.2,0.4-0.3,0.5
							c-0.1,0.2-0.2,0.4-0.4,0.4c-0.3,0.3-0.5,0.5-0.9,0.7c-0.7,0.4-1.5,0.4-2.2,0.2C428.6,252.3,427.9,251.7,427.4,251z"/>
					</g>
					<g id="XMLID_166_">
						<path id="XMLID_169_" class="st17" d="M418.8,257.6c-0.6-0.6-1-1.4-0.9-2.2c0-0.4,0.1-0.8,0.3-1.3c0.1-0.2,0.2-0.4,0.4-0.5
							c0.2-0.2,0.3-0.4,0.4-0.5c0.7-0.6,1.6-0.9,2.4-0.8c0.8,0.1,1.6,0.4,2.2,1.2s0.7,1.5,0.6,2.3c-0.1,0.8-0.4,1.5-1,2.1
							c-0.2,0.1-0.4,0.3-0.4,0.4c-0.2,0.1-0.4,0.2-0.5,0.3c-0.4,0.1-0.7,0.2-1.2,0.2C420.2,258.5,419.4,258.2,418.8,257.6z"/>
					</g>
				</g>
				<g id="XMLID_9_">
					<g id="XMLID_162_">
						<path id="XMLID_163_" class="st16" d="M552.9,94.4c-0.8-0.4-1.3-1.1-1.6-1.9s-0.2-1.7,0.4-2.5c0.1-0.2,0.3-0.4,0.4-0.5
							c0.2-0.2,0.4-0.4,0.5-0.4c0.4-0.3,0.7-0.4,1.2-0.5c0.8-0.2,1.7,0,2.4,0.4c0.7,0.5,1.2,1.3,1.3,2c0.1,0.4,0.1,0.8,0.1,1.2
							c0,0.2-0.1,0.4-0.2,0.5c-0.1,0.2-0.2,0.4-0.3,0.5c-0.4,0.7-1.1,1.2-1.8,1.4C554.6,94.8,553.7,94.8,552.9,94.4z"/>
					</g>
					<g id="XMLID_160_">
						<path id="XMLID_161_" class="st16" d="M549.8,104.4c-0.9-0.2-1.6-0.6-2.1-1.3c-0.1-0.2-0.2-0.4-0.3-0.5
							c-0.1-0.2-0.1-0.4-0.2-0.6c-0.1-0.4-0.1-0.9,0.1-1.3c0.3-0.9,0.8-1.6,1.5-2.1s1.6-0.4,2.4-0.2c0.8,0.3,1.4,0.9,1.9,1.5
							c0.4,0.7,0.5,1.5,0.4,2.2c-0.1,0.4-0.3,0.7-0.5,1.1c-0.1,0.2-0.3,0.3-0.4,0.4c-0.2,0.1-0.3,0.3-0.4,0.4
							C551.5,104.3,550.7,104.5,549.8,104.4z"/>
					</g>
					<g id="XMLID_153_">
						<path id="XMLID_159_" class="st16" d="M549.3,114.8c-0.9,0-1.7-0.3-2.2-0.9c-0.3-0.3-0.5-0.6-0.7-1.1
							c-0.2-0.4-0.3-0.8-0.3-1.3c0-0.9,0.4-1.8,1-2.3c0.6-0.5,1.4-0.9,2.3-0.8c0.9,0.1,1.6,0.4,2.2,1.1c0.5,0.5,0.9,1.3,0.9,2.2
							c0,0.4-0.1,0.8-0.3,1.2c-0.2,0.4-0.4,0.7-0.6,1C551,114.3,550.1,114.8,549.3,114.8z"/>
					</g>
					<g id="XMLID_148_">
						<path id="XMLID_149_" class="st16" d="M550.3,125.2c-1.7,0.3-3.3-1-3.6-2.8c-0.1-0.9,0.2-1.7,0.6-2.4c0.5-0.6,1.3-1.1,2.2-1.2
							s1.7,0.2,2.3,0.7c0.6,0.5,1.1,1.3,1.2,2.1C553.3,123.4,552.1,125,550.3,125.2z"/>
					</g>
					<g id="XMLID_118_">
						<path id="XMLID_119_" class="st16" d="M551.8,135.6c-0.9,0.1-1.7-0.2-2.3-0.6c-0.6-0.5-1.1-1.3-1.2-2.1
							c-0.3-1.7,1-3.3,2.7-3.6c1.7-0.3,3.3,1,3.6,2.8c0.1,0.9-0.2,1.7-0.6,2.4C553.4,135.1,552.7,135.5,551.8,135.6z"/>
					</g>
					<g id="XMLID_113_">
						<path id="XMLID_114_" class="st16" d="M552.1,146.1c-0.9-0.1-1.6-0.4-2.2-1c-0.5-0.5-0.9-1.3-0.9-2.2c0-0.4,0.1-0.8,0.3-1.2
							c0.2-0.4,0.4-0.7,0.6-1c0.5-0.5,1.3-1,2.2-1.1c0.9-0.1,1.7,0.3,2.3,0.8c0.3,0.3,0.5,0.6,0.7,1c0.2,0.4,0.3,0.8,0.3,1.3
							c0,0.9-0.4,1.8-1,2.3C553.8,145.9,553,146.1,552.1,146.1z"/>
					</g>
					<g id="XMLID_106_">
						<path id="XMLID_107_" class="st16" d="M550.2,156.4c-0.8-0.3-1.5-0.9-1.9-1.5c-0.2-0.4-0.4-0.7-0.4-1.1
							c-0.1-0.4-0.1-0.8,0-1.2s0.3-0.7,0.4-1.1c0.2-0.4,0.5-0.6,0.8-0.8c0.6-0.4,1.5-0.6,2.3-0.5c0.9,0.1,1.6,0.6,2.1,1.3
							c0.3,0.4,0.4,0.7,0.4,1.2c0.1,0.4,0.1,0.9,0,1.3c-0.1,0.4-0.4,0.9-0.5,1.3c-0.3,0.4-0.6,0.6-1,0.9
							C551.9,156.6,551.1,156.7,550.2,156.4z"/>
					</g>
					<g id="XMLID_89_">
						<path id="XMLID_101_" class="st16" d="M545.7,165.8c-0.7-0.4-1.2-1.3-1.4-2c-0.1-0.4-0.1-0.8-0.1-1.2c0-0.4,0.2-0.8,0.4-1.1
							c0.4-0.7,1.1-1.2,1.8-1.4c0.7-0.3,1.6-0.3,2.4,0.1c0.8,0.4,1.3,1,1.6,1.8s0.2,1.7-0.3,2.6c-0.3,0.4-0.5,0.7-0.9,1
							c-0.4,0.3-0.7,0.4-1.2,0.5C547.3,166.5,546.5,166.4,545.7,165.8z"/>
					</g>
					<g id="XMLID_41_">
						<path id="XMLID_44_" class="st16" d="M539,173.9c-0.3-0.4-0.5-0.7-0.7-1.1c-0.2-0.4-0.3-0.8-0.3-1.2c0-0.4,0-0.8,0.2-1.2
							c0.2-0.4,0.4-0.7,0.6-1c0.2-0.2,0.3-0.3,0.4-0.4c0.2-0.1,0.4-0.2,0.5-0.3c0.4-0.2,0.7-0.3,1.2-0.3c0.8-0.1,1.6,0.2,2.3,0.7
							c0.7,0.5,1.1,1.3,1.2,2.2c0,0.4,0,0.8-0.2,1.3c-0.1,0.2-0.2,0.4-0.3,0.6c-0.1,0.2-0.3,0.4-0.4,0.5c-0.4,0.4-0.7,0.6-1.1,0.8
							c-0.4,0.2-0.8,0.3-1.3,0.3c-0.4,0-0.8-0.1-1.3-0.2C539.7,174.4,539.4,174.3,539,173.9z"/>
					</g>
					<g id="XMLID_39_">
						<path id="XMLID_40_" class="st16" d="M530.7,180.1c-0.4-0.8-0.4-1.6-0.3-2.4c0.1-0.4,0.3-0.7,0.4-1.1c0.2-0.4,0.4-0.6,0.8-0.8
							c0.4-0.2,0.7-0.4,1.1-0.4c0.2,0,0.4-0.1,0.5-0.1c0.2,0,0.4,0,0.5,0.1c0.8,0.1,1.5,0.5,2.1,1.3c0.5,0.7,0.7,1.5,0.6,2.3
							c0,0.2-0.1,0.4-0.2,0.6s-0.2,0.4-0.3,0.5c-0.3,0.4-0.5,0.7-1,1c-0.4,0.3-0.8,0.4-1.3,0.5c-0.4,0.1-0.9,0.1-1.3,0
							C531.7,181.5,531,180.9,530.7,180.1z"/>
					</g>
					<g id="XMLID_36_">
						<path id="XMLID_37_" class="st16" d="M520.9,183.9c-0.2-0.9-0.1-1.7,0.4-2.4c0.4-0.7,1-1.3,1.8-1.5c0.4-0.1,0.8-0.2,1.2-0.1
							c0.4,0,0.8,0.1,1.2,0.3c0.7,0.4,1.3,0.9,1.7,1.8c0.4,0.8,0.3,1.7-0.1,2.4c-0.2,0.4-0.4,0.7-0.8,1s-0.7,0.5-1.2,0.6
							c-0.9,0.3-1.8,0.2-2.5-0.2C521.6,185.4,521,184.7,520.9,183.9z"/>
					</g>
					<g id="XMLID_34_">
						<path id="XMLID_35_" class="st16" d="M510.5,185.5c-0.2-1.8,1.1-3.3,2.8-3.5c0.4-0.1,0.8,0,1.3,0.1c0.4,0.1,0.7,0.3,1.1,0.5
							c0.6,0.4,1.1,1.2,1.3,2.1c0.2,0.9-0.1,1.7-0.5,2.3c-0.3,0.4-0.5,0.6-0.9,0.8c-0.4,0.2-0.8,0.4-1.3,0.4
							C512.2,188.6,510.6,187.3,510.5,185.5z"/>
					</g>
					<g id="XMLID_32_">
						<path id="XMLID_33_" class="st16" d="M500,186.2c-0.1-1.8,1.3-3.2,3-3.4c1.8-0.1,3.2,1.3,3.4,3c0.1,1.8-1.3,3.2-3,3.4
							C501.6,189.4,500.1,188,500,186.2z"/>
					</g>
					<g id="XMLID_30_">
						<path id="XMLID_31_" class="st16" d="M489.6,187.4c-0.2-0.9,0.1-1.7,0.5-2.3c0.3-0.4,0.5-0.6,0.9-0.8c0.4-0.2,0.8-0.4,1.3-0.4
							c0.9-0.1,1.8,0.2,2.4,0.6c0.6,0.5,1.1,1.3,1.2,2.2c0.2,1.8-1.1,3.3-2.8,3.5c-0.4,0.1-0.8,0-1.3-0.1c-0.4-0.1-0.7-0.3-1.1-0.5
							C490.2,188.9,489.8,188.2,489.6,187.4z"/>
					</g>
					<g id="XMLID_26_">
						<path id="XMLID_29_" class="st16" d="M479.5,190.2c-0.4-0.8-0.3-1.7,0.1-2.4c0.2-0.4,0.4-0.7,0.8-1c0.4-0.3,0.7-0.5,1.2-0.6
							c0.9-0.3,1.8-0.2,2.5,0.2c0.7,0.4,1.3,1.1,1.5,2c0.2,0.9,0.1,1.7-0.4,2.4c-0.4,0.7-1,1.3-1.8,1.5c-0.4,0.1-0.8,0.2-1.2,0.1
							c-0.4,0-0.8-0.2-1.2-0.3C480.4,191.6,479.8,191,479.5,190.2z"/>
					</g>
					<g id="XMLID_23_">
						<path id="XMLID_24_" class="st16" d="M470.5,195.5c-0.5-0.7-0.7-1.5-0.6-2.3c0-0.2,0.1-0.4,0.2-0.6c0.1-0.2,0.2-0.4,0.3-0.5
							c0.3-0.4,0.5-0.7,1-1c0.4-0.3,0.8-0.4,1.3-0.5c0.4-0.1,0.9-0.1,1.3,0c0.8,0.2,1.5,0.7,2,1.5s0.4,1.6,0.4,2.4
							c-0.1,0.4-0.3,0.7-0.4,1.1c-0.2,0.4-0.4,0.6-0.8,0.8c-0.4,0.2-0.7,0.4-1.1,0.4c-0.2,0-0.4,0.1-0.5,0.1s-0.4,0-0.5-0.1
							C471.8,196.6,471,196.1,470.5,195.5z"/>
					</g>
					<g id="XMLID_21_">
						<path id="XMLID_22_" class="st16" d="M463.1,202.9c-0.7-0.5-1.1-1.3-1.2-2.2c0-0.4,0-0.8,0.2-1.3c0.1-0.2,0.2-0.4,0.3-0.6
							c0.1-0.2,0.3-0.4,0.4-0.5c0.4-0.4,0.7-0.6,1.1-0.8c0.4-0.2,0.8-0.3,1.3-0.3s0.8,0.1,1.3,0.2c0.4,0.2,0.7,0.4,1.1,0.7
							c0.3,0.4,0.5,0.7,0.7,1.1c0.2,0.4,0.3,0.8,0.3,1.2c0,0.4,0,0.8-0.2,1.2c-0.1,0.4-0.4,0.7-0.6,1c-0.2,0.2-0.3,0.3-0.4,0.4
							c-0.2,0.1-0.4,0.2-0.5,0.3c-0.4,0.2-0.7,0.3-1.2,0.3C464.6,203.6,463.8,203.5,463.1,202.9z"/>
					</g>
					<g id="XMLID_43_">
						<path id="XMLID_19_" class="st16" d="M457.6,211.8c-0.8-0.4-1.3-1-1.6-1.8s-0.2-1.7,0.3-2.6c0.3-0.4,0.5-0.7,0.9-1
							c0.4-0.3,0.7-0.4,1.2-0.5c0.8-0.2,1.7-0.1,2.4,0.4c0.7,0.4,1.2,1.3,1.4,2c0.1,0.4,0.1,0.8,0.1,1.2c0,0.4-0.2,0.8-0.4,1.1
							c-0.4,0.7-1.1,1.2-1.8,1.4C459.3,212.2,458.4,212.2,457.6,211.8z"/>
					</g>
					<g id="XMLID_28_">
						<path id="XMLID_38_" class="st16" d="M454.6,221.9c-0.9-0.1-1.6-0.6-2.1-1.3c-0.3-0.4-0.4-0.7-0.4-1.2c-0.1-0.4-0.1-0.9,0-1.3
							c0.1-0.4,0.4-0.9,0.5-1.3c0.3-0.4,0.6-0.6,1-0.9c0.7-0.4,1.6-0.5,2.4-0.3c0.8,0.3,1.5,0.9,1.9,1.5c0.2,0.4,0.4,0.7,0.4,1.1
							c0.1,0.4,0.1,0.8,0,1.2c-0.1,0.4-0.3,0.7-0.4,1.1c-0.2,0.4-0.5,0.6-0.8,0.8C456.3,221.8,455.5,222,454.6,221.9z"/>
					</g>
					<g id="XMLID_25_">
						<path id="XMLID_27_" class="st16" d="M454.3,232.3c-0.9,0.1-1.7-0.3-2.3-0.8c-0.3-0.3-0.5-0.6-0.7-1c-0.2-0.4-0.3-0.8-0.3-1.3
							c0-0.9,0.4-1.8,1-2.3c0.6-0.5,1.4-0.9,2.3-0.9c0.9,0.1,1.6,0.4,2.2,1c0.5,0.5,0.9,1.3,0.9,2.2c0,0.4-0.1,0.8-0.3,1.2
							c-0.2,0.4-0.4,0.7-0.6,1C455.9,231.9,455.2,232.3,454.3,232.3z"/>
					</g>
					<g id="XMLID_18_">
						<path id="XMLID_20_" class="st16" d="M455.4,242.7c-1.7,0.3-3.3-1-3.6-2.8c-0.1-0.9,0.2-1.7,0.6-2.4c0.5-0.6,1.3-1.1,2.2-1.2
							c0.9-0.1,1.7,0.2,2.3,0.6c0.6,0.5,1.1,1.3,1.2,2.1C458.4,240.9,457.2,242.5,455.4,242.7z"/>
					</g>
					<g id="XMLID_16_">
						<path id="XMLID_17_" class="st16" d="M456.8,253.2c-0.9,0.1-1.7-0.2-2.3-0.7c-0.6-0.5-1.1-1.3-1.2-2.1c-0.2-1.7,1-3.3,2.7-3.6
							c1.7-0.3,3.3,1,3.6,2.8c0.1,0.9-0.2,1.7-0.6,2.4C458.4,252.6,457.7,253.1,456.8,253.2z"/>
					</g>
					<g id="XMLID_14_">
						<path id="XMLID_15_" class="st16" d="M457.1,263.7c-0.9-0.1-1.6-0.4-2.2-1.1c-0.5-0.5-0.9-1.3-0.9-2.2c0-0.4,0.1-0.8,0.3-1.2
							c0.2-0.4,0.4-0.7,0.6-1c0.5-0.5,1.3-1,2.2-1s1.7,0.3,2.2,0.9c0.3,0.3,0.5,0.6,0.7,1.1c0.2,0.4,0.3,0.8,0.3,1.3
							c0,0.9-0.4,1.8-1,2.3C458.8,263.4,458,263.7,457.1,263.7z"/>
					</g>
					<g id="XMLID_12_">
						<path id="XMLID_13_" class="st16" d="M455,273.9c-0.8-0.3-1.4-0.9-1.9-1.5c-0.4-0.7-0.5-1.5-0.4-2.2c0.1-0.4,0.3-0.7,0.5-1.1
							c0.1-0.2,0.3-0.3,0.4-0.4c0.2-0.1,0.3-0.3,0.4-0.4c0.6-0.4,1.5-0.6,2.4-0.4s1.6,0.6,2.1,1.3c0.1,0.2,0.2,0.4,0.3,0.5
							c0.1,0.2,0.1,0.4,0.2,0.6c0.1,0.4,0.1,0.9-0.1,1.3c-0.3,0.9-0.8,1.6-1.5,2.1C456.7,274.1,455.8,274.2,455,273.9z"/>
					</g>
					<g id="XMLID_10_">
						<path id="XMLID_11_" class="st16" d="M450.2,283.3c-0.7-0.5-1.2-1.3-1.3-2c-0.1-0.4-0.1-0.8-0.1-1.2c0-0.2,0.1-0.4,0.2-0.5
							c0.1-0.2,0.2-0.4,0.3-0.5c0.4-0.7,1.1-1.2,1.8-1.4c0.7-0.2,1.6-0.2,2.4,0.2s1.3,1.1,1.6,1.9c0.3,0.8,0.2,1.7-0.4,2.5
							c-0.1,0.2-0.3,0.4-0.4,0.5c-0.2,0.2-0.4,0.4-0.5,0.4c-0.4,0.3-0.7,0.4-1.2,0.5C451.9,283.9,451,283.7,450.2,283.3z"/>
					</g>
				</g>
			</g>
		</g>
	</g>
</g>
<circle class="st20" cx="97.9" cy="417" r="56.4"/>
<g>
	<g>
		<g>
			<defs>
				<rect id="SVGID_3_" x="260.6" y="224" width="79.2" height="152.4"/>
			</defs>
			<clipPath id="SVGID_4_">
				<use xlink:href="#SVGID_3_"  style="overflow:visible;"/>
			</clipPath>
			<g class="st21">
				<g id="Artwork_1">
					<g>
						<defs>
							<rect id="SVGID_5_" x="260.6" y="224" width="79.2" height="152.4"/>
						</defs>
						<clipPath id="SVGID_6_">
							<use xlink:href="#SVGID_5_"  style="overflow:visible;"/>
						</clipPath>
						<g class="st22">
							<path class="st23" d="M336.5,284l-27,3.4l19.2-54.4c2-5.5,1.9-7.2,1.2-8.3c-0.4-0.5-0.9-0.8-1.5-0.9c-0.5,0-2.2,0-6.5,5.8
								l-60.9,82.2c-0.9,1.5-0.4,3.4,1.1,4.3c0.5,0.3,1.1,0.4,1.6,0.4l24-2.2l-22.5,57.4c-0.6,1.6,0.1,3.4,1.7,4.1
								c0.4,0.1,0.7,0.2,1.2,0.2c1,0,2-0.4,2.6-1.2l68.2-86.1c1.1-1.3,0.8-3.3-0.5-4.4C337.8,284.3,337.2,284.1,336.5,284"/>
							<path class="st24" d="M339.4,285.8c-0.5-1.1-1.6-1.8-2.9-1.8l-27,3.4l19.2-54.4c2-5.5,1.9-7.2,1.2-8.3
								c-0.4-0.5-0.9-0.8-1.5-0.9l-41.1,76.3l25.9-5.1c2.4-0.5,4.8,1,5.2,3.4c0.3,1.2,0,2.4-0.7,3.4l-51.4,73.9l0.3,0.2
								c1.3,0.8,3.1,0.4,4-0.7l68.3-86.1C339.7,288.2,339.9,286.8,339.4,285.8"/>
						</g>
					</g>
				</g>
			</g>
		</g>
		<g>
			<path id="XMLID_557_" class="st25" d="M103.2,392.2c0,0-16.4,4.8-23.9,18.7c-7.5,13.9-6.5,31.5-6.5,31.5l16.6,2.3
				c0,0-9.4-14.2-1.3-30.9c8.2-16.7,18.2-14.5,18.2-14.5L103.2,392.2z"/>
			<g id="XMLID_372_">
				<path id="XMLID_556_" class="st26" d="M99.2,416.1c0.2,0.8,0.9,1.3,1.7,1.2l12.3-2.3c0.8-0.2,1.3-0.9,1.2-1.7l0,0
					c-0.2-0.8-0.9-1.3-1.7-1.2l-12.3,2.3C99.6,414.5,99.1,415.2,99.2,416.1L99.2,416.1z"/>
				<path id="XMLID_555_" class="st26" d="M92,378.5c0.2,0.8,0.9,1.3,1.7,1.2l12.3-2.3c0.8-0.2,1.3-0.9,1.2-1.7l0,0
					c-0.2-0.8-0.9-1.3-1.7-1.2l-12.3,2.3C92.4,376.9,91.8,377.7,92,378.5L92,378.5z"/>
				<polygon id="XMLID_554_" class="st25" points="105.5,374.4 105.7,367.6 90.5,370.6 93.2,376.7 				"/>
				
					<rect id="XMLID_553_" x="97.1" y="378.2" transform="matrix(0.9819 -0.1895 0.1895 0.9819 -73.1356 26.7233)" class="st25" width="12.1" height="35.3"/>
			</g>
			<path id="XMLID_371_" class="st26" d="M88.9,395.9c-0.7,4.1,2.2,8.1,6.3,8.7c4.1,0.7,8.1-2.2,8.7-6.3c0.7-4.1-2.2-8.1-6.3-8.7
				C93.5,388.9,89.6,391.8,88.9,395.9z"/>
			<path id="XMLID_370_" class="st25" d="M96.3,439.8c0,1.4,1.2,2.6,2.6,2.6H122c1.4,0,2.6-1.2,2.6-2.6l0,0c0-1.4-1.2-2.6-2.6-2.6
				H98.9C97.5,437.2,96.3,438.3,96.3,439.8L96.3,439.8z"/>
			<g id="XMLID_5_">
				<g id="XMLID_366_">
					<path id="XMLID_367_" class="st26" d="M61.7,451.9c0-5.3,3.7-9.5,8.2-9.5h54.8c4.5,0,8.2,4.3,8.2,9.5c0,0.2,0,0.3,0,0.4H61.7
						C61.7,452.3,61.7,452.1,61.7,451.9z"/>
				</g>
				<g id="XMLID_364_">
					<path class="st27" d="M133,452.4v2.9c0,0.5-0.4,1.1-1.1,1.1h-6.6c-0.5,0-1.1-0.4-1.1-1.1v-2.9H133z"/>
				</g>
				<g id="XMLID_362_">
					<path class="st27" d="M70.5,455.2c0,0.5-0.4,1.1-1.1,1.1h-6.6c-0.5,0-1.1-0.4-1.1-1.1v-2.9h8.8
						C70.5,452.4,70.5,455.2,70.5,455.2z"/>
				</g>
			</g>
		</g>
	</g>
</g>
</svg>
