<svg xmlns="http://www.w3.org/2000/svg" viewBox="0 0 1016.3 1018.22"><defs><style>.cls-1{fill:#40afff;}.cls-2{fill:#fac4a3;}.cls-3{fill:#bdbdbd;}.cls-4{fill:#212121;}.cls-5{fill:#f5f5f5;}.cls-6{fill:#fde0c9;}.cls-7{fill:none;stroke:#f8ac99;stroke-linecap:round;stroke-miterlimit:10;stroke-width:3.03px;}.cls-8{fill:#ffb74d;}.cls-9{fill:#fecf37;}</style></defs><title>Icons_Contribute</title><g id="Layer_2" data-name="Layer 2"><circle class="cls-1" cx="508.15" cy="509.11" r="407.4"/><path class="cls-2" d="M655,784.48,639,693.65,579.1,704.16,500,718s39.59,65.66,43.17,86.06c1.23,7,6.44,42.51,12.73,85.92a360.54,360.54,0,0,0,119.92-34.51Z"/><path class="cls-2" d="M615.09,521.25,511.47,422.88,450.72,550.07,551.29,823.19l109.46-19s41.54-80.88,33.74-139.38C688.1,616.89,676.71,583.14,615.09,521.25Z"/><rect class="cls-3" x="348.47" y="175.4" width="281.48" height="569.48" rx="43.39" ry="43.39"/><rect class="cls-3" x="209.9" y="324.83" width="558.61" height="270.61" rx="37.96" ry="37.96" transform="translate(949.34 -29.07) rotate(90)"/><rect class="cls-4" x="215.88" y="330.81" width="546.65" height="258.65" rx="31.98" ry="31.98" transform="translate(949.34 -29.07) rotate(90)"/><path class="cls-5" d="M586.55,192.79h-25a2.79,2.79,0,0,0-2.79,2.79h0A16.77,16.77,0,0,1,542,212.35H435.15a16.77,16.77,0,0,1-16.77-16.77h0a2.79,2.79,0,0,0-2.79-2.79H391.86a26,26,0,0,0-26,26V701.48a26,26,0,0,0,26,26H586.55a26,26,0,0,0,26-26V218.79A26,26,0,0,0,586.55,192.79Z"/><path class="cls-2" d="M649.47,673.07a12.05,12.05,0,0,0-16.64-7.88,10.38,10.38,0,0,1-2.52.71c-12.75,1.85-40.9-40.91-43.41-52.39-3.09-14.08-6.56-28.28-6.7-40.37,0-1.39.57-10.71.63-12,.67-14.24-13.86-17-27.32-12.24a12.28,12.28,0,0,0-2.9,1.38C541,556.94,530.3,573,529.87,602c-.31,21.1,15.62,55.34,26.32,70.88a12.21,12.21,0,0,1,1.14,11.62c-7.48,18-10.28,43.85-4.24,68.4,8.08,32.84,29,55.38,32.06,56.48L646.6,797a12.14,12.14,0,0,0,16.14-12.6l-8.91-93.57a11.74,11.74,0,0,0-.32-1.85Z"/><path class="cls-6" d="M580.64,558.13s-11.83.21-15.27,1.07-6.39,29.33.87,38.57,16.89-1.67,16.89-1.67Z"/><path class="cls-7" d="M557.33,684.47c-7.48,18-10.28,43.85-4.24,68.4a124.12,124.12,0,0,0,9.26,25.2"/><path class="cls-8" d="M566.16,418.14l-53.61,6.57L550.76,317c3.88-10.94,3.8-14.35,2.4-16.31a3.82,3.82,0,0,0-3.17-1.63c-1.08,0-4.37,0-12.86,11.57L416.36,473.71a6.39,6.39,0,0,0-.05,6.53,6.31,6.31,0,0,0,5.38,3l47.75-4.33-44.65,114a6.26,6.26,0,0,0,5.85,8.54,6.32,6.32,0,0,0,4.89-2.31L571,428.41a6.27,6.27,0,0,0-4.84-10.27Z"/><path class="cls-9" d="M571.85,421.75a6.31,6.31,0,0,0-5.69-3.61l-53.61,6.57L550.76,317c3.88-10.94,3.8-14.35,2.4-16.31a3.82,3.82,0,0,0-3.17-1.63L468.48,450.28l51.37-10.17a8.82,8.82,0,0,1,9,13.69L426.88,600.24c.19.13.37.26.57.38a6.34,6.34,0,0,0,8.08-1.45L571,428.41A6.27,6.27,0,0,0,571.85,421.75Z"/></g></svg>