<?xml version="1.0" encoding="utf-8"?>
<!-- Generator: Adobe Illustrator 22.0.0, SVG Export Plug-In . SVG Version: 6.00 Build 0)  -->
<svg version="1.1" id="Layer_1" xmlns="http://www.w3.org/2000/svg" xmlns:xlink="http://www.w3.org/1999/xlink" x="0px" y="0px"
	 viewBox="0 0 519.2 523" style="enable-background:new 0 0 519.2 523;" xml:space="preserve">
<style type="text/css">
	.st0{fill:#659BF8;}
	
		.st1{opacity:0.7;fill:none;stroke:#659BF8;stroke-width:4.0581;stroke-linecap:round;stroke-linejoin:round;stroke-miterlimit:10;stroke-dasharray:7.1016;enable-background:new    ;}
	.st2{fill:#FFFFFF;}
	.st3{fill:#F2F2F2;}
	.st4{opacity:0.1;fill:#FFFFFF;enable-background:new    ;}
	.st5{opacity:0.2;fill:#3B3B3B;enable-background:new    ;}
	.st6{fill:#F4D86E;}
	.st7{fill:#E6B244;}
	.st8{fill:#D09D2D;}
	.st9{fill:#575F66;}
	.st10{fill:#404952;}
	.st11{fill:#2ED7A2;}
	.st12{fill:#2DC492;}
	.st13{fill:#FF719D;}
	.st14{clip-path:url(#SVGID_2_);}
	.st15{fill:#589AF8;}
	.st16{fill:#F5DE34;}
	.st17{fill:#F2FBFF;}
	.st18{fill:url(#XMLID_6_);}
	.st19{fill:#6E6EDB;}
	.st20{clip-path:url(#SVGID_4_);}
	.st21{clip-path:url(#SVGID_6_);}
	.st22{fill:#FFB74D;}
	.st23{fill:#FECF37;}
	.st24{clip-path:url(#SVGID_8_);}
	.st25{fill:#E4E9F3;}
	.st26{fill:#D6DCEB;}
	.st27{fill:#B9C1D9;}
	.st28{fill:none;stroke:#211915;stroke-linecap:round;stroke-linejoin:round;stroke-miterlimit:10;}
	.st29{fill:#000100;stroke:#211915;stroke-linecap:round;stroke-linejoin:round;stroke-miterlimit:10;}
</style>
<g>
	<path class="st0" d="M272,406.3L261.1,279h0.2l12.4,127.1C273.2,406.2,272.6,406.3,272,406.3z M204,395.8c-0.5-0.3-1.1-0.4-1.7-0.7
		l50.4-117.4l0.1,0.1L204,395.8z M338.9,383.4l-69.6-107.1l0.2-0.1l71,106.3C339.8,382.7,339.3,383,338.9,383.4z M147.4,353.8
		c-0.4-0.4-0.7-0.9-1.1-1.3l99.6-80l0.1,0.2L147.4,353.8z M386.9,331.6l-112-61.7l0.1-0.2l112.6,60.4
		C387.5,330.7,387.2,331.2,386.9,331.6z M117.1,289.9c-0.1-0.5-0.3-1.2-0.4-1.7L242.4,265v0.2L117.1,289.9z M404.9,263.3l-127.8-1.5
		v-0.3h127.8C404.9,262.1,404.9,262.7,404.9,263.3z M242.8,256.4l-122.3-37c0.2-0.5,0.4-1.1,0.5-1.6l121.8,38.5V256.4z M276,255.3
		l-0.2-0.4L393.9,206c0.2,0.4,0.4,0.9,0.5,1.3L276,255.3z M247.3,249.1l-90.5-90.2c0.4-0.4,0.9-0.9,1.3-1.3L247.3,249.1z
		 M270.8,248.1L270.8,248.1l81-98.8c0.4,0.4,1,0.8,1.4,1.2L270.8,248.1z M254.5,244.8l-37.1-122.3c0.5-0.2,1.1-0.4,1.6-0.4
		l35.8,122.6L254.5,244.8z M263.2,244.4L263.2,244.4l24.6-125.3c0.6,0.1,1.2,0.3,1.8,0.4L263.2,244.4z"/>
	<path class="st0" d="M265.2,372.1l-2.9-58.4h0.6l3.6,58.4C266.1,372.1,265.6,372.1,265.2,372.1z M238.9,370.3
		c-0.4-0.1-0.8-0.2-1.3-0.3l11.5-57.3l0.7,0.2L238.9,370.3z M292.5,367.2l-17.4-55.9l0.6-0.2l18.1,55.6
		C293.3,367,292.9,367.1,292.5,367.2z M212.4,361.6c-0.4-0.2-0.8-0.4-1.3-0.6l25.6-52.6l0.5,0.3L212.4,361.6z M317.7,355.7
		L287,305.9l0.4-0.3l31.4,49.3C318.5,355.3,318.1,355.5,317.7,355.7z M189,346.7c-0.4-0.3-0.7-0.5-1-0.9l37.9-44.6l0.4,0.4
		L189,346.7z M339.4,338.3l-42.2-40.5l0.4-0.4l42.6,40.1C339.9,337.7,339.7,337.9,339.4,338.3z M170,326.5c-0.3-0.4-0.5-0.7-0.7-1.1
		l47.7-33.8l0.4,0.5L170,326.5z M355.9,316.1L305,287.3l0.3-0.5l51.2,28.2C356.4,315.3,356.1,315.6,355.9,316.1z M156.6,302.3
		c-0.2-0.4-0.4-0.9-0.5-1.3l54.7-20.8l0.2,0.5L156.6,302.3z M366.5,290.3L310,275.2l0.2-0.7l56.7,14.6
		C366.7,289.5,366.6,289.9,366.5,290.3z M149.8,275.3c-0.1-0.4-0.1-0.9-0.2-1.3l58.1-6.5l0.1,0.6L149.8,275.3z M370.2,262.9
		l-58.5-0.7v-0.6h58.5C370.3,262,370.3,262.5,370.2,262.9z M207.9,254.9l-58-7.3c0.1-0.4,0.1-0.9,0.2-1.3l58,8.1L207.9,254.9z
		 M310.3,249.2l-0.2-0.6l56.7-14.4c0.1,0.4,0.2,0.9,0.4,1.3L310.3,249.2z M211.1,242.3l-54.4-21.6c0.2-0.4,0.4-0.8,0.5-1.3
		l54.1,22.3L211.1,242.3z M305.7,237.1l-0.3-0.5l51.2-28.2c0.2,0.4,0.4,0.8,0.6,1.2L305.7,237.1z M217.4,230.8l-47.3-34.5
		c0.3-0.4,0.5-0.7,0.8-1.1l46.8,35L217.4,230.8z M298.2,226.4l-0.4-0.4l42.7-40c0.3,0.4,0.6,0.6,0.9,1L298.2,226.4z M226.4,221.3
		l-37.2-45.1c0.4-0.3,0.6-0.5,1-0.8l36.7,45.5L226.4,221.3z M288.2,217.9l-0.6-0.4l31.5-49.3c0.4,0.3,0.7,0.4,1.1,0.7L288.2,217.9z
		 M237.5,214.3l-24.9-52.9c0.4-0.2,0.8-0.4,1.2-0.5l24.3,53.3L237.5,214.3z M276.4,212.1l-0.6-0.2l18.1-55.6
		c0.4,0.1,0.8,0.3,1.2,0.4L276.4,212.1z M249.8,210.3L239,152.8c0.4-0.1,0.9-0.2,1.3-0.3l10.2,57.6L249.8,210.3z M263.6,209.5h-0.5
		l3.7-58.4c0.4,0,0.9,0.1,1.3,0.1L263.6,209.5z"/>
</g>
<polygon class="st1" points="463.5,379.3 463.5,144 259.7,26.3 55.9,144 55.9,379.3 259.7,497 "/>
<g id="XMLID_360_">
	<ellipse id="XMLID_375_" class="st2" cx="463.7" cy="378.4" rx="56.3" ry="56.3"/>
	<ellipse id="XMLID_374_" class="st3" cx="463.6" cy="378.4" rx="47.6" ry="47.6"/>
	<path id="XMLID_373_" class="st4" d="M474.5,424.8c-25.6,6-51.3-9.8-57.3-35.4c-0.8-3.5-1.3-6.9-1.3-10.3c-0.1,4,0.3,8.1,1.3,12.1
		c6,25.6,31.7,41.5,57.3,35.4c22.1-5.2,36.9-25.1,36.7-46.9C510.7,400.8,496.1,419.8,474.5,424.8z"/>
	<path id="XMLID_368_" class="st5" d="M452.7,335.6c25.6-6,51.3,9.8,57.3,35.4c0.7,3.1,1.2,6.1,1.3,9.2c0.2-4.1-0.3-8.4-1.3-12.7
		c-6-25.6-31.7-41.4-57.3-35.4c-22.6,5.3-37.5,25.8-36.7,48.2C416.8,359.3,431.3,340.6,452.7,335.6z"/>
</g>
<g id="XMLID_63_">
	<circle id="XMLID_83_" class="st6" cx="259.7" cy="467.4" r="56.1"/>
	<g id="XMLID_81_">
		<circle id="XMLID_82_" class="st7" cx="259.7" cy="467.4" r="49.1"/>
	</g>
	<g id="XMLID_65_">
		<g id="XMLID_78_">
			<rect id="XMLID_80_" x="248.7" y="432.1" class="st8" width="6.3" height="12.4"/>
			<rect id="XMLID_79_" x="260.9" y="432.1" class="st8" width="6.3" height="12.4"/>
		</g>
		<g id="XMLID_75_">
			<rect id="XMLID_77_" x="248.7" y="490.8" class="st8" width="6.3" height="12.4"/>
			<rect id="XMLID_76_" x="260.9" y="490.8" class="st8" width="6.3" height="12.4"/>
		</g>
		<g id="XMLID_70_">
			<path id="XMLID_71_" class="st8" d="M285.5,454.9c0,5.8-3.8,10.6-9.7,12.2c7.1,1.4,11.5,7,11.5,14.2c0,9.6-8.4,15.6-21.7,15.6
				h-27.8v-56.2h26.7C277.4,440.7,285.5,446.3,285.5,454.9z M270.4,457.5c0-3.3-2.5-5.4-6.6-5.3h-11.2v10.9h11.2
				C267.9,463.1,270.4,461,270.4,457.5z M272.2,479.4c0-3.5-3.2-5.8-8.4-5.7h-11.2v11.8h11.2C269,485.6,272.2,483.3,272.2,479.4z"/>
		</g>
		<path id="XMLID_66_" class="st6" d="M288.2,480.4c0-7.2-4.4-12.8-11.5-14.2c5.9-1.6,9.7-6.3,9.7-12.2c0-8.1-7-13.4-18.2-14.1V432
			h-6.3v7.8H256V432h-6.4v7.8h-10.8V496h10.8v7h6.3v-7h5.9v7h6.3v-7C280.4,495.6,288.2,489.7,288.2,480.4z M271.2,456.6
			c0,3.5-2.5,5.6-6.6,5.6h-11.2v-10.9h11.2C268.8,451.3,271.2,453.3,271.2,456.6z M264.6,484.7h-11.2v-11.8h11.2
			c5.1-0.1,8.4,2.2,8.4,5.7C273,482.5,269.8,484.7,264.6,484.7z"/>
	</g>
	<path id="XMLID_64_" class="st8" d="M259.7,418.3c-8.2,0-15.9,2-22.6,5.6c6.4-3,13.5-4.7,20.9-4.7c27.1,0,49.1,22,49.1,49.1
		c0,19-10.8,35.4-26.5,43.6c16.6-7.9,28.2-24.8,28.2-44.5C308.8,440.3,286.8,418.3,259.7,418.3z"/>
</g>
<g id="XMLID_45_">
	<g id="XMLID_58_">
		<ellipse id="XMLID_62_" class="st9" cx="57.6" cy="156.1" rx="56.3" ry="56.3"/>
		<ellipse id="XMLID_61_" class="st10" cx="57.7" cy="156.1" rx="47.6" ry="47.6"/>
		<path id="XMLID_60_" class="st4" d="M68.5,202.4c-25.6,6-51.3-9.8-57.3-35.4c-0.8-3.5-1.3-6.9-1.3-10.3c-0.1,4,0.3,8.1,1.3,12.1
			c6,25.6,31.7,41.5,57.3,35.4c22.1-5.2,36.9-25.1,36.7-46.9C104.7,178.4,90.1,197.4,68.5,202.4z"/>
		<path id="XMLID_59_" class="st5" d="M46.7,113.1c25.6-6,51.3,9.8,57.3,35.4c0.7,3.1,1.2,6.1,1.3,9.2c0.2-4.1-0.3-8.4-1.3-12.7
			c-6-25.6-31.7-41.4-57.3-35.4c-22.6,5.3-37.5,25.8-36.7,48.2C10.8,136.9,25.4,118.2,46.7,113.1z"/>
	</g>
	<g id="XMLID_46_">
		<g id="XMLID_47_">
			<g id="XMLID_56_">
				<polygon id="XMLID_57_" class="st2" points="58.5,171.9 58.5,187.3 77.6,160.4 				"/>
			</g>
			<g id="XMLID_53_">
				<polygon id="XMLID_55_" class="st2" points="76.9,155.4 58.5,124.9 58.5,147.1 				"/>
				<polygon id="XMLID_54_" class="st2" points="58.5,148.9 58.5,167.8 76.7,157.2 				"/>
			</g>
			<g id="XMLID_50_">
				<polygon id="XMLID_52_" class="st2" points="38.5,155.4 56.9,124.9 56.9,147.1 				"/>
				<polygon id="XMLID_51_" class="st2" points="56.9,148.9 56.9,167.8 38.6,157.2 				"/>
			</g>
			<g id="XMLID_48_">
				<polygon id="XMLID_49_" class="st2" points="56.8,171.9 56.8,187.3 37.7,160.4 				"/>
			</g>
		</g>
	</g>
</g>
<g id="XMLID_126_">
	<g id="XMLID_131_">
		<ellipse id="XMLID_140_" class="st11" cx="259.7" cy="58.6" rx="56.2" ry="56.2"/>
		<ellipse id="XMLID_137_" class="st12" cx="259.7" cy="58.6" rx="47.5" ry="47.5"/>
		<path id="XMLID_136_" class="st4" d="M270.6,104.9c-25.5,6-51.1-9.8-57.2-35.3c-0.8-3.5-1.3-6.9-1.3-10.3c-0.1,4,0.3,8,1.3,12
			c6,25.5,31.6,41.4,57.2,35.3c22.1-5.2,36.9-25.1,36.7-46.8C306.7,80.9,292,99.8,270.6,104.9z"/>
		<path id="XMLID_133_" class="st5" d="M248.7,15.7c25.5-6,51.1,9.8,57.2,35.3c0.7,3.1,1.2,6.1,1.3,9.2c0.2-4.1-0.3-8.4-1.3-12.7
			c-6-25.5-31.6-41.4-57.2-35.3c-22.5,5.3-37.5,25.8-36.6,48.1C212.9,39.4,227.4,20.8,248.7,15.7z"/>
	</g>
</g>
<g>
	
		<ellipse transform="matrix(0.7071 -0.7071 0.7071 0.7071 31.2578 370.457)" class="st13" cx="462.8" cy="147.5" rx="56.4" ry="56.4"/>
	<g>
		<g>
			<g>
				<g>
					<defs>
						
							<ellipse id="SVGID_1_" transform="matrix(0.7071 -0.7071 0.7071 0.7071 31.2578 370.457)" cx="462.8" cy="147.5" rx="56.4" ry="56.4"/>
					</defs>
					<clipPath id="SVGID_2_">
						<use xlink:href="#SVGID_1_"  style="overflow:visible;"/>
					</clipPath>
					<g id="XMLID_348_" class="st14">
						<g id="XMLID_250_">
							<g id="XMLID_276_">
								<path id="XMLID_277_" class="st15" d="M464.2,161.4L448.9,149c-0.3-0.3-0.4-0.7-0.1-1s0.7-0.4,1-0.1l15.3,12.4
									c0.3,0.3,0.4,0.7,0.1,1S464.5,161.6,464.2,161.4z"/>
							</g>
							<g id="XMLID_273_">
								<path id="XMLID_275_" class="st16" d="M463.8,167.8l-20.9-17.1c-0.3-0.3-0.4-0.7-0.1-1s0.7-0.4,1-0.1l20.9,17.1
									c0.3,0.3,0.4,0.7,0.1,1C464.6,167.9,464.1,167.9,463.8,167.8z"/>
							</g>
							<g id="XMLID_271_">
								<path id="XMLID_272_" class="st15" d="M462.9,173.7l-25.7-20.9c-0.3-0.3-0.4-0.7-0.1-1s0.7-0.4,1-0.1l25.7,20.9
									c0.3,0.3,0.4,0.7,0.1,1C463.7,173.9,463.2,174,462.9,173.7z"/>
							</g>
							<g id="XMLID_269_">
								<path id="XMLID_270_" class="st16" d="M461.2,179l-28.9-23.5c-0.3-0.3-0.4-0.7-0.1-1s0.7-0.4,1-0.1l28.9,23.5
									c0.3,0.3,0.4,0.7,0.1,1C461.9,179.2,461.5,179.3,461.2,179z"/>
							</g>
							<g id="XMLID_267_">
								<path id="XMLID_268_" class="st15" d="M459.2,183.9l-31.3-25.4c-0.3-0.3-0.4-0.7-0.1-1s0.7-0.4,1-0.1l31.3,25.4
									c0.3,0.3,0.4,0.7,0.1,1S459.4,184.2,459.2,183.9z"/>
							</g>
							<g id="XMLID_265_">
								<path id="XMLID_266_" class="st16" d="M455.9,188l-31.2-25.5c-0.3-0.3-0.4-0.7-0.1-1s0.7-0.4,1-0.1l31.3,25.4
									c0.3,0.3,0.4,0.7,0.1,1C456.6,188.2,456.2,188.2,455.9,188z"/>
							</g>
							<g id="XMLID_263_">
								<path id="XMLID_264_" class="st15" d="M452.6,192l-31.3-25.4c-0.3-0.3-0.4-0.7-0.1-1s0.7-0.4,1-0.1l31.3,25.4
									c0.3,0.3,0.4,0.7,0.1,1C453.4,192.2,453,192.2,452.6,192z"/>
							</g>
							<g id="XMLID_260_">
								<path id="XMLID_261_" class="st16" d="M449.4,196l-31.3-25.5c-0.3-0.3-0.4-0.7-0.1-1s0.7-0.4,1-0.1l31.3,25.4
									c0.3,0.3,0.4,0.7,0.1,1C450.1,196.1,449.6,196.2,449.4,196z"/>
							</g>
							<g id="XMLID_257_">
								<path id="XMLID_258_" class="st15" d="M444.9,199L416,175.5c-0.3-0.3-0.4-0.7-0.1-1s0.7-0.4,1-0.1l28.9,23.5
									c0.3,0.3,0.4,0.7,0.1,1C445.7,199.2,445.2,199.3,444.9,199z"/>
							</g>
							<g id="XMLID_255_">
								<path id="XMLID_256_" class="st16" d="M440,201.7l-25.7-20.9c-0.3-0.3-0.4-0.7-0.1-1s0.7-0.4,1-0.1l25.7,20.9
									c0.3,0.3,0.4,0.7,0.1,1C440.8,202,440.4,202,440,201.7z"/>
							</g>
							<g id="XMLID_253_">
								<path id="XMLID_254_" class="st15" d="M434.5,203.8l-20.9-17.1c-0.3-0.3-0.4-0.7-0.1-1s0.7-0.4,1-0.1l20.9,17.1
									c0.3,0.3,0.4,0.7,0.1,1C435.2,204.1,434.7,204.1,434.5,203.8z"/>
							</g>
							<g id="XMLID_251_">
								<path id="XMLID_252_" class="st16" d="M428.3,205.5L413,193.1c-0.3-0.3-0.4-0.7-0.1-1s0.7-0.4,1-0.1l15.3,12.4
									c0.3,0.3,0.4,0.7,0.1,1C429.1,205.7,428.6,205.8,428.3,205.5z"/>
							</g>
						</g>
						<g id="XMLID_235_">
							<g id="XMLID_248_">
								<path id="XMLID_249_" class="st15" d="M416.7,219.8l-15.3-12.4c-0.3-0.3-0.4-0.7-0.1-1s0.7-0.4,1-0.1l15.3,12.4
									c0.3,0.3,0.4,0.7,0.1,1C417.4,220,416.9,220,416.7,219.8z"/>
							</g>
							<g id="XMLID_246_">
								<path id="XMLID_247_" class="st16" d="M416.2,226.2l-20.9-17.1c-0.3-0.3-0.4-0.7-0.1-1s0.7-0.4,1-0.1l20.9,17.1
									c0.3,0.3,0.4,0.7,0.1,1C417,226.3,416.6,226.4,416.2,226.2z"/>
							</g>
							<g id="XMLID_244_">
								<path id="XMLID_245_" class="st15" d="M415.4,232.1l-25.7-20.9c-0.3-0.3-0.4-0.7-0.1-1s0.7-0.4,1-0.1l25.7,20.9
									c0.3,0.3,0.4,0.7,0.1,1S415.7,232.4,415.4,232.1z"/>
							</g>
							<g id="XMLID_242_">
								<path id="XMLID_243_" class="st16" d="M413.7,237.4l-28.9-23.5c-0.3-0.3-0.4-0.7-0.1-1s0.7-0.4,1-0.1l28.9,23.5
									c0.3,0.3,0.4,0.7,0.1,1S414,237.7,413.7,237.4z"/>
							</g>
							<g id="XMLID_240_">
								<path id="XMLID_241_" class="st15" d="M411.6,242.4L380.3,217c-0.3-0.3-0.4-0.7-0.1-1s0.7-0.4,1-0.1l31.3,25.4
									c0.3,0.3,0.4,0.7,0.1,1C412.4,242.6,411.9,242.6,411.6,242.4z"/>
							</g>
							<g id="XMLID_238_">
								<path id="XMLID_239_" class="st16" d="M408.4,246.4L377.1,221c-0.3-0.3-0.4-0.7-0.1-1s0.7-0.4,1-0.1l31.3,25.4
									c0.3,0.3,0.4,0.7,0.1,1C409.1,246.6,408.7,246.6,408.4,246.4z"/>
							</g>
							<g id="XMLID_236_">
								<path id="XMLID_237_" class="st17" d="M374.3,224.4"/>
							</g>
						</g>
						<g id="XMLID_220_">
							<g id="XMLID_233_">
								<path id="XMLID_234_" class="st16" d="M523.2,88.9L508,76.5c-0.3-0.3-0.4-0.7-0.1-1s0.7-0.4,1-0.1l15.3,12.4
									c0.3,0.3,0.4,0.7,0.1,1C523.9,89,523.5,89.1,523.2,88.9z"/>
							</g>
							<g id="XMLID_231_">
								<path id="XMLID_95_" class="st15" d="M529.3,87.2l-20.9-17.1c-0.3-0.3-0.4-0.7-0.1-1s0.7-0.4,1-0.1l20.9,17.1
									c0.3,0.3,0.4,0.7,0.1,1C530.1,87.4,529.6,87.4,529.3,87.2z"/>
							</g>
							<g id="XMLID_229_">
								<path id="XMLID_230_" class="st16" d="M535,85.1l-25.7-20.9c-0.3-0.3-0.4-0.7-0.1-1s0.7-0.4,1-0.1L535.9,84
									c0.3,0.3,0.4,0.7,0.1,1S535.3,85.4,535,85.1z"/>
							</g>
							<g id="XMLID_227_">
								<path id="XMLID_228_" class="st15" d="M539.8,82.4l-28.9-23.5c-0.3-0.3-0.4-0.7-0.1-1s0.7-0.4,1-0.1l28.9,23.5
									c0.3,0.3,0.4,0.7,0.1,1C540.6,82.6,540.1,82.7,539.8,82.4z"/>
							</g>
							<g id="XMLID_225_">
								<path id="XMLID_226_" class="st16" d="M544.3,79.3L513,53.9c-0.3-0.3-0.4-0.7-0.1-1c0.3-0.3,0.7-0.4,1-0.1l31.3,25.4
									c0.3,0.3,0.4,0.7,0.1,1C545.1,79.5,544.6,79.6,544.3,79.3z"/>
							</g>
							<g id="XMLID_223_">
								<path id="XMLID_224_" class="st15" d="M547.6,75.3l-31.3-25.4c-0.3-0.3-0.4-0.7-0.1-1c0.3-0.3,0.7-0.4,1-0.1l31.3,25.4
									c0.3,0.3,0.4,0.7,0.1,1C548.3,75.6,547.8,75.6,547.6,75.3z"/>
							</g>
							<g id="XMLID_221_">
								<path id="XMLID_222_" class="st17" d="M551.3,70.8"/>
							</g>
						</g>
						<g id="XMLID_278_">
							<g id="XMLID_335_">
								<path id="XMLID_336_" class="st15" d="M511.9,102.8l-15.3-12.4c-0.3-0.3-0.4-0.7-0.1-1s0.7-0.4,1-0.1l15.3,12.4
									c0.3,0.3,0.4,0.7,0.1,1C512.6,103,512.2,103.1,511.9,102.8z"/>
							</g>
							<g id="XMLID_321_">
								<path id="XMLID_334_" class="st16" d="M511.5,109.1L490.6,92c-0.3-0.3-0.4-0.7-0.1-1s0.7-0.4,1-0.1l20.9,17.1
									c0.3,0.3,0.4,0.7,0.1,1C512.3,109.4,511.8,109.4,511.5,109.1z"/>
							</g>
							<g id="XMLID_309_">
								<path id="XMLID_310_" class="st15" d="M510.6,115.1l-25.7-20.9c-0.3-0.3-0.4-0.7-0.1-1s0.7-0.4,1-0.1l25.7,20.9
									c0.3,0.3,0.4,0.7,0.1,1C511.3,115.3,510.9,115.3,510.6,115.1z"/>
							</g>
							<g id="XMLID_307_">
								<path id="XMLID_308_" class="st16" d="M508.9,120.4L480,96.9c-0.3-0.3-0.4-0.7-0.1-1s0.7-0.4,1-0.1l28.9,23.5
									c0.3,0.3,0.4,0.7,0.1,1C509.7,120.6,509.2,120.6,508.9,120.4z"/>
							</g>
							<g id="XMLID_302_">
								<path id="XMLID_306_" class="st15" d="M506.9,125.3l-31.4-25.4c-0.3-0.3-0.4-0.7-0.1-1s0.7-0.4,1-0.1l31.3,25.4
									c0.3,0.3,0.4,0.7,0.1,1C507.5,125.5,507.1,125.6,506.9,125.3z"/>
							</g>
							<g id="XMLID_299_">
								<path id="XMLID_300_" class="st16" d="M503.5,129.4L472.2,104c-0.3-0.3-0.4-0.7-0.1-1s0.7-0.4,1-0.1l31.3,25.4
									c0.3,0.3,0.4,0.7,0.1,1C504.3,129.6,503.9,129.7,503.5,129.4z"/>
							</g>
							<g id="XMLID_297_">
								<path id="XMLID_298_" class="st15" d="M500.3,133.3L469,107.9c-0.3-0.3-0.4-0.7-0.1-1s0.7-0.4,1-0.1l31.3,25.4
									c0.3,0.3,0.4,0.7,0.1,1C501,133.6,500.6,133.6,500.3,133.3z"/>
							</g>
							<g id="XMLID_295_">
								<path id="XMLID_296_" class="st16" d="M497.1,137.4L465.8,112c-0.3-0.3-0.4-0.7-0.1-1s0.7-0.4,1-0.1l31.3,25.4
									c0.3,0.3,0.4,0.7,0.1,1S497.3,137.7,497.1,137.4z"/>
							</g>
							<g id="XMLID_290_">
								<path id="XMLID_294_" class="st15" d="M492.6,140.4l-28.9-23.5c-0.3-0.3-0.4-0.7-0.1-1s0.7-0.4,1-0.1l28.9,23.5
									c0.3,0.3,0.4,0.7,0.1,1C493.3,140.6,492.9,140.7,492.6,140.4z"/>
							</g>
							<g id="XMLID_288_">
								<path id="XMLID_289_" class="st16" d="M487.7,143.1L462,122.2c-0.3-0.3-0.4-0.7-0.1-1s0.7-0.4,1-0.1l25.7,20.9
									c0.3,0.3,0.4,0.7,0.1,1S488,143.4,487.7,143.1z"/>
							</g>
							<g id="XMLID_286_">
								<path id="XMLID_287_" class="st15" d="M482.1,145.2l-20.9-17.1c-0.3-0.3-0.4-0.7-0.1-1s0.7-0.4,1-0.1l20.9,17.1
									c0.3,0.3,0.4,0.7,0.1,1C482.9,145.5,482.4,145.5,482.1,145.2z"/>
							</g>
							<g id="XMLID_280_">
								<path id="XMLID_281_" class="st16" d="M476,146.9l-15.3-12.4c-0.3-0.3-0.4-0.7-0.1-1s0.7-0.4,1-0.1l15.3,12.4
									c0.3,0.3,0.4,0.7,0.1,1S476.2,147.2,476,146.9z"/>
							</g>
						</g>
						<g id="XMLID_339_">
							<path id="XMLID_340_" class="st17" d="M374.9,223.2c-0.5-0.4-0.6-1.2-0.2-1.7c12.2-15,26.6-15.9,40.5-16.7
								c14-0.8,27.2-1.6,38.7-15.8s9.6-27.3,7.6-41.2c-2-13.7-4-28,8.2-43s26.6-15.9,40.5-16.7c14-0.8,27.2-1.6,38.7-15.8
								c0.4-0.5,1.2-0.6,1.7-0.2s0.6,1.2,0.2,1.7c-12.2,15-26.6,15.9-40.5,16.7c-14,0.8-27.2,1.6-38.7,15.8s-9.6,27.3-7.6,41.2
								c2,13.7,4,28-8.2,43s-26.6,15.9-40.5,16.7c-14,0.8-27.2,1.6-38.7,15.8C376.1,223.5,375.4,223.6,374.9,223.2z"/>
						</g>
						<g id="XMLID_337_">
							<path id="XMLID_338_" class="st17" d="M406.6,249c-0.5-0.4-0.6-1.2-0.2-1.7c11.5-14.2,9.6-27.3,7.6-41.2c-2-13.7-4-28,8.2-43
								s26.6-15.9,40.5-16.7c14-0.8,27.2-1.6,38.7-15.8c11.5-14.2,9.6-27.3,7.6-41.2c-2-13.7-4-28,8.2-43c0.4-0.5,1.2-0.6,1.7-0.2
								s0.6,1.2,0.2,1.7c-11.5,14.2-9.6,27.3-7.6,41.2c2,13.7,4,28-8.2,43c-12.2,15-26.6,15.9-40.5,16.7c-14,0.8-27.2,1.6-38.7,15.8
								s-9.6,27.3-7.6,41.2c2,13.7,4,28-8.2,43C407.9,249.3,407.1,249.4,406.6,249z"/>
						</g>
						<g id="XMLID_164_">
							<g id="XMLID_218_">
								<path id="XMLID_219_" class="st16" d="M542.5,80.2c-0.5-0.7-0.7-1.5-0.6-2.3s0.4-1.5,1-2.1c0.2-0.1,0.4-0.3,0.4-0.4
									c0.2-0.1,0.4-0.2,0.5-0.3c0.4-0.1,0.7-0.2,1.2-0.2c0.8,0,1.6,0.4,2.2,0.9c0.6,0.6,1,1.4,0.9,2.2c0,0.4-0.1,0.8-0.3,1.3
									c-0.1,0.2-0.2,0.4-0.4,0.5c-0.2,0.2-0.3,0.4-0.4,0.5c-0.7,0.6-1.6,0.9-2.4,0.8C543.7,81.3,543,80.9,542.5,80.2z"/>
							</g>
							<g id="XMLID_216_">
								<path id="XMLID_217_" class="st16" d="M533.3,85.3c-0.4-0.8-0.3-1.7,0-2.4c0.1-0.2,0.2-0.4,0.3-0.5s0.2-0.4,0.4-0.4
									c0.3-0.3,0.5-0.5,0.9-0.7c0.7-0.4,1.5-0.4,2.2-0.2c0.7,0.3,1.4,0.7,1.9,1.5c0.4,0.7,0.5,1.6,0.3,2.4s-0.8,1.5-1.7,2
									c-0.4,0.2-0.9,0.4-1.3,0.4c-0.2,0-0.4,0-0.6,0c-0.2,0-0.4-0.1-0.6-0.2C534.3,86.7,533.6,86.2,533.3,85.3z"/>
							</g>
							<g id="XMLID_214_">
								<path id="XMLID_215_" class="st16" d="M523.1,88c-0.2-0.9,0.1-1.7,0.5-2.3c0.3-0.4,0.5-0.6,0.8-0.8c0.4-0.3,0.7-0.4,1.1-0.4
									c0.8-0.2,1.6,0,2.3,0.4s1.3,1.1,1.4,2c0.3,0.8,0.1,1.7-0.4,2.4c-0.4,0.7-1.2,1.3-2.1,1.4c-0.4,0.1-0.9,0.1-1.3,0
									c-0.4-0.1-0.8-0.3-1.2-0.4C523.8,89.6,523.3,88.9,523.1,88z"/>
							</g>
							<g id="XMLID_212_">
								<path id="XMLID_213_" class="st16" d="M512.7,89c-0.1-1.8,1.3-3.2,3-3.4c0.9-0.1,1.6,0.2,2.2,0.7c0.6,0.5,1.1,1.3,1.2,2.2
									s-0.2,1.7-0.7,2.3c-0.5,0.6-1.3,1.1-2.2,1.2C514.3,92.1,512.8,90.8,512.7,89z"/>
							</g>
							<g id="XMLID_210_">
								<path id="XMLID_211_" class="st16" d="M502.3,89.8c-0.1-0.9,0.2-1.7,0.7-2.3c0.5-0.6,1.3-1.1,2.2-1.1c1.8-0.1,3.3,1.2,3.4,3
									s-1.3,3.2-3,3.4c-0.9,0.1-1.7-0.3-2.2-0.7C502.7,91.4,502.4,90.6,502.3,89.8z"/>
							</g>
							<g id="XMLID_208_">
								<path id="XMLID_209_" class="st16" d="M492,91.5c-0.3-0.8-0.1-1.7,0.4-2.4c0.4-0.7,1.2-1.3,2.2-1.4c0.4-0.1,0.9-0.1,1.3,0
									s0.8,0.3,1.2,0.5c0.7,0.4,1.2,1.3,1.3,2.1c0.1,0.9-0.1,1.7-0.5,2.3c-0.3,0.4-0.5,0.6-0.8,0.8c-0.4,0.2-0.7,0.4-1.1,0.4
									c-0.8,0.2-1.6,0-2.2-0.4C492.7,93,492.1,92.4,492,91.5z"/>
							</g>
							<g id="XMLID_206_">
								<path id="XMLID_207_" class="st16" d="M482.3,95.4c-0.4-0.8-0.5-1.6-0.3-2.4c0.1-0.4,0.4-0.8,0.6-1.1
									c0.3-0.4,0.6-0.6,1.1-0.8c0.4-0.2,0.9-0.3,1.3-0.4c0.4,0,0.9,0.1,1.3,0.2c0.8,0.3,1.4,0.9,1.7,1.8c0.3,0.8,0.3,1.7,0,2.4
									c-0.2,0.4-0.4,0.7-0.6,1c-0.3,0.3-0.5,0.5-0.9,0.7s-0.7,0.3-1.2,0.3c-0.4,0-0.8,0-1.2-0.2C483.3,96.7,482.6,96.1,482.3,95.4
									z"/>
							</g>
							<g id="XMLID_94_">
								<path id="XMLID_205_" class="st16" d="M473.9,101.8c-0.6-0.6-0.9-1.4-0.9-2.2c0-0.4,0.1-0.8,0.4-1.3
									c0.2-0.4,0.4-0.7,0.8-1.1c0.7-0.6,1.6-0.9,2.4-0.8s1.6,0.5,2.2,1.3c0.5,0.7,0.7,1.5,0.6,2.3s-0.4,1.5-1.1,2.1
									c-0.3,0.3-0.6,0.4-1,0.5s-0.7,0.2-1.2,0.2C475.3,102.7,474.5,102.4,473.9,101.8z"/>
							</g>
							<g id="XMLID_202_">
								<path id="XMLID_203_" class="st16" d="M467.3,110c-0.4-0.3-0.7-0.5-0.9-0.9c-0.3-0.4-0.4-0.7-0.4-1.2
									c-0.1-0.4-0.1-0.8,0-1.3c0.1-0.4,0.3-0.8,0.5-1.3c0.2-0.2,0.3-0.4,0.4-0.5c0.2-0.2,0.4-0.3,0.5-0.4c0.4-0.2,0.8-0.4,1.2-0.4
									c0.8-0.1,1.7,0.1,2.3,0.7c0.7,0.5,1.1,1.3,1.2,2.2c0.1,0.4,0,0.8-0.1,1.2c-0.1,0.2-0.1,0.4-0.2,0.5
									c-0.1,0.2-0.2,0.4-0.3,0.5c-0.3,0.4-0.5,0.6-0.9,0.8s-0.7,0.4-1.1,0.4c-0.4,0.1-0.8,0.1-1.2,0
									C468.1,110.3,467.8,110.3,467.3,110z"/>
							</g>
							<g id="XMLID_200_">
								<path id="XMLID_201_" class="st16" d="M463,119.5c-0.8-0.3-1.5-0.8-1.9-1.6c-0.2-0.4-0.3-0.8-0.3-1.3c0-0.4,0.1-0.9,0.3-1.3
									s0.4-0.8,0.7-1.2c0.2-0.2,0.4-0.3,0.5-0.4c0.2-0.1,0.4-0.2,0.5-0.3c0.8-0.3,1.6-0.3,2.4,0.1s1.3,1.1,1.6,1.8
									c0.1,0.2,0.1,0.4,0.2,0.5c0,0.2,0.1,0.4,0.1,0.5c0,0.4-0.1,0.8-0.2,1.2c-0.2,0.4-0.4,0.7-0.6,1c-0.3,0.3-0.6,0.5-1,0.6
									C464.7,119.6,463.8,119.8,463,119.5z"/>
							</g>
							<g id="XMLID_198_">
								<path id="XMLID_199_" class="st16" d="M461.3,129.8c-0.9,0-1.7-0.4-2.2-1.1c-0.5-0.6-0.8-1.5-0.7-2.4
									c0.1-0.4,0.2-0.9,0.4-1.3c0.2-0.4,0.5-0.7,0.8-1c0.6-0.5,1.5-0.7,2.4-0.5s1.6,0.6,2.1,1.3c0.3,0.4,0.4,0.6,0.5,1.1
									c0.1,0.4,0.2,0.8,0.1,1.2c-0.1,0.8-0.5,1.5-1.1,2.1C463,129.6,462.2,129.8,461.3,129.8z"/>
							</g>
							<g id="XMLID_196_">
								<path id="XMLID_197_" class="st16" d="M461.9,140.3c-1.7,0.2-3.3-1.1-3.5-2.9c0-0.4,0-0.9,0.2-1.3s0.4-0.8,0.6-1.1
									c0.5-0.6,1.3-1,2.2-1.1c0.9,0,1.7,0.3,2.2,0.8c0.3,0.3,0.5,0.5,0.7,0.9s0.3,0.7,0.4,1.2
									C464.8,138.6,463.6,140.1,461.9,140.3z"/>
							</g>
							<g id="XMLID_194_">
								
									<radialGradient id="XMLID_6_" cx="260.3968" cy="-83.9213" r="3.1858" gradientTransform="matrix(0.7756 0.6311 0.6311 -0.7756 313.8035 -81.9382)" gradientUnits="userSpaceOnUse">
									<stop  offset="0.4" style="stop-color:#9FDCF8"/>
									<stop  offset="0.5361" style="stop-color:#95D1F0"/>
									<stop  offset="0.777" style="stop-color:#79B3DB"/>
									<stop  offset="0.9626" style="stop-color:#6097C7"/>
									<stop  offset="1" style="stop-color:#E0FFFF"/>
								</radialGradient>
								<path id="XMLID_195_" class="st18" d="M463.2,150.7c-1.7,0.3-3.3-1-3.6-2.7c-0.3-1.7,1-3.4,2.7-3.6c1.7-0.3,3.3,1,3.6,2.7
									S465,150.4,463.2,150.7z"/>
							</g>
							<g id="XMLID_93_">
								<path id="XMLID_193_" class="st16" d="M464.3,161.1c-0.9,0-1.7-0.3-2.2-0.8c-0.3-0.3-0.5-0.5-0.7-0.9s-0.3-0.7-0.4-1.2
									c-0.2-1.7,1.1-3.2,2.9-3.4c0.9-0.1,1.7,0.2,2.3,0.7c0.6,0.5,1.1,1.3,1.2,2.2c0,0.4,0,0.9-0.2,1.3c-0.2,0.4-0.4,0.8-0.6,1.1
									C465.9,160.7,465.2,161.1,464.3,161.1z"/>
							</g>
							<g id="XMLID_190_">
								<path id="XMLID_191_" class="st16" d="M463.6,171.6c-0.9-0.2-1.6-0.6-2.1-1.3c-0.3-0.4-0.4-0.6-0.5-1.1
									c-0.1-0.4-0.2-0.8-0.1-1.2c0.1-0.8,0.5-1.5,1.1-2.1c0.6-0.5,1.4-0.8,2.3-0.8s1.7,0.4,2.2,1.1c0.5,0.6,0.8,1.5,0.7,2.4
									c-0.1,0.4-0.2,0.9-0.4,1.3c-0.2,0.4-0.5,0.7-0.8,1C465.3,171.5,464.5,171.7,463.6,171.6z"/>
							</g>
							<g id="XMLID_188_">
								<path id="XMLID_92_" class="st16" d="M460.2,181.5c-0.8-0.4-1.3-1.1-1.6-1.8c-0.1-0.2-0.1-0.4-0.2-0.5
									c0-0.2-0.1-0.4-0.1-0.5c0-0.4,0.1-0.8,0.2-1.2c0.2-0.4,0.4-0.7,0.6-1c0.3-0.3,0.6-0.5,1-0.6c0.7-0.4,1.6-0.4,2.4-0.2
									c0.8,0.3,1.5,0.8,1.9,1.6c0.2,0.4,0.3,0.8,0.3,1.3s-0.1,0.9-0.3,1.3c-0.2,0.4-0.4,0.8-0.7,1.2c-0.2,0.2-0.4,0.3-0.5,0.4
									c-0.2,0.1-0.4,0.2-0.5,0.3C461.9,182,461.1,181.9,460.2,181.5z"/>
							</g>
							<g id="XMLID_91_">
								<path id="XMLID_187_" class="st16" d="M454.4,190.2c-0.7-0.5-1.1-1.3-1.2-2.2c-0.1-0.4,0-0.8,0.1-1.2
									c0.1-0.2,0.1-0.4,0.2-0.5c0.1-0.2,0.2-0.4,0.3-0.5c0.3-0.4,0.5-0.6,0.9-0.8s0.7-0.4,1.1-0.4c0.4-0.1,0.8-0.1,1.2,0
									c0.4,0.1,0.8,0.2,1.2,0.4c0.4,0.3,0.7,0.5,0.9,0.9c0.3,0.4,0.4,0.7,0.4,1.2c0.1,0.4,0.1,0.8,0,1.3c-0.1,0.4-0.3,0.8-0.5,1.3
									c-0.2,0.2-0.3,0.4-0.4,0.5c-0.2,0.2-0.4,0.3-0.5,0.4c-0.4,0.2-0.8,0.4-1.2,0.4C455.9,191,455.1,190.8,454.4,190.2z"/>
							</g>
							<g id="XMLID_184_">
								<path id="XMLID_90_" class="st16" d="M446.9,197.4c-0.5-0.7-0.7-1.5-0.6-2.3s0.4-1.5,1.1-2.1c0.3-0.3,0.6-0.4,1-0.5
									s0.7-0.2,1.2-0.2c0.8,0,1.6,0.4,2.2,1s0.9,1.4,0.9,2.2c0,0.4-0.1,0.8-0.4,1.3c-0.2,0.4-0.4,0.7-0.8,1.1
									c-0.7,0.6-1.6,0.9-2.4,0.8C448.1,198.6,447.3,198.1,446.9,197.4z"/>
							</g>
							<g id="XMLID_182_">
								<path id="XMLID_183_" class="st16" d="M437.6,202.3c-0.3-0.8-0.3-1.7,0-2.4c0.2-0.4,0.4-0.7,0.6-1s0.5-0.5,0.9-0.7
									s0.7-0.3,1.2-0.3c0.4,0,0.8,0,1.2,0.2c0.7,0.3,1.4,0.8,1.9,1.5c0.4,0.8,0.5,1.6,0.3,2.4c-0.1,0.4-0.4,0.8-0.6,1.1
									c-0.3,0.4-0.6,0.6-1.1,0.8s-0.9,0.3-1.3,0.4c-0.4,0-0.9-0.1-1.3-0.2C438.5,203.8,437.9,203.2,437.6,202.3z"/>
							</g>
							<g id="XMLID_180_">
								<path id="XMLID_181_" class="st16" d="M427.4,204.9c-0.1-0.9,0.1-1.7,0.5-2.3c0.3-0.4,0.5-0.6,0.8-0.8
									c0.4-0.2,0.7-0.4,1.1-0.4c0.8-0.2,1.6,0,2.2,0.4s1.3,1.1,1.4,2c0.3,0.8,0.1,1.7-0.4,2.4c-0.4,0.7-1.2,1.3-2.2,1.4
									c-0.4,0.1-0.9,0.1-1.3,0s-0.8-0.3-1.2-0.5C428,206.5,427.5,205.7,427.4,204.9z"/>
							</g>
							<g id="XMLID_178_">
								<path id="XMLID_179_" class="st16" d="M416.9,205.9c-0.1-1.8,1.3-3.2,3-3.4c0.9-0.1,1.7,0.3,2.2,0.7
									c0.6,0.5,1.1,1.3,1.2,2.2s-0.2,1.7-0.7,2.3s-1.3,1.1-2.2,1.1C418.6,208.9,417.1,207.6,416.9,205.9z"/>
							</g>
							<g id="XMLID_176_">
								<path id="XMLID_177_" class="st16" d="M406.5,206.6c-0.1-0.9,0.2-1.7,0.7-2.3s1.3-1.1,2.2-1.2c1.8-0.2,3.3,1.2,3.4,3
									s-1.3,3.2-3,3.4c-0.9,0.1-1.6-0.2-2.2-0.7C407.1,208.2,406.6,207.5,406.5,206.6z"/>
							</g>
							<g id="XMLID_174_">
								<path id="XMLID_175_" class="st16" d="M396.2,208.5c-0.3-0.8-0.1-1.7,0.4-2.4c0.4-0.7,1.2-1.3,2.1-1.4
									c0.4-0.1,0.9-0.1,1.3,0s0.8,0.3,1.2,0.4c0.7,0.4,1.2,1.2,1.3,2.1s-0.1,1.7-0.5,2.3c-0.3,0.4-0.5,0.6-0.8,0.8
									c-0.4,0.3-0.7,0.4-1.1,0.4c-0.8,0.2-1.6,0-2.3-0.4C397,210,396.4,209.3,396.2,208.5z"/>
							</g>
							<g id="XMLID_170_">
								<path id="XMLID_173_" class="st16" d="M387,212.5c-0.4-0.7-0.5-1.6-0.3-2.4c0.3-0.8,0.8-1.5,1.7-2c0.4-0.2,0.9-0.4,1.3-0.4
									c0.2,0,0.4,0,0.6,0s0.4,0.1,0.6,0.2c0.8,0.3,1.4,0.9,1.7,1.7c0.4,0.8,0.3,1.7,0,2.4c-0.1,0.2-0.2,0.4-0.3,0.5
									c-0.1,0.2-0.2,0.4-0.4,0.4c-0.3,0.3-0.5,0.5-0.9,0.7c-0.7,0.4-1.5,0.4-2.2,0.2C388.2,213.8,387.5,213.2,387,212.5z"/>
							</g>
							<g id="XMLID_166_">
								<path id="XMLID_169_" class="st16" d="M378.4,219.1c-0.6-0.6-1-1.4-0.9-2.2c0-0.4,0.1-0.8,0.3-1.3c0.1-0.2,0.2-0.4,0.4-0.5
									c0.2-0.2,0.3-0.4,0.4-0.5c0.7-0.6,1.6-0.9,2.4-0.8c0.8,0.1,1.6,0.4,2.2,1.2s0.7,1.5,0.6,2.3s-0.4,1.5-1,2.1
									c-0.2,0.1-0.4,0.3-0.4,0.4c-0.2,0.1-0.4,0.2-0.5,0.3c-0.4,0.1-0.7,0.2-1.2,0.2C379.8,220,379,219.7,378.4,219.1z"/>
							</g>
						</g>
						<g id="XMLID_9_">
							<g id="XMLID_162_">
								<path id="XMLID_163_" class="st15" d="M512.5,55.9c-0.8-0.4-1.3-1.1-1.6-1.9s-0.2-1.7,0.4-2.5c0.1-0.2,0.3-0.4,0.4-0.5
									c0.2-0.2,0.4-0.4,0.5-0.4c0.4-0.3,0.7-0.4,1.2-0.5c0.8-0.2,1.7,0,2.4,0.4c0.7,0.5,1.2,1.3,1.3,2c0.1,0.4,0.1,0.8,0.1,1.2
									c0,0.2-0.1,0.4-0.2,0.5c-0.1,0.2-0.2,0.4-0.3,0.5c-0.4,0.7-1.1,1.2-1.8,1.4C514.2,56.3,513.3,56.3,512.5,55.9z"/>
							</g>
							<g id="XMLID_160_">
								<path id="XMLID_161_" class="st15" d="M509.4,65.9c-0.9-0.2-1.6-0.6-2.1-1.3c-0.1-0.2-0.2-0.4-0.3-0.5
									c-0.1-0.2-0.1-0.4-0.2-0.6c-0.1-0.4-0.1-0.9,0.1-1.3c0.3-0.9,0.8-1.6,1.5-2.1s1.6-0.4,2.4-0.2c0.8,0.3,1.4,0.9,1.9,1.5
									c0.4,0.7,0.5,1.5,0.4,2.2c-0.1,0.4-0.3,0.7-0.5,1.1c-0.1,0.2-0.3,0.3-0.4,0.4c-0.2,0.1-0.3,0.3-0.4,0.4
									C511.1,65.8,510.3,66,509.4,65.9z"/>
							</g>
							<g id="XMLID_153_">
								<path id="XMLID_159_" class="st15" d="M508.9,76.3c-0.9,0-1.7-0.3-2.2-0.9c-0.3-0.3-0.5-0.6-0.7-1.1
									c-0.2-0.4-0.3-0.8-0.3-1.3c0-0.9,0.4-1.8,1-2.3s1.4-0.9,2.3-0.8s1.6,0.4,2.2,1.1c0.5,0.5,0.9,1.3,0.9,2.2
									c0,0.4-0.1,0.8-0.3,1.2c-0.2,0.4-0.4,0.7-0.6,1C510.6,75.8,509.7,76.3,508.9,76.3z"/>
							</g>
							<g id="XMLID_148_">
								<path id="XMLID_149_" class="st15" d="M509.9,86.7c-1.7,0.3-3.3-1-3.6-2.8c-0.1-0.9,0.2-1.7,0.6-2.4
									c0.5-0.6,1.3-1.1,2.2-1.2s1.7,0.2,2.3,0.7s1.1,1.3,1.2,2.1C512.9,84.9,511.7,86.5,509.9,86.7z"/>
							</g>
							<g id="XMLID_118_">
								<path id="XMLID_119_" class="st15" d="M511.4,97.1c-0.9,0.1-1.7-0.2-2.3-0.6c-0.6-0.5-1.1-1.3-1.2-2.1
									c-0.3-1.7,1-3.3,2.7-3.6c1.7-0.3,3.3,1,3.6,2.8c0.1,0.9-0.2,1.7-0.6,2.4C513,96.6,512.3,97,511.4,97.1z"/>
							</g>
							<g id="XMLID_113_">
								<path id="XMLID_114_" class="st15" d="M511.7,107.6c-0.9-0.1-1.6-0.4-2.2-1c-0.5-0.5-0.9-1.3-0.9-2.2c0-0.4,0.1-0.8,0.3-1.2
									s0.4-0.7,0.6-1c0.5-0.5,1.3-1,2.2-1.1c0.9-0.1,1.7,0.3,2.3,0.8c0.3,0.3,0.5,0.6,0.7,1s0.3,0.8,0.3,1.3c0,0.9-0.4,1.8-1,2.3
									C513.4,107.4,512.6,107.6,511.7,107.6z"/>
							</g>
							<g id="XMLID_106_">
								<path id="XMLID_107_" class="st15" d="M509.8,117.9c-0.8-0.3-1.5-0.9-1.9-1.5c-0.2-0.4-0.4-0.7-0.4-1.1
									c-0.1-0.4-0.1-0.8,0-1.2s0.3-0.7,0.4-1.1c0.2-0.4,0.5-0.6,0.8-0.8c0.6-0.4,1.5-0.6,2.3-0.5c0.9,0.1,1.6,0.6,2.1,1.3
									c0.3,0.4,0.4,0.7,0.4,1.2c0.1,0.4,0.1,0.9,0,1.3s-0.4,0.9-0.5,1.3c-0.3,0.4-0.6,0.6-1,0.9
									C511.5,118.1,510.7,118.2,509.8,117.9z"/>
							</g>
							<g id="XMLID_89_">
								<path id="XMLID_101_" class="st15" d="M505.3,127.3c-0.7-0.4-1.2-1.3-1.4-2c-0.1-0.4-0.1-0.8-0.1-1.2s0.2-0.8,0.4-1.1
									c0.4-0.7,1.1-1.2,1.8-1.4c0.7-0.3,1.6-0.3,2.4,0.1s1.3,1,1.6,1.8s0.2,1.7-0.3,2.6c-0.3,0.4-0.5,0.7-0.9,1s-0.7,0.4-1.2,0.5
									C506.9,128,506.1,127.9,505.3,127.3z"/>
							</g>
							<g id="XMLID_41_">
								<path id="XMLID_44_" class="st15" d="M498.6,135.4c-0.3-0.4-0.5-0.7-0.7-1.1c-0.2-0.4-0.3-0.8-0.3-1.2s0-0.8,0.2-1.2
									s0.4-0.7,0.6-1c0.2-0.2,0.3-0.3,0.4-0.4c0.2-0.1,0.4-0.2,0.5-0.3c0.4-0.2,0.7-0.3,1.2-0.3c0.8-0.1,1.6,0.2,2.3,0.7
									s1.1,1.3,1.2,2.2c0,0.4,0,0.8-0.2,1.3c-0.1,0.2-0.2,0.4-0.3,0.6c-0.1,0.2-0.3,0.4-0.4,0.5c-0.4,0.4-0.7,0.6-1.1,0.8
									s-0.8,0.3-1.3,0.3c-0.4,0-0.8-0.1-1.3-0.2C499.3,135.9,499,135.8,498.6,135.4z"/>
							</g>
							<g id="XMLID_39_">
								<path id="XMLID_40_" class="st15" d="M490.3,141.6c-0.4-0.8-0.4-1.6-0.3-2.4c0.1-0.4,0.3-0.7,0.4-1.1
									c0.2-0.4,0.4-0.6,0.8-0.8s0.7-0.4,1.1-0.4c0.2,0,0.4-0.1,0.5-0.1c0.2,0,0.4,0,0.5,0.1c0.8,0.1,1.5,0.5,2.1,1.3
									c0.5,0.7,0.7,1.5,0.6,2.3c0,0.2-0.1,0.4-0.2,0.6s-0.2,0.4-0.3,0.5c-0.3,0.4-0.5,0.7-1,1c-0.4,0.3-0.8,0.4-1.3,0.5
									c-0.4,0.1-0.9,0.1-1.3,0C491.3,143,490.6,142.4,490.3,141.6z"/>
							</g>
							<g id="XMLID_36_">
								<path id="XMLID_37_" class="st15" d="M480.5,145.4c-0.2-0.9-0.1-1.7,0.4-2.4c0.4-0.7,1-1.3,1.8-1.5c0.4-0.1,0.8-0.2,1.2-0.1
									c0.4,0,0.8,0.1,1.2,0.3c0.7,0.4,1.3,0.9,1.7,1.8c0.4,0.8,0.3,1.7-0.1,2.4c-0.2,0.4-0.4,0.7-0.8,1s-0.7,0.5-1.2,0.6
									c-0.9,0.3-1.8,0.2-2.5-0.2C481.2,146.9,480.6,146.2,480.5,145.4z"/>
							</g>
							<g id="XMLID_34_">
								<path id="XMLID_35_" class="st15" d="M470.1,147c-0.2-1.8,1.1-3.3,2.8-3.5c0.4-0.1,0.8,0,1.3,0.1c0.4,0.1,0.7,0.3,1.1,0.5
									c0.6,0.4,1.1,1.2,1.3,2.1c0.2,0.9-0.1,1.7-0.5,2.3c-0.3,0.4-0.5,0.6-0.9,0.8s-0.8,0.4-1.3,0.4
									C471.8,150.1,470.2,148.8,470.1,147z"/>
							</g>
							<g id="XMLID_32_">
								<path id="XMLID_33_" class="st15" d="M459.6,147.7c-0.1-1.8,1.3-3.2,3-3.4c1.8-0.1,3.2,1.3,3.4,3c0.1,1.8-1.3,3.2-3,3.4
									C461.2,150.9,459.7,149.5,459.6,147.7z"/>
							</g>
							<g id="XMLID_30_">
								<path id="XMLID_31_" class="st15" d="M449.2,148.9c-0.2-0.9,0.1-1.7,0.5-2.3c0.3-0.4,0.5-0.6,0.9-0.8s0.8-0.4,1.3-0.4
									c0.9-0.1,1.8,0.2,2.4,0.6c0.6,0.5,1.1,1.3,1.2,2.2c0.2,1.8-1.1,3.3-2.8,3.5c-0.4,0.1-0.8,0-1.3-0.1
									c-0.4-0.1-0.7-0.3-1.1-0.5C449.8,150.4,449.4,149.7,449.2,148.9z"/>
							</g>
							<g id="XMLID_26_">
								<path id="XMLID_29_" class="st15" d="M439.1,151.7c-0.4-0.8-0.3-1.7,0.1-2.4c0.2-0.4,0.4-0.7,0.8-1s0.7-0.5,1.2-0.6
									c0.9-0.3,1.8-0.2,2.5,0.2s1.3,1.1,1.5,2s0.1,1.7-0.4,2.4c-0.4,0.7-1,1.3-1.8,1.5c-0.4,0.1-0.8,0.2-1.2,0.1
									c-0.4,0-0.8-0.2-1.2-0.3C440,153.1,439.4,152.5,439.1,151.7z"/>
							</g>
							<g id="XMLID_23_">
								<path id="XMLID_24_" class="st15" d="M430.1,157c-0.5-0.7-0.7-1.5-0.6-2.3c0-0.2,0.1-0.4,0.2-0.6c0.1-0.2,0.2-0.4,0.3-0.5
									c0.3-0.4,0.5-0.7,1-1c0.4-0.3,0.8-0.4,1.3-0.5c0.4-0.1,0.9-0.1,1.3,0c0.8,0.2,1.5,0.7,2,1.5s0.4,1.6,0.4,2.4
									c-0.1,0.4-0.3,0.7-0.4,1.1c-0.2,0.4-0.4,0.6-0.8,0.8s-0.7,0.4-1.1,0.4c-0.2,0-0.4,0.1-0.5,0.1s-0.4,0-0.5-0.1
									C431.4,158.1,430.6,157.6,430.1,157z"/>
							</g>
							<g id="XMLID_21_">
								<path id="XMLID_22_" class="st15" d="M422.7,164.4c-0.7-0.5-1.1-1.3-1.2-2.2c0-0.4,0-0.8,0.2-1.3c0.1-0.2,0.2-0.4,0.3-0.6
									c0.1-0.2,0.3-0.4,0.4-0.5c0.4-0.4,0.7-0.6,1.1-0.8s0.8-0.3,1.3-0.3s0.8,0.1,1.3,0.2c0.4,0.2,0.7,0.4,1.1,0.7
									c0.3,0.4,0.5,0.7,0.7,1.1c0.2,0.4,0.3,0.8,0.3,1.2s0,0.8-0.2,1.2c-0.1,0.4-0.4,0.7-0.6,1c-0.2,0.2-0.3,0.3-0.4,0.4
									c-0.2,0.1-0.4,0.2-0.5,0.3c-0.4,0.2-0.7,0.3-1.2,0.3C424.2,165.1,423.4,165,422.7,164.4z"/>
							</g>
							<g id="XMLID_43_">
								<path id="XMLID_19_" class="st15" d="M417.2,173.3c-0.8-0.4-1.3-1-1.6-1.8s-0.2-1.7,0.3-2.6c0.3-0.4,0.5-0.7,0.9-1
									s0.7-0.4,1.2-0.5c0.8-0.2,1.7-0.1,2.4,0.4c0.7,0.4,1.2,1.3,1.4,2c0.1,0.4,0.1,0.8,0.1,1.2s-0.2,0.8-0.4,1.1
									c-0.4,0.7-1.1,1.2-1.8,1.4C418.9,173.7,418,173.7,417.2,173.3z"/>
							</g>
							<g id="XMLID_28_">
								<path id="XMLID_38_" class="st15" d="M414.2,183.4c-0.9-0.1-1.6-0.6-2.1-1.3c-0.3-0.4-0.4-0.7-0.4-1.2
									c-0.1-0.4-0.1-0.9,0-1.3c0.1-0.4,0.4-0.9,0.5-1.3c0.3-0.4,0.6-0.6,1-0.9c0.7-0.4,1.6-0.5,2.4-0.3c0.8,0.3,1.5,0.9,1.9,1.5
									c0.2,0.4,0.4,0.7,0.4,1.1c0.1,0.4,0.1,0.8,0,1.2s-0.3,0.7-0.4,1.1c-0.2,0.4-0.5,0.6-0.8,0.8
									C415.9,183.3,415.1,183.5,414.2,183.4z"/>
							</g>
							<g id="XMLID_25_">
								<path id="XMLID_27_" class="st15" d="M413.9,193.8c-0.9,0.1-1.7-0.3-2.3-0.8c-0.3-0.3-0.5-0.6-0.7-1s-0.3-0.8-0.3-1.3
									c0-0.9,0.4-1.8,1-2.3s1.4-0.9,2.3-0.9c0.9,0.1,1.6,0.4,2.2,1c0.5,0.5,0.9,1.3,0.9,2.2c0,0.4-0.1,0.8-0.3,1.2
									c-0.2,0.4-0.4,0.7-0.6,1C415.5,193.4,414.8,193.8,413.9,193.8z"/>
							</g>
							<g id="XMLID_18_">
								<path id="XMLID_20_" class="st15" d="M415,204.2c-1.7,0.3-3.3-1-3.6-2.8c-0.1-0.9,0.2-1.7,0.6-2.4c0.5-0.6,1.3-1.1,2.2-1.2
									c0.9-0.1,1.7,0.2,2.3,0.6c0.6,0.5,1.1,1.3,1.2,2.1C418,202.4,416.8,204,415,204.2z"/>
							</g>
							<g id="XMLID_16_">
								<path id="XMLID_17_" class="st15" d="M416.4,214.7c-0.9,0.1-1.7-0.2-2.3-0.7c-0.6-0.5-1.1-1.3-1.2-2.1
									c-0.2-1.7,1-3.3,2.7-3.6s3.3,1,3.6,2.8c0.1,0.9-0.2,1.7-0.6,2.4C418,214.1,417.3,214.6,416.4,214.7z"/>
							</g>
							<g id="XMLID_14_">
								<path id="XMLID_15_" class="st15" d="M416.7,225.2c-0.9-0.1-1.6-0.4-2.2-1.1c-0.5-0.5-0.9-1.3-0.9-2.2
									c0-0.4,0.1-0.8,0.3-1.2c0.2-0.4,0.4-0.7,0.6-1c0.5-0.5,1.3-1,2.2-1s1.7,0.3,2.2,0.9c0.3,0.3,0.5,0.6,0.7,1.1
									c0.2,0.4,0.3,0.8,0.3,1.3c0,0.9-0.4,1.8-1,2.3C418.4,224.9,417.6,225.2,416.7,225.2z"/>
							</g>
							<g id="XMLID_12_">
								<path id="XMLID_13_" class="st15" d="M414.6,235.4c-0.8-0.3-1.4-0.9-1.9-1.5c-0.4-0.7-0.5-1.5-0.4-2.2
									c0.1-0.4,0.3-0.7,0.5-1.1c0.1-0.2,0.3-0.3,0.4-0.4c0.2-0.1,0.3-0.3,0.4-0.4c0.6-0.4,1.5-0.6,2.4-0.4s1.6,0.6,2.1,1.3
									c0.1,0.2,0.2,0.4,0.3,0.5c0.1,0.2,0.1,0.4,0.2,0.6c0.1,0.4,0.1,0.9-0.1,1.3c-0.3,0.9-0.8,1.6-1.5,2.1
									C416.3,235.6,415.4,235.7,414.6,235.4z"/>
							</g>
							<g id="XMLID_10_">
								<path id="XMLID_11_" class="st15" d="M409.8,244.8c-0.7-0.5-1.2-1.3-1.3-2c-0.1-0.4-0.1-0.8-0.1-1.2c0-0.2,0.1-0.4,0.2-0.5
									c0.1-0.2,0.2-0.4,0.3-0.5c0.4-0.7,1.1-1.2,1.8-1.4c0.7-0.2,1.6-0.2,2.4,0.2s1.3,1.1,1.6,1.9c0.3,0.8,0.2,1.7-0.4,2.5
									c-0.1,0.2-0.3,0.4-0.4,0.5c-0.2,0.2-0.4,0.4-0.5,0.4c-0.4,0.3-0.7,0.4-1.2,0.5C411.5,245.4,410.6,245.2,409.8,244.8z"/>
							</g>
						</g>
					</g>
				</g>
			</g>
		</g>
	</g>
</g>
<circle class="st19" cx="57.5" cy="378.5" r="56.4"/>
<g>
	<g>
		<g>
			<g>
				<g>
					<defs>
						<rect id="SVGID_3_" x="220.2" y="185.5" width="79.2" height="152.4"/>
					</defs>
					<clipPath id="SVGID_4_">
						<use xlink:href="#SVGID_3_"  style="overflow:visible;"/>
					</clipPath>
					<g class="st20">
						<g>
							<g>
								<g id="Artwork_1">
									<g>
										<defs>
											<rect id="SVGID_5_" x="220.2" y="185.5" width="79.2" height="152.4"/>
										</defs>
										<clipPath id="SVGID_6_">
											<use xlink:href="#SVGID_5_"  style="overflow:visible;"/>
										</clipPath>
										<g class="st21">
											<path class="st22" d="M296.1,245.5l-27,3.4l19.2-54.4c2-5.5,1.9-7.2,1.2-8.3c-0.4-0.5-0.9-0.8-1.5-0.9
												c-0.5,0-2.2,0-6.5,5.8l-60.9,82.2c-0.9,1.5-0.4,3.4,1.1,4.3c0.5,0.3,1.1,0.4,1.6,0.4l24-2.2l-22.5,57.4
												c-0.6,1.6,0.1,3.4,1.7,4.1c0.4,0.1,0.7,0.2,1.2,0.2c1,0,2-0.4,2.6-1.2l68.2-86.1c1.1-1.3,0.8-3.3-0.5-4.4
												C297.4,245.8,296.8,245.6,296.1,245.5"/>
											<path class="st23" d="M299,247.3c-0.5-1.1-1.6-1.8-2.9-1.8l-27,3.4l19.2-54.4c2-5.5,1.9-7.2,1.2-8.3
												c-0.4-0.5-0.9-0.8-1.5-0.9l-41.1,76.3l25.9-5.1c2.4-0.5,4.8,1,5.2,3.4c0.3,1.2,0,2.4-0.7,3.4l-51.4,73.9l0.3,0.2
												c1.3,0.8,3.1,0.4,4-0.7l68.3-86.1C299.3,249.7,299.5,248.3,299,247.3"/>
										</g>
									</g>
								</g>
							</g>
						</g>
						<g>
							<defs>
								<rect id="SVGID_7_" x="220.2" y="185.5" width="79.2" height="152.4"/>
							</defs>
							<clipPath id="SVGID_8_">
								<use xlink:href="#SVGID_7_"  style="overflow:visible;"/>
							</clipPath>
							<g class="st24">
								<path id="XMLID_557_" class="st25" d="M62.8,353.7c0,0-16.4,4.8-23.9,18.7c-7.5,13.9-6.5,31.5-6.5,31.5l16.6,2.3
									c0,0-9.4-14.2-1.3-30.9c8.2-16.7,18.2-14.5,18.2-14.5L62.8,353.7z"/>
								<g id="XMLID_372_">
									<path id="XMLID_556_" class="st26" d="M58.8,377.6c0.2,0.8,0.9,1.3,1.7,1.2l12.3-2.3c0.8-0.2,1.3-0.9,1.2-1.7l0,0
										c-0.2-0.8-0.9-1.3-1.7-1.2L60,375.9C59.2,376,58.7,376.7,58.8,377.6L58.8,377.6z"/>
									<path id="XMLID_555_" class="st26" d="M51.6,340c0.2,0.8,0.9,1.3,1.7,1.2l12.3-2.3c0.8-0.2,1.3-0.9,1.2-1.7l0,0
										c-0.2-0.8-0.9-1.3-1.7-1.2l-12.3,2.3C52,338.4,51.4,339.2,51.6,340L51.6,340z"/>
									<polygon id="XMLID_554_" class="st25" points="65.1,335.9 65.3,329.1 50.1,332.1 52.8,338.2 									"/>
									
										<rect id="XMLID_553_" x="56.7" y="339.7" transform="matrix(0.9819 -0.1895 0.1895 0.9819 -66.5813 18.3658)" class="st25" width="12.1" height="35.3"/>
								</g>
								<path id="XMLID_371_" class="st26" d="M48.5,357.4c-0.7,4.1,2.2,8.1,6.3,8.7c4.1,0.7,8.1-2.2,8.7-6.3
									c0.7-4.1-2.2-8.1-6.3-8.7C53.1,350.4,49.2,353.3,48.5,357.4z"/>
								<path id="XMLID_370_" class="st25" d="M55.9,401.3c0,1.4,1.2,2.6,2.6,2.6h23.1c1.4,0,2.6-1.2,2.6-2.6l0,0
									c0-1.4-1.2-2.6-2.6-2.6H58.5C57.1,398.7,55.9,399.8,55.9,401.3L55.9,401.3z"/>
								<g id="XMLID_5_">
									<g id="XMLID_366_">
										<path id="XMLID_367_" class="st26" d="M21.3,413.4c0-5.3,3.7-9.5,8.2-9.5h54.8c4.5,0,8.2,4.3,8.2,9.5c0,0.2,0,0.3,0,0.4
											H21.3C21.3,413.8,21.3,413.6,21.3,413.4z"/>
									</g>
									<g id="XMLID_364_">
										<path class="st27" d="M92.6,413.9v2.9c0,0.5-0.4,1.1-1.1,1.1h-6.6c-0.5,0-1.1-0.4-1.1-1.1v-2.9H92.6z"/>
									</g>
									<g id="XMLID_362_">
										<path class="st27" d="M30.1,416.7c0,0.5-0.4,1.1-1.1,1.1h-6.6c-0.5,0-1.1-0.4-1.1-1.1v-2.9h8.8
											C30.1,413.9,30.1,416.7,30.1,416.7z"/>
									</g>
								</g>
							</g>
						</g>
					</g>
				</g>
			</g>
		</g>
	</g>
</g>
<g>
	<g id="_Group_2">
		<path id="_Path_" class="st2" d="M256.4,64.4h14.9c5.6,0,10.1-4.5,10.1-10.1s-4.5-10.1-10.1-10.1h-4.7l-10.2-8.8h14.9
			c10.4,0,18.9,8.5,18.9,18.9c0,7.7-4.7,14.6-11.8,17.5L290.3,82h-13.5L256.4,64.4z"/>
	</g>
	<g id="_Group_3">
		<path id="_Path_2" class="st2" d="M263.7,53.1h-14.9c-5.6,0-10.1,4.5-10.1,10.1c0,5.5,4.5,10,10.1,10.1h4.7l10.2,8.8h-14.9
			c-10.4,0-18.9-8.5-18.9-18.9c0-7.7,4.7-14.6,11.8-17.5l-11.8-10.2h13.5L263.7,53.1z"/>
	</g>
</g>
<g>
	<polygon class="st28" points="463.4,359.7 463.4,345.1 449,365.3 452.9,377.8 	"/>
	<polygon class="st28" points="448.7,366.4 441.5,397.7 452.5,378.5 	"/>
	<polygon class="st28" points="474.5,377.9 478.5,365.3 463.9,345.1 463.9,359.7 	"/>
	<polygon class="st28" points="452.8,379.4 441.4,399 459,399 	"/>
	<polygon class="st28" points="459.6,399 467.8,399 474.3,378.7 463.6,360.3 453.2,378.5 	"/>
	<polygon class="st28" points="474.7,379.4 468.4,399 486.1,399 477.8,384.8 	"/>
	<polygon class="st28" points="474.9,378.7 478.3,384.4 486.1,397.9 478.8,366.4 	"/>
	<path class="st29" d="M463.6,343.7l-15.2,21.5l-8.1,34.4l23.3,13.7l23.4-13.7l-7.9-34.4L463.6,343.7z M478.5,365.3l-4,12.6
		l-10.6-18.3l0-14.6L478.5,365.3z M463.6,360.3l10.6,18.4l-6.5,20.4l-8.2,0l-6.4-20.5L463.6,360.3z M463.4,345.1l0,14.6l-10.4,18.1
		l-3.9-12.4L463.4,345.1z M448.7,366.4l3.8,12.1l-11,19.2L448.7,366.4z M452.8,379.4L459,399l-17.6,0L452.8,379.4z M441.7,399.6
		l17.5,0l4,12.8L441.7,399.6z M459.9,399.6l7.7,0l-3.9,12.5L459.9,399.6z M464.1,412.4l4.1-12.8l17.6,0L464.1,412.4z M468.4,399
		l6.3-19.7l3.1,5.4l8.3,14.3L468.4,399z M478.3,384.4l-3.3-5.8l3.9-12.3l7.3,31.5L478.3,384.4z"/>
</g>
<g>
	<path id="XMLID_451_" class="st25" d="M62.7,355.2c0,0-15,4.4-21.9,17.1c-6.8,12.8-5.9,28.9-5.9,28.9l15.2,2.2c0,0-8.6-13-1.2-28.2
		c7.5-15.3,16.7-13.2,16.7-13.2L62.7,355.2z"/>
	<g id="XMLID_446_">
		<path id="XMLID_450_" class="st26" d="M59,377.1c0.1,0.7,0.9,1.2,1.6,1.1l11.3-2.2c0.7-0.1,1.2-0.9,1.1-1.6l0,0
			c-0.1-0.7-0.9-1.2-1.6-1.1l-11.3,2.2C59.4,375.6,58.9,376.3,59,377.1L59,377.1z"/>
		<path id="XMLID_449_" class="st26" d="M52.4,342.7c0.1,0.7,0.9,1.2,1.6,1.1l11.3-2.2c0.7-0.1,1.2-0.9,1.1-1.6l0,0
			c-0.1-0.7-0.9-1.2-1.6-1.1l-11.3,2.2C52.7,341.3,52.3,342,52.4,342.7L52.4,342.7z"/>
		<polygon id="XMLID_448_" class="st25" points="64.7,339 64.9,332.8 51,335.5 53.5,341.1 		"/>
		
			<rect id="XMLID_447_" x="57.1" y="342.4" transform="matrix(0.9819 -0.1895 0.1895 0.9819 -66.8244 18.381)" class="st25" width="11.1" height="32.3"/>
	</g>
	<path id="XMLID_445_" class="st26" d="M49.6,358.6c-0.6,3.8,1.9,7.4,5.7,8c3.8,0.6,7.4-1.9,8-5.7c0.6-3.8-1.9-7.4-5.7-8
		C53.8,352.3,50.2,354.9,49.6,358.6z"/>
	<path id="XMLID_444_" class="st25" d="M56.4,398.7c0,1.3,1.1,2.4,2.4,2.4h21.1c1.3,0,2.4-1.1,2.4-2.4l0,0c0-1.3-1.1-2.4-2.4-2.4
		H58.7C57.4,396.3,56.4,397.4,56.4,398.7L56.4,398.7z"/>
	<g id="XMLID_387_">
		<g id="XMLID_440_">
			<path id="XMLID_441_" class="st26" d="M24.7,409.9c0-4.8,3.4-8.7,7.5-8.7h50.1c4.1,0,7.5,3.9,7.5,8.7c0,0.1,0,0.3,0,0.4H24.8
				C24.7,410.1,24.7,410,24.7,409.9z"/>
		</g>
		<g id="XMLID_437_">
			<path class="st27" d="M89.8,410.3v2.7c0,0.5-0.4,1-1,1h-6.1c-0.5,0-1-0.4-1-1v-2.7H89.8z"/>
		</g>
		<g id="XMLID_434_">
			<path class="st27" d="M32.8,412.9c0,0.5-0.4,1-1,1h-6.1c-0.5,0-1-0.4-1-1v-2.7h8V412.9z"/>
		</g>
	</g>
</g>
</svg>
