<?xml version="1.0" encoding="utf-8"?>
<!-- Generator: Adobe Illustrator 22.0.0, SVG Export Plug-In . SVG Version: 6.00 Build 0)  -->
<svg version="1.1" id="Layer_1" xmlns="http://www.w3.org/2000/svg" xmlns:xlink="http://www.w3.org/1999/xlink" x="0px" y="0px"
	 viewBox="0 0 600 600" style="enable-background:new 0 0 600 600;" xml:space="preserve">
<style type="text/css">
	.st0{opacity:0.15;}
	.st1{fill:#101011;}
	.st2{fill:#B9C1D9;}
	.st3{font-family:'Omnes_GirlScouts-Medium';}
	.st4{font-size:13.808px;}
	.st5{font-size:7.4351px;}
	.st6{font-size:21.2431px;}
	.st7{font-size:10.6216px;}
	.st8{fill:#E4E9F3;}
	.st9{fill:#63ADEA;}
	.st10{fill:#FFFFFF;}
	.st11{clip-path:url(#XMLID_10_);}
	.st12{fill:none;stroke:#FFFFFF;stroke-width:3.5294;stroke-linecap:round;stroke-linejoin:round;stroke-miterlimit:10;}
	.st13{opacity:0.3;fill:#FFFFFF;}
	.st14{fill:#3D3D41;}
	.st15{fill:#75CEA8;}
	
		.st16{opacity:0.7;fill:none;stroke:#659BF8;stroke-width:5.7553;stroke-linecap:round;stroke-linejoin:round;stroke-miterlimit:10;stroke-dasharray:10.0717;}
	
		.st17{opacity:0.7;fill:none;stroke:#659BF8;stroke-width:2.8776;stroke-linecap:round;stroke-linejoin:round;stroke-miterlimit:10;stroke-dasharray:5.7553;}
	.st18{fill:#86B8F1;}
	.st19{fill:#639BF3;}
	.st20{opacity:0.1;fill:#FFFFFF;}
	.st21{opacity:0.2;fill:#3B3B3B;}
	.st22{fill:#A7EDC1;}
	.st23{fill:#87E3A7;}
	.st24{fill:#F4D86E;}
	.st25{fill:#E6B244;}
	.st26{fill:#D09D2D;}
	.st27{fill:#575F66;}
	.st28{fill:#404952;}
	.st29{fill:#F2F7FC;}
	.st30{fill:none;stroke:#3D4E86;stroke-width:0.5092;stroke-miterlimit:10;}
	.st31{fill:#6CB7EC;stroke:#3D4E86;stroke-width:0.5092;stroke-miterlimit:10;}
	.st32{fill:#D6DCEB;}
	.st33{clip-path:url(#SVGID_2_);}
	.st34{clip-path:url(#SVGID_4_);}
	.st35{fill:#FFB74D;}
	.st36{fill:#FECF37;}
	.st37{clip-path:url(#SVGID_6_);}
	.st38{clip-path:url(#SVGID_8_);}
	.st39{clip-path:url(#SVGID_10_);}
	.st40{clip-path:url(#SVGID_12_);}
</style>
<g>
	<g class="st0">
		<path class="st1" d="M361.4,457.1L158.2,338.4c-6.4-3.8-16.9-3.8-23.4-0.1l-87.7,50c-6.5,3.7-6.6,9.8,1.7,15.4l203.1,118.7
			c4.6,1.9,15.1,1.9,21.6-1.8l87.7-50C367.7,466.9,367.8,460.9,361.4,457.1z"/>
	</g>
	<g id="XMLID_187_">
		<g>
			<text id="XMLID_121_" transform="matrix(0.8795 -0.4974 0.8615 0.5078 105.3429 389.1374)" class="st2 st3 st4">Boid Power</text>
			<text id="XMLID_120_" transform="matrix(0.8795 -0.4974 0.8615 0.5078 201.7182 429.749)" class="st2 st3 st4">Social</text>
			<g id="XMLID_117_">
				<text id="XMLID_119_" transform="matrix(0.8795 -0.4974 0.8615 0.5078 168.2124 410.6516)" class="st2 st3 st5">Devices:</text>
				<text id="XMLID_118_" transform="matrix(0.8795 -0.4974 0.8615 0.5078 194.4311 395.8238)" class="st2 st3 st5">3</text>
			</g>
			<text id="XMLID_116_" transform="matrix(0.8795 -0.4974 0.8615 0.5078 193.8061 458.0011)" class="st2 st3 st5">Users invited:</text>
			<text id="XMLID_115_" transform="matrix(0.8795 -0.4974 0.8615 0.5078 234.4772 434.9999)" class="st2 st3 st5">24</text>
			<text id="XMLID_114_" transform="matrix(0.8795 -0.4974 0.8615 0.5078 201.8531 462.9628)" class="st2 st3 st5">Power from invited users:</text>
			<text id="XMLID_113_" transform="matrix(0.8795 -0.4974 0.8615 0.5078 276.3434 420.8354)" class="st2 st3 st5">40</text>
			<g id="XMLID_110_">
				<text id="XMLID_112_" transform="matrix(0.8795 -0.4974 0.8615 0.5078 198.0536 403.2867)" class="st2 st3 st5">24</text>
				<text id="XMLID_111_" transform="matrix(0.8795 -0.4974 0.8615 0.5078 177.3606 414.9894)" class="st2 st3 st5">Social:</text>
			</g>
			<text id="XMLID_109_" transform="matrix(0.8795 -0.4974 0.8615 0.5078 144.1605 399.9905)" class="st2 st3 st6">96</text>
			<text id="XMLID_108_" transform="matrix(0.8795 -0.4974 0.8615 0.5078 237.6074 467.4457)" class="st2 st3 st7">Get invited link</text>
		</g>
	</g>
	<g>
		<path class="st2" d="M361.4,440.3L158.2,321.6c-6.4-3.8-16.9-3.8-23.4-0.1l-87.7,50c-6.5,3.7-6.6,9.8,1.7,15.4l203.1,118.7
			c4.6,1.9,15.1,1.9,21.6-1.8l87.7-50C367.7,450.1,367.8,444,361.4,440.3z"/>
	</g>
	<g>
		<path class="st2" d="M361.4,444L158.2,325.3c-6.4-3.8-16.9-3.8-23.4-0.1l-87.7,50c-6.5,3.7-6.6,9.8,1.7,15.4l203.1,118.7
			c4.6,1.9,15.1,1.9,21.6-1.8l87.7-50C367.7,453.8,367.8,447.8,361.4,444z"/>
	</g>
	<g>
		<path class="st2" d="M361.4,447.8L158.2,329c-6.4-3.8-16.9-3.8-23.4-0.1l-87.7,50c-6.5,3.7-6.6,9.8,1.7,15.4l203.1,118.7
			c4.6,1.9,15.1,1.9,21.6-1.8l87.7-50C367.7,457.6,367.8,451.5,361.4,447.8z"/>
	</g>
	<g>
		<g id="XMLID_184_">
			<path class="st8" d="M361.2,450.1l-87.7,50c-6.5,3.7-17,3.7-23.4-0.1L46.9,381.3c-6.4-3.8-6.4-9.8,0.1-13.5l87.7-50
				c6.5-3.7,17-3.7,23.4,0.1l203.1,118.7C367.8,440.3,367.7,446.3,361.2,450.1z"/>
		</g>
		<g id="XMLID_2_">
			<polygon id="XMLID_183_" class="st9" points="358.1,439.9 252.8,499.4 49.8,379.7 155,320.2 			"/>
			<polygon id="XMLID_182_" class="st10" points="252.8,499.4 62.7,387.4 168,327.8 358.1,439.9 			"/>
			<g id="XMLID_137_">
				<g id="XMLID_169_">
					<path id="XMLID_179_" class="st10" d="M59.8,380c0.3,0,0.7,0,1.1,0c0.4,0.1,0.7,0.2,0.9,0.3c0.3,0.2,0.5,0.3,0.6,0.6
						c0.1,0.2,0.1,0.4,0,0.6c-0.1,0.2-0.3,0.4-0.6,0.5s-0.6,0.3-1,0.3c-0.4,0.1-0.7,0.1-1.1,0c-0.4-0.1-0.7-0.2-0.9-0.3l-1.2-0.7
						c0,0,0,0,0,0l-1.2-0.7c-0.1,0-0.1-0.1-0.1-0.1c0,0,0-0.1,0.1-0.1c0.1,0,0.1-0.1,0.2-0.1c0.1,0,0.1,0,0.2,0.1l1.5,0.9
						c0-0.2,0-0.3,0.1-0.5c0.1-0.2,0.3-0.3,0.5-0.4C59.1,380.2,59.5,380.1,59.8,380z M61.8,381.5c0.1-0.2,0.1-0.3,0-0.5
						c-0.1-0.2-0.2-0.3-0.4-0.4c-0.2-0.1-0.4-0.2-0.7-0.3c-0.3,0-0.5,0-0.8,0c-0.3,0-0.5,0.1-0.7,0.2c-0.3,0.2-0.4,0.3-0.5,0.6
						c0,0.2,0.1,0.4,0.3,0.6c0,0,0,0,0,0c0,0,0.1,0,0.1,0.1c0.2,0.1,0.4,0.2,0.7,0.3c0.3,0,0.5,0,0.8,0c0.3,0,0.5-0.1,0.7-0.2
						C61.6,381.8,61.7,381.6,61.8,381.5z"/>
					<path id="XMLID_176_" class="st10" d="M64.5,380.3c-0.4,0.1-0.7,0.1-1.1,0c-0.4-0.1-0.7-0.2-0.9-0.3c-0.3-0.2-0.5-0.3-0.6-0.6
						c-0.1-0.2-0.1-0.4,0-0.6c0.1-0.2,0.3-0.4,0.6-0.5c0.3-0.2,0.6-0.3,1-0.3c0.4-0.1,0.7-0.1,1.1,0s0.7,0.2,1,0.3s0.5,0.3,0.6,0.6
						c0.1,0.2,0.1,0.4,0,0.6c-0.1,0.2-0.3,0.4-0.6,0.5C65.1,380.2,64.8,380.3,64.5,380.3z M65.5,379.4c0.1-0.1,0.1-0.3,0-0.5
						c-0.1-0.2-0.2-0.3-0.4-0.4c-0.2-0.1-0.4-0.2-0.7-0.3c-0.3,0-0.5,0-0.8,0c-0.3,0-0.5,0.1-0.7,0.2c-0.2,0.1-0.3,0.2-0.4,0.4
						c-0.1,0.2-0.1,0.3,0,0.5c0.1,0.2,0.2,0.3,0.4,0.4c0.2,0.1,0.4,0.2,0.7,0.3c0.3,0,0.5,0,0.8,0c0.3,0,0.5-0.1,0.7-0.2
						C65.3,379.7,65.4,379.5,65.5,379.4z"/>
					<path id="XMLID_173_" class="st10" d="M64.3,376.6c-0.1,0-0.2,0-0.3-0.1c-0.1,0-0.1-0.1-0.1-0.2c0-0.1,0-0.1,0.1-0.2
						c0.1,0,0.2-0.1,0.3-0.1c0.1,0,0.2,0,0.3,0.1c0.1,0,0.1,0.1,0.1,0.2c0,0.1,0,0.1-0.1,0.2C64.5,376.6,64.4,376.6,64.3,376.6z
						 M67.8,378.6c-0.1,0-0.1,0-0.2-0.1l-2.5-1.5c-0.1,0-0.1-0.1-0.1-0.1c0,0,0-0.1,0.1-0.1c0.1,0,0.1-0.1,0.2,0
						c0.1,0,0.1,0,0.2,0.1l2.5,1.5c0.1,0,0.1,0.1,0.1,0.1c0,0,0,0.1-0.1,0.1C67.9,378.6,67.9,378.6,67.8,378.6z"/>
					<path id="XMLID_170_" class="st10" d="M69.4,374.6l1.2,0.7c0.3,0.2,0.5,0.3,0.6,0.6c0.1,0.2,0.1,0.4,0,0.6
						c-0.1,0.2-0.3,0.4-0.6,0.5s-0.6,0.3-1,0.3c-0.4,0.1-0.7,0.1-1.1,0c-0.4-0.1-0.7-0.2-0.9-0.3c-0.3-0.2-0.5-0.3-0.6-0.5
						c-0.1-0.2-0.1-0.4,0-0.6c0.1-0.2,0.3-0.4,0.5-0.5c0.2-0.1,0.5-0.2,0.8-0.3c0.3-0.1,0.6-0.1,0.9,0l-1.5-0.9
						c-0.1,0-0.1-0.1-0.1-0.1c0,0,0-0.1,0.1-0.1c0.1,0,0.1-0.1,0.2,0c0.1,0,0.1,0,0.2,0.1L69.4,374.6
						C69.4,374.6,69.4,374.6,69.4,374.6z M70.7,376.5c0.1-0.2,0.1-0.3,0-0.5c-0.1-0.2-0.2-0.3-0.4-0.4c-0.1,0-0.1-0.1-0.1-0.1
						c0,0,0,0,0,0c-0.3-0.1-0.7-0.2-1-0.2c-0.4,0-0.7,0.1-1,0.3c-0.2,0.1-0.3,0.2-0.4,0.4c-0.1,0.2-0.1,0.3,0,0.5
						c0.1,0.2,0.2,0.3,0.4,0.4c0.2,0.1,0.4,0.2,0.7,0.3c0.3,0,0.5,0,0.8,0c0.3,0,0.5-0.1,0.7-0.2C70.5,376.7,70.6,376.6,70.7,376.5z
						"/>
				</g>
				<g id="XMLID_161_">
					<ellipse id="XMLID_168_" class="st10" cx="154" cy="328.2" rx="4.4" ry="2.5"/>
					<ellipse id="XMLID_167_" class="st10" cx="154" cy="328.2" rx="4.9" ry="2.9"/>
					<g id="XMLID_162_">
						<defs>
							<ellipse id="XMLID_163_" cx="154" cy="328.2" rx="4.4" ry="2.5"/>
						</defs>
						<clipPath id="XMLID_10_">
							<use xlink:href="#XMLID_163_"  style="overflow:visible;"/>
						</clipPath>
						<g id="XMLID_164_" class="st11">
							<ellipse id="XMLID_166_" class="st9" cx="153.5" cy="327.9" rx="2" ry="1.2"/>
							<path id="XMLID_165_" class="st9" d="M156.4,327.6l-0.4,0.2c-0.2,0.1-0.3,0.2-0.3,0.3c-0.1,0.3-0.3,0.5-0.6,0.7
								s-0.8,0.3-1.2,0.4c-0.2,0-0.4,0.1-0.6,0.2l-0.4,0.2c-0.5,0.3-0.5,0.7,0,1l1.3,0.8c0.6,0.3,1.5,0.3,2,0l3.2-1.8
								c0.6-0.3,0.6-0.8,0-1.2l-1.3-0.8C157.6,327.3,156.9,327.3,156.4,327.6z"/>
						</g>
					</g>
				</g>
				<line id="XMLID_160_" class="st12" x1="148.1" y1="331.6" x2="138.9" y2="336.8"/>
				<line id="XMLID_159_" class="st12" x1="128" y1="342.9" x2="123.8" y2="345.3"/>
				<polygon id="XMLID_158_" class="st13" points="127.4,339.3 131,337.2 132.4,339.6 133.8,338.8 135.5,342.7 132.5,340.9 
					131.3,341.5 				"/>
				<text id="XMLID_157_" transform="matrix(0.8795 -0.4974 0.8615 0.5078 107.2145 387.2675)" class="st14 st3 st4">Boid Power</text>
				<text id="XMLID_156_" transform="matrix(0.8795 -0.4974 0.8615 0.5078 203.5873 427.8777)" class="st14 st3 st4">Social</text>
				<g id="XMLID_152_">
					<text id="XMLID_154_" transform="matrix(0.8795 -0.4974 0.8615 0.5078 170.0832 408.7812)" class="st14 st3 st5">Devices:</text>
					<text id="XMLID_153_" transform="matrix(0.8795 -0.4974 0.8615 0.5078 196.3019 393.9535)" class="st14 st3 st5">3</text>
				</g>
				<text id="XMLID_151_" transform="matrix(0.8795 -0.4974 0.8615 0.5078 195.6776 456.1304)" class="st14 st3 st5">Users invited:</text>
				<text id="XMLID_150_" transform="matrix(0.8795 -0.4974 0.8615 0.5078 236.348 433.1296)" class="st14 st3 st5">24</text>
				<text id="XMLID_149_" transform="matrix(0.8795 -0.4974 0.8615 0.5078 203.7241 461.0923)" class="st14 st3 st5">Power from invited users:</text>
				<text id="XMLID_148_" transform="matrix(0.8795 -0.4974 0.8615 0.5078 278.2143 418.965)" class="st14 st3 st5">40</text>
				<g id="XMLID_144_">
					<text id="XMLID_146_" transform="matrix(0.8795 -0.4974 0.8615 0.5078 199.9255 401.4167)" class="st14 st3 st5">24</text>
					<text id="XMLID_145_" transform="matrix(0.8795 -0.4974 0.8615 0.5078 179.2323 413.1196)" class="st14 st3 st5">Social:</text>
				</g>
				<g id="XMLID_141_">
					<text id="XMLID_142_" transform="matrix(0.8795 -0.4974 0.8615 0.5078 137.3947 401.7035)" class="st14 st3 st6">145</text>
				</g>
				<path id="XMLID_140_" class="st15" d="M318.8,427.5l-86.7,49c-0.7,0.4-1.8,0.4-2.5,0l-15.5-9.1c-0.7-0.4-0.7-1.1,0-1.5l86.7-49
					c0.7-0.4,1.8-0.4,2.5,0l15.5,9.1C319.5,426.4,319.5,427.1,318.8,427.5z"/>
				<text id="XMLID_139_" transform="matrix(0.8795 -0.4974 0.8615 0.5078 239.4765 465.5744)" class="st10 st3 st7">Get invited link</text>
			</g>
		</g>
	</g>
</g>
<polyline class="st16" points="194.2,324.2 284.9,271 284.9,200.7 "/>
<polyline class="st16" points="341,410.5 431.6,357.3 431.6,289.7 "/>
<g>
	<ellipse transform="matrix(0.866 -0.5 0.5 0.866 -13.3818 156.6137)" class="st17" cx="285.6" cy="103.3" rx="44.3" ry="76.8"/>
	<g id="XMLID_422_">
		<g id="XMLID_427_">
			
				<ellipse id="XMLID_432_" transform="matrix(0.866 -0.5 0.5 0.866 -20.8311 184.608)" class="st18" cx="334.1" cy="131.2" rx="21.5" ry="37.2"/>
			
				<ellipse id="XMLID_431_" transform="matrix(0.866 -0.5 0.5 0.866 -20.8312 184.6072)" class="st19" cx="334.1" cy="131.2" rx="18.2" ry="31.5"/>
			<path id="XMLID_430_" class="st20" d="M339.2,159.2c-12-3.6-24-19.1-26.8-34.6c-0.4-2.1-0.6-4.1-0.6-5.9c0,2.1,0.1,4.4,0.6,6.9
				c2.8,15.5,14.8,30.9,26.8,34.6c10.3,3.2,17.3-3.6,17.2-15.4C356.1,155.9,349.2,162.2,339.2,159.2z"/>
			<path id="XMLID_428_" class="st21" d="M328.9,105.1c12,3.6,24,19.1,26.8,34.6c0.3,1.9,0.5,3.6,0.6,5.3c0.1-2.2-0.1-4.6-0.6-7.2
				c-2.8-15.5-14.8-30.9-26.8-34.6c-10.5-3.2-17.5,3.8-17.1,16.1C312.2,108.2,319,102,328.9,105.1z"/>
		</g>
		<g id="XMLID_423_">
			<g id="XMLID_424_">
				<path id="XMLID_426_" class="st10" d="M318.9,132.7c0.5-1.4,0.9-2.7,1.4-4c0-0.1,0.3-0.1,0.4,0c0.8,0.4,1.6,0.9,2.5,1.4
					c5.4,3.1,10.7,6.2,16.1,9.3c0.4,0.2,0.6,0.2,0.7-0.2c0.9-2.5,1.8-5.1,2.7-7.6c0-0.1,0.1-0.3,0.1-0.5c-6.5-3.8-13-7.5-19.5-11.3
					c0.5-1.4,1-2.7,1.5-4c0-0.1,0.2-0.1,0.4,0c0.5,0.3,1,0.6,1.5,0.8c6.6,3.8,13.2,7.7,19.8,11.4c2,1.1,4.1,4.1,3.2,6.9
					c-0.6,2.1-1.4,4.1-2.2,6.1c-0.2,0.7-0.5,1.4-0.7,2.1c-0.9,2.4-2.8,3.1-5.4,2.4c-0.2,0-0.5-0.2-0.7-0.3
					c-7.1-4.1-14.3-8.2-21.4-12.4C319.3,132.9,319.1,132.8,318.9,132.7z"/>
				<path id="XMLID_425_" class="st10" d="M331.2,127.1c-0.5,1.3-1,2.6-1.5,3.8c0,0.1-0.2,0.1-0.3,0c-3.7-2.1-7.4-4.3-11.1-6.4
					c0,0-0.1-0.1-0.2-0.2c0.5-1.2,0.9-2.4,1.4-3.6c0-0.1,0.2-0.1,0.4-0.1C323.6,122.7,327.4,124.9,331.2,127.1z"/>
			</g>
		</g>
	</g>
	<g id="XMLID_412_">
		<g id="XMLID_416_">
			
				<ellipse id="XMLID_421_" transform="matrix(0.866 -0.5 0.5 0.866 14.7503 149.0261)" class="st22" cx="285.5" cy="47" rx="21.5" ry="37.2"/>
			
				<ellipse id="XMLID_420_" transform="matrix(0.866 -0.5 0.5 0.866 14.7503 149.0259)" class="st23" cx="285.5" cy="47" rx="18.2" ry="31.5"/>
			<path id="XMLID_419_" class="st20" d="M290.5,75c-12-3.6-24-19.1-26.8-34.6c-0.4-2.1-0.6-4.1-0.6-5.9c0,2.1,0.1,4.4,0.6,6.9
				c2.8,15.5,14.8,30.9,26.8,34.6c10.3,3.2,17.3-3.6,17.2-15.4C307.5,71.8,300.6,78,290.5,75z"/>
			<path id="XMLID_417_" class="st21" d="M280.3,20.9c12,3.6,24,19.1,26.8,34.6c0.3,1.9,0.5,3.6,0.6,5.3c0.1-2.2-0.1-4.6-0.6-7.2
				c-2.8-15.5-14.8-30.9-26.8-34.6c-10.5-3.2-17.5,3.8-17.1,16.1C263.5,24,270.4,17.8,280.3,20.9z"/>
		</g>
		<g id="XMLID_413_">
			<path id="XMLID_415_" class="st10" d="M272,39.1c0.3,0,0.5,0,0.8,0c0.6,0.1,1.2,0.3,1.8,0.5c1.2,0.4,2.4,0.9,3.6,1.5
				c1.6,0.7,3.2,1.6,4.8,2.4v4.3c0.8,0.5,1.6,0.9,2.4,1.4l0.3,0.2c0.9,0.5,1.9,1.1,2.8,1.5v-4.3c1.5,0.9,2.9,1.9,4.4,2.9
				c1.2,0.8,2.4,1.7,3.6,2.7c0.6,0.5,1.2,1,1.8,1.6c0.3,0.3,0.6,0.6,0.8,0.9c0.2,0.3,0.5,0.7,0.5,1.1c0-0.4-0.3-0.8-0.5-1.1
				c-0.3-0.4-0.5-0.7-0.8-1c-0.6-0.6-1.2-1.2-1.8-1.7c-1.2-1-2.4-2-3.6-2.9c-1.5-1.1-2.9-2-4.4-3v-4.3l7.9,4.6v-6.3L275,27.9v6.3
				l7.9,4.6V43c-1.6-0.9-3.2-1.7-4.9-2.4c-1.2-0.5-2.4-1-3.6-1.3c-0.6-0.2-1.2-0.3-1.8-0.3C272.4,39,272.2,39,272,39.1
				c-0.3,0-0.5,0.1-0.5,0.5C271.4,39.3,271.7,39.2,272,39.1z"/>
			<path id="XMLID_414_" class="st10" d="M298.9,56.3c-0.3,0-0.5,0-0.8-0.1c-0.6-0.1-1.2-0.3-1.8-0.5c-1.2-0.4-2.4-1-3.6-1.5
				c-2.4-1.2-4.9-2.5-7.3-3.9c-2.4-1.4-4.9-2.9-7.3-4.6c-1.2-0.8-2.4-1.7-3.6-2.6c-0.6-0.5-1.2-1-1.8-1.5c-0.3-0.3-0.6-0.6-0.8-0.9
				c-0.3-0.3-0.5-0.7-0.6-1.1c0,0.4,0.2,0.8,0.5,1.2c0.2,0.4,0.5,0.7,0.8,1c0.6,0.6,1.2,1.2,1.8,1.7c1.2,1.1,2.4,2.1,3.6,3
				c1.6,1.2,3.3,2.3,4.9,3.3v12.5l5.4,3.1V53c1.5,0.8,3,1.5,4.4,2.1c1.2,0.5,2.4,0.9,3.6,1.2c0.6,0.1,1.2,0.3,1.8,0.3
				c0.3,0,0.6,0,0.8-0.1c0.2-0.1,0.5-0.2,0.5-0.6C299.5,56.2,299.2,56.2,298.9,56.3z"/>
		</g>
	</g>
	<g id="XMLID_391_">
		
			<ellipse id="XMLID_411_" transform="matrix(0.866 -0.5 0.5 0.866 -5.7926 128.4833)" class="st24" cx="236.9" cy="75.1" rx="21.4" ry="37.1"/>
		<g id="XMLID_409_">
			
				<ellipse id="XMLID_410_" transform="matrix(0.866 -0.5 0.5 0.866 -5.7926 128.4833)" class="st25" cx="236.9" cy="75.1" rx="18.8" ry="32.5"/>
		</g>
		<g id="XMLID_393_">
			<g id="XMLID_406_">
				<polygon id="XMLID_408_" class="st26" points="234.7,61.4 231.7,59.7 231.7,53 234.7,54.7 				"/>
				<polygon id="XMLID_407_" class="st26" points="240.4,64.7 237.4,63 237.4,56.3 240.4,58 				"/>
			</g>
			<g id="XMLID_403_">
				<polygon id="XMLID_405_" class="st26" points="234.7,93.1 231.7,91.4 231.7,84.7 234.7,86.4 				"/>
				<polygon id="XMLID_404_" class="st26" points="240.4,96.3 237.4,94.6 237.4,88 240.4,89.7 				"/>
			</g>
			<g id="XMLID_398_">
				<path id="XMLID_399_" class="st26" d="M248.9,75.3c0,3.2-1.8,4.7-4.5,4c3.3,2.7,5.4,6.9,5.4,10.8c0,5.2-3.9,6.2-10.1,2.6
					l-13-7.5V54.8l12.5,7.2C245.1,65.4,248.9,70.6,248.9,75.3z M241.9,72.6c0-1.8-1.2-3.6-3.1-4.6l-5.2-3v5.9l5.2,3
					C240.7,75,241.9,74.5,241.9,72.6z M242.7,84.9c0-1.9-1.5-4-3.9-5.3l-5.2-3v6.4l5.2,3C241.2,87.3,242.7,87,242.7,84.9z"/>
			</g>
			<path id="XMLID_394_" class="st24" d="M250.2,89.8c0-3.9-2.1-8.1-5.4-10.8c2.8,0.7,4.5-0.8,4.5-4c0-4.3-3.3-9.1-8.5-12.5v-4.3
				l-3-1.7v4.2l-2.8-1.6v-4.2l-3-1.7v4.2l-5-2.9v30.3l5,2.9v3.8l3,1.7v-3.8l2.8,1.6v3.8l3,1.7v-3.8
				C246.5,95.9,250.2,94.8,250.2,89.8z M242.3,72.4c0,1.9-1.2,2.4-3.1,1.3l-5.2-3v-5.9l5.2,3C241.1,68.8,242.3,70.6,242.3,72.4z
				 M239.2,85.7l-5.2-3v-6.4l5.2,3c2.4,1.3,3.9,3.4,3.9,5.3C243.1,86.8,241.6,87.1,239.2,85.7z"/>
		</g>
		<path id="XMLID_392_" class="st26" d="M236.9,48.5c-3.8-2.2-7.4-3.2-10.6-3.1c3,0.1,6.3,1.1,9.8,3.1c12.7,7.3,23,25.1,23,39.8
			c0,10.2-5,16.2-12.4,16.4c7.8,0.2,13.2-5.8,13.2-16.4C259.8,73.7,249.5,55.8,236.9,48.5z"/>
	</g>
	<g id="XMLID_372_">
		<g id="XMLID_385_">
			
				<ellipse id="XMLID_390_" transform="matrix(0.866 -0.5 0.5 0.866 -41.3741 164.0648)" class="st27" cx="285.5" cy="159.2" rx="21.5" ry="37.2"/>
			
				<ellipse id="XMLID_389_" transform="matrix(0.866 -0.5 0.5 0.866 -41.3741 164.0641)" class="st28" cx="285.5" cy="159.2" rx="18.2" ry="31.5"/>
			<path id="XMLID_388_" class="st20" d="M290.5,187.2c-12-3.6-24-19.1-26.8-34.6c-0.4-2.1-0.6-4.1-0.6-5.9c0,2.1,0.1,4.4,0.6,6.9
				c2.8,15.5,14.8,30.9,26.8,34.6c10.3,3.2,17.3-3.6,17.2-15.4C307.5,184,300.6,190.3,290.5,187.2z"/>
			<path id="XMLID_386_" class="st21" d="M280.3,133.1c12,3.6,24,19.1,26.8,34.6c0.3,1.9,0.5,3.6,0.6,5.3c0.1-2.2-0.1-4.6-0.6-7.2
				c-2.8-15.5-14.8-30.9-26.8-34.6c-10.5-3.2-17.5,3.8-17.1,16.1C263.5,136.2,270.4,130.1,280.3,133.1z"/>
		</g>
		<g id="XMLID_373_">
			<g id="XMLID_374_">
				<g id="XMLID_383_">
					<polygon id="XMLID_384_" class="st10" points="285.8,168 285.8,176.3 294.8,167 					"/>
				</g>
				<g id="XMLID_380_">
					<polygon id="XMLID_382_" class="st10" points="294.4,164.1 285.8,142.6 285.8,154.6 					"/>
					<polygon id="XMLID_381_" class="st10" points="285.8,155.6 285.8,165.8 294.4,165 					"/>
				</g>
				<g id="XMLID_377_">
					<polygon id="XMLID_379_" class="st10" points="276.5,153.7 285.1,142.2 285.1,154.2 					"/>
					<polygon id="XMLID_378_" class="st10" points="285.1,155.1 285.1,165.4 276.6,154.7 					"/>
				</g>
				<g id="XMLID_375_">
					<polygon id="XMLID_376_" class="st10" points="285.1,167.5 285.1,175.9 276.1,156.2 					"/>
				</g>
			</g>
		</g>
	</g>
</g>
<g>
	
		<ellipse id="XMLID_528_" transform="matrix(0.866 -0.5 0.5 0.866 -33.9321 292.5018)" class="st29" cx="528.8" cy="209.6" rx="43.4" ry="75.2"/>
	<g id="XMLID_500_">
		<g id="XMLID_519_">
			<polygon id="XMLID_527_" class="st30" points="503.3,194 513.5,188.5 527.1,201 530.5,218.8 520.3,224.3 506.7,211.9 			"/>
			<polygon id="XMLID_526_" class="st30" points="527.1,201 537.4,195.5 551,207.9 554.4,225.8 544.2,231.3 530.5,218.8 			"/>
			<polyline id="XMLID_525_" class="st30" points="489.6,181.6 503.3,194 506.7,211.9 496.4,217.3 			"/>
			<polyline id="XMLID_524_" class="st30" points="568.1,238.2 554.4,225.8 551,207.9 561.3,202.5 			"/>
			<line id="XMLID_523_" class="st30" x1="537.4" y1="195.7" x2="534" y2="177.8"/>
			<line id="XMLID_522_" class="st30" x1="513.5" y1="188.7" x2="510.1" y2="170.9"/>
			<line id="XMLID_521_" class="st30" x1="547.6" y1="249.3" x2="544.2" y2="231.4"/>
			<line id="XMLID_520_" class="st30" x1="523.7" y1="242.3" x2="520.3" y2="224.4"/>
		</g>
		<path id="XMLID_518_" class="st31" d="M505.5,194.6c0.3,1.6-0.4,2.6-1.7,2.2c-1.2-0.4-2.5-1.9-2.8-3.5c-0.3-1.6,0.4-2.6,1.7-2.2
			C503.9,191.5,505.2,193,505.5,194.6z"/>
		<path id="XMLID_517_" class="st31" d="M515.8,189.4c0.3,1.6-0.4,2.6-1.7,2.2c-1.2-0.4-2.5-1.9-2.8-3.5c-0.3-1.6,0.4-2.6,1.7-2.2
			C514.2,186.2,515.5,187.8,515.8,189.4z"/>
		<path id="XMLID_516_" class="st31" d="M528.9,201.5c0.3,1.6-0.4,2.6-1.7,2.2c-1.2-0.4-2.5-1.9-2.8-3.5c-0.3-1.6,0.4-2.6,1.7-2.2
			C527.4,198.3,528.6,199.9,528.9,201.5z"/>
		<path id="XMLID_515_" class="st31" d="M552.4,208.3c0.3,1.6-0.4,2.6-1.7,2.2c-1.2-0.4-2.5-1.9-2.8-3.5c-0.3-1.6,0.4-2.6,1.7-2.2
			C550.8,205.2,552.1,206.7,552.4,208.3z"/>
		<path id="XMLID_514_" class="st31" d="M539.6,196.4c0.3,1.6-0.4,2.6-1.7,2.2c-1.2-0.4-2.5-1.9-2.8-3.5c-0.3-1.6,0.4-2.6,1.7-2.2
			C538.1,193.2,539.3,194.8,539.6,196.4z"/>
		<path id="XMLID_513_" class="st31" d="M535.9,176.9c0.3,1.6-0.4,2.6-1.7,2.2c-1.2-0.4-2.5-1.9-2.8-3.5c-0.3-1.6,0.4-2.6,1.7-2.2
			C534.4,173.8,535.6,175.4,535.9,176.9z"/>
		<path id="XMLID_512_" class="st31" d="M512.1,170c0.3,1.6-0.4,2.6-1.7,2.2c-1.2-0.4-2.5-1.9-2.8-3.5c-0.3-1.6,0.4-2.6,1.7-2.2
			C510.5,166.8,511.8,168.4,512.1,170z"/>
		<path id="XMLID_511_" class="st31" d="M551.8,225c-0.3-1.6,0.4-2.6,1.7-2.2c1.2,0.4,2.5,1.9,2.8,3.5c0.3,1.6-0.4,2.6-1.7,2.2
			C553.3,228.2,552.1,226.6,551.8,225z"/>
		<path id="XMLID_510_" class="st31" d="M541.9,230.4c-0.3-1.6,0.4-2.6,1.7-2.2c1.2,0.4,2.5,1.9,2.8,3.5c0.3,1.6-0.4,2.6-1.7,2.2
			C543.5,233.6,542.2,232,541.9,230.4z"/>
		<path id="XMLID_509_" class="st31" d="M528.3,218.2c-0.3-1.6,0.4-2.6,1.7-2.2c1.2,0.4,2.5,1.9,2.8,3.5c0.3,1.6-0.4,2.6-1.7,2.2
			C529.9,221.3,528.6,219.8,528.3,218.2z"/>
		<path id="XMLID_508_" class="st31" d="M504.9,211.3c-0.3-1.6,0.4-2.6,1.7-2.2c1.2,0.4,2.5,1.9,2.8,3.5c0.3,1.6-0.4,2.6-1.7,2.2
			C506.4,214.5,505.2,212.9,504.9,211.3z"/>
		<path id="XMLID_507_" class="st31" d="M518.1,223.4c-0.3-1.6,0.4-2.6,1.7-2.2c1.2,0.4,2.5,1.9,2.8,3.5c0.3,1.6-0.4,2.6-1.7,2.2
			C519.6,226.6,518.4,225,518.1,223.4z"/>
		<path id="XMLID_506_" class="st31" d="M545.5,249.1c-0.3-1.6,0.4-2.6,1.7-2.2c1.2,0.4,2.5,1.9,2.8,3.5c0.3,1.6-0.4,2.6-1.7,2.2
			C547,252.3,545.8,250.7,545.5,249.1z"/>
		<path id="XMLID_505_" class="st31" d="M565.9,237.6c-0.3-1.6,0.4-2.6,1.7-2.2c1.2,0.4,2.5,1.9,2.8,3.5c0.3,1.6-0.4,2.6-1.7,2.2
			C567.4,240.8,566.2,239.2,565.9,237.6z"/>
		<path id="XMLID_504_" class="st31" d="M559,201.8c-0.3-1.6,0.4-2.6,1.7-2.2c1.2,0.4,2.5,1.9,2.8,3.5c0.3,1.6-0.4,2.6-1.7,2.2
			C560.6,205,559.3,203.4,559,201.8z"/>
		<path id="XMLID_503_" class="st31" d="M494.2,216.7c-0.3-1.6,0.4-2.6,1.7-2.2c1.2,0.4,2.5,1.9,2.8,3.5c0.3,1.6-0.4,2.6-1.7,2.2
			C495.8,219.8,494.5,218.3,494.2,216.7z"/>
		<path id="XMLID_502_" class="st31" d="M487.4,180.9c-0.3-1.6,0.4-2.6,1.7-2.2c1.2,0.4,2.5,1.9,2.8,3.5c0.3,1.6-0.4,2.6-1.7,2.2
			C488.9,184.1,487.7,182.5,487.4,180.9z"/>
		<path id="XMLID_501_" class="st31" d="M521.6,242.1c-0.3-1.6,0.4-2.6,1.7-2.2c1.2,0.4,2.5,1.9,2.8,3.5c0.3,1.6-0.4,2.6-1.7,2.2
			C523.1,245.3,521.9,243.7,521.6,242.1z"/>
	</g>
	<path id="XMLID_499_" class="st8" d="M445.1,162.2c0,0-29.2-7.1-42.5,13.9c-13.3,20.9-11.4,58.1-11.4,58.1l29.5,21.9
		c0,0-16.8-38.8-2.2-64.7c14.6-25.8,32.5-10.9,32.5-10.9L445.1,162.2z"/>
	<g id="XMLID_494_">
		<path id="XMLID_498_" class="st32" d="M438,207.2c0.3,1.8,1.7,3.7,3.1,4.2l21.9,7.8c1.4,0.5,2.4-0.6,2.1-2.4l0,0
			c-0.3-1.8-1.7-3.7-3.1-4.2l-21.9-7.8C438.7,204.3,437.8,205.3,438,207.2L438,207.2z"/>
		<path id="XMLID_497_" class="st32" d="M425.1,122.6c0.3,1.8,1.7,3.7,3.1,4.2l21.9,7.8c1.4,0.5,2.4-0.6,2.1-2.4l0,0
			c-0.3-1.8-1.7-3.7-3.1-4.2l-21.9-7.8C425.8,119.7,424.9,120.8,425.1,122.6L425.1,122.6z"/>
		<polygon id="XMLID_496_" class="st8" points="449.1,128 449.5,114.4 422.4,104.8 427.2,120.3 		"/>
		<polygon id="XMLID_495_" class="st8" points="440.5,204.9 461.6,212.4 449.7,134.5 428.6,127 		"/>
	</g>
	<path id="XMLID_493_" class="st32" d="M419.7,155.2c-1.2,7.8,3.8,18.7,11.2,24.4c7.4,5.6,14.3,3.9,15.5-3.9
		c1.2-7.8-3.8-18.7-11.1-24.4C427.8,145.6,420.9,147.4,419.7,155.2z"/>
	<path id="XMLID_492_" class="st8" d="M432.8,252.7c0,3,2.1,6.5,4.6,8l41,23.7c2.6,1.5,4.6,0.3,4.6-2.7l0,0c0-3-2.1-6.5-4.6-8
		l-41-23.7C434.9,248.5,432.8,249.7,432.8,252.7L432.8,252.7z"/>
	<g id="XMLID_481_">
		<g id="XMLID_488_">
			<path id="XMLID_489_" class="st32" d="M371.4,242.2c0-10.8,6.5-15.8,14.6-11.2l97.4,56.2c8.1,4.7,14.6,17.2,14.6,28
				c0,0.3,0,0.6,0,0.9l-126.5-73C371.4,242.8,371.4,242.5,371.4,242.2z"/>
		</g>
		<g id="XMLID_485_">
			<path class="st2" d="M497.9,316.1v6c0,1.2-0.8,1.7-1.9,1.1l-11.9-6.9c-1-0.6-1.9-2-1.9-3.2v-6L497.9,316.1z"/>
		</g>
		<g id="XMLID_482_">
			<path class="st2" d="M387.1,258c0,1.2-0.8,1.7-1.9,1.1l-11.9-6.9c-1-0.6-1.9-2-1.9-3.2v-6l15.6,9V258z"/>
		</g>
	</g>
</g>
<g>
	<g>
		<defs>
			<polygon id="SVGID_1_" points="149.1,371.7 162.1,364.2 186.9,378.6 174,386 			"/>
		</defs>
		<clipPath id="SVGID_2_">
			<use xlink:href="#SVGID_1_"  style="overflow:visible;"/>
		</clipPath>
		<g id="Artwork_1" class="st33">
			<g>
				<defs>
					<polygon id="SVGID_3_" points="149.1,371.7 162.1,364.2 186.9,378.6 174,386 					"/>
				</defs>
				<clipPath id="SVGID_4_">
					<use xlink:href="#SVGID_3_"  style="overflow:visible;"/>
				</clipPath>
				<g class="st34">
					<path class="st35" d="M171.3,370.2l-3.9,2.9l-5.7-6.9c-0.6-0.7-0.9-0.9-1.1-0.9c-0.1,0-0.3,0-0.4,0.1c-0.1,0.1-0.4,0.2-0.1,1.2
						l3.5,13.5c0.1,0.2,0.5,0.4,0.9,0.3c0.1,0,0.3-0.1,0.3-0.1l3.6-2.5l5.7,7.5c0.2,0.2,0.6,0.3,0.9,0.2c0.1,0,0.2-0.1,0.2-0.1
						c0.2-0.1,0.3-0.2,0.2-0.4l-2.9-14.5c-0.1-0.2-0.4-0.4-0.8-0.4C171.6,370.1,171.5,370.1,171.3,370.2"/>
					<path class="st36" d="M172.1,370.1c-0.3-0.1-0.6,0-0.8,0.1l-3.9,2.9l-5.7-6.9c-0.6-0.7-0.9-0.9-1.1-0.9c-0.1,0-0.3,0-0.4,0.1
						l5.7,11.1l3.4-2.9c0.3-0.3,0.9-0.3,1.4-0.2c0.2,0.1,0.4,0.2,0.4,0.4l3.7,11.8l0.1,0c0.3-0.1,0.6-0.2,0.5-0.5l-2.9-14.5
						C172.6,370.3,172.4,370.1,172.1,370.1"/>
				</g>
			</g>
		</g>
	</g>
</g>
<g>
	<g>
		<defs>
			<polygon id="SVGID_5_" points="194.1,387.1 197.9,384.8 205.3,389.1 201.5,391.3 			"/>
		</defs>
		<clipPath id="SVGID_6_">
			<use xlink:href="#SVGID_5_"  style="overflow:visible;"/>
		</clipPath>
		<g id="Artwork_1_1_" class="st37">
			<g>
				<defs>
					<polygon id="SVGID_7_" points="194.1,387.1 197.9,384.8 205.3,389.1 201.5,391.3 					"/>
				</defs>
				<clipPath id="SVGID_8_">
					<use xlink:href="#SVGID_7_"  style="overflow:visible;"/>
				</clipPath>
				<g class="st38">
					<path class="st35" d="M200.7,386.6l-1.1,0.8l-1.7-2.1c-0.2-0.2-0.3-0.3-0.3-0.3c0,0-0.1,0-0.1,0c0,0-0.1,0.1,0,0.3l1,4
						c0,0.1,0.1,0.1,0.3,0.1c0,0,0.1,0,0.1,0l1.1-0.7l1.7,2.2c0,0.1,0.2,0.1,0.3,0.1c0,0,0,0,0.1,0c0.1,0,0.1-0.1,0.1-0.1l-0.9-4.3
						c0-0.1-0.1-0.1-0.2-0.1C200.7,386.6,200.7,386.6,200.7,386.6"/>
					<path class="st36" d="M200.9,386.6c-0.1,0-0.2,0-0.2,0l-1.1,0.8l-1.7-2.1c-0.2-0.2-0.3-0.3-0.3-0.3c0,0-0.1,0-0.1,0l1.7,3.3
						l1-0.9c0.1-0.1,0.3-0.1,0.4-0.1c0.1,0,0.1,0.1,0.1,0.1l1.1,3.5l0,0c0.1,0,0.2-0.1,0.2-0.1l-0.9-4.3
						C201,386.6,201,386.6,200.9,386.6"/>
				</g>
			</g>
		</g>
	</g>
</g>
<g>
	<g>
		<defs>
			<polygon id="SVGID_9_" points="201.3,392.8 205.1,390.6 212.5,394.9 208.7,397.1 			"/>
		</defs>
		<clipPath id="SVGID_10_">
			<use xlink:href="#SVGID_9_"  style="overflow:visible;"/>
		</clipPath>
		<g id="Artwork_1_2_" class="st39">
			<g>
				<defs>
					<polygon id="SVGID_11_" points="201.3,392.8 205.1,390.6 212.5,394.9 208.7,397.1 					"/>
				</defs>
				<clipPath id="SVGID_12_">
					<use xlink:href="#SVGID_11_"  style="overflow:visible;"/>
				</clipPath>
				<g class="st40">
					<path class="st35" d="M207.9,392.4l-1.1,0.8l-1.7-2.1c-0.2-0.2-0.3-0.3-0.3-0.3c0,0-0.1,0-0.1,0c0,0-0.1,0.1,0,0.3l1,4
						c0,0.1,0.1,0.1,0.3,0.1c0,0,0.1,0,0.1,0l1.1-0.7l1.7,2.2c0,0.1,0.2,0.1,0.3,0.1c0,0,0,0,0.1,0c0.1,0,0.1-0.1,0.1-0.1l-0.9-4.3
						c0-0.1-0.1-0.1-0.2-0.1C207.9,392.3,207.9,392.3,207.9,392.4"/>
					<path class="st36" d="M208.1,392.3c-0.1,0-0.2,0-0.2,0l-1.1,0.8l-1.7-2.1c-0.2-0.2-0.3-0.3-0.3-0.3c0,0-0.1,0-0.1,0l1.7,3.3
						l1-0.9c0.1-0.1,0.3-0.1,0.4-0.1c0.1,0,0.1,0.1,0.1,0.1l1.1,3.5l0,0c0.1,0,0.2-0.1,0.2-0.1l-0.9-4.3
						C208.2,392.4,208.2,392.4,208.1,392.3"/>
				</g>
			</g>
		</g>
	</g>
</g>
</svg>
