<svg xmlns="http://www.w3.org/2000/svg" xmlns:xlink="http://www.w3.org/1999/xlink" viewBox="0 0 3751.22 1358.66"><defs><style>.cls-1{fill:rgba(124,240,10,0);}.cls-2{fill:#d5e5f6;}.cls-3{fill:#c9dbee;}.cls-10,.cls-4{fill:#e3edf8;}.cls-11,.cls-17,.cls-22,.cls-24,.cls-41,.cls-44,.cls-45,.cls-48,.cls-49,.cls-5,.cls-50,.cls-51,.cls-52,.cls-53,.cls-54,.cls-55,.cls-61,.cls-62,.cls-64,.cls-9{fill:none;}.cls-10,.cls-17,.cls-5{stroke:#c9dbee;}.cls-10,.cls-11,.cls-17,.cls-41,.cls-44,.cls-45,.cls-5,.cls-61,.cls-62,.cls-64,.cls-9{stroke-linejoin:round;}.cls-5{stroke-width:1.15px;}.cls-6{fill:#a4fcc0;}.cls-7{fill:#89e8a7;}.cls-8{fill:#cafcd7;}.cls-44,.cls-45,.cls-9{stroke:#89e8a7;}.cls-11,.cls-17,.cls-9{stroke-width:1.51px;}.cls-10{stroke-width:2.26px;}.cls-11{stroke:#d5e5f6;}.cls-12{fill:url(#linear-gradient);}.cls-13{opacity:0.44;}.cls-14{fill:url(#linear-gradient-2);}.cls-15{fill:url(#linear-gradient-3);}.cls-16{fill:url(#linear-gradient-4);}.cls-18{fill:url(#linear-gradient-5);}.cls-19{fill:url(#linear-gradient-6);}.cls-20{fill:url(#linear-gradient-7);}.cls-21{fill:url(#linear-gradient-8);}.cls-23{fill:#93f0b0;}.cls-24{stroke:#93f0b0;}.cls-24,.cls-41,.cls-52,.cls-53,.cls-64{stroke-linecap:round;}.cls-24,.cls-48,.cls-49,.cls-50,.cls-51,.cls-52,.cls-53,.cls-54,.cls-55{stroke-miterlimit:10;}.cls-24,.cls-53{stroke-width:2.37px;stroke-dasharray:3.94 7.89;}.cls-25{fill:url(#linear-gradient-9);}.cls-26{fill:url(#linear-gradient-10);}.cls-27{fill:url(#linear-gradient-11);}.cls-28{fill:url(#linear-gradient-12);}.cls-29{fill:url(#linear-gradient-13);}.cls-30{fill:url(#linear-gradient-14);}.cls-31{fill:url(#linear-gradient-15);}.cls-32{fill:#d0d7f3;}.cls-33{fill:#dcdff3;}.cls-34{fill:#fafffd;}.cls-35{fill:#e2eafa;}.cls-36{fill:#d8e1ef;}.cls-37{fill:#c3cae6;}.cls-38{fill:#97b8de;}.cls-39{fill:#40afff;}.cls-40{fill:#ffd54f;}.cls-41{stroke:#d0d7f3;stroke-width:25.81px;}.cls-42{fill:#c7ffd9;}.cls-43{fill:#acf4c3;}.cls-44{stroke-width:1.05px;}.cls-45{stroke-width:0.93px;}.cls-46{fill:#e3b319;}.cls-47{fill:#fecf37;}.cls-48,.cls-50,.cls-54{stroke:#b89114;}.cls-48,.cls-49{stroke-width:8.75px;}.cls-49,.cls-51,.cls-55{stroke:#feffd1;}.cls-50,.cls-51{stroke-width:7.52px;}.cls-52,.cls-53{stroke:#fecf37;}.cls-52{stroke-width:3px;stroke-dasharray:5 10;}.cls-54,.cls-55{stroke-width:8.79px;}.cls-56{fill:#fed537;}.cls-57{fill:#fe9237;}.cls-58{fill:#fe7637;}.cls-59{fill:#febc37;}.cls-60{fill:#feffd1;}.cls-61,.cls-62,.cls-64{stroke:#fe7137;}.cls-61{stroke-width:0.97px;}.cls-62{stroke-width:0.77px;}.cls-63{fill:#fe6237;}.cls-64{stroke-width:1.45px;}</style><linearGradient id="linear-gradient" x1="2982.08" y1="937.44" x2="2982.08" y2="-40.65" gradientUnits="userSpaceOnUse"><stop offset="0" stop-color="#b3f8e3"/><stop offset="0.57" stop-color="#fff" stop-opacity="0"/></linearGradient><linearGradient id="linear-gradient-2" x1="2782.02" y1="8084.31" x2="2782.02" y2="7218.4" gradientTransform="matrix(1, 0, 0, -1, 0, 8017.87)" gradientUnits="userSpaceOnUse"><stop offset="0.16" stop-color="#fff" stop-opacity="0"/><stop offset="0.91" stop-color="#b5f8e3" stop-opacity="0.97"/><stop offset="1" stop-color="#b3f8e3"/></linearGradient><linearGradient id="linear-gradient-3" x1="2909.78" y1="16487.27" x2="2909.78" y2="13517.35" gradientTransform="matrix(1, 0, 0, -0.33, 0, 5345.24)" gradientUnits="userSpaceOnUse"><stop offset="0.19" stop-color="#e6fdf6" stop-opacity="0"/><stop offset="1" stop-color="#ccfaec" stop-opacity="0.67"/></linearGradient><linearGradient id="linear-gradient-4" x1="3052.5" y1="-5499.48" x2="3052.5" y2="-8217.21" gradientTransform="translate(0 2672.62) scale(1 0.33)" gradientUnits="userSpaceOnUse"><stop offset="0" stop-color="#ccfaec" stop-opacity="0.67"/><stop offset="0.85" stop-color="#e6fdf6" stop-opacity="0"/></linearGradient><linearGradient id="linear-gradient-5" x1="2579.73" y1="1060.28" x2="2579.73" y2="152.6" xlink:href="#linear-gradient"/><linearGradient id="linear-gradient-6" x1="2413.36" y1="7889.2" x2="2413.36" y2="7048.51" xlink:href="#linear-gradient-2"/><linearGradient id="linear-gradient-7" x1="2519.61" y1="15883.78" x2="2519.61" y2="13127.68" gradientTransform="matrix(1, 0, 0, -0.33, 0, 5345.24)" gradientUnits="userSpaceOnUse"><stop offset="0.03" stop-color="#e6fdf6" stop-opacity="0"/><stop offset="1" stop-color="#ccfaec" stop-opacity="0.67"/></linearGradient><linearGradient id="linear-gradient-8" x1="2638.29" y1="-5109.81" x2="2638.29" y2="-7631.88" gradientTransform="translate(0 2672.62) scale(1 0.33)" gradientUnits="userSpaceOnUse"><stop offset="0" stop-color="#ccfaec" stop-opacity="0.67"/><stop offset="0.97" stop-color="#e6fdf6" stop-opacity="0"/></linearGradient><linearGradient id="linear-gradient-9" x1="722.47" y1="8172.5" x2="722.47" y2="7355.81" gradientTransform="matrix(1, 0, 0, -1, 0, 8017.87)" gradientUnits="userSpaceOnUse"><stop offset="0.43" stop-color="#e6fdf6" stop-opacity="0"/><stop offset="1" stop-color="#ccfaec" stop-opacity="0.67"/></linearGradient><linearGradient id="linear-gradient-10" x1="381.64" y1="1046.47" x2="381.64" y2="138.79" xlink:href="#linear-gradient"/><linearGradient id="linear-gradient-11" x1="215.27" y1="7903.01" x2="215.27" y2="7062.33" xlink:href="#linear-gradient-2"/><linearGradient id="linear-gradient-12" x1="321.52" y1="15925.22" x2="321.52" y2="13169.11" xlink:href="#linear-gradient-7"/><linearGradient id="linear-gradient-13" x1="440.2" y1="-5151.25" x2="440.2" y2="-7673.31" xlink:href="#linear-gradient-8"/><linearGradient id="linear-gradient-14" x1="572.8" y1="8326.07" x2="572.8" y2="7509.38" xlink:href="#linear-gradient-9"/><linearGradient id="linear-gradient-15" x1="846.64" y1="-6420.41" x2="846.64" y2="-8942.48" gradientTransform="translate(0 2672.62) scale(1 0.33)" xlink:href="#linear-gradient"/></defs><title>new header</title><g id="Layer_1" data-name="Layer 1"><rect class="cls-1" width="3751.22" height="1358.66"/></g><g id="Layer_2" data-name="Layer 2"><polygon class="cls-2" points="1826.73 635.38 1940.58 692.3 1940.58 318.4 1826.73 261.48 1826.73 635.38"/><polygon class="cls-3" points="2060.18 632.5 1940.58 692.3 1940.58 318.4 2060.18 258.6 2060.18 295.45 2060.18 632.5"/><polygon class="cls-4" points="1828.66 262.05 1946.34 203.21 2058.26 259.17 1940.58 318.01 1828.66 262.05"/><path class="cls-3" d="M1946.33,204.17l110,55-115.76,57.88-110-55,115.75-57.88m0-1.92-119.6,59.8L1940.58,319l119.6-59.8-113.85-56.92Z"/><polygon class="cls-5" points="1946.34 202.25 1826.73 262.05 1940.58 318.97 2060.18 259.17 1946.34 202.25"/><polygon class="cls-6" points="3454.59 701.76 3454.59 330.5 3566.07 386.24 3566.07 757.5 3454.59 701.76"/><path class="cls-7" d="M3455.77,332.42,3564.89,387V755.58L3455.77,701V332.42m-2.36-3.83v373.9l113.84,56.92V385.51l-113.84-56.92Z"/><polygon class="cls-7" points="3686.86 699.61 3567.25 759.41 3567.25 385.51 3686.86 325.71 3686.86 362.56 3686.86 699.61"/><polygon class="cls-4" points="3455.33 329.16 3573.01 270.32 3684.93 326.28 3567.26 385.12 3455.33 329.16"/><path class="cls-3" d="M3573,271.28l110,55-115.76,57.88-110-55L3573,271.28m0-1.92-119.6,59.8,113.84,56.92,119.6-59.8L3573,269.36Z"/><polygon class="cls-8" points="3573.01 269.36 3453.41 329.16 3567.25 386.08 3686.86 326.28 3573.01 269.36"/><polygon class="cls-9" points="3573.01 269.36 3453.41 329.16 3567.25 386.08 3686.86 326.28 3573.01 269.36"/><polygon class="cls-7" points="3172.18 382.19 3138.72 365.45 3105.26 382.36 3105.26 415.97 3138.71 432.7 3172.18 415.47 3172.18 382.19"/><polygon class="cls-7" points="3100.09 383.19 3066.63 366.45 3033.17 383.36 3033.17 416.97 3066.62 433.7 3100.09 416.47 3100.09 383.19"/><polygon class="cls-7" points="3102.66 418.29 3069.2 435.2 3069.2 468.8 3102.65 485.54 3136.11 468.31 3136.11 435.02 3102.66 418.29"/><polygon class="cls-7" points="3031.26 420.29 2997.8 437.2 2997.8 470.8 3031.25 487.54 3064.72 470.31 3064.72 437.02 3031.26 420.29"/><polygon class="cls-7" points="2904.66 403.91 2871.2 420.82 2871.2 454.43 2904.65 471.16 2938.11 453.93 2938.11 420.64 2904.66 403.91"/><polygon class="cls-7" points="2868.66 350.82 2835.2 367.73 2835.2 401.34 2868.65 418.07 2902.11 400.84 2902.11 367.56 2868.66 350.82"/><polygon class="cls-7" points="2997.8 330.2 2997.8 363.8 3031.25 380.54 3064.72 363.31 3064.72 330.02 3031.26 313.29 2997.8 330.2"/><polygon class="cls-7" points="2962.47 383.36 2962.47 416.97 2995.91 433.7 3029.38 416.47 3029.38 383.19 2995.93 366.45 2962.47 383.36"/><polygon class="cls-6" points="1526.72 793.78 1526.72 604.69 1716.79 699.95 1714.3 888.08 1526.72 793.78"/><path class="cls-7" d="M1527.9,606.61l187.7,94.07-2.46,185.49L1527.9,793.05V606.61m-2.36-3.84V794.51L1715.45,890,1718,699.23l-192.45-96.46Z"/><polygon class="cls-7" points="1968.31 763.45 1715.45 889.98 1715.45 697.72 1968.31 571.19 1968.31 763.45"/><polygon class="cls-6" points="2114.98 786.67 2114.98 504.96 2302.05 598.5 2302.05 880.21 2114.98 786.67"/><path class="cls-7" d="M2116.16,506.88l184.71,92.35V878.29l-184.71-92.35V506.88m-2.37-3.83V787.4l189.44,94.72V597.77l-189.44-94.72Z"/><polygon class="cls-7" points="2620.23 723.63 2303.23 882.12 2303.23 597.77 2620.23 439.27 2620.23 487.64 2620.23 723.63"/><polygon class="cls-8" points="2430.79 345.31 2113.79 503.8 2303.23 598.52 2620.23 440.02 2430.79 345.31"/><polygon class="cls-9" points="2430.79 345.31 2113.79 503.8 2303.23 598.52 2620.23 440.02 2430.79 345.31"/><polygon class="cls-10" points="2034.57 616.63 1780.79 743.52 1970.43 838.34 2224.21 711.45 2034.57 616.63"/><polygon class="cls-2" points="1780.28 955.26 1969.72 1050.21 1969.72 838.33 1780.28 743.38 1780.28 955.26"/><polygon class="cls-3" points="2223.5 923.32 1969.72 1050.21 1969.72 838.33 2223.5 711.44 2223.5 923.32"/><polygon class="cls-8" points="1786.22 1008.61 1849.72 1040.35 1783.95 1073.59 1720.45 1041.84 1786.22 1008.61"/><polygon class="cls-7" points="1849.72 1110.35 1783.95 1144.21 1783.95 1073.59 1849.72 1040.35 1849.72 1110.35"/><polygon class="cls-11" points="1849.72 1110.35 1783.95 1144.21 1783.95 1073.59 1849.72 1040.35 1849.72 1110.35"/><polygon class="cls-6" points="1721.64 1111.74 1721.64 1043.76 1782.76 1074.32 1782.76 1142.3 1721.64 1111.74"/><path class="cls-7" d="M1722.82,1045.67l58.76,29.38v65.33L1722.82,1111v-65.33m-2.37-3.83v70.63l63.5,31.74v-70.62l-63.5-31.75Z"/><polygon class="cls-9" points="1786.22 1008.61 1720.45 1041.84 1720.45 1112.47 1783.95 1144.21 1849.72 1110.35 1849.72 1040.35 1786.22 1008.61"/><polyline class="cls-9" points="1849.72 1040.35 1783.95 1073.59 1720.45 1041.84"/><line class="cls-9" x1="1783.95" y1="1144.21" x2="1783.95" y2="1073.59"/><polygon class="cls-7" points="2980.06 413.01 2727.8 540.66 2981.96 667.74 3235.74 540.85 2980.06 413.01"/><polygon class="cls-12" points="2731.01 785.53 2983.54 937.44 3235.45 752.21 3235.74 -40.65 2728.42 -27.72 2731.01 785.53"/><g class="cls-13"><polygon class="cls-14" points="2731.62 -66.45 2832.42 -65.22 2832.42 799.46 2731.62 799.46 2731.62 -66.45"/><polygon class="cls-15" points="2870.48 839.46 2864.93 -150.51 2949.09 -149.7 2954.64 839.05 2870.48 839.46"/><polygon class="cls-16" points="3007.65 839.46 3013.19 -66.45 3097.35 -66.04 3091.81 838.64 3007.65 839.46"/></g><polygon class="cls-6" points="2729.33 820.68 2728.57 460.35 2762.99 477.35 2796.23 460.34 2828.57 476.32 2828.52 509.72 2867.3 529 2867.3 527.69 2899.58 511.38 2931.85 527.52 2931.85 545.9 2949.89 536.67 2984.05 553.64 2984.22 586.2 2980.79 947.84 2729.33 820.68"/><path class="cls-7" d="M2796.24,461.67l31.15,15.39,0,31.92v1.47l1.32.66,36.41,18.1,3.42,1.7v-2.49l31.1-15.72,31.08,15.55v19.59l3.45-1.77,15.78-8.07,33,16.38.16,31.79-3.4,359.76L2730.51,820l-.75-357.7,32.17,15.9,1.07.52,1.06-.54,32.18-16.46m-68.86-3.23.77,363L2982,949.76l3.44-363.57-.17-33.29-35.35-17.55L2933,544V526.79l-33.45-16.74L2866.11,527v.13L2829.7,509l.06-33.4L2796.22,459,2763,476l-35.6-17.58Z"/><polygon class="cls-7" points="3235.74 822.87 2981.96 949.76 2981.96 597.74 3235.74 470.85 3235.74 822.87"/><polygon class="cls-10" points="3380.29 614.54 3127.44 741.07 3319.89 837.3 3570.21 709.26 3380.29 614.54"/><polygon class="cls-17" points="3380.29 614.54 3127.44 741.07 3319.89 837.3 3570.21 709.26 3380.29 614.54"/><polygon class="cls-2" points="3127.44 1022.58 3317.36 1118.05 3317.36 836.32 3127.44 740.84 3127.44 1022.58"/><polygon class="cls-3" points="3570.21 991.52 3317.36 1118.05 3317.36 835.79 3570.21 709.26 3570.21 991.52"/><polygon class="cls-10" points="3317.36 906.1 3254.05 874.43 3382.14 812.3 3443.41 842.93 3317.36 906.1"/><polygon class="cls-3" points="3254.05 804.24 3380.96 739.78 3382.14 812.3 3254.05 876.84 3254.05 804.24"/><polygon class="cls-2" points="3443.78 772.67 3380.29 740.92 3380.29 811.55 3443.78 844.25 3443.78 772.67"/><polygon class="cls-3" points="1608.75 1075.04 1542.97 1108.9 1542.97 968.17 1608.75 934.93 1608.75 1075.04"/><polygon class="cls-2" points="1479.48 1077.15 1542.97 1108.9 1542.97 966.68 1479.48 934.93 1479.48 1077.15"/><line class="cls-17" x1="1542.97" y1="1108.9" x2="1542.97" y2="1038.28"/><polygon class="cls-4" points="1545.25 902.44 1608.75 934.19 1542.97 967.42 1479.48 935.68 1545.25 902.44"/><polygon class="cls-17" points="1479.48 1077.15 1479.48 935.68 1545.25 902.44 1608.75 934.19 1608.75 1075.04 1542.97 1108.9 1479.48 1077.15"/><polyline class="cls-17" points="1608.75 934.19 1542.97 967.42 1479.48 935.68"/><line class="cls-17" x1="1542.97" y1="1038.05" x2="1542.97" y2="967.42"/><polygon class="cls-10" points="2963.61 1094.13 3027.1 1125.88 2961.33 1159.11 2897.83 1127.36 2963.61 1094.13"/><polygon class="cls-3" points="3027.1 1195.88 2961.33 1229.74 2961.33 1159.11 3027.1 1125.88 3027.1 1195.88"/><polygon class="cls-2" points="2897.83 1197.99 2961.33 1229.74 2961.33 1159.11 2897.83 1127.36 2897.83 1197.99"/><polygon class="cls-17" points="2963.61 1094.13 2897.83 1127.36 2897.83 1197.99 2961.33 1229.74 3027.1 1195.88 3027.1 1125.88 2963.61 1094.13"/><polyline class="cls-17" points="3027.1 1125.88 2961.33 1159.11 2897.83 1127.36"/><line class="cls-17" x1="2961.33" y1="1229.74" x2="2961.33" y2="1159.11"/><polygon class="cls-10" points="1353.04 738.78 1416.54 770.52 1350.76 803.76 1287.27 772.01 1353.04 738.78"/><polygon class="cls-3" points="1416.54 840.52 1350.76 874.39 1350.76 803.76 1416.54 770.52 1416.54 840.52"/><polygon class="cls-2" points="1287.27 842.64 1350.76 874.39 1350.76 803.76 1287.27 772.01 1287.27 842.64"/><polygon class="cls-17" points="1353.04 738.78 1287.27 772.01 1287.27 842.64 1350.76 874.39 1416.54 840.52 1416.54 770.52 1353.04 738.78"/><polyline class="cls-17" points="1416.54 770.52 1350.76 803.76 1287.27 772.01"/><line class="cls-17" x1="1350.76" y1="874.39" x2="1350.76" y2="803.76"/><polygon class="cls-18" points="2370.94 919.31 2580.94 1060.28 2790.43 888.38 2790.67 152.6 2368.79 164.6 2370.94 919.31"/><g class="cls-13"><polygon class="cls-19" points="2371.45 128.66 2455.28 129.8 2455.28 969.35 2371.45 969.35 2371.45 128.66"/><polygon class="cls-20" points="2486.92 969.35 2482.31 50.65 2552.29 51.41 2556.91 968.97 2486.92 969.35"/><polygon class="cls-21" points="2600.99 969.35 2605.6 128.66 2675.59 129.04 2670.98 968.6 2600.99 969.35"/></g><polygon class="cls-6" points="2406.01 848.98 2406.01 816.83 2438.29 800.52 2470.56 816.66 2470.56 848.49 2438.27 865.12 2406.01 848.98"/><path class="cls-7" d="M2438.29,801.84l31.09,15.55v30.38l-31.12,16-31.07-15.54V817.56l31.1-15.72m0-2.65-33.46,16.91v33.61l33.44,16.74,33.47-17.24V815.93l-33.45-16.74Z"/><line class="cls-22" x1="2358.28" y1="893.89" x2="2438.28" y2="830.38"/><polygon class="cls-23" points="2580.77 901.44 2580.77 869.29 2613.05 852.98 2645.32 869.13 2645.32 900.96 2613.03 917.58 2580.77 901.44"/><path class="cls-7" d="M2613.05,854.31l31.09,15.55v30.37l-31.12,16L2582,900.71V870l31.1-15.71m0-2.65-33.46,16.91v33.61L2613,918.91l33.47-17.23V868.39l-33.45-16.73Z"/><polygon class="cls-7" points="2784.76 865.41 2751.5 848.98 2715.03 867.64 2715.18 867.71 2715.34 900.99 2681.96 918.39 2648.43 901.82 2648.43 901.72 2578.6 937.44 2579.73 1161.93 2788.68 1053.03 2787.74 866.81 2784.76 865.41"/><polygon class="cls-6" points="2442.03 901.44 2442.03 869.29 2474.32 852.98 2506.59 869.13 2506.59 900.96 2474.29 917.58 2442.03 901.44"/><path class="cls-7" d="M2474.32,854.31l31.08,15.55v30.37l-31.12,16-31.06-15.54V870l31.1-15.71m0-2.65-33.46,16.91v33.61l33.45,16.73,33.47-17.23V868.39l-33.46-16.73Z"/><polygon class="cls-6" points="2475.49 955.15 2475.49 923 2507.78 906.69 2540.04 922.83 2540.04 954.66 2507.75 971.29 2475.49 955.15"/><path class="cls-7" d="M2507.78,908l31.08,15.55v30.38l-31.12,16-31.06-15.54V923.73l31.1-15.72m0-2.64-33.46,16.9v33.61l33.45,16.74,33.47-17.23V922.1l-33.46-16.73Z"/><polygon class="cls-6" points="2370.89 1057.44 2370.14 907.4 2404.56 924.4 2437.79 907.4 2470.14 923.38 2470.08 956.78 2510.34 976.66 2543.45 959.73 2577.61 976.7 2578.54 1160.02 2370.89 1057.44"/><path class="cls-7" d="M2437.8,908.72,2469,924.11l0,31.93v1.47l1.32.65,39.07,19.3,1.06.53,1.06-.54,32.05-16.4,33,16.38.17,31.83.74,148.85-205.27-101.4-.74-147.4,32.17,15.89,1.06.53,1.06-.54,32.18-16.47M2369,905.49l.76,152.69,210,103.75-.77-152.69-.17-33.28-35.35-17.56-33.11,16.94L2471.27,956l.05-33.4-33.54-16.57-33.23,17L2369,905.49Z"/><polygon class="cls-6" points="2370.64 901.44 2370.64 869.29 2402.92 852.98 2435.19 869.13 2435.19 900.96 2402.89 917.58 2370.64 901.44"/><path class="cls-7" d="M2402.92,854.31,2434,869.86v30.37l-31.11,16-31.07-15.54V870l31.1-15.71m0-2.65-33.47,16.91v33.61l33.45,16.73,33.47-17.23V868.39l-33.45-16.73Z"/><polygon class="cls-23" points="2546.23 953.6 2546.23 921.46 2578.52 905.14 2610.78 921.28 2610.78 953.12 2578.49 969.74 2546.23 953.6"/><path class="cls-7" d="M2578.52,906.47,2609.6,922v30.37l-31.12,16-31.06-15.54V922.18l31.1-15.71m0-2.65-33.46,16.91v33.61l33.45,16.73L2612,953.84V920.55l-33.46-16.73Z"/><line class="cls-24" x1="2589.53" y1="195.94" x2="2589.53" y2="167.41"/><line class="cls-24" x1="2589.53" y1="338.74" x2="2589.53" y2="327.3"/><line class="cls-24" x1="2589.53" y1="396.78" x2="2589.53" y2="365.95"/><line class="cls-24" x1="2646.5" y1="808.31" x2="2646.5" y2="524.25"/><line class="cls-24" x1="2718.69" y1="447.28" x2="2718.69" y2="427.79"/><line class="cls-24" x1="2718.69" y1="610.32" x2="2718.69" y2="477.03"/><line class="cls-24" x1="2938.11" y1="181.93" x2="2938.11" y2="162.44"/><line class="cls-24" x1="2938.11" y1="344.97" x2="2938.11" y2="211.68"/><line class="cls-24" x1="3019.48" y1="67.93" x2="3019.48" y2="48.45"/><line class="cls-24" x1="3019.48" y1="230.98" x2="3019.48" y2="97.69"/><line class="cls-24" x1="2474.31" y1="633.79" x2="2474.31" y2="616.83"/><line class="cls-24" x1="2474.31" y1="731.9" x2="2474.31" y2="670.98"/><line class="cls-24" x1="2579.21" y1="563.95" x2="2579.21" y2="546.98"/><line class="cls-24" x1="2579.21" y1="662.05" x2="2579.21" y2="582.91"/><line class="cls-24" x1="2832.66" y1="228.64" x2="2832.66" y2="211.68"/><line class="cls-24" x1="2832.66" y1="326.75" x2="2832.66" y2="247.6"/><line class="cls-24" x1="3133.72" y1="237.75" x2="3133.72" y2="220.79"/><line class="cls-24" x1="3133.72" y1="335.86" x2="3133.72" y2="256.71"/><line class="cls-24" x1="2402.91" y1="727.46" x2="2402.91" y2="675.83"/><polygon class="cls-23" points="2987.21 478.39 2987.21 446.24 3019.49 429.93 3051.76 446.07 3051.76 477.9 3019.46 494.53 2987.21 478.39"/><path class="cls-7" d="M3019.49,431.25l31.08,15.55v30.38l-31.11,16-31.07-15.54V447l31.1-15.72m0-2.65L2986,445.51v33.61l33.45,16.73,33.47-17.23V445.34l-33.46-16.74Z"/><polygon class="cls-7" points="3231.2 422.35 3197.94 405.92 3161.47 424.58 3161.61 424.65 3161.78 457.94 3088.4 495.33 3054.87 478.77 3054.87 478.66 2985.04 514.39 2986.17 738.88 3235.11 609.97 3235.74 428.1 3231.2 422.35"/><polygon class="cls-23" points="2952.67 530.55 2952.67 498.4 2984.95 482.09 3017.22 498.23 3017.22 530.06 2984.93 546.69 2952.67 530.55"/><path class="cls-7" d="M2985,483.41,3016,499v30.38l-31.12,16-31.07-15.54V499.13l31.1-15.72m0-2.65-33.46,16.91v33.61L2984.94,548l33.46-17.23V497.5L2985,480.76Z"/><polygon class="cls-6" points="2764.35 400.61 2764.35 368.46 2796.64 352.15 2828.9 368.29 2828.9 400.12 2796.61 416.75 2764.35 400.61"/><path class="cls-7" d="M2796.64,353.47,2827.72,369V399.4l-31.12,16-31.06-15.54V369.19l31.1-15.72m0-2.65-33.46,16.91v33.61l33.45,16.73,33.47-17.23V367.56l-33.46-16.74Z"/><polygon class="cls-6" points="2800.38 453.07 2800.38 420.92 2832.66 404.61 2864.93 420.75 2864.93 452.58 2832.64 469.21 2800.38 453.07"/><path class="cls-7" d="M2832.66,405.94l31.09,15.55v30.37l-31.12,16-31.07-15.54V421.65l31.1-15.71m0-2.65L2799.2,420.2v33.6l33.45,16.74,33.46-17.23V420l-33.45-16.73Z"/><polygon class="cls-6" points="2833.84 506.78 2833.84 474.63 2866.12 458.32 2898.39 474.46 2898.39 506.29 2866.1 522.92 2833.84 506.78"/><path class="cls-7" d="M2866.12,459.64l31.09,15.55v30.38l-31.12,16L2835,506.05V475.36l31.1-15.72m0-2.65-33.46,16.91v33.61l33.44,16.74L2899.57,507V473.73L2866.12,457Z"/><polygon class="cls-6" points="2728.98 453.07 2728.98 420.92 2761.26 404.61 2793.53 420.75 2793.53 452.58 2761.24 469.21 2728.98 453.07"/><path class="cls-7" d="M2761.27,405.94l31.08,15.55v30.37l-31.12,16-31.06-15.54V421.65l31.1-15.71m0-2.65L2727.8,420.2v33.6l33.45,16.74,33.47-17.23V420l-33.46-16.73Z"/><polygon class="cls-8" points="1778.39 476.47 1525.54 603 1717.99 699.23 1968.31 571.19 1778.39 476.47"/><polygon class="cls-9" points="1778.39 476.47 1525.54 603 1717.99 699.23 1968.31 571.19 1778.39 476.47"/><polygon class="cls-3" points="2327.65 1117.41 2261.88 1151.27 2261.88 1010.54 2327.65 977.3 2327.65 1117.41"/><polygon class="cls-2" points="2198.38 1119.52 2261.88 1151.27 2261.88 1009.05 2198.38 977.3 2198.38 1119.52"/><line class="cls-17" x1="2261.88" y1="1151.27" x2="2261.88" y2="1080.64"/><polygon class="cls-4" points="2264.15 944.81 2327.65 976.55 2261.88 1009.79 2198.38 978.04 2264.15 944.81"/><polygon class="cls-17" points="2198.38 1119.52 2198.38 978.04 2264.15 944.81 2327.65 976.55 2327.65 1117.41 2261.88 1151.27 2198.38 1119.52"/><polyline class="cls-17" points="2327.65 976.55 2261.88 1009.79 2198.38 978.04"/><line class="cls-17" x1="2261.88" y1="1080.42" x2="2261.88" y2="1009.79"/><polygon class="cls-6" points="1258.5 701.76 1258.5 330.5 1369.97 386.24 1369.97 757.5 1258.5 701.76"/><path class="cls-7" d="M1259.68,332.42,1368.79,387V755.58L1259.68,701V332.42m-2.37-3.83v373.9l113.85,56.92V385.51l-113.85-56.92Z"/><polygon class="cls-7" points="1490.76 699.61 1371.16 759.41 1371.16 385.51 1490.76 325.71 1490.76 362.56 1490.76 699.61"/><polygon class="cls-4" points="1259.23 329.16 1376.91 270.32 1488.84 326.28 1371.16 385.12 1259.23 329.16"/><path class="cls-3" d="M1376.91,271.28l110,55-115.75,57.88-110-55,115.75-57.88m0-1.92-119.6,59.8,113.85,56.92,119.6-59.8-113.85-56.92Z"/><polygon class="cls-8" points="1376.91 269.36 1257.31 329.16 1371.16 386.08 1490.76 326.28 1376.91 269.36"/><polygon class="cls-9" points="1376.91 269.36 1257.31 329.16 1371.16 386.08 1490.76 326.28 1376.91 269.36"/><polygon class="cls-7" points="976.08 382.19 942.63 365.45 909.16 382.36 909.16 415.97 942.61 432.7 976.08 415.47 976.08 382.19"/><polygon class="cls-7" points="903.99 383.19 870.54 366.45 837.08 383.36 837.08 416.97 870.52 433.7 903.99 416.47 903.99 383.19"/><polygon class="cls-7" points="906.56 418.29 873.1 435.2 873.1 468.8 906.55 485.54 940.02 468.31 940.02 435.02 906.56 418.29"/><polygon class="cls-7" points="835.17 420.29 801.7 437.2 801.7 470.8 835.15 487.54 868.62 470.31 868.62 437.02 835.17 420.29"/><polygon class="cls-7" points="708.56 403.91 675.1 420.82 675.1 454.43 708.55 471.16 742.02 453.93 742.02 420.64 708.56 403.91"/><polygon class="cls-7" points="672.56 350.82 639.1 367.73 639.1 401.34 672.55 418.07 706.02 400.84 706.02 367.56 672.56 350.82"/><polygon class="cls-7" points="801.7 330.2 801.7 363.8 835.15 380.54 868.62 363.31 868.62 330.02 835.17 313.29 801.7 330.2"/><polygon class="cls-7" points="766.37 383.36 766.37 416.97 799.82 433.7 833.29 416.47 833.29 383.19 799.83 366.45 766.37 383.36"/><polygon class="cls-6" points="98.88 696.67 98.88 414.95 285.95 508.5 285.95 790.21 98.88 696.67"/><path class="cls-7" d="M100.06,416.88l184.71,92.35V788.29L100.06,695.94V416.88m-1.28-3.16a1.08,1.08,0,0,0-1.08,1.08V696.74a1.07,1.07,0,0,0,.6,1l187.27,93.64a1.07,1.07,0,0,0,.49.12,1.09,1.09,0,0,0,1.08-1.09V508.44a1.08,1.08,0,0,0-.6-1L99.26,413.83a1.05,1.05,0,0,0-.48-.11Z"/><polygon class="cls-7" points="424.13 723.63 287.14 792.12 287.14 507.77 424.13 439.27 424.13 487.64 424.13 723.63"/><polygon class="cls-8" points="234.69 345.31 97.7 413.8 287.14 508.52 424.13 440.02 234.69 345.31"/><polygon class="cls-7" points="783.96 413.01 531.7 540.66 785.86 667.74 1039.64 540.85 783.96 413.01"/><polygon class="cls-25" points="682.61 -154.63 762.33 -153.5 762.33 662.05 682.61 662.05 682.61 -154.63"/><polygon class="cls-6" points="533.24 820.68 532.48 460.35 566.9 477.35 600.13 460.34 632.48 476.32 632.42 509.72 671.2 529 671.2 527.69 703.48 511.38 735.75 527.52 735.75 545.9 753.79 536.67 787.96 553.64 788.12 586.2 784.7 947.84 533.24 820.68"/><path class="cls-7" d="M600.14,461.67l31.15,15.39,0,31.92v1.47l1.31.66L669,529.21l3.42,1.7v-2.49l31.11-15.72,31.08,15.55v19.59l3.44-1.77L753.8,538l33,16.38.16,31.79-3.41,359.76L534.42,820l-.76-357.7,32.18,15.9,1.07.52,1.06-.54,32.17-16.46m-68.85-3.23.77,363,253.8,128.35,3.44-363.57-.16-33.29-35.36-17.55L736.94,544V526.79l-33.46-16.74L670,527v.13L633.61,509l0-33.4L600.13,459l-33.24,17-35.6-17.58Z"/><polygon class="cls-7" points="1039.64 822.87 785.86 949.76 785.86 597.74 1039.64 470.85 1039.64 822.87"/><polygon class="cls-10" points="1184.19 614.54 931.34 741.07 1123.79 837.3 1374.11 709.26 1184.19 614.54"/><polygon class="cls-17" points="1184.19 614.54 931.34 741.07 1123.79 837.3 1374.11 709.26 1184.19 614.54"/><polygon class="cls-2" points="931.34 1022.58 1121.26 1118.05 1121.26 836.32 931.34 740.84 931.34 1022.58"/><polygon class="cls-3" points="1374.11 991.52 1121.26 1118.05 1121.26 835.79 1374.11 709.26 1374.11 991.52"/><polygon class="cls-10" points="1121.26 906.1 1057.96 874.43 1186.05 812.3 1247.31 842.93 1121.26 906.1"/><polygon class="cls-3" points="1057.96 804.24 1184.87 739.78 1186.05 812.3 1057.96 876.84 1057.96 804.24"/><polygon class="cls-2" points="1247.68 772.67 1184.19 740.92 1184.19 811.55 1247.68 844.25 1247.68 772.67"/><polygon class="cls-10" points="847.77 1082.07 911.27 1113.82 845.5 1147.06 782 1115.31 847.77 1082.07"/><polygon class="cls-3" points="911.27 1183.82 845.5 1217.68 845.5 1147.06 911.27 1113.82 911.27 1183.82"/><polygon class="cls-2" points="782 1185.93 845.5 1217.68 845.5 1147.06 782 1115.31 782 1185.93"/><polygon class="cls-17" points="847.77 1082.07 782 1115.31 782 1185.93 845.5 1217.68 911.27 1183.82 911.27 1113.82 847.77 1082.07"/><polyline class="cls-17" points="911.27 1113.82 845.5 1147.06 782 1115.31"/><line class="cls-17" x1="845.5" y1="1217.68" x2="845.5" y2="1147.06"/><polygon class="cls-26" points="172.85 905.49 382.85 1046.47 592.34 874.57 592.58 138.79 170.7 150.79 172.85 905.49"/><g class="cls-13"><polygon class="cls-27" points="173.36 114.85 257.18 115.99 257.18 955.54 173.36 955.54 173.36 114.85"/><polygon class="cls-28" points="288.83 955.54 284.22 36.84 354.2 37.59 358.82 955.16 288.83 955.54"/><polygon class="cls-29" points="402.9 955.54 407.51 114.85 477.5 115.23 472.89 954.78 402.9 955.54"/></g><polygon class="cls-6" points="209.91 848.98 209.91 816.83 242.19 800.52 274.46 816.66 274.46 848.49 242.17 865.12 209.91 848.98"/><path class="cls-7" d="M242.2,801.84l31.08,15.55v30.38l-31.12,16L211.1,848.25V817.56l31.1-15.72m0-2.65L208.73,816.1v33.61l33.45,16.74,33.47-17.24V815.93l-33.46-16.74Z"/><line class="cls-22" x1="162.19" y1="893.89" x2="242.19" y2="830.38"/><polygon class="cls-23" points="384.67 901.44 384.67 869.29 416.95 852.98 449.22 869.13 449.22 900.96 416.93 917.58 384.67 901.44"/><path class="cls-7" d="M417,854.31,448,869.86v30.37l-31.12,16-31.06-15.54V870L417,854.31m0-2.65-33.46,16.91v33.61l33.45,16.73,33.47-17.23V868.39L417,851.66Z"/><polygon class="cls-7" points="588.66 865.41 555.41 848.98 518.94 867.64 519.08 867.71 519.25 900.99 485.87 918.39 452.33 901.82 452.33 901.72 382.5 937.44 383.63 1161.93 592.58 1053.03 591.64 866.81 588.66 865.41"/><polygon class="cls-6" points="245.94 901.44 245.94 869.29 278.22 852.98 310.49 869.13 310.49 900.96 278.2 917.58 245.94 901.44"/><path class="cls-7" d="M278.22,854.31l31.09,15.55v30.37l-31.12,16-31.07-15.54V870l31.1-15.71m0-2.65-33.46,16.91v33.61l33.44,16.73,33.47-17.23V868.39l-33.45-16.73Z"/><polygon class="cls-6" points="279.4 955.15 279.4 923 311.68 906.69 343.95 922.83 343.95 954.66 311.65 971.29 279.4 955.15"/><path class="cls-7" d="M311.68,908l31.08,15.55v30.38l-31.11,16-31.07-15.54V923.73L311.68,908m0-2.64-33.47,16.9v33.61l33.45,16.74,33.47-17.23V922.1l-33.45-16.73Z"/><polygon class="cls-6" points="174.8 1057.44 174.04 907.4 208.46 924.4 241.7 907.4 274.04 923.38 273.99 956.78 314.25 976.66 347.35 959.73 381.52 976.7 382.44 1160.02 174.8 1057.44"/><path class="cls-7" d="M241.71,908.72l31.15,15.39L272.8,956v1.47l1.32.65,39.07,19.3,1.07.53,1.06-.54,32-16.4,33,16.38.16,31.83.75,148.85L176,1056.71l-.74-147.4L207.4,925.2l1.07.53,1.06-.54,32.18-16.47m-68.86-3.23.77,152.69,210,103.75-.76-152.69L382.7,976,347.35,958.4l-33.11,16.94L275.17,956l.06-33.4-33.54-16.57-33.24,17-35.6-17.59Z"/><polygon class="cls-6" points="174.54 901.44 174.54 869.29 206.82 852.98 239.09 869.13 239.09 900.96 206.8 917.58 174.54 901.44"/><path class="cls-7" d="M206.83,854.31l31.08,15.55v30.37l-31.12,16-31.06-15.54V870l31.1-15.71m0-2.65-33.46,16.91v33.61l33.45,16.73,33.47-17.23V868.39l-33.46-16.73Z"/><polygon class="cls-23" points="350.14 953.6 350.14 921.46 382.42 905.14 414.69 921.28 414.69 953.12 382.39 969.74 350.14 953.6"/><path class="cls-7" d="M382.42,906.47,413.5,922v30.37l-31.11,16-31.07-15.54V922.18l31.1-15.71m0-2.65L349,920.73v33.61l33.45,16.73,33.47-17.23V920.55l-33.45-16.73Z"/><line class="cls-24" x1="393.44" y1="195.94" x2="393.44" y2="167.41"/><line class="cls-24" x1="393.44" y1="338.74" x2="393.44" y2="327.3"/><line class="cls-24" x1="393.44" y1="396.78" x2="393.44" y2="365.95"/><line class="cls-24" x1="450.41" y1="808.31" x2="450.41" y2="524.25"/><line class="cls-24" x1="522.6" y1="447.28" x2="522.6" y2="427.79"/><line class="cls-24" x1="522.6" y1="610.32" x2="522.6" y2="477.03"/><line class="cls-24" x1="742.02" y1="181.93" x2="742.02" y2="162.44"/><line class="cls-24" x1="742.02" y1="344.97" x2="742.02" y2="211.68"/><line class="cls-24" x1="823.38" y1="67.93" x2="823.38" y2="48.45"/><line class="cls-24" x1="823.38" y1="230.98" x2="823.38" y2="97.69"/><line class="cls-24" x1="278.21" y1="633.79" x2="278.21" y2="616.83"/><line class="cls-24" x1="278.21" y1="731.9" x2="278.21" y2="670.98"/><line class="cls-24" x1="383.12" y1="563.95" x2="383.12" y2="546.98"/><line class="cls-24" x1="383.12" y1="662.05" x2="383.12" y2="582.91"/><line class="cls-24" x1="636.56" y1="228.64" x2="636.56" y2="211.68"/><line class="cls-24" x1="636.56" y1="326.75" x2="636.56" y2="247.6"/><line class="cls-24" x1="937.62" y1="237.75" x2="937.62" y2="220.79"/><line class="cls-24" x1="937.62" y1="335.86" x2="937.62" y2="256.71"/><line class="cls-24" x1="206.82" y1="727.46" x2="206.82" y2="675.83"/><g class="cls-13"><polygon class="cls-30" points="532.94 -308.2 612.67 -307.07 612.67 508.49 532.94 508.49 532.94 -308.2"/><polygon class="cls-31" points="809.34 532.49 813.95 -308.2 883.94 -307.82 879.32 531.73 809.34 532.49"/></g><polygon class="cls-23" points="791.11 478.39 791.11 446.24 823.39 429.93 855.66 446.07 855.66 477.9 823.37 494.53 791.11 478.39"/><path class="cls-7" d="M823.39,431.25l31.09,15.55v30.38l-31.12,16-31.07-15.54V447l31.1-15.72m0-2.65-33.46,16.91v33.61l33.45,16.73,33.46-17.23V445.34L823.39,428.6Z"/><polygon class="cls-7" points="1035.1 422.35 1001.84 405.92 965.38 424.58 965.52 424.65 965.68 457.94 892.3 495.33 858.77 478.77 858.77 478.66 788.94 514.39 790.07 738.88 1039.02 609.97 1039.64 428.1 1035.1 422.35"/><polygon class="cls-23" points="756.58 530.55 756.58 498.4 788.86 482.09 821.13 498.23 821.13 530.06 788.83 546.69 756.58 530.55"/><path class="cls-7" d="M788.86,483.41,819.94,499v30.38l-31.12,16-31.06-15.54V499.13l31.1-15.72m0-2.65-33.46,16.91v33.61L788.84,548l33.47-17.23V497.5l-33.46-16.74Z"/><polygon class="cls-6" points="568.26 400.61 568.26 368.46 600.54 352.15 632.81 368.29 632.81 400.12 600.52 416.75 568.26 400.61"/><path class="cls-7" d="M600.54,353.47,631.63,369V399.4l-31.12,16-31.07-15.54V369.19l31.1-15.72m0-2.65-33.46,16.91v33.61l33.44,16.73L634,400.84V367.56l-33.45-16.74Z"/><polygon class="cls-6" points="604.28 453.07 604.28 420.92 636.57 404.61 668.84 420.75 668.84 452.58 636.54 469.21 604.28 453.07"/><path class="cls-7" d="M636.57,405.94l31.08,15.55v30.37l-31.12,16-31.06-15.54V421.65l31.1-15.71m0-2.65L603.1,420.2v33.6l33.45,16.74L670,453.31V420l-33.46-16.73Z"/><polygon class="cls-6" points="637.74 506.78 637.74 474.63 670.02 458.32 702.29 474.46 702.29 506.29 670 522.92 637.74 506.78"/><path class="cls-7" d="M670,459.64l31.08,15.55v30.38l-31.12,16-31.06-15.54V475.36L670,459.64m0-2.65L636.56,473.9v33.61L670,524.25,703.48,507V473.73L670,457Z"/><polygon class="cls-6" points="532.89 453.07 532.89 420.92 565.17 404.61 597.44 420.75 597.44 452.58 565.14 469.21 532.89 453.07"/><path class="cls-7" d="M565.17,405.94l31.08,15.55v30.37l-31.11,16-31.07-15.54V421.65l31.1-15.71m0-2.65L531.7,420.2v33.6l33.45,16.74,33.47-17.23V420l-33.45-16.73Z"/><path class="cls-32" d="M1531.68,723.6a28.81,28.81,0,0,1-7,12.5c-5.5,5.67-19,21-11.5,26s37.13-8.94,42.46-21.27c-3.55-12.88-2.46-18.73-2.46-18.73Z"/><path class="cls-32" d="M1570.68,747.6s-3.67,16.34-5,23.34-5,31.33,6.66,31S1592,786.27,1593,772.77s-1.67-25.17-3.33-25.17Z"/><path class="cls-32" d="M1585.74,585.84s-42.06,26.43-46.06,36.76-6.67,14.34-6,24.34,1.66,64.66-1.67,73.33a7.19,7.19,0,0,0-1.75,4.44c0,2.56,22,7.56,24.08-1.11,4.26-17.69,6-51.66,6-51.66s-.62-19.08,5.67-23.34c11.33-7.66,33.67-27.66,48.33-46C1608.68,577.94,1585.74,585.84,1585.74,585.84Z"/><path class="cls-32" d="M1668.82,589.52s2,30-4.5,39.5-66.56,35.75-66.56,35.75-4.5,11.75-3,15.5,3.75,57-2.25,71.5-22.25,7-24-1c-.75-17.75-3-49.25-3.5-56.75s-9.25-32,.25-46,49.08-45.42,49.08-45.42Z"/><path class="cls-32" d="M1605.51,481.13s-4.25.39-8,9.14-10.25,63.5-10.25,63.5l-19,37.75s9,14.5,19,6.75,21.25-40.69,21.25-40.69l8-56.82S1617,482.75,1605.51,481.13Z"/><path class="cls-33" d="M1671.76,499.27S1648,481.52,1640,481s-31-.77-34.5.11c-2.5,21.39-11.42,31.43-12.5,40.64-1.17,10,8.5,21,8.5,21s1,25-2.25,28-13.21,12.33-13.52,15.07c-1.4,12.43,65.27,39.93,83,15.93.75-27-2.5-30.5-3.75-39S1678.26,516.77,1671.76,499.27Z"/><path class="cls-34" d="M1623.1,477.6s-3.59,20.67,3.66,22.92,18.25-12.25,17.75-16.5l4.61-27.92Z"/><path class="cls-35" d="M1622.32,491.23c8.72-2.1,19.66-9.4,24.75-22.69l2-12.44-26,21.5A65.67,65.67,0,0,0,1622.32,491.23Z"/><path class="cls-34" d="M1645.69,413.79a17.09,17.09,0,0,0-17.33-8c-7.6,1.22-18.68,4.15-24.35,11.16-12.67,15.66-11.67,26.66-5.67,43.33,0,0,9.34,25.67,20,26.33s31-10,33.34-34.66C1653.24,435.45,1650.78,422.24,1645.69,413.79Z"/><polygon class="cls-32" points="1603.7 653.73 1513.66 608.71 1513.66 604.45 1603.7 649.47 1603.7 653.73"/><polygon class="cls-32" points="1603.7 653.73 1654.49 628.34 1654.49 624.08 1603.7 649.47 1603.7 653.73"/><polygon class="cls-36" points="1513.66 604.45 1564.44 579.06 1654.49 624.08 1603.7 649.47 1513.66 604.45"/><path class="cls-34" d="M1631.68,610.28s-5.42,13.19-13.43,13.52-10.55-4.84-9.13-10.91S1624.54,600,1624.54,600Z"/><path class="cls-34" d="M1602.1,609.34a2.92,2.92,0,0,0-.06,2.5,2,2,0,0,0,3.08.55l4.92-3.79,9.24-.66a3,3,0,0,0,2.52-2.79,2,2,0,0,0-2-2.47l-9.92.72a2.43,2.43,0,0,0-1.28.51l-5.53,4.25A3.16,3.16,0,0,0,1602.1,609.34Z"/><path class="cls-34" d="M1597.28,618a2.46,2.46,0,0,0-.14.38,2,2,0,0,0,1.15,2.64l5.39,1.23a1.92,1.92,0,0,0,1.44-.31l8.16-5.43a2.74,2.74,0,0,0,1-3.12,1.65,1.65,0,0,0-2.57-.7l-7.44,5-4.66-1.07A2.27,2.27,0,0,0,1597.28,618Z"/><path class="cls-34" d="M1597.35,623.13c-.06.13-.1.25-.15.38a2,2,0,0,0,1.16,2.64l6.66,1.51a1.91,1.91,0,0,0,1.65-.47c2.91-2.44,6.24-5.17,7-5.7a2.78,2.78,0,0,0,1.44-2.19,1.75,1.75,0,0,0-1.75-2.11c-.73,0-.94.07-7.84,5.84l-5.79-1.31A2.25,2.25,0,0,0,1597.35,623.13Zm15.6-1.44Z"/><path class="cls-34" d="M1603.28,627.25a2.66,2.66,0,0,0-.26,1.39,1.65,1.65,0,0,0,2.15,1.58c.85-.26,5.16-1.58,6-1.9.41-.15,1.25-.48,6.28-5.75a2.57,2.57,0,0,0,.39-3.19,1.77,1.77,0,0,0-2.75.09c-1.8,1.88-4.06,4.12-4.75,4.66-.84.29-3.75,1.19-5.53,1.74A2.54,2.54,0,0,0,1603.28,627.25Z"/><path class="cls-34" d="M1610.21,629.23a2.63,2.63,0,0,0-.14,2,1.64,1.64,0,0,0,2.55.78l3.77-2.38a2.48,2.48,0,0,0,.53-.45l7-7.77a2.54,2.54,0,0,0,.3-3.19,1.8,1.8,0,0,0-2.77.2l-6.78,7.51-3.49,2.2A2.73,2.73,0,0,0,1610.21,629.23Z"/><path class="cls-32" d="M1670.67,499.27c-9-3.85-15.42,22-17.09,35.33s-2.53,35.34-2.53,35.34l-31,31s9.37,6.62,8.47,15.29c18.43-9.67,39.65-33.33,42.87-41S1685.42,505.6,1670.67,499.27Z"/><path class="cls-32" d="M1603.7,648.82l-89.26-44.76-12.33-57.93c0-3.59,2.64-5.22,5.86-3.61l77.56,38.91a11.62,11.62,0,0,1,5.85,9.47Z"/><path class="cls-37" d="M2159.42,848.22a31,31,0,0,0,7.52,13.43c5.9,6.08,20.4,22.55,12.34,27.92s-39.86-9.61-45.59-22.85c3.81-13.83,2.64-20.11,2.64-20.11Z"/><path class="cls-37" d="M2117.54,874s3.94,17.53,5.37,25,5.37,33.65-7.16,33.29-21.12-16.82-22.19-31.32,1.79-27,3.58-27Z"/><path class="cls-37" d="M2101.36,700.29s45.17,28.38,49.47,39.48,7.16,15.39,6.44,26.13-1.79,69.44,1.79,78.74a7.72,7.72,0,0,1,1.88,4.77c0,2.75-23.62,8.12-25.86-1.19-4.57-19-6.45-55.48-6.45-55.48s.68-20.48-6.08-25c-12.17-8.24-36.15-29.71-51.9-49.4C2076.73,691.8,2101.36,700.29,2101.36,700.29Z"/><path class="cls-37" d="M2012.15,704.24s-2.2,32.21,4.84,42.42,71.47,38.39,71.47,38.39,4.83,12.61,3.22,16.64-4,61.21,2.41,76.78,23.9,7.52,25.78-1.07c.8-19.06,3.22-52.89,3.75-60.94s9.94-34.37-.26-49.4-52.71-48.77-52.71-48.77Z"/><path class="cls-32" d="M2080.13,587.85s4.57.42,8.59,9.81,11,68.19,11,68.19l20.4,40.54s-9.66,15.57-20.4,7.25-22.82-43.7-22.82-43.7l-8.59-61S2067.78,589.58,2080.13,587.85Z"/><path class="cls-33" d="M2009,607.33s25.51-19.06,34.1-19.6,33.28-.83,37,.12c2.69,23,12.27,33.74,13.43,43.64,1.25,10.74-9.13,22.55-9.13,22.55s-1.08,26.84,2.41,30.07,14.19,13.23,14.52,16.18c1.5,13.35-70.09,42.88-89.15,17.1-.8-29,2.69-32.75,4-41.88S2002,626.12,2009,607.33Z"/><path class="cls-34" d="M2061.24,584.06s3.86,22.19-3.93,24.61-19.59-13.16-19.06-17.72l-5-30Z"/><path class="cls-35" d="M2062.08,598.69c-9.36-2.25-21.11-10.1-26.57-24.36L2033.3,561l27.94,23.09A70,70,0,0,1,2062.08,598.69Z"/><path class="cls-34" d="M2037,515.54a18.35,18.35,0,0,1,18.61-8.6c8.16,1.3,20.06,4.45,26.14,12,13.61,16.83,12.53,28.64,6.09,46.54,0,0-10,27.56-21.48,28.27s-33.29-10.73-35.79-37.22C2028.88,538.79,2031.53,524.6,2037,515.54Z"/><polygon class="cls-32" points="2082.07 773.19 2178.77 724.84 2178.77 720.27 2082.07 768.62 2082.07 773.19"/><polygon class="cls-32" points="2082.07 773.19 2027.54 745.92 2027.54 741.35 2082.07 768.62 2082.07 773.19"/><polygon class="cls-36" points="2178.77 720.27 2124.24 693 2027.54 741.35 2082.07 768.62 2178.77 720.27"/><path class="cls-34" d="M2052,726.53s5.82,14.17,14.42,14.52,11.32-5.2,9.8-11.71-16.56-13.87-16.56-13.87Z"/><path class="cls-34" d="M2083.8,725.52a3.17,3.17,0,0,1,.06,2.69,2.08,2.08,0,0,1-3.3.58l-5.3-4.06-9.91-.71a3.26,3.26,0,0,1-2.71-3,2.2,2.2,0,0,1,2.19-2.65l10.64.77a2.56,2.56,0,0,1,1.38.55l5.94,4.56A3.56,3.56,0,0,1,2083.8,725.52Z"/><path class="cls-34" d="M2089,734.87c.06.13.11.26.16.4a2.11,2.11,0,0,1-1.25,2.84l-5.78,1.32a2,2,0,0,1-1.55-.34l-8.75-5.83a2.94,2.94,0,0,1-1.14-3.34,1.77,1.77,0,0,1,2.76-.76l8,5.33,5-1.15A2.43,2.43,0,0,1,2089,734.87Z"/><path class="cls-34" d="M2086.34,738.81l-6.22,1.41c-7.4-6.2-7.63-6.21-8.42-6.27a1.88,1.88,0,0,0-1.87,2.27,3,3,0,0,0,1.54,2.35c.82.57,4.39,3.5,7.52,6.12a2.09,2.09,0,0,0,1.77.51l7.15-1.63a2.09,2.09,0,0,0,1.24-2.83,2.86,2.86,0,0,0-.15-.41A2.42,2.42,0,0,0,2086.34,738.81Zm-14.19,0Z"/><path class="cls-34" d="M2082.53,744.76a2.84,2.84,0,0,1,.28,1.49,1.77,1.77,0,0,1-2.31,1.69c-.92-.28-5.54-1.69-6.41-2-.44-.17-1.34-.52-6.75-6.18a2.76,2.76,0,0,1-.41-3.43,1.9,1.9,0,0,1,3,.1c1.93,2,4.36,4.42,5.1,5,.9.31,4,1.29,5.94,1.87A2.71,2.71,0,0,1,2082.53,744.76Z"/><path class="cls-34" d="M2075.09,746.89a2.72,2.72,0,0,1,.14,2.09,1.76,1.76,0,0,1-2.73.84l-4.05-2.56a2.85,2.85,0,0,1-.57-.47l-7.54-8.35A2.71,2.71,0,0,1,2060,735a1.91,1.91,0,0,1,3,.21l7.29,8.06,3.75,2.37A2.88,2.88,0,0,1,2075.09,746.89Z"/><path class="cls-32" d="M2010.17,607.33c9.62-4.13,16.55,23.62,18.34,37.94s2.72,37.94,2.72,37.94l33.32,33.33s-10.06,7.12-9.09,16.42c-19.79-10.38-42.58-35.79-46-44S1994.33,614.13,2010.17,607.33Z"/><path class="cls-32" d="M2082.07,767.92l95.86-48.07,13.23-62.2c0-3.86-2.82-5.61-6.28-3.88l-83.29,41.78a12.49,12.49,0,0,0-6.28,10.17Z"/><path class="cls-37" d="M3427.53,969.88A31,31,0,0,0,3435,983.3c5.91,6.09,20.41,22.55,12.35,27.92s-39.87-9.6-45.59-22.84c3.81-13.83,2.64-20.11,2.64-20.11Z"/><path class="cls-37" d="M3385.65,995.65s3.93,17.54,5.37,25.06,5.37,33.65-7.16,33.29-21.12-16.82-22.2-31.32,1.79-27,3.58-27Z"/><path class="cls-37" d="M3369.47,822s45.17,28.38,49.47,39.47,7.15,15.39,6.44,26.13-1.79,69.44,1.79,78.75a7.69,7.69,0,0,1,1.88,4.77c0,2.75-23.63,8.12-25.86-1.19-4.57-19-6.45-55.48-6.45-55.48s.68-20.48-6.08-25.06c-12.17-8.23-36.15-29.71-51.9-49.39C3344.84,813.46,3369.47,822,3369.47,822Z"/><path class="cls-37" d="M3280.26,825.9s-2.2,32.21,4.84,42.41,71.46,38.39,71.46,38.39,4.84,12.62,3.23,16.65-4,61.21,2.41,76.78,23.89,7.51,25.77-1.08c.81-19.06,3.22-52.88,3.76-60.94s9.93-34.36-.27-49.39-52.7-48.77-52.7-48.77Z"/><path class="cls-32" d="M3348.24,709.51s4.57.41,8.59,9.81,11,68.19,11,68.19l20.4,40.53s-9.66,15.58-20.4,7.25S3345,791.6,3345,791.6l-8.59-61S3335.89,711.24,3348.24,709.51Z"/><path class="cls-33" d="M3277.1,729s25.5-19.06,34.09-19.59,33.29-.84,37,.12c2.69,23,12.27,33.74,13.42,43.63,1.26,10.74-9.12,22.55-9.12,22.55s-1.08,26.85,2.41,30.07S3369.14,819,3369.47,822c1.5,13.34-70.09,42.87-89.15,17.1-.8-29,2.69-32.75,4-41.88S3270.12,747.78,3277.1,729Z"/><path class="cls-34" d="M3329.35,705.72s3.86,22.19-3.93,24.61-19.59-13.16-19.06-17.72l-5-30Z"/><path class="cls-35" d="M3330.19,720.35c-9.36-2.26-21.11-10.1-26.57-24.37l-2.21-13.35,27.94,23.09A70,70,0,0,1,3330.19,720.35Z"/><path class="cls-34" d="M3305.1,637.2a18.34,18.34,0,0,1,18.61-8.61c8.15,1.31,20.06,4.46,26.14,12,13.6,16.82,12.53,28.64,6.09,46.53,0,0-10,27.57-21.48,28.28s-33.29-10.74-35.79-37.23C3297,660.45,3299.63,646.26,3305.1,637.2Z"/><polygon class="cls-32" points="3350.18 894.85 3446.88 846.5 3446.88 841.92 3350.18 890.27 3350.18 894.85"/><polygon class="cls-32" points="3350.18 894.85 3295.65 867.58 3295.65 863.01 3350.18 890.27 3350.18 894.85"/><polygon class="cls-36" points="3446.88 841.92 3392.34 814.66 3295.65 863.01 3350.18 890.27 3446.88 841.92"/><path class="cls-34" d="M3320.14,848.19s5.82,14.16,14.42,14.51,11.33-5.19,9.81-11.7-16.56-13.87-16.56-13.87Z"/><path class="cls-34" d="M3351.9,847.18a3.14,3.14,0,0,1,.07,2.69,2.09,2.09,0,0,1-3.31.58l-5.29-4.06-9.91-.72a3.23,3.23,0,0,1-2.71-3,2.19,2.19,0,0,1,2.18-2.65l10.65.77a2.5,2.5,0,0,1,1.37.55l5.94,4.56A3.45,3.45,0,0,1,3351.9,847.18Z"/><path class="cls-34" d="M3357.08,856.53c.06.13.11.26.16.4a2.1,2.1,0,0,1-1.25,2.83l-5.78,1.32a2,2,0,0,1-1.55-.33l-8.76-5.83a3,3,0,0,1-1.13-3.35,1.77,1.77,0,0,1,2.76-.75l8,5.32,5-1.14A2.42,2.42,0,0,1,3357.08,856.53Z"/><path class="cls-34" d="M3354.45,860.47l-6.22,1.41c-7.41-6.2-7.64-6.22-8.42-6.27a1.87,1.87,0,0,0-1.87,2.27,3,3,0,0,0,1.54,2.34c.82.57,4.39,3.5,7.51,6.13a2.08,2.08,0,0,0,1.78.5l7.15-1.62a2.1,2.1,0,0,0,1.24-2.83,2.05,2.05,0,0,0-.16-.41A2.4,2.4,0,0,0,3354.45,860.47Zm-14.19,0Z"/><path class="cls-34" d="M3350.64,866.41a3,3,0,0,1,.28,1.5,1.77,1.77,0,0,1-2.31,1.69c-.92-.28-5.54-1.7-6.41-2-.44-.16-1.35-.52-6.75-6.17A2.75,2.75,0,0,1,3335,858a1.89,1.89,0,0,1,2.95.1c1.93,2,4.35,4.42,5.1,5,.9.31,4,1.28,5.94,1.87A2.72,2.72,0,0,1,3350.64,866.41Z"/><path class="cls-34" d="M3343.2,868.54a2.8,2.8,0,0,1,.14,2.1,1.76,1.76,0,0,1-2.73.84l-4.05-2.56a2.6,2.6,0,0,1-.57-.48l-7.54-8.35a2.72,2.72,0,0,1-.32-3.42,1.92,1.92,0,0,1,3,.22l7.29,8.06,3.75,2.37A3,3,0,0,1,3343.2,868.54Z"/><path class="cls-32" d="M3278.27,729c9.63-4.13,16.56,23.63,18.35,37.95s2.72,37.94,2.72,37.94l33.32,33.33s-10.06,7.12-9.09,16.42c-19.79-10.38-42.58-35.79-46-44S3262.44,735.78,3278.27,729Z"/><path class="cls-37" d="M3350.18,889.57,3446,841.5l13.23-62.19c0-3.87-2.83-5.62-6.28-3.89L3369.7,817.2a12.51,12.51,0,0,0-6.28,10.17Z"/><path class="cls-34" d="M816.61,793.35s-10.76,20,5.12,33.28,12-25.8,12-25.8l-6.82-7.48Z"/><path class="cls-34" d="M835.66,734.38c1.11-8.81,5.43-44.51,5.56-66.2,0-8.39-10.64-12.53-15.91-6a6.26,6.26,0,0,0-.49.66c-3.83,5.66-8.18,57.6-9.13,69.42l-.41,65.89s3,6.36,14,1.05C833.7,785.52,835.66,734.38,835.66,734.38Z"/><path class="cls-33" d="M850.11,986.28s3.62,13.65,1.71,17.34c-2.63,2.12-5.61,1.93-10.66,4.25-6.28,2.88-19.91,18.53-27.66,14.48s18.77-34.29,18.77-34.29Z"/><path class="cls-32" d="M860.77,852.74s-2.38,25.47-4.76,34.65-3.3,98.89-3.3,98.89-10.22,11.61-25.58,5.39c0,0-6.11-103.94-6.45-119.91s3.06-70.83,3.06-70.83,19.87-4.24,35.33,4.25S860.77,852.74,860.77,852.74Z"/><path class="cls-33" d="M899,1020.44s1.74,21.5-.61,25.16-24.11,21.18-30.67,18.38c-11.16-4.74,10.53-24.39,10.47-33.53S899,1020.44,899,1020.44Z"/><path class="cls-32" d="M899.92,804.5s7.13,18.85,5.09,35.92-3.48,101.32-2.46,117.28-1.94,61.41-1.94,61.41-11.25,20.16-25.68,13.77c0-21.74-10.43-104.56-11.45-117.81S859.07,846,859.07,846s-25.38-6.12-35.33-45C849.89,794.48,899.92,804.5,899.92,804.5Z"/><path class="cls-33" d="M911.76,696.84A26.47,26.47,0,0,0,903,676.12c-8.25-7.55-22-18.91-31.85-20.92-15-3.06-42.88-1.18-44.59,9.17-11.54,69.86-2.8,136.56-2.8,136.56s34.65,27.77,76.18,3.57C899.15,777.24,909.71,737.07,911.76,696.84Z"/><path class="cls-34" d="M837.37,698.72c-10.08-11.16-6.26-35.55,11.09-44.51a84.33,84.33,0,0,1,22.67,1c4.89,1,10.73,4.29,16.38,8.27h0s-11,12.94-14.79,22.34C866.41,701.35,849.71,712.39,837.37,698.72Z"/><path class="cls-34" d="M876.48,633.8v29.3s-3.32,8.15-15.8,7.64-12.23-6.88-12.23-6.88V647.81Z"/><path class="cls-34" d="M876.48,580.38c-15.6-12.64-34.39-1.12-43,6.37-7.14,6.25-8.47,22.37-5.66,33.19s9.32,32.93,19.5,32.33,26.41-6.36,35.16-28.91S887.38,589.21,876.48,580.38Z"/><path class="cls-33" d="M825.54,670.77s-7.77,31.11-12.8,37.32c-7.82,8.75-4.16,30.49,20.65,29.47s12.45-20,10.14-21.4-13.19-20.22-13.19-20.22Z"/><path class="cls-34" d="M889.39,761.2c4.92-6.91,30.53-67.77,16.24-75.74-12.27-6.83-18.51,19.68-23.14,32.57s-7.3,33-7.3,33-3.59,7.26,2.21,9.34A25.45,25.45,0,0,0,889.39,761.2Z"/><path class="cls-34" d="M888.87,761.83c6.89-13.78-40.42-47-40.42-47s-11.22-8.34-11.18,5.93C842.36,735.82,882,775.62,888.87,761.83Z"/><path class="cls-34" d="M819.77,690.24s2.46-4.67,5.26-5.18-1.19,7.64-1.19,7.64Z"/><path class="cls-33" d="M843,700.22l-14.22,4a2,2,0,0,1-2.41-1.35l-9.63-34a2,2,0,0,1,2.26-2.45l15.55,3.14A1.93,1.93,0,0,1,836,671l8.3,26.8A2,2,0,0,1,843,700.22Z"/><path class="cls-34" d="M848.45,714.87s-8.13,9.68-13.74,4.58c-1.83-1.66-8.89-7.93-10.36-10.33-3-4.94.39-6.65.78-10.42.59-5.61,17.49.69,17.49.69S847.92,702.38,848.45,714.87Z"/><path class="cls-34" d="M848.45,714.87V694.23L843,686.79a1.27,1.27,0,0,0-2.29.61,7.13,7.13,0,0,0,1.51,5.39c2.89,3.39-1.55,11.55-1.55,11.55Z"/><path class="cls-34" d="M832.13,696.67s-11.34-7.79-12.36-6.43,1,9.45,10.45,10.67C831.83,699.58,832.13,696.67,832.13,696.67Z"/><path class="cls-34" d="M832.33,702.53S821,694.74,820,696.1s1,9.45,10.45,10.67C832,705.44,832.33,702.53,832.33,702.53Z"/><path class="cls-34" d="M831.48,707.55s-9.35-6.42-10.19-5.3.85,7.79,8.61,8.79C831.23,710,831.48,707.55,831.48,707.55Z"/><path class="cls-33" d="M691.54,967.45s-3.63,13.65-1.71,17.34c2.63,2.12,5.61,1.93,10.66,4.24,6.28,2.89,19.91,18.53,27.66,14.49s-18.77-34.29-18.77-34.29Z"/><path class="cls-32" d="M678.85,833.9s2.37,25.48,4.75,34.65a74.23,74.23,0,0,1,2.72,24.8c-.34,10.19-5.1,18-2.38,34.31s6.79,41.44,6.79,41.44,6.39,10,21.75,3.74c-2.38-15-4.42-44.16-2.72-59.45s8.83-44.5,9.17-60.46-3.06-70.83-3.06-70.83-19.87-4.25-35.33,4.25S678.85,833.9,678.85,833.9Z"/><path class="cls-33" d="M642.53,1001.61s-1.74,21.5.61,25.16,24.11,21.17,30.67,18.38c11.16-4.75-10.53-24.39-10.47-33.53S642.53,1001.61,642.53,1001.61Z"/><path class="cls-32" d="M639.7,785.67s-7.14,18.85-5.1,35.92,8.56,44.93,8.92,55.12c1,28.7-5.44,46.2-6.46,62.16s5.26,66.43,5.26,66.43,7.93,15.14,22.36,8.75c0-21.74-.78-62.95,4-76.54s6.46-28,7.48-41.27,4.41-55.2,4.41-55.2,36-10.72,35.33-58.94C689.72,775.65,639.7,785.67,639.7,785.67Z"/><path class="cls-32" d="M702.16,638.27s11.42,1,15.24,7.7,3.75,72.32,3.75,72.32L744,758l-17.45,8.21-25.35-47.73S697.88,656.47,702.16,638.27Z"/><path class="cls-34" d="M732.35,759.68c5.6-4.59,14.35-.76,16.9,3.57s4.84,13.5,4.84,13.5l-24.44,2.07S721.12,768.27,732.35,759.68Z"/><path class="cls-33" d="M627.85,678a27.13,27.13,0,0,1,8.78-20.72c8.25-7.55,22-18.91,31.85-20.92,15-3.06,39.49,0,44.59,9.17s1.71,23,5.06,28.88,12.18,22.93,0,31.25c-13.54,9.25-2.26,76.43-2.26,76.43s-34.65,27.77-76.17,3.57c.76-27.26,2.29-51-1.79-63.7C634.8,712.24,628.26,694,627.85,678Z"/><path class="cls-32" d="M633.58,660.29c8.59-7.56,22.17,15,19.9,43.85A276.56,276.56,0,0,1,649,735.05l57.4,23.78s2.65,11-8.53,18.94c-20.68-.93-62.91-20-66-26.41S620,672.3,633.58,660.29Z"/><polygon class="cls-38" points="723.53 772.86 706.63 792.74 706.63 796.03 761.16 796.03 778.06 776.16 778.06 772.86 723.53 772.86"/><polygon class="cls-32" points="723.53 772.86 706.63 792.74 761.16 792.74 778.06 772.86 723.53 772.86"/><path class="cls-34" d="M697.83,777.77s-.26-16.65,9.32-17.45c10.59,1.74,13.48,4.46,13.48,4.46L732.35,781s-1.87,1.91-4.08,1.06-8-8.49-8-8.49l-.24,5.21-6.91,7.95S702.22,784.45,697.83,777.77Z"/><path class="cls-34" d="M663.13,615v29.3s3.32,8.15,15.8,7.64S691.16,645,691.16,645V629Z"/><path class="cls-34" d="M669.81,563.66c17.49-9.84,36.38,3.41,43.77,12.07s4.59,28.28,0,38.47S696,644.78,686.06,642.48s-25-10.7-29.8-34.39S657.58,570.54,669.81,563.66Z"/><ellipse class="cls-34" cx="665.26" cy="606.15" rx="7.09" ry="10.87" transform="translate(-113.1 154.32) rotate(-12.2)"/><path class="cls-32" d="M2315,464.87c5.34,44.74-48.37,66.92-69.4,66.92s-106.37-33.58-108.65-50.24c-1.53-11.19,15-18.41,34.45-14.79S2315,464.87,2315,464.87Z"/><path class="cls-39" d="M2296.59,457.42c.9,1.49-.21,36.11-21.25,36.11s-84.18-25.61-102.12-33.06c-1.32-.55-6.63-26.11,12.79-22.49S2296.59,457.42,2296.59,457.42Z"/><ellipse class="cls-32" cx="2219.99" cy="486.04" rx="23.96" ry="16.76" transform="translate(27.39 1083.62) rotate(-27.59)"/><path class="cls-32" d="M2113.43,464.87l84.81-42.41-12.57-54.95c0-3.39-2.48-4.93-5.51-3.41L2106.38,401c-3,1.52-5.51,2.74-5.51,6.13Z"/><polygon class="cls-34" points="2181.05 368.82 2105.49 406.6 2118.06 457.39 2193.62 419.61 2181.05 368.82"/><polygon class="cls-33" points="2161.26 492.79 2246.07 450.39 2246.07 446.38 2161.26 488.78 2161.26 492.79"/><polygon class="cls-33" points="2161.26 492.79 2113.43 468.88 2113.43 464.87 2161.26 488.78 2161.26 492.79"/><polygon class="cls-37" points="2246.07 446.38 2198.24 422.46 2113.43 464.87 2161.26 488.78 2246.07 446.38"/><polygon class="cls-40" points="2275.21 465.51 2267.89 461.85 2260.56 465.51 2267.89 469.18 2275.21 465.51"/><path class="cls-33" d="M2226.53,428.36l-3.07,56c-.41,7.6.44,17,9.39,26.62,5.38,5.81,18.19,7.52,29,4.61l13.37-75.15-30.69-19.57Z"/><path class="cls-34" d="M2175.17,476.71s-14.58,2.58-18.64-5.86-.55-14.48,5.65-16.82,19,8.39,19,8.39Z"/><path class="cls-34" d="M2174,463.18a2.78,2.78,0,0,1-2.46-1.5c-.29-.56-.65-1.25-.37-6.55l-3.07-3.21a2.77,2.77,0,1,1,4-3.82l3.9,4.08a2.77,2.77,0,0,1,.76,2.08,50.52,50.52,0,0,0-.12,5.33,2.75,2.75,0,0,1-1.37,3.27A2.66,2.66,0,0,1,2174,463.18Zm2.45-4Z"/><path class="cls-34" d="M2165.57,458.76a2.38,2.38,0,0,1-1.7-.72l-5.87-6-6.94-2.94a2.37,2.37,0,0,1,1.85-4.36l7.38,3.12a2.63,2.63,0,0,1,.78.53l6.2,6.38a2.38,2.38,0,0,1-1.7,4Z"/><path class="cls-34" d="M2162.17,464.19a2.34,2.34,0,0,1-1.56-.59l-7.3-6.43-7.28-5a2.37,2.37,0,0,1,2.69-3.9l7.4,5.09a1.92,1.92,0,0,1,.22.18l7.4,6.52a2.37,2.37,0,0,1-1.57,4.14Z"/><path class="cls-34" d="M2159.49,467.44a2.44,2.44,0,0,1-1.35-.42l-8-5.57-6.65-4.14a2.37,2.37,0,0,1,2.51-4l6.7,4.17.09.07,8.07,5.59a2.37,2.37,0,0,1-1.35,4.32Z"/><path class="cls-34" d="M2162.2,475.53a2.37,2.37,0,0,1-1.38-.45l-7.78-5.62-9.06-5.62a2.37,2.37,0,1,1,2.49-4l9.14,5.67a1.1,1.1,0,0,1,.14.09l7.84,5.66a2.37,2.37,0,0,1-1.39,4.3Z"/><path class="cls-33" d="M2244,439.21l-.45-40.17a19.12,19.12,0,0,1,10.58-17.34L2294,361.77a15.49,15.49,0,0,1,14.31.08,16.57,16.57,0,0,1,7.88,11v88.62c0,11.68-10.88,25.08-22.67,37.32s-31.65,16.77-31.65,16.77Z"/><polyline class="cls-41" points="2251.02 399.07 2215.78 469.58 2180.58 471.41"/><path class="cls-34" d="M2283.47,365.48s-3.91-8.4-7.68-16.45c.95-13.52.33-46.83-29.11-44.44-31.36,2.56-32.44,22.78-32.44,22.78-1.4,6.05-2,15.2,3.24,23.47l6.18,7.83c9.88,11.53,21.06,21.08,26.86,19.17a20.5,20.5,0,0,0,10-7.86,94.93,94.93,0,0,0,5.17,8.18c3.92,5.07,16.6,1.38,19.13-3.46S2283.47,365.48,2283.47,365.48Z"/><path class="cls-34" d="M2925.22,846.46s11.22,20.88-5.33,34.68-12.47-26.89-12.47-26.89l7.1-7.79Z"/><path class="cls-32" d="M2905.38,785c-1.16-9.18-5.67-46.38-5.79-69-.05-8.74,11.07-13.06,16.57-6.27.18.23.35.45.51.69,4,5.89,8.53,60,9.51,72.33l.43,68.65s-3.08,6.63-14.57,1.1C2907.42,838.31,2905.38,785,2905.38,785Z"/><path class="cls-33" d="M2890.32,1047.48s-3.78,14.22-1.79,18.07c2.75,2.21,5.86,2,11.11,4.42,6.55,3,24.26,23,28.83,15.09,12.2-21.08-19.56-35.72-19.56-35.72Z"/><path class="cls-32" d="M2879.22,908.34s2.48,26.54,5,36.1,3.44,103,3.44,103,10.65,12.09,26.65,5.62c0,0,6.37-108.31,6.72-124.94s-3.18-73.8-3.18-73.8-20.71-4.42-36.81,4.43S2879.22,908.34,2879.22,908.34Z"/><path class="cls-33" d="M2839.35,1083.07s-1.81,22.41.64,26.21,25.11,22.07,32,19.16c11.63-5-11-25.41-10.91-34.93S2839.35,1083.07,2839.35,1083.07Z"/><path class="cls-32" d="M2838.43,858.08s-7.44,19.64-5.31,37.43,3.63,105.56,2.56,122.19,2,64,2,64,11.71,21,26.75,14.35c0-22.65,10.87-108.94,11.93-122.74s4.6-72,4.6-72,26.44-6.37,36.81-46.9C2890.54,847.64,2838.43,858.08,2838.43,858.08Z"/><path class="cls-33" d="M2826.09,745.91c-1.91-8,3.1-16.06,9.14-21.59,8.6-7.87,22.9-19.71,33.19-21.8,15.67-3.18,44.68-1.23,46.46,9.56-7.9,80.8,2.92,142.28,2.92,142.28s-36.1,28.94-79.37,3.72C2839.22,829.67,2845.49,826.83,2826.09,745.91Z"/><path class="cls-34" d="M2903.59,747.87c10.5-11.63,6.53-37-11.55-46.38a87.54,87.54,0,0,0-23.62,1c-5.09,1-11.18,4.47-17.06,8.62h0s4.45,16.59,12.52,29.27C2873.27,755.16,2890.74,762.1,2903.59,747.87Z"/><path class="cls-34" d="M2862.85,680.22v30.53s3.45,8.5,16.46,8,12.74-7.16,12.74-7.16V694.82Z"/><path class="cls-32" d="M2892.05,702.82v-8l-27.46-13.73C2872.34,699.94,2881.88,702.37,2892.05,702.82Z"/><path class="cls-34" d="M2910,651.61c1.06-20.18-1.89-25.76-1.89-25.76h0a4.41,4.41,0,0,0-1.52-2.61,30.29,30.29,0,0,0-8.93-5.08c-13.15-5-35.9-9.33-52.86,3.29-13.4,10-10.63,54.3,18.37,68.16a37.94,37.94,0,0,1,0-5.67c12.07,12.07,25.48,13.5,34.06,12.25,10.52-1.54,12.51-25.47,13.11-37.1A45.52,45.52,0,0,0,2910,651.61Z"/><path class="cls-33" d="M2911.33,718.74s6.55,32.42,10.79,38.88c6.59,9.13,3.51,31.78-17.41,30.72s-10.5-20.89-8.55-22.3S2907.28,745,2907.28,745Z"/><path class="cls-34" d="M2921.93,739s-2.56-4.87-5.48-5.4,1.24,8,1.24,8Z"/><path class="cls-32" d="M2897.78,749.42l14.81,4.2a2,2,0,0,0,2.52-1.4l10-35.39a2,2,0,0,0-2.36-2.55l-16.2,3.27a2,2,0,0,0-1.54,1.39l-8.64,27.93A2,2,0,0,0,2897.78,749.42Z"/><path class="cls-34" d="M2892.05,764.69s5.67,12.81,11.51,7.5c1.91-1.74,12.07-11,13.6-13.49,3.14-5.14-.4-6.93-.81-10.86-.61-5.84-18.23.72-18.23.72S2892.6,751.68,2892.05,764.69Z"/><path class="cls-34" d="M2892.05,764.69v-21.5l5.71-7.75a1.32,1.32,0,0,1,2.38.63,7.39,7.39,0,0,1-1.57,5.61c-3,3.54,1.62,12,1.62,12Z"/><path class="cls-34" d="M2909.05,745.73s11.82-8.12,12.88-6.7-1.07,9.84-10.89,11.11C2909.37,748.76,2909.05,745.73,2909.05,745.73Z"/><path class="cls-34" d="M2908.84,751.84s11.83-8.12,12.89-6.71-1.08,9.85-10.89,11.12C2909.16,754.87,2908.84,751.84,2908.84,751.84Z"/><path class="cls-34" d="M2909.73,757.07s9.75-6.7,10.62-5.53-.89,8.12-9,9.17C2910,759.56,2909.73,757.07,2909.73,757.07Z"/><ellipse class="cls-34" cx="2911.94" cy="733.13" rx="5.12" ry="3.17" transform="translate(777.12 2844.86) rotate(-58.82)"/><path class="cls-32" d="M2829.18,788.37c4.53,17.56,15.11,32.62,27.35,34.86,20,3.66,47-51,47-51l-11.51-7.5s-18.77,38.63-31.44,38.63c-7.45,0-10-15.66-11.08-38.63-.29-6,2.19-39.11-11.57-39.11C2819.34,725.58,2824.15,768.88,2829.18,788.37Z"/><path class="cls-34" d="M3013.71,834s-11.85,22.06,5.62,36.64,13.18-28.41,13.18-28.41L3025,834Z"/><path class="cls-32" d="M3034.67,769.08c1.22-9.7,6-49,6.12-72.88.05-9.24-11.7-13.8-17.52-6.62-.18.24-.36.48-.53.73-4.22,6.22-9,63.41-10,76.43L3009.24,836s6.25,10.24,18.39,4.4C3032.51,825.38,3034.67,769.08,3034.67,769.08Z"/><path class="cls-3" d="M3050.28,1046.41s4.47,16.82,2.12,21.38c-3.25,2.61-6.93,2.37-13.15,5.23-7.75,3.55-24.55,22.84-34.1,17.85s23.14-42.27,23.14-42.27Z"/><path class="cls-32" d="M3062.31,899.38s-2.62,28-5.23,38.15-3.64,108.88-3.64,108.88-11.25,12.78-28.15,5.93c0,0-6.73-114.44-7.11-132s3.37-78,3.37-78,21.88-4.68,38.89,4.67S3062.31,899.38,3062.31,899.38Z"/><path class="cls-3" d="M3104.36,1084s2.13,26.33-.75,30.8-29.5,25.93-37.54,22.51c-13.66-5.82,12.89-29.86,12.82-41S3104.36,1084,3104.36,1084Z"/><path class="cls-32" d="M3105.41,846.28s7.86,20.75,5.61,39.55-3.83,111.54-2.71,129.11-2.13,67.61-2.13,67.61-12.38,22.19-28.28,15.16c0-23.94-11.47-115.12-12.6-129.7s-4.86-76.1-4.86-76.1-27.94-6.73-38.89-49.56C3050.35,835.24,3105.41,846.28,3105.41,846.28Z"/><path class="cls-33" d="M3118.45,727.75a29.11,29.11,0,0,0-9.66-22.81c-9.08-8.31-24.2-20.82-35.07-23-16.55-3.37-47.2-1.3-49.09,10.1-12.7,76.9-3.08,150.34-3.08,150.34s38.14,30.57,83.86,3.93C3104.57,816.26,3116.19,772.05,3118.45,727.75Z"/><path class="cls-34" d="M3079.61,658.35V690.6s-3.65,9-17.39,8.42-13.46-7.57-13.46-7.57V673.77Z"/><path class="cls-32" d="M3074.25,661l-25.49,12.74V681C3057.29,678.75,3066.62,673.28,3074.25,661Z"/><path class="cls-32" d="M3097.71,790.39c5.41-7.61,28.59-64.61,14-75.16-8.86-6.41-22.27,20.3-27.36,34.49s-11.44,38.06-11.44,38.06-1.16,11.76,5.52,12.94C3088.11,802.43,3097.71,790.39,3097.71,790.39Z"/><path class="cls-32" d="M3097.71,790.39l-62.86-36.3s-16.59,2.34-10.77,16.93C3035.38,784.33,3072.94,819,3097.71,790.39Z"/><path class="cls-34" d="M2997.67,746s.63-5.78,3.29-7.44,1.88,8.31,1.88,8.31Z"/><path class="cls-32" d="M3025.44,746.8l-12.91,9.89a2.16,2.16,0,0,1-3-.4l-23.63-30.87a2.14,2.14,0,0,1,1.33-3.42l17.19-3.1a2.15,2.15,0,0,1,2,.77l19.36,24.08A2.14,2.14,0,0,1,3025.44,746.8Z"/><path class="cls-34" d="M3037,759.56s-4.39,13.21-12.2,10.26c-2.55-1-12.32-4.51-14.79-6.37-5.09-3.83-2.3-7-3.43-11-1.67-6,18.18-6.38,18.18-6.38S3031.41,747,3037,759.56Z"/><path class="cls-34" d="M3037,759.56l-8.36-21.12-8.63-5.39a1.39,1.39,0,0,0-2.09,1.55,7.79,7.79,0,0,0,3.72,4.9c4.33,2.31,3.1,12.45,3.1,12.45Z"/><path class="cls-34" d="M3012.94,747.56s-14.78-3.38-15.27-1.58,4.89,9.26,15,6.69C3013.8,750.65,3012.94,747.56,3012.94,747.56Z"/><path class="cls-34" d="M3015.52,753.47s-14.78-3.37-15.27-1.57,4.89,9.25,15,6.68C3016.38,756.57,3015.52,753.47,3015.52,753.47Z"/><path class="cls-34" d="M3016.68,759s-12.18-2.79-12.58-1.3,4,7.63,12.38,5.51C3017.39,761.51,3016.68,759,3016.68,759Z"/><ellipse class="cls-34" cx="3005.2" cy="736.3" rx="3.35" ry="5.41" transform="translate(601.39 2684.39) rotate(-52.79)"/><path class="cls-34" d="M3085.16,596.73c-18.83-12-47.24-4.51-53.19,4.26-11.44,16.86-1.6,73.56,9.6,74.38,9.89.72,25.51-.65,37.83-17.07a30,30,0,0,1,.21,5.75C3097,644.61,3100.05,606.22,3085.16,596.73Z"/><path class="cls-34" d="M1978.84,888.82s11.85,22.06-5.63,36.64S1960,897.05,1960,897.05l7.5-8.23Z"/><path class="cls-32" d="M1957.87,823.9c-1.22-9.71-6-49-6.12-72.88,0-9.24,11.71-13.8,17.52-6.62.19.24.37.48.54.73,4.22,6.22,9,63.41,10,76.43l3.46,69.29s-6.26,10.24-18.4,4.4C1960,880.2,1957.87,823.9,1957.87,823.9Z"/><path class="cls-3" d="M1942.26,1101.23s-4.47,16.82-2.11,21.38c3.25,2.61,6.92,2.37,13.14,5.22,7.75,3.56,24.55,22.85,34.1,17.86,9.4-4.92-23.14-42.27-23.14-42.27Z"/><path class="cls-32" d="M1930.23,954.2s2.62,28,5.24,38.15,3.63,108.88,3.63,108.88,11.26,12.78,28.16,5.93c0,0,6.73-114.44,7.1-132s-3.36-78-3.36-78-21.88-4.68-38.9,4.67S1930.23,954.2,1930.23,954.2Z"/><path class="cls-3" d="M1888.18,1138.83s-2.12,26.33.75,30.8,29.51,25.93,37.54,22.51c13.66-5.82-12.89-29.86-12.82-41.05S1888.18,1138.83,1888.18,1138.83Z"/><path class="cls-32" d="M1887.13,901.1s-7.85,20.75-5.61,39.54,3.83,111.55,2.71,129.12,2.14,67.61,2.14,67.61,12.37,22.19,28.27,15.16c0-23.94,11.48-115.12,12.6-129.7s4.86-76.1,4.86-76.1S1960,940,1971,897.17C1942.2,890.06,1887.13,901.1,1887.13,901.1Z"/><path class="cls-33" d="M1874.09,782.57a29.13,29.13,0,0,1,9.66-22.81c9.09-8.31,24.2-20.82,35.07-23,16.55-3.37,47.21-1.3,49.09,10.1,12.7,76.9,3.09,150.34,3.09,150.34s-38.15,30.57-83.87,3.93C1888,871.08,1876.35,826.86,1874.09,782.57Z"/><path class="cls-34" d="M1912.93,713.17v32.25s3.65,9,17.39,8.42,13.47-7.57,13.47-7.57V728.59Z"/><path class="cls-32" d="M1918.29,715.85l25.5,12.74v7.22C1935.25,733.57,1925.93,728.1,1918.29,715.85Z"/><path class="cls-32" d="M1894.84,845.2c-5.41-7.6-28.6-64.6-14-75.15,8.86-6.41,22.27,20.3,27.37,34.49s11.43,38.06,11.43,38.06,1.16,11.76-5.52,12.94C1904.44,857.25,1894.84,845.2,1894.84,845.2Z"/><path class="cls-32" d="M1894.84,845.2l62.86-36.3s16.58,2.35,10.76,16.94C1957.16,839.15,1919.61,873.78,1894.84,845.2Z"/><path class="cls-34" d="M1994.87,800.8s-.62-5.78-3.29-7.44-1.88,8.31-1.88,8.31Z"/><path class="cls-32" d="M1967.1,801.62l12.92,9.89a2.15,2.15,0,0,0,3-.4l23.63-30.87a2.15,2.15,0,0,0-1.32-3.42l-17.19-3.1a2.16,2.16,0,0,0-2.06.77l-19.36,24.08A2.15,2.15,0,0,0,1967.1,801.62Z"/><path class="cls-34" d="M1955.53,814.38s4.4,13.21,12.2,10.26c2.55-1,12.32-4.51,14.79-6.37,5.09-3.83,2.31-7,3.43-11,1.68-6-18.18-6.38-18.18-6.38S1961.13,801.82,1955.53,814.38Z"/><path class="cls-34" d="M1955.53,814.38l8.37-21.12,8.62-5.39a1.4,1.4,0,0,1,2.1,1.55,7.87,7.87,0,0,1-3.73,4.9c-4.33,2.31-3.1,12.45-3.1,12.45Z"/><path class="cls-34" d="M1979.61,802.38s14.77-3.38,15.26-1.58-4.89,9.26-15,6.69C1978.74,805.47,1979.61,802.38,1979.61,802.38Z"/><path class="cls-34" d="M1977,808.29s14.77-3.37,15.26-1.57-4.89,9.25-15,6.68C1976.16,811.39,1977,808.29,1977,808.29Z"/><path class="cls-34" d="M1975.86,813.78s12.18-2.79,12.59-1.3-4,7.63-12.39,5.51C1975.15,816.33,1975.86,813.78,1975.86,813.78Z"/><ellipse class="cls-34" cx="1987.35" cy="791.12" rx="5.41" ry="3.35" transform="translate(-73.83 1362.92) rotate(-37.21)"/><path class="cls-34" d="M1907.38,651.55c18.83-12,47.24-4.51,53.2,4.26,11.43,16.86,1.59,73.56-9.61,74.38-9.89.71-25.51-.65-37.83-17.07a31,31,0,0,0-.21,5.75C1895.57,699.42,1892.5,661,1907.38,651.55Z"/><path class="cls-34" d="M136,772.82s11.85,22.06-5.63,36.64-13.18-28.41-13.18-28.41l7.5-8.23Z"/><path class="cls-32" d="M115,707.9c-1.22-9.71-6-49-6.12-72.88-.05-9.24,11.7-13.8,17.52-6.62.19.24.37.48.54.73,4.21,6.22,9,63.41,10,76.43l3.45,69.29s-6.25,10.24-18.39,4.4C117.15,764.2,115,707.9,115,707.9Z"/><path class="cls-3" d="M99.38,985.23s-4.47,16.82-2.11,21.38c3.25,2.61,6.92,2.37,13.14,5.22,7.75,3.56,24.55,22.85,34.1,17.86s-23.14-42.27-23.14-42.27Z"/><path class="cls-32" d="M87.35,838.2s2.62,28,5.23,38.15,3.64,108.88,3.64,108.88,11.25,12.78,28.15,5.93c0,0,6.73-114.44,7.11-132s-3.37-78-3.37-78-21.88-4.68-38.89,4.67S87.35,838.2,87.35,838.2Z"/><path class="cls-3" d="M45.3,1022.83s-2.13,26.33.75,30.8,29.5,25.93,37.54,22.51c13.66-5.82-12.89-29.86-12.82-41.05S45.3,1022.83,45.3,1022.83Z"/><path class="cls-32" d="M44.25,785.1s-7.86,20.75-5.61,39.54,3.83,111.55,2.71,129.12,2.13,67.61,2.13,67.61,12.38,22.19,28.28,15.16c0-23.94,11.47-115.12,12.6-129.7s4.86-76.1,4.86-76.1,27.94-6.73,38.89-49.56C99.32,774.06,44.25,785.1,44.25,785.1Z"/><path class="cls-33" d="M31.21,666.57a29.09,29.09,0,0,1,9.66-22.81c9.08-8.31,24.2-20.82,35.07-23,16.55-3.37,47.2-1.3,49.09,10.1,12.7,76.9,3.08,150.34,3.08,150.34S90,811.74,44.25,785.1C45.09,755.08,33.47,710.86,31.21,666.57Z"/><path class="cls-34" d="M70.05,597.17v32.25s3.65,9,17.39,8.42,13.46-7.57,13.46-7.57V612.59Z"/><path class="cls-32" d="M75.41,599.85l25.5,12.74v7.22C92.37,617.57,83.05,612.1,75.41,599.85Z"/><path class="cls-32" d="M52,729.2c-5.41-7.6-28.59-64.6-14-75.15,8.86-6.41,22.27,20.3,27.36,34.49S76.76,726.6,76.76,726.6s1.16,11.76-5.52,12.94C61.56,741.25,52,729.2,52,729.2Z"/><path class="cls-32" d="M52,729.2l62.87-36.3s16.58,2.35,10.76,16.94C114.28,723.15,76.72,757.78,52,729.2Z"/><path class="cls-34" d="M152,684.8s-.63-5.78-3.29-7.44-1.88,8.31-1.88,8.31Z"/><path class="cls-32" d="M124.22,685.62l12.91,9.89a2.16,2.16,0,0,0,3-.4l23.63-30.87a2.14,2.14,0,0,0-1.33-3.42l-17.19-3.1a2.15,2.15,0,0,0-2,.77l-19.36,24.08A2.14,2.14,0,0,0,124.22,685.62Z"/><path class="cls-34" d="M112.65,698.38s4.39,13.21,12.2,10.26c2.55-1,12.32-4.51,14.79-6.37,5.09-3.83,2.3-7,3.43-11,1.67-6-18.18-6.38-18.18-6.38S118.25,685.82,112.65,698.38Z"/><path class="cls-34" d="M112.65,698.38,121,677.26l8.63-5.39a1.39,1.39,0,0,1,2.09,1.55,7.82,7.82,0,0,1-3.72,4.9c-4.33,2.31-3.1,12.45-3.1,12.45Z"/><path class="cls-34" d="M136.72,686.38S151.5,683,152,684.8s-4.89,9.26-15,6.69C135.86,689.47,136.72,686.38,136.72,686.38Z"/><path class="cls-34" d="M134.14,692.29s14.78-3.37,15.27-1.57-4.89,9.25-15,6.68C133.28,695.39,134.14,692.29,134.14,692.29Z"/><path class="cls-34" d="M133,697.78s12.18-2.79,12.59-1.3-4,7.63-12.39,5.51C132.27,700.33,133,697.78,133,697.78Z"/><ellipse class="cls-34" cx="144.46" cy="675.12" rx="5.41" ry="3.35" transform="translate(-378.87 224.81) rotate(-37.21)"/><path class="cls-34" d="M64.5,535.55c18.83-12,47.24-4.51,53.19,4.26,11.44,16.86,1.6,73.56-9.6,74.38-9.89.71-25.51-.65-37.83-17.07a30,30,0,0,0-.21,5.75C52.69,583.42,49.62,545,64.5,535.55Z"/><polygon class="cls-42" points="748.03 97.93 730.61 101.91 762.21 121.19 779.64 117.2 748.03 97.93"/><polygon class="cls-23" points="782.51 158.68 779.64 117.2 762.21 121.19 765.09 162.66 782.51 158.68"/><polygon class="cls-7" points="752.54 173.9 782.51 158.68 765.09 162.66 735.24 179.65 752.54 173.9"/><polygon class="cls-43" points="730.61 101.91 701.52 118.92 704.39 160.28 735.24 179.65 765.09 162.66 762.21 121.19 730.61 101.91"/><polygon class="cls-44" points="730.61 101.91 701.52 118.92 704.39 160.28 735.24 179.65 765.09 162.66 762.21 121.19 730.61 101.91"/><polygon class="cls-44" points="779.64 117.2 748.03 97.93 730.61 101.91 730.61 101.91 701.52 118.92 704.39 160.28 735.24 179.65 752.54 173.9 782.51 158.68 779.64 117.2 779.64 117.2"/><g id="NNaDqx.tif"><path class="cls-1" d="M755.23,130.25a8.39,8.39,0,0,0-.71.75l-24,31.67-.66.8-18.48-17.69,6.29-8.12,10.78,10.08,19-25.26,7.73,7.55Z"/></g><polygon class="cls-42" points="456.42 473.53 439 477.51 470.6 496.78 488.02 492.8 456.42 473.53"/><polygon class="cls-23" points="490.9 534.28 488.02 492.8 470.6 496.78 473.48 538.26 490.9 534.28"/><polygon class="cls-7" points="460.93 549.49 490.9 534.28 473.48 538.26 443.63 555.25 460.93 549.49"/><polygon class="cls-43" points="439 477.51 409.91 494.52 412.78 535.88 443.63 555.25 473.48 538.26 470.6 496.78 439 477.51"/><polygon class="cls-44" points="439 477.51 409.91 494.52 412.78 535.88 443.63 555.25 473.48 538.26 470.6 496.78 439 477.51"/><polygon class="cls-44" points="488.02 492.8 456.42 473.53 439 477.51 439 477.51 409.91 494.52 412.78 535.88 443.63 555.25 460.93 549.49 490.9 534.28 488.02 492.8 488.02 492.8"/><g id="NNaDqx.tif-2" data-name="NNaDqx.tif"><path class="cls-1" d="M463.62,505.84a8.51,8.51,0,0,0-.71.76l-24,31.67c-.19.25-.4.49-.65.79l-18.48-17.68,6.29-8.12,10.78,10.08,19-25.27,7.73,7.56Z"/></g><polygon class="cls-43" points="513.23 207.86 527.29 235.86 512.25 265.69 480.95 269.85 462.98 241.73 480.46 208.96 513.23 207.86"/><path class="cls-7" d="M512.66,208.81l13.58,27.05-14.6,29-30.22,4-17.36-27.16,17-31.8,31.63-1.07m.57-.95L480.46,209,463,241.73l18,28.12,31.3-4.16,15-29.83-14.06-28Z"/><polygon class="cls-42" points="503.49 205.66 513.23 207.86 480.49 208.93 470.33 205.94 503.49 205.66"/><polygon class="cls-23" points="470.33 205.94 454.51 235.92 462.98 241.73 480.49 208.93 470.33 205.94"/><polygon class="cls-7" points="480.95 269.85 471.48 262.42 454.51 235.92 462.98 241.73 480.95 269.85"/><path class="cls-45" d="M454.51,235.92l17,26.5,9.47,7.43,31.3-4.16,15-29.83-14.06-28h0l-9.74-2.2-33.16.28Zm58.72-28.06"/><g id="NNaDqx.tif-3" data-name="NNaDqx.tif"><path class="cls-1" d="M516.18,227.5a8.79,8.79,0,0,0-.66.7l-23.13,30.22c-.18.25-.38.47-.62.76l-13-20.52,6-7.73,7.61,11.73,18.34-24.13,5.43,8.75Z"/></g><polygon class="cls-43" points="885.66 346.93 853.22 363.15 853.22 400.02 884.85 416.25 918.11 400.02 918.11 363.05 885.66 346.93"/><path class="cls-7" d="M885.67,349.17l30.43,15.12v34.48L884.87,414,855.23,398.8V364.39l30.44-15.22m0-2.24-32.44,16.22V400l31.63,16.23L918.11,400v-37l-32.45-16.12Z"/><g id="NNaDqx.tif-4" data-name="NNaDqx.tif"><path class="cls-1" d="M909.1,372.17a8.63,8.63,0,0,0-.73.6l-25.18,25.64c-.2.21-.42.4-.68.65l-15.78-15.3,6.58-6.57,9.23,8.73,20-20.46L909.1,372Z"/></g><polygon class="cls-23" points="850.14 403.65 817.7 419.88 817.7 456.75 849.33 472.98 882.58 456.75 882.58 419.77 850.14 403.65"/><path class="cls-7" d="M850.14,405.9,880.57,421v34.47l-31.22,15.24-29.64-15.21v-34.4l30.43-15.22m0-2.25L817.7,419.88v36.87L849.33,473l33.25-16.23v-37l-32.44-16.12Z"/><g id="NNaDqx.tif-5" data-name="NNaDqx.tif"><path class="cls-1" d="M873.57,428.9c-.24.2-.51.38-.73.6l-25.17,25.64-.68.65-15.78-15.31,6.58-6.57,9.22,8.73,20-20.46,6.59,6.54Z"/></g><polygon class="cls-23" points="920.4 403.65 887.96 419.88 887.96 456.75 919.59 472.98 952.84 456.75 952.84 419.77 920.4 403.65"/><path class="cls-7" d="M920.4,405.9,950.83,421v34.47l-31.22,15.24L890,455.52v-34.4L920.4,405.9m0-2.25L888,419.88v36.87L919.59,473l33.25-16.23v-37L920.4,403.65Z"/><g id="NNaDqx.tif-6" data-name="NNaDqx.tif"><path class="cls-1" d="M943.83,428.9c-.24.2-.51.38-.73.6l-25.18,25.64c-.2.21-.41.4-.67.65l-15.78-15.31,6.58-6.57,9.22,8.73,20-20.46,6.59,6.54Z"/></g><polygon class="cls-43" points="938.02 132.92 905.58 149.14 905.58 186.01 937.2 202.24 970.46 186.01 970.46 149.04 938.02 132.92"/><path class="cls-7" d="M938,135.16l30.43,15.12v34.48L937.22,200l-29.64-15.22v-34.4L938,135.16m0-2.24-32.45,16.22V186l31.63,16.23L970.46,186V149L938,132.92Z"/><g id="NNaDqx.tif-7" data-name="NNaDqx.tif"><path class="cls-1" d="M961.45,158.16a8.63,8.63,0,0,0-.73.6L935.54,184.4c-.2.21-.42.4-.68.65l-15.78-15.31,6.59-6.56,9.22,8.73,20-20.46,6.59,6.53Z"/></g><polygon class="cls-23" points="902.49 189.64 870.05 205.87 870.05 242.74 901.68 258.97 934.93 242.74 934.93 205.76 902.49 189.64"/><path class="cls-7" d="M902.49,191.89,932.93,207v34.47L901.7,256.72l-29.64-15.21v-34.4l30.43-15.22m0-2.25-32.44,16.23v36.87L901.68,259l33.25-16.23v-37l-32.44-16.12Z"/><g id="NNaDqx.tif-8" data-name="NNaDqx.tif"><path class="cls-1" d="M925.92,214.89c-.24.2-.51.38-.73.6L900,241.13l-.68.64-15.78-15.3,6.58-6.57,9.22,8.73,20-20.46,6.59,6.54Z"/></g><polygon class="cls-23" points="972.75 189.64 940.31 205.87 940.31 242.74 971.94 258.97 1005.19 242.74 1005.19 205.76 972.75 189.64"/><path class="cls-7" d="M972.75,191.89,1003.18,207v34.47L972,256.72l-29.64-15.21v-34.4l30.43-15.22m0-2.25-32.44,16.23v36.87L971.94,259l33.25-16.23v-37l-32.44-16.12Z"/><g id="NNaDqx.tif-9" data-name="NNaDqx.tif"><path class="cls-1" d="M996.18,214.89c-.24.2-.51.38-.73.6l-25.17,25.64-.68.64-15.78-15.3,6.58-6.57,9.22,8.73,20-20.46,6.59,6.54Z"/></g><polygon class="cls-42" points="459.44 753.53 475.22 757.08 448.24 774.26 432.46 770.71 459.44 753.53"/><polygon class="cls-23" points="432.46 807.68 432.46 770.71 448.24 774.26 448.24 811.23 432.46 807.68"/><polygon class="cls-7" points="460.12 821.25 432.46 807.68 448.24 811.23 475.9 826.37 460.12 821.25"/><polygon class="cls-43" points="475.22 757.08 502.2 772.24 502.2 809.11 475.9 826.37 448.24 811.23 448.24 774.26 475.22 757.08"/><polygon class="cls-45" points="475.22 757.08 502.2 772.24 502.2 809.11 475.9 826.37 448.24 811.23 448.24 774.26 475.22 757.08"/><g id="NNaDqx.tif-10" data-name="NNaDqx.tif"><path class="cls-1" d="M495.85,781a8.43,8.43,0,0,0-.69.65Q483.23,795.28,471.32,809c-.19.22-.4.42-.65.69l-14.94-14.24,6.23-7,8.74,8.11c6.29-7.27,12.57-14.5,18.91-21.82l6.24,6.09Z"/></g><polygon class="cls-45" points="432.46 770.71 459.44 753.53 475.22 757.08 475.22 757.08 502.2 772.24 502.2 809.11 475.89 826.37 460.12 821.25 432.46 807.68 432.46 770.71 432.46 770.71"/><polygon class="cls-42" points="429.58 699.85 445.36 703.4 418.38 720.58 402.6 717.03 429.58 699.85"/><polygon class="cls-23" points="402.6 754 402.6 717.03 418.38 720.58 418.38 757.55 402.6 754"/><polygon class="cls-7" points="430.26 767.57 402.6 754 418.38 757.55 446.03 772.7 430.26 767.57"/><polygon class="cls-43" points="445.36 703.4 472.34 718.56 472.34 755.43 446.03 772.7 418.38 757.55 418.38 720.58 445.36 703.4"/><polygon class="cls-45" points="445.36 703.4 472.34 718.56 472.34 755.43 446.03 772.7 418.38 757.55 418.38 720.58 445.36 703.4"/><g id="NNaDqx.tif-11" data-name="NNaDqx.tif"><path class="cls-1" d="M466,727.28c-.23.22-.48.41-.69.65q-11.93,13.68-23.84,27.35l-.65.69-14.94-14.23,6.23-7,8.74,8.11L459.75,721,466,727.1Z"/></g><polygon class="cls-45" points="402.6 717.03 429.58 699.85 445.36 703.4 445.36 703.4 472.34 718.56 472.34 755.43 446.03 772.7 430.26 767.57 402.6 754 402.6 717.03 402.6 717.03"/><polygon class="cls-42" points="402.78 756.68 418.56 760.23 391.58 777.41 375.8 773.86 402.78 756.68"/><polygon class="cls-23" points="375.8 810.84 375.8 773.86 391.58 777.41 391.58 814.39 375.8 810.84"/><polygon class="cls-7" points="403.46 824.4 375.8 810.84 391.58 814.39 419.24 829.53 403.46 824.4"/><polygon class="cls-43" points="418.56 760.23 445.54 775.4 445.54 812.27 419.24 829.53 391.58 814.39 391.58 777.41 418.56 760.23"/><polygon class="cls-45" points="418.56 760.23 445.54 775.4 445.54 812.27 419.24 829.53 391.58 814.39 391.58 777.41 418.56 760.23"/><g id="NNaDqx.tif-12" data-name="NNaDqx.tif"><path class="cls-1" d="M439.19,784.11c-.23.22-.48.42-.69.65l-23.84,27.35-.65.69-14.94-14.23,6.23-7,8.74,8.1L433,777.85l6.24,6.08Z"/></g><polygon class="cls-45" points="375.8 773.86 402.78 756.68 418.56 760.23 418.56 760.23 445.54 775.4 445.54 812.27 419.24 829.53 403.46 824.4 375.8 810.84 375.8 773.86 375.8 773.86"/><polygon class="cls-46" points="1577.81 280.84 1572.2 280.84 1536.51 298.69 1536.51 339.25 1571.3 357.11 1576.91 357.11 1613.5 339.25 1613.5 298.57 1577.81 280.84"/><polygon class="cls-47" points="1578.29 280.84 1542.6 298.69 1542.6 339.25 1577.4 357.11 1613.98 339.25 1613.98 298.57 1578.29 280.84"/><path class="cls-46" d="M1578.3,283.3l33.48,16.64v37.93l-34.36,16.77-32.61-16.74V300.05l33.49-16.75m0-2.46-35.69,17.85v40.56l34.8,17.86L1614,339.25V298.57l-35.69-17.73Z"/><polygon class="cls-46" points="1536.51 298.69 1544.54 299.78 1544.54 337.56 1536.51 339.25 1536.51 298.69"/><path class="cls-48" d="M1580.51,299.78a19.44,19.44,0,1,1-3.11-.25,19.88,19.88,0,0,1,3.11.25"/><path class="cls-49" d="M1580.51,299.78a19.46,19.46,0,0,1,15.64,14.05"/><polygon class="cls-46" points="2222.16 129.67 2226.98 129.67 2257.65 145.01 2257.65 179.87 2227.75 195.22 2222.93 195.22 2191.49 179.87 2191.49 144.91 2222.16 129.67"/><polygon class="cls-47" points="2221.74 129.67 2252.41 145.01 2252.41 179.87 2222.51 195.22 2191.07 179.87 2191.07 144.91 2221.74 129.67"/><path class="cls-46" d="M2221.74,131.79l28.78,14.39v32.53l-28,14.38L2193,178.69v-32.6l28.77-14.3m0-2.12-30.67,15.24v35l31.44,15.35,29.9-15.35V145l-30.67-15.34Z"/><polygon class="cls-47" points="2221.44 129.67 2252.12 145.01 2252.12 179.87 2222.21 195.22 2190.77 179.87 2190.77 144.91 2221.44 129.67"/><path class="cls-46" d="M2221.44,131.79l28.78,14.39v32.53l-28,14.38-29.52-14.4v-32.6l28.77-14.3m0-2.12-30.67,15.24v35l31.44,15.35,29.91-15.35V145l-30.68-15.34Z"/><path class="cls-50" d="M2218.35,146a16.74,16.74,0,1,0,2.68-.21,16.91,16.91,0,0,0-2.68.21"/><path class="cls-51" d="M2237.73,162.44a16.7,16.7,0,0,0-16.7-16.7"/><path class="cls-51" d="M2218.35,146a16.69,16.69,0,1,0,18.86,12.34"/><path class="cls-52" d="M2130.42,335.86c.68-12.58-4.37-87.27,73.9-139.92"/><path class="cls-52" d="M1544.54,363.51s-19.07,115.48-8,168.28"/><path class="cls-53" d="M3334.51,417.81c0,59.48,60.66,124.94,78.66,210.29,16.91,80.12,6.91,108.46,6.91,108.46"/><polygon class="cls-46" points="3334.4 333.42 3340.03 333.42 3375.89 351.36 3375.89 392.11 3340.93 410.05 3335.3 410.05 3298.54 392.11 3298.54 351.24 3334.4 333.42"/><polygon class="cls-47" points="3333.91 333.42 3369.77 351.36 3369.77 392.11 3334.81 410.05 3298.05 392.11 3298.05 351.24 3333.91 333.42"/><path class="cls-46" d="M3333.91,335.9l33.64,16.83v38l-32.77,16.81-34.51-16.85V352.61l33.64-16.71m0-2.48-35.86,17.82v40.87l36.76,17.94,35-17.94V351.35l-35.86-17.93Z"/><path class="cls-54" d="M3330,352.45a19.55,19.55,0,1,0,3.13-.25,20.23,20.23,0,0,0-3.13.25"/><path class="cls-55" d="M3330,352.45a19.54,19.54,0,1,0,18.17,31.75"/><path class="cls-53" d="M144.55,320.36c0,59.48-12.22,124.94,5.79,210.29,16.9,80.12,6.9,108.45,6.9,108.45"/><polygon class="cls-46" points="144.14 235.97 149.77 235.97 185.63 253.9 185.63 294.66 150.67 312.6 145.04 312.6 108.28 294.66 108.28 253.78 144.14 235.97"/><polygon class="cls-47" points="143.65 235.97 179.51 253.9 179.51 294.66 144.55 312.6 107.79 294.66 107.79 253.78 143.65 235.97"/><path class="cls-46" d="M143.65,238.45l33.64,16.82v38l-32.76,16.82L110,293.27V255.16l33.64-16.71m0-2.48-35.86,17.82v40.87l36.76,17.94,35-17.94V253.9L143.65,236Z"/><path class="cls-54" d="M139.7,255a19.54,19.54,0,1,0,3.12-.25,18.86,18.86,0,0,0-3.12.25"/><path class="cls-55" d="M139.7,255a19.53,19.53,0,1,0,18.17,31.74"/><polygon class="cls-42" points="2845.14 182.15 2829.36 185.7 2856.34 202.88 2872.12 199.33 2845.14 182.15"/><polygon class="cls-23" points="2872.12 236.31 2872.12 199.33 2856.34 202.88 2856.34 239.86 2872.12 236.31"/><polygon class="cls-7" points="2844.46 249.87 2872.12 236.31 2856.34 239.86 2828.68 255 2844.46 249.87"/><polygon class="cls-43" points="2829.36 185.7 2802.38 200.87 2802.38 237.74 2828.68 255 2856.34 239.86 2856.34 202.88 2829.36 185.7"/><polygon class="cls-45" points="2829.36 185.7 2802.38 200.87 2802.38 237.74 2828.68 255 2856.34 239.86 2856.34 202.88 2829.36 185.7"/><g id="NNaDqx.tif-13" data-name="NNaDqx.tif"><path class="cls-1" d="M2848.85,211.71a5.58,5.58,0,0,0-.61.58l-20.94,24.82c-.17.2-.35.38-.56.62l-13.13-15.82,5.48-6.35,7.67,9,16.61-19.81,5.48,6.75Z"/></g><polygon class="cls-45" points="2872.12 199.33 2845.14 182.15 2829.36 185.7 2829.36 185.7 2802.38 200.87 2802.38 237.74 2828.68 255 2844.46 249.87 2872.12 236.31 2872.12 199.33 2872.12 199.33"/><polygon class="cls-42" points="2875.16 127.31 2859.38 130.87 2886.36 148.04 2902.14 144.5 2875.16 127.31"/><polygon class="cls-23" points="2902.14 181.47 2902.14 144.5 2886.36 148.04 2886.36 185.02 2902.14 181.47"/><polygon class="cls-7" points="2874.49 195.03 2902.14 181.47 2886.36 185.02 2858.71 200.16 2874.49 195.03"/><polygon class="cls-43" points="2859.38 130.87 2832.4 146.03 2832.4 182.9 2858.71 200.16 2886.36 185.02 2886.36 148.04 2859.38 130.87"/><polygon class="cls-45" points="2859.38 130.87 2832.4 146.03 2832.4 182.9 2858.71 200.16 2886.36 185.02 2886.36 148.04 2859.38 130.87"/><g id="NNaDqx.tif-14" data-name="NNaDqx.tif"><path class="cls-1" d="M2878.87,156.87c-.2.2-.42.37-.61.58l-20.94,24.82c-.16.2-.34.38-.56.62l-13.12-15.82,5.47-6.35,7.67,9,16.61-19.8,5.48,6.75Z"/></g><polygon class="cls-45" points="2902.14 144.5 2875.16 127.31 2859.38 130.87 2859.38 130.87 2832.4 146.03 2832.4 182.9 2858.71 200.16 2874.49 195.03 2902.14 181.47 2902.14 144.5 2902.14 144.5"/><polygon class="cls-42" points="2902.87 184.52 2887.09 188.07 2914.07 205.25 2929.85 201.7 2902.87 184.52"/><polygon class="cls-23" points="2929.85 238.67 2929.85 201.7 2914.07 205.25 2914.07 242.22 2929.85 238.67"/><polygon class="cls-7" points="2902.19 252.24 2929.85 238.67 2914.07 242.22 2886.41 257.37 2902.19 252.24"/><polygon class="cls-43" points="2887.09 188.07 2860.11 203.23 2860.11 240.1 2886.41 257.37 2914.07 242.22 2914.07 205.25 2887.09 188.07"/><polygon class="cls-45" points="2887.09 188.07 2860.11 203.23 2860.11 240.1 2886.41 257.37 2914.07 242.22 2914.07 205.25 2887.09 188.07"/><g id="NNaDqx.tif-15" data-name="NNaDqx.tif"><path class="cls-1" d="M2906.58,214.08a5.58,5.58,0,0,0-.61.58L2885,239.47l-.56.63-13.13-15.82,5.48-6.36,7.67,9,16.61-19.81,5.48,6.75Z"/></g><polygon class="cls-45" points="2929.85 201.7 2902.87 184.52 2887.09 188.07 2887.09 188.07 2860.11 203.23 2860.11 240.1 2886.41 257.37 2902.19 252.24 2929.85 238.67 2929.85 201.7 2929.85 201.7"/><polygon class="cls-42" points="3163.27 231.06 3179.05 234.61 3152.06 251.79 3136.28 248.24 3163.27 231.06"/><polygon class="cls-23" points="3136.29 285.22 3136.29 248.24 3152.06 251.79 3152.06 288.77 3136.29 285.22"/><polygon class="cls-7" points="3163.94 298.78 3136.29 285.22 3152.06 288.77 3179.72 303.91 3163.94 298.78"/><polygon class="cls-43" points="3179.05 234.61 3206.03 249.78 3206.03 286.64 3179.72 303.91 3152.06 288.77 3152.06 251.79 3179.05 234.61"/><polygon class="cls-45" points="3179.05 234.61 3206.03 249.78 3206.03 286.64 3179.72 303.91 3152.06 288.77 3152.06 251.79 3179.05 234.61"/><g id="NNaDqx.tif-16" data-name="NNaDqx.tif"><path class="cls-1" d="M3199.67,258.49a8.39,8.39,0,0,0-.68.65l-23.85,27.35c-.19.22-.39.43-.64.69L3159.56,273l6.23-7,8.73,8.11,18.91-21.82,6.24,6.09Z"/></g><polygon class="cls-45" points="3136.28 248.24 3163.27 231.06 3179.05 234.61 3179.05 234.61 3206.03 249.78 3206.03 286.64 3179.72 303.91 3163.94 298.78 3136.28 285.22 3136.28 248.24 3136.28 248.24"/><polygon class="cls-42" points="3133.41 177.38 3149.18 180.93 3122.2 198.11 3106.42 194.56 3133.41 177.38"/><polygon class="cls-23" points="3106.42 231.54 3106.42 194.56 3122.2 198.11 3122.2 235.09 3106.42 231.54"/><polygon class="cls-7" points="3134.08 245.1 3106.42 231.54 3122.2 235.09 3149.86 250.23 3134.08 245.1"/><polygon class="cls-43" points="3149.18 180.93 3176.16 196.1 3176.16 232.97 3149.86 250.23 3122.2 235.09 3122.2 198.12 3149.18 180.93"/><polygon class="cls-45" points="3149.18 180.93 3176.16 196.1 3176.16 232.97 3149.86 250.23 3122.2 235.09 3122.2 198.12 3149.18 180.93"/><g id="NNaDqx.tif-17" data-name="NNaDqx.tif"><path class="cls-1" d="M3169.81,204.81c-.23.22-.48.42-.69.66l-23.84,27.34c-.19.22-.39.43-.64.7l-14.94-14.24,6.23-7,8.73,8.1,18.91-21.81,6.24,6.09Z"/></g><polygon class="cls-45" points="3106.42 194.56 3133.41 177.38 3149.18 180.93 3149.18 180.93 3176.16 196.1 3176.16 232.97 3149.86 250.23 3134.08 245.1 3106.42 231.54 3106.42 194.56 3106.42 194.56"/><polygon class="cls-42" points="3106.61 234.22 3122.38 237.77 3095.4 254.95 3079.63 251.4 3106.61 234.22"/><polygon class="cls-23" points="3079.63 288.37 3079.63 251.4 3095.4 254.95 3095.4 291.92 3079.63 288.37"/><polygon class="cls-7" points="3107.28 301.94 3079.63 288.37 3095.4 291.92 3123.06 307.06 3107.28 301.94"/><polygon class="cls-43" points="3122.38 237.77 3149.36 252.93 3149.36 289.8 3123.06 307.06 3095.4 291.92 3095.4 254.95 3122.38 237.77"/><polygon class="cls-45" points="3122.38 237.77 3149.36 252.93 3149.36 289.8 3123.06 307.06 3095.4 291.92 3095.4 254.95 3122.38 237.77"/><g id="NNaDqx.tif-18" data-name="NNaDqx.tif"><path class="cls-1" d="M3143,261.65a7,7,0,0,0-.68.65l-23.85,27.35c-.19.22-.39.42-.64.69L3102.9,276.1l6.23-7,8.73,8.11,18.91-21.82,6.24,6.09Z"/></g><polygon class="cls-45" points="3079.63 251.4 3106.61 234.22 3122.38 237.77 3122.38 237.77 3149.36 252.93 3149.36 289.8 3123.06 307.06 3107.28 301.94 3079.63 288.37 3079.63 251.4 3079.63 251.4"/><polygon class="cls-43" points="3041.81 28.3 3055.87 56.3 3040.83 86.13 3009.53 90.28 2991.56 62.16 3009.04 29.4 3041.81 28.3"/><path class="cls-7" d="M3041.24,29.25l13.58,27-14.6,29-30.22,4-17.36-27.16,17-31.81,31.63-1.06m.57-.95L3009,29.4l-17.48,32.76,18,28.12,31.3-4.15,15-29.83-14.06-28Z"/><polygon class="cls-42" points="3032.07 26.1 3041.81 28.3 3009.07 29.36 2998.91 26.37 3032.07 26.1"/><polygon class="cls-23" points="2998.91 26.37 2983.09 56.36 2991.56 62.16 3009.07 29.36 2998.91 26.37"/><polygon class="cls-7" points="3009.53 90.28 3000.06 82.86 2983.09 56.36 2991.56 62.16 3009.53 90.28"/><path class="cls-45" d="M2983.09,56.36l17,26.5,9.47,7.42,31.3-4.15,15-29.83-14.06-28h0l-9.74-2.2-33.16.27Zm58.72-28.06"/><g id="NNaDqx.tif-19" data-name="NNaDqx.tif"><path class="cls-1" d="M3044.76,47.94a7.35,7.35,0,0,0-.66.7L3021,78.86c-.18.24-.38.47-.62.76l-13-20.52,6-7.73L3021,63.09,3039.34,39l5.43,8.75Z"/></g><polygon class="cls-43" points="2568.33 225.1 2554.27 253.1 2569.31 282.93 2600.61 287.09 2618.58 258.97 2601.09 226.21 2568.33 225.1"/><path class="cls-7" d="M2568.9,226.06l31.63,1.06,17,31.81-17.36,27.16-30.22-4-14.61-29,13.59-27m-.57-.95-14.06,28,15,29.83,31.3,4.16,18-28.12-17.48-32.76-32.77-1.1Z"/><polygon class="cls-42" points="2578.07 222.91 2568.33 225.1 2601.07 226.17 2611.23 223.18 2578.07 222.91"/><polygon class="cls-23" points="2611.23 223.18 2627.05 253.16 2618.58 258.97 2601.07 226.17 2611.23 223.18"/><polygon class="cls-7" points="2600.61 287.09 2610.08 279.66 2627.05 253.16 2618.58 258.97 2600.61 287.09"/><path class="cls-45" d="M2611.23,223.18l-33.16-.27-9.74,2.2h0l-14.06,28,15,29.83,31.3,4.16,9.47-7.43,17-26.5Zm-42.9,1.93"/><g id="NNaDqx.tif-20" data-name="NNaDqx.tif"><path class="cls-1" d="M2606.74,245.16c-.22.23-.46.44-.66.69l-22.24,29.35c-.18.24-.37.46-.61.74l-17.12-16.39,5.83-7.52,10,9.34L2599.56,238l7.16,7Z"/></g><polygon class="cls-56" points="1184.76 126.1 1169.21 129.66 1197.4 146.85 1212.95 143.29 1184.76 126.1"/><polygon class="cls-57" points="1215.51 180.29 1212.95 143.29 1197.4 146.85 1199.97 183.85 1215.51 180.29"/><polygon class="cls-58" points="1188.78 193.87 1215.51 180.29 1199.97 183.85 1173.34 199 1188.78 193.87"/><polygon class="cls-59" points="1169.21 129.66 1143.27 144.83 1145.82 181.72 1173.34 199 1199.97 183.85 1197.4 146.85 1169.21 129.66"/><path class="cls-60" d="M1165.57,171.55a10,10,0,0,1,.34-3.4,6.6,6.6,0,0,1,1.52-2.58q1.63-1.78,3-3.1c.92-.88,1.7-1.7,2.36-2.47a12.12,12.12,0,0,0,1.52-2.19,4.17,4.17,0,0,0,.48-2.16,4.83,4.83,0,0,0-1.4-3.45,4.56,4.56,0,0,0-3.2-1.28,5.16,5.16,0,0,0-4.28,1.68,6.62,6.62,0,0,0-1.49,4.19L1155,156q.35-7.06,4.27-10.72t10.33-3.57a16.56,16.56,0,0,1,5.3.9,13.52,13.52,0,0,1,4.48,2.55,12.92,12.92,0,0,1,3.18,4.18,14.48,14.48,0,0,1,1.35,5.69,14.94,14.94,0,0,1-.21,3.5,11.05,11.05,0,0,1-1.11,3.09,16.36,16.36,0,0,1-2.18,3.08,37.83,37.83,0,0,1-3.47,3.39,6.24,6.24,0,0,0-1.79,2.31,5.65,5.65,0,0,0-.39,2.26l.09,1.94-9.15-.11Zm-.46,12.81a6.77,6.77,0,0,1,.31-2.4,5.81,5.81,0,0,1,1.11-2,4.9,4.9,0,0,1,1.74-1.27,5.14,5.14,0,0,1,2.17-.44,5.48,5.48,0,0,1,2.22.49,6.07,6.07,0,0,1,1.86,1.32,6.73,6.73,0,0,1,1.28,2,7,7,0,0,1,.53,2.41,6.4,6.4,0,0,1-.32,2.4,5.65,5.65,0,0,1-1.1,1.95,4.92,4.92,0,0,1-1.74,1.28,5.14,5.14,0,0,1-2.17.44,5.48,5.48,0,0,1-2.22-.49,5.87,5.87,0,0,1-1.86-1.33,6.37,6.37,0,0,1-1.28-2A6.81,6.81,0,0,1,1165.11,184.36Z"/><polygon class="cls-61" points="1169.21 129.66 1143.27 144.83 1145.82 181.72 1173.34 199 1199.97 183.85 1197.4 146.85 1169.21 129.66"/><polygon class="cls-61" points="1212.95 143.29 1184.76 126.1 1169.21 129.66 1169.21 129.66 1143.27 144.83 1145.82 181.72 1173.34 199 1188.78 193.87 1215.51 180.29 1212.95 143.29 1212.95 143.29"/><polygon class="cls-56" points="2101.09 83.48 2113.84 86.39 2090.71 100.5 2077.96 97.59 2101.09 83.48"/><polygon class="cls-57" points="2075.85 127.95 2077.96 97.59 2090.71 100.5 2088.61 130.86 2075.85 127.95"/><polygon class="cls-58" points="2097.79 139.08 2075.85 127.95 2088.61 130.86 2110.45 143.29 2097.79 139.08"/><polygon class="cls-59" points="2113.84 86.39 2135.13 98.85 2133.03 129.12 2110.45 143.29 2088.61 130.86 2090.71 100.5 2113.84 86.39"/><polygon class="cls-62" points="2113.84 86.39 2135.13 98.85 2133.03 129.12 2110.45 143.29 2088.61 130.86 2090.71 100.5 2113.84 86.39"/><polygon class="cls-62" points="2077.96 97.59 2101.09 83.48 2113.84 86.39 2113.84 86.39 2135.13 98.85 2133.03 129.12 2110.45 143.29 2097.79 139.08 2075.85 127.95 2077.96 97.59 2077.96 97.59"/><path class="cls-60" d="M2106.92,120.7a8.5,8.5,0,0,1,.61-2.74,7.93,7.93,0,0,1,1.56-2.33c1.06-1.15,2-2.16,2.89-3s1.63-1.67,2.28-2.4a15.25,15.25,0,0,0,1.51-2,3.85,3.85,0,0,0,.62-1.79,2.59,2.59,0,0,0-.89-2.45,3.25,3.25,0,0,0-2.66-.39,6.73,6.73,0,0,0-3.86,2.15,7,7,0,0,0-1.68,3.59l-8.1,1.2a16.44,16.44,0,0,1,4.7-9.27,18.51,18.51,0,0,1,9.29-4.82,14.75,14.75,0,0,1,4.51-.31,8.39,8.39,0,0,1,3.65,1.14,6.16,6.16,0,0,1,2.36,2.68,8.32,8.32,0,0,1,.64,4.22,12.11,12.11,0,0,1-.5,2.8,11.7,11.7,0,0,1-1.25,2.65,21.56,21.56,0,0,1-2.17,2.85q-1.33,1.48-3.33,3.34a8,8,0,0,0-1.77,2.17,5,5,0,0,0-.54,1.86l-.11,1.51-7.92,1.68Zm-1.59,10.18a5.51,5.51,0,0,1,.5-1.95,6.89,6.89,0,0,1,1.14-1.76,7,7,0,0,1,1.62-1.34,6.5,6.5,0,0,1,1.93-.77,4.6,4.6,0,0,1,1.88,0,3.29,3.29,0,0,1,1.49.68,3.24,3.24,0,0,1,.92,1.32,4.3,4.3,0,0,1,.24,1.79,5.73,5.73,0,0,1-.5,2,6.76,6.76,0,0,1-1.14,1.75,6.86,6.86,0,0,1-1.63,1.35,6.19,6.19,0,0,1-1.92.77,4.79,4.79,0,0,1-1.88,0,3.26,3.26,0,0,1-1.49-.69,3.18,3.18,0,0,1-.92-1.31A4.06,4.06,0,0,1,2105.33,130.88Z"/><polygon class="cls-59" points="3351.94 275.26 3351.94 236.94 3383.51 220.14 3415.07 236.94 3415.07 275.26 3383.51 292.05 3351.94 275.26"/><path class="cls-63" d="M3383.51,220.87l30.92,16.45v37.55l-30.92,16.45-30.92-16.45V237.32l30.92-16.45m0-1.46-32.21,17.14v39.09l32.21,17.14,32.21-17.14V236.55l-32.21-17.14Z"/><path class="cls-60" d="M3377.93,262a9.76,9.76,0,0,1,.47-3.26,6.65,6.65,0,0,1,1.55-2.48c1.08-1.15,2.08-2.15,3-3s1.68-1.65,2.34-2.39a13,13,0,0,0,1.53-2.11,4.28,4.28,0,0,0,.55-2.07,4.44,4.44,0,0,0-1.19-3.29,4,4,0,0,0-3-1.18,5.11,5.11,0,0,0-4.13,1.66,6.71,6.71,0,0,0-1.59,4l-8.9-.64q.64-6.76,4.51-10.3a14.15,14.15,0,0,1,9.94-3.54,15.13,15.13,0,0,1,5,.8,11.9,11.9,0,0,1,4.13,2.39,11.19,11.19,0,0,1,2.83,3.95,13.22,13.22,0,0,1,1,5.43,15.07,15.07,0,0,1-.34,3.35,11.65,11.65,0,0,1-1.18,3,17.44,17.44,0,0,1-2.2,3,38.69,38.69,0,0,1-3.44,3.28,6.48,6.48,0,0,0-1.79,2.23,5.5,5.5,0,0,0-.46,2.17v1.86h-8.67Zm-1,12.25a6.51,6.51,0,0,1,.4-2.3,5.82,5.82,0,0,1,1.13-1.88,5.07,5.07,0,0,1,1.7-1.24,5,5,0,0,1,4.16,0,5,5,0,0,1,1.71,1.24,5.63,5.63,0,0,1,1.12,1.88,6.66,6.66,0,0,1,0,4.6,5.63,5.63,0,0,1-1.12,1.88,5.15,5.15,0,0,1-1.71,1.24,5,5,0,0,1-4.16,0,5.21,5.21,0,0,1-1.7-1.24,5.82,5.82,0,0,1-1.13-1.88A6.55,6.55,0,0,1,3377,274.25Z"/><polygon class="cls-56" points="3392.98 219.41 3425.19 236.55 3415.72 236.55 3383.51 219.41 3392.98 219.41"/><polygon class="cls-58" points="3415.72 275.64 3425.19 275.64 3392.98 292.78 3383.51 292.78 3415.72 275.64"/><rect class="cls-57" x="3415.72" y="236.55" width="9.47" height="39.09"/><polyline class="cls-64" points="3392.98 292.78 3383.51 292.78 3351.3 275.64 3351.3 236.55 3383.51 219.41"/><polyline class="cls-64" points="3383.51 219.41 3392.98 219.41 3425.19 236.55 3425.19 275.64 3392.98 292.78"/></g></svg>