<svg width="64" height="67" xmlns="http://www.w3.org/2000/svg">
 <style type="text/css">.st0{fill:#76C2AF;}
	.st1{opacity:0.2;}
	.st2{fill:#231F20;}
	.st3{fill:#FFFFFF;}
	.st4{fill:#E0E0D1;}
	.st5{fill:#4F5D73;}</style>

 <g>
  <title>background</title>
  <rect fill="none" id="canvas_background" height="69" width="66" y="-1" x="-1"/>
 </g>
 <g>
  <title>Layer 1</title>
  <g stroke="null" id="Layer_1">
   <g stroke="null" id="svg_1">
    <circle opacity="0.94" fill="#7f0000" id="svg_2" r="32" cy="33.627165" cx="31.728806" class="st0"/>
   </g>
   <g stroke="null" id="svg_3" class="st1">
    <path stroke="null" id="svg_4" d="m43.728806,53.355971c0,1.1 -0.9,2 -2,2l-20,0c-1.1,0 -2,-0.9 -2,-2l0,0c0,-1.1 0.9,-2 2,-2l20,0c1.1,0 2,0.9 2,2l0,0z" class="st2"/>
   </g>
   <g stroke="null" id="svg_5">
    <path stroke="null" id="svg_6" d="m43.728806,51.355971c0,1.1 -0.9,2 -2,2l-20,0c-1.1,0 -2,-0.9 -2,-2l0,0c0,-1.1 0.9,-2 2,-2l20,0c1.1,0 2,0.9 2,2l0,0z" class="st3"/>
   </g>
   <g stroke="null" id="svg_7">
    <path stroke="null" id="svg_8" d="m36.728806,43.355971c0,0 -1,6 3,6c0,0 -20,0 -16,0s3,-6 3,-6l10,0z" class="st4"/>
   </g>
   <g stroke="null" id="svg_9" class="st1">
    <g stroke="null" id="svg_10">
     <path stroke="null" id="svg_11" d="m51.728806,41.355971c0,2.2 -1.8,4 -4,4l-32,0c-2.2,0 -4,-1.8 -4,-4l0,-22c0,-2.2 1.8,-4 4,-4l32,0c2.2,0 4,1.8 4,4l0,22z" class="st2"/>
    </g>
   </g>
   <g stroke="null" id="svg_12">
    <g stroke="null" id="svg_13">
     <path stroke="null" id="svg_14" d="m15.728806,41.855971c-1.4,0 -2.5,-1.1 -2.5,-2.5l0,-22c0,-1.4 1.1,-2.5 2.5,-2.5l32,0c1.4,0 2.5,1.1 2.5,2.5l0,22c0,1.4 -1.1,2.5 -2.5,2.5l-32,0z" class="st5"/>
    </g>
    <g stroke="null" id="svg_15">
     <path stroke="null" id="svg_16" d="m47.728806,16.355971c0.6,0 1,0.4 1,1l0,22c0,0.6 -0.4,1 -1,1l-32,0c-0.6,0 -1,-0.4 -1,-1l0,-22c0,-0.6 0.4,-1 1,-1l32,0m0,-3l-32,0c-2.2,0 -4,1.8 -4,4l0,22c0,2.2 1.8,4 4,4l32,0c2.2,0 4,-1.8 4,-4l0,-22c0,-2.2 -1.8,-4 -4,-4l0,0z" class="st3"/>
    </g>
   </g>
   <g stroke="null" id="svg_17" class="st1">
    <polygon stroke="null" id="svg_18" points="49.72880584001541,41.25597381591797 49.72880584001541,15.255970001220703 25.928806602954865,15.255970001220703 40.928806602954865,41.25597381591797 " class="st3"/>
   </g>
  </g>
  <g id="Layer_2"/>
  <g stroke="null" id="svg_24">
   <path stroke="null" id="svg_22" fill="none" d="m24.499793,19.07045l16.535587,0l0,16.535587l-16.535587,0l0,-16.535587z"/>
   <path stroke="#191919" fill="#ffe100" id="svg_23" d="m29.322673,20.448416l0,7.578811l2.066948,0l0,6.200845l4.822879,-8.267793l-2.755931,0l2.755931,-5.511862l-6.889828,0z"/>
  </g>
 </g>
</svg>