<svg width="323.8" height="284.8" xmlns="http://www.w3.org/2000/svg">
 <style type="text/css">.st0{opacity:0.15;fill:url(#SVGID_1_);}
	.st1{fill:url(#SVGID_2_);}</style>

 <g>
  <title>background</title>
  <rect x="-1" y="-1" width="187.02852" height="164.742812" id="canvas_background" fill="none"/>
 </g>
 <g>
  <title>Layer 1</title>
  <g id="svg_27" stroke="null">
   <g transform="matrix(0.811958192864626,0,0,-0.811958192864626,-8391.603432012776,-7768.653113775582) " id="svg_26" stroke="null">
    <g id="svg_25" stroke="null">
     <g clip-path="url(#svg_83)" id="svg_24" stroke="null">
      <g id="svg_23" stroke="null">
       <path id="svg_22" d="m10400.186189,-9664.647059l97.225,-157.232c0.75401,-1.218 0.97401,-2.691 0.61001,-4.076l-15.098,-57.518l9.126,-15.806c1.533,-0.162 3.12999,0.329 4.305,1.542l70.052,72.337l44.403,0l52.476,87.19l34.733,0l1.346,0.003l3.73,6.46c-0.235,0.969 -0.74501,1.881 -1.53101,2.606l-38.278,35.334l-100.108,-44.403l-103.338,81.54l-55.207,0c-4.09499,0 -6.6,-4.494 -4.446,-7.977" fill-rule="nonzero" fill="#7f00ff"/>
      </g>
     </g>
    </g>
   </g>
  </g>
  <g id="svg_33" stroke="null">
   <g transform="matrix(0.811958192864626,0,0,-0.811958192864626,-8391.603432012776,-7768.653113775582) " id="svg_32" stroke="null">
    <g id="svg_31" stroke="null">
     <g clip-path="url(#svg_83)" id="svg_30" stroke="null">
      <g id="svg_29" stroke="null">
       <path id="svg_28" d="m10396.296953,-9660.757823l97.225,-157.232c0.75401,-1.218 0.97401,-2.691 0.61001,-4.076l-15.098,-57.518l9.126,-15.806c1.533,-0.162 3.12999,0.329 4.305,1.542l70.052,72.337l44.403,0l52.476,87.19l34.733,0l1.346,0.003l3.73,6.46c-0.235,0.969 -0.74501,1.881 -1.53101,2.606l-38.278,35.334l-100.108,-44.403l-103.338,81.54l-55.207,0c-4.09499,0 -6.6,-4.494 -4.446,-7.977" fill-rule="nonzero" fill="#ffff00"/>
      </g>
     </g>
    </g>
   </g>
  </g>
  <g id="svg_21" stroke="null">
   <g transform="matrix(0.811958192864626,0,0,-0.811958192864626,-8391.603432012776,-7768.653113775582) " id="svg_20" stroke="null">
    <g id="svg_19" stroke="null">
     <g clip-path="url(#svg_83)" id="svg_18" stroke="null">
      <g id="svg_17" stroke="null">
       <path id="svg_16" d="m10393.444846,-9657.905716l97.225,-157.232c0.75401,-1.218 0.97401,-2.691 0.61001,-4.076l-15.098,-57.518l9.126,-15.806c1.533,-0.162 3.12999,0.329 4.305,1.542l70.052,72.337l44.403,0l52.476,87.19l34.733,0l1.346,0.003l3.73,6.46c-0.235,0.969 -0.74501,1.881 -1.53101,2.606l-38.278,35.334l-100.108,-44.403l-103.338,81.54l-55.207,0c-4.09499,0 -6.6,-4.494 -4.446,-7.977" fill-rule="nonzero" fill="#7fff00"/>
      </g>
     </g>
    </g>
   </g>
  </g>
  <g id="svg_15" stroke="null">
   <g transform="matrix(0.811958192864626,0,0,-0.811958192864626,-8391.603432012776,-7768.653113775582) " id="svg_14" stroke="null">
    <g id="svg_13" stroke="null">
     <g clip-path="url(#svg_83)" id="svg_12" stroke="null">
      <g id="svg_11" stroke="null">
       <path id="svg_10" d="m10389.955336,-9655.032001l97.225,-157.232c0.75401,-1.218 0.97401,-2.691 0.61001,-4.076l-15.098,-57.518l9.126,-15.806c1.533,-0.162 3.12999,0.329 4.305,1.542l70.052,72.337l44.403,0l52.476,87.19l34.733,0l1.346,0.003l3.73,6.46c-0.235,0.969 -0.74501,1.881 -1.53101,2.606l-38.278,35.334l-100.108,-44.403l-103.338,81.54l-55.207,0c-4.09499,0 -6.6,-4.494 -4.446,-7.977" fill-rule="nonzero" fill="#ff7f00"/>
      </g>
     </g>
    </g>
   </g>
  </g>
  <metadata id="svg_123">image/svg+xml</metadata>
  <defs>
   <clipPath id="svg_107" clipPathUnits="userSpaceOnUse">
    <path id="svg_122" d="m9794.08524,-9066.53362l1920,0l0,-1080l-1920,0l0,1080z"/>
   </clipPath>
   <clipPath id="svg_102" clipPathUnits="userSpaceOnUse">
    <path id="svg_121" d="m9789.7216,-9041.44272l1920,0l0,-1080l-1920,0l0,1080z"/>
   </clipPath>
   <clipPath id="svg_95" clipPathUnits="userSpaceOnUse">
    <path id="svg_120" d="m9789.7216,-9041.44272l1920,0l0,-1080l-1920,0l0,1080z"/>
   </clipPath>
   <clipPath id="svg_88" clipPathUnits="userSpaceOnUse">
    <path id="svg_119" d="m10749.7216,-9467.44972l-176.229,0c-9.334,0 -15.167,-10.104 -10.501,-18.188l0,0l88.115,-152.618l88.114,-152.619c4.667,-8.084 16.335,-8.084 21.002,0l0,0l88.114,152.619l88.115,152.618c4.666,8.084 -1.168,18.188 -10.502,18.188l0,0l-176.228,0z"/>
   </clipPath>
   <clipPath id="svg_83" clipPathUnits="userSpaceOnUse">
    <path id="svg_116" d="m9868.867257,-8865.848708l1920,0l0,-1080l-1920,0l0,1080z"/>
   </clipPath>
   <clipPath id="svg_76" clipPathUnits="userSpaceOnUse">
    <path id="svg_115" d="m11266.4876,-9467.44972l-176.229,0c-9.335,0 -15.169,-10.104 -10.501,-18.188l0,0l88.114,-152.618l88.115,-152.619c4.666,-8.084 16.335,-8.084 21.001,0l0,0l88.115,152.619l88.114,152.618c4.667,8.084 -1.167,18.188 -10.501,18.188l0,0l-176.228,0z"/>
   </clipPath>
   <clipPath id="svg_69" clipPathUnits="userSpaceOnUse">
    <path id="svg_112" d="m11121.9096,-9467.44972c-4.094,0 -6.6,-4.494 -4.446,-7.977l0,0l97.225,-157.231c0.754,-1.219 0.974,-2.692 0.611,-4.077l0,0l-15.099,-57.518l9.126,-15.806c1.534,-0.162 3.13,0.329 4.305,1.541l0,0l68.511,70.746c0.985,1.018 2.34,1.592 3.756,1.592l0,0l39.233,0c1.834,0 3.533,0.959 4.478,2.531l0,0l49.429,82.127c0.946,1.572 2.646,2.532 4.48,2.532l0,0l31.778,0c0.51,0 1.004,0.101 1.485,0.244l0,0l3.591,6.22c-0.236,0.968 -0.746,1.88 -1.531,2.605l0,0l-35.754,33.004c-1.532,1.414 -3.759,1.782 -5.666,0.937l0,0l-94.085,-41.731c-1.772,-0.787 -3.835,-0.526 -5.357,0.675l0,0l-99.438,78.463c-0.923,0.727 -2.063,1.123 -3.239,1.123l0,0l-53.393,0z"/>
   </clipPath>
  </defs>
  <g id="svg_125" stroke="null">
   <g transform="matrix(0.811958192864626,0,0,-0.811958192864626,-8391.603432012776,-7768.653113775582) " id="svg_136" stroke="null">
    <g id="svg_135" stroke="null">
     <g clip-path="url(#svg_83)" id="svg_134" stroke="null">
      <g id="svg_133" stroke="null">
       <path id="svg_132" d="m10386.876358,-9650.926704l97.225,-157.232c0.75401,-1.218 0.97401,-2.691 0.61001,-4.076l-15.098,-57.518l9.126,-15.806c1.533,-0.162 3.12999,0.329 4.305,1.542l70.052,72.337l44.403,0l52.476,87.19l34.733,0l1.346,0.003l3.73,6.46c-0.235,0.969 -0.74501,1.881 -1.53101,2.606l-38.278,35.334l-100.108,-44.403l-103.338,81.54l-55.207,0c-4.09499,0 -6.6,-4.494 -4.446,-7.977" fill-rule="nonzero" fill="#089cfc"/>
      </g>
     </g>
    </g>
   </g>
  </g>
 </g>
</svg>