<svg xmlns="http://www.w3.org/2000/svg" xmlns:xlink="http://www.w3.org/1999/xlink" viewBox="0 0 1365.97 1368.55"><defs><style>.cls-1,.cls-10{fill:none;}.cls-2{clip-path:url(#clip-path);}.cls-3{fill:#a4fcc0;}.cls-4{fill:#89e8a7;}.cls-5{fill:#40afff;}.cls-6{fill:#57c2ff;}.cls-7{fill:#f1b58a;}.cls-8{fill:#735c4a;}.cls-9{fill:#fff;stroke-width:5.7px;}.cls-10,.cls-9{stroke:#89e8a7;stroke-linecap:round;}.cls-10,.cls-13,.cls-9{stroke-miterlimit:10;}.cls-10{stroke-width:6.16px;stroke-dasharray:10.27 20.54;}.cls-11{fill:#ffb74d;}.cls-12{fill:#fecf37;}.cls-13{stroke:#8c8c8c;stroke-width:4.29px;}.cls-14{fill:#4f4f4f;}</style><clipPath id="clip-path"><circle class="cls-1" cx="699.21" cy="657.65" r="494.11"/></clipPath></defs><title>Boid_Team Leaders Earn</title><g id="Layer_2" data-name="Layer 2"><g class="cls-2"><path class="cls-3" d="M699.21,1149.91a490.78,490.78,0,1,1,191.61-38.69A489.15,489.15,0,0,1,699.21,1149.91Z"/><path class="cls-4" d="M699.21,167.24a488.85,488.85,0,1,1-190.89,38.53,487.36,487.36,0,0,1,190.89-38.53m0-3.7c-272.89,0-494.11,221.22-494.11,494.11s221.22,494.11,494.11,494.11,494.11-221.22,494.11-494.11S972.1,163.54,699.21,163.54Z"/><path class="cls-5" d="M581.85,646.61C636,663,665,701.68,676.13,739s32.81,451.33,32.81,451.33-95-7.33-97.64-10S581.85,646.61,581.85,646.61Z"/><path class="cls-6" d="M481,635.06c93.12-3.19,147.59,2.15,176,146.9s0,400.2,0,400.2-193,76.63-320.72-11.36c9.2-172.58-94.81-457.32,17.31-494.54C393.75,662.93,452.82,636,481,635.06Z"/><path class="cls-5" d="M567.52,671.68l16.27,54.86s.12-74.08-29.43-94.73l-12.88,24.86Z"/><path class="cls-7" d="M442.93,548.93s0,69.82,1.53,96.15c29.84,27.1,60.18,71.85,95,81.46,9.65-.43,23.27-48.59,22.63-58-2.29-33.19.66-68.13.66-68.13S473.08,531.76,442.93,548.93Z"/><path class="cls-7" d="M494.06,340.59c-49.22,13.74-84.7,51.51-80.12,119.05S431.6,569,494.06,602.73s112.18,25.18,127.06-40.07,12.6-170.56-38.92-202.61S494.06,340.59,494.06,340.59Z"/><path class="cls-8" d="M443,563.34l50.83-55.67a51.1,51.1,0,0,0-7.75-49.18l19.08-25.91s-11.89-33.19-3.52-47.35c16.25-27.47,112.07-5.72,128.67-30.9,23-34.88-30.86-33.58-67.49-31.29s-101.35,7.25-119.86,18.7c-20.53,12.7-37.51,41.34-37.51,84.77S413.51,535.52,443,563.34Z"/><ellipse class="cls-7" cx="457.75" cy="504.94" rx="27.47" ry="37.83" transform="translate(-117.93 140.13) rotate(-15.44)"/><path class="cls-8" d="M506.08,583.31s69.24,68.51,105.34,47.88,25.22-59.49,11.87-71-45.1,10.59-45.1,10.59-64.75-22.84-83.9-80.3c-18.53-10-10.05,7.15-10.05,7.15S474.4,563.41,506.08,583.31Z"/><path class="cls-8" d="M565.75,567.83c.46.24,23.1-45.49,42.6-46.32,14.86-.64,18.64,5.63,18.64,5.63s9.66-6.08,2.11-15.78c-12.52-7.86-38.39-5.37-51.4,8.35-14.91,15.71-21.53,48.12-21.53,48.12Z"/><path class="cls-6" d="M429.3,648.32l13.63-27.9,77.68,56.12,18.89,50S435.7,690,429.3,648.32Z"/><path class="cls-5" d="M443.31,603.48c-25.16,26.61-29.77,57-29.77,57S494,745.13,496,741.29s24.64-64.75,24.64-64.75S454.62,635.06,443.31,603.48Z"/></g><circle class="cls-9" cx="867.12" cy="461.78" r="138.26"/><path class="cls-10" d="M915.16,590.72s65.62,139-50.32,178.88"/><path class="cls-11" d="M889.6,441.18l-34.36,4.21,24.49-69c2.49-7,2.44-9.19,1.54-10.45a2.45,2.45,0,0,0-2-1c-.69,0-2.8,0-8.25,7.42L793.58,476.8a4,4,0,0,0,3.41,6.13l30.62-2.78L799,553.23a4,4,0,0,0,3.75,5.48,4,4,0,0,0,3.13-1.49L892.7,447.76a4,4,0,0,0,.55-4.27A4,4,0,0,0,889.6,441.18Z"/><path class="cls-12" d="M893.25,443.49a4,4,0,0,0-3.65-2.31l-34.36,4.21,24.49-69c2.49-7,2.44-9.19,1.54-10.45a2.45,2.45,0,0,0-2-1L827,461.78l32.93-6.52a5.66,5.66,0,0,1,5.74,8.78l-65.34,93.87a2.92,2.92,0,0,0,.37.24,4,4,0,0,0,5.17-.93L892.7,447.76A4,4,0,0,0,893.25,443.49Z"/><path class="cls-5" d="M404,976.2c-13.63-19.16-86-109.38-97.8-187.66-6.09-40.39-7.68-89.64,36.68-107.06s92.72,85.2,112.18,139.4,43.69,145.39,43.69,145.39,4.42,44.89-21.1,49.39C440.65,1022.2,404,976.2,404,976.2Z"/><path class="cls-5" d="M404,976.2,644.09,837.54s63.35,9,41.12,64.69C642.05,953.07,498.59,1085.34,404,976.2Z"/><path class="cls-7" d="M786.09,806.59s-2.4-22.07-12.57-28.41-7.18,31.73-7.18,31.73Z"/><path class="cls-13" d="M680,809.71l49.33,37.77A8.22,8.22,0,0,0,740.85,846l90.27-117.9A8.21,8.21,0,0,0,826.06,715L760.4,703.16a8.19,8.19,0,0,0-7.85,2.94L678.6,798.05A8.22,8.22,0,0,0,680,809.71Z"/><path class="cls-7" d="M635.8,858.46s16.8,50.44,46.61,39.2c9.74-3.67,47.06-17.25,56.51-24.35,19.44-14.62,8.8-26.59,13.1-41.95,6.39-22.82-69.45-24.37-69.45-24.37S657.21,810.47,635.8,858.46Z"/><path class="cls-7" d="M635.8,858.46l32-80.68,33-20.6a5.35,5.35,0,0,1,8,5.93c-1.94,6.6-6,14.31-14.24,18.72-16.54,8.81-11.83,47.55-11.83,47.55Z"/><path class="cls-7" d="M727.77,812.6s56.44-12.9,58.32-6-18.69,35.35-57.4,25.53C724.47,824.44,727.77,812.6,727.77,812.6Z"/><path class="cls-7" d="M717.92,835.2s56.44-12.9,58.32-6-18.69,35.35-57.4,25.53C714.62,847,717.92,835.2,717.92,835.2Z"/><path class="cls-7" d="M713.47,856.15s46.53-10.64,48.08-5-15.41,29.14-47.32,21C710.75,865.91,713.47,856.15,713.47,856.15Z"/><ellipse class="cls-14" cx="757.33" cy="769.6" rx="20.65" ry="12.81" transform="translate(-311.24 614.68) rotate(-37.21)"/><polygon class="cls-4" points="939.65 499.06 921.3 499.06 921.3 480.71 903.35 480.71 903.35 499.06 884.99 499.06 884.99 517.02 903.35 517.02 903.35 535.37 921.3 535.37 921.3 517.02 939.65 517.02 939.65 499.06"/></g></svg>