<svg xmlns="http://www.w3.org/2000/svg" viewBox="0 0 1365.97 1368.55"><defs><style>.cls-1{fill:none;stroke:#e3b319;stroke-miterlimit:10;stroke-width:46.32px;}.cls-2{fill:#fed963;}.cls-3{fill:#fecf37;}.cls-4{fill:#e3b319;}.cls-5{fill:#ffa41f;}</style></defs><title>Boid_Win Prizes</title><g id="Layer_2" data-name="Layer 2"><path class="cls-1" d="M513.35,752H461.92c-33.46,0-62.07-28.6-67.81-67.78l-29.72-203c-7.32-50,25.08-95.81,67.81-95.81h81.15c38,0,68.83,36.62,68.83,81.8V670.2C582.18,715.37,551.36,752,513.35,752Z"/><path class="cls-1" d="M852.61,752h51.44c33.46,0,62.07-28.6,67.81-67.78l29.72-203c7.32-50-25.08-95.81-67.81-95.81H852.61c-38,0-68.82,36.62-68.82,81.8V670.2C783.79,715.37,814.6,752,852.61,752Z"/><path class="cls-2" d="M678.61,904.63h-52c0,169.05-30,182-30,182l82,11.71Z"/><path class="cls-3" d="M678.61,904.63h52c0,169.05,30,182,30,182l-82,11.71Z"/><rect class="cls-4" x="572.61" y="863.12" width="220.74" height="51.17" rx="25.58" ry="25.58"/><path class="cls-3" d="M465,322.18H901L887.76,685.32A204.9,204.9,0,0,1,683,883.17h0A204.88,204.88,0,0,1,478.21,685.32Z"/><path class="cls-4" d="M758.88,553.81l-56.34,6.9L742.7,447.52c4.08-11.49,4-15.08,2.52-17.14a4,4,0,0,0-3.33-1.71c-1.13,0-4.59,0-13.51,12.15L601.45,612.21a6.71,6.71,0,0,0-.05,6.86,6.64,6.64,0,0,0,5.65,3.18l50.19-4.56L610.31,737.51a6.54,6.54,0,0,0,2.8,8.07,6.64,6.64,0,0,0,8.49-1.52L764,564.59a6.57,6.57,0,0,0-5.09-10.78Z"/><path class="cls-2" d="M580.21,685.32,567,322.18H465l13.19,363.14A204.88,204.88,0,0,0,683,883.17h0a205.2,205.2,0,0,0,51-6.41A205,205,0,0,1,580.21,685.32Z"/><rect class="cls-4" x="438.6" y="296.96" width="488.77" height="50.46" rx="25.23" ry="25.23"/><rect class="cls-4" x="535.61" y="1086.59" width="294.74" height="46.83" rx="23.42" ry="23.42"/><rect class="cls-4" x="495.65" y="1133.42" width="374.67" height="46.83" rx="23.42" ry="23.42"/><path class="cls-5" d="M758.88,545.57q-.12,0-56.34,6.91l40.16-113.2c4.08-11.49,4-15.07,2.52-17.14a4,4,0,0,0-3.33-1.7c-1.13,0-4.59,0-13.51,12.15L601.45,604a6.73,6.73,0,0,0-.05,6.87,6.63,6.63,0,0,0,5.65,3.17l50.19-4.55L610.31,729.28a6.55,6.55,0,0,0,2.8,8.07,6.71,6.71,0,0,0,3.35.91,6.65,6.65,0,0,0,5.14-2.44L764,556.36a6.58,6.58,0,0,0-5.09-10.79Z"/><path class="cls-2" d="M764.87,549.36a6.65,6.65,0,0,0-6-3.79q-.12,0-56.34,6.91l40.16-113.2c4.08-11.49,4-15.07,2.52-17.14a4,4,0,0,0-3.33-1.7L656.22,579.35l54-10.7a9.28,9.28,0,0,1,9.41,14.4L612.51,737c.19.14.39.27.6.4a6.71,6.71,0,0,0,3.35.91,6.65,6.65,0,0,0,5.14-2.44L764,556.36A6.61,6.61,0,0,0,764.87,549.36Z"/></g></svg>